<svg xmlns="http://www.w3.org/2000/svg" width="907" height="1640" viewBox="-4.00 -2.00 45.34 82.00" role="img">
<style>
.step{fill:#fff;stroke:#111;stroke-width:.14}.step-inner{fill:none;stroke:#111;stroke-width:.08}
.action{fill:#fff;stroke:#111;stroke-width:.14}.gate{stroke:#111;stroke-width:.16}
.edge{fill:none;stroke:#111;stroke-width:.05;stroke-linecap:round;stroke-linejoin:round}.edge-arrow{marker-end:url(#arrow)}
.flyover-mask{stroke:#fff;stroke-width:.12;stroke-linecap:round}
.flyover{fill:none;stroke:#111;stroke-width:.05;stroke-linecap:round}
.junction{fill:#111;stroke:#111;stroke-width:0}.branch-junction{fill:#fff;stroke:#111;stroke-width:.08}
.assoc{stroke:#111;stroke-width:.05}.label{font:bold .7px 'Times New Roman', 'BiauKai', 'DFKai-SB', serif;text-anchor:middle;dominant-baseline:middle}
.action-label{font:.55px 'Times New Roman', 'BiauKai', 'DFKai-SB', serif;text-anchor:middle;dominant-baseline:middle}.gate-label{font:italic .55px 'Times New Roman', 'BiauKai', 'DFKai-SB', serif;text-anchor:start;dominant-baseline:middle}.gate-label-left{font:italic .55px 'Times New Roman', 'BiauKai', 'DFKai-SB', serif;text-anchor:end;dominant-baseline:middle}
</style>
<defs><marker id="arrow" markerWidth="0.4" markerHeight="0.4" refX="0.36" refY="0.2" orient="auto" markerUnits="userSpaceOnUse"><path d="M 0 0 L 0.4 0.2 L 0 0.4 z" fill="#111"/></marker></defs>
<rect x="-4.00" y="-2.00" width="45.34" height="82.00" fill="white"/>
<path class="edge" d="M 25.17 7.00 L 25.17 9.00"/>
<path class="edge edge-arrow" d="M 25.17 9.00 L 25.17 11.00"/>
<path class="edge edge-arrow" d="M 25.17 14.00 L 25.17 16.00"/>
<path class="edge edge-arrow" d="M 10.00 16.00 L 10.00 20.00"/>
<path class="edge edge-arrow" d="M 25.17 16.00 L 25.17 20.00"/>
<path class="edge edge-arrow" d="M 10.00 23.00 L 10.00 27.00"/>
<path class="edge edge-arrow" d="M 25.17 27.00 L 25.17 33.00"/>
<path class="edge edge-arrow" d="M 25.17 23.00 L 25.17 27.00"/>
<path class="edge edge-arrow" d="M 25.17 36.00 L 25.17 38.00"/>
<path class="edge edge-arrow" d="M 10.00 38.00 L 10.00 42.00"/>
<path class="edge edge-arrow" d="M 25.17 38.00 L 25.17 42.00"/>
<path class="edge edge-arrow" d="M 10.00 45.00 L 10.00 49.00"/>
<path class="edge edge-arrow" d="M 25.17 49.00 L 25.17 51.00"/>
<path class="edge edge-arrow" d="M 25.17 45.00 L 25.17 49.00"/>
<path class="edge edge-arrow" d="M 25.17 54.00 L 25.17 56.00"/>
<path class="edge edge-arrow" d="M 25.17 56.00 L 25.17 60.00"/>
<path class="edge edge-arrow" d="M 10.00 56.00 L 10.00 60.00"/>
<path class="edge" d="M 25.17 63.00 L 25.17 65.00"/>
<path class="edge edge-arrow" d="M 25.17 65.00 L 25.17 69.00"/>
<path class="edge" d="M 25.17 72.00 L 25.17 74.00"/>
<path class="edge edge-arrow" d="M 25.17 74.00 L 25.17 75.50 Q 25.17 76.00 24.67 76.00 L 4.50 76.00 Q 4.00 76.00 4.00 75.50 L 4.00 2.50 Q 4.00 2.00 4.50 2.00 L 24.67 2.00 Q 25.17 2.00 25.17 2.50 L 25.17 4.00"/>
<path class="edge" d="M 10.00 63.00 L 10.00 65.00"/>
<path class="edge" d="M 10.00 65.00 L 10.00 66.50 Q 10.00 67.00 9.50 67.00 L 0.50 67.00 Q 0.00 67.00 0.00 66.50 L 0.00 31.50 Q 0.00 31.00 0.50 31.00 L 25.17 31.00"/>
<rect class="step" x="23.17" y="4.00" width="4.00" height="3.00" rx="0.35" ry="0.35"/>
<rect class="step-inner" x="23.42" y="4.25" width="3.50" height="2.50" rx="0.22" ry="0.22"/>
<text class="label" x="25.17" y="5.50">0</text>
<rect class="step" x="23.17" y="11.00" width="4.00" height="3.00" rx="0.35" ry="0.35"/>
<text class="label" x="25.17" y="12.50">1</text>
<rect class="step" x="8.00" y="20.00" width="4.00" height="3.00" rx="0.35" ry="0.35"/>
<text class="label" x="10.00" y="21.50">2</text>
<rect class="step" x="23.17" y="20.00" width="4.00" height="3.00" rx="0.35" ry="0.35"/>
<text class="label" x="25.17" y="21.50">3</text>
<rect class="step" x="23.17" y="33.00" width="4.00" height="3.00" rx="0.35" ry="0.35"/>
<text class="label" x="25.17" y="34.50">4</text>
<rect class="step" x="8.00" y="42.00" width="4.00" height="3.00" rx="0.35" ry="0.35"/>
<text class="label" x="10.00" y="43.50">5</text>
<rect class="step" x="23.17" y="42.00" width="4.00" height="3.00" rx="0.35" ry="0.35"/>
<text class="label" x="25.17" y="43.50">6</text>
<rect class="step" x="23.17" y="51.00" width="4.00" height="3.00" rx="0.35" ry="0.35"/>
<text class="label" x="25.17" y="52.50">7</text>
<rect class="step" x="23.17" y="60.00" width="4.00" height="3.00" rx="0.35" ry="0.35"/>
<text class="label" x="25.17" y="61.50">8</text>
<rect class="step" x="23.17" y="69.00" width="4.00" height="3.00" rx="0.35" ry="0.35"/>
<text class="label" x="25.17" y="70.50">9</text>
<rect class="step" x="8.00" y="60.00" width="4.00" height="3.00" rx="0.35" ry="0.35"/>
<text class="label" x="10.00" y="61.50">10</text>
<line class="assoc" x1="27.17" y1="5.50" x2="28.17" y2="5.50"/>
<rect class="action" x="28.17" y="4.07" width="9.17" height="2.86"/>
<text class="action-label" x="32.76" y="5.09"><tspan x="32.76" dy="0">閒置 — waiting 供 ne</tspan><tspan x="32.76" dy="0.82">w Session round trigger</tspan></text>
<line class="assoc" x1="27.17" y1="12.50" x2="28.17" y2="12.50"/>
<rect class="action" x="28.17" y="11.07" width="9.17" height="2.86"/>
<text class="action-label" x="32.76" y="12.09"><tspan x="32.76" dy="0">Determine agent 路徑 —</tspan><tspan x="32.76" dy="0.82">main vs coding 子代理</tspan></text>
<line class="assoc" x1="12.00" y1="21.50" x2="13.00" y2="21.50"/>
<rect class="action" x="13.00" y="20.07" width="9.17" height="2.86"/>
<text class="action-label" x="17.59" y="21.09"><tspan x="17.59" dy="0">Read coding.txt 與</tspan><tspan x="17.59" dy="0.82">解析 Sentinel 區塊</tspan></text>
<line class="assoc" x1="27.17" y1="21.50" x2="28.17" y2="21.50"/>
<rect class="action" x="28.17" y="20.07" width="9.17" height="2.86"/>
<text class="action-label" x="32.76" y="20.68"><tspan x="32.76" dy="0">Read 全域 + 專案 AGENT</tspan><tspan x="32.76" dy="0.82">S.md, 解析 + dedup Sentin</tspan><tspan x="32.76" dy="0.82">el 區塊 (專案 優先序)</tspan></text>
<line class="assoc" x1="27.17" y1="34.50" x2="28.17" y2="34.50"/>
<rect class="action" x="28.17" y="33.07" width="9.17" height="2.86"/>
<text class="action-label" x="32.76" y="34.09"><tspan x="32.76" dy="0">Iterate 技能 清單 — 解</tspan><tspan x="32.76" dy="0.82">析 下一個 SKILL.md 路徑</tspan></text>
<line class="assoc" x1="12.00" y1="43.50" x2="13.00" y2="43.50"/>
<rect class="action" x="13.00" y="42.07" width="9.17" height="2.86"/>
<text class="action-label" x="17.59" y="42.68"><tspan x="17.59" dy="0">Read SKILL.md content; 記錄已載</tspan><tspan x="17.59" dy="0.82">入 + 釘選 在 SkillLayerRegistry;</tspan><tspan x="17.59" dy="0.82">追加 技能.必要preloaded 事件</tspan></text>
<line class="assoc" x1="27.17" y1="43.50" x2="28.17" y2="43.50"/>
<rect class="action" x="28.17" y="42.07" width="9.17" height="2.86"/>
<text class="action-label" x="32.76" y="42.68"><tspan x="32.76" dy="0">Loud-warn fallback — 記錄.war</tspan><tspan x="32.76" dy="0.82">n + 追加 技能.必要缺失 異</tspan><tspan x="32.76" dy="0.82">常 事件; SKIP 註冊表 mutation</tspan></text>
<line class="assoc" x1="27.17" y1="52.50" x2="28.17" y2="52.50"/>
<rect class="action" x="28.17" y="51.07" width="9.17" height="2.86"/>
<text class="action-label" x="32.76" y="52.09"><tspan x="32.76" dy="0">Check iterator — m</tspan><tspan x="32.76" dy="0.82">ore 技能 在 清單?</tspan></text>
<line class="assoc" x1="27.17" y1="61.50" x2="28.17" y2="61.50"/>
<rect class="action" x="28.17" y="60.07" width="9.17" height="2.86"/>
<text class="action-label" x="32.76" y="60.68"><tspan x="32.76" dy="0">Reconcile — diff 已釘選 entrie</tspan><tspan x="32.76" dy="0.82">s vs new清單; unpin removed; 追</tspan><tspan x="32.76" dy="0.82">加 技能.必要unpinned 供 each</tspan></text>
<line class="assoc" x1="27.17" y1="70.50" x2="28.17" y2="70.50"/>
<rect class="action" x="28.17" y="69.07" width="9.17" height="2.86"/>
<text class="action-label" x="32.76" y="69.68"><tspan x="32.76" dy="0">Invoke 技能-layer-seam 到 渲</tspan><tspan x="32.76" dy="0.82">染 &lt;技能layer&gt; 文字; splice</tspan><tspan x="32.76" dy="0.82">進入 system[] array 供 LLM</tspan></text>
<line class="assoc" x1="12.00" y1="61.50" x2="13.00" y2="61.50"/>
<rect class="action" x="13.00" y="60.07" width="9.17" height="2.86"/>
<text class="action-label" x="17.59" y="61.09"><tspan x="17.59" dy="0">Advance iterator — pic</tspan><tspan x="17.59" dy="0.82">k 下一個 技能 name</tspan></text>
<line class="gate" x1="24.17" y1="9.00" x2="26.17" y2="9.00"/>
<text class="gate-label" x="26.57" y="9.00"><tspan x="26.57" dy="0">roundstartsignal</tspan></text>
<line class="gate" x1="8.00" y1="16.00" x2="27.17" y2="16.00"/>
<line class="gate" x1="8.00" y1="27.00" x2="27.17" y2="27.00"/>
<line class="gate" x1="8.00" y1="38.00" x2="27.17" y2="38.00"/>
<line class="gate" x1="8.00" y1="49.00" x2="27.17" y2="49.00"/>
<line class="gate" x1="8.00" y1="56.00" x2="27.17" y2="56.00"/>
<line class="gate" x1="24.17" y1="65.00" x2="26.17" y2="65.00"/>
<text class="gate-label" x="26.57" y="65.00"><tspan x="26.57" dy="0">reconcile完成</tspan></text>
<line class="gate" x1="24.17" y1="74.00" x2="26.17" y2="74.00"/>
<text class="gate-label" x="26.57" y="74.00"><tspan x="26.57" dy="0">round已完成wait供下一個</tspan></text>
<line class="gate" x1="9.00" y1="65.00" x2="11.00" y2="65.00"/>
<text class="gate-label" x="11.40" y="65.00"><tspan x="11.40" dy="0">下一個技能就緒</tspan></text>
<line class="gate" x1="9.00" y1="18.00" x2="11.00" y2="18.00"/>
<text class="gate-label-left" x="8.60" y="18.00"><tspan x="8.60" dy="0">agent.name === &#x27;coding&#x27; AND 是子代理 === true</tspan></text>
<line class="gate" x1="24.17" y1="18.00" x2="26.17" y2="18.00"/>
<text class="gate-label" x="26.57" y="18.00"><tspan x="26.57" dy="0">otherwise</tspan></text>
<line class="gate" x1="9.00" y1="25.00" x2="11.00" y2="25.00"/>
<text class="gate-label-left" x="8.60" y="24.32"><tspan x="8.60" dy="0">parsed</tspan><tspan x="8.60" dy="0.68">清單</tspan><tspan x="8.60" dy="0.68">就緒</tspan></text>
<line class="gate" x1="24.17" y1="25.00" x2="26.17" y2="25.00"/>
<text class="gate-label" x="26.57" y="25.00"><tspan x="26.57" dy="0">parsed清單就緒</tspan></text>
<line class="gate" x1="9.00" y1="40.00" x2="11.00" y2="40.00"/>
<text class="gate-label-left" x="8.60" y="40.00"><tspan x="8.60" dy="0">技能mdexists</tspan></text>
<line class="gate" x1="24.17" y1="40.00" x2="26.17" y2="40.00"/>
<text class="gate-label" x="26.57" y="40.00"><tspan x="26.57" dy="0">技能md缺失</tspan></text>
<line class="gate" x1="9.00" y1="47.00" x2="11.00" y2="47.00"/>
<text class="gate-label-left" x="8.60" y="46.32"><tspan x="8.60" dy="0">技能已</tspan><tspan x="8.60" dy="0.68">註冊與</tspan><tspan x="8.60" dy="0.68">已釘選</tspan></text>
<line class="gate" x1="24.17" y1="47.00" x2="26.17" y2="47.00"/>
<text class="gate-label" x="26.57" y="47.00"><tspan x="26.57" dy="0">fallbackrecorded</tspan></text>
<line class="gate" x1="24.17" y1="58.00" x2="26.17" y2="58.00"/>
<text class="gate-label" x="26.57" y="58.00"><tspan x="26.57" dy="0">iteration完成</tspan></text>
<line class="gate" x1="9.00" y1="58.00" x2="11.00" y2="58.00"/>
<text class="gate-label-left" x="8.60" y="57.32"><tspan x="8.60" dy="0">more技</tspan><tspan x="8.60" dy="0.68">能rem</tspan><tspan x="8.60" dy="0.68">aining</tspan></text>
<circle class="junction" cx="25.17" cy="31.00" r="0.22"/>
</svg>