<svg width="1174" height="1530" viewBox="-93.5 -50.0 1174.0 1530.0" xmlns="http://www.w3.org/2000/svg">
<defs><marker id="arrow" viewBox="0 0 10 10" refX="10" refY="5" markerWidth="6" markerHeight="6" orient="auto-start-reverse"><path d="M 0 0 L 10 5 L 0 10 z" fill="black" /></marker></defs>
<rect x="-93.5" y="-50.0" width="1174.0" height="1530.0" fill="white" />
<rect x="380.0" y="80.0" width="40.0" height="40.0" stroke="black" stroke-width="1.5" fill="white" />
<rect x="385.0" y="85.0" width="30.0" height="30.0" stroke="black" stroke-width="1" fill="none" />
<text x="400" y="105.0" text-anchor="middle" font-family="'Times New Roman', 'BiauKai', 'DFKai-SB', '標楷體', 'KaiTi', serif" font-weight="bold" font-size="14">0</text>
<line x1="420.0" y1="100.0" x2="460.0" y2="100.0" stroke="black" />
<rect x="460.0" y="54.0" width="307.0" height="92.0" stroke="black" stroke-width="1.2" fill="white" />
<text x="613.5" y="80.0" text-anchor="middle" font-family="'Times New Roman', 'BiauKai', 'DFKai-SB', '標楷體', 'KaiTi', serif" font-size="11">閒置 — waiting</text>
<text x="613.5" y="104.0" text-anchor="middle" font-family="'Times New Roman', 'BiauKai', 'DFKai-SB', '標楷體', 'KaiTi', serif" font-size="11">供 new Session</text>
<text x="613.5" y="127.99999999999999" text-anchor="middle" font-family="'Times New Roman', 'BiauKai', 'DFKai-SB', '標楷體', 'KaiTi', serif" font-size="11">round trigger</text>
<line x1="400" y1="120.0" x2="400" y2="200.0" stroke="black" />
<line x1="380" y1="160.0" x2="420" y2="160.0" stroke="black" stroke-width="2" />
<text x="424.0" y="164.0" font-style="italic" font-size="11" text-anchor="start" font-family="'Times New Roman', 'BiauKai', 'DFKai-SB', '標楷體', 'KaiTi', serif">roundstartsignal</text>
<rect x="380.0" y="200.0" width="40.0" height="40.0" stroke="black" stroke-width="1.5" fill="white" />
<text x="400" y="225.0" text-anchor="middle" font-family="'Times New Roman', 'BiauKai', 'DFKai-SB', '標楷體', 'KaiTi', serif" font-weight="bold" font-size="14">1</text>
<line x1="420.0" y1="220.0" x2="460.0" y2="220.0" stroke="black" />
<rect x="460.0" y="174.0" width="307.0" height="92.0" stroke="black" stroke-width="1.2" fill="white" />
<text x="613.5" y="200.0" text-anchor="middle" font-family="'Times New Roman', 'BiauKai', 'DFKai-SB', '標楷體', 'KaiTi', serif" font-size="11">Determine agent</text>
<text x="613.5" y="224.0" text-anchor="middle" font-family="'Times New Roman', 'BiauKai', 'DFKai-SB', '標楷體', 'KaiTi', serif" font-size="11">路徑 — main vs</text>
<text x="613.5" y="248.00000000000003" text-anchor="middle" font-family="'Times New Roman', 'BiauKai', 'DFKai-SB', '標楷體', 'KaiTi', serif" font-size="11">coding 子代理</text>
<line x1="400" y1="240.0" x2="400" y2="280.0" stroke="black" />
<line x1="126.49999999999999" y1="280.0" x2="673.5" y2="280.0" stroke="black" stroke-width="1.5" />
<line x1="166.5" y1="280.0" x2="166.5" y2="320.0" stroke="black" />
<line x1="146.5" y1="320.0" x2="186.5" y2="320.0" stroke="black" stroke-width="2" />
<text x="142.49999999999997" y="304.0" font-style="italic" font-size="11" text-anchor="end" font-family="'Times New Roman', 'BiauKai', 'DFKai-SB', '標楷體', 'KaiTi', serif">agent.name ===</text>
<text x="142.49999999999997" y="324.0" font-style="italic" font-size="11" text-anchor="end" font-family="'Times New Roman', 'BiauKai', 'DFKai-SB', '標楷體', 'KaiTi', serif">&#x27;coding&#x27; AND 是</text>
<text x="142.49999999999997" y="344.0" font-style="italic" font-size="11" text-anchor="end" font-family="'Times New Roman', 'BiauKai', 'DFKai-SB', '標楷體', 'KaiTi', serif">子代理 === true</text>
<line x1="166.5" y1="320.0" x2="166.5" y2="360.0" stroke="black" marker-end="url(#arrow)" />
<line x1="633.5" y1="280.0" x2="633.5" y2="320.0" stroke="black" />
<line x1="613.5" y1="320.0" x2="653.5" y2="320.0" stroke="black" stroke-width="2" />
<text x="657.5" y="324.0" font-style="italic" font-size="11" text-anchor="start" font-family="'Times New Roman', 'BiauKai', 'DFKai-SB', '標楷體', 'KaiTi', serif">otherwise</text>
<line x1="633.5" y1="320.0" x2="633.5" y2="360.0" stroke="black" marker-end="url(#arrow)" />
<rect x="146.5" y="360.0" width="40.0" height="40.0" stroke="black" stroke-width="1.5" fill="white" />
<text x="166.5" y="385.0" text-anchor="middle" font-family="'Times New Roman', 'BiauKai', 'DFKai-SB', '標楷體', 'KaiTi', serif" font-weight="bold" font-size="14">2</text>
<line x1="186.5" y1="380.0" x2="226.5" y2="380.0" stroke="black" />
<rect x="226.5" y="334.0" width="307.0" height="92.0" stroke="black" stroke-width="1.2" fill="white" />
<text x="380.0" y="360.0" text-anchor="middle" font-family="'Times New Roman', 'BiauKai', 'DFKai-SB', '標楷體', 'KaiTi', serif" font-size="11">Read coding.</text>
<text x="380.0" y="384.0" text-anchor="middle" font-family="'Times New Roman', 'BiauKai', 'DFKai-SB', '標楷體', 'KaiTi', serif" font-size="11">txt 與 解析</text>
<text x="380.0" y="408.0" text-anchor="middle" font-family="'Times New Roman', 'BiauKai', 'DFKai-SB', '標楷體', 'KaiTi', serif" font-size="11">Sentinel 區塊</text>
<line x1="166.5" y1="400.0" x2="166.5" y2="480.0" stroke="black" />
<line x1="146.5" y1="440.0" x2="186.5" y2="440.0" stroke="black" stroke-width="2" />
<text x="190.49999999999997" y="444.0" font-style="italic" font-size="11" text-anchor="start" font-family="'Times New Roman', 'BiauKai', 'DFKai-SB', '標楷體', 'KaiTi', serif">parsed清單就緒</text>
<rect x="613.5" y="360.0" width="40.0" height="40.0" stroke="black" stroke-width="1.5" fill="white" />
<text x="633.5" y="385.0" text-anchor="middle" font-family="'Times New Roman', 'BiauKai', 'DFKai-SB', '標楷體', 'KaiTi', serif" font-weight="bold" font-size="14">3</text>
<line x1="653.5" y1="380.0" x2="693.5" y2="380.0" stroke="black" />
<rect x="693.4999999999999" y="334.0" width="307.0" height="92.0" stroke="black" stroke-width="1.2" fill="white" />
<text x="846.9999999999999" y="360.0" text-anchor="middle" font-family="'Times New Roman', 'BiauKai', 'DFKai-SB', '標楷體', 'KaiTi', serif" font-size="11">Read 全域 + 專案 AGENTS.</text>
<text x="846.9999999999999" y="384.0" text-anchor="middle" font-family="'Times New Roman', 'BiauKai', 'DFKai-SB', '標楷體', 'KaiTi', serif" font-size="11">md, 解析 + dedup Sentinel</text>
<text x="846.9999999999999" y="408.0" text-anchor="middle" font-family="'Times New Roman', 'BiauKai', 'DFKai-SB', '標楷體', 'KaiTi', serif" font-size="11">區塊 (專案 優先序)</text>
<line x1="633.5" y1="400.0" x2="633.5" y2="480.0" stroke="black" />
<line x1="613.5" y1="440.0" x2="653.5" y2="440.0" stroke="black" stroke-width="2" />
<text x="657.5" y="444.0" font-style="italic" font-size="11" text-anchor="start" font-family="'Times New Roman', 'BiauKai', 'DFKai-SB', '標楷體', 'KaiTi', serif">parsed清單就緒</text>
<line x1="126.49999999999999" y1="480.0" x2="673.5" y2="480.0" stroke="black" stroke-width="1.5" />
<line x1="166.5" y1="480.0" x2="166.5" y2="480.0" stroke="black" />
<line x1="633.5" y1="480.0" x2="633.5" y2="480.0" stroke="black" />
<line x1="400" y1="480.0" x2="400" y2="520.0" stroke="black" marker-end="url(#arrow)" />
<rect x="380.0" y="520.0" width="40.0" height="40.0" stroke="black" stroke-width="1.5" fill="white" />
<text x="400" y="545.0" text-anchor="middle" font-family="'Times New Roman', 'BiauKai', 'DFKai-SB', '標楷體', 'KaiTi', serif" font-weight="bold" font-size="14">4</text>
<line x1="420.0" y1="540.0" x2="460.0" y2="540.0" stroke="black" />
<rect x="460.0" y="494.0" width="307.0" height="92.0" stroke="black" stroke-width="1.2" fill="white" />
<text x="613.5" y="520.0" text-anchor="middle" font-family="'Times New Roman', 'BiauKai', 'DFKai-SB', '標楷體', 'KaiTi', serif" font-size="11">Iterate 技能 清</text>
<text x="613.5" y="544.0" text-anchor="middle" font-family="'Times New Roman', 'BiauKai', 'DFKai-SB', '標楷體', 'KaiTi', serif" font-size="11">單 — 解析 下一個</text>
<text x="613.5" y="568.0" text-anchor="middle" font-family="'Times New Roman', 'BiauKai', 'DFKai-SB', '標楷體', 'KaiTi', serif" font-size="11">SKILL.md 路徑</text>
<line x1="400" y1="560.0" x2="400" y2="600.0" stroke="black" />
<line x1="126.49999999999999" y1="600.0" x2="673.5" y2="600.0" stroke="black" stroke-width="1.5" />
<line x1="166.5" y1="600.0" x2="166.5" y2="640.0" stroke="black" />
<line x1="146.5" y1="640.0" x2="186.5" y2="640.0" stroke="black" stroke-width="2" />
<text x="142.49999999999997" y="644.0" font-style="italic" font-size="11" text-anchor="end" font-family="'Times New Roman', 'BiauKai', 'DFKai-SB', '標楷體', 'KaiTi', serif">技能mdexists</text>
<line x1="166.5" y1="640.0" x2="166.5" y2="680.0" stroke="black" marker-end="url(#arrow)" />
<line x1="633.5" y1="600.0" x2="633.5" y2="640.0" stroke="black" />
<line x1="613.5" y1="640.0" x2="653.5" y2="640.0" stroke="black" stroke-width="2" />
<text x="657.5" y="644.0" font-style="italic" font-size="11" text-anchor="start" font-family="'Times New Roman', 'BiauKai', 'DFKai-SB', '標楷體', 'KaiTi', serif">技能md缺失</text>
<line x1="633.5" y1="640.0" x2="633.5" y2="680.0" stroke="black" marker-end="url(#arrow)" />
<rect x="146.5" y="680.0" width="40.0" height="40.0" stroke="black" stroke-width="1.5" fill="white" />
<text x="166.5" y="705.0" text-anchor="middle" font-family="'Times New Roman', 'BiauKai', 'DFKai-SB', '標楷體', 'KaiTi', serif" font-weight="bold" font-size="14">5</text>
<line x1="186.5" y1="700.0" x2="226.5" y2="700.0" stroke="black" />
<rect x="226.5" y="654.0" width="307.0" height="92.0" stroke="black" stroke-width="1.2" fill="white" />
<text x="380.0" y="680.0" text-anchor="middle" font-family="'Times New Roman', 'BiauKai', 'DFKai-SB', '標楷體', 'KaiTi', serif" font-size="11">Read SKILL.md content; 記錄已</text>
<text x="380.0" y="704.0" text-anchor="middle" font-family="'Times New Roman', 'BiauKai', 'DFKai-SB', '標楷體', 'KaiTi', serif" font-size="11">載入 + 釘選 在 SkillLayerRegistry;</text>
<text x="380.0" y="727.9999999999999" text-anchor="middle" font-family="'Times New Roman', 'BiauKai', 'DFKai-SB', '標楷體', 'KaiTi', serif" font-size="11">追加 技能.必要preloaded 事件</text>
<line x1="166.5" y1="720.0" x2="166.5" y2="800.0" stroke="black" />
<line x1="146.5" y1="760.0" x2="186.5" y2="760.0" stroke="black" stroke-width="2" />
<text x="190.49999999999997" y="764.0" font-style="italic" font-size="11" text-anchor="start" font-family="'Times New Roman', 'BiauKai', 'DFKai-SB', '標楷體', 'KaiTi', serif">技能已註冊與已釘選</text>
<rect x="613.5" y="680.0" width="40.0" height="40.0" stroke="black" stroke-width="1.5" fill="white" />
<text x="633.5" y="705.0" text-anchor="middle" font-family="'Times New Roman', 'BiauKai', 'DFKai-SB', '標楷體', 'KaiTi', serif" font-weight="bold" font-size="14">6</text>
<line x1="653.5" y1="700.0" x2="693.5" y2="700.0" stroke="black" />
<rect x="693.4999999999999" y="654.0" width="307.0" height="92.0" stroke="black" stroke-width="1.2" fill="white" />
<text x="846.9999999999999" y="680.0" text-anchor="middle" font-family="'Times New Roman', 'BiauKai', 'DFKai-SB', '標楷體', 'KaiTi', serif" font-size="11">Loud-warn fallback — 記錄</text>
<text x="846.9999999999999" y="704.0" text-anchor="middle" font-family="'Times New Roman', 'BiauKai', 'DFKai-SB', '標楷體', 'KaiTi', serif" font-size="11">.warn + 追加 技能.必要缺失 異</text>
<text x="846.9999999999999" y="727.9999999999999" text-anchor="middle" font-family="'Times New Roman', 'BiauKai', 'DFKai-SB', '標楷體', 'KaiTi', serif" font-size="11">常 事件; SKIP 註冊表 mutation</text>
<line x1="633.5" y1="720.0" x2="633.5" y2="800.0" stroke="black" />
<line x1="613.5" y1="760.0" x2="653.5" y2="760.0" stroke="black" stroke-width="2" />
<text x="657.5" y="764.0" font-style="italic" font-size="11" text-anchor="start" font-family="'Times New Roman', 'BiauKai', 'DFKai-SB', '標楷體', 'KaiTi', serif">fallbackrecorded</text>
<line x1="126.49999999999999" y1="800.0" x2="673.5" y2="800.0" stroke="black" stroke-width="1.5" />
<line x1="166.5" y1="800.0" x2="166.5" y2="800.0" stroke="black" />
<line x1="633.5" y1="800.0" x2="633.5" y2="800.0" stroke="black" />
<line x1="400" y1="800.0" x2="400" y2="840.0" stroke="black" marker-end="url(#arrow)" />
<rect x="380.0" y="840.0" width="40.0" height="40.0" stroke="black" stroke-width="1.5" fill="white" />
<text x="400" y="865.0" text-anchor="middle" font-family="'Times New Roman', 'BiauKai', 'DFKai-SB', '標楷體', 'KaiTi', serif" font-weight="bold" font-size="14">7</text>
<line x1="420.0" y1="860.0" x2="460.0" y2="860.0" stroke="black" />
<rect x="460.0" y="814.0" width="307.0" height="92.0" stroke="black" stroke-width="1.2" fill="white" />
<text x="613.5" y="852.0" text-anchor="middle" font-family="'Times New Roman', 'BiauKai', 'DFKai-SB', '標楷體', 'KaiTi', serif" font-size="11">Check iterator —</text>
<text x="613.5" y="876.0" text-anchor="middle" font-family="'Times New Roman', 'BiauKai', 'DFKai-SB', '標楷體', 'KaiTi', serif" font-size="11">more 技能 在 清單?</text>
<line x1="400" y1="880.0" x2="400" y2="920.0" stroke="black" />
<line x1="126.49999999999999" y1="920.0" x2="673.5" y2="920.0" stroke="black" stroke-width="1.5" />
<line x1="166.5" y1="920.0" x2="166.5" y2="960.0" stroke="black" />
<line x1="146.5" y1="960.0" x2="186.5" y2="960.0" stroke="black" stroke-width="2" />
<text x="142.49999999999997" y="964.0" font-style="italic" font-size="11" text-anchor="end" font-family="'Times New Roman', 'BiauKai', 'DFKai-SB', '標楷體', 'KaiTi', serif">iteration完成</text>
<line x1="166.5" y1="960.0" x2="166.5" y2="1000.0" stroke="black" />
<line x1="633.5" y1="920.0" x2="633.5" y2="960.0" stroke="black" />
<line x1="613.5" y1="960.0" x2="653.5" y2="960.0" stroke="black" stroke-width="2" />
<text x="657.5" y="964.0" font-style="italic" font-size="11" text-anchor="start" font-family="'Times New Roman', 'BiauKai', 'DFKai-SB', '標楷體', 'KaiTi', serif">more技能remaining</text>
<line x1="633.5" y1="960.0" x2="633.5" y2="1000.0" stroke="black" marker-end="url(#arrow)" />
<rect x="613.5" y="1000.0" width="40.0" height="40.0" stroke="black" stroke-width="1.5" fill="white" />
<text x="633.5" y="1025.0" text-anchor="middle" font-family="'Times New Roman', 'BiauKai', 'DFKai-SB', '標楷體', 'KaiTi', serif" font-weight="bold" font-size="14">10</text>
<line x1="653.5" y1="1020.0" x2="693.5" y2="1020.0" stroke="black" />
<rect x="693.4999999999999" y="974.0" width="307.0" height="92.0" stroke="black" stroke-width="1.2" fill="white" />
<text x="846.9999999999999" y="1012.0" text-anchor="middle" font-family="'Times New Roman', 'BiauKai', 'DFKai-SB', '標楷體', 'KaiTi', serif" font-size="11">Advance iterator —</text>
<text x="846.9999999999999" y="1036.0" text-anchor="middle" font-family="'Times New Roman', 'BiauKai', 'DFKai-SB', '標楷體', 'KaiTi', serif" font-size="11">pick 下一個 技能 name</text>
<line x1="633.5" y1="1040.0" x2="633.5" y2="1120.0" stroke="black" />
<line x1="613.5" y1="1080.0" x2="653.5" y2="1080.0" stroke="black" stroke-width="2" />
<text x="657.5" y="1084.0" font-style="italic" font-size="11" text-anchor="start" font-family="'Times New Roman', 'BiauKai', 'DFKai-SB', '標楷體', 'KaiTi', serif">下一個技能就緒</text>
<line x1="126.49999999999999" y1="1120.0" x2="673.5" y2="1120.0" stroke="black" stroke-width="1.5" />
<line x1="166.5" y1="1000.0" x2="166.5" y2="1120.0" stroke="black" />
<line x1="633.5" y1="1120.0" x2="633.5" y2="1120.0" stroke="black" />
<line x1="400" y1="1120.0" x2="400" y2="1160.0" stroke="black" marker-end="url(#arrow)" />
<rect x="380.0" y="1160.0" width="40.0" height="40.0" stroke="black" stroke-width="1.5" fill="white" />
<text x="400" y="1185.0" text-anchor="middle" font-family="'Times New Roman', 'BiauKai', 'DFKai-SB', '標楷體', 'KaiTi', serif" font-weight="bold" font-size="14">8</text>
<line x1="420.0" y1="1180.0" x2="460.0" y2="1180.0" stroke="black" />
<rect x="460.0" y="1134.0" width="307.0" height="92.0" stroke="black" stroke-width="1.2" fill="white" />
<text x="613.5" y="1160.0" text-anchor="middle" font-family="'Times New Roman', 'BiauKai', 'DFKai-SB', '標楷體', 'KaiTi', serif" font-size="11">Reconcile — diff 已釘選 entries</text>
<text x="613.5" y="1184.0" text-anchor="middle" font-family="'Times New Roman', 'BiauKai', 'DFKai-SB', '標楷體', 'KaiTi', serif" font-size="11">vs new清單; unpin removed; 追</text>
<text x="613.5" y="1208.0" text-anchor="middle" font-family="'Times New Roman', 'BiauKai', 'DFKai-SB', '標楷體', 'KaiTi', serif" font-size="11">加 技能.必要unpinned 供 each</text>
<line x1="400" y1="1200.0" x2="400" y2="1280.0" stroke="black" />
<line x1="380" y1="1240.0" x2="420" y2="1240.0" stroke="black" stroke-width="2" />
<text x="424.0" y="1244.0" font-style="italic" font-size="11" text-anchor="start" font-family="'Times New Roman', 'BiauKai', 'DFKai-SB', '標楷體', 'KaiTi', serif">reconcile完成</text>
<rect x="380.0" y="1280.0" width="40.0" height="40.0" stroke="black" stroke-width="1.5" fill="white" />
<text x="400" y="1305.0" text-anchor="middle" font-family="'Times New Roman', 'BiauKai', 'DFKai-SB', '標楷體', 'KaiTi', serif" font-weight="bold" font-size="14">9</text>
<line x1="420.0" y1="1300.0" x2="460.0" y2="1300.0" stroke="black" />
<rect x="460.0" y="1254.0" width="307.0" height="92.0" stroke="black" stroke-width="1.2" fill="white" />
<text x="613.5" y="1280.0" text-anchor="middle" font-family="'Times New Roman', 'BiauKai', 'DFKai-SB', '標楷體', 'KaiTi', serif" font-size="11">Invoke 技能-layer-seam 到</text>
<text x="613.5" y="1304.0" text-anchor="middle" font-family="'Times New Roman', 'BiauKai', 'DFKai-SB', '標楷體', 'KaiTi', serif" font-size="11">渲染 &lt;技能layer&gt; 文字; splice</text>
<text x="613.5" y="1328.0" text-anchor="middle" font-family="'Times New Roman', 'BiauKai', 'DFKai-SB', '標楷體', 'KaiTi', serif" font-size="11">進入 system[] array 供 LLM</text>
<line x1="400" y1="1320.0" x2="400" y2="1400.0" stroke="black" />
<line x1="380" y1="1360.0" x2="420" y2="1360.0" stroke="black" stroke-width="2" />
<text x="424.0" y="1364.0" font-style="italic" font-size="11" text-anchor="start" font-family="'Times New Roman', 'BiauKai', 'DFKai-SB', '標楷體', 'KaiTi', serif">round已完成wait供下一個</text>
<line x1="400" y1="1400.0" x2="400" y2="1400.0" stroke="black" />
<line x1="400" y1="1400.0" x2="-13.500000000000014" y2="1400.0" stroke="black" />
<line x1="-13.500000000000014" y1="1400.0" x2="-13.500000000000014" y2="30.0" stroke="black" />
<line x1="-13.500000000000014" y1="30.0" x2="400" y2="30.0" stroke="black" />
<line x1="400" y1="30.0" x2="400" y2="70.0" stroke="black" marker-end="url(#arrow)" />
<line x1="633.5" y1="1120.0" x2="633.5" y2="1140.0" stroke="black" />
<line x1="633.5" y1="1140.0" x2="66.49999999999999" y2="1140.0" stroke="black" />
<line x1="66.49999999999999" y1="1140.0" x2="66.49999999999999" y2="496.0" stroke="black" />
<line x1="66.49999999999999" y1="496.0" x2="400" y2="496.0" stroke="black" marker-end="url(#arrow)" />
</svg>