<svg width="2470" height="1010" viewBox="-796.4 -50.0 2470.4 1010.0" xmlns="http://www.w3.org/2000/svg">
<defs><marker id="arrow" viewBox="0 0 10 10" refX="10" refY="5" markerWidth="6" markerHeight="6" orient="auto-start-reverse"><path d="M 0 0 L 10 5 L 0 10 z" fill="black" /></marker></defs>
<rect x="-796.4" y="-50.0" width="2470.4" height="1010.0" fill="white" />
<rect x="380.0" y="80.0" width="40.0" height="40.0" stroke="black" stroke-width="1.5" fill="white" />
<rect x="385.0" y="85.0" width="30.0" height="30.0" stroke="black" stroke-width="1" fill="none" />
<text x="400" y="105.0" text-anchor="middle" font-family="'Times New Roman', 'BiauKai', 'DFKai-SB', '標楷體', 'KaiTi', serif" font-weight="bold" font-size="14">0</text>
<line x1="420.0" y1="100.0" x2="460.0" y2="100.0" stroke="black" />
<rect x="460.0" y="54.0" width="357.59999999999997" height="92.0" stroke="black" stroke-width="1.2" fill="white" />
<text x="638.8" y="80.0" text-anchor="middle" font-family="'Times New Roman', 'BiauKai', 'DFKai-SB', '標楷體', 'KaiTi', serif" font-size="11">閒置: 等待 助手 回合</text>
<text x="638.8" y="104.0" text-anchor="middle" font-family="'Times New Roman', 'BiauKai', 'DFKai-SB', '標楷體', 'KaiTi', serif" font-size="11">completion 或 工</text>
<text x="638.8" y="127.99999999999999" text-anchor="middle" font-family="'Times New Roman', 'BiauKai', 'DFKai-SB', '標楷體', 'KaiTi', serif" font-size="11">具 呼叫 或 GC tick</text>
<line x1="400" y1="120.0" x2="400" y2="160.0" stroke="black" />
<line x1="-157.59999999999997" y1="160.0" x2="957.5999999999999" y2="160.0" stroke="black" stroke-width="1.5" />
<line x1="-117.59999999999998" y1="160.0" x2="-117.59999999999998" y2="200.0" stroke="black" />
<line x1="-137.59999999999997" y1="200.0" x2="-97.59999999999998" y2="200.0" stroke="black" stroke-width="2" />
<text x="-141.6" y="204.0" font-style="italic" font-size="11" text-anchor="end" font-family="'Times New Roman', 'BiauKai', 'DFKai-SB', '標楷體', 'KaiTi', serif">助手完成stop</text>
<line x1="-117.59999999999998" y1="200.0" x2="-117.59999999999998" y2="240.0" stroke="black" marker-end="url(#arrow)" />
<line x1="917.5999999999999" y1="160.0" x2="917.5999999999999" y2="200.0" stroke="black" />
<line x1="897.5999999999999" y1="200.0" x2="937.5999999999999" y2="200.0" stroke="black" stroke-width="2" />
<text x="941.5999999999999" y="204.0" font-style="italic" font-size="11" text-anchor="start" font-family="'Times New Roman', 'BiauKai', 'DFKai-SB', '標楷體', 'KaiTi', serif">模型calledreread附件</text>
<line x1="917.5999999999999" y1="200.0" x2="917.5999999999999" y2="240.0" stroke="black" marker-end="url(#arrow)" />
<rect x="-137.59999999999997" y="240.0" width="40.0" height="40.0" stroke="black" stroke-width="1.5" fill="white" />
<text x="-117.59999999999998" y="265.0" text-anchor="middle" font-family="'Times New Roman', 'BiauKai', 'DFKai-SB', '標楷體', 'KaiTi', serif" font-weight="bold" font-size="14">1</text>
<line x1="-97.59999999999998" y1="260.0" x2="-57.59999999999998" y2="260.0" stroke="black" />
<rect x="-57.599999999999966" y="214.0" width="357.59999999999997" height="92.0" stroke="black" stroke-width="1.2" fill="white" />
<text x="121.20000000000002" y="240.0" text-anchor="middle" font-family="'Times New Roman', 'BiauKai', 'DFKai-SB', '標楷體', 'KaiTi', serif" font-size="11">Locate 父層 使用</text>
<text x="121.20000000000002" y="264.0" text-anchor="middle" font-family="'Times New Roman', 'BiauKai', 'DFKai-SB', '標楷體', 'KaiTi', serif" font-size="11">者 訊息 + its image</text>
<text x="121.20000000000002" y="288.0" text-anchor="middle" font-family="'Times New Roman', 'BiauKai', 'DFKai-SB', '標楷體', 'KaiTi', serif" font-size="11">附件ref parts</text>
<line x1="-117.59999999999998" y1="280.0" x2="-117.59999999999998" y2="360.0" stroke="black" />
<line x1="-137.59999999999997" y1="320.0" x2="-97.59999999999998" y2="320.0" stroke="black" stroke-width="2" />
<text x="-93.59999999999998" y="324.0" font-style="italic" font-size="11" text-anchor="start" font-family="'Times New Roman', 'BiauKai', 'DFKai-SB', '標楷體', 'KaiTi', serif">附件listed</text>
<rect x="-137.59999999999997" y="360.0" width="40.0" height="40.0" stroke="black" stroke-width="1.5" fill="white" />
<text x="-117.59999999999998" y="385.0" text-anchor="middle" font-family="'Times New Roman', 'BiauKai', 'DFKai-SB', '標楷體', 'KaiTi', serif" font-weight="bold" font-size="14">2</text>
<line x1="-97.59999999999998" y1="380.0" x2="-57.59999999999998" y2="380.0" stroke="black" />
<rect x="-57.599999999999966" y="334.0" width="357.59999999999997" height="92.0" stroke="black" stroke-width="1.2" fill="white" />
<text x="121.20000000000002" y="360.0" text-anchor="middle" font-family="'Times New Roman', 'BiauKai', 'DFKai-SB', '標楷體', 'KaiTi', serif" font-size="11">供 each part:</text>
<text x="121.20000000000002" y="384.0" text-anchor="middle" font-family="'Times New Roman', 'BiauKai', 'DFKai-SB', '標楷體', 'KaiTi', serif" font-size="11">check dehydrated</text>
<text x="121.20000000000002" y="408.0" text-anchor="middle" font-family="'Times New Roman', 'BiauKai', 'DFKai-SB', '標楷體', 'KaiTi', serif" font-size="11">flag 與 mime</text>
<line x1="-117.59999999999998" y1="400.0" x2="-117.59999999999998" y2="440.0" stroke="black" />
<line x1="-416.4" y1="440.0" x2="181.2" y2="440.0" stroke="black" stroke-width="1.5" />
<line x1="-376.4" y1="440.0" x2="-376.4" y2="480.0" stroke="black" />
<line x1="-396.4" y1="480.0" x2="-356.4" y2="480.0" stroke="black" stroke-width="2" />
<text x="-400.4" y="464.0" font-style="italic" font-size="11" text-anchor="end" font-family="'Times New Roman', 'BiauKai', 'DFKai-SB', '標楷體', 'KaiTi', serif">imagemime AND</text>
<text x="-400.4" y="484.0" font-style="italic" font-size="11" text-anchor="end" font-family="'Times New Roman', 'BiauKai', 'DFKai-SB', '標楷體', 'KaiTi', serif">NOT dehydrated</text>
<text x="-400.4" y="504.0" font-style="italic" font-size="11" text-anchor="end" font-family="'Times New Roman', 'BiauKai', 'DFKai-SB', '標楷體', 'KaiTi', serif">AND 完成=stop</text>
<line x1="-376.4" y1="480.0" x2="-376.4" y2="520.0" stroke="black" marker-end="url(#arrow)" />
<line x1="141.2" y1="440.0" x2="141.2" y2="480.0" stroke="black" />
<line x1="121.19999999999997" y1="480.0" x2="161.2" y2="480.0" stroke="black" stroke-width="2" />
<text x="165.19999999999996" y="464.0" font-style="italic" font-size="11" text-anchor="start" font-family="'Times New Roman', 'BiauKai', 'DFKai-SB', '標楷體', 'KaiTi', serif">nonimagemime</text>
<text x="165.19999999999996" y="484.0" font-style="italic" font-size="11" text-anchor="start" font-family="'Times New Roman', 'BiauKai', 'DFKai-SB', '標楷體', 'KaiTi', serif">OR alreadydehydrated</text>
<text x="165.19999999999996" y="504.0" font-style="italic" font-size="11" text-anchor="start" font-family="'Times New Roman', 'BiauKai', 'DFKai-SB', '標楷體', 'KaiTi', serif">OR 完成錯誤</text>
<line x1="141.2" y1="480.0" x2="141.2" y2="520.0" stroke="black" />
<rect x="-396.4" y="520.0" width="40.0" height="40.0" stroke="black" stroke-width="1.5" fill="white" />
<text x="-376.4" y="545.0" text-anchor="middle" font-family="'Times New Roman', 'BiauKai', 'DFKai-SB', '標楷體', 'KaiTi', serif" font-weight="bold" font-size="14">3</text>
<line x1="-356.4" y1="540.0" x2="-316.4" y2="540.0" stroke="black" />
<rect x="-316.4" y="494.0" width="357.59999999999997" height="92.0" stroke="black" stroke-width="1.2" fill="white" />
<text x="-137.60000000000002" y="520.0" text-anchor="middle" font-family="'Times New Roman', 'BiauKai', 'DFKai-SB', '標楷體', 'KaiTi', serif" font-size="11">取出 annotation</text>
<text x="-137.60000000000002" y="544.0" text-anchor="middle" font-family="'Times New Roman', 'BiauKai', 'DFKai-SB', '標楷體', 'KaiTi', serif" font-size="11">來自 助手 回應 文字</text>
<text x="-137.60000000000002" y="568.0" text-anchor="middle" font-family="'Times New Roman', 'BiauKai', 'DFKai-SB', '標楷體', 'KaiTi', serif" font-size="11">(≤ 4000 chars)</text>
<line x1="-376.4" y1="560.0" x2="-376.4" y2="640.0" stroke="black" />
<line x1="-396.4" y1="600.0" x2="-356.4" y2="600.0" stroke="black" stroke-width="2" />
<text x="-352.40000000000003" y="604.0" font-style="italic" font-size="11" text-anchor="start" font-family="'Times New Roman', 'BiauKai', 'DFKai-SB', '標楷體', 'KaiTi', serif">annotation已取出</text>
<rect x="-396.4" y="640.0" width="40.0" height="40.0" stroke="black" stroke-width="1.5" fill="white" />
<text x="-376.4" y="665.0" text-anchor="middle" font-family="'Times New Roman', 'BiauKai', 'DFKai-SB', '標楷體', 'KaiTi', serif" font-weight="bold" font-size="14">5</text>
<line x1="-356.4" y1="660.0" x2="-316.4" y2="660.0" stroke="black" />
<rect x="-316.4" y="614.0" width="357.59999999999997" height="92.0" stroke="black" stroke-width="1.2" fill="white" />
<text x="-137.60000000000002" y="640.0" text-anchor="middle" font-family="'Times New Roman', 'BiauKai', 'DFKai-SB', '標楷體', 'KaiTi', serif" font-size="11">Session.更新part: set dehydrated=true</text>
<text x="-137.60000000000002" y="664.0" text-anchor="middle" font-family="'Times New Roman', 'BiauKai', 'DFKai-SB', '標楷體', 'KaiTi', serif" font-size="11">+ annotation (repo路徑 / sha256</text>
<text x="-137.60000000000002" y="688.0" text-anchor="middle" font-family="'Times New Roman', 'BiauKai', 'DFKai-SB', '標楷體', 'KaiTi', serif" font-size="11">unchanged; 無 binary move)</text>
<line x1="-376.4" y1="680.0" x2="-376.4" y2="760.0" stroke="black" />
<line x1="-396.4" y1="720.0" x2="-356.4" y2="720.0" stroke="black" stroke-width="2" />
<text x="-352.40000000000003" y="724.0" font-style="italic" font-size="11" text-anchor="start" font-family="'Times New Roman', 'BiauKai', 'DFKai-SB', '標楷體', 'KaiTi', serif">partrewritten</text>
<rect x="-396.4" y="760.0" width="40.0" height="40.0" stroke="black" stroke-width="1.5" fill="white" />
<text x="-376.4" y="785.0" text-anchor="middle" font-family="'Times New Roman', 'BiauKai', 'DFKai-SB', '標楷體', 'KaiTi', serif" font-weight="bold" font-size="14">6</text>
<line x1="-356.4" y1="780.0" x2="-316.4" y2="780.0" stroke="black" />
<rect x="-316.4" y="734.0" width="357.59999999999997" height="92.0" stroke="black" stroke-width="1.2" fill="white" />
<text x="-137.60000000000002" y="760.0" text-anchor="middle" font-family="'Times New Roman', 'BiauKai', 'DFKai-SB', '標楷體', 'KaiTi', serif" font-size="11">發出 telemetry 附件.</text>
<text x="-137.60000000000002" y="784.0" text-anchor="middle" font-family="'Times New Roman', 'BiauKai', 'DFKai-SB', '標楷體', 'KaiTi', serif" font-size="11">dehydrated; loop 到</text>
<text x="-137.60000000000002" y="807.9999999999999" text-anchor="middle" font-family="'Times New Roman', 'BiauKai', 'DFKai-SB', '標楷體', 'KaiTi', serif" font-size="11">下一個 附件 或 返回 閒置</text>
<line x1="-376.4" y1="800.0" x2="-376.4" y2="880.0" stroke="black" />
<line x1="-396.4" y1="840.0" x2="-356.4" y2="840.0" stroke="black" stroke-width="2" />
<text x="-352.40000000000003" y="844.0" font-style="italic" font-size="11" text-anchor="start" font-family="'Times New Roman', 'BiauKai', 'DFKai-SB', '標楷體', 'KaiTi', serif">all附件processed</text>
<rect x="897.5999999999999" y="240.0" width="40.0" height="40.0" stroke="black" stroke-width="1.5" fill="white" />
<text x="917.5999999999999" y="265.0" text-anchor="middle" font-family="'Times New Roman', 'BiauKai', 'DFKai-SB', '標楷體', 'KaiTi', serif" font-weight="bold" font-size="14">20</text>
<line x1="937.5999999999999" y1="260.0" x2="977.5999999999999" y2="260.0" stroke="black" />
<rect x="977.5999999999999" y="214.0" width="357.59999999999997" height="92.0" stroke="black" stroke-width="1.2" fill="white" />
<text x="1156.3999999999999" y="240.0" text-anchor="middle" font-family="'Times New Roman', 'BiauKai', 'DFKai-SB', '標楷體', 'KaiTi', serif" font-size="11">Read filename arg;</text>
<text x="1156.3999999999999" y="264.0" text-anchor="middle" font-family="'Times New Roman', 'BiauKai', 'DFKai-SB', '標楷體', 'KaiTi', serif" font-size="11">lookup IncomingStore.</text>
<text x="1156.3999999999999" y="288.0" text-anchor="middle" font-family="'Times New Roman', 'BiauKai', 'DFKai-SB', '標楷體', 'KaiTi', serif" font-size="11">get(sid, filename)</text>
<line x1="917.5999999999999" y1="280.0" x2="917.5999999999999" y2="360.0" stroke="black" />
<line x1="897.5999999999999" y1="320.0" x2="937.5999999999999" y2="320.0" stroke="black" stroke-width="2" />
<text x="941.5999999999999" y="324.0" font-style="italic" font-size="11" text-anchor="start" font-family="'Times New Roman', 'BiauKai', 'DFKai-SB', '標楷體', 'KaiTi', serif">lookup完成</text>
<rect x="897.5999999999999" y="360.0" width="40.0" height="40.0" stroke="black" stroke-width="1.5" fill="white" />
<text x="917.5999999999999" y="385.0" text-anchor="middle" font-family="'Times New Roman', 'BiauKai', 'DFKai-SB', '標楷體', 'KaiTi', serif" font-weight="bold" font-size="14">21</text>
<line x1="937.5999999999999" y1="380.0" x2="977.5999999999999" y2="380.0" stroke="black" />
<rect x="977.5999999999999" y="334.0" width="357.59999999999997" height="92.0" stroke="black" stroke-width="1.2" fill="white" />
<text x="1156.3999999999999" y="360.0" text-anchor="middle" font-family="'Times New Roman', 'BiauKai', 'DFKai-SB', '標楷體', 'KaiTi', serif" font-size="11">Branch</text>
<text x="1156.3999999999999" y="384.0" text-anchor="middle" font-family="'Times New Roman', 'BiauKai', 'DFKai-SB', '標楷體', 'KaiTi', serif" font-size="11">在 檔案</text>
<text x="1156.3999999999999" y="408.0" text-anchor="middle" font-family="'Times New Roman', 'BiauKai', 'DFKai-SB', '標楷體', 'KaiTi', serif" font-size="11">presence</text>
<line x1="917.5999999999999" y1="400.0" x2="917.5999999999999" y2="440.0" stroke="black" />
<line x1="618.8" y1="440.0" x2="1216.3999999999999" y2="440.0" stroke="black" stroke-width="1.5" />
<line x1="658.8" y1="440.0" x2="658.8" y2="480.0" stroke="black" />
<line x1="638.8" y1="480.0" x2="678.8" y2="480.0" stroke="black" stroke-width="2" />
<text x="634.8" y="484.0" font-style="italic" font-size="11" text-anchor="end" font-family="'Times New Roman', 'BiauKai', 'DFKai-SB', '標楷體', 'KaiTi', serif">位元組returned</text>
<line x1="658.8" y1="480.0" x2="658.8" y2="520.0" stroke="black" marker-end="url(#arrow)" />
<line x1="1176.3999999999999" y1="440.0" x2="1176.3999999999999" y2="480.0" stroke="black" />
<line x1="1156.3999999999999" y1="480.0" x2="1196.3999999999999" y2="480.0" stroke="black" stroke-width="2" />
<text x="1200.3999999999999" y="484.0" font-style="italic" font-size="11" text-anchor="start" font-family="'Times New Roman', 'BiauKai', 'DFKai-SB', '標楷體', 'KaiTi', serif">檔案缺失或gcd</text>
<line x1="1176.3999999999999" y1="480.0" x2="1176.3999999999999" y2="520.0" stroke="black" marker-end="url(#arrow)" />
<rect x="638.8" y="520.0" width="40.0" height="40.0" stroke="black" stroke-width="1.5" fill="white" />
<text x="658.8" y="545.0" text-anchor="middle" font-family="'Times New Roman', 'BiauKai', 'DFKai-SB', '標楷體', 'KaiTi', serif" font-weight="bold" font-size="14">22</text>
<line x1="678.8" y1="540.0" x2="718.8" y2="540.0" stroke="black" />
<rect x="718.8" y="494.0" width="357.59999999999997" height="92.0" stroke="black" stroke-width="1.2" fill="white" />
<text x="897.5999999999999" y="520.0" text-anchor="middle" font-family="'Times New Roman', 'BiauKai', 'DFKai-SB', '標楷體', 'KaiTi', serif" font-size="11">返回 工具 結果 {type:&#x27;image&#x27;, url:</text>
<text x="897.5999999999999" y="544.0" text-anchor="middle" font-family="'Times New Roman', 'BiauKai', 'DFKai-SB', '標楷體', 'KaiTi', serif" font-size="11">&#x27;data:...&#x27;, esttokens, bytesize}</text>
<text x="897.5999999999999" y="568.0" text-anchor="middle" font-family="'Times New Roman', 'BiauKai', 'DFKai-SB', '標楷體', 'KaiTi', serif" font-size="11">; 發出 附件.rereaded telemetry</text>
<line x1="658.8" y1="560.0" x2="658.8" y2="640.0" stroke="black" />
<line x1="638.8" y1="600.0" x2="678.8" y2="600.0" stroke="black" stroke-width="2" />
<text x="682.8" y="604.0" font-style="italic" font-size="11" text-anchor="start" font-family="'Times New Roman', 'BiauKai', 'DFKai-SB', '標楷體', 'KaiTi', serif">返回到閒置</text>
<rect x="1156.3999999999999" y="520.0" width="40.0" height="40.0" stroke="black" stroke-width="1.5" fill="white" />
<text x="1176.3999999999999" y="545.0" text-anchor="middle" font-family="'Times New Roman', 'BiauKai', 'DFKai-SB', '標楷體', 'KaiTi', serif" font-weight="bold" font-size="14">23</text>
<line x1="1196.3999999999999" y1="540.0" x2="1236.3999999999999" y2="540.0" stroke="black" />
<rect x="1236.3999999999999" y="494.0" width="357.59999999999997" height="92.0" stroke="black" stroke-width="1.2" fill="white" />
<text x="1415.1999999999998" y="520.0" text-anchor="middle" font-family="'Times New Roman', 'BiauKai', 'DFKai-SB', '標楷體', 'KaiTi', serif" font-size="11">返回 工具 錯誤 {錯</text>
<text x="1415.1999999999998" y="544.0" text-anchor="middle" font-family="'Times New Roman', 'BiauKai', 'DFKai-SB', '標楷體', 'KaiTi', serif" font-size="11">誤:&#x27;附件expired&#x27;,</text>
<text x="1415.1999999999998" y="568.0" text-anchor="middle" font-family="'Times New Roman', 'BiauKai', 'DFKai-SB', '標楷體', 'KaiTi', serif" font-size="11">訊息:&#x27;...&#x27;}</text>
<line x1="1176.3999999999999" y1="560.0" x2="1176.3999999999999" y2="640.0" stroke="black" />
<line x1="1156.3999999999999" y1="600.0" x2="1196.3999999999999" y2="600.0" stroke="black" stroke-width="2" />
<text x="1200.3999999999999" y="604.0" font-style="italic" font-size="11" text-anchor="start" font-family="'Times New Roman', 'BiauKai', 'DFKai-SB', '標楷體', 'KaiTi', serif">返回到閒置</text>
<line x1="-376.4" y1="880.0" x2="-376.4" y2="880.0" stroke="black" />
<line x1="-376.4" y1="880.0" x2="-556.4" y2="880.0" stroke="black" />
<line x1="-556.4" y1="880.0" x2="-556.4" y2="30.0" stroke="black" />
<line x1="-556.4" y1="30.0" x2="400" y2="30.0" stroke="black" />
<line x1="400" y1="30.0" x2="400" y2="70.0" stroke="black" marker-end="url(#arrow)" />
<line x1="141.2" y1="520.0" x2="141.2" y2="540.0" stroke="black" />
<line x1="141.2" y1="540.0" x2="-476.4" y2="540.0" stroke="black" />
<line x1="-476.4" y1="540.0" x2="-476.4" y2="30.0" stroke="black" />
<line x1="-476.4" y1="30.0" x2="400" y2="30.0" stroke="black" />
<line x1="400" y1="30.0" x2="400" y2="70.0" stroke="black" marker-end="url(#arrow)" />
<line x1="658.8" y1="640.0" x2="658.8" y2="680.0" stroke="black" />
<line x1="658.8" y1="680.0" x2="-636.4" y2="680.0" stroke="black" />
<line x1="-636.4" y1="680.0" x2="-636.4" y2="30.0" stroke="black" />
<line x1="-636.4" y1="30.0" x2="400" y2="30.0" stroke="black" />
<line x1="400" y1="30.0" x2="400" y2="70.0" stroke="black" marker-end="url(#arrow)" />
<line x1="1176.3999999999999" y1="640.0" x2="1176.3999999999999" y2="700.0" stroke="black" />
<line x1="1176.3999999999999" y1="700.0" x2="-716.4" y2="700.0" stroke="black" />
<line x1="-716.4" y1="700.0" x2="-716.4" y2="30.0" stroke="black" />
<line x1="-716.4" y1="30.0" x2="400" y2="30.0" stroke="black" />
<line x1="400" y1="30.0" x2="400" y2="70.0" stroke="black" marker-end="url(#arrow)" />
</svg>