<svg xmlns="http://www.w3.org/2000/svg" width="1121" height="340" viewBox="14.00 -2.00 56.05 17.00" role="img">
<style>
.step{fill:#fff;stroke:#111;stroke-width:.14}.step-inner{fill:none;stroke:#111;stroke-width:.08}
.action{fill:#fff;stroke:#111;stroke-width:.14}.gate{stroke:#111;stroke-width:.16}
.edge{fill:none;stroke:#111;stroke-width:.05;stroke-linecap:round;stroke-linejoin:round}.edge-arrow{marker-end:url(#arrow)}
.flyover-mask{stroke:#fff;stroke-width:.12;stroke-linecap:round}
.flyover{fill:none;stroke:#111;stroke-width:.05;stroke-linecap:round}
.junction{fill:#111;stroke:#111;stroke-width:0}.branch-junction{fill:#fff;stroke:#111;stroke-width:.08}
.assoc{stroke:#111;stroke-width:.05}.label{font:bold .7px 'Times New Roman', 'BiauKai', 'DFKai-SB', serif;text-anchor:middle;dominant-baseline:middle}
.action-label{font:.55px 'Times New Roman', 'BiauKai', 'DFKai-SB', serif;text-anchor:middle;dominant-baseline:middle}.gate-label{font:italic .55px 'Times New Roman', 'BiauKai', 'DFKai-SB', serif;text-anchor:start;dominant-baseline:middle}.gate-label-left{font:italic .55px 'Times New Roman', 'BiauKai', 'DFKai-SB', serif;text-anchor:end;dominant-baseline:middle}
</style>
<defs><marker id="arrow" markerWidth="0.4" markerHeight="0.4" refX="0.36" refY="0.2" orient="auto" markerUnits="userSpaceOnUse"><path d="M 0 0 L 0.4 0.2 L 0 0.4 z" fill="#111"/></marker></defs>
<rect x="14.00" y="-2.00" width="56.05" height="17.00" fill="white"/>
<path class="edge" d="M 52.70 7.00 L 52.70 9.00"/>
<path class="edge edge-arrow" d="M 52.70 9.00 L 52.70 10.50 Q 52.70 11.00 52.20 11.00 L 39.20 11.00 Q 38.70 11.00 38.70 10.50 L 38.70 2.50 Q 38.70 2.00 38.20 2.00 L 20.50 2.00 Q 20.00 2.00 20.00 2.50 L 20.00 4.00"/>
<rect class="step" x="18.00" y="4.00" width="4.00" height="3.00" rx="0.35" ry="0.35"/>
<text class="label" x="20.00" y="5.50">0</text>
<rect class="step" x="34.35" y="4.00" width="4.00" height="3.00" rx="0.35" ry="0.35"/>
<rect class="step-inner" x="34.60" y="4.25" width="3.50" height="2.50" rx="0.22" ry="0.22"/>
<text class="label" x="36.35" y="5.50">9</text>
<rect class="step" x="50.70" y="4.00" width="4.00" height="3.00" rx="0.35" ry="0.35"/>
<text class="label" x="52.70" y="5.50">13</text>
<line class="assoc" x1="22.00" y1="5.50" x2="23.00" y2="5.50"/>
<rect class="action" x="23.00" y="4.07" width="10.35" height="2.86"/>
<text class="action-label" x="28.18" y="4.68"><tspan x="28.18" dy="0">Gateway splice loop serving aut</tspan><tspan x="28.18" dy="0.82">henticated clients еҲ° дҫқ-дҪҝ</tspan><tspan x="28.18" dy="0.82">з”ЁиҖ… daemon ж–ј steady зӢҖж…Ӣ</tspan></text>
<line class="assoc" x1="38.35" y1="5.50" x2="39.35" y2="5.50"/>
<rect class="action" x="39.35" y="4.07" width="10.35" height="2.86"/>
<text class="action-label" x="44.52" y="4.68"><tspan x="44.52" dy="0">дёӢдёҖеҖӢ authenticated и«ӢжұӮ hits Ga</tspan><tspan x="44.52" dy="0.82">teway findжҲ–createdaemon иҲҮ detect</tspan><tspan x="44.52" dy="0.82">s stale daemon.jsеңЁ жҲ– зјәеӨұ socket</tspan></text>
<line class="assoc" x1="54.70" y1="5.50" x2="55.70" y2="5.50"/>
<rect class="action" x="55.70" y="4.07" width="10.35" height="2.86"/>
<text class="action-label" x="60.88" y="4.68"><tspan x="60.88" dy="0">Gateway resumes splice proxy еҲ° fresh d</tspan><tspan x="60.88" dy="0.82">aemon, client SSE reconnect absorbs 503</tspan><tspan x="60.88" dy="0.82">window, system еӣһеҲ° еҲ° steady зӢҖж…Ӣ</tspan></text>
<line class="gate" x1="51.70" y1="9.00" x2="53.70" y2="9.00"/>
<text class="gate-label" x="54.10" y="9.00"><tspan x="54.10" dy="0">bidirectional splice established</tspan></text>
</svg>