<svg xmlns="http://www.w3.org/2000/svg" width="1117" height="1140" viewBox="4.00 0.00 55.84 57.00" role="img">
<style>
.step{fill:#fff;stroke:#111;stroke-width:.14}.step-inner{fill:none;stroke:#111;stroke-width:.08}
.action{fill:#fff;stroke:#111;stroke-width:.14}.gate{stroke:#111;stroke-width:.16}
.edge{fill:none;stroke:#111;stroke-width:.05;stroke-linecap:round;stroke-linejoin:round}.edge-arrow{marker-end:url(#arrow)}
.flyover-mask{stroke:#fff;stroke-width:.12;stroke-linecap:round}
.flyover{fill:none;stroke:#111;stroke-width:.05;stroke-linecap:round}
.junction{fill:#111;stroke:#111;stroke-width:0}.branch-junction{fill:#fff;stroke:#111;stroke-width:.08}
.assoc{stroke:#111;stroke-width:.05}.label{font:bold .7px 'Times New Roman', 'BiauKai', 'DFKai-SB', serif;text-anchor:middle;dominant-baseline:middle}
.action-label{font:.55px 'Times New Roman', 'BiauKai', 'DFKai-SB', serif;text-anchor:middle;dominant-baseline:middle}.gate-label{font:italic .55px 'Times New Roman', 'BiauKai', 'DFKai-SB', serif;text-anchor:start;dominant-baseline:middle}.gate-label-left{font:italic .55px 'Times New Roman', 'BiauKai', 'DFKai-SB', serif;text-anchor:end;dominant-baseline:middle}
</style>
<defs><marker id="arrow" markerWidth="0.4" markerHeight="0.4" refX="0.36" refY="0.2" orient="auto" markerUnits="userSpaceOnUse"><path d="M 0 0 L 0.4 0.2 L 0 0.4 z" fill="#111"/></marker></defs>
<rect x="4.00" y="0.00" width="55.84" height="57.00" fill="white"/>
<path class="edge" d="M 34.42 7.00 L 34.42 9.00"/>
<path class="edge edge-arrow" d="M 34.42 9.00 L 34.42 11.00"/>
<path class="edge" d="M 34.42 14.00 L 34.42 16.00"/>
<path class="edge edge-arrow" d="M 34.42 16.00 L 34.42 18.00"/>
<path class="edge" d="M 34.42 21.00 L 34.42 23.00"/>
<path class="edge edge-arrow" d="M 34.42 23.00 L 34.42 25.00"/>
<path class="edge" d="M 34.42 28.00 L 34.42 30.00"/>
<path class="edge edge-arrow" d="M 34.42 30.00 L 34.42 32.00"/>
<path class="edge edge-arrow" d="M 34.42 35.00 L 34.42 37.00"/>
<path class="edge edge-arrow" d="M 34.42 37.00 L 34.42 41.00"/>
<path class="edge edge-arrow" d="M 10.00 37.00 L 10.00 41.00"/>
<path class="edge edge-arrow" d="M 34.42 44.00 L 34.42 46.00"/>
<path class="edge edge-arrow" d="M 10.00 46.00 L 10.00 50.00"/>
<path class="edge edge-arrow" d="M 34.42 46.00 L 34.42 50.00"/>
<rect class="step" x="32.42" y="4.00" width="4.00" height="3.00" rx="0.35" ry="0.35"/>
<rect class="step-inner" x="32.67" y="4.25" width="3.50" height="2.50" rx="0.22" ry="0.22"/>
<text class="label" x="34.42" y="5.50">1</text>
<rect class="step" x="32.42" y="11.00" width="4.00" height="3.00" rx="0.35" ry="0.35"/>
<text class="label" x="34.42" y="12.50">2</text>
<rect class="step" x="32.42" y="18.00" width="4.00" height="3.00" rx="0.35" ry="0.35"/>
<text class="label" x="34.42" y="19.50">3</text>
<rect class="step" x="32.42" y="25.00" width="4.00" height="3.00" rx="0.35" ry="0.35"/>
<text class="label" x="34.42" y="26.50">4</text>
<rect class="step" x="32.42" y="32.00" width="4.00" height="3.00" rx="0.35" ry="0.35"/>
<text class="label" x="34.42" y="33.50">5</text>
<rect class="step" x="32.42" y="41.00" width="4.00" height="3.00" rx="0.35" ry="0.35"/>
<text class="label" x="34.42" y="42.50">6</text>
<rect class="step" x="8.00" y="50.00" width="4.00" height="3.00" rx="0.35" ry="0.35"/>
<text class="label" x="10.00" y="51.50">7</text>
<rect class="step" x="32.42" y="50.00" width="4.00" height="3.00" rx="0.35" ry="0.35"/>
<text class="label" x="34.42" y="51.50">8</text>
<rect class="step" x="8.00" y="41.00" width="4.00" height="3.00" rx="0.35" ry="0.35"/>
<text class="label" x="10.00" y="42.50">14</text>
<line class="assoc" x1="36.42" y1="5.50" x2="37.42" y2="5.50"/>
<rect class="action" x="37.42" y="4.07" width="18.42" height="2.86"/>
<text class="action-label" x="46.63" y="5.09"><tspan x="46.63" dy="0">Daemon 路由 /api/v2/全域/web/restart receives</tspan><tspan x="46.63" dy="0.82">JWT-authenticated POST 使用 targets 與 reason</tspan></text>
<line class="assoc" x1="36.42" y1="12.50" x2="37.42" y2="12.50"/>
<rect class="action" x="37.42" y="11.07" width="18.42" height="2.86"/>
<text class="action-label" x="46.63" y="12.09"><tspan x="46.63" dy="0">解析restartruntimemode classifies ru</tspan><tspan x="46.63" dy="0.82">ntime 作為 Gateway-daemon 或 legacy</tspan></text>
<line class="assoc" x1="36.42" y1="19.50" x2="37.42" y2="19.50"/>
<rect class="action" x="37.42" y="18.07" width="18.42" height="2.86"/>
<text class="action-label" x="46.63" y="18.68"><tspan x="46.63" dy="0">Branch dispatched: Gateway-目標 compileGateway供self更新, d</tspan><tspan x="46.63" dy="0.82">aemon/前端-目標 啟動 webctl.sh restart --graceful 使用 OP</tspan><tspan x="46.63" dy="0.82">ENCODE RESTART TXID, legacy 啟動 webctl.sh restart --graceful</tspan></text>
<line class="assoc" x1="36.42" y1="26.50" x2="37.42" y2="26.50"/>
<rect class="action" x="37.42" y="25.07" width="18.42" height="2.86"/>
<text class="action-label" x="46.63" y="26.09"><tspan x="46.63" dy="0">webctl.sh dorestart fingerprints daemon 來源, 前端</tspan><tspan x="46.63" dy="0.82">Bundle, 與 Gateway C binary against installed artifacts</tspan></text>
<line class="assoc" x1="36.42" y1="33.50" x2="37.42" y2="33.50"/>
<rect class="action" x="37.42" y="32.07" width="18.42" height="2.86"/>
<text class="action-label" x="46.63" y="33.09"><tspan x="46.63" dy="0">Rebuild 與 install 僅 dirty layers 透過 do建</tspan><tspan x="46.63" dy="0.82">置binary, do建置前端, docompileGateway</tspan></text>
<line class="assoc" x1="36.42" y1="42.50" x2="37.42" y2="42.50"/>
<rect class="action" x="37.42" y="41.07" width="18.42" height="2.86"/>
<text class="action-label" x="46.63" y="42.09"><tspan x="46.63" dy="0">worker exits zero, 路由 handler responds 200 使用</tspan><tspan x="46.63" dy="0.82">mode=controlledrestart 與 recoveryDeadlineMs=30000</tspan></text>
<line class="assoc" x1="12.00" y1="51.50" x2="13.00" y2="51.50"/>
<rect class="action" x="13.00" y="50.07" width="18.42" height="2.86"/>
<text class="action-label" x="22.21" y="51.09"><tspan x="22.21" dy="0">Daemon 路徑: setTimeout 300ms, then Daemon.removeDiscovery</tspan><tspan x="22.21" dy="0.82">unlinks daemon.js在 daemon.pid daemon.sock 與 process.exit(0)</tspan></text>
<line class="assoc" x1="36.42" y1="51.50" x2="37.42" y2="51.50"/>
<rect class="action" x="37.42" y="50.07" width="18.42" height="2.86"/>
<text class="action-label" x="46.63" y="50.68"><tspan x="46.63" dy="0">Gateway 路徑: schedule restart-service opencode</tspan><tspan x="46.63" dy="0.82">-gateway.service after 300ms, systemd respawns</tspan><tspan x="46.63" dy="0.82">Gateway binary causing 3-5s downtime 供 all users</tspan></text>
<line class="assoc" x1="12.00" y1="42.50" x2="13.00" y2="42.50"/>
<rect class="action" x="13.00" y="41.07" width="18.42" height="2.86"/>
<text class="action-label" x="22.21" y="41.68"><tspan x="22.21" dy="0">建置 failure 路徑: 路由 handler 返回 WEB RESTART FAILED 使用</tspan><tspan x="22.21" dy="0.82">webctlExit, txid, 錯誤記錄路徑, 或 RESTART LOCK BUSY 409 if std</tspan><tspan x="22.21" dy="0.82">err matches already 在 progress; previous daemon version keeps 執行中</tspan></text>
<line class="gate" x1="33.42" y1="9.00" x2="35.42" y2="9.00"/>
<text class="gate-label" x="35.82" y="9.00"><tspan x="35.82" dy="0">JWT verified 與 body parsed</tspan></text>
<line class="gate" x1="33.42" y1="16.00" x2="35.42" y2="16.00"/>
<text class="gate-label" x="35.82" y="16.00"><tspan x="35.82" dy="0">runtime mode classified as Gateway-daemon with/without Gateway target or legacy mode</tspan></text>
<line class="gate" x1="33.42" y1="23.00" x2="35.42" y2="23.00"/>
<text class="gate-label" x="35.82" y="23.00"><tspan x="35.82" dy="0">worker spawned 使用 OPENCODE RESTART ERROR LOG FILE set</tspan></text>
<line class="gate" x1="33.42" y1="30.00" x2="35.42" y2="30.00"/>
<text class="gate-label" x="35.82" y="30.00"><tspan x="35.82" dy="0">dirty layer set computed</tspan></text>
<line class="gate" x1="8.00" y1="37.00" x2="36.42" y2="37.00"/>
<line class="gate" x1="8.00" y1="46.00" x2="36.42" y2="46.00"/>
<line class="gate" x1="33.42" y1="39.00" x2="35.42" y2="39.00"/>
<text class="gate-label" x="35.82" y="39.00"><tspan x="35.82" dy="0">all builds exit zero</tspan></text>
<line class="gate" x1="9.00" y1="39.00" x2="11.00" y2="39.00"/>
<text class="gate-label-left" x="8.60" y="38.32"><tspan x="8.60" dy="0">any 建</tspan><tspan x="8.60" dy="0.68">置 exits</tspan><tspan x="8.60" dy="0.68">non-zero</tspan></text>
<line class="gate" x1="9.00" y1="48.00" x2="11.00" y2="48.00"/>
<text class="gate-label-left" x="8.60" y="47.32"><tspan x="8.60" dy="0">targets di</tspan><tspan x="8.60" dy="0.68">d 不 inclu</tspan><tspan x="8.60" dy="0.68">de Gateway</tspan></text>
<line class="gate" x1="33.42" y1="48.00" x2="35.42" y2="48.00"/>
<text class="gate-label" x="35.82" y="48.00"><tspan x="35.82" dy="0">targets included Gateway 與 self更新.執行actions succeeded</tspan></text>
</svg>