<svg xmlns="http://www.w3.org/2000/svg" width="980" height="470" viewBox="0 0 980 470" role="img" aria-label="daemon GRAFCET A1">
<defs><marker id="arrow" markerWidth="10" markerHeight="10" refX="8" refY="3" orient="auto" markerUnits="strokeWidth"><path d="M0,0 L0,6 L9,3 z" fill="#111"/></marker></defs>
<style>
.title{font:bold 26px serif;fill:#111}.meta{font:14px monospace;fill:#555}.step{fill:#fff;stroke:#111;stroke-width:2}.step-inner{fill:none;stroke:#111;stroke-width:1.5}.step-no{font:bold 22px serif;text-anchor:middle;dominant-baseline:middle}.assoc,.edge{stroke:#111;stroke-width:2;fill:none}.action{fill:#fff;stroke:#111;stroke-width:2}.module{fill:#f8fafc;stroke:#475569;stroke-width:1.5}.label{font:18px serif;fill:#111}.module-label{font:15px monospace;fill:#334155}.gate{font:14px serif;fill:#444}.gate-line{stroke:#111;stroke-width:2}
</style>
<rect width="100%" height="100%" fill="white"/>
<text class="title" x="40" y="42">daemon GRAFCET A1</text><text class="meta" x="40" y="70">source: specs/daemon/grafcet.json · layer: A1</text><rect class="step" x="54" y="105" width="72" height="72" rx="9"/><rect class="step-inner" x="62" y="113" width="56" height="56" rx="7"/><text class="step-no" x="90" y="149">0</text><line class="assoc" x1="126" y1="141" x2="160" y2="141"/><rect class="action" x="160" y="105" width="500" height="72" rx="8"/><text class="label" x="176" y="129"><tspan x="176" dy="0">Gateway splice loop serving authen</tspan><tspan x="176" dy="16">ticated clients 到 依-使用者 daemon 於 s</tspan><tspan x="176" dy="16">teady 狀態</tspan></text><rect class="module" x="690" y="105" width="220" height="72" rx="8"/><text class="module-label" x="704" y="132"><tspan x="704" dy="0">ModuleRef: A1</tspan></text><text class="gate" x="176" y="197"><tspan x="176" dy="0">restartself MCP 工具 invoked 由 AI</tspan></text><path class="edge" d="M90 177 L90 225" marker-end="url(#arrow)"/><line class="gate-line" x1="58" y1="199" x2="122" y2="199"/><rect class="step" x="54" y="225" width="72" height="72" rx="9"/><text class="step-no" x="90" y="269">9</text><line class="assoc" x1="126" y1="261" x2="160" y2="261"/><rect class="action" x="160" y="225" width="500" height="72" rx="8"/><text class="label" x="176" y="249"><tspan x="176" dy="0">下一個 authenticated 請求 hits Gateway </tspan><tspan x="176" dy="16">find或createdaemon 與 detects stale </tspan><tspan x="176" dy="16">daemon.js在 或 缺失 socket</tspan></text><rect class="module" x="690" y="225" width="220" height="72" rx="8"/><text class="module-label" x="704" y="252"><tspan x="704" dy="0">ModuleRef: A1</tspan></text><text class="gate" x="176" y="317"><tspan x="176" dy="0">adopt 探測 failed</tspan></text><path class="edge" d="M90 297 L90 345" marker-end="url(#arrow)"/><line class="gate-line" x1="58" y1="319" x2="122" y2="319"/><rect class="step" x="54" y="345" width="72" height="72" rx="9"/><text class="step-no" x="90" y="389">13</text><line class="assoc" x1="126" y1="381" x2="160" y2="381"/><rect class="action" x="160" y="345" width="500" height="72" rx="8"/><text class="label" x="176" y="369"><tspan x="176" dy="0">Gateway resumes splice proxy 到 fre</tspan><tspan x="176" dy="16">sh daemon, client SSE reconnect ab</tspan><tspan x="176" dy="16">sorbs 503 window, system 回到 到 stea</tspan><tspan x="176" dy="16">dy 狀態</tspan></text><rect class="module" x="690" y="345" width="220" height="72" rx="8"/><text class="module-label" x="704" y="372"><tspan x="704" dy="0">ModuleRef: A1</tspan></text><text class="gate" x="176" y="437"><tspan x="176" dy="0">bidirectional splice established</tspan></text>
</svg>
