<svg xmlns="http://www.w3.org/2000/svg" width="980" height="1190" viewBox="0 0 980 1190" role="img" aria-label="daemon GRAFCET A4">
<defs><marker id="arrow" markerWidth="10" markerHeight="10" refX="8" refY="3" orient="auto" markerUnits="strokeWidth"><path d="M0,0 L0,6 L9,3 z" fill="#111"/></marker></defs>
<style>
.title{font:bold 26px serif;fill:#111}.meta{font:14px monospace;fill:#555}.step{fill:#fff;stroke:#111;stroke-width:2}.step-inner{fill:none;stroke:#111;stroke-width:1.5}.step-no{font:bold 22px serif;text-anchor:middle;dominant-baseline:middle}.assoc,.edge{stroke:#111;stroke-width:2;fill:none}.action{fill:#fff;stroke:#111;stroke-width:2}.module{fill:#f8fafc;stroke:#475569;stroke-width:1.5}.label{font:18px serif;fill:#111}.module-label{font:15px monospace;fill:#334155}.gate{font:14px serif;fill:#444}.gate-line{stroke:#111;stroke-width:2}
</style>
<rect width="100%" height="100%" fill="white"/>
<text class="title" x="40" y="42">daemon GRAFCET A4</text><text class="meta" x="40" y="70">source: specs/daemon/grafcet.json · layer: A4</text><rect class="step" x="54" y="105" width="72" height="72" rx="9"/><text class="step-no" x="90" y="149">1</text><line class="assoc" x1="126" y1="141" x2="160" y2="141"/><rect class="action" x="160" y="105" width="500" height="72" rx="8"/><text class="label" x="176" y="129"><tspan x="176" dy="0">Daemon 路由 /api/v2/全域/web/restart r</tspan><tspan x="176" dy="16">eceives JWT-authenticated POST 使用 </tspan><tspan x="176" dy="16">targets 與 reason</tspan></text><rect class="module" x="690" y="105" width="220" height="72" rx="8"/><text class="module-label" x="704" y="132"><tspan x="704" dy="0">ModuleRef: A4</tspan></text><text class="gate" x="176" y="197"><tspan x="176" dy="0">JWT verified 與 body parsed</tspan></text><path class="edge" d="M90 177 L90 225" marker-end="url(#arrow)"/><line class="gate-line" x1="58" y1="199" x2="122" y2="199"/><rect class="step" x="54" y="225" width="72" height="72" rx="9"/><text class="step-no" x="90" y="269">2</text><line class="assoc" x1="126" y1="261" x2="160" y2="261"/><rect class="action" x="160" y="225" width="500" height="72" rx="8"/><text class="label" x="176" y="249"><tspan x="176" dy="0">解析restartruntimemode classifies ru</tspan><tspan x="176" dy="16">ntime 作為 Gateway-daemon 或 legacy</tspan></text><rect class="module" x="690" y="225" width="220" height="72" rx="8"/><text class="module-label" x="704" y="252"><tspan x="704" dy="0">ModuleRef: A4</tspan></text><text class="gate" x="176" y="317"><tspan x="176" dy="0">runtime mode classified as Gateway-daemon with/without Gateway target or</tspan><tspan x="176" dy="16"> legacy mode</tspan></text><path class="edge" d="M90 297 L90 345" marker-end="url(#arrow)"/><line class="gate-line" x1="58" y1="319" x2="122" y2="319"/><rect class="step" x="54" y="345" width="72" height="72" rx="9"/><text class="step-no" x="90" y="389">3</text><line class="assoc" x1="126" y1="381" x2="160" y2="381"/><rect class="action" x="160" y="345" width="500" height="72" rx="8"/><text class="label" x="176" y="369"><tspan x="176" dy="0">Branch dispatched: Gateway-目標 comp</tspan><tspan x="176" dy="16">ileGateway供self更新, daemon/前端-目標 啟動</tspan><tspan x="176" dy="16"> webctl.sh restart --graceful 使用 O</tspan><tspan x="176" dy="16">PENCODE RESTART TXID, legacy 啟動 we</tspan></text><rect class="module" x="690" y="345" width="220" height="72" rx="8"/><text class="module-label" x="704" y="372"><tspan x="704" dy="0">ModuleRef: A4</tspan></text><text class="gate" x="176" y="437"><tspan x="176" dy="0">worker spawned 使用 OPENCODE RESTART ERROR LOG FILE set</tspan></text><path class="edge" d="M90 417 L90 465" marker-end="url(#arrow)"/><line class="gate-line" x1="58" y1="439" x2="122" y2="439"/><rect class="step" x="54" y="465" width="72" height="72" rx="9"/><text class="step-no" x="90" y="509">4</text><line class="assoc" x1="126" y1="501" x2="160" y2="501"/><rect class="action" x="160" y="465" width="500" height="72" rx="8"/><text class="label" x="176" y="489"><tspan x="176" dy="0">webctl.sh dorestart fingerprints d</tspan><tspan x="176" dy="16">aemon 來源, 前端 Bundle, 與 Gateway C b</tspan><tspan x="176" dy="16">inary against installed artifacts</tspan></text><rect class="module" x="690" y="465" width="220" height="72" rx="8"/><text class="module-label" x="704" y="492"><tspan x="704" dy="0">ModuleRef: A4</tspan></text><text class="gate" x="176" y="557"><tspan x="176" dy="0">dirty layer set computed</tspan></text><path class="edge" d="M90 537 L90 585" marker-end="url(#arrow)"/><line class="gate-line" x1="58" y1="559" x2="122" y2="559"/><rect class="step" x="54" y="585" width="72" height="72" rx="9"/><text class="step-no" x="90" y="629">5</text><line class="assoc" x1="126" y1="621" x2="160" y2="621"/><rect class="action" x="160" y="585" width="500" height="72" rx="8"/><text class="label" x="176" y="609"><tspan x="176" dy="0">Rebuild 與 install 僅 dirty layers 透</tspan><tspan x="176" dy="16">過 do建置binary, do建置前端, docompileGat</tspan><tspan x="176" dy="16">eway</tspan></text><rect class="module" x="690" y="585" width="220" height="72" rx="8"/><text class="module-label" x="704" y="612"><tspan x="704" dy="0">ModuleRef: A4</tspan></text><text class="gate" x="176" y="677"><tspan x="176" dy="0">all builds exit zero; any 建置 exits non-zero</tspan></text><path class="edge" d="M90 657 L90 705" marker-end="url(#arrow)"/><line class="gate-line" x1="58" y1="679" x2="122" y2="679"/><rect class="step" x="54" y="705" width="72" height="72" rx="9"/><text class="step-no" x="90" y="749">6</text><line class="assoc" x1="126" y1="741" x2="160" y2="741"/><rect class="action" x="160" y="705" width="500" height="72" rx="8"/><text class="label" x="176" y="729"><tspan x="176" dy="0">worker exits zero, 路由 handler resp</tspan><tspan x="176" dy="16">onds 200 使用 mode=controlledrestart</tspan><tspan x="176" dy="16"> 與 recoveryDeadlineMs=30000</tspan></text><rect class="module" x="690" y="705" width="220" height="72" rx="8"/><text class="module-label" x="704" y="732"><tspan x="704" dy="0">ModuleRef: A4</tspan></text><text class="gate" x="176" y="797"><tspan x="176" dy="0">targets did 不 include Gateway; targets included Gateway 與 self更新.執行actio</tspan><tspan x="176" dy="16">ns succeeded</tspan></text><path class="edge" d="M90 777 L90 825" marker-end="url(#arrow)"/><line class="gate-line" x1="58" y1="799" x2="122" y2="799"/><rect class="step" x="54" y="825" width="72" height="72" rx="9"/><text class="step-no" x="90" y="869">7</text><line class="assoc" x1="126" y1="861" x2="160" y2="861"/><rect class="action" x="160" y="825" width="500" height="72" rx="8"/><text class="label" x="176" y="849"><tspan x="176" dy="0">Daemon 路徑: setTimeout 300ms, then </tspan><tspan x="176" dy="16">Daemon.removeDiscovery unlinks dae</tspan><tspan x="176" dy="16">mon.js在 daemon.pid daemon.sock 與 p</tspan><tspan x="176" dy="16">rocess.exit(0)</tspan></text><rect class="module" x="690" y="825" width="220" height="72" rx="8"/><text class="module-label" x="704" y="852"><tspan x="704" dy="0">ModuleRef: A4</tspan></text><text class="gate" x="176" y="917"><tspan x="176" dy="0">daemon process terminated</tspan></text><path class="edge" d="M90 897 L90 945" marker-end="url(#arrow)"/><line class="gate-line" x1="58" y1="919" x2="122" y2="919"/><rect class="step" x="54" y="945" width="72" height="72" rx="9"/><text class="step-no" x="90" y="989">8</text><line class="assoc" x1="126" y1="981" x2="160" y2="981"/><rect class="action" x="160" y="945" width="500" height="72" rx="8"/><text class="label" x="176" y="969"><tspan x="176" dy="0">Gateway 路徑: schedule restart-servi</tspan><tspan x="176" dy="16">ce opencode-gateway.service after </tspan><tspan x="176" dy="16">300ms, systemd respawns Gateway bi</tspan><tspan x="176" dy="16">nary causing 3-5s downtime 供 all u</tspan></text><rect class="module" x="690" y="945" width="220" height="72" rx="8"/><text class="module-label" x="704" y="972"><tspan x="704" dy="0">ModuleRef: A4</tspan></text><text class="gate" x="176" y="1037"><tspan x="176" dy="0">systemd reports opencode-Gateway active 執行中</tspan></text><path class="edge" d="M90 1017 L90 1065" marker-end="url(#arrow)"/><line class="gate-line" x1="58" y1="1039" x2="122" y2="1039"/><rect class="step" x="54" y="1065" width="72" height="72" rx="9"/><text class="step-no" x="90" y="1109">14</text><line class="assoc" x1="126" y1="1101" x2="160" y2="1101"/><rect class="action" x="160" y="1065" width="500" height="72" rx="8"/><text class="label" x="176" y="1089"><tspan x="176" dy="0">建置 failure 路徑: 路由 handler 返回 WEB R</tspan><tspan x="176" dy="16">ESTART FAILED 使用 webctlExit, txid,</tspan><tspan x="176" dy="16"> 錯誤記錄路徑, 或 RESTART LOCK BUSY 409 i</tspan><tspan x="176" dy="16">f stderr matches already 在 progres</tspan></text><rect class="module" x="690" y="1065" width="220" height="72" rx="8"/><text class="module-label" x="704" y="1092"><tspan x="704" dy="0">ModuleRef: A4</tspan></text><text class="gate" x="176" y="1157"><tspan x="176" dy="0">AI reads 錯誤記錄路徑, fixes 來源, re-invokes restartself</tspan></text>
</svg>
