<svg width="2034.0" height="1130.0" viewBox="-384.0 -210.0 2034.0 1130.0" xmlns="http://www.w3.org/2000/svg">
<defs>
<marker id="arrow" viewBox="0 0 10 10" refX="10" refY="5" markerWidth="6" markerHeight="6" orient="auto-start-reverse"><path d="M 0 0 L 10 5 L 0 10 z" fill="black" /></marker>
<marker id="call_arrow" viewBox="0 0 10 10" refX="10" refY="5" markerWidth="8" markerHeight="8" orient="auto-start-reverse"><path d="M 0 0 L 10 5 L 0 10 M 0 2 L 6 5 L 0 8" fill="none" stroke="black" stroke-width="1" /></marker>
</defs>
<rect x="-384.0" y="-210.0" width="2034.0" height="1130.0" fill="white" />
<rect x="130.0" y="120.0" width="202.0" height="160.0" stroke="black" fill="white" stroke-width="1.5" data-id="A1" />
<text x="231.0" y="166.7" text-anchor="middle" font-size="17" font-weight="bold" font-family="'Times New Roman', 'BiauKai', 'DFKai-SB', '標楷體', 'KaiTi', serif" data-id="A1" >A1</text>
<text x="231.0" y="200.9" text-anchor="middle" font-size="19" font-weight="bold" font-family="'Times New Roman', 'BiauKai', 'DFKai-SB', '標楷體', 'KaiTi', serif" data-id="A1" >路由 HTTP</text>
<text x="231.0" y="236.6" text-anchor="middle" font-size="19" font-weight="bold" font-family="'Times New Roman', 'BiauKai', 'DFKai-SB', '標楷體', 'KaiTi', serif" data-id="A1" >THROUGH GATEWAY</text>
<rect x="532.0" y="120.0" width="202.0" height="160.0" stroke="black" fill="white" stroke-width="1.5" data-id="A2" />
<text x="633.0" y="163.8" text-anchor="middle" font-size="19" font-weight="bold" font-family="'Times New Roman', 'BiauKai', 'DFKai-SB', '標楷體', 'KaiTi', serif" data-id="A2" >A2</text>
<text x="633.0" y="200.9" text-anchor="middle" font-size="21" font-weight="bold" font-family="'Times New Roman', 'BiauKai', 'DFKai-SB', '標楷體', 'KaiTi', serif" data-id="A2" >啟動 依-使用</text>
<text x="633.0" y="240.3" text-anchor="middle" font-size="21" font-weight="bold" font-family="'Times New Roman', 'BiauKai', 'DFKai-SB', '標楷體', 'KaiTi', serif" data-id="A2" >者 DAEMON</text>
<rect x="894.0" y="120.0" width="202.0" height="160.0" stroke="black" fill="white" stroke-width="1.5" data-id="A3" />
<text x="995.0" y="168.1" text-anchor="middle" font-size="16" font-weight="bold" font-family="'Times New Roman', 'BiauKai', 'DFKai-SB', '標楷體', 'KaiTi', serif" data-id="A3" >A3</text>
<text x="995.0" y="201.0" text-anchor="middle" font-size="18" font-weight="bold" font-family="'Times New Roman', 'BiauKai', 'DFKai-SB', '標楷體', 'KaiTi', serif" data-id="A3" >COORDINATE</text>
<text x="995.0" y="234.7" text-anchor="middle" font-size="18" font-weight="bold" font-family="'Times New Roman', 'BiauKai', 'DFKai-SB', '標楷體', 'KaiTi', serif" data-id="A3" >DAEMON LIFECYCLE</text>
<rect x="130.0" y="460.0" width="202.0" height="160.0" stroke="black" fill="white" stroke-width="1.5" data-id="A4" />
<text x="231.0" y="491.2" text-anchor="middle" font-size="16" font-weight="bold" font-family="'Times New Roman', 'BiauKai', 'DFKai-SB', '標楷體', 'KaiTi', serif" data-id="A4" >A4</text>
<text x="231.0" y="524.1" text-anchor="middle" font-size="18" font-weight="bold" font-family="'Times New Roman', 'BiauKai', 'DFKai-SB', '標楷體', 'KaiTi', serif" data-id="A4" >RESTART SELF</text>
<text x="231.0" y="557.8" text-anchor="middle" font-size="18" font-weight="bold" font-family="'Times New Roman', 'BiauKai', 'DFKai-SB', '標楷體', 'KaiTi', serif" data-id="A4" >THROUGH WEBCTL</text>
<text x="231.0" y="591.6" text-anchor="middle" font-size="18" font-weight="bold" font-family="'Times New Roman', 'BiauKai', 'DFKai-SB', '標楷體', 'KaiTi', serif" data-id="A4" >PIPELINE</text>
<rect x="532.0" y="460.0" width="202.0" height="160.0" stroke="black" fill="white" stroke-width="1.5" data-id="A5" />
<text x="633.0" y="503.8" text-anchor="middle" font-size="19" font-weight="bold" font-family="'Times New Roman', 'BiauKai', 'DFKai-SB', '標楷體', 'KaiTi', serif" data-id="A5" >A5</text>
<text x="633.0" y="540.9" text-anchor="middle" font-size="21" font-weight="bold" font-family="'Times New Roman', 'BiauKai', 'DFKai-SB', '標楷體', 'KaiTi', serif" data-id="A5" >SELF-HEAL</text>
<text x="633.0" y="580.3" text-anchor="middle" font-size="21" font-weight="bold" font-family="'Times New Roman', 'BiauKai', 'DFKai-SB', '標楷體', 'KaiTi', serif" data-id="A5" >ORPHAN DAEMON</text>
<rect x="894.0" y="460.0" width="202.0" height="160.0" stroke="black" fill="white" stroke-width="1.5" data-id="A6" />
<text x="995.0" y="505.2" text-anchor="middle" font-size="18" font-weight="bold" font-family="'Times New Roman', 'BiauKai', 'DFKai-SB', '標楷體', 'KaiTi', serif" data-id="A6" >A6</text>
<text x="995.0" y="540.9" text-anchor="middle" font-size="20" font-weight="bold" font-family="'Times New Roman', 'BiauKai', 'DFKai-SB', '標楷體', 'KaiTi', serif" data-id="A6" >ONBOARD MULTI-</text>
<text x="995.0" y="578.4" text-anchor="middle" font-size="20" font-weight="bold" font-family="'Times New Roman', 'BiauKai', 'DFKai-SB', '標楷體', 'KaiTi', serif" data-id="A6" >使用者 SESSION</text>
<rect x="130.0" y="710.0" width="202.0" height="160.0" stroke="black" fill="white" stroke-width="1.5" data-id="A7" />
<text x="231.0" y="755.2" text-anchor="middle" font-size="18" font-weight="bold" font-family="'Times New Roman', 'BiauKai', 'DFKai-SB', '標楷體', 'KaiTi', serif" data-id="A7" >A7</text>
<text x="231.0" y="790.9" text-anchor="middle" font-size="20" font-weight="bold" font-family="'Times New Roman', 'BiauKai', 'DFKai-SB', '標楷體', 'KaiTi', serif" data-id="A7" >ENFORCE DAEMON</text>
<text x="231.0" y="828.4" text-anchor="middle" font-size="20" font-weight="bold" font-family="'Times New Roman', 'BiauKai', 'DFKai-SB', '標楷體', 'KaiTi', serif" data-id="A7" >啟動 DENYLIST</text>
<rect x="80.0" y="0.0" width="1106.0" height="910.0" stroke="black" fill="none" stroke-width="2" />
<rect x="473.5" y="-200.0" width="319.0" height="110.0" stroke="black" fill="white" stroke-width="1.5" data-id="A0" />
<text x="633.0" y="-174.0" text-anchor="middle" font-size="14" font-weight="bold" font-family="'Times New Roman', 'BiauKai', 'DFKai-SB', '標楷體', 'KaiTi', serif" data-id="A0" >A0</text>
<text x="633.0" y="-144.0" text-anchor="middle" font-size="16" font-weight="bold" font-family="'Times New Roman', 'BiauKai', 'DFKai-SB', '標楷體', 'KaiTi', serif" data-id="A0" >OPERATE GATEWAY</text>
<text x="633.0" y="-114.0" text-anchor="middle" font-size="16" font-weight="bold" font-family="'Times New Roman', 'BiauKai', 'DFKai-SB', '標楷體', 'KaiTi', serif" data-id="A0" >與 DAEMON PROCESS</text>
<line x1="473.5" y1="-200.0" x2="80.0" y2="0.0" stroke="red" stroke-dasharray="5,5" stroke-width="1.0" opacity="0.6" />
<line x1="792.5" y1="-200.0" x2="1186.0" y2="0.0" stroke="red" stroke-dasharray="5,5" stroke-width="1.0" opacity="0.6" />
<line x1="473.5" y1="-90.0" x2="80.0" y2="910.0" stroke="red" stroke-dasharray="5,5" stroke-width="1.0" opacity="0.6" />
<line x1="792.5" y1="-90.0" x2="1186.0" y2="910.0" stroke="red" stroke-dasharray="5,5" stroke-width="1.0" opacity="0.6" />
<path d="M 734.0 226.7 L 894.0 226.7" stroke="black" stroke-width="1.2" data-arrow-id="m7" data-waypoints="734.0,226.7 894.0,226.7" marker-end="url(#arrow)" fill="none" />
<path d="M 332.0 173.3 L 362.0 173.3 Q 372.0 173.3 372.0 163.3 L 372.0 88.2 Q 372.0 78.2 382.0 78.2 L 844.0 78.2 Q 854.0 78.2 854.0 88.2 L 854.0 163.3 Q 854.0 173.3 864.0 173.3 L 894.0 173.3" stroke="black" stroke-width="1.2" data-arrow-id="m4" data-waypoints="332.0,173.3 372.0,173.3 372.0,78.2 854.0,78.2 854.0,173.3 894.0,173.3" marker-end="url(#arrow)" fill="none" />
<path d="M 332.0 566.7 L 402.0 566.7 Q 412.0 566.7 412.0 556.7 L 412.0 210.0 Q 412.0 200.0 422.0 200.0 L 532.0 200.0" stroke="black" stroke-width="1.2" data-arrow-id="m12" data-waypoints="332.0,566.7 412.0,566.7 412.0,200.0 532.0,200.0" marker-end="url(#arrow)" fill="none" />
<path d="M 332.0 226.7 L 442.0 226.7 Q 452.0 226.7 452.0 236.7 L 452.0 530.0 Q 452.0 540.0 462.0 540.0 L 532.0 540.0" stroke="black" stroke-width="1.2" data-arrow-id="m14" data-waypoints="332.0,226.7 452.0,226.7 452.0,540.0 532.0,540.0" marker-end="url(#arrow)" fill="none" />
<path d="M 1096.0 226.7 L 1126.0 226.7 Q 1136.0 226.7 1136.0 216.7 L 1136.0 50.0 Q 1136.0 40.0 1126.0 40.0 L 502.0 40.0 Q 492.0 40.0 492.0 50.0 L 492.0 150.0 Q 492.0 160.0 502.0 160.0 L 532.0 160.0" stroke="black" stroke-width="1.2" data-arrow-id="m5" data-waypoints="1096.0,226.7 1136.0,226.7 1136.0,40.0 492.0,40.0 492.0,160.0 532.0,160.0" marker-end="url(#arrow)" fill="none" />
<path d="M 734.0 566.7 L 764.0 566.7 Q 774.0 566.7 774.0 556.7 L 774.0 340.0 Q 774.0 330.0 764.0 330.0 L 502.0 330.0 Q 492.0 330.0 492.0 320.0 L 492.0 250.0 Q 492.0 240.0 502.0 240.0 L 532.0 240.0" stroke="black" stroke-width="1.2" data-arrow-id="m16" data-waypoints="734.0,566.7 774.0,566.7 774.0,330.0 492.0,330.0 492.0,240.0 532.0,240.0" marker-end="url(#arrow)" fill="none" />
<path d="M 30.0 200.0 L 130.0 200.0" stroke="black" stroke-width="1.2" data-arrow-id="m1" data-waypoints="30.0,200.0 130.0,200.0" marker-end="url(#arrow)" fill="none" />
<path d="M 231.0 315.8 L 231.0 280.0" stroke="black" stroke-width="1.2" data-arrow-id="m3" data-waypoints="231.0,315.8 231.0,280.0" marker-end="url(#arrow)" fill="none" />
<path d="M 1096.0 173.3 L 1236.0 173.3" stroke="black" stroke-width="1.2" data-arrow-id="m8" data-waypoints="1096.0,173.3 1236.0,173.3" marker-end="url(#arrow)" fill="none" />
<path d="M 995.0 84.2 L 995.0 120.0" stroke="black" stroke-width="1.2" data-arrow-id="m9" data-waypoints="995.0,84.2 995.0,120.0" marker-end="url(#arrow)" fill="none" />
<path d="M 30.0 540.0 L 130.0 540.0" stroke="black" stroke-width="1.2" data-arrow-id="m10" data-waypoints="30.0,540.0 130.0,540.0" marker-end="url(#arrow)" fill="none" />
<path d="M 332.0 513.3 L 362.0 513.3 Q 372.0 513.3 372.0 523.3 L 372.0 650.0 Q 372.0 660.0 382.0 660.0 L 1236.0 660.0" stroke="black" stroke-width="1.2" data-arrow-id="m13" data-waypoints="332.0,513.3 372.0,513.3 372.0,660.0 1236.0,660.0" marker-end="url(#arrow)" fill="none" />
<path d="M 633.0 424.2 L 633.0 460.0" stroke="black" stroke-width="1.2" data-arrow-id="m15" data-waypoints="633.0,424.2 633.0,460.0" marker-end="url(#arrow)" fill="none" />
<path d="M 734.0 513.3 L 804.0 513.3 Q 814.0 513.3 814.0 503.3 L 814.0 420.0 Q 814.0 410.0 824.0 410.0 L 1236.0 410.0" stroke="black" stroke-width="1.2" data-arrow-id="m17" data-waypoints="734.0,513.3 814.0,513.3 814.0,410.0 1236.0,410.0" marker-end="url(#arrow)" fill="none" />
<path d="M 30.0 370.0 L 844.0 370.0 Q 854.0 370.0 854.0 380.0 L 854.0 530.0 Q 854.0 540.0 864.0 540.0 L 894.0 540.0" stroke="black" stroke-width="1.2" data-arrow-id="m18" data-waypoints="30.0,370.0 854.0,370.0 854.0,540.0 894.0,540.0" marker-end="url(#arrow)" fill="none" />
<path d="M 995.0 424.2 L 995.0 460.0" stroke="black" stroke-width="1.2" data-arrow-id="m19" data-waypoints="995.0,424.2 995.0,460.0" marker-end="url(#arrow)" fill="none" />
<path d="M 633.0 84.2 L 633.0 120.0" stroke="black" stroke-width="1.2" data-arrow-id="m20" data-waypoints="633.0,84.2 633.0,120.0" marker-end="url(#arrow)" fill="none" />
<path d="M 1096.0 540.0 L 1236.0 540.0" stroke="black" stroke-width="1.2" data-arrow-id="m21" data-waypoints="1096.0,540.0 1236.0,540.0" marker-end="url(#arrow)" fill="none" />
<path d="M 30.0 790.0 L 130.0 790.0" stroke="black" stroke-width="1.2" data-arrow-id="m22" data-waypoints="30.0,790.0 130.0,790.0" marker-end="url(#arrow)" fill="none" />
<path d="M 231.0 674.2 L 231.0 710.0" stroke="black" stroke-width="1.2" data-arrow-id="m23" data-waypoints="231.0,674.2 231.0,710.0" marker-end="url(#arrow)" fill="none" />
<path d="M 332.0 790.0 L 1236.0 790.0" stroke="black" stroke-width="1.2" data-arrow-id="m24" data-waypoints="332.0,790.0 1236.0,790.0" marker-end="url(#arrow)" fill="none" />
<path d="M 231.0 84.2 L 231.0 120.0" stroke="black" stroke-width="1.2" data-arrow-id="_merged_A1_control" data-waypoints="231.0,84.2 231.0,120.0" marker-end="url(#arrow)" fill="none" />
<path d="M 231.0 424.2 L 231.0 460.0" stroke="black" stroke-width="1.2" data-arrow-id="_merged_A4_control" data-waypoints="231.0,424.2 231.0,460.0" marker-end="url(#arrow)" fill="none" />
<text x="231.0" y="331.8" font-size="14" text-anchor="middle" font-weight="bold" fill="black" font-family="'Times New Roman', 'BiauKai', 'DFKai-SB', '標楷體', 'KaiTi', serif" data-arrow-id="m3">opencode-gateway.service 執行中 作為 Root</text>
<text x="989.0" y="114.0" font-size="14" text-anchor="end" font-weight="bold" fill="black" font-family="'Times New Roman', 'BiauKai', 'DFKai-SB', '標楷體', 'KaiTi', serif" data-arrow-id="m9">process.終止(pid,0) Liveness</text>
<text x="1001.0" y="114.0" font-size="14" text-anchor="start" font-weight="bold" fill="black" font-family="'Times New Roman', 'BiauKai', 'DFKai-SB', '標楷體', 'KaiTi', serif" data-arrow-id="m9">Plus /程序/&lt;pid&gt;/uid Check</text>
<text x="627.0" y="454.0" font-size="14" text-anchor="end" font-weight="bold" fill="black" font-family="'Times New Roman', 'BiauKai', 'DFKai-SB', '標楷體', 'KaiTi', serif" data-arrow-id="m15">SIGTERM 1s waitpid</text>
<text x="639.0" y="454.0" font-size="14" text-anchor="start" font-weight="bold" fill="black" font-family="'Times New Roman', 'BiauKai', 'DFKai-SB', '標楷體', 'KaiTi', serif" data-arrow-id="m15">SIGKILL Escalation</text>
<text x="989.0" y="454.0" font-size="14" text-anchor="end" font-weight="bold" fill="black" font-family="'Times New Roman', 'BiauKai', 'DFKai-SB', '標楷體', 'KaiTi', serif" data-arrow-id="m19">/etc/opencode</text>
<text x="1001.0" y="454.0" font-size="14" text-anchor="start" font-weight="bold" fill="black" font-family="'Times New Roman', 'BiauKai', 'DFKai-SB', '標楷體', 'KaiTi', serif" data-arrow-id="m19">google-bindings.js在 Mapping</text>
<text x="627.0" y="114.0" font-size="14" text-anchor="end" font-weight="bold" fill="black" font-family="'Times New Roman', 'BiauKai', 'DFKai-SB', '標楷體', 'KaiTi', serif" data-arrow-id="m20">Authorized</text>
<text x="639.0" y="114.0" font-size="14" text-anchor="start" font-weight="bold" fill="black" font-family="'Times New Roman', 'BiauKai', 'DFKai-SB', '標楷體', 'KaiTi', serif" data-arrow-id="m20">UID 供 啟動</text>
<text x="225.0" y="704.0" font-size="14" text-anchor="end" font-weight="bold" fill="black" font-family="'Times New Roman', 'BiauKai', 'DFKai-SB', '標楷體', 'KaiTi', serif" data-arrow-id="m23">DAEMON SPAWN DENYLIST Four</text>
<text x="237.0" y="704.0" font-size="14" text-anchor="start" font-weight="bold" fill="black" font-family="'Times New Roman', 'BiauKai', 'DFKai-SB', '標楷體', 'KaiTi', serif" data-arrow-id="m23">Regex Rules 在 tool/bash.ts</text>
<text x="225.0" y="114.0" font-size="14" text-anchor="end" font-weight="bold" fill="black" font-family="'Times New Roman', 'BiauKai', 'DFKai-SB', '標楷體', 'KaiTi', serif" data-arrow-id="m2">/etc/opencode/opencode.cfg</text>
<text x="237.0" y="114.0" font-size="14" text-anchor="start" font-weight="bold" fill="black" font-family="'Times New Roman', 'BiauKai', 'DFKai-SB', '標楷體', 'KaiTi', serif" data-arrow-id="m2">environment檔案、Adopted daemon.sock 路徑</text>
<text x="225.0" y="454.0" font-size="14" text-anchor="end" font-weight="bold" fill="black" font-family="'Times New Roman', 'BiauKai', 'DFKai-SB', '標楷體', 'KaiTi', serif" data-arrow-id="m11">AGENTS.md Plus webctl.sh Smart-Detect</text>
<text x="237.0" y="454.0" font-size="14" text-anchor="start" font-weight="bold" fill="black" font-family="'Times New Roman', 'BiauKai', 'DFKai-SB', '標楷體', 'KaiTi', serif" data-arrow-id="m11">Forces AI 到 Use restartself 路徑</text>
<text x="814.0" y="221.7" font-size="14" font-weight="bold" fill="black" text-anchor="middle" font-family="'Times New Roman', 'BiauKai', 'DFKai-SB', '標楷體', 'KaiTi', serif" data-arrow-id="m7">New Discovery</text>
<text x="814.0" y="238.7" font-size="14" font-weight="bold" fill="black" text-anchor="middle" font-family="'Times New Roman', 'BiauKai', 'DFKai-SB', '標楷體', 'KaiTi', serif" data-arrow-id="m7">檔案 Triple</text>
<text x="633.0" y="70.2" font-size="14" font-weight="bold" fill="black" text-anchor="middle" font-family="'Times New Roman', 'BiauKai', 'DFKai-SB', '標楷體', 'KaiTi', serif" data-arrow-id="m4" >find或createdaemon UID Lookup</text>
<text x="382.0" y="411.3" font-size="14" font-weight="bold" fill="black" text-anchor="end" font-family="'Times New Roman', 'BiauKai', 'DFKai-SB', '標楷體', 'KaiTi', serif" data-arrow-id="m12" >Daemon Self-Exit Triggers Respawn</text>
<text x="482.0" y="354.5" font-size="14" font-weight="bold" fill="black" text-anchor="start" font-family="'Times New Roman', 'BiauKai', 'DFKai-SB', '標楷體', 'KaiTi', serif" data-arrow-id="m14" >Adopt 探測 Found Stale 或 Mismatched Holder</text>
<text x="633.0" y="32.0" font-size="14" font-weight="bold" fill="black" text-anchor="middle" font-family="'Times New Roman', 'BiauKai', 'DFKai-SB', '標楷體', 'KaiTi', serif" data-arrow-id="m5" >Adopt Failed, 啟動 Required</text>
<text x="633.0" y="322.0" font-size="14" font-weight="bold" fill="black" text-anchor="middle" font-family="'Times New Roman', 'BiauKai', 'DFKai-SB', '標楷體', 'KaiTi', serif" data-arrow-id="m16" >Cleared Lock 與 Socket 路徑 就緒</text>
<text x="26.0" y="191.0" font-size="20" text-anchor="end" font-weight="bold" fill="black" font-family="'Times New Roman', 'BiauKai', 'DFKai-SB', '標楷體', 'KaiTi', serif" data-arrow-id="m1">Browser HTTPS</text>
<text x="26.0" y="217.0" font-size="20" text-anchor="end" font-weight="bold" fill="black" font-family="'Times New Roman', 'BiauKai', 'DFKai-SB', '標楷體', 'KaiTi', serif" data-arrow-id="m1">請求 透過 Nginx</text>
<text x="1240.0" y="151.3" font-size="20" text-anchor="start" font-weight="bold" fill="black" font-family="'Times New Roman', 'BiauKai', 'DFKai-SB', '標楷體', 'KaiTi', serif" data-arrow-id="m8">daemon.lock JSON</text>
<text x="1240.0" y="177.3" font-size="20" text-anchor="start" font-weight="bold" fill="black" font-family="'Times New Roman', 'BiauKai', 'DFKai-SB', '標楷體', 'KaiTi', serif" data-arrow-id="m8">PID 在 ~/.config/</text>
<text x="1240.0" y="203.3" font-size="20" text-anchor="start" font-weight="bold" fill="black" font-family="'Times New Roman', 'BiauKai', 'DFKai-SB', '標楷體', 'KaiTi', serif" data-arrow-id="m8">opencode/</text>
<text x="26.0" y="544.0" font-size="20" text-anchor="end" font-weight="bold" fill="black" font-family="'Times New Roman', 'BiauKai', 'DFKai-SB', '標楷體', 'KaiTi', serif" data-arrow-id="m10">AI Calls system-manager:restartself</text>
<text x="1240.0" y="651.0" font-size="20" text-anchor="start" font-weight="bold" fill="black" font-family="'Times New Roman', 'BiauKai', 'DFKai-SB', '標楷體', 'KaiTi', serif" data-arrow-id="m13">錯誤記錄路徑 或</text>
<text x="1240.0" y="677.0" font-size="20" text-anchor="start" font-weight="bold" fill="black" font-family="'Times New Roman', 'BiauKai', 'DFKai-SB', '標楷體', 'KaiTi', serif" data-arrow-id="m13">200 Accepted 回應</text>
<text x="1240.0" y="388.0" font-size="20" text-anchor="start" font-weight="bold" fill="black" font-family="'Times New Roman', 'BiauKai', 'DFKai-SB', '標楷體', 'KaiTi', serif" data-arrow-id="m17">orphan-detected</text>
<text x="1240.0" y="414.0" font-size="20" text-anchor="start" font-weight="bold" fill="black" font-family="'Times New Roman', 'BiauKai', 'DFKai-SB', '標楷體', 'KaiTi', serif" data-arrow-id="m17">與 orphan-cleanup</text>
<text x="1240.0" y="440.0" font-size="20" text-anchor="start" font-weight="bold" fill="black" font-family="'Times New Roman', 'BiauKai', 'DFKai-SB', '標楷體', 'KaiTi', serif" data-arrow-id="m17">記錄 Lines</text>
<text x="26.0" y="374.0" font-size="20" text-anchor="end" font-weight="bold" fill="black" font-family="'Times New Roman', 'BiauKai', 'DFKai-SB', '標楷體', 'KaiTi', serif" data-arrow-id="m18">First 登入 供 System 帳號</text>
<text x="1240.0" y="518.0" font-size="20" text-anchor="start" font-weight="bold" fill="black" font-family="'Times New Roman', 'BiauKai', 'DFKai-SB', '標楷體', 'KaiTi', serif" data-arrow-id="m21">登入 重新導向 Clears</text>
<text x="1240.0" y="544.0" font-size="20" text-anchor="start" font-weight="bold" fill="black" font-family="'Times New Roman', 'BiauKai', 'DFKai-SB', '標楷體', 'KaiTi', serif" data-arrow-id="m21">localStorage 在</text>
<text x="1240.0" y="570.0" font-size="20" text-anchor="start" font-weight="bold" fill="black" font-family="'Times New Roman', 'BiauKai', 'DFKai-SB', '標楷體', 'KaiTi', serif" data-arrow-id="m21">使用者 Switch</text>
<text x="26.0" y="794.0" font-size="20" text-anchor="end" font-weight="bold" fill="black" font-family="'Times New Roman', 'BiauKai', 'DFKai-SB', '標楷體', 'KaiTi', serif" data-arrow-id="m22">AI Bash 工具 Command</text>
<text x="1240.0" y="768.0" font-size="20" text-anchor="start" font-weight="bold" fill="black" font-family="'Times New Roman', 'BiauKai', 'DFKai-SB', '標楷體', 'KaiTi', serif" data-arrow-id="m24">FORBIDDEN DAEMON</text>
<text x="1240.0" y="794.0" font-size="20" text-anchor="start" font-weight="bold" fill="black" font-family="'Times New Roman', 'BiauKai', 'DFKai-SB', '標楷體', 'KaiTi', serif" data-arrow-id="m24">SPAWN Throw Plus</text>
<text x="1240.0" y="820.0" font-size="20" text-anchor="start" font-weight="bold" fill="black" font-family="'Times New Roman', 'BiauKai', 'DFKai-SB', '標楷體', 'KaiTi', serif" data-arrow-id="m24">denylist-區塊 記錄</text>
<path d="M 382.0,407.1 L 382.6,407.5 L 383.2,408.0 L 383.9,408.4 L 384.5,408.8 L 385.1,409.2 L 385.8,409.6 L 386.4,409.9 L 387.0,410.1 L 387.6,410.3 L 388.2,410.5 L 388.9,410.6 L 389.5,410.6 L 390.1,410.6 L 390.8,410.5 L 391.4,410.3 L 392.0,410.1 L 392.6,409.9 L 393.2,409.6 L 393.9,409.2 L 394.5,408.8 L 395.1,408.4 L 395.8,408.0 L 396.4,407.5 L 397.0,407.1 L 397.6,406.6 L 398.2,406.2 L 398.9,405.7 L 399.5,405.3 L 400.1,405.0 L 400.8,404.6 L 401.4,404.3 L 402.0,404.1 L 402.6,403.9 L 403.2,403.7 L 403.9,403.6 L 404.5,403.6 L 405.1,403.6 L 405.8,403.7 L 406.4,403.9 L 407.0,404.1 L 407.6,404.3 L 408.2,404.6 L 408.9,405.0 L 409.5,405.3 L 410.1,405.7 L 410.8,406.2 L 411.4,406.6 L 412.0,407.1" stroke="red" stroke-width="0.8" fill="none" opacity="0.5" />
<path d="M 482.0,350.3 L 481.4,350.8 L 480.8,351.2 L 480.1,351.7 L 479.5,352.1 L 478.9,352.5 L 478.2,352.8 L 477.6,353.1 L 477.0,353.4 L 476.4,353.6 L 475.8,353.7 L 475.1,353.8 L 474.5,353.8 L 473.9,353.8 L 473.2,353.7 L 472.6,353.6 L 472.0,353.4 L 471.4,353.1 L 470.8,352.8 L 470.1,352.5 L 469.5,352.1 L 468.9,351.7 L 468.2,351.2 L 467.6,350.8 L 467.0,350.3 L 466.4,349.9 L 465.8,349.4 L 465.1,349.0 L 464.5,348.6 L 463.9,348.2 L 463.2,347.8 L 462.6,347.5 L 462.0,347.3 L 461.4,347.1 L 460.8,346.9 L 460.1,346.9 L 459.5,346.8 L 458.9,346.9 L 458.2,346.9 L 457.6,347.1 L 457.0,347.3 L 456.4,347.5 L 455.8,347.8 L 455.1,348.2 L 454.5,348.6 L 453.9,349.0 L 453.2,349.4 L 452.6,349.9 L 452.0,350.3" stroke="red" stroke-width="0.8" fill="none" opacity="0.5" />
</svg>