<svg xmlns="http://www.w3.org/2000/svg" width="1798" height="3360" viewBox="-21.50 -2.00 89.90 168.00" role="img">
<style>
.step{fill:#fff;stroke:#111;stroke-width:.14}.step-inner{fill:none;stroke:#111;stroke-width:.08}
.action{fill:#fff;stroke:#111;stroke-width:.14}.gate{stroke:#111;stroke-width:.16}
.edge{fill:none;stroke:#111;stroke-width:.05;stroke-linecap:round;stroke-linejoin:round}.edge-arrow{marker-end:url(#arrow)}
.flyover-mask{stroke:#fff;stroke-width:.12;stroke-linecap:round}
.flyover{fill:none;stroke:#111;stroke-width:.05;stroke-linecap:round}
.junction{fill:#111;stroke:#111;stroke-width:0}.branch-junction{fill:#fff;stroke:#111;stroke-width:.08}
.assoc{stroke:#111;stroke-width:.05}.label{font:bold .7px 'Times New Roman', 'BiauKai', 'DFKai-SB', serif;text-anchor:middle;dominant-baseline:middle}
.action-label{font:.55px 'Times New Roman', 'BiauKai', 'DFKai-SB', serif;text-anchor:middle;dominant-baseline:middle}.gate-label{font:italic .55px 'Times New Roman', 'BiauKai', 'DFKai-SB', serif;text-anchor:start;dominant-baseline:middle}.gate-label-left{font:italic .55px 'Times New Roman', 'BiauKai', 'DFKai-SB', serif;text-anchor:end;dominant-baseline:middle}
</style>
<defs><marker id="arrow" markerWidth="0.4" markerHeight="0.4" refX="0.36" refY="0.2" orient="auto" markerUnits="userSpaceOnUse"><path d="M 0 0 L 0.4 0.2 L 0 0.4 z" fill="#111"/></marker></defs>
<rect x="-21.50" y="-2.00" width="89.90" height="168.00" fill="white"/>
<path class="edge" d="M 36.44 7.00 L 36.44 9.00"/>
<path class="edge edge-arrow" d="M 36.44 9.00 L 36.44 11.00"/>
<path class="edge" d="M 36.44 14.00 L 36.44 16.00"/>
<path class="edge edge-arrow" d="M 36.44 16.00 L 36.44 18.00"/>
<path class="edge edge-arrow" d="M 36.44 21.00 L 36.44 23.00"/>
<path class="edge edge-arrow" d="M 20.96 23.00 L 20.96 27.00"/>
<path class="edge edge-arrow" d="M 36.44 23.00 L 36.44 27.00"/>
<path class="edge edge-arrow" d="M 51.92 23.00 L 51.92 27.00"/>
<path class="edge" d="M 20.96 30.00 L 20.96 32.00"/>
<path class="edge edge-arrow" d="M 20.96 32.00 L 20.96 36.00"/>
<path class="edge edge-arrow" d="M 36.44 30.00 L 36.44 34.00"/>
<path class="edge edge-arrow" d="M 36.44 34.00 L 36.44 36.00"/>
<path class="edge edge-arrow" d="M 51.92 30.00 L 51.92 34.00"/>
<path class="edge" d="M 20.96 39.00 L 20.96 41.00"/>
<path class="edge edge-arrow" d="M 20.96 41.00 L 20.96 45.00"/>
<path class="edge" d="M 20.96 48.00 L 20.96 50.00"/>
<path class="edge edge-arrow" d="M 20.96 50.00 L 20.96 52.00"/>
<path class="edge" d="M 20.96 55.00 L 20.96 57.00"/>
<path class="edge edge-arrow" d="M 20.96 57.00 L 20.96 59.00"/>
<path class="edge" d="M 20.96 62.00 L 20.96 64.00"/>
<path class="edge edge-arrow" d="M 20.96 64.00 L 20.96 66.00"/>
<path class="edge" d="M 20.96 69.00 L 20.96 71.00"/>
<path class="edge edge-arrow" d="M 20.96 71.00 L 20.96 73.00"/>
<path class="edge edge-arrow" d="M 20.96 76.00 L 20.96 78.00"/>
<path class="edge edge-arrow" d="M 5.48 78.00 L 5.48 82.00"/>
<path class="edge edge-arrow" d="M 20.96 78.00 L 20.96 82.00"/>
<path class="edge" d="M 5.48 85.00 L 5.48 87.00"/>
<path class="edge edge-arrow" d="M 5.48 87.00 L 5.48 89.00"/>
<path class="edge" d="M 5.48 92.00 L 5.48 94.00"/>
<path class="edge edge-arrow" d="M 5.48 94.00 L 5.48 96.00"/>
<path class="edge edge-arrow" d="M 5.48 99.00 L 5.48 101.00"/>
<path class="edge edge-arrow" d="M -10.00 101.00 L -10.00 107.00"/>
<path class="edge edge-arrow" d="M 5.48 101.00 L 5.48 107.00"/>
<path class="edge edge-arrow" d="M -12.50 101.00 L -12.50 104.50 Q -12.50 105.00 -13.00 105.00 L -17.00 105.00 Q -17.50 105.00 -17.50 104.50 L -17.50 2.50 Q -17.50 2.00 -17.00 2.00 L 35.94 2.00 Q 36.44 2.00 36.44 2.50 L 36.44 4.00"/>
<path class="edge" d="M -10.00 110.00 L -10.00 112.00"/>
<path class="edge" d="M -10.00 112.00 L -10.00 114.00"/>
<path class="edge" d="M -10.00 114.00 L -17.50 114.00"/>
<path class="edge" d="M -17.50 114.00 L -17.50 105.00"/>
<path class="edge edge-arrow" d="M 5.48 110.00 L 5.48 114.00"/>
<path class="edge edge-arrow" d="M 5.48 114.00 L 5.48 116.00"/>
<path class="edge edge-arrow" d="M 20.96 85.00 L 20.96 114.00"/>
<path class="edge" d="M 5.48 119.00 L 5.48 121.00"/>
<path class="edge edge-arrow" d="M 5.48 121.00 L 5.48 123.00"/>
<path class="edge edge-arrow" d="M 5.48 126.00 L 5.48 128.00"/>
<path class="edge edge-arrow" d="M -10.00 128.00 L -10.00 132.00"/>
<path class="edge edge-arrow" d="M 5.48 128.00 L 5.48 132.00"/>
<path class="edge" d="M -10.00 135.00 L -10.00 137.00"/>
<path class="edge" d="M -10.00 137.00 L -10.00 139.00"/>
<path class="edge" d="M -10.00 139.00 L -17.50 139.00"/>
<path class="edge" d="M -17.50 139.00 L -17.50 114.00"/>
<path class="edge" d="M 5.48 135.00 L 5.48 137.00"/>
<path class="edge edge-arrow" d="M 5.48 137.00 L 5.48 141.00"/>
<path class="edge" d="M 5.48 144.00 L 5.48 146.00"/>
<path class="edge edge-arrow" d="M 5.48 146.00 L 5.48 148.00"/>
<path class="edge" d="M 5.48 151.00 L 5.48 153.00"/>
<path class="edge edge-arrow" d="M 5.48 153.00 L 5.48 155.00"/>
<path class="edge" d="M 5.48 158.00 L 5.48 160.00"/>
<path class="edge" d="M 5.48 160.00 L 5.48 162.00"/>
<path class="edge" d="M 5.48 162.00 L -17.50 162.00"/>
<path class="edge" d="M -17.50 162.00 L -17.50 139.00"/>
<path class="edge" d="M 36.44 39.00 L 36.44 41.00"/>
<path class="edge" d="M 36.44 41.00 L 36.44 43.00"/>
<path class="edge" d="M 36.44 43.00 L -17.50 43.00"/>
<rect class="step" x="34.44" y="4.00" width="4.00" height="3.00" rx="0.35" ry="0.35"/>
<rect class="step-inner" x="34.69" y="4.25" width="3.50" height="2.50" rx="0.22" ry="0.22"/>
<text class="label" x="36.44" y="5.50">0</text>
<rect class="step" x="34.44" y="11.00" width="4.00" height="3.00" rx="0.35" ry="0.35"/>
<text class="label" x="36.44" y="12.50">1</text>
<rect class="step" x="34.44" y="18.00" width="4.00" height="3.00" rx="0.35" ry="0.35"/>
<text class="label" x="36.44" y="19.50">2</text>
<rect class="step" x="18.96" y="27.00" width="4.00" height="3.00" rx="0.35" ry="0.35"/>
<text class="label" x="20.96" y="28.50">3</text>
<rect class="step" x="34.44" y="27.00" width="4.00" height="3.00" rx="0.35" ry="0.35"/>
<text class="label" x="36.44" y="28.50">4</text>
<rect class="step" x="49.92" y="27.00" width="4.00" height="3.00" rx="0.35" ry="0.35"/>
<text class="label" x="51.92" y="28.50">5</text>
<rect class="step" x="18.96" y="36.00" width="4.00" height="3.00" rx="0.35" ry="0.35"/>
<text class="label" x="20.96" y="37.50">10</text>
<rect class="step" x="18.96" y="45.00" width="4.00" height="3.00" rx="0.35" ry="0.35"/>
<text class="label" x="20.96" y="46.50">11</text>
<rect class="step" x="18.96" y="52.00" width="4.00" height="3.00" rx="0.35" ry="0.35"/>
<text class="label" x="20.96" y="53.50">12</text>
<rect class="step" x="18.96" y="59.00" width="4.00" height="3.00" rx="0.35" ry="0.35"/>
<text class="label" x="20.96" y="60.50">13</text>
<rect class="step" x="18.96" y="66.00" width="4.00" height="3.00" rx="0.35" ry="0.35"/>
<text class="label" x="20.96" y="67.50">14</text>
<rect class="step" x="18.96" y="73.00" width="4.00" height="3.00" rx="0.35" ry="0.35"/>
<text class="label" x="20.96" y="74.50">15</text>
<rect class="step" x="3.48" y="82.00" width="4.00" height="3.00" rx="0.35" ry="0.35"/>
<text class="label" x="5.48" y="83.50">16</text>
<rect class="step" x="3.48" y="89.00" width="4.00" height="3.00" rx="0.35" ry="0.35"/>
<text class="label" x="5.48" y="90.50">17</text>
<rect class="step" x="3.48" y="96.00" width="4.00" height="3.00" rx="0.35" ry="0.35"/>
<text class="label" x="5.48" y="97.50">18</text>
<rect class="step" x="-12.00" y="107.00" width="4.00" height="3.00" rx="0.35" ry="0.35"/>
<text class="label" x="-10.00" y="108.50">19</text>
<rect class="step" x="3.48" y="107.00" width="4.00" height="3.00" rx="0.35" ry="0.35"/>
<text class="label" x="5.48" y="108.50">20</text>
<rect class="step" x="18.96" y="82.00" width="4.00" height="3.00" rx="0.35" ry="0.35"/>
<text class="label" x="20.96" y="83.50">30</text>
<rect class="step" x="3.48" y="116.00" width="4.00" height="3.00" rx="0.35" ry="0.35"/>
<text class="label" x="5.48" y="117.50">31</text>
<rect class="step" x="3.48" y="123.00" width="4.00" height="3.00" rx="0.35" ry="0.35"/>
<text class="label" x="5.48" y="124.50">32</text>
<rect class="step" x="-12.00" y="132.00" width="4.00" height="3.00" rx="0.35" ry="0.35"/>
<text class="label" x="-10.00" y="133.50">33</text>
<rect class="step" x="3.48" y="132.00" width="4.00" height="3.00" rx="0.35" ry="0.35"/>
<text class="label" x="5.48" y="133.50">40</text>
<rect class="step" x="3.48" y="141.00" width="4.00" height="3.00" rx="0.35" ry="0.35"/>
<text class="label" x="5.48" y="142.50">41</text>
<rect class="step" x="3.48" y="148.00" width="4.00" height="3.00" rx="0.35" ry="0.35"/>
<text class="label" x="5.48" y="149.50">42</text>
<rect class="step" x="3.48" y="155.00" width="4.00" height="3.00" rx="0.35" ry="0.35"/>
<text class="label" x="5.48" y="156.50">43</text>
<rect class="step" x="34.44" y="36.00" width="4.00" height="3.00" rx="0.35" ry="0.35"/>
<text class="label" x="36.44" y="37.50">99</text>
<line class="assoc" x1="38.44" y1="5.50" x2="39.44" y2="5.50"/>
<rect class="action" x="39.44" y="4.07" width="9.48" height="2.86"/>
<text class="action-label" x="44.18" y="5.50"><tspan x="44.18" dy="0">閒置: 等待 回合 boundary</tspan></text>
<line class="assoc" x1="38.44" y1="12.50" x2="39.44" y2="12.50"/>
<rect class="action" x="39.44" y="11.07" width="9.48" height="2.86"/>
<text class="action-label" x="44.18" y="12.09"><tspan x="44.18" dy="0">解析 CapabilityLayer 供 cur</tspan><tspan x="44.18" dy="0.82">rent (SessionID, RebindEpoch)</tspan></text>
<line class="assoc" x1="38.44" y1="19.50" x2="39.44" y2="19.50"/>
<rect class="action" x="39.44" y="18.07" width="9.48" height="2.86"/>
<text class="action-label" x="44.18" y="19.50"><tspan x="44.18" dy="0">Branch 在 快取 + fallback outcome</tspan></text>
<line class="assoc" x1="22.96" y1="28.50" x2="23.96" y2="28.50"/>
<rect class="action" x="23.96" y="27.07" width="9.48" height="2.86"/>
<text class="action-label" x="28.70" y="28.09"><tspan x="28.70" dy="0">Proceed 到 提示assembly 使用</tspan><tspan x="28.70" dy="0.82">已解析 CapabilityLayer 項目</tspan></text>
<line class="assoc" x1="38.44" y1="28.50" x2="39.44" y2="28.50"/>
<rect class="action" x="39.44" y="27.07" width="9.48" height="2.86"/>
<text class="action-label" x="44.18" y="28.09"><tspan x="44.18" dy="0">Throw cross帳號rebind錯誤;</tspan><tspan x="44.18" dy="0.82">surface 到 runloop 與 使用者</tspan></text>
<line class="assoc" x1="53.92" y1="28.50" x2="54.92" y2="28.50"/>
<rect class="action" x="54.92" y="27.07" width="9.48" height="2.86"/>
<text class="action-label" x="59.66" y="28.09"><tspan x="59.66" dy="0">Throw generic capability-laye</tspan><tspan x="59.66" dy="0.82">r 錯誤 (無 fallback 於 all)</tspan></text>
<line class="assoc" x1="22.96" y1="37.50" x2="23.96" y2="37.50"/>
<rect class="action" x="23.96" y="36.07" width="9.48" height="2.86"/>
<text class="action-label" x="28.70" y="36.68"><tspan x="28.70" dy="0">建置 Static System 區</tspan><tspan x="28.70" dy="0.82">塊 (concat L1+L2+L3c+L</tspan><tspan x="28.70" dy="0.82">5+L6+L7+L8); compute hash</tspan></text>
<line class="assoc" x1="22.96" y1="46.50" x2="23.96" y2="46.50"/>
<rect class="action" x="23.96" y="45.07" width="9.48" height="2.86"/>
<text class="action-label" x="28.70" y="46.09"><tspan x="28.70" dy="0">建置 上下文 Preface (T1 s</tspan><tspan x="28.70" dy="0.82">low-first then T2 decay-tier)</tspan></text>
<line class="assoc" x1="22.96" y1="53.50" x2="23.96" y2="53.50"/>
<rect class="action" x="23.96" y="52.07" width="9.48" height="2.86"/>
<text class="action-label" x="28.70" y="53.09"><tspan x="28.70" dy="0">Fan out plugin hooks (chat.system.tr</tspan><tspan x="28.70" dy="0.82">ansform + chat.上下文.transform)</tspan></text>
<line class="assoc" x1="22.96" y1="60.50" x2="23.96" y2="60.50"/>
<rect class="action" x="23.96" y="59.07" width="9.48" height="2.86"/>
<text class="action-label" x="28.70" y="59.68"><tspan x="28.70" dy="0">Place BP1 (system tail), BP2 (T1</tspan><tspan x="28.70" dy="0.82">tail), BP3 (T2 tail), BP4 (final non</tspan><tspan x="28.70" dy="0.82">-system tail); skip BP3 if T2 empty</tspan></text>
<line class="assoc" x1="22.96" y1="67.50" x2="23.96" y2="67.50"/>
<rect class="action" x="23.96" y="66.07" width="9.48" height="2.86"/>
<text class="action-label" x="28.70" y="67.50"><tspan x="28.70" dy="0">Send 到 LLM Provider; 等待 回應</tspan></text>
<line class="assoc" x1="22.96" y1="74.50" x2="23.96" y2="74.50"/>
<rect class="action" x="23.96" y="73.07" width="9.48" height="2.86"/>
<text class="action-label" x="28.70" y="74.09"><tspan x="28.70" dy="0">Branch 在 回應: normal comple</tspan><tspan x="28.70" dy="0.82">tion vs 上下文overflow錯誤</tspan></text>
<line class="assoc" x1="7.48" y1="83.50" x2="8.48" y2="83.50"/>
<rect class="action" x="8.48" y="82.07" width="9.48" height="2.86"/>
<text class="action-label" x="13.22" y="82.68"><tspan x="13.22" dy="0">發出 提示.快取.{system</tspan><tspan x="13.22" dy="0.82">,preface.t1,preface.t2}.{hit</tspan><tspan x="13.22" dy="0.82">,miss} 來自 回應 headers</tspan></text>
<line class="assoc" x1="7.48" y1="90.50" x2="8.48" y2="90.50"/>
<rect class="action" x="8.48" y="89.07" width="9.48" height="2.86"/>
<text class="action-label" x="13.22" y="90.09"><tspan x="13.22" dy="0">更新 lastsystem區塊has</tspan><tspan x="13.22" dy="0.82">hes rolling window (size 3)</tspan></text>
<line class="assoc" x1="7.48" y1="97.50" x2="8.48" y2="97.50"/>
<rect class="action" x="8.48" y="96.07" width="9.48" height="2.86"/>
<text class="action-label" x="13.22" y="97.09"><tspan x="13.22" dy="0">should快取awarecompact diagno</tspan><tspan x="13.22" dy="0.82">stic: branch 在 churn vs growth</tspan></text>
<line class="assoc" x1="-8.00" y1="108.50" x2="-7.00" y2="108.50"/>
<rect class="action" x="-7.00" y="107.07" width="9.48" height="2.86"/>
<text class="action-label" x="-2.26" y="107.68"><tspan x="-2.26" dy="0">發出 壓縮.快取missdi</tspan><tspan x="-2.26" dy="0.82">agnosis {kind:&#x27;system-前</tspan><tspan x="-2.26" dy="0.82">綴-churn&#x27;}; do 不 compact</tspan></text>
<line class="assoc" x1="7.48" y1="108.50" x2="8.48" y2="108.50"/>
<rect class="action" x="8.48" y="107.07" width="9.48" height="2.86"/>
<text class="action-label" x="13.22" y="108.09"><tspan x="13.22" dy="0">Enter 壓縮 pipeline (</tspan><tspan x="13.22" dy="0.82">快取-aware 路徑)</tspan></text>
<line class="assoc" x1="22.96" y1="83.50" x2="23.96" y2="83.50"/>
<rect class="action" x="23.96" y="82.07" width="9.48" height="2.86"/>
<text class="action-label" x="28.70" y="83.09"><tspan x="28.70" dy="0">Enter 壓縮 pipeline (overflow 路</tspan><tspan x="28.70" dy="0.82">徑) 在 上下文overflow錯誤</tspan></text>
<line class="assoc" x1="7.48" y1="117.50" x2="8.48" y2="117.50"/>
<rect class="action" x="8.48" y="116.07" width="9.48" height="2.86"/>
<text class="action-label" x="13.22" y="117.09"><tspan x="13.22" dy="0">閒置 gate: 掃描 last 2 mes</tspan><tspan x="13.22" dy="0.82">sages 供 unmatched 工具use</tspan></text>
<line class="assoc" x1="7.48" y1="124.50" x2="8.48" y2="124.50"/>
<rect class="action" x="8.48" y="123.07" width="9.48" height="2.86"/>
<text class="action-label" x="13.22" y="124.50"><tspan x="13.22" dy="0">Branch 在 cleanliness</tspan></text>
<line class="assoc" x1="-8.00" y1="133.50" x2="-7.00" y2="133.50"/>
<rect class="action" x="-7.00" y="132.07" width="9.48" height="2.86"/>
<text class="action-label" x="-2.26" y="133.09"><tspan x="-2.26" dy="0">發出 壓縮.閒置.defer</tspan><tspan x="-2.26" dy="0.82">red {reason:&#x27;unclean-tail&#x27;}</tspan></text>
<line class="assoc" x1="7.48" y1="133.50" x2="8.48" y2="133.50"/>
<rect class="action" x="8.48" y="132.07" width="9.48" height="2.86"/>
<text class="action-label" x="13.22" y="132.68"><tspan x="13.22" dy="0">執行 kindChain (narrative</tspan><tspan x="13.22" dy="0.82">→ replay-tail → low-cos</tspan><tspan x="13.22" dy="0.82">t-伺服器 → LLM-agent)</tspan></text>
<line class="assoc" x1="7.48" y1="142.50" x2="8.48" y2="142.50"/>
<rect class="action" x="8.48" y="141.07" width="9.48" height="2.86"/>
<text class="action-label" x="13.22" y="141.68"><tspan x="13.22" dy="0">掃描 compacted span 供 技能 na</tspan><tspan x="13.22" dy="0.82">me references; 釘選供anchor ma</tspan><tspan x="13.22" dy="0.82">tched 技能; 建置 技能snapshot</tspan></text>
<line class="assoc" x1="7.48" y1="149.50" x2="8.48" y2="149.50"/>
<rect class="action" x="8.48" y="148.07" width="9.48" height="2.86"/>
<text class="action-label" x="13.22" y="148.68"><tspan x="13.22" dy="0">Sanitize anchor body: wrap &lt;pri</tspan><tspan x="13.22" dy="0.82">or上下文 來源=&quot;{kind}&quot;&gt; +</tspan><tspan x="13.22" dy="0.82">soften imperative-leading lines</tspan></text>
<line class="assoc" x1="7.48" y1="156.50" x2="8.48" y2="156.50"/>
<rect class="action" x="8.48" y="155.07" width="9.48" height="2.86"/>
<text class="action-label" x="13.22" y="155.68"><tspan x="13.22" dy="0">追加 anchor 訊息 到 訊息-串流</tspan><tspan x="13.22" dy="0.82">(summary=true, metadata.技能sna</tspan><tspan x="13.22" dy="0.82">pshot, metadata.已釘選由anchor)</tspan></text>
<line class="assoc" x1="38.44" y1="37.50" x2="39.44" y2="37.50"/>
<rect class="action" x="39.44" y="36.07" width="9.48" height="2.86"/>
<text class="action-label" x="44.18" y="37.09"><tspan x="44.18" dy="0">Surface 錯誤 到 runloop</tspan><tspan x="44.18" dy="0.82">/ 使用者; 等待 重試</tspan></text>
<line class="gate" x1="35.44" y1="9.00" x2="37.44" y2="9.00"/>
<text class="gate-label" x="37.84" y="9.00"><tspan x="37.84" dy="0">使用者回合arrived</tspan></text>
<line class="gate" x1="35.44" y1="16.00" x2="37.44" y2="16.00"/>
<text class="gate-label" x="37.84" y="16.00"><tspan x="37.84" dy="0">capabilitylookupdone</tspan></text>
<line class="gate" x1="17.46" y1="23.00" x2="55.42" y2="23.00"/>
<line class="gate" x1="19.96" y1="32.00" x2="21.96" y2="32.00"/>
<text class="gate-label" x="22.36" y="32.00"><tspan x="22.36" dy="0">capabilitylayer就緒</tspan></text>
<line class="gate" x1="34.44" y1="34.00" x2="53.92" y2="34.00"/>
<line class="gate" x1="19.96" y1="41.00" x2="21.96" y2="41.00"/>
<text class="gate-label" x="22.36" y="41.00"><tspan x="22.36" dy="0">static區塊built</tspan></text>
<line class="gate" x1="19.96" y1="50.00" x2="21.96" y2="50.00"/>
<text class="gate-label" x="22.36" y="50.00"><tspan x="22.36" dy="0">prefacebuilt</tspan></text>
<line class="gate" x1="19.96" y1="57.00" x2="21.96" y2="57.00"/>
<text class="gate-label" x="22.36" y="57.00"><tspan x="22.36" dy="0">hookssettled</tspan></text>
<line class="gate" x1="19.96" y1="64.00" x2="21.96" y2="64.00"/>
<text class="gate-label" x="22.36" y="64.00"><tspan x="22.36" dy="0">breakpointsplaced</tspan></text>
<line class="gate" x1="19.96" y1="71.00" x2="21.96" y2="71.00"/>
<text class="gate-label" x="22.36" y="71.00"><tspan x="22.36" dy="0">回應已收到</tspan></text>
<line class="gate" x1="3.48" y1="78.00" x2="22.96" y2="78.00"/>
<line class="gate" x1="4.48" y1="87.00" x2="6.48" y2="87.00"/>
<text class="gate-label" x="6.88" y="87.00"><tspan x="6.88" dy="0">telemetryemitted</tspan></text>
<line class="gate" x1="4.48" y1="94.00" x2="6.48" y2="94.00"/>
<text class="gate-label" x="6.88" y="94.00"><tspan x="6.88" dy="0">rollingwindowupdated</tspan></text>
<line class="gate" x1="-13.50" y1="101.00" x2="8.98" y2="101.00"/>
<line class="gate" x1="-11.00" y1="112.00" x2="-9.00" y2="112.00"/>
<text class="gate-label" x="-8.60" y="112.00"><tspan x="-8.60" dy="0">返回到閒置</tspan></text>
<line class="gate" x1="3.48" y1="114.00" x2="22.96" y2="114.00"/>
<line class="gate" x1="4.48" y1="121.00" x2="6.48" y2="121.00"/>
<text class="gate-label" x="6.88" y="121.00"><tspan x="6.88" dy="0">掃描完成</tspan></text>
<line class="gate" x1="-12.00" y1="128.00" x2="7.48" y2="128.00"/>
<line class="gate" x1="-11.00" y1="137.00" x2="-9.00" y2="137.00"/>
<text class="gate-label" x="-8.60" y="137.00"><tspan x="-8.60" dy="0">返回到閒置</tspan></text>
<line class="gate" x1="4.48" y1="137.00" x2="6.48" y2="137.00"/>
<text class="gate-label" x="6.88" y="137.00"><tspan x="6.88" dy="0">kindchainproducedsummary</tspan></text>
<line class="gate" x1="4.48" y1="146.00" x2="6.48" y2="146.00"/>
<text class="gate-label" x="6.88" y="146.00"><tspan x="6.88" dy="0">技能bindingdone</tspan></text>
<line class="gate" x1="4.48" y1="153.00" x2="6.48" y2="153.00"/>
<text class="gate-label" x="6.88" y="153.00"><tspan x="6.88" dy="0">anchorbodysanitized</tspan></text>
<line class="gate" x1="4.48" y1="160.00" x2="6.48" y2="160.00"/>
<text class="gate-label" x="6.88" y="160.00"><tspan x="6.88" dy="0">anchorpersisted</tspan></text>
<line class="gate" x1="35.44" y1="41.00" x2="37.44" y2="41.00"/>
<text class="gate-label" x="37.84" y="41.00"><tspan x="37.84" dy="0">使用者initiated重試</tspan></text>
<line class="gate" x1="19.96" y1="25.00" x2="21.96" y2="25.00"/>
<text class="gate-label-left" x="19.56" y="25.00"><tspan x="19.56" dy="0">快取hit OR same帳號fallbackok</tspan></text>
<line class="gate" x1="35.44" y1="25.00" x2="37.44" y2="25.00"/>
<text class="gate-label" x="37.84" y="25.00"><tspan x="37.84" dy="0">cross帳號fallbackattempted</tspan></text>
<line class="gate" x1="50.92" y1="25.00" x2="52.92" y2="25.00"/>
<text class="gate-label" x="53.32" y="25.00"><tspan x="53.32" dy="0">無fallbackavailable</tspan></text>
<line class="gate" x1="35.44" y1="32.00" x2="37.44" y2="32.00"/>
<text class="gate-label-left" x="35.04" y="32.00"><tspan x="35.04" dy="0">錯誤propagated</tspan></text>
<line class="gate" x1="50.92" y1="32.00" x2="52.92" y2="32.00"/>
<text class="gate-label" x="53.32" y="32.00"><tspan x="53.32" dy="0">錯誤propagated</tspan></text>
<line class="gate" x1="4.48" y1="80.00" x2="6.48" y2="80.00"/>
<text class="gate-label-left" x="4.08" y="80.00"><tspan x="4.08" dy="0">回應ok</tspan></text>
<line class="gate" x1="19.96" y1="80.00" x2="21.96" y2="80.00"/>
<text class="gate-label" x="22.36" y="80.00"><tspan x="22.36" dy="0">上下文overflowthrown</tspan></text>
<line class="gate" x1="-11.00" y1="103.00" x2="-9.00" y2="103.00"/>
<text class="gate-label-left" x="-12.80" y="102.32"><tspan x="-12.80" dy="0">kind = system</tspan><tspan x="-12.80" dy="0.68">-前綴-churn</tspan><tspan x="-12.80" dy="0.68">(skip 壓縮)</tspan></text>
<line class="gate" x1="4.48" y1="103.00" x2="6.48" y2="103.00"/>
<text class="gate-label" x="6.88" y="103.00"><tspan x="6.88" dy="0">kind = conversation-growth AND tail &gt; 40K</tspan></text>
<line class="gate" x1="-13.50" y1="103.00" x2="-11.50" y2="103.00"/>
<text class="gate-label-left" x="-18.10" y="102.32"><tspan x="-18.10" dy="0">kind</tspan><tspan x="-18.10" dy="0.68">= nei</tspan><tspan x="-18.10" dy="0.68">ther</tspan></text>
<line class="gate" x1="4.48" y1="112.00" x2="6.48" y2="112.00"/>
<text class="gate-label-left" x="4.08" y="112.00"><tspan x="4.08" dy="0">壓縮項目</tspan></text>
<line class="gate" x1="19.96" y1="112.00" x2="21.96" y2="112.00"/>
<text class="gate-label" x="22.36" y="112.00"><tspan x="22.36" dy="0">壓縮項目</tspan></text>
<line class="gate" x1="-11.00" y1="130.00" x2="-9.00" y2="130.00"/>
<text class="gate-label-left" x="-11.40" y="129.32"><tspan x="-11.40" dy="0">tailclean (a</tspan><tspan x="-11.40" dy="0.68">ll 工具use</tspan><tspan x="-11.40" dy="0.68">matched)</tspan></text>
<line class="gate" x1="4.48" y1="130.00" x2="6.48" y2="130.00"/>
<text class="gate-label" x="6.88" y="130.00"><tspan x="6.88" dy="0">tailunclean (dangling 工具use)</tspan></text>
<circle class="junction" cx="-17.50" cy="105.00" r="0.22"/>
<circle class="junction" cx="-17.50" cy="43.00" r="0.22"/>
<circle class="junction" cx="-17.50" cy="114.00" r="0.22"/>
<circle class="junction" cx="-17.50" cy="139.00" r="0.22"/>
</svg>