<svg xmlns="http://www.w3.org/2000/svg" width="850" height="2260" viewBox="-11.50 -2.00 42.50 113.00" role="img">
<style>
.step{fill:#fff;stroke:#111;stroke-width:.14}.step-inner{fill:none;stroke:#111;stroke-width:.08}
.action{fill:#fff;stroke:#111;stroke-width:.14}.gate{stroke:#111;stroke-width:.16}
.edge{fill:none;stroke:#111;stroke-width:.05;stroke-linecap:round;stroke-linejoin:round}.edge-arrow{marker-end:url(#arrow)}
.flyover-mask{stroke:#fff;stroke-width:.12;stroke-linecap:round}
.flyover{fill:none;stroke:#111;stroke-width:.05;stroke-linecap:round}
.junction{fill:#111;stroke:#111;stroke-width:0}.branch-junction{fill:#fff;stroke:#111;stroke-width:.08}
.assoc{stroke:#111;stroke-width:.05}.label{font:bold .7px 'Times New Roman', 'BiauKai', 'DFKai-SB', serif;text-anchor:middle;dominant-baseline:middle}
.action-label{font:.55px 'Times New Roman', 'BiauKai', 'DFKai-SB', serif;text-anchor:middle;dominant-baseline:middle}.gate-label{font:italic .55px 'Times New Roman', 'BiauKai', 'DFKai-SB', serif;text-anchor:start;dominant-baseline:middle}.gate-label-left{font:italic .55px 'Times New Roman', 'BiauKai', 'DFKai-SB', serif;text-anchor:end;dominant-baseline:middle}
.debug-gap-band{fill:#fff3bf;stroke:#f59f00;stroke-width:.04;opacity:.22}.debug-gap-area{fill:#74c0fc;stroke:#1971c2;stroke-width:.05;opacity:.24}.debug-gap-line{stroke:#e67700;stroke-width:.05;stroke-dasharray:.4 .25}.debug-gap-label{font:bold .55px 'Times New Roman', 'BiauKai', 'DFKai-SB', serif;fill:#0b7285;text-anchor:start;dominant-baseline:hanging}.debug-gap-label-right{text-anchor:end}.debug-gap-item-label{font:bold .46px 'Times New Roman', 'BiauKai', 'DFKai-SB', serif;fill:#1864ab;text-anchor:start;dominant-baseline:hanging}
</style>
<defs><marker id="arrow" markerWidth="0.4" markerHeight="0.4" refX="0.36" refY="0.2" orient="auto" markerUnits="userSpaceOnUse"><path d="M 0 0 L 0.4 0.2 L 0 0.4 z" fill="#111"/></marker></defs>
<rect x="-11.50" y="-2.00" width="42.50" height="113.00" fill="white"/>
<rect class="debug-gap-band" x="-11.00" y="7.00" width="41.50" height="4.00" data-gap-id="gap:0"/>
<line class="debug-gap-line" x1="-11.00" y1="7.00" x2="30.50" y2="7.00"/>
<line class="debug-gap-line" x1="-11.00" y1="11.00" x2="30.50" y2="11.00"/>
<rect class="debug-gap-area" x="-11.00" y="7.00" width="41.50" height="4.00" data-gap-id="gap:0:area:0"/>
<text class="debug-gap-label debug-gap-label-right" x="30.15" y="7.45" data-gap-id="gap:0:area:0"><tspan x="30.15" dy="0">gap 0 total 4.0U</tspan><tspan x="30.15" dy="0.62">0.0 box_to_box 4.0U lanes=1</tspan></text>
<text class="debug-gap-item-label" x="20.35" y="8.08" data-gap-id="gap:0:area:0">transition:T1 G0</text>
<rect class="debug-gap-band" x="-11.00" y="14.00" width="41.50" height="6.00" data-gap-id="gap:1"/>
<line class="debug-gap-line" x1="-11.00" y1="14.00" x2="30.50" y2="14.00"/>
<line class="debug-gap-line" x1="-11.00" y1="20.00" x2="30.50" y2="20.00"/>
<rect class="debug-gap-area" x="-11.00" y="14.00" width="41.50" height="6.00" data-gap-id="gap:1:area:0"/>
<text class="debug-gap-label debug-gap-label-right" x="30.15" y="14.45" data-gap-id="gap:1:area:0"><tspan x="30.15" dy="0">gap 1 total 6.0U</tspan><tspan x="30.15" dy="0.62">1.0 box_to_box 6.0U lanes=2</tspan></text>
<text class="debug-gap-item-label" x="15.35" y="15.08" data-gap-id="gap:1:area:0">diverge:1 G0</text>
<text class="debug-gap-item-label" x="10.35" y="17.08" data-gap-id="gap:1:area:0">T3 G1</text>
<text class="debug-gap-item-label" x="20.35" y="17.08" data-gap-id="gap:1:area:0">T2 G2</text>
<rect class="debug-gap-band" x="-11.00" y="23.00" width="41.50" height="6.00" data-gap-id="gap:2"/>
<line class="debug-gap-line" x1="-11.00" y1="23.00" x2="30.50" y2="23.00"/>
<line class="debug-gap-line" x1="-11.00" y1="29.00" x2="30.50" y2="29.00"/>
<rect class="debug-gap-area" x="-11.00" y="23.00" width="41.50" height="6.00" data-gap-id="gap:2:area:0"/>
<text class="debug-gap-label debug-gap-label-right" x="30.15" y="23.45" data-gap-id="gap:2:area:0"><tspan x="30.15" dy="0">gap 2 total 6.0U</tspan><tspan x="30.15" dy="0.62">2.0 box_to_box 6.0U lanes=2</tspan></text>
<text class="debug-gap-item-label" x="5.35" y="24.08" data-gap-id="gap:2:area:0">diverge:3 G0</text>
<text class="debug-gap-item-label" x="0.35" y="26.08" data-gap-id="gap:2:area:0">T5 G1</text>
<text class="debug-gap-item-label" x="10.35" y="26.08" data-gap-id="gap:2:area:0">T6 G2</text>
<rect class="debug-gap-band" x="-11.00" y="32.00" width="41.50" height="6.00" data-gap-id="gap:3"/>
<line class="debug-gap-line" x1="-11.00" y1="32.00" x2="30.50" y2="32.00"/>
<line class="debug-gap-line" x1="-11.00" y1="38.00" x2="30.50" y2="38.00"/>
<rect class="debug-gap-area" x="-11.00" y="32.00" width="41.50" height="6.00" data-gap-id="gap:3:area:0"/>
<text class="debug-gap-label debug-gap-label-right" x="30.15" y="32.45" data-gap-id="gap:3:area:0"><tspan x="30.15" dy="0">gap 3 total 6.0U</tspan><tspan x="30.15" dy="0.62">3.0 box_to_box 6.0U lanes=2</tspan></text>
<text class="debug-gap-item-label" x="20.35" y="33.08" data-gap-id="gap:3:area:0">T4 G0</text>
<text class="debug-gap-item-label" x="0.35" y="33.08" data-gap-id="gap:3:area:0">T7 G1</text>
<text class="debug-gap-item-label" x="10.35" y="33.08" data-gap-id="gap:3:area:0">T8 G2</text>
<text class="debug-gap-item-label" x="10.35" y="35.08" data-gap-id="gap:3:area:0">converge:6 G3</text>
<rect class="debug-gap-band" x="-11.00" y="41.00" width="41.50" height="4.00" data-gap-id="gap:4"/>
<line class="debug-gap-line" x1="-11.00" y1="41.00" x2="30.50" y2="41.00"/>
<line class="debug-gap-line" x1="-11.00" y1="45.00" x2="30.50" y2="45.00"/>
<rect class="debug-gap-area" x="-11.00" y="41.00" width="41.50" height="4.00" data-gap-id="gap:4:area:0"/>
<text class="debug-gap-label debug-gap-label-right" x="30.15" y="41.45" data-gap-id="gap:4:area:0"><tspan x="30.15" dy="0">gap 4 total 4.0U</tspan><tspan x="30.15" dy="0.62">4.0 box_to_box 4.0U lanes=1</tspan></text>
<text class="debug-gap-item-label" x="10.35" y="42.08" data-gap-id="gap:4:area:0">transition:T9 G0</text>
<rect class="debug-gap-band" x="-11.00" y="48.00" width="41.50" height="4.00" data-gap-id="gap:5"/>
<line class="debug-gap-line" x1="-11.00" y1="48.00" x2="30.50" y2="48.00"/>
<line class="debug-gap-line" x1="-11.00" y1="52.00" x2="30.50" y2="52.00"/>
<rect class="debug-gap-area" x="-11.00" y="48.00" width="41.50" height="4.00" data-gap-id="gap:5:area:0"/>
<text class="debug-gap-label debug-gap-label-right" x="30.15" y="48.45" data-gap-id="gap:5:area:0"><tspan x="30.15" dy="0">gap 5 total 4.0U</tspan><tspan x="30.15" dy="0.62">5.0 box_to_box 4.0U lanes=1</tspan></text>
<text class="debug-gap-item-label" x="10.35" y="49.08" data-gap-id="gap:5:area:0">transition:T10 G0</text>
<rect class="debug-gap-band" x="-11.00" y="55.00" width="41.50" height="4.00" data-gap-id="gap:6"/>
<line class="debug-gap-line" x1="-11.00" y1="55.00" x2="30.50" y2="55.00"/>
<line class="debug-gap-line" x1="-11.00" y1="59.00" x2="30.50" y2="59.00"/>
<rect class="debug-gap-area" x="-11.00" y="55.00" width="41.50" height="4.00" data-gap-id="gap:6:area:0"/>
<text class="debug-gap-label debug-gap-label-right" x="30.15" y="55.45" data-gap-id="gap:6:area:0"><tspan x="30.15" dy="0">gap 6 total 4.0U</tspan><tspan x="30.15" dy="0.62">6.0 box_to_box 4.0U lanes=1</tspan></text>
<text class="debug-gap-item-label" x="10.35" y="56.08" data-gap-id="gap:6:area:0">transition:T11 G0</text>
<rect class="debug-gap-band" x="-11.00" y="62.00" width="41.50" height="6.00" data-gap-id="gap:7"/>
<line class="debug-gap-line" x1="-11.00" y1="62.00" x2="30.50" y2="62.00"/>
<line class="debug-gap-line" x1="-11.00" y1="68.00" x2="30.50" y2="68.00"/>
<rect class="debug-gap-area" x="-11.00" y="62.00" width="41.50" height="6.00" data-gap-id="gap:7:area:0"/>
<text class="debug-gap-label debug-gap-label-right" x="30.15" y="62.45" data-gap-id="gap:7:area:0"><tspan x="30.15" dy="0">gap 7 total 6.0U</tspan><tspan x="30.15" dy="0.62">7.0 box_to_box 6.0U lanes=2</tspan></text>
<text class="debug-gap-item-label" x="10.35" y="63.58" data-gap-id="gap:7:area:0">9 G0</text>
<text class="debug-gap-item-label" x="14.85" y="63.58" data-gap-id="gap:7:area:0">R84 G0</text>
<text class="debug-gap-item-label" x="10.35" y="65.08" data-gap-id="gap:7:area:0">transition:T12 G1</text>
<rect class="debug-gap-band" x="-11.00" y="71.00" width="41.50" height="4.00" data-gap-id="gap:8"/>
<line class="debug-gap-line" x1="-11.00" y1="71.00" x2="30.50" y2="71.00"/>
<line class="debug-gap-line" x1="-11.00" y1="75.00" x2="30.50" y2="75.00"/>
<rect class="debug-gap-area" x="-11.00" y="71.00" width="41.50" height="4.00" data-gap-id="gap:8:area:0"/>
<text class="debug-gap-label debug-gap-label-right" x="30.15" y="71.45" data-gap-id="gap:8:area:0"><tspan x="30.15" dy="0">gap 8 total 4.0U</tspan><tspan x="30.15" dy="0.62">8.0 box_to_box 4.0U lanes=1</tspan></text>
<text class="debug-gap-item-label" x="10.35" y="72.08" data-gap-id="gap:8:area:0">transition:T14 G0</text>
<rect class="debug-gap-band" x="-11.00" y="78.00" width="41.50" height="4.00" data-gap-id="gap:9"/>
<line class="debug-gap-line" x1="-11.00" y1="78.00" x2="30.50" y2="78.00"/>
<line class="debug-gap-line" x1="-11.00" y1="82.00" x2="30.50" y2="82.00"/>
<rect class="debug-gap-area" x="-11.00" y="78.00" width="41.50" height="4.00" data-gap-id="gap:9:area:0"/>
<text class="debug-gap-label debug-gap-label-right" x="30.15" y="78.45" data-gap-id="gap:9:area:0"><tspan x="30.15" dy="0">gap 9 total 4.0U</tspan><tspan x="30.15" dy="0.62">9.0 box_to_box 4.0U lanes=1</tspan></text>
<text class="debug-gap-item-label" x="10.35" y="79.08" data-gap-id="gap:9:area:0">transition:T15 G0</text>
<rect class="debug-gap-band" x="-11.00" y="85.00" width="41.50" height="8.00" data-gap-id="gap:10"/>
<line class="debug-gap-line" x1="-11.00" y1="85.00" x2="30.50" y2="85.00"/>
<line class="debug-gap-line" x1="-11.00" y1="93.00" x2="30.50" y2="93.00"/>
<rect class="debug-gap-area" x="-11.00" y="85.00" width="41.50" height="8.00" data-gap-id="gap:10:area:0"/>
<text class="debug-gap-label debug-gap-label-right" x="30.15" y="85.45" data-gap-id="gap:10:area:0"><tspan x="30.15" dy="0">gap 10 total 8.0U</tspan><tspan x="30.15" dy="0.62">10.0 box_to_box 8.0U lanes=3</tspan></text>
<text class="debug-gap-item-label" x="16.85" y="86.58" data-gap-id="gap:10:area:0">R116 G0</text>
<text class="debug-gap-item-label" x="10.35" y="86.08" data-gap-id="gap:10:area:0">T16 G1</text>
<text class="debug-gap-item-label" x="14.35" y="88.08" data-gap-id="gap:10:area:0">T13 G2</text>
<text class="debug-gap-item-label" x="10.65" y="90.08" data-gap-id="gap:10:area:0">converge:13 G3</text>
<rect class="debug-gap-band" x="-11.00" y="96.00" width="41.50" height="4.00" data-gap-id="gap:11"/>
<line class="debug-gap-line" x1="-11.00" y1="96.00" x2="30.50" y2="96.00"/>
<line class="debug-gap-line" x1="-11.00" y1="100.00" x2="30.50" y2="100.00"/>
<rect class="debug-gap-area" x="-11.00" y="96.00" width="41.50" height="4.00" data-gap-id="gap:11:area:0"/>
<text class="debug-gap-label debug-gap-label-right" x="30.15" y="96.45" data-gap-id="gap:11:area:0"><tspan x="30.15" dy="0">gap 11 total 4.0U</tspan><tspan x="30.15" dy="0.62">11.0 box_to_box 4.0U lanes=1</tspan></text>
<text class="debug-gap-item-label" x="10.35" y="97.08" data-gap-id="gap:11:area:0">transition:T17 G0</text>
<path class="edge" d="M 20.00 7.00 L 20.00 9.00"/>
<path class="edge edge-arrow" d="M 20.00 9.00 L 20.00 11.00"/>
<path class="edge edge-arrow" d="M 20.00 14.00 L 20.00 16.00"/>
<path class="edge edge-arrow" d="M 20.00 16.00 L 20.00 20.00"/>
<path class="edge edge-arrow" d="M 10.00 16.00 L 10.00 20.00"/>
<path class="edge edge-arrow" d="M 20.00 23.00 L 20.00 36.00"/>
<path class="edge edge-arrow" d="M 10.00 36.00 L 10.00 38.00"/>
<path class="edge edge-arrow" d="M 10.00 23.00 L 10.00 25.00"/>
<path class="edge edge-arrow" d="M 0.00 25.00 L 0.00 29.00"/>
<path class="edge edge-arrow" d="M 10.00 25.00 L 10.00 29.00"/>
<path class="edge edge-arrow" d="M 0.00 32.00 L 0.00 36.00"/>
<path class="edge edge-arrow" d="M 10.00 32.00 L 10.00 36.00"/>
<path class="edge" d="M 10.00 41.00 L 10.00 43.00"/>
<path class="edge edge-arrow" d="M 10.00 43.00 L 10.00 45.00"/>
<path class="edge" d="M 10.00 48.00 L 10.00 50.00"/>
<path class="edge edge-arrow" d="M 10.00 50.00 L 10.00 52.00"/>
<path class="edge" d="M 10.00 55.00 L 10.00 57.00"/>
<path class="edge edge-arrow" d="M 10.00 57.00 L 10.00 59.00"/>
<path class="edge" d="M 10.00 62.00 L 10.00 64.00"/>
<path class="edge" d="M 10.00 64.00 L 10.00 66.00"/>
<path class="edge edge-arrow" d="M 10.00 66.00 L 10.00 68.00"/>
<path class="edge edge-arrow" d="M 10.00 64.00 L 18.50 64.00 Q 19.00 64.00 19.00 64.50 L 19.00 86.50 Q 19.00 87.00 18.50 87.00 L 14.50 87.00 Q 14.00 87.00 14.00 87.50 L 14.00 91.00"/>
<path class="edge edge-arrow" d="M 10.00 91.00 L 10.00 93.00"/>
<path class="edge" d="M 10.00 71.00 L 10.00 73.00"/>
<path class="edge edge-arrow" d="M 10.00 73.00 L 10.00 75.00"/>
<path class="edge" d="M 10.00 78.00 L 10.00 80.00"/>
<path class="edge edge-arrow" d="M 10.00 80.00 L 10.00 82.00"/>
<path class="edge edge-arrow" d="M 10.00 85.00 L 10.00 91.00"/>
<path class="edge" d="M 10.00 96.00 L 10.00 98.00"/>
<path class="edge edge-arrow" d="M 10.00 98.00 L 10.00 100.00"/>
<path class="edge" d="M 10.00 103.00 L 10.00 105.00"/>
<path class="edge edge-arrow" d="M 10.00 105.00 L 10.00 106.50 Q 10.00 107.00 9.50 107.00 L -7.00 107.00 Q -7.50 107.00 -7.50 106.50 L -7.50 2.50 Q -7.50 2.00 -7.00 2.00 L 19.50 2.00 Q 20.00 2.00 20.00 2.50 L 20.00 4.00"/>
<rect class="step" x="18.00" y="4.00" width="4.00" height="3.00" rx="0.35" ry="0.35"/>
<rect class="step-inner" x="18.25" y="4.25" width="3.50" height="2.50" rx="0.22" ry="0.22"/>
<text class="label" x="20.00" y="5.50">0</text>
<rect class="step" x="18.00" y="11.00" width="4.00" height="3.00" rx="0.35" ry="0.35"/>
<text class="label" x="20.00" y="12.50">1</text>
<rect class="step" x="18.00" y="20.00" width="4.00" height="3.00" rx="0.35" ry="0.35"/>
<text class="label" x="20.00" y="21.50">2</text>
<rect class="step" x="8.00" y="20.00" width="4.00" height="3.00" rx="0.35" ry="0.35"/>
<text class="label" x="10.00" y="21.50">3</text>
<rect class="step" x="-2.00" y="29.00" width="4.00" height="3.00" rx="0.35" ry="0.35"/>
<text class="label" x="0.00" y="30.50">4</text>
<rect class="step" x="8.00" y="29.00" width="4.00" height="3.00" rx="0.35" ry="0.35"/>
<text class="label" x="10.00" y="30.50">5</text>
<rect class="step" x="8.00" y="38.00" width="4.00" height="3.00" rx="0.35" ry="0.35"/>
<text class="label" x="10.00" y="39.50">6</text>
<rect class="step" x="8.00" y="45.00" width="4.00" height="3.00" rx="0.35" ry="0.35"/>
<text class="label" x="10.00" y="46.50">7</text>
<rect class="step" x="8.00" y="52.00" width="4.00" height="3.00" rx="0.35" ry="0.35"/>
<text class="label" x="10.00" y="53.50">8</text>
<rect class="step" x="8.00" y="59.00" width="4.00" height="3.00" rx="0.35" ry="0.35"/>
<text class="label" x="10.00" y="60.50">9</text>
<rect class="step" x="8.00" y="68.00" width="4.00" height="3.00" rx="0.35" ry="0.35"/>
<text class="label" x="10.00" y="69.50">10</text>
<rect class="step" x="8.00" y="75.00" width="4.00" height="3.00" rx="0.35" ry="0.35"/>
<text class="label" x="10.00" y="76.50">11</text>
<rect class="step" x="8.00" y="82.00" width="4.00" height="3.00" rx="0.35" ry="0.35"/>
<text class="label" x="10.00" y="83.50">12</text>
<rect class="step" x="8.00" y="93.00" width="4.00" height="3.00" rx="0.35" ry="0.35"/>
<text class="label" x="10.00" y="94.50">13</text>
<rect class="step" x="8.00" y="100.00" width="4.00" height="3.00" rx="0.35" ry="0.35"/>
<text class="label" x="10.00" y="101.50">14</text>
<line class="assoc" x1="22.00" y1="5.50" x2="23.00" y2="5.50"/>
<rect class="action" x="23.00" y="4.07" width="4.00" height="2.86"/>
<text class="action-label" x="25.00" y="5.09"><tspan x="25.00" dy="0">閒置awai</tspan><tspan x="25.00" dy="0.82">ting上傳</tspan></text>
<line class="assoc" x1="22.00" y1="12.50" x2="23.00" y2="12.50"/>
<rect class="action" x="23.00" y="11.07" width="4.00" height="2.86"/>
<text class="action-label" x="25.00" y="11.68"><tspan x="25.00" dy="0">解析mult</tspan><tspan x="25.00" dy="0.82">ipart與de</tspan><tspan x="25.00" dy="0.82">tectmime</tspan></text>
<line class="assoc" x1="22.00" y1="21.50" x2="23.00" y2="21.50"/>
<rect class="action" x="23.00" y="20.07" width="4.00" height="2.86"/>
<text class="action-label" x="25.00" y="20.68"><tspan x="25.00" dy="0">writeima</tspan><tspan x="25.00" dy="0.82">ge到Se</tspan><tspan x="25.00" dy="0.82">ssionxdg</tspan></text>
<line class="assoc" x1="12.00" y1="21.50" x2="13.00" y2="21.50"/>
<rect class="action" x="13.00" y="20.07" width="4.00" height="2.86"/>
<text class="action-label" x="15.00" y="20.68"><tspan x="15.00" dy="0">sanitize</tspan><tspan x="15.00" dy="0.82">與land在</tspan><tspan x="15.00" dy="0.82">incoming</tspan></text>
<line class="assoc" x1="2.00" y1="30.50" x2="3.00" y2="30.50"/>
<rect class="action" x="3.00" y="29.07" width="4.00" height="2.86"/>
<text class="action-label" x="5.00" y="30.09"><tspan x="5.00" dy="0">執行docxau</tspan><tspan x="5.00" dy="0.82">todecompose</tspan></text>
<line class="assoc" x1="12.00" y1="30.50" x2="13.00" y2="30.50"/>
<rect class="action" x="13.00" y="29.07" width="4.00" height="2.86"/>
<text class="action-label" x="15.00" y="29.68"><tspan x="15.00" dy="0">writeincomi</tspan><tspan x="15.00" dy="0.82">ng檔案與</tspan><tspan x="15.00" dy="0.82">追加history</tspan></text>
<line class="assoc" x1="12.00" y1="39.50" x2="13.00" y2="39.50"/>
<rect class="action" x="13.00" y="38.07" width="4.00" height="2.86"/>
<text class="action-label" x="15.00" y="39.09"><tspan x="15.00" dy="0">發出附</tspan><tspan x="15.00" dy="0.82">件refpart</tspan></text>
<line class="assoc" x1="12.00" y1="46.50" x2="13.00" y2="46.50"/>
<rect class="action" x="13.00" y="45.07" width="4.00" height="2.86"/>
<text class="action-label" x="15.00" y="45.68"><tspan x="15.00" dy="0">建置attach</tspan><tspan x="15.00" dy="0.82">edimagesinve</tspan><tspan x="15.00" dy="0.82">ntory區塊</tspan></text>
<line class="assoc" x1="12.00" y1="53.50" x2="13.00" y2="53.50"/>
<rect class="action" x="13.00" y="52.07" width="4.00" height="2.86"/>
<text class="action-label" x="15.00" y="52.68"><tspan x="15.00" dy="0">組裝pre</tspan><tspan x="15.00" dy="0.82">facetraili</tspan><tspan x="15.00" dy="0.82">ngextras</tspan></text>
<line class="assoc" x1="12.00" y1="60.50" x2="13.00" y2="60.50"/>
<rect class="action" x="13.00" y="59.07" width="4.00" height="2.86"/>
<text class="action-label" x="15.00" y="60.09"><tspan x="15.00" dy="0">等待ai</tspan><tspan x="15.00" dy="0.82">decision</tspan></text>
<line class="assoc" x1="12.00" y1="69.50" x2="13.00" y2="69.50"/>
<rect class="action" x="13.00" y="68.07" width="4.00" height="2.86"/>
<text class="action-label" x="15.00" y="68.68"><tspan x="15.00" dy="0">voucherfilen</tspan><tspan x="15.00" dy="0.82">ame透過re</tspan><tspan x="15.00" dy="0.82">read工具</tspan></text>
<line class="assoc" x1="12.00" y1="76.50" x2="13.00" y2="76.50"/>
<rect class="action" x="13.00" y="75.07" width="4.00" height="2.86"/>
<text class="action-label" x="15.00" y="75.68"><tspan x="15.00" dy="0">追加active</tspan><tspan x="15.00" dy="0.82">imagerefs使</tspan><tspan x="15.00" dy="0.82">用fifocap</tspan></text>
<line class="assoc" x1="12.00" y1="83.50" x2="13.00" y2="83.50"/>
<rect class="action" x="13.00" y="82.07" width="4.00" height="2.86"/>
<text class="action-label" x="15.00" y="82.68"><tspan x="15.00" dy="0">load位元組</tspan><tspan x="15.00" dy="0.82">與inline在</tspan><tspan x="15.00" dy="0.82">bp4trailing</tspan></text>
<line class="assoc" x1="12.00" y1="94.50" x2="13.00" y2="94.50"/>
<rect class="action" x="13.00" y="93.07" width="4.00" height="2.86"/>
<text class="action-label" x="15.00" y="94.09"><tspan x="15.00" dy="0">串流助</tspan><tspan x="15.00" dy="0.82">手回合</tspan></text>
<line class="assoc" x1="12.00" y1="101.50" x2="13.00" y2="101.50"/>
<rect class="action" x="13.00" y="100.07" width="4.00" height="2.86"/>
<text class="action-label" x="15.00" y="101.09"><tspan x="15.00" dy="0">drainActiv</tspan><tspan x="15.00" dy="0.82">eImageRefs</tspan></text>
<line class="gate" x1="19.00" y1="9.00" x2="21.00" y2="9.00"/>
<text class="gate-label" x="21.40" y="9.00"><tspan x="21.40" dy="0">上傳請求已收到</tspan></text>
<line class="gate" x1="8.00" y1="16.00" x2="22.00" y2="16.00"/>
<line class="gate" x1="-3.50" y1="36.00" x2="23.50" y2="36.00"/>
<line class="gate" x1="-2.00" y1="25.00" x2="12.00" y2="25.00"/>
<line class="gate" x1="9.00" y1="43.00" x2="11.00" y2="43.00"/>
<text class="gate-label" x="11.40" y="43.00"><tspan x="11.40" dy="0">附件refpersisted</tspan></text>
<line class="gate" x1="9.00" y1="50.00" x2="11.00" y2="50.00"/>
<text class="gate-label" x="11.40" y="50.00"><tspan x="11.40" dy="0">Sessionhasimage附件</tspan></text>
<line class="gate" x1="9.00" y1="57.00" x2="11.00" y2="57.00"/>
<text class="gate-label" x="11.40" y="57.00"><tspan x="11.40" dy="0">preface就緒供LLM</tspan></text>
<line class="gate" x1="9.00" y1="66.00" x2="11.00" y2="66.00"/>
<text class="gate-label" x="11.40" y="66.00"><tspan x="11.40" dy="0">aicallsreread附件</tspan></text>
<line class="gate" x1="8.00" y1="91.00" x2="16.00" y2="91.00"/>
<line class="gate" x1="9.00" y1="73.00" x2="11.00" y2="73.00"/>
<text class="gate-label" x="11.40" y="73.00"><tspan x="11.40" dy="0">filenamematches附件ref</tspan></text>
<line class="gate" x1="9.00" y1="80.00" x2="11.00" y2="80.00"/>
<text class="gate-label-left" x="8.60" y="80.00"><tspan x="8.60" dy="0">setActiveImageRefsCommitted</tspan></text>
<line class="gate" x1="9.00" y1="98.00" x2="11.00" y2="98.00"/>
<text class="gate-label" x="11.40" y="98.00"><tspan x="11.40" dy="0">步驟完成emitted</tspan></text>
<line class="gate" x1="9.00" y1="105.00" x2="11.00" y2="105.00"/>
<text class="gate-label" x="11.40" y="105.00"><tspan x="11.40" dy="0">activeImageRefsCleared</tspan></text>
<line class="gate" x1="19.00" y1="18.00" x2="21.00" y2="18.00"/>
<text class="gate-label" x="21.40" y="18.00"><tspan x="21.40" dy="0">mime.starts使用(&#x27;image/&#x27;)</tspan></text>
<line class="gate" x1="9.00" y1="18.00" x2="11.00" y2="18.00"/>
<text class="gate-label-left" x="8.60" y="18.00"><tspan x="8.60" dy="0">!mime.starts使用(&#x27;image/&#x27;)</tspan></text>
<line class="gate" x1="19.00" y1="34.00" x2="21.00" y2="34.00"/>
<text class="gate-label" x="21.40" y="34.00"><tspan x="21.40" dy="0">Session路徑writeok</tspan></text>
<line class="gate" x1="-1.00" y1="27.00" x2="1.00" y2="27.00"/>
<text class="gate-label-left" x="-1.40" y="26.32"><tspan x="-1.40" dy="0">是officem</tspan><tspan x="-1.40" dy="0.68">ime(classi</tspan><tspan x="-1.40" dy="0.68">fyOffice)</tspan></text>
<line class="gate" x1="9.00" y1="27.00" x2="11.00" y2="27.00"/>
<text class="gate-label" x="11.40" y="27.00"><tspan x="11.40" dy="0">!是officemime</tspan></text>
<line class="gate" x1="-1.00" y1="34.00" x2="1.00" y2="34.00"/>
<text class="gate-label-left" x="-1.40" y="34.00"><tspan x="-1.40" dy="0">routingHintRendered</tspan></text>
<line class="gate" x1="9.00" y1="34.00" x2="11.00" y2="34.00"/>
<text class="gate-label" x="11.40" y="34.00"><tspan x="11.40" dy="0">jsonlappended來源上傳</tspan></text>
<line class="gate" x1="13.00" y1="89.00" x2="15.00" y2="89.00"/>
<text class="gate-label" x="15.40" y="89.00"><tspan x="15.40" dy="0">aiSkipsReread</tspan></text>
<line class="gate" x1="9.00" y1="87.00" x2="11.00" y2="87.00"/>
<text class="gate-label-left" x="8.60" y="87.00"><tspan x="8.60" dy="0">image位元組inlined在trailingextras</tspan></text>
<circle class="branch-junction" cx="10.00" cy="64.00" r="0.28"/>
</svg>