<svg width="899" height="1010" viewBox="41.0 -50.0 898.8 1010.0" xmlns="http://www.w3.org/2000/svg">
<defs><marker id="arrow" viewBox="0 0 10 10" refX="10" refY="5" markerWidth="6" markerHeight="6" orient="auto-start-reverse"><path d="M 0 0 L 10 5 L 0 10 z" fill="black" /></marker></defs>
<rect x="41.0" y="-50.0" width="898.8" height="1010.0" fill="white" />
<rect x="380.0" y="80.0" width="40.0" height="40.0" stroke="black" stroke-width="1.5" fill="white" />
<rect x="385.0" y="85.0" width="30.0" height="30.0" stroke="black" stroke-width="1" fill="none" />
<text x="400" y="105.0" text-anchor="middle" font-family="'Times New Roman', 'BiauKai', 'DFKai-SB', '標楷體', 'KaiTi', serif" font-weight="bold" font-size="14">40</text>
<line x1="420.0" y1="100.0" x2="460.0" y2="100.0" stroke="black" />
<rect x="459.9999999999999" y="54.0" width="213.2" height="92.0" stroke="black" stroke-width="1.2" fill="white" />
<text x="566.5999999999999" y="104.0" text-anchor="middle" font-family="'Times New Roman', 'BiauKai', 'DFKai-SB', '標楷體', 'KaiTi', serif" font-size="11">lookupManifest快取</text>
<line x1="400" y1="120.0" x2="400" y2="160.0" stroke="black" />
<line x1="173.4" y1="160.0" x2="626.5999999999999" y2="160.0" stroke="black" stroke-width="1.5" />
<line x1="213.4" y1="160.0" x2="213.4" y2="200.0" stroke="black" />
<line x1="193.4" y1="200.0" x2="233.4" y2="200.0" stroke="black" stroke-width="2" />
<text x="189.4" y="204.0" font-style="italic" font-size="11" text-anchor="end" font-family="'Times New Roman', 'BiauKai', 'DFKai-SB', '標楷體', 'KaiTi', serif">快取miss</text>
<line x1="213.4" y1="200.0" x2="213.4" y2="240.0" stroke="black" />
<line x1="586.5999999999999" y1="160.0" x2="586.5999999999999" y2="200.0" stroke="black" />
<line x1="566.5999999999999" y1="200.0" x2="606.5999999999999" y2="200.0" stroke="black" stroke-width="2" />
<text x="610.5999999999999" y="204.0" font-style="italic" font-size="11" text-anchor="start" font-family="'Times New Roman', 'BiauKai', 'DFKai-SB', '標楷體', 'KaiTi', serif">快取hit</text>
<line x1="586.5999999999999" y1="200.0" x2="586.5999999999999" y2="240.0" stroke="black" marker-end="url(#arrow)" />
<rect x="566.5999999999999" y="240.0" width="40.0" height="40.0" stroke="black" stroke-width="1.5" fill="white" />
<text x="586.5999999999999" y="265.0" text-anchor="middle" font-family="'Times New Roman', 'BiauKai', 'DFKai-SB', '標楷體', 'KaiTi', serif" font-weight="bold" font-size="14">44</text>
<line x1="606.5999999999999" y1="260.0" x2="646.5999999999999" y2="260.0" stroke="black" />
<rect x="646.5999999999999" y="214.0" width="213.2" height="92.0" stroke="black" stroke-width="1.2" fill="white" />
<text x="753.1999999999999" y="264.0" text-anchor="middle" font-family="'Times New Roman', 'BiauKai', 'DFKai-SB', '標楷體', 'KaiTi', serif" font-size="11">渲染officeroutinghint</text>
<line x1="586.5999999999999" y1="280.0" x2="586.5999999999999" y2="360.0" stroke="black" />
<line x1="566.5999999999999" y1="320.0" x2="606.5999999999999" y2="320.0" stroke="black" stroke-width="2" />
<text x="610.5999999999999" y="324.0" font-style="italic" font-size="11" text-anchor="start" font-family="'Times New Roman', 'BiauKai', 'DFKai-SB', '標楷體', 'KaiTi', serif">hintBuilt</text>
<rect x="566.5999999999999" y="360.0" width="40.0" height="40.0" stroke="black" stroke-width="1.5" fill="white" />
<text x="586.5999999999999" y="385.0" text-anchor="middle" font-family="'Times New Roman', 'BiauKai', 'DFKai-SB', '標楷體', 'KaiTi', serif" font-weight="bold" font-size="14">45</text>
<line x1="606.5999999999999" y1="380.0" x2="646.5999999999999" y2="380.0" stroke="black" />
<rect x="646.5999999999999" y="334.0" width="213.2" height="92.0" stroke="black" stroke-width="1.2" fill="white" />
<text x="753.1999999999999" y="360.0" text-anchor="middle" font-family="'Times New Roman', 'BiauKai', 'DFKai-SB', '標楷體', 'KaiTi', serif" font-size="11">發出</text>
<text x="753.1999999999999" y="384.0" text-anchor="middle" font-family="'Times New Roman', 'BiauKai', 'DFKai-SB', '標楷體', 'KaiTi', serif" font-size="11">decomposedref與</text>
<text x="753.1999999999999" y="408.0" text-anchor="middle" font-family="'Times New Roman', 'BiauKai', 'DFKai-SB', '標楷體', 'KaiTi', serif" font-size="11">hint</text>
<line x1="586.5999999999999" y1="400.0" x2="586.5999999999999" y2="480.0" stroke="black" />
<line x1="566.5999999999999" y1="440.0" x2="606.5999999999999" y2="440.0" stroke="black" stroke-width="2" />
<text x="610.5999999999999" y="444.0" font-style="italic" font-size="11" text-anchor="start" font-family="'Times New Roman', 'BiauKai', 'DFKai-SB', '標楷體', 'KaiTi', serif">1</text>
<line x1="173.4" y1="480.0" x2="626.5999999999999" y2="480.0" stroke="black" stroke-width="1.5" />
<line x1="213.4" y1="240.0" x2="213.4" y2="480.0" stroke="black" />
<line x1="586.5999999999999" y1="480.0" x2="586.5999999999999" y2="480.0" stroke="black" />
<line x1="400" y1="480.0" x2="400" y2="520.0" stroke="black" marker-end="url(#arrow)" />
<rect x="380.0" y="520.0" width="40.0" height="40.0" stroke="black" stroke-width="1.5" fill="white" />
<text x="400" y="545.0" text-anchor="middle" font-family="'Times New Roman', 'BiauKai', 'DFKai-SB', '標楷體', 'KaiTi', serif" font-weight="bold" font-size="14">41</text>
<line x1="420.0" y1="540.0" x2="460.0" y2="540.0" stroke="black" />
<rect x="459.9999999999999" y="494.0" width="213.2" height="92.0" stroke="black" stroke-width="1.2" fill="white" />
<text x="566.5999999999999" y="532.0" text-anchor="middle" font-family="'Times New Roman', 'BiauKai', 'DFKai-SB', '標楷體', 'KaiTi', serif" font-size="11">呼叫取出</text>
<text x="566.5999999999999" y="556.0" text-anchor="middle" font-family="'Times New Roman', 'BiauKai', 'DFKai-SB', '標楷體', 'KaiTi', serif" font-size="11">allfastphase</text>
<line x1="400" y1="560.0" x2="400" y2="640.0" stroke="black" />
<line x1="380" y1="600.0" x2="420" y2="600.0" stroke="black" stroke-width="2" />
<text x="424.0" y="604.0" font-style="italic" font-size="11" text-anchor="start" font-family="'Times New Roman', 'BiauKai', 'DFKai-SB', '標楷體', 'KaiTi', serif">fastphasedone或timeout30s</text>
<rect x="380.0" y="640.0" width="40.0" height="40.0" stroke="black" stroke-width="1.5" fill="white" />
<text x="400" y="665.0" text-anchor="middle" font-family="'Times New Roman', 'BiauKai', 'DFKai-SB', '標楷體', 'KaiTi', serif" font-weight="bold" font-size="14">42</text>
<line x1="420.0" y1="660.0" x2="460.0" y2="660.0" stroke="black" />
<rect x="459.9999999999999" y="614.0" width="213.2" height="92.0" stroke="black" stroke-width="1.2" fill="white" />
<text x="566.5999999999999" y="652.0" text-anchor="middle" font-family="'Times New Roman', 'BiauKai', 'DFKai-SB', '標楷體', 'KaiTi', serif" font-size="11">writeoutline與</text>
<text x="566.5999999999999" y="676.0" text-anchor="middle" font-family="'Times New Roman', 'BiauKai', 'DFKai-SB', '標楷體', 'KaiTi', serif" font-size="11">待處理markers</text>
<line x1="400" y1="680.0" x2="400" y2="760.0" stroke="black" />
<line x1="380" y1="720.0" x2="420" y2="720.0" stroke="black" stroke-width="2" />
<text x="424.0" y="724.0" font-style="italic" font-size="11" text-anchor="start" font-family="'Times New Roman', 'BiauKai', 'DFKai-SB', '標楷體', 'KaiTi', serif">Bundlestaged</text>
<rect x="380.0" y="760.0" width="40.0" height="40.0" stroke="black" stroke-width="1.5" fill="white" />
<text x="400" y="785.0" text-anchor="middle" font-family="'Times New Roman', 'BiauKai', 'DFKai-SB', '標楷體', 'KaiTi', serif" font-weight="bold" font-size="14">43</text>
<line x1="420.0" y1="780.0" x2="460.0" y2="780.0" stroke="black" />
<rect x="459.9999999999999" y="734.0" width="213.2" height="92.0" stroke="black" stroke-width="1.2" fill="white" />
<text x="566.5999999999999" y="772.0" text-anchor="middle" font-family="'Times New Roman', 'BiauKai', 'DFKai-SB', '標楷體', 'KaiTi', serif" font-size="11">poll取出</text>
<text x="566.5999999999999" y="796.0" text-anchor="middle" font-family="'Times New Roman', 'BiauKai', 'DFKai-SB', '標楷體', 'KaiTi', serif" font-size="11">allcollectloop</text>
<line x1="400" y1="800.0" x2="400" y2="880.0" stroke="black" />
<line x1="380" y1="840.0" x2="420" y2="840.0" stroke="black" stroke-width="2" />
<text x="424.0" y="844.0" font-style="italic" font-size="11" text-anchor="start" font-family="'Times New Roman', 'BiauKai', 'DFKai-SB', '標楷體', 'KaiTi', serif">poll完成 || elapsed&gt;=180s</text>
<line x1="400" y1="880.0" x2="400" y2="880.0" stroke="black" />
<line x1="400" y1="880.0" x2="300.0" y2="880.0" stroke="black" />
<line x1="300.0" y1="880.0" x2="300.0" y2="216.0" stroke="black" />
<line x1="300.0" y1="216.0" x2="586.5999999999999" y2="216.0" stroke="black" marker-end="url(#arrow)" />
<line x1="586.5999999999999" y1="480.0" x2="586.5999999999999" y2="500.0" stroke="black" />
<line x1="586.5999999999999" y1="500.0" x2="220.0" y2="500.0" stroke="black" />
<line x1="220.0" y1="500.0" x2="220.0" y2="30.0" stroke="black" />
<line x1="220.0" y1="30.0" x2="400" y2="30.0" stroke="black" />
<line x1="400" y1="30.0" x2="400" y2="70.0" stroke="black" marker-end="url(#arrow)" />
</svg>