<svg xmlns="http://www.w3.org/2000/svg" width="980" height="2630" viewBox="0 0 980 2630" role="img" aria-label="attachments GRAFCET A0">
<defs><marker id="arrow" markerWidth="10" markerHeight="10" refX="8" refY="3" orient="auto" markerUnits="strokeWidth"><path d="M0,0 L0,6 L9,3 z" fill="#111"/></marker></defs>
<style>
.title{font:bold 26px serif;fill:#111}.meta{font:14px monospace;fill:#555}.step{fill:#fff;stroke:#111;stroke-width:2}.step-inner{fill:none;stroke:#111;stroke-width:1.5}.step-no{font:bold 22px serif;text-anchor:middle;dominant-baseline:middle}.assoc,.edge{stroke:#111;stroke-width:2;fill:none}.action{fill:#fff;stroke:#111;stroke-width:2}.module{fill:#f8fafc;stroke:#475569;stroke-width:1.5}.label{font:18px serif;fill:#111}.module-label{font:15px monospace;fill:#334155}.gate{font:14px serif;fill:#444}.gate-line{stroke:#111;stroke-width:2}
</style>
<rect width="100%" height="100%" fill="white"/>
<text class="title" x="40" y="42">attachments GRAFCET A0</text><text class="meta" x="40" y="70">source: specs/attachments/grafcet.json · layer: A0</text><rect class="step" x="54" y="105" width="72" height="72" rx="9"/><rect class="step-inner" x="62" y="113" width="56" height="56" rx="7"/><text class="step-no" x="90" y="149">0</text><line class="assoc" x1="126" y1="141" x2="160" y2="141"/><rect class="action" x="160" y="105" width="500" height="72" rx="8"/><text class="label" x="176" y="129"><tspan x="176" dy="0">閒置awaiting上傳</tspan></text><rect class="module" x="690" y="105" width="220" height="72" rx="8"/><text class="module-label" x="704" y="132"><tspan x="704" dy="0">ModuleRef: packages/opencode/src/server/routes/session.ts (upload route)</tspan></text><text class="gate" x="176" y="197"><tspan x="176" dy="0">上傳請求已收到</tspan></text><path class="edge" d="M90 177 L90 225" marker-end="url(#arrow)"/><line class="gate-line" x1="58" y1="199" x2="122" y2="199"/><rect class="step" x="54" y="225" width="72" height="72" rx="9"/><text class="step-no" x="90" y="269">1</text><line class="assoc" x1="126" y1="261" x2="160" y2="261"/><rect class="action" x="160" y="225" width="500" height="72" rx="8"/><text class="label" x="176" y="249"><tspan x="176" dy="0">解析multipart與detectmime</tspan></text><rect class="module" x="690" y="225" width="220" height="72" rx="8"/><text class="module-label" x="704" y="252"><tspan x="704" dy="0">ModuleRef: packages/opencode/src/session/user-message-parts.ts (buildUserMessageAttachmentRefPart ~L290)</tspan></text><text class="gate" x="176" y="317"><tspan x="176" dy="0">mime.starts使用(&#x27;image/&#x27;); !mime.starts使用(&#x27;image/&#x27;)</tspan></text><path class="edge" d="M90 297 L90 345" marker-end="url(#arrow)"/><line class="gate-line" x1="58" y1="319" x2="122" y2="319"/><rect class="step" x="54" y="345" width="72" height="72" rx="9"/><text class="step-no" x="90" y="389">2</text><line class="assoc" x1="126" y1="381" x2="160" y2="381"/><rect class="action" x="160" y="345" width="500" height="72" rx="8"/><text class="label" x="176" y="369"><tspan x="176" dy="0">writeimage到Sessionxdg</tspan></text><rect class="module" x="690" y="345" width="220" height="72" rx="8"/><text class="module-label" x="704" y="372"><tspan x="704" dy="0">ModuleRef: packages/opencode/src/incoming/session-paths.ts (SessionIncomingPaths.tryLandInSession)</tspan></text><text class="gate" x="176" y="437"><tspan x="176" dy="0">Session路徑writeok</tspan></text><path class="edge" d="M90 417 L90 465" marker-end="url(#arrow)"/><line class="gate-line" x1="58" y1="439" x2="122" y2="439"/><rect class="step" x="54" y="465" width="72" height="72" rx="9"/><text class="step-no" x="90" y="509">3</text><line class="assoc" x1="126" y1="501" x2="160" y2="501"/><rect class="action" x="160" y="465" width="500" height="72" rx="8"/><text class="label" x="176" y="489"><tspan x="176" dy="0">sanitize與land在incoming</tspan></text><rect class="module" x="690" y="465" width="220" height="72" rx="8"/><text class="module-label" x="704" y="492"><tspan x="704" dy="0">ModuleRef: packages/opencode/src/incoming/paths.ts (IncomingPaths.sanitize, tryLandInIncoming)</tspan></text><text class="gate" x="176" y="557"><tspan x="176" dy="0">是officemime(classifyOffice); !是officemime</tspan></text><path class="edge" d="M90 537 L90 585" marker-end="url(#arrow)"/><line class="gate-line" x1="58" y1="559" x2="122" y2="559"/><rect class="step" x="54" y="585" width="72" height="72" rx="9"/><text class="step-no" x="90" y="629">4</text><line class="assoc" x1="126" y1="621" x2="160" y2="621"/><rect class="action" x="160" y="585" width="500" height="72" rx="8"/><text class="label" x="176" y="609"><tspan x="176" dy="0">執行docxautodecompose</tspan></text><rect class="module" x="690" y="585" width="220" height="72" rx="8"/><text class="module-label" x="704" y="612"><tspan x="704" dy="0">ModuleRef: packages/opencode/src/incoming/decompose-hook.ts (landOfficeUpload)</tspan></text><text class="gate" x="176" y="677"><tspan x="176" dy="0">routingHintRendered</tspan></text><path class="edge" d="M90 657 L90 705" marker-end="url(#arrow)"/><line class="gate-line" x1="58" y1="679" x2="122" y2="679"/><rect class="step" x="54" y="705" width="72" height="72" rx="9"/><rect class="step-inner" x="62" y="713" width="56" height="56" rx="7"/><text class="step-no" x="90" y="749">40</text><line class="assoc" x1="126" y1="741" x2="160" y2="741"/><rect class="action" x="160" y="705" width="500" height="72" rx="8"/><text class="label" x="176" y="729"><tspan x="176" dy="0">lookupManifest快取</tspan></text><rect class="module" x="690" y="705" width="220" height="72" rx="8"/><text class="module-label" x="704" y="732"><tspan x="704" dy="0">ModuleRef: packages/opencode/src/incoming/manifest.ts (lookupCache)</tspan></text><text class="gate" x="176" y="797"><tspan x="176" dy="0">快取miss; 快取hit</tspan></text><path class="edge" d="M90 777 L90 825" marker-end="url(#arrow)"/><line class="gate-line" x1="58" y1="799" x2="122" y2="799"/><rect class="step" x="54" y="825" width="72" height="72" rx="9"/><text class="step-no" x="90" y="869">41</text><line class="assoc" x1="126" y1="861" x2="160" y2="861"/><rect class="action" x="160" y="825" width="500" height="72" rx="8"/><text class="label" x="176" y="849"><tspan x="176" dy="0">呼叫取出allfastphase</tspan></text><rect class="module" x="690" y="825" width="220" height="72" rx="8"/><text class="module-label" x="704" y="852"><tspan x="704" dy="0">ModuleRef: packages/opencode/src/incoming/decompose-hook.ts (extract_all MCP call)</tspan></text><text class="gate" x="176" y="917"><tspan x="176" dy="0">fastphasedone或timeout30s</tspan></text><path class="edge" d="M90 897 L90 945" marker-end="url(#arrow)"/><line class="gate-line" x1="58" y1="919" x2="122" y2="919"/><rect class="step" x="54" y="945" width="72" height="72" rx="9"/><text class="step-no" x="90" y="989">42</text><line class="assoc" x1="126" y1="981" x2="160" y2="981"/><rect class="action" x="160" y="945" width="500" height="72" rx="8"/><text class="label" x="176" y="969"><tspan x="176" dy="0">writeoutline與待處理markers</tspan></text><rect class="module" x="690" y="945" width="220" height="72" rx="8"/><text class="module-label" x="704" y="972"><tspan x="704" dy="0">ModuleRef: packages/opencode/src/incoming/decompose-hook.ts (chapters/tables/media _PENDING.md)</tspan></text><text class="gate" x="176" y="1037"><tspan x="176" dy="0">Bundlestaged</tspan></text><path class="edge" d="M90 1017 L90 1065" marker-end="url(#arrow)"/><line class="gate-line" x1="58" y1="1039" x2="122" y2="1039"/><rect class="step" x="54" y="1065" width="72" height="72" rx="9"/><text class="step-no" x="90" y="1109">43</text><line class="assoc" x1="126" y1="1101" x2="160" y2="1101"/><rect class="action" x="160" y="1065" width="500" height="72" rx="8"/><text class="label" x="176" y="1089"><tspan x="176" dy="0">poll取出allcollectloop</tspan></text><rect class="module" x="690" y="1065" width="220" height="72" rx="8"/><text class="module-label" x="704" y="1092"><tspan x="704" dy="0">ModuleRef: packages/opencode/src/incoming/poll-loop.ts (startPollLoop, 5s cycle, 180s cap)</tspan></text><text class="gate" x="176" y="1157"><tspan x="176" dy="0">poll完成 || elapsed&gt;=180s</tspan></text><path class="edge" d="M90 1137 L90 1185" marker-end="url(#arrow)"/><line class="gate-line" x1="58" y1="1159" x2="122" y2="1159"/><rect class="step" x="54" y="1185" width="72" height="72" rx="9"/><text class="step-no" x="90" y="1229">44</text><line class="assoc" x1="126" y1="1221" x2="160" y2="1221"/><rect class="action" x="160" y="1185" width="500" height="72" rx="8"/><text class="label" x="176" y="1209"><tspan x="176" dy="0">渲染officeroutinghint</tspan></text><rect class="module" x="690" y="1185" width="220" height="72" rx="8"/><text class="module-label" x="704" y="1212"><tspan x="704" dy="0">ModuleRef: packages/opencode/src/incoming/routing-hint.ts (renderOfficeRoutingHint, DD-7)</tspan></text><text class="gate" x="176" y="1277"><tspan x="176" dy="0">hintBuilt</tspan></text><path class="edge" d="M90 1257 L90 1305" marker-end="url(#arrow)"/><line class="gate-line" x1="58" y1="1279" x2="122" y2="1279"/><rect class="step" x="54" y="1305" width="72" height="72" rx="9"/><text class="step-no" x="90" y="1349">45</text><line class="assoc" x1="126" y1="1341" x2="160" y2="1341"/><rect class="action" x="160" y="1305" width="500" height="72" rx="8"/><text class="label" x="176" y="1329"><tspan x="176" dy="0">發出decomposedref與hint</tspan></text><rect class="module" x="690" y="1305" width="220" height="72" rx="8"/><text class="module-label" x="704" y="1332"><tspan x="704" dy="0">ModuleRef: packages/opencode/src/incoming/decompose-hook.ts (return path)</tspan></text><text class="gate" x="176" y="1397"><tspan x="176" dy="0">1</tspan></text><path class="edge" d="M90 1377 L90 1425" marker-end="url(#arrow)"/><line class="gate-line" x1="58" y1="1399" x2="122" y2="1399"/><rect class="step" x="54" y="1425" width="72" height="72" rx="9"/><text class="step-no" x="90" y="1469">5</text><line class="assoc" x1="126" y1="1461" x2="160" y2="1461"/><rect class="action" x="160" y="1425" width="500" height="72" rx="8"/><text class="label" x="176" y="1449"><tspan x="176" dy="0">writeincoming檔案與追加history</tspan></text><rect class="module" x="690" y="1425" width="220" height="72" rx="8"/><text class="module-label" x="704" y="1452"><tspan x="704" dy="0">ModuleRef: packages/opencode/src/incoming/history.ts (IncomingHistory.appendEntry)</tspan></text><text class="gate" x="176" y="1517"><tspan x="176" dy="0">jsonlappended來源上傳</tspan></text><path class="edge" d="M90 1497 L90 1545" marker-end="url(#arrow)"/><line class="gate-line" x1="58" y1="1519" x2="122" y2="1519"/><rect class="step" x="54" y="1545" width="72" height="72" rx="9"/><text class="step-no" x="90" y="1589">6</text><line class="assoc" x1="126" y1="1581" x2="160" y2="1581"/><rect class="action" x="160" y="1545" width="500" height="72" rx="8"/><text class="label" x="176" y="1569"><tspan x="176" dy="0">發出附件refpart</tspan></text><rect class="module" x="690" y="1545" width="220" height="72" rx="8"/><text class="module-label" x="704" y="1572"><tspan x="704" dy="0">ModuleRef: packages/opencode/src/session/user-message-parts.ts (buildUserMessageAttachmentRefPart)</tspan></text><text class="gate" x="176" y="1637"><tspan x="176" dy="0">附件refpersisted</tspan></text><path class="edge" d="M90 1617 L90 1665" marker-end="url(#arrow)"/><line class="gate-line" x1="58" y1="1639" x2="122" y2="1639"/><rect class="step" x="54" y="1665" width="72" height="72" rx="9"/><text class="step-no" x="90" y="1709">7</text><line class="assoc" x1="126" y1="1701" x2="160" y2="1701"/><rect class="action" x="160" y="1665" width="500" height="72" rx="8"/><text class="label" x="176" y="1689"><tspan x="176" dy="0">建置attachedimagesinventory區塊</tspan></text><rect class="module" x="690" y="1665" width="220" height="72" rx="8"/><text class="module-label" x="704" y="1692"><tspan x="704" dy="0">ModuleRef: packages/opencode/src/session/attached-images-inventory.ts (buildAttachedImagesInventory)</tspan></text><text class="gate" x="176" y="1757"><tspan x="176" dy="0">Sessionhasimage附件</tspan></text><path class="edge" d="M90 1737 L90 1785" marker-end="url(#arrow)"/><line class="gate-line" x1="58" y1="1759" x2="122" y2="1759"/><rect class="step" x="54" y="1785" width="72" height="72" rx="9"/><text class="step-no" x="90" y="1829">8</text><line class="assoc" x1="126" y1="1821" x2="160" y2="1821"/><rect class="action" x="160" y="1785" width="500" height="72" rx="8"/><text class="label" x="176" y="1809"><tspan x="176" dy="0">組裝prefacetrailingextras</tspan></text><rect class="module" x="690" y="1785" width="220" height="72" rx="8"/><text class="module-label" x="704" y="1812"><tspan x="704" dy="0">ModuleRef: packages/opencode/src/session/llm.ts (~L620 trailingExtras assembly)</tspan></text><text class="gate" x="176" y="1877"><tspan x="176" dy="0">preface就緒供LLM</tspan></text><path class="edge" d="M90 1857 L90 1905" marker-end="url(#arrow)"/><line class="gate-line" x1="58" y1="1879" x2="122" y2="1879"/><rect class="step" x="54" y="1905" width="72" height="72" rx="9"/><text class="step-no" x="90" y="1949">9</text><line class="assoc" x1="126" y1="1941" x2="160" y2="1941"/><rect class="action" x="160" y="1905" width="500" height="72" rx="8"/><text class="label" x="176" y="1929"><tspan x="176" dy="0">等待aidecision</tspan></text><rect class="module" x="690" y="1905" width="220" height="72" rx="8"/><text class="module-label" x="704" y="1932"><tspan x="704" dy="0">ModuleRef: packages/opencode/src/session/llm.ts (LLM streaming loop)</tspan></text><text class="gate" x="176" y="1997"><tspan x="176" dy="0">aicallsreread附件; aiSkipsReread</tspan></text><path class="edge" d="M90 1977 L90 2025" marker-end="url(#arrow)"/><line class="gate-line" x1="58" y1="1999" x2="122" y2="1999"/><rect class="step" x="54" y="2025" width="72" height="72" rx="9"/><text class="step-no" x="90" y="2069">10</text><line class="assoc" x1="126" y1="2061" x2="160" y2="2061"/><rect class="action" x="160" y="2025" width="500" height="72" rx="8"/><text class="label" x="176" y="2049"><tspan x="176" dy="0">voucherfilename透過reread工具</tspan></text><rect class="module" x="690" y="2025" width="220" height="72" rx="8"/><text class="module-label" x="704" y="2052"><tspan x="704" dy="0">ModuleRef: packages/opencode/src/tool/reread-attachment.ts (RereadAttachmentTool.execute)</tspan></text><text class="gate" x="176" y="2117"><tspan x="176" dy="0">filenamematches附件ref</tspan></text><path class="edge" d="M90 2097 L90 2145" marker-end="url(#arrow)"/><line class="gate-line" x1="58" y1="2119" x2="122" y2="2119"/><rect class="step" x="54" y="2145" width="72" height="72" rx="9"/><text class="step-no" x="90" y="2189">11</text><line class="assoc" x1="126" y1="2181" x2="160" y2="2181"/><rect class="action" x="160" y="2145" width="500" height="72" rx="8"/><text class="label" x="176" y="2169"><tspan x="176" dy="0">追加activeimagerefs使用fifocap</tspan></text><rect class="module" x="690" y="2145" width="220" height="72" rx="8"/><text class="module-label" x="704" y="2172"><tspan x="704" dy="0">ModuleRef: packages/opencode/src/session/active-image-refs.ts (addOnReread, ACTIVE_IMAGE_REFS_DEFAULT_MAX=3)</tspan></text><text class="gate" x="176" y="2237"><tspan x="176" dy="0">setActiveImageRefsCommitted</tspan></text><path class="edge" d="M90 2217 L90 2265" marker-end="url(#arrow)"/><line class="gate-line" x1="58" y1="2239" x2="122" y2="2239"/><rect class="step" x="54" y="2265" width="72" height="72" rx="9"/><text class="step-no" x="90" y="2309">12</text><line class="assoc" x1="126" y1="2301" x2="160" y2="2301"/><rect class="action" x="160" y="2265" width="500" height="72" rx="8"/><text class="label" x="176" y="2289"><tspan x="176" dy="0">load位元組與inline在bp4trailing</tspan></text><rect class="module" x="690" y="2265" width="220" height="72" rx="8"/><text class="module-label" x="704" y="2292"><tspan x="704" dy="0">ModuleRef: packages/opencode/src/tool/attachment.ts + session/llm.ts activeImageBlocks (~L620-L755)</tspan></text><text class="gate" x="176" y="2357"><tspan x="176" dy="0">image位元組inlined在trailingextras</tspan></text><path class="edge" d="M90 2337 L90 2385" marker-end="url(#arrow)"/><line class="gate-line" x1="58" y1="2359" x2="122" y2="2359"/><rect class="step" x="54" y="2385" width="72" height="72" rx="9"/><text class="step-no" x="90" y="2429">13</text><line class="assoc" x1="126" y1="2421" x2="160" y2="2421"/><rect class="action" x="160" y="2385" width="500" height="72" rx="8"/><text class="label" x="176" y="2409"><tspan x="176" dy="0">串流助手回合</tspan></text><rect class="module" x="690" y="2385" width="220" height="72" rx="8"/><text class="module-label" x="704" y="2412"><tspan x="704" dy="0">ModuleRef: packages/opencode/src/session/processor.ts (assistant streaming)</tspan></text><text class="gate" x="176" y="2477"><tspan x="176" dy="0">步驟完成emitted</tspan></text><path class="edge" d="M90 2457 L90 2505" marker-end="url(#arrow)"/><line class="gate-line" x1="58" y1="2479" x2="122" y2="2479"/><rect class="step" x="54" y="2505" width="72" height="72" rx="9"/><text class="step-no" x="90" y="2549">14</text><line class="assoc" x1="126" y1="2541" x2="160" y2="2541"/><rect class="action" x="160" y="2505" width="500" height="72" rx="8"/><text class="label" x="176" y="2529"><tspan x="176" dy="0">drainActiveImageRefs</tspan></text><rect class="module" x="690" y="2505" width="220" height="72" rx="8"/><text class="module-label" x="704" y="2532"><tspan x="704" dy="0">ModuleRef: packages/opencode/src/session/processor.ts (~L1153 drainAfterAssistant)</tspan></text><text class="gate" x="176" y="2597"><tspan x="176" dy="0">activeImageRefsCleared</tspan></text>
</svg>
