<svg xmlns="http://www.w3.org/2000/svg" width="1262" height="1920" viewBox="-10.00 0.00 63.09 96.00" role="img">
<style>
.step{fill:#fff;stroke:#111;stroke-width:.14}.step-inner{fill:none;stroke:#111;stroke-width:.08}
.action{fill:#fff;stroke:#111;stroke-width:.14}.gate{stroke:#111;stroke-width:.16}
.edge{fill:none;stroke:#111;stroke-width:.05;stroke-linecap:round;stroke-linejoin:round}.edge-arrow{marker-end:url(#arrow)}
.flyover-mask{stroke:#fff;stroke-width:.12;stroke-linecap:round}
.flyover{fill:none;stroke:#111;stroke-width:.05;stroke-linecap:round}
.junction{fill:#111;stroke:#111;stroke-width:0}.branch-junction{fill:#fff;stroke:#111;stroke-width:.08}
.assoc{stroke:#111;stroke-width:.05}.label{font:bold .7px 'Times New Roman', 'BiauKai', 'DFKai-SB', serif;text-anchor:middle;dominant-baseline:middle}
.action-label{font:.55px 'Times New Roman', 'BiauKai', 'DFKai-SB', serif;text-anchor:middle;dominant-baseline:middle}.gate-label{font:italic .55px 'Times New Roman', 'BiauKai', 'DFKai-SB', serif;text-anchor:start;dominant-baseline:middle}.gate-label-left{font:italic .55px 'Times New Roman', 'BiauKai', 'DFKai-SB', serif;text-anchor:end;dominant-baseline:middle}
</style>
<defs><marker id="arrow" markerWidth="0.4" markerHeight="0.4" refX="0.36" refY="0.2" orient="auto" markerUnits="userSpaceOnUse"><path d="M 0 0 L 0.4 0.2 L 0 0.4 z" fill="#111"/></marker></defs>
<rect x="-10.00" y="0.00" width="63.09" height="96.00" fill="white"/>
<path class="edge edge-arrow" d="M 24.03 11.00 L 24.03 15.00"/>
<path class="edge edge-arrow" d="M 24.03 20.00 L 24.03 21.50 Q 24.03 22.00 23.53 22.00 L 10.50 22.00 Q 10.00 22.00 10.00 22.50 L 10.00 28.00"/>
<path class="edge" d="M 10.00 20.00 L 10.00 22.00"/>
<path class="edge edge-arrow" d="M 10.00 28.00 L 10.00 39.00"/>
<path class="edge edge-arrow" d="M 10.00 39.00 L 10.00 50.00"/>
<path class="edge edge-arrow" d="M 10.00 50.00 L 10.00 61.00"/>
<path class="edge edge-arrow" d="M 10.00 61.00 L 10.00 74.00"/>
<path class="edge" d="M 24.03 7.00 L 24.03 9.00"/>
<path class="edge" d="M 24.03 9.00 L 24.03 11.00"/>
<path class="edge" d="M 24.03 9.00 L 10.50 9.00 Q 10.00 9.00 10.00 9.50 L 10.00 11.00"/>
<path class="edge edge-arrow" d="M 10.00 11.00 L 10.00 15.00"/>
<path class="edge edge-arrow" d="M 24.03 18.00 L 24.03 18.88 Q 24.03 19.38 24.53 19.38 L 33.98 19.38 Q 34.48 19.38 34.48 19.88 L 34.48 33.50 Q 34.48 34.00 33.98 34.00 L 24.53 34.00 Q 24.03 34.00 24.03 33.50 L 24.03 28.00"/>
<path class="edge" d="M 24.03 34.00 L 24.03 38.00"/>
<path class="edge edge-arrow" d="M 24.03 41.00 L 24.03 39.00"/>
<path class="edge edge-arrow" d="M 24.03 41.00 L 24.03 47.00"/>
<path class="edge edge-arrow" d="M 24.03 50.00 L 24.03 50.00"/>
<path class="edge edge-arrow" d="M 24.03 50.00 L 24.03 56.00"/>
<path class="edge edge-arrow" d="M 24.03 59.00 L 24.03 61.00"/>
<path class="edge edge-arrow" d="M 24.03 61.00 L 24.03 65.00"/>
<path class="edge edge-arrow" d="M 24.03 68.00 L 24.03 74.00"/>
<path class="edge edge-arrow" d="M 24.03 74.00 L 24.03 74.00"/>
<path class="edge edge-arrow" d="M 24.03 77.00 L 24.03 79.00"/>
<path class="edge" d="M 7.50 79.00 L 7.50 84.50 Q 7.50 85.00 7.00 85.00 L -1.50 85.00 Q -2.00 85.00 -2.00 84.50 L -2.00 36.50 Q -2.00 36.00 -1.50 36.00 L 24.03 36.00"/>
<path class="edge" d="M 7.50 85.00 L 7.50 87.00"/>
<path class="edge" d="M 7.50 87.00 L -6.00 87.00"/>
<path class="edge" d="M -6.00 87.00 L -6.00 34.00"/>
<path class="edge" d="M -6.00 34.00 L 24.03 34.00"/>
<path class="edge edge-arrow" d="M 38.06 79.00 L 38.06 89.00"/>
<path class="edge edge-arrow" d="M 10.00 18.00 L 10.00 20.00"/>
<path class="edge" d="M 3.00 20.00 L 3.00 32.00"/>
<path class="edge" d="M 3.00 32.00 L 5.00 32.00"/>
<path class="edge" d="M 5.00 32.00 L 5.00 13.00"/>
<path class="edge" d="M 5.00 13.00 L 24.03 13.00"/>
<rect class="step" x="22.03" y="4.00" width="4.00" height="3.00" rx="0.35" ry="0.35"/>
<rect class="step-inner" x="22.28" y="4.25" width="3.50" height="2.50" rx="0.22" ry="0.22"/>
<text class="label" x="24.03" y="5.50">0</text>
<rect class="step" x="22.03" y="15.00" width="4.00" height="3.00" rx="0.35" ry="0.35"/>
<text class="label" x="24.03" y="16.50">1</text>
<rect class="step" x="22.03" y="38.00" width="4.00" height="3.00" rx="0.35" ry="0.35"/>
<text class="label" x="24.03" y="39.50">2</text>
<rect class="step" x="22.03" y="47.00" width="4.00" height="3.00" rx="0.35" ry="0.35"/>
<text class="label" x="24.03" y="48.50">3</text>
<rect class="step" x="22.03" y="56.00" width="4.00" height="3.00" rx="0.35" ry="0.35"/>
<text class="label" x="24.03" y="57.50">4</text>
<rect class="step" x="22.03" y="65.00" width="4.00" height="3.00" rx="0.35" ry="0.35"/>
<text class="label" x="24.03" y="66.50">5</text>
<rect class="step" x="22.03" y="74.00" width="4.00" height="3.00" rx="0.35" ry="0.35"/>
<text class="label" x="24.03" y="75.50">6</text>
<rect class="step" x="36.06" y="89.00" width="4.00" height="3.00" rx="0.35" ry="0.35"/>
<text class="label" x="38.06" y="90.50">7</text>
<rect class="step" x="8.00" y="15.00" width="4.00" height="3.00" rx="0.35" ry="0.35"/>
<text class="label" x="10.00" y="16.50">8</text>
<line class="assoc" x1="26.03" y1="5.50" x2="27.03" y2="5.50"/>
<rect class="action" x="27.03" y="4.07" width="8.03" height="2.86"/>
<text class="action-label" x="31.05" y="4.68"><tspan x="31.05" dy="0">閒置 — awaiting sp</tspan><tspan x="31.05" dy="0.82">ec 路徑 來自 使用</tspan><tspan x="31.05" dy="0.82">者 或 script 項目</tspan></text>
<line class="assoc" x1="26.03" y1="16.50" x2="27.03" y2="16.50"/>
<rect class="action" x="27.03" y="15.07" width="8.03" height="2.86"/>
<text class="action-label" x="31.05" y="16.09"><tspan x="31.05" dy="0">Proposed — proposal</tspan><tspan x="31.05" dy="0.82">.md + .state.js在 僅</tspan></text>
<line class="assoc" x1="26.03" y1="39.50" x2="27.03" y2="39.50"/>
<rect class="action" x="27.03" y="38.07" width="8.03" height="2.86"/>
<text class="action-label" x="31.05" y="38.68"><tspan x="31.05" dy="0">Designed — spec/desi</tspan><tspan x="31.05" dy="0.82">gn/IDEF0/C4/Sequenc</tspan><tspan x="31.05" dy="0.82">e/data-schema present</tspan></text>
<line class="assoc" x1="26.03" y1="48.50" x2="27.03" y2="48.50"/>
<rect class="action" x="27.03" y="47.07" width="8.03" height="2.86"/>
<text class="action-label" x="31.05" y="47.68"><tspan x="31.05" dy="0">Planned — tasks.md + han</tspan><tspan x="31.05" dy="0.82">doff.md + test-vectors/</tspan><tspan x="31.05" dy="0.82">錯誤/observability 完成</tspan></text>
<line class="assoc" x1="26.03" y1="57.50" x2="27.03" y2="57.50"/>
<rect class="action" x="27.03" y="56.07" width="8.03" height="2.86"/>
<text class="action-label" x="31.05" y="57.09"><tspan x="31.05" dy="0">Implementing — tasks being ch</tspan><tspan x="31.05" dy="0.82">ecked off, 建置 在 progress</tspan></text>
<line class="assoc" x1="26.03" y1="66.50" x2="27.03" y2="66.50"/>
<rect class="action" x="27.03" y="65.07" width="8.03" height="2.86"/>
<text class="action-label" x="31.05" y="65.68"><tspan x="31.05" dy="0">Verified — acceptan</tspan><tspan x="31.05" dy="0.82">ce checks pass, valida</tspan><tspan x="31.05" dy="0.82">tion evidence captured</tspan></text>
<line class="assoc" x1="26.03" y1="75.50" x2="27.03" y2="75.50"/>
<rect class="action" x="27.03" y="74.07" width="8.03" height="2.86"/>
<text class="action-label" x="31.05" y="74.68"><tspan x="31.05" dy="0">Living — spec equals current c</tspan><tspan x="31.05" dy="0.82">ode 狀態, iterates 透過 amen</tspan><tspan x="31.05" dy="0.82">d/revise/extend/refactor/sync</tspan></text>
<line class="assoc" x1="40.06" y1="90.50" x2="41.06" y2="90.50"/>
<rect class="action" x="41.06" y="89.07" width="8.03" height="2.86"/>
<text class="action-label" x="45.08" y="90.09"><tspan x="45.08" dy="0">Archived — spec froz</tspan><tspan x="45.08" dy="0.82">en, read-僅 reference</tspan></text>
<line class="assoc" x1="12.00" y1="16.50" x2="13.00" y2="16.50"/>
<rect class="action" x="13.00" y="15.07" width="8.03" height="2.86"/>
<text class="action-label" x="17.02" y="15.68"><tspan x="17.02" dy="0">Migrating — inferring</tspan><tspan x="17.02" dy="0.82">狀態, snapshotting, gi</tspan><tspan x="17.02" dy="0.82">t mv 到 specs/&lt;slug&gt;/</tspan></text>
<line class="gate" x1="23.03" y1="11.00" x2="25.03" y2="11.00"/>
<text class="gate-label" x="25.43" y="11.00"><tspan x="25.43" dy="0">newspecrequested</tspan></text>
<line class="gate" x1="9.00" y1="11.00" x2="11.00" y2="11.00"/>
<text class="gate-label" x="11.40" y="11.00"><tspan x="11.40" dy="0">legacyplans路徑detected</tspan></text>
<circle class="junction" cx="24.03" cy="28.00" r="0.28"/>
<circle class="junction" cx="24.03" cy="39.00" r="0.28"/>
<circle class="junction" cx="24.03" cy="50.00" r="0.28"/>
<circle class="junction" cx="24.03" cy="61.00" r="0.28"/>
<circle class="junction" cx="24.03" cy="74.00" r="0.28"/>
<line class="gate" x1="6.50" y1="79.00" x2="41.56" y2="79.00"/>
<line class="gate" x1="2.00" y1="20.00" x2="32.03" y2="20.00"/>
<line class="gate" x1="23.03" y1="24.00" x2="25.03" y2="24.00"/>
<text class="gate-label" x="25.43" y="23.32"><tspan x="25.43" dy="0">designartifacts</tspan><tspan x="25.43" dy="0.68">drafted AND pr</tspan><tspan x="25.43" dy="0.68">omoterequested</tspan></text>
<line class="gate" x1="23.03" y1="45.00" x2="25.03" y2="45.00"/>
<text class="gate-label" x="25.43" y="45.00"><tspan x="25.43" dy="0">tasks與handoffdrafted AND promoterequested</tspan></text>
<line class="gate" x1="23.03" y1="54.00" x2="25.03" y2="54.00"/>
<text class="gate-label" x="25.43" y="54.00"><tspan x="25.43" dy="0">first任務checked</tspan></text>
<line class="gate" x1="23.03" y1="63.00" x2="25.03" y2="63.00"/>
<text class="gate-label" x="25.43" y="63.00"><tspan x="25.43" dy="0">alltaskschecked AND validationevidenceattached</tspan></text>
<line class="gate" x1="23.03" y1="72.00" x2="25.03" y2="72.00"/>
<text class="gate-label" x="25.43" y="72.00"><tspan x="25.43" dy="0">merged到main</tspan></text>
<line class="gate" x1="6.50" y1="81.00" x2="8.50" y2="81.00"/>
<text class="gate-label-left" x="6.10" y="81.00"><tspan x="6.10" dy="0">amendmode</tspan></text>
<line class="gate" x1="6.50" y1="83.00" x2="8.50" y2="83.00"/>
<text class="gate-label-left" x="1.90" y="82.32"><tspan x="1.90" dy="0">revise或ex</tspan><tspan x="1.90" dy="0.68">tend或ref</tspan><tspan x="1.90" dy="0.68">actormode</tspan></text>
<line class="gate" x1="37.06" y1="81.00" x2="39.06" y2="81.00"/>
<text class="gate-label" x="39.46" y="81.00"><tspan x="39.46" dy="0">archivemode</tspan></text>
<line class="gate" x1="2.00" y1="24.00" x2="4.00" y2="24.00"/>
<text class="gate-label-left" x="1.60" y="24.00"><tspan x="1.60" dy="0">inferredproposed</tspan></text>
<line class="gate" x1="9.00" y1="24.00" x2="11.00" y2="24.00"/>
<text class="gate-label-left" x="8.60" y="23.32"><tspan x="8.60" dy="0">infer</tspan><tspan x="8.60" dy="0.68">redde</tspan><tspan x="8.60" dy="0.68">signed</tspan></text>
<line class="gate" x1="9.00" y1="26.00" x2="11.00" y2="26.00"/>
<text class="gate-label-left" x="4.40" y="26.00"><tspan x="4.40" dy="0">inferredplanned</tspan></text>
<line class="gate" x1="9.00" y1="28.00" x2="11.00" y2="28.00"/>
<text class="gate-label-left" x="8.60" y="27.32"><tspan x="8.60" dy="0">inferre</tspan><tspan x="8.60" dy="0.68">dimple</tspan><tspan x="8.60" dy="0.68">menting</tspan></text>
<line class="gate" x1="9.00" y1="30.00" x2="11.00" y2="30.00"/>
<text class="gate-label-left" x="4.40" y="30.00"><tspan x="4.40" dy="0">inferredverified</tspan></text>
<line class="gate" x1="9.00" y1="32.00" x2="11.00" y2="32.00"/>
<text class="gate-label-left" x="8.60" y="32.00"><tspan x="8.60" dy="0">inferredliving</tspan></text>
<circle class="junction" cx="24.03" cy="13.00" r="0.22"/>
<circle class="junction" cx="10.00" cy="22.00" r="0.22"/>
<circle class="junction" cx="24.03" cy="34.00" r="0.22"/>
<circle class="junction" cx="24.03" cy="36.00" r="0.22"/>
<circle class="branch-junction" cx="7.50" cy="85.00" r="0.22"/>
<circle class="branch-junction" cx="24.03" cy="9.00" r="0.28"/>
</svg>