<svg xmlns="http://www.w3.org/2000/svg" width="2946" height="2660" viewBox="-40.00 -2.00 147.30 133.00" role="img">
<style>
.step{fill:#fff;stroke:#111;stroke-width:.14}.step-inner{fill:none;stroke:#111;stroke-width:.08}
.action{fill:#fff;stroke:#111;stroke-width:.14}.gate{stroke:#111;stroke-width:.16}
.edge{fill:none;stroke:#111;stroke-width:.05;stroke-linecap:round;stroke-linejoin:round}.edge-arrow{marker-end:url(#arrow)}
.flyover-mask{stroke:#fff;stroke-width:.12;stroke-linecap:round}
.flyover{fill:none;stroke:#111;stroke-width:.05;stroke-linecap:round}
.junction{fill:#111;stroke:#111;stroke-width:0}.branch-junction{fill:#fff;stroke:#111;stroke-width:.08}
.assoc{stroke:#111;stroke-width:.05}.label{font:bold .7px 'Times New Roman', 'BiauKai', 'DFKai-SB', serif;text-anchor:middle;dominant-baseline:middle}
.action-label{font:.55px 'Times New Roman', 'BiauKai', 'DFKai-SB', serif;text-anchor:middle;dominant-baseline:middle}.gate-label{font:italic .55px 'Times New Roman', 'BiauKai', 'DFKai-SB', serif;text-anchor:start;dominant-baseline:middle}.gate-label-left{font:italic .55px 'Times New Roman', 'BiauKai', 'DFKai-SB', serif;text-anchor:end;dominant-baseline:middle}
</style>
<defs><marker id="arrow" markerWidth="0.4" markerHeight="0.4" refX="0.36" refY="0.2" orient="auto" markerUnits="userSpaceOnUse"><path d="M 0 0 L 0.4 0.2 L 0 0.4 z" fill="#111"/></marker></defs>
<rect x="-40.00" y="-2.00" width="147.30" height="133.00" fill="white"/>
<path class="edge edge-arrow" d="M 23.72 68.00 L 23.72 72.00"/>
<path class="edge edge-arrow" d="M 23.72 7.00 L 23.72 9.00"/>
<path class="edge edge-arrow" d="M -16.57 9.00 L -16.57 13.00"/>
<path class="edge edge-arrow" d="M 10.29 9.00 L 10.29 13.00"/>
<path class="edge edge-arrow" d="M 77.44 9.00 L 77.44 13.00"/>
<path class="edge edge-arrow" d="M 50.58 9.00 L 50.58 13.00"/>
<path class="edge edge-arrow" d="M -16.57 16.00 L -16.57 18.00"/>
<path class="edge edge-arrow" d="M -16.57 18.00 L -16.57 26.00"/>
<path class="edge edge-arrow" d="M -30.00 18.00 L -30.00 26.00"/>
<path class="edge" d="M -16.57 29.00 L -16.57 31.00"/>
<path class="edge edge-arrow" d="M -16.57 31.00 L -16.57 59.00"/>
<path class="edge" d="M -16.57 62.00 L -16.57 64.00"/>
<path class="edge edge-arrow" d="M -16.57 64.00 L -16.57 72.00"/>
<path class="edge" d="M -16.57 75.00 L -16.57 77.00"/>
<path class="edge edge-arrow" d="M -16.57 77.00 L -16.57 78.50 Q -16.57 79.00 -17.07 79.00 L -35.50 79.00 Q -36.00 79.00 -36.00 78.50 L -36.00 2.50 Q -36.00 2.00 -35.50 2.00 L 23.22 2.00 Q 23.72 2.00 23.72 2.50 L 23.72 4.00"/>
<path class="edge edge-arrow" d="M 10.29 16.00 L 10.29 18.00"/>
<path class="edge edge-arrow" d="M -3.14 18.00 L -3.14 26.00"/>
<path class="edge edge-arrow" d="M 37.15 18.00 L 37.15 21.50 Q 37.15 22.00 37.65 22.00 L 102.80 22.00 Q 103.30 22.00 103.30 22.50 L 103.30 24.12 Q 103.30 24.62 102.80 24.62 L 37.65 24.62 Q 37.15 24.62 37.15 25.12 L 37.15 26.00"/>
<path class="edge" d="M -3.14 29.00 L -3.14 31.00"/>
<path class="edge edge-arrow" d="M -3.14 31.00 L 32.65 31.00 Q 33.15 31.00 33.15 31.50 L 33.15 35.00"/>
<path class="edge edge-arrow" d="M 23.72 35.00 L 23.72 36.50 Q 23.72 37.00 24.22 37.00 L 54.53 37.00 Q 55.03 37.00 55.03 37.50 L 55.03 40.50 Q 55.03 41.00 54.53 41.00 L 24.22 41.00 Q 23.72 41.00 23.72 41.50 L 23.72 59.00"/>
<path class="edge" d="M -3.14 31.00 L -3.14 33.00"/>
<path class="edge edge-arrow" d="M -3.14 33.00 L -3.14 59.00"/>
<path class="edge" d="M 37.15 29.00 L 37.15 31.00"/>
<path class="edge" d="M 37.15 31.00 L 41.60 31.00"/>
<path class="edge edge-arrow" d="M 37.15 31.00 L 37.15 35.00"/>
<path class="edge" d="M 37.15 35.00 L 37.15 43.00"/>
<path class="edge" d="M 37.15 43.00 L 55.03 43.00"/>
<path class="edge" d="M 55.03 43.00 L 55.03 45.00"/>
<path class="edge" d="M 55.03 45.00 L 37.15 45.00"/>
<path class="edge edge-arrow" d="M 37.15 45.00 L 37.15 59.00"/>
<path class="edge" d="M 23.72 62.00 L 23.72 64.00"/>
<path class="edge" d="M 23.72 64.00 L 23.72 68.00"/>
<path class="edge" d="M 23.72 64.00 L 10.79 64.00 Q 10.29 64.00 10.29 64.50 L 10.29 68.00"/>
<path class="edge edge-arrow" d="M 10.29 68.00 L 10.29 72.00"/>
<path class="edge edge-arrow" d="M 23.72 75.00 L 23.72 79.00"/>
<path class="edge edge-arrow" d="M 23.72 79.00 L 23.72 84.50 Q 23.72 85.00 24.22 85.00 L 41.10 85.00 Q 41.60 85.00 41.60 85.50 L 41.60 90.50 Q 41.60 91.00 41.10 91.00 L 24.22 91.00 Q 23.72 91.00 23.72 91.50 L 23.72 93.00"/>
<path class="edge" d="M 10.29 79.00 L 10.29 83.00"/>
<path class="edge" d="M 10.29 83.00 L 41.60 83.00"/>
<path class="edge" d="M 41.60 83.00 L 41.60 85.00"/>
<path class="edge" d="M 41.60 91.00 L 41.60 97.62"/>
<path class="edge" d="M 41.60 97.62 L 10.29 97.62"/>
<path class="edge" d="M 10.29 97.62 L 10.29 93.00"/>
<path class="edge" d="M 10.29 75.00 L 10.29 77.00"/>
<path class="edge" d="M 10.29 77.00 L 28.17 77.00"/>
<path class="edge" d="M 28.17 77.00 L 28.17 99.62"/>
<path class="edge" d="M 28.17 99.62 L 10.29 99.62"/>
<path class="edge edge-arrow" d="M 10.29 93.00 L 10.29 87.00"/>
<path class="edge" d="M 10.29 99.62 L 10.29 97.62"/>
<path class="edge" d="M 10.29 89.00 L 26.29 89.00"/>
<path class="edge" d="M 26.29 89.00 L 26.29 70.00"/>
<path class="edge" d="M 26.29 70.00 L 23.72 70.00"/>
<path class="edge edge-arrow" d="M 37.15 87.00 L 37.15 93.00"/>
<path class="edge" d="M 23.72 96.00 L 23.72 98.00"/>
<path class="edge edge-arrow" d="M 23.72 98.00 L 23.72 102.00"/>
<path class="edge edge-arrow" d="M 23.72 105.00 L 23.72 107.00"/>
<path class="edge edge-arrow" d="M 23.72 107.00 L 23.72 111.00"/>
<path class="edge edge-arrow" d="M 10.29 107.00 L 10.29 111.00"/>
<path class="edge" d="M 23.72 114.00 L 23.72 116.00"/>
<path class="edge edge-arrow" d="M 23.72 116.00 L 23.72 120.00"/>
<path class="edge" d="M 23.72 123.00 L 23.72 125.00"/>
<path class="edge" d="M 23.72 125.00 L 23.72 127.00"/>
<path class="edge" d="M 23.72 127.00 L -36.00 127.00"/>
<path class="edge" d="M -36.00 127.00 L -36.00 79.00"/>
<path class="edge edge-arrow" d="M 77.44 16.00 L 77.44 18.00"/>
<path class="edge edge-arrow" d="M 64.01 18.00 L 64.01 26.00"/>
<path class="edge edge-arrow" d="M 77.44 18.00 L 77.44 26.00"/>
<path class="edge edge-arrow" d="M 90.87 18.00 L 90.87 26.00"/>
<path class="edge edge-arrow" d="M 64.01 29.00 L 64.01 31.00"/>
<path class="edge edge-arrow" d="M 77.44 31.00 L 77.44 59.00"/>
<path class="edge edge-arrow" d="M 77.44 29.00 L 77.44 31.00"/>
<path class="edge edge-arrow" d="M 90.87 29.00 L 90.87 31.00"/>
<path class="edge" d="M 77.44 62.00 L 77.44 64.00"/>
<path class="edge" d="M 77.44 64.00 L 77.44 66.00"/>
<path class="edge" d="M 77.44 66.00 L -36.00 66.00"/>
<path class="edge edge-arrow" d="M 50.58 16.00 L 50.58 24.00"/>
<path class="edge edge-arrow" d="M 23.72 24.00 L 23.72 26.00"/>
<path class="edge edge-arrow" d="M 50.58 24.00 L 50.58 26.00"/>
<path class="edge" d="M 23.72 29.00 L 23.72 35.00"/>
<path class="edge" d="M 23.72 37.00 L 23.72 39.00"/>
<path class="edge edge-arrow" d="M 50.58 39.00 L 50.58 59.00"/>
<path class="edge edge-arrow" d="M 50.58 29.00 L 50.58 39.00"/>
<path class="edge" d="M 50.58 62.00 L 50.58 64.00"/>
<path class="edge" d="M 50.58 64.00 L 50.58 66.00"/>
<path class="edge" d="M -30.00 29.00 L -30.00 31.00"/>
<path class="edge" d="M -30.00 31.00 L -30.00 33.00"/>
<path class="edge" d="M -30.00 33.00 L -36.00 33.00"/>
<path class="edge" d="M -3.14 62.00 L -3.14 64.00"/>
<path class="edge" d="M -3.14 64.00 L -3.14 66.00"/>
<path class="edge" d="M 37.15 62.00 L 37.15 64.00"/>
<path class="edge" d="M 37.15 64.00 L 37.15 66.00"/>
<path class="edge" d="M 10.29 99.62 L 10.29 102.00"/>
<path class="edge" d="M 10.29 102.00 L -36.00 102.00"/>
<path class="edge" d="M 37.15 96.00 L 37.15 98.00"/>
<path class="edge" d="M 37.15 98.00 L 37.15 106.00"/>
<path class="edge" d="M 37.15 106.00 L -36.00 106.00"/>
<path class="edge" d="M 10.29 114.00 L 10.29 116.00"/>
<path class="edge" d="M 10.29 116.00 L 10.29 118.00"/>
<path class="edge" d="M 10.29 118.00 L -36.00 118.00"/>
<rect class="step" x="21.72" y="4.00" width="4.00" height="3.00" rx="0.35" ry="0.35"/>
<rect class="step-inner" x="21.97" y="4.25" width="3.50" height="2.50" rx="0.22" ry="0.22"/>
<text class="label" x="23.72" y="5.50">0</text>
<rect class="step" x="-18.57" y="13.00" width="4.00" height="3.00" rx="0.35" ry="0.35"/>
<text class="label" x="-16.57" y="14.50">1</text>
<rect class="step" x="-18.57" y="26.00" width="4.00" height="3.00" rx="0.35" ry="0.35"/>
<text class="label" x="-16.57" y="27.50">2</text>
<rect class="step" x="-18.57" y="59.00" width="4.00" height="3.00" rx="0.35" ry="0.35"/>
<text class="label" x="-16.57" y="60.50">3</text>
<rect class="step" x="-18.57" y="72.00" width="4.00" height="3.00" rx="0.35" ry="0.35"/>
<text class="label" x="-16.57" y="73.50">4</text>
<rect class="step" x="8.29" y="13.00" width="4.00" height="3.00" rx="0.35" ry="0.35"/>
<text class="label" x="10.29" y="14.50">20</text>
<rect class="step" x="-5.14" y="26.00" width="4.00" height="3.00" rx="0.35" ry="0.35"/>
<text class="label" x="-3.14" y="27.50">21</text>
<rect class="step" x="35.15" y="26.00" width="4.00" height="3.00" rx="0.35" ry="0.35"/>
<text class="label" x="37.15" y="27.50">22</text>
<rect class="step" x="21.72" y="59.00" width="4.00" height="3.00" rx="0.35" ry="0.35"/>
<text class="label" x="23.72" y="60.50">23</text>
<rect class="step" x="21.72" y="72.00" width="4.00" height="3.00" rx="0.35" ry="0.35"/>
<text class="label" x="23.72" y="73.50">24</text>
<rect class="step" x="8.29" y="72.00" width="4.00" height="3.00" rx="0.35" ry="0.35"/>
<text class="label" x="10.29" y="73.50">25</text>
<rect class="step" x="21.72" y="93.00" width="4.00" height="3.00" rx="0.35" ry="0.35"/>
<text class="label" x="23.72" y="94.50">26</text>
<rect class="step" x="21.72" y="102.00" width="4.00" height="3.00" rx="0.35" ry="0.35"/>
<text class="label" x="23.72" y="103.50">27</text>
<rect class="step" x="21.72" y="111.00" width="4.00" height="3.00" rx="0.35" ry="0.35"/>
<text class="label" x="23.72" y="112.50">28</text>
<rect class="step" x="21.72" y="120.00" width="4.00" height="3.00" rx="0.35" ry="0.35"/>
<text class="label" x="23.72" y="121.50">29</text>
<rect class="step" x="75.44" y="13.00" width="4.00" height="3.00" rx="0.35" ry="0.35"/>
<text class="label" x="77.44" y="14.50">30</text>
<rect class="step" x="62.01" y="26.00" width="4.00" height="3.00" rx="0.35" ry="0.35"/>
<text class="label" x="64.01" y="27.50">31</text>
<rect class="step" x="75.44" y="26.00" width="4.00" height="3.00" rx="0.35" ry="0.35"/>
<text class="label" x="77.44" y="27.50">32</text>
<rect class="step" x="88.87" y="26.00" width="4.00" height="3.00" rx="0.35" ry="0.35"/>
<text class="label" x="90.87" y="27.50">33</text>
<rect class="step" x="75.44" y="59.00" width="4.00" height="3.00" rx="0.35" ry="0.35"/>
<text class="label" x="77.44" y="60.50">34</text>
<rect class="step" x="48.58" y="13.00" width="4.00" height="3.00" rx="0.35" ry="0.35"/>
<text class="label" x="50.58" y="14.50">40</text>
<rect class="step" x="21.72" y="26.00" width="4.00" height="3.00" rx="0.35" ry="0.35"/>
<text class="label" x="23.72" y="27.50">41</text>
<rect class="step" x="48.58" y="26.00" width="4.00" height="3.00" rx="0.35" ry="0.35"/>
<text class="label" x="50.58" y="27.50">42</text>
<rect class="step" x="48.58" y="59.00" width="4.00" height="3.00" rx="0.35" ry="0.35"/>
<text class="label" x="50.58" y="60.50">43</text>
<rect class="step" x="-32.00" y="26.00" width="4.00" height="3.00" rx="0.35" ry="0.35"/>
<text class="label" x="-30.00" y="27.50">90</text>
<rect class="step" x="-5.14" y="59.00" width="4.00" height="3.00" rx="0.35" ry="0.35"/>
<text class="label" x="-3.14" y="60.50">91</text>
<rect class="step" x="35.15" y="59.00" width="4.00" height="3.00" rx="0.35" ry="0.35"/>
<text class="label" x="37.15" y="60.50">92</text>
<rect class="step" x="8.29" y="93.00" width="4.00" height="3.00" rx="0.35" ry="0.35"/>
<text class="label" x="10.29" y="94.50">93</text>
<rect class="step" x="35.15" y="93.00" width="4.00" height="3.00" rx="0.35" ry="0.35"/>
<text class="label" x="37.15" y="94.50">94</text>
<rect class="step" x="8.29" y="111.00" width="4.00" height="3.00" rx="0.35" ry="0.35"/>
<text class="label" x="10.29" y="112.50">95</text>
<line class="assoc" x1="25.72" y1="5.50" x2="26.72" y2="5.50"/>
<rect class="action" x="26.72" y="4.07" width="7.43" height="2.86"/>
<text class="action-label" x="30.43" y="5.09"><tspan x="30.43" dy="0">閒置 — 無 App mana</tspan><tspan x="30.43" dy="0.82">gement 請求 待處理</tspan></text>
<line class="assoc" x1="-14.57" y1="14.50" x2="-13.57" y2="14.50"/>
<rect class="action" x="-13.57" y="13.07" width="7.43" height="2.86"/>
<text class="action-label" x="-9.86" y="14.09"><tspan x="-9.86" dy="0">Create opencod</tspan><tspan x="-9.86" dy="0.82">e system 帳號</tspan></text>
<line class="assoc" x1="-14.57" y1="27.50" x2="-13.57" y2="27.50"/>
<rect class="action" x="-13.57" y="26.07" width="7.43" height="2.86"/>
<text class="action-label" x="-9.86" y="27.09"><tspan x="-9.86" dy="0">Establish directory hierarc</tspan><tspan x="-9.86" dy="0.82">hy 使用 correct ownership</tspan></text>
<line class="assoc" x1="-14.57" y1="60.50" x2="-13.57" y2="60.50"/>
<rect class="action" x="-13.57" y="59.07" width="7.43" height="2.86"/>
<text class="action-label" x="-9.86" y="59.68"><tspan x="-9.86" dy="0">Configure Gateway 到</tspan><tspan x="-9.86" dy="0.82">執行 daemon 作為</tspan><tspan x="-9.86" dy="0.82">opencode 使用者</tspan></text>
<line class="assoc" x1="-14.57" y1="73.50" x2="-13.57" y2="73.50"/>
<rect class="action" x="-13.57" y="72.07" width="7.43" height="2.86"/>
<text class="action-label" x="-9.86" y="73.09"><tspan x="-9.86" dy="0">Migrate /tmp dependenci</tspan><tspan x="-9.86" dy="0.82">es 到 system directories</tspan></text>
<line class="assoc" x1="12.29" y1="14.50" x2="13.29" y2="14.50"/>
<rect class="action" x="13.29" y="13.07" width="7.43" height="2.86"/>
<text class="action-label" x="17.00" y="14.09"><tspan x="17.00" dy="0">解析 來源 type (GitH</tspan><tspan x="17.00" dy="0.82">ub URL vs local 路徑)</tspan></text>
<line class="assoc" x1="-1.14" y1="27.50" x2="-0.14" y2="27.50"/>
<rect class="action" x="-0.14" y="26.07" width="7.43" height="2.86"/>
<text class="action-label" x="3.57" y="27.09"><tspan x="3.57" dy="0">Clone remote repository 到</tspan><tspan x="3.57" dy="0.82">/opt/opencode-apps/&lt;id&gt;/</tspan></text>
<line class="assoc" x1="39.15" y1="27.50" x2="40.15" y2="27.50"/>
<rect class="action" x="40.15" y="26.07" width="7.43" height="2.86"/>
<text class="action-label" x="43.87" y="26.68"><tspan x="43.87" dy="0">Verify local 路徑 e</tspan><tspan x="43.87" dy="0.82">xists 與 passes 路</tspan><tspan x="43.87" dy="0.82">徑 traversal check</tspan></text>
<line class="assoc" x1="25.72" y1="60.50" x2="26.72" y2="60.50"/>
<rect class="action" x="26.72" y="59.07" width="7.43" height="2.86"/>
<text class="action-label" x="30.43" y="60.09"><tspan x="30.43" dy="0">Read mcp.js在 來</tspan><tspan x="30.43" dy="0.82">自 App directory</tspan></text>
<line class="assoc" x1="25.72" y1="73.50" x2="26.72" y2="73.50"/>
<rect class="action" x="26.72" y="72.07" width="7.43" height="2.86"/>
<text class="action-label" x="30.43" y="73.09"><tspan x="30.43" dy="0">Validate Manifest</tspan><tspan x="30.43" dy="0.82">against Zod schema</tspan></text>
<line class="assoc" x1="12.29" y1="73.50" x2="13.29" y2="73.50"/>
<rect class="action" x="13.29" y="72.07" width="7.43" height="2.86"/>
<text class="action-label" x="17.00" y="72.68"><tspan x="17.00" dy="0">Infer Manifest 來自 專</tspan><tspan x="17.00" dy="0.82">案 檔案 (package.js在</tspan><tspan x="17.00" dy="0.82">, pyproject.toml, etc.)</tspan></text>
<line class="assoc" x1="25.72" y1="94.50" x2="26.72" y2="94.50"/>
<rect class="action" x="26.72" y="93.07" width="7.43" height="2.86"/>
<text class="action-label" x="30.43" y="94.09"><tspan x="30.43" dy="0">Install runtime dependencies i</tspan><tspan x="30.43" dy="0.82">f dependency 檔案 detected</tspan></text>
<line class="assoc" x1="25.72" y1="103.50" x2="26.72" y2="103.50"/>
<rect class="action" x="26.72" y="102.07" width="7.43" height="2.86"/>
<text class="action-label" x="30.43" y="102.68"><tspan x="30.43" dy="0">探測 App 透過 stdio</tspan><tspan x="30.43" dy="0.82">啟動 與 tools/清單</tspan><tspan x="30.43" dy="0.82">handshake (30s timeout)</tspan></text>
<line class="assoc" x1="25.72" y1="112.50" x2="26.72" y2="112.50"/>
<rect class="action" x="26.72" y="111.07" width="7.43" height="2.86"/>
<text class="action-label" x="30.43" y="112.09"><tspan x="30.43" dy="0">持久化 App 註冊</tspan><tspan x="30.43" dy="0.82">到 mcp-apps.js在</tspan></text>
<line class="assoc" x1="25.72" y1="121.50" x2="26.72" y2="121.50"/>
<rect class="action" x="26.72" y="120.07" width="7.43" height="2.86"/>
<text class="action-label" x="30.43" y="120.68"><tspan x="30.43" dy="0">Report installation</tspan><tspan x="30.43" dy="0.82">結果 到 caller (id,</tspan><tspan x="30.43" dy="0.82">name, tools, 狀態)</tspan></text>
<line class="assoc" x1="79.44" y1="14.50" x2="80.44" y2="14.50"/>
<rect class="action" x="80.44" y="13.07" width="7.43" height="2.86"/>
<text class="action-label" x="84.16" y="14.09"><tspan x="84.16" dy="0">Receive lifecycle command</tspan><tspan x="84.16" dy="0.82">(enable/disable/remove)</tspan></text>
<line class="assoc" x1="66.01" y1="27.50" x2="67.01" y2="27.50"/>
<rect class="action" x="67.01" y="26.07" width="7.43" height="2.86"/>
<text class="action-label" x="70.72" y="27.09"><tspan x="70.72" dy="0">Launch stdio transport</tspan><tspan x="70.72" dy="0.82">與 connect MCP client</tspan></text>
<line class="assoc" x1="79.44" y1="27.50" x2="80.44" y2="27.50"/>
<rect class="action" x="80.44" y="26.07" width="7.43" height="2.86"/>
<text class="action-label" x="84.16" y="27.09"><tspan x="84.16" dy="0">Disconnect stdio transport</tspan><tspan x="84.16" dy="0.82">與 set 狀態 到 disabled</tspan></text>
<line class="assoc" x1="92.87" y1="27.50" x2="93.87" y2="27.50"/>
<rect class="action" x="93.87" y="26.07" width="7.43" height="2.86"/>
<text class="action-label" x="97.59" y="26.68"><tspan x="97.59" dy="0">Disconnect transport</tspan><tspan x="97.59" dy="0.82">與 remove 項目 來</tspan><tspan x="97.59" dy="0.82">自 mcp-apps.js在</tspan></text>
<line class="assoc" x1="79.44" y1="60.50" x2="80.44" y2="60.50"/>
<rect class="action" x="80.44" y="59.07" width="7.43" height="2.86"/>
<text class="action-label" x="84.16" y="60.09"><tspan x="84.16" dy="0">發出 Bus 事件</tspan><tspan x="84.16" dy="0.82">與 更新 UI 狀態</tspan></text>
<line class="assoc" x1="52.58" y1="14.50" x2="53.58" y2="14.50"/>
<rect class="action" x="53.58" y="13.07" width="7.43" height="2.86"/>
<text class="action-label" x="57.30" y="13.68"><tspan x="57.30" dy="0">Load 與 合併 two-</tspan><tspan x="57.30" dy="0.82">tier mcp-apps.js在</tspan><tspan x="57.30" dy="0.82">(system 優先序)</tspan></text>
<line class="assoc" x1="25.72" y1="27.50" x2="26.72" y2="27.50"/>
<rect class="action" x="26.72" y="26.07" width="7.43" height="2.86"/>
<text class="action-label" x="30.43" y="26.68"><tspan x="30.43" dy="0">Launch each 已啟用</tspan><tspan x="30.43" dy="0.82">App 透過 stdio 與 註</tspan><tspan x="30.43" dy="0.82">冊 tools 到 Session pool</tspan></text>
<line class="assoc" x1="52.58" y1="27.50" x2="53.58" y2="27.50"/>
<rect class="action" x="53.58" y="26.07" width="7.43" height="2.86"/>
<text class="action-label" x="57.30" y="26.68"><tspan x="57.30" dy="0">Inject disabled App catalo</tspan><tspan x="57.30" dy="0.82">g 進入 system 提示 供</tspan><tspan x="57.30" dy="0.82">AI 在-demand activation</tspan></text>
<line class="assoc" x1="52.58" y1="60.50" x2="53.58" y2="60.50"/>
<rect class="action" x="53.58" y="59.07" width="7.43" height="2.86"/>
<text class="action-label" x="57.30" y="59.68"><tspan x="57.30" dy="0">合併 launched App tools 使</tspan><tspan x="57.30" dy="0.82">用 existing MCP 伺服器 to</tspan><tspan x="57.30" dy="0.82">ols 進入 unified Session pool</tspan></text>
<line class="assoc" x1="-28.00" y1="27.50" x2="-27.00" y2="27.50"/>
<rect class="action" x="-27.00" y="26.07" width="7.43" height="2.86"/>
<text class="action-label" x="-23.29" y="27.09"><tspan x="-23.29" dy="0">Report system 帳</tspan><tspan x="-23.29" dy="0.82">號 creation failure</tspan></text>
<line class="assoc" x1="-1.14" y1="60.50" x2="-0.14" y2="60.50"/>
<rect class="action" x="-0.14" y="59.07" width="7.43" height="2.86"/>
<text class="action-label" x="3.57" y="60.09"><tspan x="3.57" dy="0">Report clone failure (net</tspan><tspan x="3.57" dy="0.82">work, 驗證, 不 found)</tspan></text>
<line class="assoc" x1="39.15" y1="60.50" x2="40.15" y2="60.50"/>
<rect class="action" x="40.15" y="59.07" width="7.43" height="2.86"/>
<text class="action-label" x="43.87" y="59.68"><tspan x="43.87" dy="0">Report 路徑 validat</tspan><tspan x="43.87" dy="0.82">ion failure (不 found</tspan><tspan x="43.87" dy="0.82">, traversal blocked)</tspan></text>
<line class="assoc" x1="12.29" y1="94.50" x2="13.29" y2="94.50"/>
<rect class="action" x="13.29" y="93.07" width="7.43" height="2.86"/>
<text class="action-label" x="17.00" y="93.68"><tspan x="17.00" dy="0">Report Manifest sch</tspan><tspan x="17.00" dy="0.82">ema validation 錯誤</tspan><tspan x="17.00" dy="0.82">使用 Zod details</tspan></text>
<line class="assoc" x1="39.15" y1="94.50" x2="40.15" y2="94.50"/>
<rect class="action" x="40.15" y="93.07" width="7.43" height="2.86"/>
<text class="action-label" x="43.87" y="93.68"><tspan x="43.87" dy="0">Report Manifest infere</tspan><tspan x="43.87" dy="0.82">nce failure — 使用者</tspan><tspan x="43.87" dy="0.82">must provide command</tspan></text>
<line class="assoc" x1="12.29" y1="112.50" x2="13.29" y2="112.50"/>
<rect class="action" x="13.29" y="111.07" width="7.43" height="2.86"/>
<text class="action-label" x="17.00" y="111.68"><tspan x="17.00" dy="0">Report 探測 failure (</tspan><tspan x="17.00" dy="0.82">command 不 found, tim</tspan><tspan x="17.00" dy="0.82">eout, protocol 錯誤)</tspan></text>
<line class="gate" x1="-21.57" y1="9.00" x2="82.44" y2="9.00"/>
<line class="gate" x1="-32.00" y1="18.00" x2="-14.57" y2="18.00"/>
<line class="gate" x1="-17.57" y1="31.00" x2="-15.57" y2="31.00"/>
<text class="gate-label-left" x="-17.97" y="31.00"><tspan x="-17.97" dy="0">directories就緒</tspan></text>
<line class="gate" x1="-17.57" y1="64.00" x2="-15.57" y2="64.00"/>
<text class="gate-label-left" x="-17.97" y="64.00"><tspan x="-17.97" dy="0">Gatewayconfigured</tspan></text>
<line class="gate" x1="-17.57" y1="77.00" x2="-15.57" y2="77.00"/>
<text class="gate-label-left" x="-17.97" y="77.00"><tspan x="-17.97" dy="0">migration完成</tspan></text>
<line class="gate" x1="-5.14" y1="18.00" x2="39.15" y2="18.00"/>
<line class="gate" x1="31.15" y1="35.00" x2="39.15" y2="35.00"/>
<line class="gate" x1="-4.14" y1="33.00" x2="-2.14" y2="33.00"/>
<text class="gate-label" x="-1.74" y="33.00"><tspan x="-1.74" dy="0">clonefailed</tspan></text>
<line class="gate" x1="36.15" y1="33.00" x2="38.15" y2="33.00"/>
<text class="gate-label" x="38.55" y="33.00"><tspan x="38.55" dy="0">路徑rejected</tspan></text>
<line class="gate" x1="22.72" y1="68.00" x2="24.72" y2="68.00"/>
<text class="gate-label" x="25.12" y="68.00"><tspan x="25.12" dy="0">Manifestfound</tspan></text>
<line class="gate" x1="9.29" y1="68.00" x2="11.29" y2="68.00"/>
<text class="gate-label" x="11.69" y="68.00"><tspan x="11.69" dy="0">Manifest不found</tspan></text>
<line class="gate" x1="8.29" y1="79.00" x2="25.72" y2="79.00"/>
<line class="gate" x1="8.29" y1="87.00" x2="39.15" y2="87.00"/>
<line class="gate" x1="22.72" y1="98.00" x2="24.72" y2="98.00"/>
<text class="gate-label-left" x="22.32" y="98.68"><tspan x="22.32" dy="0">dependencies已解析</tspan></text>
<line class="gate" x1="8.29" y1="107.00" x2="25.72" y2="107.00"/>
<line class="gate" x1="22.72" y1="116.00" x2="24.72" y2="116.00"/>
<text class="gate-label" x="25.12" y="116.00"><tspan x="25.12" dy="0">註冊persisted</tspan></text>
<line class="gate" x1="22.72" y1="125.00" x2="24.72" y2="125.00"/>
<text class="gate-label" x="25.12" y="125.00"><tspan x="25.12" dy="0">結果delivered</tspan></text>
<line class="gate" x1="60.51" y1="18.00" x2="94.37" y2="18.00"/>
<line class="gate" x1="60.51" y1="31.00" x2="94.37" y2="31.00"/>
<line class="gate" x1="76.44" y1="64.00" x2="78.44" y2="64.00"/>
<text class="gate-label" x="78.84" y="64.00"><tspan x="78.84" dy="0">狀態changepublished</tspan></text>
<line class="gate" x1="21.72" y1="23.85" x2="52.58" y2="23.85"/>
<line class="gate" x1="21.72" y1="24.15" x2="52.58" y2="24.15"/>
<line class="gate" x1="21.72" y1="38.85" x2="52.58" y2="38.85"/>
<line class="gate" x1="21.72" y1="39.15" x2="52.58" y2="39.15"/>
<line class="gate" x1="49.58" y1="64.00" x2="51.58" y2="64.00"/>
<text class="gate-label" x="51.98" y="64.00"><tspan x="51.98" dy="0">runtime就緒</tspan></text>
<line class="gate" x1="-31.00" y1="31.00" x2="-29.00" y2="31.00"/>
<text class="gate-label" x="-28.60" y="31.00"><tspan x="-28.60" dy="0">錯誤reported</tspan></text>
<line class="gate" x1="-4.14" y1="64.00" x2="-2.14" y2="64.00"/>
<text class="gate-label" x="-1.74" y="64.00"><tspan x="-1.74" dy="0">錯誤reported</tspan></text>
<line class="gate" x1="36.15" y1="64.00" x2="38.15" y2="64.00"/>
<text class="gate-label" x="38.55" y="64.00"><tspan x="38.55" dy="0">錯誤reported</tspan></text>
<line class="gate" x1="9.29" y1="98.00" x2="11.29" y2="98.00"/>
<text class="gate-label-left" x="8.89" y="98.00"><tspan x="8.89" dy="0">錯誤reported</tspan></text>
<line class="gate" x1="36.15" y1="98.00" x2="38.15" y2="98.00"/>
<text class="gate-label" x="42.75" y="98.00"><tspan x="42.75" dy="0">錯誤reported</tspan></text>
<line class="gate" x1="9.29" y1="116.00" x2="11.29" y2="116.00"/>
<text class="gate-label" x="11.69" y="116.00"><tspan x="11.69" dy="0">錯誤reported</tspan></text>
<line class="gate" x1="-17.57" y1="11.00" x2="-15.57" y2="11.00"/>
<text class="gate-label-left" x="-17.97" y="11.00"><tspan x="-17.97" dy="0">provisionneeded</tspan></text>
<line class="gate" x1="9.29" y1="11.00" x2="11.29" y2="11.00"/>
<text class="gate-label-left" x="8.89" y="11.00"><tspan x="8.89" dy="0">install請求</tspan></text>
<line class="gate" x1="76.44" y1="11.00" x2="78.44" y2="11.00"/>
<text class="gate-label" x="78.84" y="11.00"><tspan x="78.84" dy="0">lifecyclecommand</tspan></text>
<line class="gate" x1="49.58" y1="11.00" x2="51.58" y2="11.00"/>
<text class="gate-label" x="51.98" y="11.00"><tspan x="51.98" dy="0">runtimestartup</tspan></text>
<line class="gate" x1="-17.57" y1="20.00" x2="-15.57" y2="20.00"/>
<text class="gate-label" x="-15.17" y="20.00"><tspan x="-15.17" dy="0">帳號created</tspan></text>
<line class="gate" x1="-31.00" y1="20.00" x2="-29.00" y2="20.00"/>
<text class="gate-label-left" x="-31.40" y="19.32"><tspan x="-31.40" dy="0">帳號</tspan><tspan x="-31.40" dy="0.68">creatio</tspan><tspan x="-31.40" dy="0.68">nfailed</tspan></text>
<line class="gate" x1="-4.14" y1="20.00" x2="-2.14" y2="20.00"/>
<text class="gate-label-left" x="-4.54" y="20.00"><tspan x="-4.54" dy="0">來源是github</tspan></text>
<line class="gate" x1="36.15" y1="20.00" x2="38.15" y2="20.00"/>
<text class="gate-label" x="38.55" y="20.00"><tspan x="38.55" dy="0">來源是local</tspan></text>
<line class="gate" x1="32.15" y1="57.00" x2="34.15" y2="57.00"/>
<text class="gate-label-left" x="31.75" y="57.00"><tspan x="31.75" dy="0">clonesucceeded</tspan></text>
<line class="gate" x1="36.15" y1="57.00" x2="38.15" y2="57.00"/>
<text class="gate-label" x="38.55" y="57.00"><tspan x="38.55" dy="0">路徑valid</tspan></text>
<line class="gate" x1="22.72" y1="81.00" x2="24.72" y2="81.00"/>
<text class="gate-label" x="29.32" y="81.00"><tspan x="29.32" dy="0">schemavalid</tspan></text>
<line class="gate" x1="9.29" y1="81.00" x2="11.29" y2="81.00"/>
<text class="gate-label-left" x="8.89" y="81.00"><tspan x="8.89" dy="0">schemainvalid</tspan></text>
<line class="gate" x1="9.29" y1="91.00" x2="11.29" y2="91.00"/>
<text class="gate-label-left" x="8.89" y="91.00"><tspan x="8.89" dy="0">inferencesucceeded</tspan></text>
<line class="gate" x1="36.15" y1="81.00" x2="38.15" y2="81.00"/>
<text class="gate-label" x="38.55" y="81.00"><tspan x="38.55" dy="0">inferencefailed</tspan></text>
<line class="gate" x1="22.72" y1="109.00" x2="24.72" y2="109.00"/>
<text class="gate-label" x="25.12" y="109.00"><tspan x="25.12" dy="0">探測succeeded</tspan></text>
<line class="gate" x1="9.29" y1="109.00" x2="11.29" y2="109.00"/>
<text class="gate-label-left" x="8.89" y="109.00"><tspan x="8.89" dy="0">探測failed</tspan></text>
<line class="gate" x1="63.01" y1="20.00" x2="65.01" y2="20.00"/>
<text class="gate-label-left" x="62.61" y="20.00"><tspan x="62.61" dy="0">command是enable</tspan></text>
<line class="gate" x1="76.44" y1="20.00" x2="78.44" y2="20.00"/>
<text class="gate-label" x="78.84" y="20.00"><tspan x="78.84" dy="0">command是disable</tspan></text>
<line class="gate" x1="89.87" y1="20.00" x2="91.87" y2="20.00"/>
<text class="gate-label" x="92.27" y="20.00"><tspan x="92.27" dy="0">command是remove</tspan></text>
<line class="gate" x1="63.01" y1="57.00" x2="65.01" y2="57.00"/>
<text class="gate-label-left" x="62.61" y="57.00"><tspan x="62.61" dy="0">appconnected</tspan></text>
<line class="gate" x1="76.44" y1="57.00" x2="78.44" y2="57.00"/>
<text class="gate-label" x="78.84" y="57.00"><tspan x="78.84" dy="0">appdisabled</tspan></text>
<line class="gate" x1="89.87" y1="57.00" x2="91.87" y2="57.00"/>
<text class="gate-label" x="92.27" y="57.00"><tspan x="92.27" dy="0">appremoved</tspan></text>
<line class="gate" x1="49.58" y1="18.00" x2="51.58" y2="18.00"/>
<line class="gate" x1="49.58" y1="57.00" x2="51.58" y2="57.00"/>
<text class="gate-label" x="51.98" y="57.00"><tspan x="51.98" dy="0">all已啟用appsprocessed</tspan></text>
<circle class="junction" cx="23.72" cy="70.00" r="0.22"/>
<circle class="junction" cx="-36.00" cy="79.00" r="0.22"/>
<circle class="junction" cx="-36.00" cy="66.00" r="0.22"/>
<circle class="junction" cx="-36.00" cy="33.00" r="0.22"/>
<circle class="branch-junction" cx="23.72" cy="37.00" r="0.22"/>
<circle class="junction" cx="41.60" cy="85.00" r="0.22"/>
<circle class="branch-junction" cx="41.60" cy="91.00" r="0.22"/>
<circle class="junction" cx="10.29" cy="97.62" r="0.22"/>
<circle class="junction" cx="10.29" cy="99.62" r="0.22"/>
<circle class="junction" cx="10.29" cy="89.00" r="0.22"/>
<circle class="junction" cx="-36.00" cy="102.00" r="0.22"/>
<circle class="junction" cx="-36.00" cy="106.00" r="0.22"/>
<circle class="junction" cx="-36.00" cy="118.00" r="0.22"/>
<circle class="junction" cx="50.58" cy="66.00" r="0.22"/>
<circle class="junction" cx="-3.14" cy="66.00" r="0.22"/>
<circle class="junction" cx="37.15" cy="66.00" r="0.22"/>
<circle class="branch-junction" cx="-3.14" cy="31.00" r="0.28"/>
<circle class="branch-junction" cx="37.15" cy="31.00" r="0.28"/>
<circle class="branch-junction" cx="23.72" cy="64.00" r="0.28"/>
</svg>