<svg xmlns="http://www.w3.org/2000/svg" width="980" height="2510" viewBox="0 0 980 2510" role="img" aria-label="harness GRAFCET A0">
<defs><marker id="arrow" markerWidth="10" markerHeight="10" refX="8" refY="3" orient="auto" markerUnits="strokeWidth"><path d="M0,0 L0,6 L9,3 z" fill="#111"/></marker></defs>
<style>
.title{font:bold 26px serif;fill:#111}.meta{font:14px monospace;fill:#555}.step{fill:#fff;stroke:#111;stroke-width:2}.step-inner{fill:none;stroke:#111;stroke-width:1.5}.step-no{font:bold 22px serif;text-anchor:middle;dominant-baseline:middle}.assoc,.edge{stroke:#111;stroke-width:2;fill:none}.action{fill:#fff;stroke:#111;stroke-width:2}.module{fill:#f8fafc;stroke:#475569;stroke-width:1.5}.label{font:18px serif;fill:#111}.module-label{font:15px monospace;fill:#334155}.gate{font:14px serif;fill:#444}.gate-line{stroke:#111;stroke-width:2}
</style>
<rect width="100%" height="100%" fill="white"/>
<text class="title" x="40" y="42">harness GRAFCET A0</text><text class="meta" x="40" y="70">source: specs/harness/grafcet.json · layer: A0</text><rect class="step" x="54" y="105" width="72" height="72" rx="9"/><rect class="step-inner" x="62" y="113" width="56" height="56" rx="7"/><text class="step-no" x="90" y="149">0</text><line class="assoc" x1="126" y1="141" x2="160" y2="141"/><rect class="action" x="160" y="105" width="500" height="72" rx="8"/><text class="label" x="176" y="129"><tspan x="176" dy="0">等待使用者輸入閒置</tspan></text><rect class="module" x="690" y="105" width="220" height="72" rx="8"/><text class="module-label" x="704" y="132"><tspan x="704" dy="0">ModuleRef: A0</tspan></text><text class="gate" x="176" y="197"><tspan x="176" dy="0">使用者訊息已收到</tspan></text><path class="edge" d="M90 177 L90 225" marker-end="url(#arrow)"/><line class="gate-line" x1="58" y1="199" x2="122" y2="199"/><rect class="step" x="54" y="225" width="72" height="72" rx="9"/><text class="step-no" x="90" y="269">1</text><line class="assoc" x1="126" y1="261" x2="160" y2="261"/><rect class="action" x="160" y="225" width="500" height="72" rx="8"/><text class="label" x="176" y="249"><tspan x="176" dy="0">納入使用者文字移除合成</tspan></text><rect class="module" x="690" y="225" width="220" height="72" rx="8"/><text class="module-label" x="704" y="252"><tspan x="704" dy="0">ModuleRef: A21</tspan></text><text class="gate" x="176" y="317"><tspan x="176" dy="0">使用者文字已取出</tspan></text><path class="edge" d="M90 297 L90 345" marker-end="url(#arrow)"/><line class="gate-line" x1="58" y1="319" x2="122" y2="319"/><rect class="step" x="54" y="345" width="72" height="72" rx="9"/><text class="step-no" x="90" y="389">2</text><line class="assoc" x1="126" y1="381" x2="160" y2="381"/><rect class="action" x="160" y="345" width="500" height="72" rx="8"/><text class="label" x="176" y="369"><tspan x="176" dy="0">預載與釘選必要技能</tspan></text><rect class="module" x="690" y="345" width="220" height="72" rx="8"/><text class="module-label" x="704" y="372"><tspan x="704" dy="0">ModuleRef: A1</tspan></text><text class="gate" x="176" y="437"><tspan x="176" dy="0">技能已解析 &amp;&amp; 釘選完成</tspan></text><path class="edge" d="M90 417 L90 465" marker-end="url(#arrow)"/><line class="gate-line" x1="58" y1="439" x2="122" y2="439"/><rect class="step" x="54" y="465" width="72" height="72" rx="9"/><text class="step-no" x="90" y="509">3</text><line class="assoc" x1="126" y1="501" x2="160" y2="501"/><rect class="action" x="160" y="465" width="500" height="72" rx="8"/><text class="label" x="176" y="489"><tspan x="176" dy="0">比對啟用停用短語與更新工作流程</tspan></text><rect class="module" x="690" y="465" width="220" height="72" rx="8"/><text class="module-label" x="704" y="492"><tspan x="704" dy="0">ModuleRef: A22</tspan></text><text class="gate" x="176" y="557"><tspan x="176" dy="0">工作流程自主已啟用 == 是; 工作流程自主已啟用 == 否</tspan></text><path class="edge" d="M90 537 L90 585" marker-end="url(#arrow)"/><line class="gate-line" x1="58" y1="559" x2="122" y2="559"/><rect class="step" x="54" y="585" width="72" height="72" rx="9"/><text class="step-no" x="90" y="629">4</text><line class="assoc" x1="126" y1="621" x2="160" y2="621"/><rect class="action" x="160" y="585" width="500" height="72" rx="8"/><text class="label" x="176" y="609"><tspan x="176" dy="0">規劃延續已啟用路徑</tspan></text><rect class="module" x="690" y="585" width="220" height="72" rx="8"/><text class="module-label" x="704" y="612"><tspan x="704" dy="0">ModuleRef: A24</tspan></text><text class="gate" x="176" y="677"><tspan x="176" dy="0">父層ID==空 &amp;&amp; 下一個可執行待辦!=空</tspan></text><path class="edge" d="M90 657 L90 705" marker-end="url(#arrow)"/><line class="gate-line" x1="58" y1="679" x2="122" y2="679"/><rect class="step" x="54" y="705" width="72" height="72" rx="9"/><text class="step-no" x="90" y="749">5</text><line class="assoc" x1="126" y1="741" x2="160" y2="741"/><rect class="action" x="160" y="705" width="500" height="72" rx="8"/><text class="label" x="176" y="729"><tspan x="176" dy="0">視為作為單次回合使用者回合</tspan></text><rect class="module" x="690" y="705" width="220" height="72" rx="8"/><text class="module-label" x="704" y="732"><tspan x="704" dy="0">ModuleRef: A24</tspan></text><text class="gate" x="176" y="797"><tspan x="176" dy="0">單次回合就緒</tspan></text><path class="edge" d="M90 777 L90 825" marker-end="url(#arrow)"/><line class="gate-line" x1="58" y1="799" x2="122" y2="799"/><rect class="step" x="54" y="825" width="72" height="72" rx="9"/><text class="step-no" x="90" y="869">6</text><line class="assoc" x1="126" y1="861" x2="160" y2="861"/><rect class="action" x="160" y="825" width="500" height="72" rx="8"/><text class="label" x="176" y="849"><tspan x="176" dy="0">組裝提示與執行模型步驟</tspan></text><rect class="module" x="690" y="825" width="220" height="72" rx="8"/><text class="module-label" x="704" y="852"><tspan x="704" dy="0">ModuleRef: A0</tspan></text><text class="gate" x="176" y="917"><tspan x="176" dy="0">工具呼叫任務派發; 工具呼叫問題; 助手完成無工具; 工具呼叫其他平行</tspan></text><path class="edge" d="M90 897 L90 945" marker-end="url(#arrow)"/><line class="gate-line" x1="58" y1="919" x2="122" y2="919"/><rect class="step" x="54" y="945" width="72" height="72" rx="9"/><text class="step-no" x="90" y="989">7</text><line class="assoc" x1="126" y1="981" x2="160" y2="981"/><rect class="action" x="160" y="945" width="500" height="72" rx="8"/><text class="label" x="176" y="969"><tspan x="176" dy="0">派發子代理非同步與繼續回合</tspan></text><rect class="module" x="690" y="945" width="220" height="72" rx="8"/><text class="module-label" x="704" y="972"><tspan x="704" dy="0">ModuleRef: A3</tspan></text><text class="gate" x="176" y="1037"><tspan x="176" dy="0">已派發==是 &amp;&amp; 父層回合已返回</tspan></text><path class="edge" d="M90 1017 L90 1065" marker-end="url(#arrow)"/><line class="gate-line" x1="58" y1="1039" x2="122" y2="1039"/><rect class="step" x="54" y="1065" width="72" height="72" rx="9"/><rect class="step-inner" x="62" y="1073" width="56" height="56" rx="7"/><text class="step-no" x="90" y="1109">70</text><line class="assoc" x1="126" y1="1101" x2="160" y2="1101"/><rect class="action" x="160" y="1065" width="500" height="72" rx="8"/><text class="label" x="176" y="1089"><tspan x="176" dy="0">排入佇列工作與返回佔位結果</tspan></text><rect class="module" x="690" y="1065" width="220" height="72" rx="8"/><text class="module-label" x="704" y="1092"><tspan x="704" dy="0">ModuleRef: A31</tspan></text><text class="gate" x="176" y="1157"><tspan x="176" dy="0">工作 ID 已註冊</tspan></text><path class="edge" d="M90 1137 L90 1185" marker-end="url(#arrow)"/><line class="gate-line" x1="58" y1="1159" x2="122" y2="1159"/><rect class="step" x="54" y="1185" width="72" height="72" rx="9"/><text class="step-no" x="90" y="1229">71</text><line class="assoc" x1="126" y1="1221" x2="160" y2="1221"/><rect class="action" x="160" y="1185" width="500" height="72" rx="8"/><text class="label" x="176" y="1209"><tspan x="176" dy="0">掃描看門狗程序</tspan></text><rect class="module" x="690" y="1185" width="220" height="72" rx="8"/><text class="module-label" x="704" y="1212"><tspan x="704" dy="0">ModuleRef: A32</tspan></text><text class="gate" x="176" y="1277"><tspan x="176" dy="0">磁碟終止 || 工作程序已死亡 || 靜默終止; 仍在執行</tspan></text><path class="edge" d="M90 1257 L90 1305" marker-end="url(#arrow)"/><line class="gate-line" x1="58" y1="1279" x2="122" y2="1279"/><rect class="step" x="54" y="1305" width="72" height="72" rx="9"/><text class="step-no" x="90" y="1349">72</text><line class="assoc" x1="126" y1="1341" x2="160" y2="1341"/><rect class="action" x="160" y="1305" width="500" height="72" rx="8"/><text class="label" x="176" y="1329"><tspan x="176" dy="0">發出任務已完成與追加待處理通知</tspan></text><rect class="module" x="690" y="1305" width="220" height="72" rx="8"/><text class="module-label" x="704" y="1332"><tspan x="704" dy="0">ModuleRef: A34</tspan></text><text class="gate" x="176" y="1397"><tspan x="176" dy="0">待處理子代理通知已追加</tspan></text><path class="edge" d="M90 1377 L90 1425" marker-end="url(#arrow)"/><line class="gate-line" x1="58" y1="1399" x2="122" y2="1399"/><rect class="step" x="54" y="1425" width="72" height="72" rx="9"/><text class="step-no" x="90" y="1469">73</text><line class="assoc" x1="126" y1="1461" x2="160" y2="1461"/><rect class="action" x="160" y="1425" width="500" height="72" rx="8"/><text class="label" x="176" y="1449"><tspan x="176" dy="0">閒置直到下一個父層組裝</tspan></text><rect class="module" x="690" y="1425" width="220" height="72" rx="8"/><text class="module-label" x="704" y="1452"><tspan x="704" dy="0">ModuleRef: A36</tspan></text><text class="gate" x="176" y="1517"><tspan x="176" dy="0">1</tspan></text><path class="edge" d="M90 1497 L90 1545" marker-end="url(#arrow)"/><line class="gate-line" x1="58" y1="1519" x2="122" y2="1519"/><rect class="step" x="54" y="1545" width="72" height="72" rx="9"/><text class="step-no" x="90" y="1589">8</text><line class="assoc" x1="126" y1="1581" x2="160" y2="1581"/><rect class="action" x="160" y="1545" width="500" height="72" rx="8"/><text class="label" x="176" y="1569"><tspan x="176" dy="0">詢問問題區塊並等待回覆</tspan></text><rect class="module" x="690" y="1545" width="220" height="72" rx="8"/><text class="module-label" x="704" y="1572"><tspan x="704" dy="0">ModuleRef: A5</tspan></text><text class="gate" x="176" y="1637"><tspan x="176" dy="0">回覆已收到或已解析; 中止訊號已觸發</tspan></text><path class="edge" d="M90 1617 L90 1665" marker-end="url(#arrow)"/><line class="gate-line" x1="58" y1="1639" x2="122" y2="1639"/><rect class="step" x="54" y="1665" width="72" height="72" rx="9"/><text class="step-no" x="90" y="1709">9</text><line class="assoc" x1="126" y1="1701" x2="160" y2="1701"/><rect class="action" x="160" y="1665" width="500" height="72" rx="8"/><text class="label" x="176" y="1689"><tspan x="176" dy="0">結束無更多工具回合</tspan></text><rect class="module" x="690" y="1665" width="220" height="72" rx="8"/><text class="module-label" x="704" y="1692"><tspan x="704" dy="0">ModuleRef: A0</tspan></text><text class="gate" x="176" y="1757"><tspan x="176" dy="0">助手乾淨完成</tspan></text><path class="edge" d="M90 1737 L90 1785" marker-end="url(#arrow)"/><line class="gate-line" x1="58" y1="1759" x2="122" y2="1759"/><rect class="step" x="54" y="1785" width="72" height="72" rx="9"/><text class="step-no" x="90" y="1829">10</text><line class="assoc" x1="126" y1="1821" x2="160" y2="1821"/><rect class="action" x="160" y="1785" width="500" height="72" rx="8"/><text class="label" x="176" y="1809"><tspan x="176" dy="0">平行執行其他工具</tspan></text><rect class="module" x="690" y="1785" width="220" height="72" rx="8"/><text class="module-label" x="704" y="1812"><tspan x="704" dy="0">ModuleRef: A0</tspan></text><text class="gate" x="176" y="1877"><tspan x="176" dy="0">所有工具結果就緒</tspan></text><path class="edge" d="M90 1857 L90 1905" marker-end="url(#arrow)"/><line class="gate-line" x1="58" y1="1879" x2="122" y2="1879"/><rect class="step" x="54" y="1905" width="72" height="72" rx="9"/><text class="step-no" x="90" y="1949">11</text><line class="assoc" x1="126" y1="1941" x2="160" y2="1941"/><rect class="action" x="160" y="1905" width="500" height="72" rx="8"/><text class="label" x="176" y="1929"><tspan x="176" dy="0">合併工具結果回到進入回合</tspan></text><rect class="module" x="690" y="1905" width="220" height="72" rx="8"/><text class="module-label" x="704" y="1932"><tspan x="704" dy="0">ModuleRef: A0</tspan></text><text class="gate" x="176" y="1997"><tspan x="176" dy="0">工具結果已提交</tspan></text><path class="edge" d="M90 1977 L90 2025" marker-end="url(#arrow)"/><line class="gate-line" x1="58" y1="1999" x2="122" y2="1999"/><rect class="step" x="54" y="2025" width="72" height="72" rx="9"/><text class="step-no" x="90" y="2069">12</text><line class="assoc" x1="126" y1="2061" x2="160" y2="2061"/><rect class="action" x="160" y="2025" width="500" height="72" rx="8"/><text class="label" x="176" y="2049"><tspan x="176" dy="0">檢查子代理配額軟收尾門檻</tspan></text><rect class="module" x="690" y="2025" width="220" height="72" rx="8"/><text class="module-label" x="704" y="2052"><tspan x="704" dy="0">ModuleRef: A4</tspan></text><text class="gate" x="176" y="2117"><tspan x="176" dy="0">是子代理會話 &amp;&amp; 配額低於紅線 -&gt; 下一回合收尾; 無配額觸發</tspan></text><path class="edge" d="M90 2097 L90 2145" marker-end="url(#arrow)"/><line class="gate-line" x1="58" y1="2119" x2="122" y2="2119"/><rect class="step" x="54" y="2145" width="72" height="72" rx="9"/><text class="step-no" x="90" y="2189">13</text><line class="assoc" x1="126" y1="2181" x2="160" y2="2181"/><rect class="action" x="160" y="2145" width="500" height="72" rx="8"/><text class="label" x="176" y="2169"><tspan x="176" dy="0">規劃下一個動作繼續或停止</tspan></text><rect class="module" x="690" y="2145" width="220" height="72" rx="8"/><text class="module-label" x="704" y="2172"><tspan x="704" dy="0">ModuleRef: A24</tspan></text><text class="gate" x="176" y="2237"><tspan x="176" dy="0">已啟用 &amp;&amp; (下一個可執行待辦!=空 || 補充啟用規劃); 停止：子代理會話或未啟用或待辦完成</tspan></text><path class="edge" d="M90 2217 L90 2265" marker-end="url(#arrow)"/><line class="gate-line" x1="58" y1="2239" x2="122" y2="2239"/><rect class="step" x="54" y="2265" width="72" height="72" rx="9"/><text class="step-no" x="90" y="2309">14</text><line class="assoc" x1="126" y1="2301" x2="160" y2="2301"/><rect class="action" x="160" y="2265" width="500" height="72" rx="8"/><text class="label" x="176" y="2289"><tspan x="176" dy="0">閒置會話直到使用者或心跳</tspan></text><rect class="module" x="690" y="2265" width="220" height="72" rx="8"/><text class="module-label" x="704" y="2292"><tspan x="704" dy="0">ModuleRef: A6</tspan></text><text class="gate" x="176" y="2357"><tspan x="176" dy="0">下一個使用者訊息; 排程心跳派發到期工作</tspan></text><path class="edge" d="M90 2337 L90 2385" marker-end="url(#arrow)"/><line class="gate-line" x1="58" y1="2359" x2="122" y2="2359"/><rect class="step" x="54" y="2385" width="72" height="72" rx="9"/><text class="step-no" x="90" y="2429">15</text><line class="assoc" x1="126" y1="2421" x2="160" y2="2421"/><rect class="action" x="160" y="2385" width="500" height="72" rx="8"/><text class="label" x="176" y="2409"><tspan x="176" dy="0">排程器派發工作並注入合成使用者</tspan></text><rect class="module" x="690" y="2385" width="220" height="72" rx="8"/><text class="module-label" x="704" y="2412"><tspan x="704" dy="0">ModuleRef: A6</tspan></text><text class="gate" x="176" y="2477"><tspan x="176" dy="0">工作已派發 &amp;&amp; 合成訊息已種入</tspan></text>
</svg>
