<svg xmlns="http://www.w3.org/2000/svg" width="740" height="580" viewBox="4.00 0.00 37.00 29.00" role="img">
<style>
.step{fill:#fff;stroke:#111;stroke-width:.14}.step-inner{fill:none;stroke:#111;stroke-width:.08}
.action{fill:#fff;stroke:#111;stroke-width:.14}.gate{stroke:#111;stroke-width:.16}
.edge{fill:none;stroke:#111;stroke-width:.05;stroke-linecap:round;stroke-linejoin:round}.edge-arrow{marker-end:url(#arrow)}
.flyover-mask{stroke:#fff;stroke-width:.12;stroke-linecap:round}
.flyover{fill:none;stroke:#111;stroke-width:.05;stroke-linecap:round}
.junction{fill:#111;stroke:#111;stroke-width:0}.branch-junction{fill:#fff;stroke:#111;stroke-width:.08}
.assoc{stroke:#111;stroke-width:.05}.label{font:bold .7px 'Times New Roman', 'BiauKai', 'DFKai-SB', serif;text-anchor:middle;dominant-baseline:middle}
.action-label{font:.55px 'Times New Roman', 'BiauKai', 'DFKai-SB', serif;text-anchor:middle;dominant-baseline:middle}.gate-label{font:italic .55px 'Times New Roman', 'BiauKai', 'DFKai-SB', serif;text-anchor:start;dominant-baseline:middle}.gate-label-left{font:italic .55px 'Times New Roman', 'BiauKai', 'DFKai-SB', serif;text-anchor:end;dominant-baseline:middle}
</style>
<defs><marker id="arrow" markerWidth="0.4" markerHeight="0.4" refX="0.36" refY="0.2" orient="auto" markerUnits="userSpaceOnUse"><path d="M 0 0 L 0.4 0.2 L 0 0.4 z" fill="#111"/></marker></defs>
<rect x="4.00" y="0.00" width="37.00" height="29.00" fill="white"/>
<path class="edge edge-arrow" d="M 30.00 7.00 L 30.00 9.00"/>
<path class="edge edge-arrow" d="M 10.00 9.00 L 10.00 13.00"/>
<path class="edge edge-arrow" d="M 20.00 9.00 L 20.00 13.00"/>
<path class="edge edge-arrow" d="M 20.00 16.00 L 20.00 20.00"/>
<path class="edge edge-arrow" d="M 20.00 20.00 L 20.00 22.00"/>
<rect class="step" x="18.00" y="4.00" width="4.00" height="3.00" rx="0.35" ry="0.35"/>
<rect class="step-inner" x="18.25" y="4.25" width="3.50" height="2.50" rx="0.22" ry="0.22"/>
<text class="label" x="20.00" y="5.50">0</text>
<rect class="step" x="28.00" y="4.00" width="4.00" height="3.00" rx="0.35" ry="0.35"/>
<text class="label" x="30.00" y="5.50">6</text>
<rect class="step" x="8.00" y="13.00" width="4.00" height="3.00" rx="0.35" ry="0.35"/>
<text class="label" x="10.00" y="14.50">9</text>
<rect class="step" x="18.00" y="13.00" width="4.00" height="3.00" rx="0.35" ry="0.35"/>
<text class="label" x="20.00" y="14.50">10</text>
<rect class="step" x="18.00" y="22.00" width="4.00" height="3.00" rx="0.35" ry="0.35"/>
<text class="label" x="20.00" y="23.50">11</text>
<line class="assoc" x1="22.00" y1="5.50" x2="23.00" y2="5.50"/>
<rect class="action" x="23.00" y="4.07" width="4.00" height="2.86"/>
<text class="action-label" x="25.00" y="4.68"><tspan x="25.00" dy="0">等待使</tspan><tspan x="25.00" dy="0.82">用者輸</tspan><tspan x="25.00" dy="0.82">入閒置</tspan></text>
<line class="assoc" x1="32.00" y1="5.50" x2="33.00" y2="5.50"/>
<rect class="action" x="33.00" y="4.07" width="4.00" height="2.86"/>
<text class="action-label" x="35.00" y="4.68"><tspan x="35.00" dy="0">組裝提示</tspan><tspan x="35.00" dy="0.82">與執行模</tspan><tspan x="35.00" dy="0.82">型步驟</tspan></text>
<line class="assoc" x1="12.00" y1="14.50" x2="13.00" y2="14.50"/>
<rect class="action" x="13.00" y="13.07" width="4.00" height="2.86"/>
<text class="action-label" x="15.00" y="13.68"><tspan x="15.00" dy="0">結束無</tspan><tspan x="15.00" dy="0.82">更多工</tspan><tspan x="15.00" dy="0.82">具回合</tspan></text>
<line class="assoc" x1="22.00" y1="14.50" x2="23.00" y2="14.50"/>
<rect class="action" x="23.00" y="13.07" width="4.00" height="2.86"/>
<text class="action-label" x="25.00" y="14.09"><tspan x="25.00" dy="0">平行執行</tspan><tspan x="25.00" dy="0.82">其他工具</tspan></text>
<line class="assoc" x1="22.00" y1="23.50" x2="23.00" y2="23.50"/>
<rect class="action" x="23.00" y="22.07" width="4.00" height="2.86"/>
<text class="action-label" x="25.00" y="22.68"><tspan x="25.00" dy="0">合併工具</tspan><tspan x="25.00" dy="0.82">結果回到</tspan><tspan x="25.00" dy="0.82">進入回合</tspan></text>
<line class="gate" x1="8.00" y1="9.00" x2="32.00" y2="9.00"/>
<line class="gate" x1="18.00" y1="20.00" x2="22.00" y2="20.00"/>
<line class="gate" x1="9.00" y1="11.00" x2="11.00" y2="11.00"/>
<text class="gate-label-left" x="8.60" y="10.32"><tspan x="8.60" dy="0">助手</tspan><tspan x="8.60" dy="0.68">完成</tspan><tspan x="8.60" dy="0.68">無工具</tspan></text>
<line class="gate" x1="19.00" y1="11.00" x2="21.00" y2="11.00"/>
<text class="gate-label" x="21.40" y="11.00"><tspan x="21.40" dy="0">工具呼叫其他平行</tspan></text>
<line class="gate" x1="19.00" y1="18.00" x2="21.00" y2="18.00"/>
<text class="gate-label" x="21.40" y="18.00"><tspan x="21.40" dy="0">所有工具結果就緒</tspan></text>
</svg>