<svg xmlns="http://www.w3.org/2000/svg" width="1360" height="2400" viewBox="-17.00 -2.00 68.00 120.00" role="img">
<style>
.step{fill:#fff;stroke:#111;stroke-width:.14}.step-inner{fill:none;stroke:#111;stroke-width:.08}
.action{fill:#fff;stroke:#111;stroke-width:.14}.gate{stroke:#111;stroke-width:.16}
.edge{fill:none;stroke:#111;stroke-width:.05;stroke-linecap:round;stroke-linejoin:round}.edge-arrow{marker-end:url(#arrow)}
.flyover-mask{stroke:#fff;stroke-width:.12;stroke-linecap:round}
.flyover{fill:none;stroke:#111;stroke-width:.05;stroke-linecap:round}
.junction{fill:#111;stroke:#111;stroke-width:0}.branch-junction{fill:#fff;stroke:#111;stroke-width:.08}
.assoc{stroke:#111;stroke-width:.05}.label{font:bold .7px 'Times New Roman', 'BiauKai', 'DFKai-SB', serif;text-anchor:middle;dominant-baseline:middle}
.action-label{font:.55px 'Times New Roman', 'BiauKai', 'DFKai-SB', serif;text-anchor:middle;dominant-baseline:middle}.gate-label{font:italic .55px 'Times New Roman', 'BiauKai', 'DFKai-SB', serif;text-anchor:start;dominant-baseline:middle}.gate-label-left{font:italic .55px 'Times New Roman', 'BiauKai', 'DFKai-SB', serif;text-anchor:end;dominant-baseline:middle}
.debug-gap-band{fill:#fff3bf;stroke:#f59f00;stroke-width:.04;opacity:.22}.debug-gap-area{fill:#74c0fc;stroke:#1971c2;stroke-width:.05;opacity:.24}.debug-gap-line{stroke:#e67700;stroke-width:.05;stroke-dasharray:.4 .25}.debug-gap-label{font:bold .55px 'Times New Roman', 'BiauKai', 'DFKai-SB', serif;fill:#0b7285;text-anchor:start;dominant-baseline:hanging}.debug-gap-label-right{text-anchor:end}.debug-gap-item-label{font:bold .46px 'Times New Roman', 'BiauKai', 'DFKai-SB', serif;fill:#1864ab;text-anchor:start;dominant-baseline:hanging}
</style>
<defs><marker id="arrow" markerWidth="0.4" markerHeight="0.4" refX="0.36" refY="0.2" orient="auto" markerUnits="userSpaceOnUse"><path d="M 0 0 L 0.4 0.2 L 0 0.4 z" fill="#111"/></marker></defs>
<rect x="-17.00" y="-2.00" width="68.00" height="120.00" fill="white"/>
<rect class="debug-gap-band" x="-16.50" y="7.00" width="67.00" height="4.00" data-gap-id="gap:0"/>
<line class="debug-gap-line" x1="-16.50" y1="7.00" x2="50.50" y2="7.00"/>
<line class="debug-gap-line" x1="-16.50" y1="11.00" x2="50.50" y2="11.00"/>
<rect class="debug-gap-area" x="-16.50" y="7.00" width="67.00" height="4.00" data-gap-id="gap:0:area:0"/>
<text class="debug-gap-label debug-gap-label-right" x="50.15" y="7.45" data-gap-id="gap:0:area:0"><tspan x="50.15" dy="0">gap 0 total 4.0U</tspan><tspan x="50.15" dy="0.62">0.0 box_to_box 4.0U lanes=1</tspan></text>
<text class="debug-gap-item-label" x="20.35" y="8.08" data-gap-id="gap:0:area:0">transition:T1 G0</text>
<rect class="debug-gap-band" x="-16.50" y="14.00" width="67.00" height="4.00" data-gap-id="gap:1"/>
<line class="debug-gap-line" x1="-16.50" y1="14.00" x2="50.50" y2="14.00"/>
<line class="debug-gap-line" x1="-16.50" y1="18.00" x2="50.50" y2="18.00"/>
<rect class="debug-gap-area" x="-16.50" y="14.00" width="67.00" height="4.00" data-gap-id="gap:1:area:0"/>
<text class="debug-gap-label debug-gap-label-right" x="50.15" y="14.45" data-gap-id="gap:1:area:0"><tspan x="50.15" dy="0">gap 1 total 4.0U</tspan><tspan x="50.15" dy="0.62">1.0 box_to_box 4.0U lanes=1</tspan></text>
<text class="debug-gap-item-label" x="20.35" y="15.08" data-gap-id="gap:1:area:0">transition:T2 G0</text>
<rect class="debug-gap-band" x="-16.50" y="21.00" width="67.00" height="4.00" data-gap-id="gap:2"/>
<line class="debug-gap-line" x1="-16.50" y1="21.00" x2="50.50" y2="21.00"/>
<line class="debug-gap-line" x1="-16.50" y1="25.00" x2="50.50" y2="25.00"/>
<rect class="debug-gap-area" x="-16.50" y="21.00" width="67.00" height="4.00" data-gap-id="gap:2:area:0"/>
<text class="debug-gap-label debug-gap-label-right" x="50.15" y="21.45" data-gap-id="gap:2:area:0"><tspan x="50.15" dy="0">gap 2 total 4.0U</tspan><tspan x="50.15" dy="0.62">2.0 box_to_box 4.0U lanes=1</tspan></text>
<text class="debug-gap-item-label" x="20.35" y="22.08" data-gap-id="gap:2:area:0">transition:T3 G0</text>
<rect class="debug-gap-band" x="-16.50" y="28.00" width="67.00" height="6.00" data-gap-id="gap:3"/>
<line class="debug-gap-line" x1="-16.50" y1="28.00" x2="50.50" y2="28.00"/>
<line class="debug-gap-line" x1="-16.50" y1="34.00" x2="50.50" y2="34.00"/>
<rect class="debug-gap-area" x="-16.50" y="28.00" width="67.00" height="6.00" data-gap-id="gap:3:area:0"/>
<text class="debug-gap-label debug-gap-label-right" x="50.15" y="28.45" data-gap-id="gap:3:area:0"><tspan x="50.15" dy="0">gap 3 total 6.0U</tspan><tspan x="50.15" dy="0.62">3.0 box_to_box 6.0U lanes=2</tspan></text>
<text class="debug-gap-item-label" x="15.35" y="29.08" data-gap-id="gap:3:area:0">diverge:3 G0</text>
<text class="debug-gap-item-label" x="10.35" y="31.08" data-gap-id="gap:3:area:0">T4 G1</text>
<text class="debug-gap-item-label" x="20.35" y="31.08" data-gap-id="gap:3:area:0">T5 G2</text>
<rect class="debug-gap-band" x="-16.50" y="37.00" width="67.00" height="8.00" data-gap-id="gap:4"/>
<line class="debug-gap-line" x1="-16.50" y1="37.00" x2="50.50" y2="37.00"/>
<line class="debug-gap-line" x1="-16.50" y1="45.00" x2="50.50" y2="45.00"/>
<rect class="debug-gap-area" x="-16.50" y="37.00" width="67.00" height="8.00" data-gap-id="gap:4:area:0"/>
<text class="debug-gap-label debug-gap-label-right" x="50.15" y="37.45" data-gap-id="gap:4:area:0"><tspan x="50.15" dy="0">gap 4 total 8.0U</tspan><tspan x="50.15" dy="0.62">4.0 box_to_box 8.0U lanes=3</tspan></text>
<text class="debug-gap-item-label" x="10.35" y="38.08" data-gap-id="gap:4:area:0">T6 G0</text>
<text class="debug-gap-item-label" x="20.35" y="38.08" data-gap-id="gap:4:area:0">T7 G1</text>
<text class="debug-gap-item-label" x="15.35" y="40.08" data-gap-id="gap:4:area:0">converge:6 G2</text>
<text class="debug-gap-item-label" x="-15.65" y="42.58" data-gap-id="gap:4:area:0">R63 G3</text>
<rect class="debug-gap-band" x="-16.50" y="48.00" width="67.00" height="6.00" data-gap-id="gap:5"/>
<line class="debug-gap-line" x1="-16.50" y1="48.00" x2="50.50" y2="48.00"/>
<line class="debug-gap-line" x1="-16.50" y1="54.00" x2="50.50" y2="54.00"/>
<rect class="debug-gap-area" x="-16.50" y="48.00" width="67.00" height="6.00" data-gap-id="gap:5:area:0"/>
<text class="debug-gap-label debug-gap-label-right" x="50.15" y="48.45" data-gap-id="gap:5:area:0"><tspan x="50.15" dy="0">gap 5 total 6.0U</tspan><tspan x="50.15" dy="0.62">5.0 box_to_box 6.0U lanes=2</tspan></text>
<text class="debug-gap-item-label" x="15.35" y="49.08" data-gap-id="gap:5:area:0">diverge:6 G0</text>
<text class="debug-gap-item-label" x="0.35" y="51.08" data-gap-id="gap:5:area:0">T8 G1</text>
<text class="debug-gap-item-label" x="10.35" y="51.08" data-gap-id="gap:5:area:0">T11 G2</text>
<text class="debug-gap-item-label" x="20.35" y="51.08" data-gap-id="gap:5:area:0">T10 G3</text>
<text class="debug-gap-item-label" x="30.35" y="51.08" data-gap-id="gap:5:area:0">T9 G4</text>
<rect class="debug-gap-band" x="-16.50" y="57.00" width="67.00" height="10.00" data-gap-id="gap:6"/>
<line class="debug-gap-line" x1="-16.50" y1="57.00" x2="50.50" y2="57.00"/>
<line class="debug-gap-line" x1="-16.50" y1="67.00" x2="50.50" y2="67.00"/>
<rect class="debug-gap-area" x="-16.50" y="57.00" width="67.00" height="10.00" data-gap-id="gap:6:area:0"/>
<text class="debug-gap-label debug-gap-label-right" x="50.15" y="57.45" data-gap-id="gap:6:area:0"><tspan x="50.15" dy="0">gap 6 total 10.0U</tspan><tspan x="50.15" dy="0.62">6.0 box_to_box 10.0U lanes=4</tspan></text>
<text class="debug-gap-item-label" x="30.35" y="58.58" data-gap-id="gap:6:area:0">8 G0</text>
<text class="debug-gap-item-label" x="33.57" y="58.58" data-gap-id="gap:6:area:0">R82 G0</text>
<text class="debug-gap-item-label" x="27.57" y="60.58" data-gap-id="gap:6:area:0">R80 G1</text>
<text class="debug-gap-item-label" x="0.35" y="58.08" data-gap-id="gap:6:area:0">T12 G2</text>
<text class="debug-gap-item-label" x="10.35" y="58.08" data-gap-id="gap:6:area:0">T16 G3</text>
<text class="debug-gap-item-label" x="30.35" y="62.08" data-gap-id="gap:6:area:0">T13 G4</text>
<text class="debug-gap-item-label" x="14.60" y="64.08" data-gap-id="gap:6:area:0">converge:11 G5</text>
<rect class="debug-gap-band" x="-16.50" y="70.00" width="67.00" height="6.00" data-gap-id="gap:7"/>
<line class="debug-gap-line" x1="-16.50" y1="70.00" x2="50.50" y2="70.00"/>
<line class="debug-gap-line" x1="-16.50" y1="76.00" x2="50.50" y2="76.00"/>
<rect class="debug-gap-area" x="-16.50" y="70.00" width="67.00" height="6.00" data-gap-id="gap:7:area:0"/>
<text class="debug-gap-label debug-gap-label-right" x="50.15" y="70.45" data-gap-id="gap:7:area:0"><tspan x="50.15" dy="0">gap 7 total 6.0U</tspan><tspan x="50.15" dy="0.62">7.0 box_to_box 6.0U lanes=2</tspan></text>
<text class="debug-gap-item-label" x="10.35" y="71.08" data-gap-id="gap:7:area:0">T17 G0</text>
<text class="debug-gap-item-label" x="20.35" y="71.08" data-gap-id="gap:7:area:0">T15 G1</text>
<text class="debug-gap-item-label" x="15.35" y="73.08" data-gap-id="gap:7:area:0">converge:12 G2</text>
<rect class="debug-gap-band" x="-16.50" y="79.00" width="67.00" height="6.00" data-gap-id="gap:8"/>
<line class="debug-gap-line" x1="-16.50" y1="79.00" x2="50.50" y2="79.00"/>
<line class="debug-gap-line" x1="-16.50" y1="85.00" x2="50.50" y2="85.00"/>
<rect class="debug-gap-area" x="-16.50" y="79.00" width="67.00" height="6.00" data-gap-id="gap:8:area:0"/>
<text class="debug-gap-label debug-gap-label-right" x="50.15" y="79.45" data-gap-id="gap:8:area:0"><tspan x="50.15" dy="0">gap 8 total 6.0U</tspan><tspan x="50.15" dy="0.62">8.0 box_to_box 6.0U lanes=2</tspan></text>
<text class="debug-gap-item-label" x="20.35" y="80.58" data-gap-id="gap:8:area:0">12 G0</text>
<text class="debug-gap-item-label" x="30.35" y="80.58" data-gap-id="gap:8:area:0">R109 G0</text>
<text class="debug-gap-item-label" x="20.35" y="82.08" data-gap-id="gap:8:area:0">transition:T18 G1</text>
<rect class="debug-gap-band" x="-16.50" y="88.00" width="67.00" height="8.00" data-gap-id="gap:9"/>
<line class="debug-gap-line" x1="-16.50" y1="88.00" x2="50.50" y2="88.00"/>
<line class="debug-gap-line" x1="-16.50" y1="96.00" x2="50.50" y2="96.00"/>
<rect class="debug-gap-area" x="-16.50" y="88.00" width="67.00" height="8.00" data-gap-id="gap:9:area:0"/>
<text class="debug-gap-label debug-gap-label-right" x="50.15" y="88.45" data-gap-id="gap:9:area:0"><tspan x="50.15" dy="0">gap 9 total 8.0U</tspan><tspan x="50.15" dy="0.62">9.0 box_to_box 8.0U lanes=3</tspan></text>
<text class="debug-gap-item-label" x="20.35" y="89.08" data-gap-id="gap:9:area:0">diverge:13 G0</text>
<text class="debug-gap-item-label" x="20.35" y="91.08" data-gap-id="gap:9:area:0">T21 G1</text>
<text class="debug-gap-item-label" x="30.35" y="91.08" data-gap-id="gap:9:area:0">T14 G2</text>
<text class="debug-gap-item-label" x="40.35" y="89.08" data-gap-id="gap:9:area:0">T19 G3</text>
<text class="debug-gap-item-label" x="29.60" y="93.08" data-gap-id="gap:9:area:0">converge:14 G4</text>
<rect class="debug-gap-band" x="-16.50" y="99.00" width="67.00" height="8.00" data-gap-id="gap:10"/>
<line class="debug-gap-line" x1="-16.50" y1="99.00" x2="50.50" y2="99.00"/>
<line class="debug-gap-line" x1="-16.50" y1="107.00" x2="50.50" y2="107.00"/>
<rect class="debug-gap-area" x="-16.50" y="99.00" width="67.00" height="8.00" data-gap-id="gap:10:area:0"/>
<text class="debug-gap-label debug-gap-label-right" x="50.15" y="99.45" data-gap-id="gap:10:area:0"><tspan x="50.15" dy="0">gap 10 total 8.0U</tspan><tspan x="50.15" dy="0.62">10.0 box_to_box 8.0U lanes=3</tspan></text>
<text class="debug-gap-item-label" x="30.35" y="100.08" data-gap-id="gap:10:area:0">diverge:14 G0</text>
<text class="debug-gap-item-label" x="20.35" y="102.08" data-gap-id="gap:10:area:0">T22 G1</text>
<text class="debug-gap-item-label" x="40.35" y="102.08" data-gap-id="gap:10:area:0">T23 G2</text>
<text class="debug-gap-item-label" x="-15.80" y="104.58" data-gap-id="gap:10:area:0">R141 G3</text>
<path class="edge edge-arrow" d="M 20.00 90.00 L 20.00 94.00"/>
<path class="edge" d="M 20.00 7.00 L 20.00 9.00"/>
<path class="edge edge-arrow" d="M 20.00 9.00 L 20.00 11.00"/>
<path class="edge" d="M 20.00 14.00 L 20.00 16.00"/>
<path class="edge edge-arrow" d="M 20.00 16.00 L 20.00 18.00"/>
<path class="edge" d="M 20.00 21.00 L 20.00 23.00"/>
<path class="edge edge-arrow" d="M 20.00 23.00 L 20.00 25.00"/>
<path class="edge edge-arrow" d="M 20.00 28.00 L 20.00 30.00"/>
<path class="edge edge-arrow" d="M 10.00 30.00 L 10.00 34.00"/>
<path class="edge edge-arrow" d="M 20.00 30.00 L 20.00 34.00"/>
<path class="edge edge-arrow" d="M 10.00 37.00 L 10.00 41.00"/>
<path class="edge edge-arrow" d="M 20.00 41.00 L 20.00 45.00"/>
<path class="edge edge-arrow" d="M 20.00 37.00 L 20.00 41.00"/>
<path class="edge edge-arrow" d="M 20.00 48.00 L 20.00 50.00"/>
<path class="edge edge-arrow" d="M 0.00 50.00 L 0.00 54.00"/>
<path class="edge edge-arrow" d="M 30.00 50.00 L 30.00 54.00"/>
<path class="edge edge-arrow" d="M 20.00 50.00 L 20.00 54.00"/>
<path class="edge edge-arrow" d="M 10.00 50.00 L 10.00 54.00"/>
<path class="edge edge-arrow" d="M 0.00 57.00 L 0.00 65.00"/>
<path class="edge edge-arrow" d="M 10.00 65.00 L 10.00 67.00"/>
<path class="edge" d="M 30.00 57.00 L 30.00 59.00"/>
<path class="edge edge-arrow" d="M 30.00 59.00 L 30.00 65.00"/>
<path class="edge edge-arrow" d="M 30.00 59.00 L 30.00 59.00 L 35.95 59.00 Q 36.45 59.00 36.45 59.50 L 36.45 69.12 Q 36.45 69.62 35.95 69.62 L 30.50 69.62 Q 30.00 69.62 30.00 70.12 L 30.00 94.00"/>
<path class="edge edge-arrow" d="M 30.00 94.00 L 30.00 96.00"/>
<path class="edge edge-arrow" d="M 20.00 57.00 L 20.00 57.50 Q 20.00 58.00 20.50 58.00 L 33.95 58.00 Q 34.45 58.00 34.45 58.50 L 34.45 67.12 Q 34.45 67.62 33.95 67.62 L 20.50 67.62 Q 20.00 67.62 20.00 68.12 L 20.00 74.00"/>
<path class="edge edge-arrow" d="M 20.00 74.00 L 20.00 76.00"/>
<path class="edge edge-arrow" d="M 10.00 57.00 L 10.00 65.00"/>
<path class="edge edge-arrow" d="M 10.00 70.00 L 10.00 74.00"/>
<path class="edge" d="M 20.00 79.00 L 20.00 81.00"/>
<path class="edge" d="M 20.00 81.00 L 20.00 83.00"/>
<path class="edge edge-arrow" d="M 20.00 83.00 L 20.00 85.00"/>
<path class="edge edge-arrow" d="M 20.00 81.00 L 39.50 81.00 Q 40.00 81.00 40.00 81.50 L 40.00 94.00"/>
<path class="edge edge-arrow" d="M 20.00 88.00 L 20.00 90.00"/>
<path class="edge" d="M 20.00 90.00 L -8.50 90.00 Q -9.00 90.00 -9.00 89.50 L -9.00 43.50 Q -9.00 43.00 -8.50 43.00 L 20.00 43.00"/>
<path class="edge edge-arrow" d="M 30.00 99.00 L 30.00 101.00"/>
<path class="edge edge-arrow" d="M 20.00 101.00 L 20.00 108.50 Q 20.00 109.00 19.50 109.00 L -12.50 109.00 Q -13.00 109.00 -13.00 108.50 L -13.00 2.50 Q -13.00 2.00 -12.50 2.00 L 19.50 2.00 Q 20.00 2.00 20.00 2.50 L 20.00 4.00"/>
<path class="edge edge-arrow" d="M 40.00 101.00 L 40.00 107.00"/>
<path class="edge" d="M 40.00 110.00 L 40.00 112.00"/>
<path class="edge" d="M 40.00 112.00 L 40.00 114.00"/>
<path class="edge" d="M 40.00 114.00 L -13.00 114.00"/>
<path class="edge" d="M -13.00 114.00 L -13.00 109.00"/>
<rect class="step" x="18.00" y="4.00" width="4.00" height="3.00" rx="0.35" ry="0.35"/>
<rect class="step-inner" x="18.25" y="4.25" width="3.50" height="2.50" rx="0.22" ry="0.22"/>
<text class="label" x="20.00" y="5.50">0</text>
<rect class="step" x="18.00" y="11.00" width="4.00" height="3.00" rx="0.35" ry="0.35"/>
<text class="label" x="20.00" y="12.50">1</text>
<rect class="step" x="18.00" y="18.00" width="4.00" height="3.00" rx="0.35" ry="0.35"/>
<text class="label" x="20.00" y="19.50">2</text>
<rect class="step" x="18.00" y="25.00" width="4.00" height="3.00" rx="0.35" ry="0.35"/>
<text class="label" x="20.00" y="26.50">3</text>
<rect class="step" x="8.00" y="34.00" width="4.00" height="3.00" rx="0.35" ry="0.35"/>
<text class="label" x="10.00" y="35.50">4</text>
<rect class="step" x="18.00" y="34.00" width="4.00" height="3.00" rx="0.35" ry="0.35"/>
<text class="label" x="20.00" y="35.50">5</text>
<rect class="step" x="18.00" y="45.00" width="4.00" height="3.00" rx="0.35" ry="0.35"/>
<text class="label" x="20.00" y="46.50">6</text>
<rect class="step" x="-2.00" y="54.00" width="4.00" height="3.00" rx="0.35" ry="0.35"/>
<text class="label" x="0.00" y="55.50">7</text>
<rect class="step" x="28.00" y="54.00" width="4.00" height="3.00" rx="0.35" ry="0.35"/>
<text class="label" x="30.00" y="55.50">8</text>
<rect class="step" x="18.00" y="54.00" width="4.00" height="3.00" rx="0.35" ry="0.35"/>
<text class="label" x="20.00" y="55.50">9</text>
<rect class="step" x="8.00" y="54.00" width="4.00" height="3.00" rx="0.35" ry="0.35"/>
<text class="label" x="10.00" y="55.50">10</text>
<rect class="step" x="8.00" y="67.00" width="4.00" height="3.00" rx="0.35" ry="0.35"/>
<text class="label" x="10.00" y="68.50">11</text>
<rect class="step" x="18.00" y="76.00" width="4.00" height="3.00" rx="0.35" ry="0.35"/>
<text class="label" x="20.00" y="77.50">12</text>
<rect class="step" x="18.00" y="85.00" width="4.00" height="3.00" rx="0.35" ry="0.35"/>
<text class="label" x="20.00" y="86.50">13</text>
<rect class="step" x="28.00" y="96.00" width="4.00" height="3.00" rx="0.35" ry="0.35"/>
<text class="label" x="30.00" y="97.50">14</text>
<rect class="step" x="38.00" y="107.00" width="4.00" height="3.00" rx="0.35" ry="0.35"/>
<text class="label" x="40.00" y="108.50">15</text>
<line class="assoc" x1="22.00" y1="5.50" x2="23.00" y2="5.50"/>
<rect class="action" x="23.00" y="4.07" width="4.00" height="2.86"/>
<text class="action-label" x="25.00" y="5.09"><tspan x="25.00" dy="0">等待使用</tspan><tspan x="25.00" dy="0.82">者輸入閒置</tspan></text>
<line class="assoc" x1="22.00" y1="12.50" x2="23.00" y2="12.50"/>
<rect class="action" x="23.00" y="11.07" width="4.00" height="2.86"/>
<text class="action-label" x="25.00" y="11.68"><tspan x="25.00" dy="0">納入使用</tspan><tspan x="25.00" dy="0.82">者文字移</tspan><tspan x="25.00" dy="0.82">除合成</tspan></text>
<line class="assoc" x1="22.00" y1="19.50" x2="23.00" y2="19.50"/>
<rect class="action" x="23.00" y="18.07" width="4.00" height="2.86"/>
<text class="action-label" x="25.00" y="19.09"><tspan x="25.00" dy="0">預載與釘</tspan><tspan x="25.00" dy="0.82">選必要技能</tspan></text>
<line class="assoc" x1="22.00" y1="26.50" x2="23.00" y2="26.50"/>
<rect class="action" x="23.00" y="25.07" width="4.00" height="2.86"/>
<text class="action-label" x="25.00" y="25.68"><tspan x="25.00" dy="0">比對啟用停</tspan><tspan x="25.00" dy="0.82">用短語與更</tspan><tspan x="25.00" dy="0.82">新工作流程</tspan></text>
<line class="assoc" x1="12.00" y1="35.50" x2="13.00" y2="35.50"/>
<rect class="action" x="13.00" y="34.07" width="4.00" height="2.86"/>
<text class="action-label" x="15.00" y="35.09"><tspan x="15.00" dy="0">規劃延續</tspan><tspan x="15.00" dy="0.82">已啟用路徑</tspan></text>
<line class="assoc" x1="22.00" y1="35.50" x2="23.00" y2="35.50"/>
<rect class="action" x="23.00" y="34.07" width="4.00" height="2.86"/>
<text class="action-label" x="25.00" y="34.68"><tspan x="25.00" dy="0">視為作為</tspan><tspan x="25.00" dy="0.82">單次回合</tspan><tspan x="25.00" dy="0.82">使用者回合</tspan></text>
<line class="assoc" x1="22.00" y1="46.50" x2="23.00" y2="46.50"/>
<rect class="action" x="23.00" y="45.07" width="4.00" height="2.86"/>
<text class="action-label" x="25.00" y="45.68"><tspan x="25.00" dy="0">組裝提示</tspan><tspan x="25.00" dy="0.82">與執行模</tspan><tspan x="25.00" dy="0.82">型步驟</tspan></text>
<line class="assoc" x1="2.00" y1="55.50" x2="3.00" y2="55.50"/>
<rect class="action" x="3.00" y="54.07" width="4.00" height="2.86"/>
<text class="action-label" x="5.00" y="54.68"><tspan x="5.00" dy="0">派發子代</tspan><tspan x="5.00" dy="0.82">理非同步</tspan><tspan x="5.00" dy="0.82">與繼續回合</tspan></text>
<line class="assoc" x1="32.00" y1="55.50" x2="33.00" y2="55.50"/>
<rect class="action" x="33.00" y="54.07" width="4.00" height="2.86"/>
<text class="action-label" x="35.00" y="54.68"><tspan x="35.00" dy="0">詢問問題</tspan><tspan x="35.00" dy="0.82">區塊並等</tspan><tspan x="35.00" dy="0.82">待回覆</tspan></text>
<line class="assoc" x1="22.00" y1="55.50" x2="23.00" y2="55.50"/>
<rect class="action" x="23.00" y="54.07" width="4.00" height="2.86"/>
<text class="action-label" x="25.00" y="55.09"><tspan x="25.00" dy="0">結束無更</tspan><tspan x="25.00" dy="0.82">多工具回合</tspan></text>
<line class="assoc" x1="12.00" y1="55.50" x2="13.00" y2="55.50"/>
<rect class="action" x="13.00" y="54.07" width="4.00" height="2.86"/>
<text class="action-label" x="15.00" y="55.09"><tspan x="15.00" dy="0">平行執行</tspan><tspan x="15.00" dy="0.82">其他工具</tspan></text>
<line class="assoc" x1="12.00" y1="68.50" x2="13.00" y2="68.50"/>
<rect class="action" x="13.00" y="67.07" width="4.00" height="2.86"/>
<text class="action-label" x="15.00" y="67.68"><tspan x="15.00" dy="0">合併工具</tspan><tspan x="15.00" dy="0.82">結果回到</tspan><tspan x="15.00" dy="0.82">進入回合</tspan></text>
<line class="assoc" x1="22.00" y1="77.50" x2="23.00" y2="77.50"/>
<rect class="action" x="23.00" y="76.07" width="4.00" height="2.86"/>
<text class="action-label" x="25.00" y="76.68"><tspan x="25.00" dy="0">檢查子代</tspan><tspan x="25.00" dy="0.82">理配額軟</tspan><tspan x="25.00" dy="0.82">收尾門檻</tspan></text>
<line class="assoc" x1="22.00" y1="86.50" x2="23.00" y2="86.50"/>
<rect class="action" x="23.00" y="85.07" width="4.00" height="2.86"/>
<text class="action-label" x="25.00" y="85.68"><tspan x="25.00" dy="0">規劃下一</tspan><tspan x="25.00" dy="0.82">個動作繼</tspan><tspan x="25.00" dy="0.82">續或停止</tspan></text>
<line class="assoc" x1="32.00" y1="97.50" x2="33.00" y2="97.50"/>
<rect class="action" x="33.00" y="96.07" width="4.00" height="2.86"/>
<text class="action-label" x="35.00" y="96.68"><tspan x="35.00" dy="0">閒置會話</tspan><tspan x="35.00" dy="0.82">直到使用</tspan><tspan x="35.00" dy="0.82">者或心跳</tspan></text>
<line class="assoc" x1="42.00" y1="108.50" x2="43.00" y2="108.50"/>
<rect class="action" x="43.00" y="107.07" width="4.00" height="2.86"/>
<text class="action-label" x="45.00" y="107.68"><tspan x="45.00" dy="0">排程器派發</tspan><tspan x="45.00" dy="0.82">工作並注入</tspan><tspan x="45.00" dy="0.82">合成使用者</tspan></text>
<line class="gate" x1="19.00" y1="9.00" x2="21.00" y2="9.00"/>
<text class="gate-label" x="21.40" y="9.00"><tspan x="21.40" dy="0">使用者訊息已收到</tspan></text>
<line class="gate" x1="19.00" y1="16.00" x2="21.00" y2="16.00"/>
<text class="gate-label" x="21.40" y="16.00"><tspan x="21.40" dy="0">使用者文字已取出</tspan></text>
<line class="gate" x1="19.00" y1="23.00" x2="21.00" y2="23.00"/>
<text class="gate-label" x="21.40" y="23.00"><tspan x="21.40" dy="0">技能已解析 &amp;&amp; 釘選完成</tspan></text>
<line class="gate" x1="8.00" y1="30.00" x2="22.00" y2="30.00"/>
<line class="gate" x1="8.00" y1="41.00" x2="22.00" y2="41.00"/>
<line class="gate" x1="-5.00" y1="50.00" x2="35.00" y2="50.00"/>
<line class="gate" x1="-3.50" y1="65.00" x2="32.00" y2="65.00"/>
<line class="gate" x1="16.50" y1="94.00" x2="42.00" y2="94.00"/>
<line class="gate" x1="8.00" y1="74.00" x2="22.00" y2="74.00"/>
<line class="gate" x1="19.00" y1="83.00" x2="21.00" y2="83.00"/>
<text class="gate-label-left" x="18.60" y="83.00"><tspan x="18.60" dy="0">是子代理會話 &amp;&amp; 配額低於紅線 -&gt; 下一回合收尾</tspan></text>
<circle class="branch-junction" cx="20.00" cy="90.00" r="0.28"/>
<line class="gate" x1="18.00" y1="101.00" x2="42.00" y2="101.00"/>
<line class="gate" x1="39.00" y1="112.00" x2="41.00" y2="112.00"/>
<text class="gate-label-left" x="38.60" y="112.00"><tspan x="38.60" dy="0">工作已派發 &amp;&amp; 合成訊息已種入</tspan></text>
<line class="gate" x1="9.00" y1="32.00" x2="11.00" y2="32.00"/>
<text class="gate-label-left" x="8.60" y="32.00"><tspan x="8.60" dy="0">工作流程自主已啟用 == 是</tspan></text>
<line class="gate" x1="19.00" y1="32.00" x2="21.00" y2="32.00"/>
<text class="gate-label" x="21.40" y="32.00"><tspan x="21.40" dy="0">工作流程自主已啟用 == 否</tspan></text>
<line class="gate" x1="9.00" y1="39.00" x2="11.00" y2="39.00"/>
<text class="gate-label-left" x="8.60" y="39.00"><tspan x="8.60" dy="0">父層ID==空 &amp;&amp; 下一個可執行待辦!=空</tspan></text>
<line class="gate" x1="19.00" y1="39.00" x2="21.00" y2="39.00"/>
<text class="gate-label" x="21.40" y="39.00"><tspan x="21.40" dy="0">單次回合就緒</tspan></text>
<line class="gate" x1="-1.00" y1="52.00" x2="1.00" y2="52.00"/>
<text class="gate-label-left" x="-1.40" y="52.00"><tspan x="-1.40" dy="0">工具呼叫任務派發</tspan></text>
<line class="gate" x1="29.00" y1="52.00" x2="31.00" y2="52.00"/>
<text class="gate-label" x="31.40" y="52.00"><tspan x="31.40" dy="0">工具呼叫問題</tspan></text>
<line class="gate" x1="19.00" y1="52.00" x2="21.00" y2="52.00"/>
<text class="gate-label" x="21.40" y="52.00"><tspan x="21.40" dy="0">助手完成無工具</tspan></text>
<line class="gate" x1="9.00" y1="52.00" x2="11.00" y2="52.00"/>
<text class="gate-label-left" x="8.60" y="52.00"><tspan x="8.60" dy="0">工具呼叫其他平行</tspan></text>
<line class="gate" x1="-1.00" y1="59.00" x2="1.00" y2="59.00"/>
<text class="gate-label-left" x="-1.40" y="58.32"><tspan x="-1.40" dy="0">已派發==是</tspan><tspan x="-1.40" dy="0.68">&amp;&amp; 父層回</tspan><tspan x="-1.40" dy="0.68">合已返回</tspan></text>
<line class="gate" x1="29.00" y1="63.00" x2="31.00" y2="63.00"/>
<text class="gate-label" x="31.40" y="62.32"><tspan x="31.40" dy="0">回覆已</tspan><tspan x="31.40" dy="0.68">收到或</tspan><tspan x="31.40" dy="0.68">已解析</tspan></text>
<line class="gate" x1="29.00" y1="92.00" x2="31.00" y2="92.00"/>
<text class="gate-label" x="31.40" y="92.00"><tspan x="31.40" dy="0">中止訊號已觸發</tspan></text>
<line class="gate" x1="19.00" y1="72.00" x2="21.00" y2="72.00"/>
<text class="gate-label" x="21.40" y="72.00"><tspan x="21.40" dy="0">助手乾淨完成</tspan></text>
<line class="gate" x1="9.00" y1="59.00" x2="11.00" y2="59.00"/>
<text class="gate-label-left" x="8.60" y="59.00"><tspan x="8.60" dy="0">所有工具結果就緒</tspan></text>
<line class="gate" x1="9.00" y1="72.00" x2="11.00" y2="72.00"/>
<text class="gate-label-left" x="8.60" y="72.00"><tspan x="8.60" dy="0">工具結果已提交</tspan></text>
<line class="gate" x1="39.00" y1="90.00" x2="41.00" y2="90.00"/>
<text class="gate-label" x="41.40" y="90.00"><tspan x="41.40" dy="0">無配額觸發</tspan></text>
<line class="gate" x1="-10.00" y1="88.00" x2="-8.00" y2="88.00"/>
<text class="gate-label-left" x="-10.40" y="87.32"><tspan x="-10.40" dy="0">已啟用 &amp;&amp; (下一</tspan><tspan x="-10.40" dy="0.68">個可執行待辦!=空</tspan><tspan x="-10.40" dy="0.68">|| 補充啟用規劃)</tspan></text>
<line class="gate" x1="19.00" y1="92.00" x2="21.00" y2="92.00"/>
<text class="gate-label-left" x="18.60" y="92.00"><tspan x="18.60" dy="0">停止：子代理會話或未啟用或待辦完成</tspan></text>
<line class="gate" x1="19.00" y1="103.00" x2="21.00" y2="103.00"/>
<text class="gate-label-left" x="18.60" y="103.00"><tspan x="18.60" dy="0">下一個使用者訊息</tspan></text>
<line class="gate" x1="39.00" y1="103.00" x2="41.00" y2="103.00"/>
<text class="gate-label" x="41.40" y="103.00"><tspan x="41.40" dy="0">排程心跳派發到期工作</tspan></text>
<circle class="junction" cx="20.00" cy="43.00" r="0.22"/>
<circle class="junction" cx="-13.00" cy="109.00" r="0.22"/>
<circle class="branch-junction" cx="30.00" cy="59.00" r="0.28"/>
<circle class="branch-junction" cx="20.00" cy="81.00" r="0.28"/>
</svg>