<svg xmlns="http://www.w3.org/2000/svg" width="1360" height="2440" viewBox="-17.00 -2.00 68.00 122.00" role="img">
<style>
.step{fill:#fff;stroke:#111;stroke-width:.14}.step-inner{fill:none;stroke:#111;stroke-width:.08}
.action{fill:#fff;stroke:#111;stroke-width:.14}.gate{stroke:#111;stroke-width:.16}
.edge{fill:none;stroke:#111;stroke-width:.05;stroke-linecap:round;stroke-linejoin:round}.edge-arrow{marker-end:url(#arrow)}
.flyover-mask{stroke:#fff;stroke-width:.12;stroke-linecap:round}
.flyover{fill:none;stroke:#111;stroke-width:.05;stroke-linecap:round}
.junction{fill:#111;stroke:#111;stroke-width:0}.branch-junction{fill:#fff;stroke:#111;stroke-width:.08}
.assoc{stroke:#111;stroke-width:.05}.label{font:bold .7px 'Times New Roman', 'BiauKai', 'DFKai-SB', serif;text-anchor:middle;dominant-baseline:middle}
.action-label{font:.55px 'Times New Roman', 'BiauKai', 'DFKai-SB', serif;text-anchor:middle;dominant-baseline:middle}.gate-label{font:italic .55px 'Times New Roman', 'BiauKai', 'DFKai-SB', serif;text-anchor:start;dominant-baseline:middle}.gate-label-left{font:italic .55px 'Times New Roman', 'BiauKai', 'DFKai-SB', serif;text-anchor:end;dominant-baseline:middle}
</style>
<defs><marker id="arrow" markerWidth="0.4" markerHeight="0.4" refX="0.36" refY="0.2" orient="auto" markerUnits="userSpaceOnUse"><path d="M 0 0 L 0.4 0.2 L 0 0.4 z" fill="#111"/></marker></defs>
<rect x="-17.00" y="-2.00" width="68.00" height="122.00" fill="white"/>
<path class="edge edge-arrow" d="M 20.00 92.00 L 20.00 96.00"/>
<path class="edge" d="M 20.00 7.00 L 20.00 9.00"/>
<path class="edge edge-arrow" d="M 20.00 9.00 L 20.00 11.00"/>
<path class="edge" d="M 20.00 14.00 L 20.00 16.00"/>
<path class="edge edge-arrow" d="M 20.00 16.00 L 20.00 18.00"/>
<path class="edge" d="M 20.00 21.00 L 20.00 23.00"/>
<path class="edge edge-arrow" d="M 20.00 23.00 L 20.00 25.00"/>
<path class="edge edge-arrow" d="M 20.00 28.00 L 20.00 30.00"/>
<path class="edge edge-arrow" d="M 10.00 30.00 L 10.00 34.00"/>
<path class="edge edge-arrow" d="M 20.00 30.00 L 20.00 34.00"/>
<path class="edge edge-arrow" d="M 10.00 37.00 L 10.00 43.00"/>
<path class="edge edge-arrow" d="M 20.00 43.00 L 20.00 47.00"/>
<path class="edge edge-arrow" d="M 20.00 37.00 L 20.00 43.00"/>
<path class="edge edge-arrow" d="M 20.00 50.00 L 20.00 52.00"/>
<path class="edge edge-arrow" d="M 0.00 52.00 L 0.00 56.00"/>
<path class="edge edge-arrow" d="M 30.00 52.00 L 30.00 56.00"/>
<path class="edge edge-arrow" d="M 20.00 52.00 L 20.00 56.00"/>
<path class="edge edge-arrow" d="M 10.00 52.00 L 10.00 56.00"/>
<path class="edge edge-arrow" d="M 0.00 59.00 L 0.00 67.00"/>
<path class="edge edge-arrow" d="M 10.00 67.00 L 10.00 69.00"/>
<path class="edge" d="M 30.00 59.00 L 30.00 61.00"/>
<path class="edge edge-arrow" d="M 30.00 61.00 L 30.00 67.00"/>
<path class="edge edge-arrow" d="M 30.00 61.00 L 30.00 61.00 L 35.95 61.00 Q 36.45 61.00 36.45 61.50 L 36.45 71.12 Q 36.45 71.62 35.95 71.62 L 30.50 71.62 Q 30.00 71.62 30.00 72.12 L 30.00 96.00"/>
<path class="edge edge-arrow" d="M 30.00 96.00 L 30.00 98.00"/>
<path class="edge edge-arrow" d="M 20.00 59.00 L 20.00 62.50 Q 20.00 63.00 20.50 63.00 L 33.95 63.00 Q 34.45 63.00 34.45 63.50 L 34.45 69.12 Q 34.45 69.62 33.95 69.62 L 20.50 69.62 Q 20.00 69.62 20.00 70.12 L 20.00 76.00"/>
<path class="edge edge-arrow" d="M 20.00 76.00 L 20.00 78.00"/>
<path class="edge edge-arrow" d="M 10.00 59.00 L 10.00 67.00"/>
<path class="edge edge-arrow" d="M 10.00 72.00 L 10.00 76.00"/>
<path class="edge" d="M 20.00 81.00 L 20.00 83.00"/>
<path class="edge" d="M 20.00 83.00 L 20.00 85.00"/>
<path class="edge edge-arrow" d="M 20.00 85.00 L 20.00 87.00"/>
<path class="edge edge-arrow" d="M 20.00 83.00 L 39.50 83.00 Q 40.00 83.00 40.00 83.50 L 40.00 96.00"/>
<path class="edge edge-arrow" d="M 20.00 90.00 L 20.00 92.00"/>
<path class="edge" d="M 20.00 92.00 L -8.50 92.00 Q -9.00 92.00 -9.00 91.50 L -9.00 45.50 Q -9.00 45.00 -8.50 45.00 L 20.00 45.00"/>
<path class="edge edge-arrow" d="M 30.00 101.00 L 30.00 103.00"/>
<path class="edge edge-arrow" d="M 20.00 103.00 L 20.00 106.50 Q 20.00 107.00 19.50 107.00 L -12.50 107.00 Q -13.00 107.00 -13.00 106.50 L -13.00 2.50 Q -13.00 2.00 -12.50 2.00 L 19.50 2.00 Q 20.00 2.00 20.00 2.50 L 20.00 4.00"/>
<path class="edge edge-arrow" d="M 40.00 103.00 L 40.00 109.00"/>
<path class="edge" d="M 40.00 112.00 L 40.00 114.00"/>
<path class="edge" d="M 40.00 114.00 L 40.00 116.00"/>
<path class="edge" d="M 40.00 116.00 L -13.00 116.00"/>
<path class="edge" d="M -13.00 116.00 L -13.00 107.00"/>
<rect class="step" x="18.00" y="4.00" width="4.00" height="3.00" rx="0.35" ry="0.35"/>
<rect class="step-inner" x="18.25" y="4.25" width="3.50" height="2.50" rx="0.22" ry="0.22"/>
<text class="label" x="20.00" y="5.50">0</text>
<rect class="step" x="18.00" y="11.00" width="4.00" height="3.00" rx="0.35" ry="0.35"/>
<text class="label" x="20.00" y="12.50">1</text>
<rect class="step" x="18.00" y="18.00" width="4.00" height="3.00" rx="0.35" ry="0.35"/>
<text class="label" x="20.00" y="19.50">2</text>
<rect class="step" x="18.00" y="25.00" width="4.00" height="3.00" rx="0.35" ry="0.35"/>
<text class="label" x="20.00" y="26.50">3</text>
<rect class="step" x="8.00" y="34.00" width="4.00" height="3.00" rx="0.35" ry="0.35"/>
<text class="label" x="10.00" y="35.50">4</text>
<rect class="step" x="18.00" y="34.00" width="4.00" height="3.00" rx="0.35" ry="0.35"/>
<text class="label" x="20.00" y="35.50">5</text>
<rect class="step" x="18.00" y="47.00" width="4.00" height="3.00" rx="0.35" ry="0.35"/>
<text class="label" x="20.00" y="48.50">6</text>
<rect class="step" x="-2.00" y="56.00" width="4.00" height="3.00" rx="0.35" ry="0.35"/>
<text class="label" x="0.00" y="57.50">7</text>
<rect class="step" x="28.00" y="56.00" width="4.00" height="3.00" rx="0.35" ry="0.35"/>
<text class="label" x="30.00" y="57.50">8</text>
<rect class="step" x="18.00" y="56.00" width="4.00" height="3.00" rx="0.35" ry="0.35"/>
<text class="label" x="20.00" y="57.50">9</text>
<rect class="step" x="8.00" y="56.00" width="4.00" height="3.00" rx="0.35" ry="0.35"/>
<text class="label" x="10.00" y="57.50">10</text>
<rect class="step" x="8.00" y="69.00" width="4.00" height="3.00" rx="0.35" ry="0.35"/>
<text class="label" x="10.00" y="70.50">11</text>
<rect class="step" x="18.00" y="78.00" width="4.00" height="3.00" rx="0.35" ry="0.35"/>
<text class="label" x="20.00" y="79.50">12</text>
<rect class="step" x="18.00" y="87.00" width="4.00" height="3.00" rx="0.35" ry="0.35"/>
<text class="label" x="20.00" y="88.50">13</text>
<rect class="step" x="28.00" y="98.00" width="4.00" height="3.00" rx="0.35" ry="0.35"/>
<text class="label" x="30.00" y="99.50">14</text>
<rect class="step" x="38.00" y="109.00" width="4.00" height="3.00" rx="0.35" ry="0.35"/>
<text class="label" x="40.00" y="110.50">15</text>
<line class="assoc" x1="22.00" y1="5.50" x2="23.00" y2="5.50"/>
<rect class="action" x="23.00" y="4.07" width="4.00" height="2.86"/>
<text class="action-label" x="25.00" y="5.09"><tspan x="25.00" dy="0">等待使用</tspan><tspan x="25.00" dy="0.82">者輸入閒置</tspan></text>
<line class="assoc" x1="22.00" y1="12.50" x2="23.00" y2="12.50"/>
<rect class="action" x="23.00" y="11.07" width="4.00" height="2.86"/>
<text class="action-label" x="25.00" y="11.68"><tspan x="25.00" dy="0">納入使用</tspan><tspan x="25.00" dy="0.82">者文字移</tspan><tspan x="25.00" dy="0.82">除合成</tspan></text>
<line class="assoc" x1="22.00" y1="19.50" x2="23.00" y2="19.50"/>
<rect class="action" x="23.00" y="18.07" width="4.00" height="2.86"/>
<text class="action-label" x="25.00" y="19.09"><tspan x="25.00" dy="0">預載與釘</tspan><tspan x="25.00" dy="0.82">選必要技能</tspan></text>
<line class="assoc" x1="22.00" y1="26.50" x2="23.00" y2="26.50"/>
<rect class="action" x="23.00" y="25.07" width="4.00" height="2.86"/>
<text class="action-label" x="25.00" y="25.68"><tspan x="25.00" dy="0">比對啟用停</tspan><tspan x="25.00" dy="0.82">用短語與更</tspan><tspan x="25.00" dy="0.82">新工作流程</tspan></text>
<line class="assoc" x1="12.00" y1="35.50" x2="13.00" y2="35.50"/>
<rect class="action" x="13.00" y="34.07" width="4.00" height="2.86"/>
<text class="action-label" x="15.00" y="35.09"><tspan x="15.00" dy="0">規劃延續</tspan><tspan x="15.00" dy="0.82">已啟用路徑</tspan></text>
<line class="assoc" x1="22.00" y1="35.50" x2="23.00" y2="35.50"/>
<rect class="action" x="23.00" y="34.07" width="4.00" height="2.86"/>
<text class="action-label" x="25.00" y="34.68"><tspan x="25.00" dy="0">視為作為</tspan><tspan x="25.00" dy="0.82">單次回合</tspan><tspan x="25.00" dy="0.82">使用者回合</tspan></text>
<line class="assoc" x1="22.00" y1="48.50" x2="23.00" y2="48.50"/>
<rect class="action" x="23.00" y="47.07" width="4.00" height="2.86"/>
<text class="action-label" x="25.00" y="47.68"><tspan x="25.00" dy="0">組裝提示</tspan><tspan x="25.00" dy="0.82">與執行模</tspan><tspan x="25.00" dy="0.82">型步驟</tspan></text>
<line class="assoc" x1="2.00" y1="57.50" x2="3.00" y2="57.50"/>
<rect class="action" x="3.00" y="56.07" width="4.00" height="2.86"/>
<text class="action-label" x="5.00" y="56.68"><tspan x="5.00" dy="0">派發子代</tspan><tspan x="5.00" dy="0.82">理非同步</tspan><tspan x="5.00" dy="0.82">與繼續回合</tspan></text>
<line class="assoc" x1="32.00" y1="57.50" x2="33.00" y2="57.50"/>
<rect class="action" x="33.00" y="56.07" width="4.00" height="2.86"/>
<text class="action-label" x="35.00" y="56.68"><tspan x="35.00" dy="0">詢問問題</tspan><tspan x="35.00" dy="0.82">區塊並等</tspan><tspan x="35.00" dy="0.82">待回覆</tspan></text>
<line class="assoc" x1="22.00" y1="57.50" x2="23.00" y2="57.50"/>
<rect class="action" x="23.00" y="56.07" width="4.00" height="2.86"/>
<text class="action-label" x="25.00" y="57.09"><tspan x="25.00" dy="0">結束無更</tspan><tspan x="25.00" dy="0.82">多工具回合</tspan></text>
<line class="assoc" x1="12.00" y1="57.50" x2="13.00" y2="57.50"/>
<rect class="action" x="13.00" y="56.07" width="4.00" height="2.86"/>
<text class="action-label" x="15.00" y="57.09"><tspan x="15.00" dy="0">平行執行</tspan><tspan x="15.00" dy="0.82">其他工具</tspan></text>
<line class="assoc" x1="12.00" y1="70.50" x2="13.00" y2="70.50"/>
<rect class="action" x="13.00" y="69.07" width="4.00" height="2.86"/>
<text class="action-label" x="15.00" y="69.68"><tspan x="15.00" dy="0">合併工具</tspan><tspan x="15.00" dy="0.82">結果回到</tspan><tspan x="15.00" dy="0.82">進入回合</tspan></text>
<line class="assoc" x1="22.00" y1="79.50" x2="23.00" y2="79.50"/>
<rect class="action" x="23.00" y="78.07" width="4.00" height="2.86"/>
<text class="action-label" x="25.00" y="78.68"><tspan x="25.00" dy="0">檢查子代</tspan><tspan x="25.00" dy="0.82">理配額軟</tspan><tspan x="25.00" dy="0.82">收尾門檻</tspan></text>
<line class="assoc" x1="22.00" y1="88.50" x2="23.00" y2="88.50"/>
<rect class="action" x="23.00" y="87.07" width="4.00" height="2.86"/>
<text class="action-label" x="25.00" y="87.68"><tspan x="25.00" dy="0">規劃下一</tspan><tspan x="25.00" dy="0.82">個動作繼</tspan><tspan x="25.00" dy="0.82">續或停止</tspan></text>
<line class="assoc" x1="32.00" y1="99.50" x2="33.00" y2="99.50"/>
<rect class="action" x="33.00" y="98.07" width="4.00" height="2.86"/>
<text class="action-label" x="35.00" y="98.68"><tspan x="35.00" dy="0">閒置會話</tspan><tspan x="35.00" dy="0.82">直到使用</tspan><tspan x="35.00" dy="0.82">者或心跳</tspan></text>
<line class="assoc" x1="42.00" y1="110.50" x2="43.00" y2="110.50"/>
<rect class="action" x="43.00" y="109.07" width="4.00" height="2.86"/>
<text class="action-label" x="45.00" y="109.68"><tspan x="45.00" dy="0">排程器派發</tspan><tspan x="45.00" dy="0.82">工作並注入</tspan><tspan x="45.00" dy="0.82">合成使用者</tspan></text>
<line class="gate" x1="19.00" y1="9.00" x2="21.00" y2="9.00"/>
<text class="gate-label" x="21.40" y="9.00"><tspan x="21.40" dy="0">使用者訊息已收到</tspan></text>
<line class="gate" x1="19.00" y1="16.00" x2="21.00" y2="16.00"/>
<text class="gate-label" x="21.40" y="16.00"><tspan x="21.40" dy="0">使用者文字已取出</tspan></text>
<line class="gate" x1="19.00" y1="23.00" x2="21.00" y2="23.00"/>
<text class="gate-label" x="21.40" y="23.00"><tspan x="21.40" dy="0">技能已解析 &amp;&amp; 釘選完成</tspan></text>
<line class="gate" x1="8.00" y1="30.00" x2="22.00" y2="30.00"/>
<line class="gate" x1="8.00" y1="43.00" x2="22.00" y2="43.00"/>
<line class="gate" x1="-5.00" y1="52.00" x2="35.00" y2="52.00"/>
<line class="gate" x1="-3.50" y1="67.00" x2="32.00" y2="67.00"/>
<line class="gate" x1="16.50" y1="96.00" x2="42.00" y2="96.00"/>
<line class="gate" x1="8.00" y1="76.00" x2="22.00" y2="76.00"/>
<line class="gate" x1="19.00" y1="85.00" x2="21.00" y2="85.00"/>
<text class="gate-label-left" x="18.60" y="85.00"><tspan x="18.60" dy="0">是子代理會話 &amp;&amp; 配額低於紅線 -&gt; 下一回合收尾</tspan></text>
<circle class="branch-junction" cx="20.00" cy="92.00" r="0.28"/>
<line class="gate" x1="18.00" y1="103.00" x2="42.00" y2="103.00"/>
<line class="gate" x1="39.00" y1="114.00" x2="41.00" y2="114.00"/>
<text class="gate-label-left" x="38.60" y="114.00"><tspan x="38.60" dy="0">工作已派發 &amp;&amp; 合成訊息已種入</tspan></text>
<line class="gate" x1="9.00" y1="32.00" x2="11.00" y2="32.00"/>
<text class="gate-label-left" x="8.60" y="32.00"><tspan x="8.60" dy="0">工作流程自主已啟用 == 是</tspan></text>
<line class="gate" x1="19.00" y1="32.00" x2="21.00" y2="32.00"/>
<text class="gate-label" x="21.40" y="32.00"><tspan x="21.40" dy="0">工作流程自主已啟用 == 否</tspan></text>
<line class="gate" x1="9.00" y1="39.00" x2="11.00" y2="39.00"/>
<text class="gate-label-left" x="8.60" y="39.00"><tspan x="8.60" dy="0">父層ID==空 &amp;&amp; 下一個可執行待辦!=空</tspan></text>
<line class="gate" x1="19.00" y1="41.00" x2="21.00" y2="41.00"/>
<text class="gate-label" x="21.40" y="41.00"><tspan x="21.40" dy="0">單次回合就緒</tspan></text>
<line class="gate" x1="-1.00" y1="54.00" x2="1.00" y2="54.00"/>
<text class="gate-label-left" x="-1.40" y="54.00"><tspan x="-1.40" dy="0">工具呼叫任務派發</tspan></text>
<line class="gate" x1="29.00" y1="54.00" x2="31.00" y2="54.00"/>
<text class="gate-label" x="31.40" y="54.00"><tspan x="31.40" dy="0">工具呼叫問題</tspan></text>
<line class="gate" x1="19.00" y1="54.00" x2="21.00" y2="54.00"/>
<text class="gate-label" x="21.40" y="54.00"><tspan x="21.40" dy="0">助手完成無工具</tspan></text>
<line class="gate" x1="9.00" y1="54.00" x2="11.00" y2="54.00"/>
<text class="gate-label-left" x="8.60" y="54.00"><tspan x="8.60" dy="0">工具呼叫其他平行</tspan></text>
<line class="gate" x1="-1.00" y1="61.00" x2="1.00" y2="61.00"/>
<text class="gate-label-left" x="-1.40" y="60.32"><tspan x="-1.40" dy="0">已派發==是</tspan><tspan x="-1.40" dy="0.68">&amp;&amp; 父層回</tspan><tspan x="-1.40" dy="0.68">合已返回</tspan></text>
<line class="gate" x1="29.00" y1="65.00" x2="31.00" y2="65.00"/>
<text class="gate-label" x="31.40" y="64.32"><tspan x="31.40" dy="0">回覆已</tspan><tspan x="31.40" dy="0.68">收到或</tspan><tspan x="31.40" dy="0.68">已解析</tspan></text>
<line class="gate" x1="29.00" y1="94.00" x2="31.00" y2="94.00"/>
<text class="gate-label" x="31.40" y="94.00"><tspan x="31.40" dy="0">中止訊號已觸發</tspan></text>
<line class="gate" x1="19.00" y1="74.00" x2="21.00" y2="74.00"/>
<text class="gate-label" x="21.40" y="74.00"><tspan x="21.40" dy="0">助手乾淨完成</tspan></text>
<line class="gate" x1="9.00" y1="61.00" x2="11.00" y2="61.00"/>
<text class="gate-label-left" x="8.60" y="61.00"><tspan x="8.60" dy="0">所有工具結果就緒</tspan></text>
<line class="gate" x1="9.00" y1="74.00" x2="11.00" y2="74.00"/>
<text class="gate-label-left" x="8.60" y="74.00"><tspan x="8.60" dy="0">工具結果已提交</tspan></text>
<line class="gate" x1="39.00" y1="92.00" x2="41.00" y2="92.00"/>
<text class="gate-label" x="41.40" y="92.00"><tspan x="41.40" dy="0">無配額觸發</tspan></text>
<line class="gate" x1="-10.00" y1="90.00" x2="-8.00" y2="90.00"/>
<text class="gate-label-left" x="-10.40" y="89.32"><tspan x="-10.40" dy="0">已啟用 &amp;&amp; (下一</tspan><tspan x="-10.40" dy="0.68">個可執行待辦!=空</tspan><tspan x="-10.40" dy="0.68">|| 補充啟用規劃)</tspan></text>
<line class="gate" x1="19.00" y1="94.00" x2="21.00" y2="94.00"/>
<text class="gate-label-left" x="18.60" y="94.00"><tspan x="18.60" dy="0">停止：子代理會話或未啟用或待辦完成</tspan></text>
<line class="gate" x1="19.00" y1="105.00" x2="21.00" y2="105.00"/>
<text class="gate-label-left" x="18.60" y="105.00"><tspan x="18.60" dy="0">下一個使用者訊息</tspan></text>
<line class="gate" x1="39.00" y1="105.00" x2="41.00" y2="105.00"/>
<text class="gate-label" x="41.40" y="105.00"><tspan x="41.40" dy="0">排程心跳派發到期工作</tspan></text>
<circle class="junction" cx="20.00" cy="45.00" r="0.22"/>
<circle class="junction" cx="-13.00" cy="107.00" r="0.22"/>
<circle class="branch-junction" cx="30.00" cy="61.00" r="0.28"/>
<circle class="branch-junction" cx="20.00" cy="83.00" r="0.28"/>
</svg>