<svg xmlns="http://www.w3.org/2000/svg" width="967" height="1120" viewBox="0.00 -2.00 48.36 56.00" role="img">
<style>
.step{fill:#fff;stroke:#111;stroke-width:.14}.step-inner{fill:none;stroke:#111;stroke-width:.08}
.action{fill:#fff;stroke:#111;stroke-width:.14}.gate{stroke:#111;stroke-width:.16}
.edge{fill:none;stroke:#111;stroke-width:.05;stroke-linecap:round;stroke-linejoin:round}.edge-arrow{marker-end:url(#arrow)}
.flyover-mask{stroke:#fff;stroke-width:.12;stroke-linecap:round}
.flyover{fill:none;stroke:#111;stroke-width:.05;stroke-linecap:round}
.junction{fill:#111;stroke:#111;stroke-width:0}.branch-junction{fill:#fff;stroke:#111;stroke-width:.08}
.assoc{stroke:#111;stroke-width:.05}.label{font:bold .7px 'Times New Roman', 'BiauKai', 'DFKai-SB', serif;text-anchor:middle;dominant-baseline:middle}
.action-label{font:.55px 'Times New Roman', 'BiauKai', 'DFKai-SB', serif;text-anchor:middle;dominant-baseline:middle}.gate-label{font:italic .55px 'Times New Roman', 'BiauKai', 'DFKai-SB', serif;text-anchor:start;dominant-baseline:middle}.gate-label-left{font:italic .55px 'Times New Roman', 'BiauKai', 'DFKai-SB', serif;text-anchor:end;dominant-baseline:middle}
</style>
<defs><marker id="arrow" markerWidth="0.4" markerHeight="0.4" refX="0.36" refY="0.2" orient="auto" markerUnits="userSpaceOnUse"><path d="M 0 0 L 0.4 0.2 L 0 0.4 z" fill="#111"/></marker></defs>
<rect x="0.00" y="-2.00" width="48.36" height="56.00" fill="white"/>
<path class="edge" d="M 28.68 7.00 L 28.68 9.00"/>
<path class="edge edge-arrow" d="M 28.68 9.00 L 28.68 11.00"/>
<path class="edge" d="M 28.68 14.00 L 28.68 16.00"/>
<path class="edge edge-arrow" d="M 28.68 16.00 L 28.68 18.00"/>
<path class="edge" d="M 28.68 21.00 L 28.68 23.00"/>
<path class="edge edge-arrow" d="M 28.68 23.00 L 28.68 25.00"/>
<path class="edge edge-arrow" d="M 28.68 28.00 L 28.68 30.00"/>
<path class="edge edge-arrow" d="M 10.00 30.00 L 10.00 34.00"/>
<path class="edge edge-arrow" d="M 28.68 30.00 L 28.68 34.00"/>
<path class="edge edge-arrow" d="M 10.00 37.00 L 10.00 41.00"/>
<path class="edge edge-arrow" d="M 28.68 41.00 L 28.68 43.00"/>
<path class="edge edge-arrow" d="M 28.68 37.00 L 28.68 41.00"/>
<path class="edge" d="M 28.68 46.00 L 28.68 48.00"/>
<path class="edge edge-arrow" d="M 28.68 48.00 L 28.68 49.50 Q 28.68 50.00 28.18 50.00 L 4.50 50.00 Q 4.00 50.00 4.00 49.50 L 4.00 2.50 Q 4.00 2.00 4.50 2.00 L 28.18 2.00 Q 28.68 2.00 28.68 2.50 L 28.68 4.00"/>
<rect class="step" x="26.68" y="4.00" width="4.00" height="3.00" rx="0.35" ry="0.35"/>
<rect class="step-inner" x="26.93" y="4.25" width="3.50" height="2.50" rx="0.22" ry="0.22"/>
<text class="label" x="28.68" y="5.50">0</text>
<rect class="step" x="26.68" y="11.00" width="4.00" height="3.00" rx="0.35" ry="0.35"/>
<text class="label" x="28.68" y="12.50">1</text>
<rect class="step" x="26.68" y="18.00" width="4.00" height="3.00" rx="0.35" ry="0.35"/>
<text class="label" x="28.68" y="19.50">2</text>
<rect class="step" x="26.68" y="25.00" width="4.00" height="3.00" rx="0.35" ry="0.35"/>
<text class="label" x="28.68" y="26.50">3</text>
<rect class="step" x="8.00" y="34.00" width="4.00" height="3.00" rx="0.35" ry="0.35"/>
<text class="label" x="10.00" y="35.50">4</text>
<rect class="step" x="26.68" y="34.00" width="4.00" height="3.00" rx="0.35" ry="0.35"/>
<text class="label" x="28.68" y="35.50">5</text>
<rect class="step" x="26.68" y="43.00" width="4.00" height="3.00" rx="0.35" ry="0.35"/>
<text class="label" x="28.68" y="44.50">6</text>
<line class="assoc" x1="30.68" y1="5.50" x2="31.68" y2="5.50"/>
<rect class="action" x="31.68" y="4.07" width="12.68" height="2.86"/>
<text class="action-label" x="38.02" y="5.09"><tspan x="38.02" dy="0">Idle; provider awaiting next re</tspan><tspan x="38.02" dy="0.82">quest from opencode runtime</tspan></text>
<line class="assoc" x1="30.68" y1="12.50" x2="31.68" y2="12.50"/>
<rect class="action" x="31.68" y="11.07" width="12.68" height="2.86"/>
<text class="action-label" x="38.02" y="11.68"><tspan x="38.02" dy="0">Build headers: emit session_id (sessionId) AND thre</tspan><tspan x="38.02" dy="0.82">ad_id (threadId default sessionId); set x-client-req</tspan><tspan x="38.02" dy="0.82">uest-id from threadId (DD-1, DD-2, INV-1, INV-2)</tspan></text>
<line class="assoc" x1="30.68" y1="19.50" x2="31.68" y2="19.50"/>
<rect class="action" x="31.68" y="18.07" width="12.68" height="2.86"/>
<text class="action-label" x="38.02" y="18.68"><tspan x="38.02" dy="0">Build request body: prompt_cache_key so</tspan><tspan x="38.02" dy="0.82">urces from threadId (== sessionId by def</tspan><tspan x="38.02" dy="0.82">ault); custom override preserved (INV-3)</tspan></text>
<line class="assoc" x1="30.68" y1="26.50" x2="31.68" y2="26.50"/>
<rect class="action" x="31.68" y="25.07" width="12.68" height="2.86"/>
<text class="action-label" x="38.02" y="26.09"><tspan x="38.02" dy="0">WS send wrapped with promise + WS_I</tspan><tspan x="38.02" dy="0.82">DLE_TIMEOUT_MS race (DD-3, INV-4)</tspan></text>
<line class="assoc" x1="12.00" y1="35.50" x2="13.00" y2="35.50"/>
<rect class="action" x="13.00" y="34.07" width="12.68" height="2.86"/>
<text class="action-label" x="19.34" y="34.68"><tspan x="19.34" dy="0">Send callback resolved before timeout: ent</tspan><tspan x="19.34" dy="0.82">er receive-loop (existing flow); on success</tspan><tspan x="19.34" dy="0.82">wsErrorReason=null and stream completes</tspan></text>
<line class="assoc" x1="30.68" y1="35.50" x2="31.68" y2="35.50"/>
<rect class="action" x="31.68" y="34.07" width="12.68" height="2.86"/>
<text class="action-label" x="38.02" y="35.09"><tspan x="38.02" dy="0">Timer fires before send callback: wsObs.wsError</tspan><tspan x="38.02" dy="0.82">Reason := &#x27;ws_send_timeout&#x27;; abort ws; endStream</tspan></text>
<line class="assoc" x1="30.68" y1="44.50" x2="31.68" y2="44.50"/>
<rect class="action" x="31.68" y="43.07" width="12.68" height="2.86"/>
<text class="action-label" x="38.02" y="43.68"><tspan x="38.02" dy="0">Empty-turn classifier reads wsErrorReaso</tspan><tspan x="38.02" dy="0.82">n snapshot; ws_send_timeout maps to categ</tspan><tspan x="38.02" dy="0.82">ory=transient with retry recovery (INV-5)</tspan></text>
<line class="gate" x1="27.68" y1="9.00" x2="29.68" y2="9.00"/>
<line class="gate" x1="27.68" y1="16.00" x2="29.68" y2="16.00"/>
<line class="gate" x1="27.68" y1="23.00" x2="29.68" y2="23.00"/>
<line class="gate" x1="8.00" y1="30.00" x2="30.68" y2="30.00"/>
<line class="gate" x1="8.00" y1="41.00" x2="30.68" y2="41.00"/>
<line class="gate" x1="27.68" y1="48.00" x2="29.68" y2="48.00"/>
<line class="gate" x1="9.00" y1="32.00" x2="11.00" y2="32.00"/>
<line class="gate" x1="27.68" y1="32.00" x2="29.68" y2="32.00"/>
<line class="gate" x1="9.00" y1="39.00" x2="11.00" y2="39.00"/>
<line class="gate" x1="27.68" y1="39.00" x2="29.68" y2="39.00"/>
</svg>