<svg xmlns="http://www.w3.org/2000/svg" width="1736" height="1560" viewBox="-14.00 -2.00 86.79 78.00" role="img">
<style>
.step{fill:#fff;stroke:#111;stroke-width:.14}.step-inner{fill:none;stroke:#111;stroke-width:.08}
.action{fill:#fff;stroke:#111;stroke-width:.14}.gate{stroke:#111;stroke-width:.16}
.edge{fill:none;stroke:#111;stroke-width:.05;stroke-linecap:round;stroke-linejoin:round}.edge-arrow{marker-end:url(#arrow)}
.flyover-mask{stroke:#fff;stroke-width:.12;stroke-linecap:round}
.flyover{fill:none;stroke:#111;stroke-width:.05;stroke-linecap:round}
.junction{fill:#111;stroke:#111;stroke-width:0}.branch-junction{fill:#fff;stroke:#111;stroke-width:.08}
.assoc{stroke:#111;stroke-width:.05}.label{font:bold .7px 'Times New Roman', 'BiauKai', 'DFKai-SB', serif;text-anchor:middle;dominant-baseline:middle}
.action-label{font:.55px 'Times New Roman', 'BiauKai', 'DFKai-SB', serif;text-anchor:middle;dominant-baseline:middle}.gate-label{font:italic .55px 'Times New Roman', 'BiauKai', 'DFKai-SB', serif;text-anchor:start;dominant-baseline:middle}.gate-label-left{font:italic .55px 'Times New Roman', 'BiauKai', 'DFKai-SB', serif;text-anchor:end;dominant-baseline:middle}
</style>
<defs><marker id="arrow" markerWidth="0.4" markerHeight="0.4" refX="0.36" refY="0.2" orient="auto" markerUnits="userSpaceOnUse"><path d="M 0 0 L 0.4 0.2 L 0 0.4 z" fill="#111"/></marker></defs>
<rect x="-14.00" y="-2.00" width="86.79" height="78.00" fill="white"/>
<path class="edge edge-arrow" d="M 47.86 9.00 L 47.86 13.00"/>
<path class="edge" d="M 47.86 7.00 L 47.86 9.00"/>
<path class="edge edge-arrow" d="M 47.86 16.00 L 47.86 18.00"/>
<path class="edge edge-arrow" d="M 23.93 18.00 L 23.93 22.00"/>
<path class="edge edge-arrow" d="M 47.86 18.00 L 47.86 22.00"/>
<path class="edge" d="M 23.93 25.00 L 23.93 27.00"/>
<path class="edge edge-arrow" d="M 23.93 27.00 L 23.93 29.00"/>
<path class="edge" d="M 23.93 32.00 L 23.93 34.00"/>
<path class="edge edge-arrow" d="M 23.93 34.00 L 23.93 36.00"/>
<path class="edge" d="M 23.93 39.00 L 23.93 41.00"/>
<path class="edge" d="M 23.93 41.00 L 0.50 41.00 Q 0.00 41.00 0.00 41.50 L 0.00 43.00"/>
<path class="edge edge-arrow" d="M 0.00 43.00 L 0.00 45.00"/>
<path class="edge" d="M 23.93 41.00 L 23.93 43.00"/>
<path class="edge edge-arrow" d="M 23.93 43.00 L 23.93 45.00"/>
<path class="edge edge-arrow" d="M 23.93 41.00 L 46.36 41.00 Q 46.86 41.00 46.86 41.50 L 46.86 49.50 Q 46.86 50.00 46.36 50.00 L 28.43 50.00 Q 27.93 50.00 27.93 50.50 L 27.93 54.00"/>
<path class="edge edge-arrow" d="M 23.93 54.00 L 23.93 56.00"/>
<path class="edge" d="M 0.00 48.00 L 0.00 50.00"/>
<path class="edge" d="M 0.00 50.00 L 0.00 52.00"/>
<path class="edge" d="M 0.00 52.00 L -6.00 52.00"/>
<path class="edge" d="M -6.00 52.00 L -6.00 11.00"/>
<path class="edge" d="M -6.00 11.00 L 47.86 11.00"/>
<path class="edge edge-arrow" d="M 23.93 48.00 L 23.93 54.00"/>
<path class="edge edge-arrow" d="M 23.93 59.00 L 23.93 63.00"/>
<path class="edge edge-arrow" d="M 47.86 63.00 L 47.86 65.00"/>
<path class="edge edge-arrow" d="M 47.86 25.00 L 47.86 63.00"/>
<path class="edge" d="M 47.86 68.00 L 47.86 70.00"/>
<path class="edge edge-arrow" d="M 47.86 70.00 L 47.86 71.50 Q 47.86 72.00 47.36 72.00 L -9.50 72.00 Q -10.00 72.00 -10.00 71.50 L -10.00 2.50 Q -10.00 2.00 -9.50 2.00 L 47.36 2.00 Q 47.86 2.00 47.86 2.50 L 47.86 4.00"/>
<rect class="step" x="45.86" y="4.00" width="4.00" height="3.00" rx="0.35" ry="0.35"/>
<rect class="step-inner" x="46.11" y="4.25" width="3.50" height="2.50" rx="0.22" ry="0.22"/>
<text class="label" x="47.86" y="5.50">0</text>
<rect class="step" x="45.86" y="13.00" width="4.00" height="3.00" rx="0.35" ry="0.35"/>
<text class="label" x="47.86" y="14.50">1</text>
<rect class="step" x="21.93" y="22.00" width="4.00" height="3.00" rx="0.35" ry="0.35"/>
<text class="label" x="23.93" y="23.50">2</text>
<rect class="step" x="21.93" y="29.00" width="4.00" height="3.00" rx="0.35" ry="0.35"/>
<text class="label" x="23.93" y="30.50">3</text>
<rect class="step" x="21.93" y="36.00" width="4.00" height="3.00" rx="0.35" ry="0.35"/>
<text class="label" x="23.93" y="37.50">4</text>
<rect class="step" x="-2.00" y="45.00" width="4.00" height="3.00" rx="0.35" ry="0.35"/>
<text class="label" x="0.00" y="46.50">5</text>
<rect class="step" x="21.93" y="45.00" width="4.00" height="3.00" rx="0.35" ry="0.35"/>
<text class="label" x="23.93" y="46.50">6</text>
<rect class="step" x="21.93" y="56.00" width="4.00" height="3.00" rx="0.35" ry="0.35"/>
<text class="label" x="23.93" y="57.50">7</text>
<rect class="step" x="45.86" y="22.00" width="4.00" height="3.00" rx="0.35" ry="0.35"/>
<text class="label" x="47.86" y="23.50">8</text>
<rect class="step" x="45.86" y="65.00" width="4.00" height="3.00" rx="0.35" ry="0.35"/>
<text class="label" x="47.86" y="66.50">9</text>
<line class="assoc" x1="49.86" y1="5.50" x2="50.86" y2="5.50"/>
<rect class="action" x="50.86" y="4.07" width="17.93" height="2.86"/>
<text class="action-label" x="59.83" y="5.50"><tspan x="59.83" dy="0">Idle; provider awaiting next assistant turn request</tspan></text>
<line class="assoc" x1="49.86" y1="14.50" x2="50.86" y2="14.50"/>
<rect class="action" x="50.86" y="13.07" width="17.93" height="2.86"/>
<text class="action-label" x="59.83" y="13.68"><tspan x="59.83" dy="0">WS streaming; A2 receives codex frames, A3 emits te</tspan><tspan x="59.83" dy="0.82">xt-delta and tool-call parts as deltas arrive; counter</tspan><tspan x="59.83" dy="0.82">s emittedTextDeltas and emittedToolCalls accumulate</tspan></text>
<line class="assoc" x1="25.93" y1="23.50" x2="26.93" y2="23.50"/>
<rect class="action" x="26.93" y="22.07" width="17.93" height="2.86"/>
<text class="action-label" x="35.89" y="23.09"><tspan x="35.89" dy="0">Run classifier on streamStateSnapshot + requestOptionsShape; d</tspan><tspan x="35.89" dy="0.82">erive {causeFamily, recoveryAction, suspectParams, logSequence}</tspan></text>
<line class="assoc" x1="25.93" y1="30.50" x2="26.93" y2="30.50"/>
<rect class="action" x="26.93" y="29.07" width="17.93" height="2.86"/>
<text class="action-label" x="35.89" y="29.68"><tspan x="35.89" dy="0">Persist log entry: append JSONL line to &lt;state&gt;/codex/emp</tspan><tspan x="35.89" dy="0.82">ty-turns.jsonl AND publish bus event on codex.emptyTurn; o</tspan><tspan x="35.89" dy="0.82">n write failure swallow and emit console.error breadcrumb</tspan></text>
<line class="assoc" x1="25.93" y1="37.50" x2="26.93" y2="37.50"/>
<rect class="action" x="26.93" y="36.07" width="17.93" height="2.86"/>
<text class="action-label" x="35.89" y="37.50"><tspan x="35.89" dy="0">Apply recovery action selected by classifier</tspan></text>
<line class="assoc" x1="2.00" y1="46.50" x2="3.00" y2="46.50"/>
<rect class="action" x="3.00" y="45.07" width="17.93" height="2.86"/>
<text class="action-label" x="11.96" y="46.09"><tspan x="11.96" dy="0">Retry: WS reopens with same body; flip retryAttempted=true; cap at</tspan><tspan x="11.96" dy="0.82">one attempt (DD-7); state.usage and counters reset for new attempt</tspan></text>
<line class="assoc" x1="25.93" y1="46.50" x2="26.93" y2="46.50"/>
<rect class="action" x="26.93" y="45.07" width="17.93" height="2.86"/>
<text class="action-label" x="35.89" y="45.68"><tspan x="35.89" dy="0">Synthesize text part from accumulated deltas (D</tspan><tspan x="35.89" dy="0.82">ORMANT: no current cause family selects this; re</tspan><tspan x="35.89" dy="0.82">served for future codex shape changes per DD-8)</tspan></text>
<line class="assoc" x1="25.93" y1="57.50" x2="26.93" y2="57.50"/>
<rect class="action" x="26.93" y="56.07" width="17.93" height="2.86"/>
<text class="action-label" x="35.89" y="56.68"><tspan x="35.89" dy="0">A3 emits finish part with providerMetadata.openai.emptyTurnClassificat</tspan><tspan x="35.89" dy="0.82">ion; A6 (runloop empty-response guard) fires broad question-mark nudge</tspan><tspan x="35.89" dy="0.82">per D-4 and attaches classification metadata to the synthetic message</tspan></text>
<line class="assoc" x1="49.86" y1="23.50" x2="50.86" y2="23.50"/>
<rect class="action" x="50.86" y="22.07" width="17.93" height="2.86"/>
<text class="action-label" x="59.83" y="23.09"><tspan x="59.83" dy="0">Normal completion: emit finish part with finishReason in {stop, tool-calls</tspan><tspan x="59.83" dy="0.82">, length}; classifier was NOT invoked; no empty-turn metadata attached</tspan></text>
<line class="assoc" x1="49.86" y1="66.50" x2="50.86" y2="66.50"/>
<rect class="action" x="50.86" y="65.07" width="17.93" height="2.86"/>
<text class="action-label" x="59.83" y="66.09"><tspan x="59.83" dy="0">Turn complete; runloop processes any nudg</tspan><tspan x="59.83" dy="0.82">e or normal finish; provider returns to idle</tspan></text>
<line class="gate" x1="46.86" y1="9.00" x2="48.86" y2="9.00"/>
<text class="gate-label" x="49.26" y="9.00"><tspan x="49.26" dy="0">request_body_built AND ws_connection_opened</tspan></text>
<line class="gate" x1="21.93" y1="18.00" x2="49.86" y2="18.00"/>
<line class="gate" x1="22.93" y1="27.00" x2="24.93" y2="27.00"/>
<text class="gate-label" x="25.33" y="27.00"><tspan x="25.33" dy="0">classification_complete</tspan></text>
<line class="gate" x1="22.93" y1="34.00" x2="24.93" y2="34.00"/>
<text class="gate-label" x="25.33" y="34.00"><tspan x="25.33" dy="0">log_dispatch_attempted</tspan></text>
<line class="gate" x1="-1.00" y1="43.00" x2="1.00" y2="43.00"/>
<text class="gate-label" x="1.40" y="43.00"><tspan x="1.40" dy="0">recoveryAction == retry-once-then-soft-fail AND retryAttempted == false</tspan></text>
<line class="gate" x1="22.93" y1="43.00" x2="24.93" y2="43.00"/>
<text class="gate-label" x="25.33" y="43.00"><tspan x="25.33" dy="0">recoveryAction == synthesize-from-deltas</tspan></text>
<line class="gate" x1="21.93" y1="54.00" x2="29.93" y2="54.00"/>
<line class="gate" x1="-1.00" y1="50.00" x2="1.00" y2="50.00"/>
<text class="gate-label" x="1.40" y="50.00"><tspan x="1.40" dy="0">ws_reopened AND body_resent</tspan></text>
<line class="gate" x1="21.93" y1="63.00" x2="49.86" y2="63.00"/>
<line class="gate" x1="46.86" y1="70.00" x2="48.86" y2="70.00"/>
<text class="gate-label" x="49.26" y="70.00"><tspan x="49.26" dy="0">session_ready_for_next_turn</tspan></text>
<line class="gate" x1="22.93" y1="20.00" x2="24.93" y2="20.00"/>
<text class="gate-label-left" x="22.53" y="20.00"><tspan x="22.53" dy="0">stream_ended AND emittedTextDeltas == 0 AND emittedToolCalls == 0</tspan></text>
<line class="gate" x1="46.86" y1="20.00" x2="48.86" y2="20.00"/>
<text class="gate-label" x="49.26" y="20.00"><tspan x="49.26" dy="0">stream_ended AND (emittedTextDeltas &gt; 0 OR emittedToolCalls &gt; 0)</tspan></text>
<line class="gate" x1="26.93" y1="52.00" x2="28.93" y2="52.00"/>
<text class="gate-label" x="29.33" y="51.32"><tspan x="29.33" dy="0">recoveryAction IN {pass-through</tspan><tspan x="29.33" dy="0.68">-to-runloop-nudge, log-and-conti</tspan><tspan x="29.33" dy="0.68">nue} OR retryAttempted == true</tspan></text>
<line class="gate" x1="22.93" y1="50.00" x2="24.93" y2="50.00"/>
<text class="gate-label-left" x="22.53" y="50.00"><tspan x="22.53" dy="0">synthesized_text_emitted</tspan></text>
<line class="gate" x1="22.93" y1="61.00" x2="24.93" y2="61.00"/>
<text class="gate-label-left" x="22.53" y="61.00"><tspan x="22.53" dy="0">finish_with_classification_emitted AND nudge_dispatched</tspan></text>
<line class="gate" x1="46.86" y1="61.00" x2="48.86" y2="61.00"/>
<text class="gate-label" x="49.26" y="61.00"><tspan x="49.26" dy="0">normal_finish_emitted</tspan></text>
<circle class="junction" cx="47.86" cy="11.00" r="0.22"/>
<circle class="branch-junction" cx="23.93" cy="41.00" r="0.28"/>
</svg>