<svg width="1360" height="1010" viewBox="-180.0 -50.0 1360.0 1010.0" xmlns="http://www.w3.org/2000/svg">
<defs><marker id="arrow" viewBox="0 0 10 10" refX="10" refY="5" markerWidth="6" markerHeight="6" orient="auto-start-reverse"><path d="M 0 0 L 10 5 L 0 10 z" fill="black" /></marker></defs>
<rect x="-180.0" y="-50.0" width="1360.0" height="1010.0" fill="white" />
<rect x="380.0" y="80.0" width="40.0" height="40.0" stroke="black" stroke-width="1.5" fill="white" />
<rect x="385.0" y="85.0" width="30.0" height="30.0" stroke="black" stroke-width="1" fill="none" />
<text x="400" y="105.0" text-anchor="middle" font-family="'Times New Roman', 'BiauKai', 'DFKai-SB', '標楷體', 'KaiTi', serif" font-weight="bold" font-size="14">0</text>
<line x1="420.0" y1="100.0" x2="460.0" y2="100.0" stroke="black" />
<rect x="460.0" y="54.0" width="160.0" height="92.0" stroke="black" stroke-width="1.2" fill="white" />
<text x="540.0" y="104.0" text-anchor="middle" font-family="'Times New Roman', 'BiauKai', 'DFKai-SB', '標楷體', 'KaiTi', serif" font-size="11">閒置</text>
<line x1="400" y1="120.0" x2="400" y2="200.0" stroke="black" />
<line x1="380" y1="160.0" x2="420" y2="160.0" stroke="black" stroke-width="2" />
<text x="424.0" y="164.0" font-style="italic" font-size="11" text-anchor="start" font-family="'Times New Roman', 'BiauKai', 'DFKai-SB', '標楷體', 'KaiTi', serif">設定requested</text>
<rect x="380.0" y="200.0" width="40.0" height="40.0" stroke="black" stroke-width="1.5" fill="white" />
<text x="400" y="225.0" text-anchor="middle" font-family="'Times New Roman', 'BiauKai', 'DFKai-SB', '標楷體', 'KaiTi', serif" font-weight="bold" font-size="14">1</text>
<line x1="420.0" y1="220.0" x2="460.0" y2="220.0" stroke="black" />
<rect x="460.0" y="174.0" width="160.0" height="92.0" stroke="black" stroke-width="1.2" fill="white" />
<text x="540.0" y="200.0" text-anchor="middle" font-family="'Times New Roman', 'BiauKai', 'DFKai-SB', '標楷體', 'KaiTi', serif" font-size="11">解析 Main</text>
<text x="540.0" y="224.0" text-anchor="middle" font-family="'Times New Roman', 'BiauKai', 'DFKai-SB', '標楷體', 'KaiTi', serif" font-size="11">opencode.</text>
<text x="540.0" y="248.00000000000003" text-anchor="middle" font-family="'Times New Roman', 'BiauKai', 'DFKai-SB', '標楷體', 'KaiTi', serif" font-size="11">js在</text>
<line x1="400" y1="240.0" x2="400" y2="280.0" stroke="black" />
<line x1="40.0" y1="280.0" x2="760.0" y2="280.0" stroke="black" stroke-width="1.5" />
<line x1="80.0" y1="280.0" x2="80.0" y2="320.0" stroke="black" />
<line x1="60.0" y1="320.0" x2="100.0" y2="320.0" stroke="black" stroke-width="2" />
<text x="56.0" y="324.0" font-style="italic" font-size="11" text-anchor="end" font-family="'Times New Roman', 'BiauKai', 'DFKai-SB', '標楷體', 'KaiTi', serif">解析ok</text>
<line x1="80.0" y1="320.0" x2="80.0" y2="360.0" stroke="black" marker-end="url(#arrow)" />
<line x1="720.0" y1="280.0" x2="720.0" y2="320.0" stroke="black" />
<line x1="700.0" y1="320.0" x2="740.0" y2="320.0" stroke="black" stroke-width="2" />
<text x="744.0" y="324.0" font-style="italic" font-size="11" text-anchor="start" font-family="'Times New Roman', 'BiauKai', 'DFKai-SB', '標楷體', 'KaiTi', serif">解析fail</text>
<line x1="720.0" y1="320.0" x2="720.0" y2="360.0" stroke="black" marker-end="url(#arrow)" />
<rect x="60.0" y="360.0" width="40.0" height="40.0" stroke="black" stroke-width="1.5" fill="white" />
<text x="80.0" y="385.0" text-anchor="middle" font-family="'Times New Roman', 'BiauKai', 'DFKai-SB', '標楷體', 'KaiTi', serif" font-weight="bold" font-size="14">2</text>
<line x1="100.0" y1="380.0" x2="140.0" y2="380.0" stroke="black" />
<rect x="140.0" y="334.0" width="160.0" height="92.0" stroke="black" stroke-width="1.2" fill="white" />
<text x="220.0" y="360.0" text-anchor="middle" font-family="'Times New Roman', 'BiauKai', 'DFKai-SB', '標楷體', 'KaiTi', serif" font-size="11">Write LKG</text>
<text x="220.0" y="384.0" text-anchor="middle" font-family="'Times New Roman', 'BiauKai', 'DFKai-SB', '標楷體', 'KaiTi', serif" font-size="11">Snapshot</text>
<text x="220.0" y="408.0" text-anchor="middle" font-family="'Times New Roman', 'BiauKai', 'DFKai-SB', '標楷體', 'KaiTi', serif" font-size="11">Atomic</text>
<line x1="80.0" y1="400.0" x2="80.0" y2="480.0" stroke="black" />
<line x1="60.0" y1="440.0" x2="100.0" y2="440.0" stroke="black" stroke-width="2" />
<text x="104.0" y="444.0" font-style="italic" font-size="11" text-anchor="start" font-family="'Times New Roman', 'BiauKai', 'DFKai-SB', '標楷體', 'KaiTi', serif">lkgwritten</text>
<rect x="700.0" y="360.0" width="40.0" height="40.0" stroke="black" stroke-width="1.5" fill="white" />
<text x="720.0" y="385.0" text-anchor="middle" font-family="'Times New Roman', 'BiauKai', 'DFKai-SB', '標楷體', 'KaiTi', serif" font-weight="bold" font-size="14">3</text>
<line x1="740.0" y1="380.0" x2="780.0" y2="380.0" stroke="black" />
<rect x="780.0" y="334.0" width="160.0" height="92.0" stroke="black" stroke-width="1.2" fill="white" />
<text x="860.0" y="372.0" text-anchor="middle" font-family="'Times New Roman', 'BiauKai', 'DFKai-SB', '標楷體', 'KaiTi', serif" font-size="11">記錄 Warn</text>
<text x="860.0" y="395.99999999999994" text-anchor="middle" font-family="'Times New Roman', 'BiauKai', 'DFKai-SB', '標楷體', 'KaiTi', serif" font-size="11">與 Read LKG</text>
<line x1="720.0" y1="400.0" x2="720.0" y2="440.0" stroke="black" />
<line x1="520.0" y1="440.0" x2="920.0" y2="440.0" stroke="black" stroke-width="1.5" />
<line x1="560.0" y1="440.0" x2="560.0" y2="480.0" stroke="black" />
<line x1="540.0" y1="480.0" x2="580.0" y2="480.0" stroke="black" stroke-width="2" />
<text x="536.0" y="484.0" font-style="italic" font-size="11" text-anchor="end" font-family="'Times New Roman', 'BiauKai', 'DFKai-SB', '標楷體', 'KaiTi', serif">lkgexists</text>
<line x1="560.0" y1="480.0" x2="560.0" y2="520.0" stroke="black" marker-end="url(#arrow)" />
<line x1="880.0" y1="440.0" x2="880.0" y2="480.0" stroke="black" />
<line x1="860.0" y1="480.0" x2="900.0" y2="480.0" stroke="black" stroke-width="2" />
<text x="904.0" y="484.0" font-style="italic" font-size="11" text-anchor="start" font-family="'Times New Roman', 'BiauKai', 'DFKai-SB', '標楷體', 'KaiTi', serif">lkg缺失</text>
<line x1="880.0" y1="480.0" x2="880.0" y2="520.0" stroke="black" marker-end="url(#arrow)" />
<rect x="540.0" y="520.0" width="40.0" height="40.0" stroke="black" stroke-width="1.5" fill="white" />
<text x="560.0" y="545.0" text-anchor="middle" font-family="'Times New Roman', 'BiauKai', 'DFKai-SB', '標楷體', 'KaiTi', serif" font-weight="bold" font-size="14">4</text>
<line x1="580.0" y1="540.0" x2="620.0" y2="540.0" stroke="black" />
<rect x="620.0" y="494.0" width="160.0" height="92.0" stroke="black" stroke-width="1.2" fill="white" />
<text x="700.0" y="520.0" text-anchor="middle" font-family="'Times New Roman', 'BiauKai', 'DFKai-SB', '標楷體', 'KaiTi', serif" font-size="11">Serve 設定</text>
<text x="700.0" y="544.0" text-anchor="middle" font-family="'Times New Roman', 'BiauKai', 'DFKai-SB', '標楷體', 'KaiTi', serif" font-size="11">使用 設定</text>
<text x="700.0" y="568.0" text-anchor="middle" font-family="'Times New Roman', 'BiauKai', 'DFKai-SB', '標楷體', 'KaiTi', serif" font-size="11">stale Flag</text>
<line x1="560.0" y1="560.0" x2="560.0" y2="640.0" stroke="black" />
<line x1="540.0" y1="600.0" x2="580.0" y2="600.0" stroke="black" stroke-width="2" />
<text x="584.0" y="604.0" font-style="italic" font-size="11" text-anchor="start" font-family="'Times New Roman', 'BiauKai', 'DFKai-SB', '標楷體', 'KaiTi', serif">staleserved</text>
<rect x="540.0" y="640.0" width="40.0" height="40.0" stroke="black" stroke-width="1.5" fill="white" />
<text x="560.0" y="665.0" text-anchor="middle" font-family="'Times New Roman', 'BiauKai', 'DFKai-SB', '標楷體', 'KaiTi', serif" font-weight="bold" font-size="14">5</text>
<line x1="580.0" y1="660.0" x2="620.0" y2="660.0" stroke="black" />
<rect x="620.0" y="614.0" width="160.0" height="92.0" stroke="black" stroke-width="1.2" fill="white" />
<text x="700.0" y="640.0" text-anchor="middle" font-family="'Times New Roman', 'BiauKai', 'DFKai-SB', '標楷體', 'KaiTi', serif" font-size="11">Derive Provider</text>
<text x="700.0" y="664.0" text-anchor="middle" font-family="'Times New Roman', 'BiauKai', 'DFKai-SB', '標楷體', 'KaiTi', serif" font-size="11">Availability</text>
<text x="700.0" y="688.0" text-anchor="middle" font-family="'Times New Roman', 'BiauKai', 'DFKai-SB', '標楷體', 'KaiTi', serif" font-size="11">來自 帳號</text>
<line x1="560.0" y1="680.0" x2="560.0" y2="760.0" stroke="black" />
<line x1="540.0" y1="720.0" x2="580.0" y2="720.0" stroke="black" stroke-width="2" />
<text x="584.0" y="724.0" font-style="italic" font-size="11" text-anchor="start" font-family="'Times New Roman', 'BiauKai', 'DFKai-SB', '標楷體', 'KaiTi', serif">availability就緒</text>
<rect x="540.0" y="760.0" width="40.0" height="40.0" stroke="black" stroke-width="1.5" fill="white" />
<text x="560.0" y="785.0" text-anchor="middle" font-family="'Times New Roman', 'BiauKai', 'DFKai-SB', '標楷體', 'KaiTi', serif" font-weight="bold" font-size="14">6</text>
<line x1="580.0" y1="780.0" x2="620.0" y2="780.0" stroke="black" />
<rect x="620.0" y="734.0" width="160.0" height="92.0" stroke="black" stroke-width="1.2" fill="white" />
<text x="700.0" y="760.0" text-anchor="middle" font-family="'Times New Roman', 'BiauKai', 'DFKai-SB', '標楷體', 'KaiTi', serif" font-size="11">返回 設</text>
<text x="700.0" y="784.0" text-anchor="middle" font-family="'Times New Roman', 'BiauKai', 'DFKai-SB', '標楷體', 'KaiTi', serif" font-size="11">定 到</text>
<text x="700.0" y="807.9999999999999" text-anchor="middle" font-family="'Times New Roman', 'BiauKai', 'DFKai-SB', '標楷體', 'KaiTi', serif" font-size="11">Caller</text>
<line x1="560.0" y1="800.0" x2="560.0" y2="880.0" stroke="black" />
<line x1="540.0" y1="840.0" x2="580.0" y2="840.0" stroke="black" stroke-width="2" />
<text x="584.0" y="844.0" font-style="italic" font-size="11" text-anchor="start" font-family="'Times New Roman', 'BiauKai', 'DFKai-SB', '標楷體', 'KaiTi', serif">回應done</text>
<rect x="860.0" y="520.0" width="40.0" height="40.0" stroke="black" stroke-width="1.5" fill="white" />
<text x="880.0" y="545.0" text-anchor="middle" font-family="'Times New Roman', 'BiauKai', 'DFKai-SB', '標楷體', 'KaiTi', serif" font-weight="bold" font-size="14">7</text>
<line x1="900.0" y1="540.0" x2="940.0" y2="540.0" stroke="black" />
<rect x="940.0" y="494.0" width="160.0" height="92.0" stroke="black" stroke-width="1.2" fill="white" />
<text x="1020.0" y="520.0" text-anchor="middle" font-family="'Times New Roman', 'BiauKai', 'DFKai-SB', '標楷體', 'KaiTi', serif" font-size="11">發出 503</text>
<text x="1020.0" y="544.0" text-anchor="middle" font-family="'Times New Roman', 'BiauKai', 'DFKai-SB', '標楷體', 'KaiTi', serif" font-size="11">Structured</text>
<text x="1020.0" y="568.0" text-anchor="middle" font-family="'Times New Roman', 'BiauKai', 'DFKai-SB', '標楷體', 'KaiTi', serif" font-size="11">錯誤</text>
<line x1="880.0" y1="560.0" x2="880.0" y2="640.0" stroke="black" />
<line x1="860.0" y1="600.0" x2="900.0" y2="600.0" stroke="black" stroke-width="2" />
<text x="904.0" y="604.0" font-style="italic" font-size="11" text-anchor="start" font-family="'Times New Roman', 'BiauKai', 'DFKai-SB', '標楷體', 'KaiTi', serif">錯誤emitted</text>
<rect x="860.0" y="640.0" width="40.0" height="40.0" stroke="black" stroke-width="1.5" fill="white" />
<text x="880.0" y="665.0" text-anchor="middle" font-family="'Times New Roman', 'BiauKai', 'DFKai-SB', '標楷體', 'KaiTi', serif" font-weight="bold" font-size="14">8</text>
<line x1="900.0" y1="660.0" x2="940.0" y2="660.0" stroke="black" />
<rect x="940.0" y="614.0" width="160.0" height="92.0" stroke="black" stroke-width="1.2" fill="white" />
<text x="1020.0" y="640.0" text-anchor="middle" font-family="'Times New Roman', 'BiauKai', 'DFKai-SB', '標楷體', 'KaiTi', serif" font-size="11">渲染 錯誤</text>
<text x="1020.0" y="664.0" text-anchor="middle" font-family="'Times New Roman', 'BiauKai', 'DFKai-SB', '標楷體', 'KaiTi', serif" font-size="11">boundary</text>
<text x="1020.0" y="688.0" text-anchor="middle" font-family="'Times New Roman', 'BiauKai', 'DFKai-SB', '標楷體', 'KaiTi', serif" font-size="11">在 Webapp</text>
<line x1="880.0" y1="680.0" x2="880.0" y2="760.0" stroke="black" />
<line x1="860.0" y1="720.0" x2="900.0" y2="720.0" stroke="black" stroke-width="2" />
<text x="904.0" y="724.0" font-style="italic" font-size="11" text-anchor="start" font-family="'Times New Roman', 'BiauKai', 'DFKai-SB', '標楷體', 'KaiTi', serif">uirendered</text>
<line x1="40.0" y1="880.0" x2="760.0" y2="880.0" stroke="black" stroke-width="1.5" />
<line x1="80.0" y1="480.0" x2="80.0" y2="880.0" stroke="black" />
<line x1="720.0" y1="880.0" x2="720.0" y2="880.0" stroke="black" />
<line x1="400" y1="880.0" x2="400" y2="920.0" stroke="black" marker-end="url(#arrow)" />
<line x1="560.0" y1="880.0" x2="560.0" y2="880.0" stroke="black" />
<line x1="560.0" y1="880.0" x2="-20.0" y2="880.0" stroke="black" />
<line x1="-20.0" y1="880.0" x2="-20.0" y2="30.0" stroke="black" />
<line x1="-20.0" y1="30.0" x2="400" y2="30.0" stroke="black" />
<line x1="400" y1="30.0" x2="400" y2="70.0" stroke="black" marker-end="url(#arrow)" />
<line x1="880.0" y1="760.0" x2="880.0" y2="780.0" stroke="black" />
<line x1="880.0" y1="780.0" x2="-100.0" y2="780.0" stroke="black" />
<line x1="-100.0" y1="780.0" x2="-100.0" y2="30.0" stroke="black" />
<line x1="-100.0" y1="30.0" x2="400" y2="30.0" stroke="black" />
<line x1="400" y1="30.0" x2="400" y2="70.0" stroke="black" marker-end="url(#arrow)" />
</svg>