<svg xmlns="http://www.w3.org/2000/svg" width="980" height="590" viewBox="0 0 980 590" role="img" aria-label="webapp GRAFCET A3">
<defs><marker id="arrow" markerWidth="10" markerHeight="10" refX="8" refY="3" orient="auto" markerUnits="strokeWidth"><path d="M0,0 L0,6 L9,3 z" fill="#111"/></marker></defs>
<style>
.title{font:bold 26px serif;fill:#111}.meta{font:14px monospace;fill:#555}.step{fill:#fff;stroke:#111;stroke-width:2}.step-inner{fill:none;stroke:#111;stroke-width:1.5}.step-no{font:bold 22px serif;text-anchor:middle;dominant-baseline:middle}.assoc,.edge{stroke:#111;stroke-width:2;fill:none}.action{fill:#fff;stroke:#111;stroke-width:2}.module{fill:#f8fafc;stroke:#475569;stroke-width:1.5}.label{font:18px serif;fill:#111}.module-label{font:15px monospace;fill:#334155}.gate{font:14px serif;fill:#444}.gate-line{stroke:#111;stroke-width:2}
</style>
<rect width="100%" height="100%" fill="white"/>
<text class="title" x="40" y="42">webapp GRAFCET A3</text><text class="meta" x="40" y="70">source: specs/webapp/grafcet.json · layer: A3</text><rect class="step" x="54" y="105" width="72" height="72" rx="9"/><text class="step-no" x="90" y="149">3</text><line class="assoc" x1="126" y1="141" x2="160" y2="141"/><rect class="action" x="160" y="105" width="500" height="72" rx="8"/><text class="label" x="176" y="129"><tspan x="176" dy="0">serveauthenticatedSPA外殼</tspan></text><rect class="module" x="690" y="105" width="220" height="72" rx="8"/><text class="module-label" x="704" y="132"><tspan x="704" dy="0">ModuleRef: A31</tspan></text><text class="gate" x="176" y="197"><tspan x="176" dy="0">oc jwtvalidAND AuthGatepassed</tspan></text><path class="edge" d="M90 177 L90 225" marker-end="url(#arrow)"/><line class="gate-line" x1="58" y1="199" x2="122" y2="199"/><rect class="step" x="54" y="225" width="72" height="72" rx="9"/><text class="step-no" x="90" y="269">4</text><line class="assoc" x1="126" y1="261" x2="160" y2="261"/><rect class="action" x="160" y="225" width="500" height="72" rx="8"/><text class="label" x="176" y="249"><tspan x="176" dy="0">mountProvider與渲染路由</tspan></text><rect class="module" x="690" y="225" width="220" height="72" rx="8"/><text class="module-label" x="704" y="252"><tspan x="704" dy="0">ModuleRef: A33</tspan></text><text class="gate" x="176" y="317"><tspan x="176" dy="0">使用者opens管理; 使用者clicks路徑link; 使用者starts語音輸入</tspan></text><path class="edge" d="M90 297 L90 345" marker-end="url(#arrow)"/><line class="gate-line" x1="58" y1="319" x2="122" y2="319"/><rect class="step" x="54" y="345" width="72" height="72" rx="9"/><text class="step-no" x="90" y="389">6</text><line class="assoc" x1="126" y1="381" x2="160" y2="381"/><rect class="action" x="160" y="345" width="500" height="72" rx="8"/><text class="label" x="176" y="369"><tspan x="176" dy="0">渲染豐富markdownlink</tspan></text><rect class="module" x="690" y="345" width="220" height="72" rx="8"/><text class="module-label" x="704" y="372"><tspan x="704" dy="0">ModuleRef: A34</tspan></text><text class="gate" x="176" y="437"><tspan x="176" dy="0">檔案tabopened於line</tspan></text><path class="edge" d="M90 417 L90 465" marker-end="url(#arrow)"/><line class="gate-line" x1="58" y1="439" x2="122" y2="439"/><rect class="step" x="54" y="465" width="72" height="72" rx="9"/><text class="step-no" x="90" y="509">8</text><line class="assoc" x1="126" y1="501" x2="160" y2="501"/><rect class="action" x="160" y="465" width="500" height="72" rx="8"/><text class="label" x="176" y="489"><tspan x="176" dy="0">wait供下一個使用者事件</tspan></text><rect class="module" x="690" y="465" width="220" height="72" rx="8"/><text class="module-label" x="704" y="492"><tspan x="704" dy="0">ModuleRef: A3</tspan></text><text class="gate" x="176" y="557"><tspan x="176" dy="0">Session閒置或路由change</tspan></text>
</svg>
