<svg xmlns="http://www.w3.org/2000/svg" width="980" height="1430" viewBox="0 0 980 1430" role="img" aria-label="webapp GRAFCET A0">
<defs><marker id="arrow" markerWidth="10" markerHeight="10" refX="8" refY="3" orient="auto" markerUnits="strokeWidth"><path d="M0,0 L0,6 L9,3 z" fill="#111"/></marker></defs>
<style>
.title{font:bold 26px serif;fill:#111}.meta{font:14px monospace;fill:#555}.step{fill:#fff;stroke:#111;stroke-width:2}.step-inner{fill:none;stroke:#111;stroke-width:1.5}.step-no{font:bold 22px serif;text-anchor:middle;dominant-baseline:middle}.assoc,.edge{stroke:#111;stroke-width:2;fill:none}.action{fill:#fff;stroke:#111;stroke-width:2}.module{fill:#f8fafc;stroke:#475569;stroke-width:1.5}.label{font:18px serif;fill:#111}.module-label{font:15px monospace;fill:#334155}.gate{font:14px serif;fill:#444}.gate-line{stroke:#111;stroke-width:2}
</style>
<rect width="100%" height="100%" fill="white"/>
<text class="title" x="40" y="42">webapp GRAFCET A0</text><text class="meta" x="40" y="70">source: specs/webapp/grafcet.json · layer: A0</text><rect class="step" x="54" y="105" width="72" height="72" rx="9"/><rect class="step-inner" x="62" y="113" width="56" height="56" rx="7"/><text class="step-no" x="90" y="149">0</text><line class="assoc" x1="126" y1="141" x2="160" y2="141"/><rect class="action" x="160" y="105" width="500" height="72" rx="8"/><text class="label" x="176" y="129"><tspan x="176" dy="0">閒置無前端</tspan></text><rect class="module" x="690" y="105" width="220" height="72" rx="8"/><text class="module-label" x="704" y="132"><tspan x="704" dy="0">ModuleRef: A0</tspan></text><text class="gate" x="176" y="197"><tspan x="176" dy="0">operatorrunswebctl開發start</tspan></text><path class="edge" d="M90 177 L90 225" marker-end="url(#arrow)"/><line class="gate-line" x1="58" y1="199" x2="122" y2="199"/><rect class="step" x="54" y="225" width="72" height="72" rx="9"/><text class="step-no" x="90" y="269">1</text><line class="assoc" x1="126" y1="261" x2="160" y2="261"/><rect class="action" x="160" y="225" width="500" height="72" rx="8"/><text class="label" x="176" y="249"><tspan x="176" dy="0">建置前端Bundle</tspan></text><rect class="module" x="690" y="225" width="220" height="72" rx="8"/><text class="module-label" x="704" y="252"><tspan x="704" dy="0">ModuleRef: A12</tspan></text><text class="gate" x="176" y="317"><tspan x="176" dy="0">distemitted或開發伺服器listening</tspan></text><path class="edge" d="M90 297 L90 345" marker-end="url(#arrow)"/><line class="gate-line" x1="58" y1="319" x2="122" y2="319"/><rect class="step" x="54" y="345" width="72" height="72" rx="9"/><text class="step-no" x="90" y="389">2</text><line class="assoc" x1="126" y1="381" x2="160" y2="381"/><rect class="action" x="160" y="345" width="500" height="72" rx="8"/><text class="label" x="176" y="369"><tspan x="176" dy="0">發布Gateway路由</tspan></text><rect class="module" x="690" y="345" width="220" height="72" rx="8"/><text class="module-label" x="704" y="372"><tspan x="704" dy="0">ModuleRef: A22</tspan></text><text class="gate" x="176" y="437"><tspan x="176" dy="0">web路由confreloaded透過SIGHUP</tspan></text><path class="edge" d="M90 417 L90 465" marker-end="url(#arrow)"/><line class="gate-line" x1="58" y1="439" x2="122" y2="439"/><rect class="step" x="54" y="465" width="72" height="72" rx="9"/><text class="step-no" x="90" y="509">3</text><line class="assoc" x1="126" y1="501" x2="160" y2="501"/><rect class="action" x="160" y="465" width="500" height="72" rx="8"/><text class="label" x="176" y="489"><tspan x="176" dy="0">serveauthenticatedSPA外殼</tspan></text><rect class="module" x="690" y="465" width="220" height="72" rx="8"/><text class="module-label" x="704" y="492"><tspan x="704" dy="0">ModuleRef: A31</tspan></text><text class="gate" x="176" y="557"><tspan x="176" dy="0">oc jwtvalidAND AuthGatepassed</tspan></text><path class="edge" d="M90 537 L90 585" marker-end="url(#arrow)"/><line class="gate-line" x1="58" y1="559" x2="122" y2="559"/><rect class="step" x="54" y="585" width="72" height="72" rx="9"/><text class="step-no" x="90" y="629">4</text><line class="assoc" x1="126" y1="621" x2="160" y2="621"/><rect class="action" x="160" y="585" width="500" height="72" rx="8"/><text class="label" x="176" y="609"><tspan x="176" dy="0">mountProvider與渲染路由</tspan></text><rect class="module" x="690" y="585" width="220" height="72" rx="8"/><text class="module-label" x="704" y="612"><tspan x="704" dy="0">ModuleRef: A33</tspan></text><text class="gate" x="176" y="677"><tspan x="176" dy="0">使用者opens管理; 使用者clicks路徑link; 使用者starts語音輸入</tspan></text><path class="edge" d="M90 657 L90 705" marker-end="url(#arrow)"/><line class="gate-line" x1="58" y1="679" x2="122" y2="679"/><rect class="step" x="54" y="705" width="72" height="72" rx="9"/><text class="step-no" x="90" y="749">5</text><line class="assoc" x1="126" y1="741" x2="160" y2="741"/><rect class="action" x="160" y="705" width="500" height="72" rx="8"/><text class="label" x="176" y="729"><tspan x="176" dy="0">drive管理面板action</tspan></text><rect class="module" x="690" y="705" width="220" height="72" rx="8"/><text class="module-label" x="704" y="732"><tspan x="704" dy="0">ModuleRef: A4</tspan></text><text class="gate" x="176" y="797"><tspan x="176" dy="0">對話框actioncommitted或closed</tspan></text><path class="edge" d="M90 777 L90 825" marker-end="url(#arrow)"/><line class="gate-line" x1="58" y1="799" x2="122" y2="799"/><rect class="step" x="54" y="825" width="72" height="72" rx="9"/><text class="step-no" x="90" y="869">6</text><line class="assoc" x1="126" y1="861" x2="160" y2="861"/><rect class="action" x="160" y="825" width="500" height="72" rx="8"/><text class="label" x="176" y="849"><tspan x="176" dy="0">渲染豐富markdownlink</tspan></text><rect class="module" x="690" y="825" width="220" height="72" rx="8"/><text class="module-label" x="704" y="852"><tspan x="704" dy="0">ModuleRef: A34</tspan></text><text class="gate" x="176" y="917"><tspan x="176" dy="0">檔案tabopened於line</tspan></text><path class="edge" d="M90 897 L90 945" marker-end="url(#arrow)"/><line class="gate-line" x1="58" y1="919" x2="122" y2="919"/><rect class="step" x="54" y="945" width="72" height="72" rx="9"/><text class="step-no" x="90" y="989">7</text><line class="assoc" x1="126" y1="981" x2="160" y2="981"/><rect class="action" x="160" y="945" width="500" height="72" rx="8"/><text class="label" x="176" y="969"><tspan x="176" dy="0">capture語音透過chosen路徑</tspan></text><rect class="module" x="690" y="945" width="220" height="72" rx="8"/><text class="module-label" x="704" y="972"><tspan x="704" dy="0">ModuleRef: A5</tspan></text><text class="gate" x="176" y="1037"><tspan x="176" dy="0">語音buffer就緒或分塊available</tspan></text><path class="edge" d="M90 1017 L90 1065" marker-end="url(#arrow)"/><line class="gate-line" x1="58" y1="1039" x2="122" y2="1039"/><rect class="step" x="54" y="1065" width="72" height="72" rx="9"/><text class="step-no" x="90" y="1109">8</text><line class="assoc" x1="126" y1="1101" x2="160" y2="1101"/><rect class="action" x="160" y="1065" width="500" height="72" rx="8"/><text class="label" x="176" y="1089"><tspan x="176" dy="0">wait供下一個使用者事件</tspan></text><rect class="module" x="690" y="1065" width="220" height="72" rx="8"/><text class="module-label" x="704" y="1092"><tspan x="704" dy="0">ModuleRef: A3</tspan></text><text class="gate" x="176" y="1157"><tspan x="176" dy="0">Session閒置或路由change</tspan></text><path class="edge" d="M90 1137 L90 1185" marker-end="url(#arrow)"/><line class="gate-line" x1="58" y1="1159" x2="122" y2="1159"/><rect class="step" x="54" y="1185" width="72" height="72" rx="9"/><text class="step-no" x="90" y="1229">9</text><line class="assoc" x1="126" y1="1221" x2="160" y2="1221"/><rect class="action" x="160" y="1185" width="500" height="72" rx="8"/><text class="label" x="176" y="1209"><tspan x="176" dy="0">delivertranscript到提示</tspan></text><rect class="module" x="690" y="1185" width="220" height="72" rx="8"/><text class="module-label" x="704" y="1212"><tspan x="704" dy="0">ModuleRef: A5</tspan></text><text class="gate" x="176" y="1277"><tspan x="176" dy="0">apply語音transcriptsucceeded或explicit錯誤surfaced</tspan></text><path class="edge" d="M90 1257 L90 1305" marker-end="url(#arrow)"/><line class="gate-line" x1="58" y1="1279" x2="122" y2="1279"/><rect class="step" x="54" y="1305" width="72" height="72" rx="9"/><text class="step-no" x="90" y="1349">10</text><line class="assoc" x1="126" y1="1341" x2="160" y2="1341"/><rect class="action" x="160" y="1305" width="500" height="72" rx="8"/><text class="label" x="176" y="1329"><tspan x="176" dy="0">返回到閒置loop</tspan></text><rect class="module" x="690" y="1305" width="220" height="72" rx="8"/><text class="module-label" x="704" y="1332"><tspan x="704" dy="0">ModuleRef: A0</tspan></text><text class="gate" x="176" y="1397"><tspan x="176" dy="0">1</tspan></text>
</svg>
