<svg xmlns="http://www.w3.org/2000/svg" width="540" height="820" viewBox="4.00 0.00 27.00 41.00" role="img">
<style>
.step{fill:#fff;stroke:#111;stroke-width:.14}.step-inner{fill:none;stroke:#111;stroke-width:.08}
.action{fill:#fff;stroke:#111;stroke-width:.14}.gate{stroke:#111;stroke-width:.16}
.edge{fill:none;stroke:#111;stroke-width:.05;stroke-linecap:round;stroke-linejoin:round}.edge-arrow{marker-end:url(#arrow)}
.flyover-mask{stroke:#fff;stroke-width:.12;stroke-linecap:round}
.flyover{fill:none;stroke:#111;stroke-width:.05;stroke-linecap:round}
.junction{fill:#111;stroke:#111;stroke-width:0}.branch-junction{fill:#fff;stroke:#111;stroke-width:.08}
.assoc{stroke:#111;stroke-width:.05}.label{font:bold .7px 'Times New Roman', 'BiauKai', 'DFKai-SB', serif;text-anchor:middle;dominant-baseline:middle}
.action-label{font:.55px 'Times New Roman', 'BiauKai', 'DFKai-SB', serif;text-anchor:middle;dominant-baseline:middle}.gate-label{font:italic .55px 'Times New Roman', 'BiauKai', 'DFKai-SB', serif;text-anchor:start;dominant-baseline:middle}.gate-label-left{font:italic .55px 'Times New Roman', 'BiauKai', 'DFKai-SB', serif;text-anchor:end;dominant-baseline:middle}
</style>
<defs><marker id="arrow" markerWidth="0.4" markerHeight="0.4" refX="0.36" refY="0.2" orient="auto" markerUnits="userSpaceOnUse"><path d="M 0 0 L 0.4 0.2 L 0 0.4 z" fill="#111"/></marker></defs>
<rect x="4.00" y="0.00" width="27.00" height="41.00" fill="white"/>
<path class="edge" d="M 20.00 7.00 L 20.00 9.00"/>
<path class="edge edge-arrow" d="M 20.00 9.00 L 20.00 11.00"/>
<path class="edge" d="M 20.00 14.00 L 20.00 16.00"/>
<path class="edge" d="M 20.00 16.00 L 20.00 18.00"/>
<path class="edge edge-arrow" d="M 20.00 18.00 L 20.00 20.00"/>
<path class="edge edge-arrow" d="M 20.00 16.00 L 16.50 16.00 Q 16.00 16.00 16.00 16.50 L 16.00 31.00"/>
<path class="edge edge-arrow" d="M 10.00 31.00 L 10.00 33.00"/>
<path class="edge" d="M 20.00 23.00 L 20.00 25.00"/>
<path class="edge" d="M 20.00 25.00 L 20.00 27.00"/>
<path class="edge" d="M 20.00 27.00 L 20.00 37.00"/>
<path class="edge" d="M 20.00 37.00 L 24.45 37.00"/>
<path class="edge" d="M 24.45 37.00 L 24.45 31.62"/>
<path class="edge" d="M 24.45 31.62 L 20.00 31.62"/>
<path class="edge" d="M 20.00 25.00 L 24.45 25.00"/>
<rect class="step" x="18.00" y="4.00" width="4.00" height="3.00" rx="0.35" ry="0.35"/>
<rect class="step-inner" x="18.25" y="4.25" width="3.50" height="2.50" rx="0.22" ry="0.22"/>
<text class="label" x="20.00" y="5.50">0</text>
<rect class="step" x="18.00" y="11.00" width="4.00" height="3.00" rx="0.35" ry="0.35"/>
<text class="label" x="20.00" y="12.50">1</text>
<rect class="step" x="18.00" y="20.00" width="4.00" height="3.00" rx="0.35" ry="0.35"/>
<text class="label" x="20.00" y="21.50">2</text>
<rect class="step" x="18.00" y="33.00" width="4.00" height="3.00" rx="0.35" ry="0.35"/>
<text class="label" x="20.00" y="34.50">3</text>
<rect class="step" x="8.00" y="33.00" width="4.00" height="3.00" rx="0.35" ry="0.35"/>
<text class="label" x="10.00" y="34.50">4</text>
<line class="assoc" x1="22.00" y1="5.50" x2="23.00" y2="5.50"/>
<rect class="action" x="23.00" y="4.07" width="4.00" height="2.86"/>
<text class="action-label" x="25.00" y="4.68"><tspan x="25.00" dy="0">Load 排</tspan><tspan x="25.00" dy="0.82">程器 E</tspan><tspan x="25.00" dy="0.82">vidence</tspan></text>
<line class="assoc" x1="22.00" y1="12.50" x2="23.00" y2="12.50"/>
<rect class="action" x="23.00" y="11.07" width="4.00" height="2.86"/>
<text class="action-label" x="25.00" y="11.68"><tspan x="25.00" dy="0">Consolida</tspan><tspan x="25.00" dy="0.82">te Curren</tspan><tspan x="25.00" dy="0.82">t Baseline</tspan></text>
<line class="assoc" x1="22.00" y1="21.50" x2="23.00" y2="21.50"/>
<rect class="action" x="23.00" y="20.07" width="4.00" height="2.86"/>
<text class="action-label" x="25.00" y="20.68"><tspan x="25.00" dy="0">執行 Ha</tspan><tspan x="25.00" dy="0.82">rdening V</tspan><tspan x="25.00" dy="0.82">alidation</tspan></text>
<line class="assoc" x1="22.00" y1="34.50" x2="23.00" y2="34.50"/>
<rect class="action" x="23.00" y="33.07" width="4.00" height="2.86"/>
<text class="action-label" x="25.00" y="33.68"><tspan x="25.00" dy="0">Sync Plan</tspan><tspan x="25.00" dy="0.82">ner 與 事</tspan><tspan x="25.00" dy="0.82">件 Docs</tspan></text>
<line class="assoc" x1="12.00" y1="34.50" x2="13.00" y2="34.50"/>
<rect class="action" x="13.00" y="33.07" width="4.00" height="2.86"/>
<text class="action-label" x="15.00" y="33.68"><tspan x="15.00" dy="0">Stop</tspan><tspan x="15.00" dy="0.82">供 Re</tspan><tspan x="15.00" dy="0.82">planning</tspan></text>
<line class="gate" x1="19.00" y1="9.00" x2="21.00" y2="9.00"/>
<text class="gate-label" x="21.40" y="9.00"><tspan x="21.40" dy="0">planningstarted</tspan></text>
<line class="gate" x1="19.00" y1="18.00" x2="21.00" y2="18.00"/>
<text class="gate-label" x="21.40" y="18.00"><tspan x="21.40" dy="0">baselinealigned</tspan></text>
<line class="gate" x1="14.00" y1="31.00" x2="22.00" y2="31.00"/>
<line class="gate" x1="19.00" y1="27.00" x2="21.00" y2="27.00"/>
<text class="gate-label" x="21.40" y="27.00"><tspan x="21.40" dy="0">runtimeevidencepresent</tspan></text>
<line class="gate" x1="15.00" y1="27.00" x2="17.00" y2="27.00"/>
<text class="gate-label-left" x="14.60" y="27.00"><tspan x="14.60" dy="0">scopeconflictdetected</tspan></text>
<line class="gate" x1="19.00" y1="29.00" x2="21.00" y2="29.00"/>
<text class="gate-label" x="21.40" y="29.00"><tspan x="21.40" dy="0">runtimeevidence缺失</tspan></text>
<circle class="branch-junction" cx="20.00" cy="16.00" r="0.28"/>
<circle class="branch-junction" cx="20.00" cy="25.00" r="0.28"/>
</svg>