<svg width="1421" height="692" viewBox="-395.2 -26.0 1420.8 692.0" xmlns="http://www.w3.org/2000/svg">
<defs><marker id="arrow" viewBox="0 0 10 10" refX="10" refY="5" markerWidth="6" markerHeight="6" orient="auto-start-reverse"><path d="M 0 0 L 10 5 L 0 10 z" fill="black" /></marker></defs>
<rect x="-395.2" y="-26.0" width="1420.8" height="692.0" fill="white" />
<rect x="380.0" y="80.0" width="40.0" height="40.0" stroke="black" stroke-width="1.5" fill="white" />
<rect x="385.0" y="85.0" width="30.0" height="30.0" stroke="black" stroke-width="1" fill="none" />
<text x="400" y="105.0" text-anchor="middle" font-family="'Times New Roman', 'BiauKai', 'DFKai-SB', '標楷體', 'KaiTi', serif" font-weight="bold" font-size="14">0</text>
<line x1="420.0" y1="100.0" x2="460.0" y2="100.0" stroke="black" />
<rect x="460.0" y="54.0" width="160.0" height="92.0" stroke="black" stroke-width="1.2" fill="white" />
<text x="540.0" y="92.0" text-anchor="middle" font-family="'Times New Roman', 'BiauKai', 'DFKai-SB', '標楷體', 'KaiTi', serif" font-size="11">Load 排程器</text>
<text x="540.0" y="116.00000000000001" text-anchor="middle" font-family="'Times New Roman', 'BiauKai', 'DFKai-SB', '標楷體', 'KaiTi', serif" font-size="11">Evidence</text>
<line x1="400" y1="120.0" x2="400" y2="200.0" stroke="black" />
<line x1="380" y1="160.0" x2="420" y2="160.0" stroke="black" stroke-width="2" />
<text x="424.0" y="164.0" font-style="italic" font-size="11" text-anchor="start" font-family="'Times New Roman', 'BiauKai', 'DFKai-SB', '標楷體', 'KaiTi', serif">planningstarted</text>
<rect x="380.0" y="200.0" width="40.0" height="40.0" stroke="black" stroke-width="1.5" fill="white" />
<text x="400" y="225.0" text-anchor="middle" font-family="'Times New Roman', 'BiauKai', 'DFKai-SB', '標楷體', 'KaiTi', serif" font-weight="bold" font-size="14">1</text>
<line x1="420.0" y1="220.0" x2="460.0" y2="220.0" stroke="black" />
<rect x="460.0" y="174.0" width="160.0" height="92.0" stroke="black" stroke-width="1.2" fill="white" />
<text x="540.0" y="200.0" text-anchor="middle" font-family="'Times New Roman', 'BiauKai', 'DFKai-SB', '標楷體', 'KaiTi', serif" font-size="11">Consolidate</text>
<text x="540.0" y="224.0" text-anchor="middle" font-family="'Times New Roman', 'BiauKai', 'DFKai-SB', '標楷體', 'KaiTi', serif" font-size="11">Current</text>
<text x="540.0" y="248.00000000000003" text-anchor="middle" font-family="'Times New Roman', 'BiauKai', 'DFKai-SB', '標楷體', 'KaiTi', serif" font-size="11">Baseline</text>
<line x1="400" y1="240.0" x2="400" y2="280.0" stroke="black" />
<line x1="40.0" y1="280.0" x2="760.0" y2="280.0" stroke="black" stroke-width="1.5" />
<line x1="80.0" y1="280.0" x2="80.0" y2="320.0" stroke="black" />
<line x1="60.0" y1="320.0" x2="100.0" y2="320.0" stroke="black" stroke-width="2" />
<text x="56.0" y="324.0" font-style="italic" font-size="11" text-anchor="end" font-family="'Times New Roman', 'BiauKai', 'DFKai-SB', '標楷體', 'KaiTi', serif">baselinealigned</text>
<line x1="80.0" y1="320.0" x2="80.0" y2="360.0" stroke="black" marker-end="url(#arrow)" />
<line x1="720.0" y1="280.0" x2="720.0" y2="320.0" stroke="black" />
<line x1="700.0" y1="320.0" x2="740.0" y2="320.0" stroke="black" stroke-width="2" />
<text x="744.0" y="324.0" font-style="italic" font-size="11" text-anchor="start" font-family="'Times New Roman', 'BiauKai', 'DFKai-SB', '標楷體', 'KaiTi', serif">scopeconflictdetected</text>
<line x1="720.0" y1="320.0" x2="720.0" y2="360.0" stroke="black" />
<rect x="60.0" y="360.0" width="40.0" height="40.0" stroke="black" stroke-width="1.5" fill="white" />
<text x="80.0" y="385.0" text-anchor="middle" font-family="'Times New Roman', 'BiauKai', 'DFKai-SB', '標楷體', 'KaiTi', serif" font-weight="bold" font-size="14">2</text>
<line x1="100.0" y1="380.0" x2="140.0" y2="380.0" stroke="black" />
<rect x="140.0" y="334.0" width="160.0" height="92.0" stroke="black" stroke-width="1.2" fill="white" />
<text x="220.0" y="360.0" text-anchor="middle" font-family="'Times New Roman', 'BiauKai', 'DFKai-SB', '標楷體', 'KaiTi', serif" font-size="11">執行</text>
<text x="220.0" y="384.0" text-anchor="middle" font-family="'Times New Roman', 'BiauKai', 'DFKai-SB', '標楷體', 'KaiTi', serif" font-size="11">Hardening</text>
<text x="220.0" y="408.0" text-anchor="middle" font-family="'Times New Roman', 'BiauKai', 'DFKai-SB', '標楷體', 'KaiTi', serif" font-size="11">Validation</text>
<line x1="80.0" y1="400.0" x2="80.0" y2="440.0" stroke="black" />
<line x1="-120.0" y1="440.0" x2="280.0" y2="440.0" stroke="black" stroke-width="1.5" />
<line x1="-80.0" y1="440.0" x2="-80.0" y2="480.0" stroke="black" />
<line x1="-100.0" y1="480.0" x2="-60.0" y2="480.0" stroke="black" stroke-width="2" />
<text x="-104.0" y="484.0" font-style="italic" font-size="11" text-anchor="end" font-family="'Times New Roman', 'BiauKai', 'DFKai-SB', '標楷體', 'KaiTi', serif">runtimeevidencepresent</text>
<line x1="-80.0" y1="480.0" x2="-80.0" y2="520.0" stroke="black" marker-end="url(#arrow)" />
<line x1="240.0" y1="440.0" x2="240.0" y2="480.0" stroke="black" />
<line x1="220.0" y1="480.0" x2="260.0" y2="480.0" stroke="black" stroke-width="2" />
<text x="264.0" y="484.0" font-style="italic" font-size="11" text-anchor="start" font-family="'Times New Roman', 'BiauKai', 'DFKai-SB', '標楷體', 'KaiTi', serif">runtimeevidence缺失</text>
<line x1="240.0" y1="480.0" x2="240.0" y2="520.0" stroke="black" marker-end="url(#arrow)" />
<rect x="-100.0" y="520.0" width="40.0" height="40.0" stroke="black" stroke-width="1.5" fill="white" />
<text x="-80.0" y="545.0" text-anchor="middle" font-family="'Times New Roman', 'BiauKai', 'DFKai-SB', '標楷體', 'KaiTi', serif" font-weight="bold" font-size="14">3</text>
<line x1="-60.0" y1="540.0" x2="-20.0" y2="540.0" stroke="black" />
<rect x="-20.0" y="494.0" width="160.0" height="92.0" stroke="black" stroke-width="1.2" fill="white" />
<text x="60.0" y="532.0" text-anchor="middle" font-family="'Times New Roman', 'BiauKai', 'DFKai-SB', '標楷體', 'KaiTi', serif" font-size="11">Sync Planner</text>
<text x="60.0" y="556.0" text-anchor="middle" font-family="'Times New Roman', 'BiauKai', 'DFKai-SB', '標楷體', 'KaiTi', serif" font-size="11">與 事件 Docs</text>
<rect x="220.0" y="520.0" width="40.0" height="40.0" stroke="black" stroke-width="1.5" fill="white" />
<text x="240.0" y="545.0" text-anchor="middle" font-family="'Times New Roman', 'BiauKai', 'DFKai-SB', '標楷體', 'KaiTi', serif" font-weight="bold" font-size="14">4</text>
<line x1="260.0" y1="540.0" x2="300.0" y2="540.0" stroke="black" />
<rect x="300.0" y="494.0" width="160.0" height="92.0" stroke="black" stroke-width="1.2" fill="white" />
<text x="380.0" y="532.0" text-anchor="middle" font-family="'Times New Roman', 'BiauKai', 'DFKai-SB', '標楷體', 'KaiTi', serif" font-size="11">Stop 供</text>
<text x="380.0" y="556.0" text-anchor="middle" font-family="'Times New Roman', 'BiauKai', 'DFKai-SB', '標楷體', 'KaiTi', serif" font-size="11">Replanning</text>
<line x1="40.0" y1="560.0" x2="760.0" y2="560.0" stroke="black" stroke-width="1.5" />
<line x1="80.0" y1="560.0" x2="80.0" y2="560.0" stroke="black" />
<line x1="720.0" y1="360.0" x2="720.0" y2="560.0" stroke="black" />
<line x1="400" y1="560.0" x2="400" y2="600.0" stroke="black" marker-end="url(#arrow)" />
</svg>