<svg width="1328" height="1196" viewBox="-137.5 -50.0 1328.4 1196.0" xmlns="http://www.w3.org/2000/svg">
<defs><marker id="arrow" viewBox="0 0 10 10" refX="10" refY="5" markerWidth="6" markerHeight="6" orient="auto-start-reverse"><path d="M 0 0 L 10 5 L 0 10 z" fill="black" /></marker></defs>
<rect x="-137.5" y="-50.0" width="1328.4" height="1196.0" fill="white" />
<rect x="380.0" y="80.0" width="40.0" height="40.0" stroke="black" stroke-width="1.5" fill="white" />
<rect x="385.0" y="85.0" width="30.0" height="30.0" stroke="black" stroke-width="1" fill="none" />
<text x="400" y="105.0" text-anchor="middle" font-family="'Times New Roman', 'BiauKai', 'DFKai-SB', '標楷體', 'KaiTi', serif" font-weight="bold" font-size="14">0</text>
<line x1="420.0" y1="100.0" x2="460.0" y2="100.0" stroke="black" />
<rect x="459.99999999999994" y="54.0" width="380.6" height="92.0" stroke="black" stroke-width="1.2" fill="white" />
<text x="650.3" y="80.0" text-anchor="middle" font-family="'Times New Roman', 'BiauKai', 'DFKai-SB', '標楷體', 'KaiTi', serif" font-size="11">Serve Session reads 來自</text>
<text x="650.3" y="104.0" text-anchor="middle" font-family="'Times New Roman', 'BiauKai', 'DFKai-SB', '標楷體', 'KaiTi', serif" font-size="11">legacy directory layout</text>
<text x="650.3" y="127.99999999999999" text-anchor="middle" font-family="'Times New Roman', 'BiauKai', 'DFKai-SB', '標楷體', 'KaiTi', serif" font-size="11">(&lt;sid&gt;/messages/&lt;mid&gt;/...).</text>
<line x1="400" y1="120.0" x2="400" y2="200.0" stroke="black" />
<line x1="380" y1="160.0" x2="420" y2="160.0" stroke="black" stroke-width="2" />
<text x="424.0" y="164.0" font-style="italic" font-size="11" text-anchor="start" font-family="'Times New Roman', 'BiauKai', 'DFKai-SB', '標楷體', 'KaiTi', serif">legacydirectorypresent AND sqlitedbabsent</text>
<rect x="380.0" y="200.0" width="40.0" height="40.0" stroke="black" stroke-width="1.5" fill="white" />
<text x="400" y="225.0" text-anchor="middle" font-family="'Times New Roman', 'BiauKai', 'DFKai-SB', '標楷體', 'KaiTi', serif" font-weight="bold" font-size="14">1</text>
<line x1="420.0" y1="220.0" x2="460.0" y2="220.0" stroke="black" />
<rect x="459.99999999999994" y="174.0" width="380.6" height="92.0" stroke="black" stroke-width="1.2" fill="white" />
<text x="650.3" y="200.0" text-anchor="middle" font-family="'Times New Roman', 'BiauKai', 'DFKai-SB', '標楷體', 'KaiTi', serif" font-size="11">Read all legacy messages</text>
<text x="650.3" y="224.0" text-anchor="middle" font-family="'Times New Roman', 'BiauKai', 'DFKai-SB', '標楷體', 'KaiTi', serif" font-size="11">與 parts 進入 memory while</text>
<text x="650.3" y="248.00000000000003" text-anchor="middle" font-family="'Times New Roman', 'BiauKai', 'DFKai-SB', '標楷體', 'KaiTi', serif" font-size="11">holding daemon 閒置.</text>
<line x1="400" y1="240.0" x2="400" y2="320.0" stroke="black" />
<line x1="380" y1="280.0" x2="420" y2="280.0" stroke="black" stroke-width="2" />
<text x="424.0" y="284.0" font-style="italic" font-size="11" text-anchor="start" font-family="'Times New Roman', 'BiauKai', 'DFKai-SB', '標楷體', 'KaiTi', serif">閒置sweeptickfired AND 無activewrites在window AND 不yetmigrated</text>
<rect x="380.0" y="320.0" width="40.0" height="40.0" stroke="black" stroke-width="1.5" fill="white" />
<text x="400" y="345.0" text-anchor="middle" font-family="'Times New Roman', 'BiauKai', 'DFKai-SB', '標楷體', 'KaiTi', serif" font-weight="bold" font-size="14">2</text>
<line x1="420.0" y1="340.0" x2="460.0" y2="340.0" stroke="black" />
<rect x="459.99999999999994" y="294.0" width="380.6" height="92.0" stroke="black" stroke-width="1.2" fill="white" />
<text x="650.3" y="320.0" text-anchor="middle" font-family="'Times New Roman', 'BiauKai', 'DFKai-SB', '標楷體', 'KaiTi', serif" font-size="11">Create &lt;sid&gt;.db.tmp; apply schema</text>
<text x="650.3" y="344.0" text-anchor="middle" font-family="'Times New Roman', 'BiauKai', 'DFKai-SB', '標楷體', 'KaiTi', serif" font-size="11">v1; insert all messages 與 parts</text>
<text x="650.3" y="368.0" text-anchor="middle" font-family="'Times New Roman', 'BiauKai', 'DFKai-SB', '標楷體', 'KaiTi', serif" font-size="11">inside single transaction; commit.</text>
<line x1="400" y1="360.0" x2="400" y2="440.0" stroke="black" />
<line x1="380" y1="400.0" x2="420" y2="400.0" stroke="black" stroke-width="2" />
<text x="424.0" y="404.0" font-style="italic" font-size="11" text-anchor="start" font-family="'Times New Roman', 'BiauKai', 'DFKai-SB', '標楷體', 'KaiTi', serif">legacyread完成</text>
<rect x="380.0" y="440.0" width="40.0" height="40.0" stroke="black" stroke-width="1.5" fill="white" />
<text x="400" y="465.0" text-anchor="middle" font-family="'Times New Roman', 'BiauKai', 'DFKai-SB', '標楷體', 'KaiTi', serif" font-weight="bold" font-size="14">3</text>
<line x1="420.0" y1="460.0" x2="460.0" y2="460.0" stroke="black" />
<rect x="459.99999999999994" y="414.0" width="380.6" height="92.0" stroke="black" stroke-width="1.2" fill="white" />
<text x="650.3" y="440.0" text-anchor="middle" font-family="'Times New Roman', 'BiauKai', 'DFKai-SB', '標楷體', 'KaiTi', serif" font-size="11">執行 PRAGMA integritycheck 在</text>
<text x="650.3" y="464.0" text-anchor="middle" font-family="'Times New Roman', 'BiauKai', 'DFKai-SB', '標楷體', 'KaiTi', serif" font-size="11">tmp 檔案 與 assert 訊息 row</text>
<text x="650.3" y="488.0" text-anchor="middle" font-family="'Times New Roman', 'BiauKai', 'DFKai-SB', '標楷體', 'KaiTi', serif" font-size="11">count equals legacy訊息count.</text>
<line x1="400" y1="480.0" x2="400" y2="520.0" stroke="black" />
<line x1="89.69999999999999" y1="520.0" x2="710.3" y2="520.0" stroke="black" stroke-width="1.5" />
<line x1="129.7" y1="520.0" x2="129.7" y2="560.0" stroke="black" />
<line x1="109.69999999999999" y1="560.0" x2="149.7" y2="560.0" stroke="black" stroke-width="2" />
<text x="105.69999999999999" y="554.0" font-style="italic" font-size="11" text-anchor="end" font-family="'Times New Roman', 'BiauKai', 'DFKai-SB', '標楷體', 'KaiTi', serif">tmpwritecommitted</text>
<text x="105.69999999999999" y="574.0" font-style="italic" font-size="11" text-anchor="end" font-family="'Times New Roman', 'BiauKai', 'DFKai-SB', '標楷體', 'KaiTi', serif">AND fsync已完成</text>
<line x1="129.7" y1="560.0" x2="129.7" y2="600.0" stroke="black" />
<line x1="670.3" y1="520.0" x2="670.3" y2="560.0" stroke="black" />
<line x1="650.3" y1="560.0" x2="690.3" y2="560.0" stroke="black" stroke-width="2" />
<line x1="670.3" y1="560.0" x2="670.3" y2="600.0" stroke="black" marker-end="url(#arrow)" />
<rect x="650.3" y="600.0" width="40.0" height="40.0" stroke="black" stroke-width="1.5" fill="white" />
<text x="670.3" y="625.0" text-anchor="middle" font-family="'Times New Roman', 'BiauKai', 'DFKai-SB', '標楷體', 'KaiTi', serif" font-weight="bold" font-size="14">7</text>
<line x1="690.3" y1="620.0" x2="730.3" y2="620.0" stroke="black" />
<rect x="730.3" y="574.0" width="380.6" height="92.0" stroke="black" stroke-width="1.2" fill="white" />
<text x="920.6" y="600.0" text-anchor="middle" font-family="'Times New Roman', 'BiauKai', 'DFKai-SB', '標楷體', 'KaiTi', serif" font-size="11">Delete &lt;sid&gt;.db.tmp (partial migration)</text>
<text x="920.6" y="624.0" text-anchor="middle" font-family="'Times New Roman', 'BiauKai', 'DFKai-SB', '標楷體', 'KaiTi', serif" font-size="11">. Legacy &lt;sid&gt;/ remains 來源 的 truth.</text>
<text x="920.6" y="648.0" text-anchor="middle" font-family="'Times New Roman', 'BiauKai', 'DFKai-SB', '標楷體', 'KaiTi', serif" font-size="11">Requeue Session 供 下一個 閒置-sweep tick.</text>
<line x1="670.3" y1="640.0" x2="670.3" y2="720.0" stroke="black" />
<line x1="650.3" y1="680.0" x2="690.3" y2="680.0" stroke="black" stroke-width="2" />
<text x="694.3000000000001" y="684.0" font-style="italic" font-size="11" text-anchor="start" font-family="'Times New Roman', 'BiauKai', 'DFKai-SB', '標楷體', 'KaiTi', serif">integritycheckfails OR rowcountmismatch OR daemoncrashedbeforerename</text>
<line x1="89.69999999999999" y1="720.0" x2="710.3" y2="720.0" stroke="black" stroke-width="1.5" />
<line x1="129.7" y1="600.0" x2="129.7" y2="720.0" stroke="black" />
<line x1="670.3" y1="720.0" x2="670.3" y2="720.0" stroke="black" />
<line x1="400" y1="720.0" x2="400" y2="760.0" stroke="black" marker-end="url(#arrow)" />
<rect x="380.0" y="760.0" width="40.0" height="40.0" stroke="black" stroke-width="1.5" fill="white" />
<text x="400" y="785.0" text-anchor="middle" font-family="'Times New Roman', 'BiauKai', 'DFKai-SB', '標楷體', 'KaiTi', serif" font-weight="bold" font-size="14">4</text>
<line x1="420.0" y1="780.0" x2="460.0" y2="780.0" stroke="black" />
<rect x="459.99999999999994" y="734.0" width="380.6" height="92.0" stroke="black" stroke-width="1.2" fill="white" />
<text x="650.3" y="760.0" text-anchor="middle" font-family="'Times New Roman', 'BiauKai', 'DFKai-SB', '標楷體', 'KaiTi', serif" font-size="11">Atomically rename &lt;sid&gt;.db.</text>
<text x="650.3" y="784.0" text-anchor="middle" font-family="'Times New Roman', 'BiauKai', 'DFKai-SB', '標楷體', 'KaiTi', serif" font-size="11">tmp 到 &lt;sid&gt;.db, then delete</text>
<text x="650.3" y="807.9999999999999" text-anchor="middle" font-family="'Times New Roman', 'BiauKai', 'DFKai-SB', '標楷體', 'KaiTi', serif" font-size="11">legacy &lt;sid&gt;/ directory.</text>
<line x1="400" y1="800.0" x2="400" y2="880.0" stroke="black" />
<line x1="380" y1="840.0" x2="420" y2="840.0" stroke="black" stroke-width="2" />
<text x="424.0" y="844.0" font-style="italic" font-size="11" text-anchor="start" font-family="'Times New Roman', 'BiauKai', 'DFKai-SB', '標楷體', 'KaiTi', serif">integritycheckok AND rowcountmatcheslegacy</text>
<rect x="380.0" y="880.0" width="40.0" height="40.0" stroke="black" stroke-width="1.5" fill="white" />
<text x="400" y="905.0" text-anchor="middle" font-family="'Times New Roman', 'BiauKai', 'DFKai-SB', '標楷體', 'KaiTi', serif" font-weight="bold" font-size="14">5</text>
<line x1="420.0" y1="900.0" x2="460.0" y2="900.0" stroke="black" />
<rect x="459.99999999999994" y="854.0" width="380.6" height="92.0" stroke="black" stroke-width="1.2" fill="white" />
<text x="650.3" y="880.0" text-anchor="middle" font-family="'Times New Roman', 'BiauKai', 'DFKai-SB', '標楷體', 'KaiTi', serif" font-size="11">Serve Session reads 與 writes 來自 &lt;sid&gt;.</text>
<text x="650.3" y="904.0" text-anchor="middle" font-family="'Times New Roman', 'BiauKai', 'DFKai-SB', '標楷體', 'KaiTi', serif" font-size="11">db 透過 SqliteStore + ConnectionPool.</text>
<text x="650.3" y="927.9999999999999" text-anchor="middle" font-family="'Times New Roman', 'BiauKai', 'DFKai-SB', '標楷體', 'KaiTi', serif" font-size="11">Writes 是 依-訊息 transactions 在 WAL.</text>
<line x1="400" y1="920.0" x2="400" y2="1000.0" stroke="black" />
<line x1="380" y1="960.0" x2="420" y2="960.0" stroke="black" stroke-width="2" />
<text x="424.0" y="964.0" font-style="italic" font-size="11" text-anchor="start" font-family="'Times New Roman', 'BiauKai', 'DFKai-SB', '標楷體', 'KaiTi', serif">renameatomicdone AND legacydirdeleted</text>
<rect x="380.0" y="1000.0" width="40.0" height="40.0" stroke="black" stroke-width="1.5" fill="white" />
<text x="400" y="1025.0" text-anchor="middle" font-family="'Times New Roman', 'BiauKai', 'DFKai-SB', '標楷體', 'KaiTi', serif" font-weight="bold" font-size="14">6</text>
<line x1="420.0" y1="1020.0" x2="460.0" y2="1020.0" stroke="black" />
<rect x="459.99999999999994" y="974.0" width="380.6" height="92.0" stroke="black" stroke-width="1.2" fill="white" />
<text x="650.3" y="1000.0" text-anchor="middle" font-family="'Times New Roman', 'BiauKai', 'DFKai-SB', '標楷體', 'KaiTi', serif" font-size="11">Refuse 到 load Session 與 發布</text>
<text x="650.3" y="1024.0" text-anchor="middle" font-family="'Times New Roman', 'BiauKai', 'DFKai-SB', '標楷體', 'KaiTi', serif" font-size="11">Session.儲存.corrupted Bus 事件.</text>
<text x="650.3" y="1048.0" text-anchor="middle" font-family="'Times New Roman', 'BiauKai', 'DFKai-SB', '標楷體', 'KaiTi', serif" font-size="11">Daemon awaits 使用者-driven recovery.</text>
<line x1="670.3" y1="720.0" x2="670.3" y2="720.0" stroke="black" />
<line x1="670.3" y1="720.0" x2="300.0" y2="720.0" stroke="black" />
<line x1="300.0" y1="720.0" x2="300.0" y2="30.0" stroke="black" />
<line x1="300.0" y1="30.0" x2="400" y2="30.0" stroke="black" />
<line x1="400" y1="30.0" x2="400" y2="70.0" stroke="black" marker-end="url(#arrow)" />
</svg>