<svg width="1222.0" height="855.8" viewBox="-204.0 -215.8 1222.0 855.8" xmlns="http://www.w3.org/2000/svg">
<defs>
<marker id="arrow" viewBox="0 0 10 10" refX="10" refY="5" markerWidth="6" markerHeight="6" orient="auto-start-reverse"><path d="M 0 0 L 10 5 L 0 10 z" fill="black" /></marker>
<marker id="call_arrow" viewBox="0 0 10 10" refX="10" refY="5" markerWidth="8" markerHeight="8" orient="auto-start-reverse"><path d="M 0 0 L 10 5 L 0 10 M 0 2 L 6 5 L 0 8" fill="none" stroke="black" stroke-width="1" /></marker>
</defs>
<rect x="-204.0" y="-215.8" width="1222.0" height="855.8" fill="white" />
<rect x="130.0" y="120.0" width="200.0" height="120.0" stroke="black" fill="white" stroke-width="1.5" data-id="A41" />
<text x="230.0" y="166.0" text-anchor="middle" font-size="14" font-weight="bold" font-family="'Times New Roman', 'BiauKai', 'DFKai-SB', '标楷体', serif" data-id="A41" >A41</text>
<text x="230.0" y="196.0" text-anchor="middle" font-size="16" font-weight="bold" font-family="'Times New Roman', 'BiauKai', 'DFKai-SB', '标楷体', serif" data-id="A41" >發送請求</text>
<rect x="430.0" y="120.0" width="200.0" height="120.0" stroke="black" fill="white" stroke-width="1.5" data-id="A42" />
<text x="530.0" y="166.0" text-anchor="middle" font-size="14" font-weight="bold" font-family="'Times New Roman', 'BiauKai', 'DFKai-SB', '标楷体', serif" data-id="A42" >A42</text>
<text x="530.0" y="196.0" text-anchor="middle" font-size="16" font-weight="bold" font-family="'Times New Roman', 'BiauKai', 'DFKai-SB', '标楷体', serif" data-id="A42" >分類回應狀態</text>
<rect x="130.0" y="360.0" width="200.0" height="120.0" stroke="black" fill="white" stroke-width="1.5" data-id="A43" />
<text x="230.0" y="406.0" text-anchor="middle" font-size="14" font-weight="bold" font-family="'Times New Roman', 'BiauKai', 'DFKai-SB', '标楷体', serif" data-id="A43" >A43</text>
<text x="230.0" y="436.0" text-anchor="middle" font-size="16" font-weight="bold" font-family="'Times New Roman', 'BiauKai', 'DFKai-SB', '标楷体', serif" data-id="A43" >處理流量限制重試</text>
<path d="M 330.0 180.0 L 430.0 180.0" stroke="black" stroke-width="1.2" data-arrow-id="a4_f1" data-waypoints="330.0,180.0 430.0,180.0" marker-end="url(#arrow)" fill="none" />
<path d="M 630.0 200.0 L 660.0 200.0 Q 670.0 200.0 670.0 210.0 L 670.0 308.2 Q 670.0 318.2 660.0 318.2 L 100.0 318.2 Q 90.0 318.2 90.0 328.2 L 90.0 410.0 Q 90.0 420.0 100.0 420.0 L 130.0 420.0" stroke="black" stroke-width="1.2" data-arrow-id="a4_f2" data-waypoints="630.0,200.0 670.0,200.0 670.0,318.2 90.0,318.2 90.0,420.0 130.0,420.0" marker-end="url(#arrow)" fill="none" />
<path d="M 330.0 420.0 L 350.0 420.0 Q 360.0 420.0 360.0 410.0 L 360.0 291.8 Q 360.0 281.8 350.0 281.8 L 100.0 281.8 Q 90.0 281.8 90.0 271.8 L 90.0 210.0 Q 90.0 200.0 100.0 200.0 L 130.0 200.0" stroke="black" stroke-width="1.2" data-arrow-id="a4_f3" data-waypoints="330.0,420.0 360.0,420.0 360.0,281.8 90.0,281.8 90.0,200.0 130.0,200.0" marker-end="url(#arrow)" fill="none" />
<path d="M -120.0 160.0 L 130.0 160.0" stroke="black" stroke-width="1.2" data-arrow-id="a4_i1" data-waypoints="-120.0,160.0 130.0,160.0" marker-end="url(#arrow)" fill="none" />
<path d="M 530.0 84.2 L 530.0 120.0" stroke="black" stroke-width="1.2" data-arrow-id="a4_c1" data-waypoints="530.0,84.2 530.0,120.0" marker-end="url(#arrow)" fill="none" />
<path d="M 230.0 275.8 L 230.0 240.0" stroke="black" stroke-width="1.2" data-arrow-id="a4_m1" data-waypoints="230.0,275.8 230.0,240.0" marker-end="url(#arrow)" fill="none" />
<path d="M 630.0 160.0 L 934.0 160.0" stroke="black" stroke-width="1.2" data-arrow-id="a4_o1" data-waypoints="630.0,160.0 934.0,160.0" marker-end="url(#arrow)" fill="none" />
<path d="M 230.0 324.2 L 230.0 360.0" stroke="black" stroke-width="1.2" data-arrow-id="a4_c2" data-waypoints="230.0,324.2 230.0,360.0" marker-end="url(#arrow)" fill="none" />
<text x="224.0" y="355.0" font-size="14" font-weight="bold" fill="black" font-family="'Times New Roman', 'BiauKai', 'DFKai-SB', '标楷体', serif" text-anchor="end" data-arrow-id="a4_c2" >重試策略</text>
<text x="236.0" y="355.0" font-size="14" font-weight="bold" fill="black" font-family="'Times New Roman', 'BiauKai', 'DFKai-SB', '标楷体', serif" text-anchor="start" data-arrow-id="a4_c2" >（等待倍增設定）</text>
<rect x="30.0" y="24.2" width="700.0" height="515.8" stroke="black" fill="none" stroke-width="2" />
<rect x="260.0" y="-175.8" width="240.0" height="110.0" stroke="black" fill="white" stroke-width="1.5" data-id="A4" />
<text x="380.0" y="-134.8" text-anchor="middle" font-size="14" font-weight="bold" font-family="'Times New Roman', 'BiauKai', 'DFKai-SB', '标楷体', serif" data-id="A4" >A4</text>
<text x="380.0" y="-104.8" text-anchor="middle" font-size="16" font-weight="bold" font-family="'Times New Roman', 'BiauKai', 'DFKai-SB', '标楷体', serif" data-id="A4" >執行網路傳輸</text>
<line x1="260.0" y1="-175.8" x2="30.0" y2="24.2" stroke="red" stroke-dasharray="5,5" stroke-width="1.0" opacity="0.6" />
<line x1="500.0" y1="-175.8" x2="730.0" y2="24.2" stroke="red" stroke-dasharray="5,5" stroke-width="1.0" opacity="0.6" />
<line x1="260.0" y1="-65.8" x2="30.0" y2="540.0" stroke="red" stroke-dasharray="5,5" stroke-width="1.0" opacity="0.6" />
<line x1="500.0" y1="-65.8" x2="730.0" y2="540.0" stroke="red" stroke-dasharray="5,5" stroke-width="1.0" opacity="0.6" />
<text x="380.0" y="172.0" font-size="14" font-weight="bold" fill="black" text-anchor="middle" font-family="'Times New Roman', 'BiauKai', 'DFKai-SB', '标楷体', serif" data-arrow-id="a4_f1" >網路回應</text>
<text x="230.0" y="310.2" font-size="14" font-weight="bold" fill="black" text-anchor="middle" font-family="'Times New Roman', 'BiauKai', 'DFKai-SB', '标楷体', serif" data-arrow-id="a4_f2" >流量限制訊號</text>
<text x="271.3" y="273.8" font-size="14" font-weight="bold" fill="black" text-anchor="middle" font-family="'Times New Roman', 'BiauKai', 'DFKai-SB', '标楷体', serif" data-arrow-id="a4_f3" >重試請求</text>
<text x="26.0" y="152.0" font-size="14" font-weight="bold" fill="black" text-anchor="end" font-family="'Times New Roman', 'BiauKai', 'DFKai-SB', '标楷体', serif" data-arrow-id="a4_i1" >請求網址＋標頭＋主體</text>
<text x="526.0" y="115.0" font-size="14" font-weight="bold" fill="black" text-anchor="end" font-family="'Times New Roman', 'BiauKai', 'DFKai-SB', '标楷体', serif" data-arrow-id="a4_c1" >錯誤分類規則</text>
<text x="226.0" y="256.0" font-size="14" font-weight="bold" fill="black" text-anchor="end" font-family="'Times New Roman', 'BiauKai', 'DFKai-SB', '标楷体', serif" data-arrow-id="a4_m1" >網路請求工具</text>
<text x="734.0" y="152.0" font-size="14" font-weight="bold" fill="black" text-anchor="start" font-family="'Times New Roman', 'BiauKai', 'DFKai-SB', '标楷体', serif" data-arrow-id="a4_o1" >串流回應主體 / 不可重試錯誤</text>
</svg>