<svg width="520" height="620" viewBox="200.0 -40.0 520.0 620.0" xmlns="http://www.w3.org/2000/svg">
<defs><marker id="arrow" viewBox="0 0 10 10" refX="10" refY="5" markerWidth="6" markerHeight="6" orient="auto-start-reverse"><path d="M 0 0 L 10 5 L 0 10 z" fill="black" /></marker></defs>
<rect x="200.0" y="-40.0" width="520.0" height="620.0" fill="white" />
<rect x="360.0" y="80.0" width="80" height="60" stroke="black" stroke-width="1.5" fill="white" />
<rect x="365.0" y="85.0" width="70.0" height="50.0" stroke="black" stroke-width="1" fill="none" />
<text x="400" y="115.0" text-anchor="middle" font-family="Arial" font-weight="bold" font-size="14">0</text>
<line x1="440" y1="110.0" x2="480.0" y2="110.0" stroke="black" />
<rect x="480.0" y="76.0" width="160" height="68.0" stroke="black" stroke-width="1.2" fill="white" />
<text x="560.0" y="102.0" text-anchor="middle" font-family="Arial" font-size="11">Render Idle</text>
<text x="560.0" y="126.00000000000001" text-anchor="middle" font-family="Arial" font-size="11">Prompt Input</text>
<line x1="400" y1="140.0" x2="400" y2="220" stroke="black" />
<line x1="380" y1="180.0" x2="420" y2="180.0" stroke="black" stroke-width="2" />
<text x="424.0" y="184.0" font-style="italic" font-size="11" text-anchor="start">user_clicks_mic_in_supported_browser</text>
<rect x="360.0" y="220.0" width="80" height="60" stroke="black" stroke-width="1.5" fill="white" />
<text x="400" y="255.0" text-anchor="middle" font-family="Arial" font-weight="bold" font-size="14">1</text>
<line x1="440" y1="250.0" x2="480.0" y2="250.0" stroke="black" />
<rect x="480.0" y="216.0" width="160" height="68.0" stroke="black" stroke-width="1.2" fill="white" />
<text x="560.0" y="242.0" text-anchor="middle" font-family="Arial" font-size="11">Capture Speech</text>
<text x="560.0" y="266.0" text-anchor="middle" font-family="Arial" font-size="11">Transcript</text>
<line x1="400" y1="280.0" x2="400" y2="360" stroke="black" />
<line x1="380" y1="320.0" x2="420" y2="320.0" stroke="black" stroke-width="2" />
<text x="424.0" y="324.0" font-style="italic" font-size="11" text-anchor="start">speech_result_updates_or_stop</text>
<rect x="360.0" y="360.0" width="80" height="60" stroke="black" stroke-width="1.5" fill="white" />
<text x="400" y="395.0" text-anchor="middle" font-family="Arial" font-weight="bold" font-size="14">2</text>
<line x1="440" y1="390.0" x2="480.0" y2="390.0" stroke="black" />
<rect x="480.0" y="344.0" width="160" height="92.0" stroke="black" stroke-width="1.2" fill="white" />
<text x="560.0" y="370.0" text-anchor="middle" font-family="Arial" font-size="11">Commit</text>
<text x="560.0" y="394.0" text-anchor="middle" font-family="Arial" font-size="11">Transcript To</text>
<text x="560.0" y="418.0" text-anchor="middle" font-family="Arial" font-size="11">Prompt State</text>
<line x1="400" y1="420.0" x2="400" y2="500" stroke="black" />
<line x1="380" y1="460.0" x2="420" y2="460.0" stroke="black" stroke-width="2" />
<text x="424.0" y="464.0" font-style="italic" font-size="11" text-anchor="start">final_transcript_or_stop_promotes_pending_text</text>
<line x1="400" y1="500" x2="400" y2="500.0" stroke="black" />
<line x1="400" y1="500.0" x2="280" y2="500.0" stroke="black" />
<line x1="280" y1="500.0" x2="280" y2="40.0" stroke="black" />
<line x1="280" y1="40.0" x2="400" y2="40.0" stroke="black" />
<line x1="400" y1="40.0" x2="400" y2="80.0" stroke="black" marker-end="url(#arrow)" />
</svg>