<svg xmlns="http://www.w3.org/2000/svg" width="540" height="680" viewBox="14.00 0.00 27.00 34.00" role="img">
<style>
.step{fill:#fff;stroke:#111;stroke-width:.14}.step-inner{fill:none;stroke:#111;stroke-width:.08}
.action{fill:#fff;stroke:#111;stroke-width:.14}.gate{stroke:#111;stroke-width:.16}
.edge{fill:none;stroke:#111;stroke-width:.05;stroke-linecap:round;stroke-linejoin:round}.edge-arrow{marker-end:url(#arrow)}
.flyover-mask{stroke:#fff;stroke-width:.12;stroke-linecap:round}
.flyover{fill:none;stroke:#111;stroke-width:.05;stroke-linecap:round}
.junction{fill:#111;stroke:#111;stroke-width:0}.branch-junction{fill:#fff;stroke:#111;stroke-width:.08}
.assoc{stroke:#111;stroke-width:.05}.label{font:bold .7px 'Times New Roman', 'BiauKai', 'DFKai-SB', serif;text-anchor:middle;dominant-baseline:middle}
.action-label{font:.55px 'Times New Roman', 'BiauKai', 'DFKai-SB', serif;text-anchor:middle;dominant-baseline:middle}.gate-label{font:italic .55px 'Times New Roman', 'BiauKai', 'DFKai-SB', serif;text-anchor:start;dominant-baseline:middle}.gate-label-left{font:italic .55px 'Times New Roman', 'BiauKai', 'DFKai-SB', serif;text-anchor:end;dominant-baseline:middle}
</style>
<defs><marker id="arrow" markerWidth="0.4" markerHeight="0.4" refX="0.36" refY="0.2" orient="auto" markerUnits="userSpaceOnUse"><path d="M 0 0 L 0.4 0.2 L 0 0.4 z" fill="#111"/></marker></defs>
<rect x="14.00" y="0.00" width="27.00" height="34.00" fill="white"/>
<path class="edge edge-arrow" d="M 20.00 7.00 L 20.00 11.00"/>
<path class="edge edge-arrow" d="M 20.00 11.00 L 20.00 13.00"/>
<path class="edge" d="M 20.00 16.00 L 20.00 18.00"/>
<path class="edge edge-arrow" d="M 20.00 18.00 L 20.00 20.00"/>
<path class="edge" d="M 20.00 23.00 L 20.00 25.00"/>
<path class="edge edge-arrow" d="M 20.00 25.00 L 20.00 27.00"/>
<path class="edge edge-arrow" d="M 30.00 7.00 L 30.00 11.00"/>
<rect class="step" x="18.00" y="4.00" width="4.00" height="3.00" rx="0.35" ry="0.35"/>
<rect class="step-inner" x="18.25" y="4.25" width="3.50" height="2.50" rx="0.22" ry="0.22"/>
<text class="label" x="20.00" y="5.50">2</text>
<rect class="step" x="18.00" y="13.00" width="4.00" height="3.00" rx="0.35" ry="0.35"/>
<text class="label" x="20.00" y="14.50">3</text>
<rect class="step" x="18.00" y="20.00" width="4.00" height="3.00" rx="0.35" ry="0.35"/>
<text class="label" x="20.00" y="21.50">9</text>
<rect class="step" x="18.00" y="27.00" width="4.00" height="3.00" rx="0.35" ry="0.35"/>
<text class="label" x="20.00" y="28.50">10</text>
<rect class="step" x="28.00" y="4.00" width="4.00" height="3.00" rx="0.35" ry="0.35"/>
<text class="label" x="30.00" y="5.50">13</text>
<line class="assoc" x1="22.00" y1="5.50" x2="23.00" y2="5.50"/>
<rect class="action" x="23.00" y="4.07" width="4.00" height="2.86"/>
<text class="action-label" x="25.00" y="4.68"><tspan x="25.00" dy="0">hydratetail</tspan><tspan x="25.00" dy="0.82">透過mess</tspan><tspan x="25.00" dy="0.82">agesendpoint</tspan></text>
<line class="assoc" x1="22.00" y1="14.50" x2="23.00" y2="14.50"/>
<rect class="action" x="23.00" y="13.07" width="4.00" height="2.86"/>
<text class="action-label" x="25.00" y="13.68"><tspan x="25.00" dy="0">subscribe</tspan><tspan x="25.00" dy="0.82">sse與等</tspan><tspan x="25.00" dy="0.82">待輸入</tspan></text>
<line class="assoc" x1="22.00" y1="21.50" x2="23.00" y2="21.50"/>
<rect class="action" x="23.00" y="20.07" width="4.00" height="2.86"/>
<text class="action-label" x="25.00" y="20.68"><tspan x="25.00" dy="0">loadoldersli</tspan><tspan x="25.00" dy="0.82">ce使用be</tspan><tspan x="25.00" dy="0.82">forecursor</tspan></text>
<line class="assoc" x1="22.00" y1="28.50" x2="23.00" y2="28.50"/>
<rect class="action" x="23.00" y="27.07" width="4.00" height="2.86"/>
<text class="action-label" x="25.00" y="28.09"><tspan x="25.00" dy="0">reduce與</tspan><tspan x="25.00" dy="0.82">foldparts</tspan></text>
<line class="assoc" x1="32.00" y1="5.50" x2="33.00" y2="5.50"/>
<rect class="action" x="33.00" y="4.07" width="4.00" height="2.86"/>
<text class="action-label" x="35.00" y="5.09"><tspan x="35.00" dy="0">forcetailref</tspan><tspan x="35.00" dy="0.82">etch在stale</tspan></text>
<line class="gate" x1="18.00" y1="11.00" x2="32.00" y2="11.00"/>
<line class="gate" x1="19.00" y1="18.00" x2="21.00" y2="18.00"/>
<text class="gate-label" x="21.40" y="18.00"><tspan x="21.40" dy="0">scrollupSentinelhit</tspan></text>
<line class="gate" x1="19.00" y1="25.00" x2="21.00" y2="25.00"/>
<text class="gate-label" x="21.40" y="25.00"><tspan x="21.40" dy="0">olderslicereturned或empty</tspan></text>
<line class="gate" x1="19.00" y1="9.00" x2="21.00" y2="9.00"/>
<text class="gate-label-left" x="18.60" y="8.32"><tspan x="18.60" dy="0">tail已</tspan><tspan x="18.60" dy="0.68">載入</tspan><tspan x="18.60" dy="0.68">或304</tspan></text>
<line class="gate" x1="29.00" y1="9.00" x2="31.00" y2="9.00"/>
<text class="gate-label" x="31.40" y="9.00"><tspan x="31.40" dy="0">tailrefreshed</tspan></text>
</svg>