<svg xmlns="http://www.w3.org/2000/svg" width="1575" height="1760" viewBox="-34.00 -2.00 78.75 88.00" role="img">
<style>
.step{fill:#fff;stroke:#111;stroke-width:.14}.step-inner{fill:none;stroke:#111;stroke-width:.08}
.action{fill:#fff;stroke:#111;stroke-width:.14}.gate{stroke:#111;stroke-width:.16}
.edge{fill:none;stroke:#111;stroke-width:.05;stroke-linecap:round;stroke-linejoin:round}.edge-arrow{marker-end:url(#arrow)}
.flyover-mask{stroke:#fff;stroke-width:.12;stroke-linecap:round}
.flyover{fill:none;stroke:#111;stroke-width:.05;stroke-linecap:round}
.junction{fill:#111;stroke:#111;stroke-width:0}.branch-junction{fill:#fff;stroke:#111;stroke-width:.08}
.assoc{stroke:#111;stroke-width:.05}.label{font:bold .7px 'Times New Roman', 'BiauKai', 'DFKai-SB', serif;text-anchor:middle;dominant-baseline:middle}
.action-label{font:.55px 'Times New Roman', 'BiauKai', 'DFKai-SB', serif;text-anchor:middle;dominant-baseline:middle}.gate-label{font:italic .55px 'Times New Roman', 'BiauKai', 'DFKai-SB', serif;text-anchor:start;dominant-baseline:middle}.gate-label-left{font:italic .55px 'Times New Roman', 'BiauKai', 'DFKai-SB', serif;text-anchor:end;dominant-baseline:middle}
</style>
<defs><marker id="arrow" markerWidth="0.4" markerHeight="0.4" refX="0.36" refY="0.2" orient="auto" markerUnits="userSpaceOnUse"><path d="M 0 0 L 0.4 0.2 L 0 0.4 z" fill="#111"/></marker></defs>
<rect x="-34.00" y="-2.00" width="78.75" height="88.00" fill="white"/>
<path class="edge edge-arrow" d="M 3.50 23.00 L 3.50 27.00"/>
<path class="edge" d="M 3.50 7.00 L 3.50 9.00"/>
<path class="edge edge-arrow" d="M 3.50 9.00 L 3.50 11.00"/>
<path class="edge" d="M 3.50 14.00 L 3.50 16.00"/>
<path class="edge edge-arrow" d="M 3.50 16.00 L 3.50 18.00"/>
<path class="edge" d="M 3.50 21.00 L 3.50 23.00"/>
<path class="edge edge-arrow" d="M 3.50 30.00 L 3.50 32.00"/>
<path class="edge edge-arrow" d="M -20.00 32.00 L -20.00 36.00"/>
<path class="edge edge-arrow" d="M 27.00 32.00 L 27.00 36.00"/>
<path class="edge edge-arrow" d="M -8.25 32.00 L -8.25 36.00"/>
<path class="edge edge-arrow" d="M 15.25 32.00 L 15.25 36.00"/>
<path class="edge" d="M -20.00 39.00 L -20.00 43.00"/>
<path class="edge edge-arrow" d="M -20.00 43.00 L -20.00 51.00"/>
<path class="edge" d="M -20.00 54.00 L -20.00 64.00"/>
<path class="edge edge-arrow" d="M -20.00 64.00 L -20.00 66.00"/>
<path class="edge edge-arrow" d="M -20.00 69.00 L -20.00 73.00"/>
<path class="edge edge-arrow" d="M 3.50 73.00 L 3.50 75.00"/>
<path class="edge" d="M 27.00 39.00 L 27.00 41.00"/>
<path class="edge" d="M 27.00 41.00 L 27.00 45.00"/>
<path class="edge edge-arrow" d="M 27.00 45.00 L 27.00 51.00"/>
<path class="edge edge-arrow" d="M 27.00 41.00 L 38.25 41.00 Q 38.75 41.00 38.75 41.50 L 38.75 73.00"/>
<path class="edge edge-arrow" d="M 27.00 54.00 L 27.00 73.00"/>
<path class="edge" d="M -8.25 39.00 L -8.25 47.00"/>
<path class="edge edge-arrow" d="M -8.25 47.00 L -8.25 51.00"/>
<path class="edge edge-arrow" d="M -8.25 54.00 L -8.25 73.00"/>
<path class="edge" d="M 3.50 78.00 L 3.50 80.00"/>
<path class="edge" d="M 3.50 80.00 L 3.50 82.00"/>
<path class="edge" d="M 3.50 82.00 L -28.00 82.00"/>
<path class="edge" d="M -28.00 82.00 L -28.00 25.00"/>
<path class="edge" d="M -28.00 25.00 L 3.50 25.00"/>
<path class="edge edge-arrow" d="M 15.25 39.00 L 15.25 41.00"/>
<path class="edge edge-arrow" d="M 3.50 41.00 L 3.50 51.00"/>
<path class="edge edge-arrow" d="M 15.25 41.00 L 15.25 51.00"/>
<path class="edge edge-arrow" d="M 0.50 41.00 L 0.50 48.50 Q 0.50 49.00 0.00 49.00 L -29.50 49.00 Q -30.00 49.00 -30.00 48.50 L -30.00 2.50 Q -30.00 2.00 -29.50 2.00 L 3.00 2.00 Q 3.50 2.00 3.50 2.50 L 3.50 4.00"/>
<path class="edge" d="M 3.50 54.00 L 3.50 56.00"/>
<path class="edge" d="M 3.50 56.00 L 3.50 58.00"/>
<path class="edge" d="M 3.50 58.00 L -28.00 58.00"/>
<path class="edge" d="M 15.25 54.00 L 15.25 60.00"/>
<path class="edge" d="M 15.25 60.00 L 15.25 62.00"/>
<path class="edge" d="M 15.25 62.00 L -28.00 62.00"/>
<rect class="step" x="1.50" y="4.00" width="4.00" height="3.00"/>
<rect class="step-inner" x="1.75" y="4.25" width="3.50" height="2.50"/>
<text class="label" x="3.50" y="5.50">0</text>
<rect class="step" x="1.50" y="11.00" width="4.00" height="3.00"/>
<text class="label" x="3.50" y="12.50">1</text>
<rect class="step" x="1.50" y="18.00" width="4.00" height="3.00"/>
<text class="label" x="3.50" y="19.50">2</text>
<rect class="step" x="1.50" y="27.00" width="4.00" height="3.00"/>
<text class="label" x="3.50" y="28.50">3</text>
<rect class="step" x="-22.00" y="36.00" width="4.00" height="3.00"/>
<text class="label" x="-20.00" y="37.50">4</text>
<rect class="step" x="-22.00" y="51.00" width="4.00" height="3.00"/>
<text class="label" x="-20.00" y="52.50">5</text>
<rect class="step" x="-22.00" y="66.00" width="4.00" height="3.00"/>
<text class="label" x="-20.00" y="67.50">6</text>
<rect class="step" x="25.00" y="36.00" width="4.00" height="3.00"/>
<text class="label" x="27.00" y="37.50">7</text>
<rect class="step" x="25.00" y="51.00" width="4.00" height="3.00"/>
<text class="label" x="27.00" y="52.50">8</text>
<rect class="step" x="-10.25" y="36.00" width="4.00" height="3.00"/>
<text class="label" x="-8.25" y="37.50">9</text>
<rect class="step" x="-10.25" y="51.00" width="4.00" height="3.00"/>
<text class="label" x="-8.25" y="52.50">10</text>
<rect class="step" x="1.50" y="75.00" width="4.00" height="3.00"/>
<text class="label" x="3.50" y="76.50">11</text>
<rect class="step" x="13.25" y="36.00" width="4.00" height="3.00"/>
<text class="label" x="15.25" y="37.50">12</text>
<rect class="step" x="1.50" y="51.00" width="4.00" height="3.00"/>
<text class="label" x="3.50" y="52.50">13</text>
<rect class="step" x="13.25" y="51.00" width="4.00" height="3.00"/>
<text class="label" x="15.25" y="52.50">14</text>
<line class="assoc" x1="5.50" y1="5.50" x2="6.50" y2="5.50"/>
<rect class="action" x="6.50" y="4.07" width="5.75" height="2.86" rx="0.45" ry="0.45"/>
<text class="action-label" x="9.38" y="5.09"><tspan x="9.38" dy="0">Sessionun</tspan><tspan x="9.38" dy="0.82">bound閒置</tspan></text>
<line class="assoc" x1="5.50" y1="12.50" x2="6.50" y2="12.50"/>
<rect class="action" x="6.50" y="11.07" width="5.75" height="2.86" rx="0.45" ry="0.45"/>
<text class="action-label" x="9.38" y="11.68"><tspan x="9.38" dy="0">bindSes</tspan><tspan x="9.38" dy="0.82">sion與</tspan><tspan x="9.38" dy="0.82">bumpepoch</tspan></text>
<line class="assoc" x1="5.50" y1="19.50" x2="6.50" y2="19.50"/>
<rect class="action" x="6.50" y="18.07" width="5.75" height="2.86" rx="0.45" ry="0.45"/>
<text class="action-label" x="9.38" y="18.68"><tspan x="9.38" dy="0">hydratetail透</tspan><tspan x="9.38" dy="0.82">過messages</tspan><tspan x="9.38" dy="0.82">endpoint</tspan></text>
<line class="assoc" x1="5.50" y1="28.50" x2="6.50" y2="28.50"/>
<rect class="action" x="6.50" y="27.07" width="5.75" height="2.86" rx="0.45" ry="0.45"/>
<text class="action-label" x="9.38" y="27.68"><tspan x="9.38" dy="0">subscri</tspan><tspan x="9.38" dy="0.82">besse與</tspan><tspan x="9.38" dy="0.82">等待輸入</tspan></text>
<line class="assoc" x1="-18.00" y1="37.50" x2="-17.00" y2="37.50"/>
<rect class="action" x="-17.00" y="36.07" width="5.75" height="2.86" rx="0.45" ry="0.45"/>
<text class="action-label" x="-14.12" y="37.09"><tspan x="-14.12" dy="0">submit訊</tspan><tspan x="-14.12" dy="0.82">息與持久化</tspan></text>
<line class="assoc" x1="-18.00" y1="52.50" x2="-17.00" y2="52.50"/>
<rect class="action" x="-17.00" y="51.07" width="5.75" height="2.86" rx="0.45" ry="0.45"/>
<text class="action-label" x="-14.12" y="52.09"><tspan x="-14.12" dy="0">派發到</tspan><tspan x="-14.12" dy="0.82">runloop</tspan></text>
<line class="assoc" x1="-18.00" y1="67.50" x2="-17.00" y2="67.50"/>
<rect class="action" x="-17.00" y="66.07" width="5.75" height="2.86" rx="0.45" ry="0.45"/>
<text class="action-label" x="-14.12" y="66.68"><tspan x="-14.12" dy="0">串流partsi</tspan><tspan x="-14.12" dy="0.82">nvalidate快</tspan><tspan x="-14.12" dy="0.82">取pushsse</tspan></text>
<line class="assoc" x1="29.00" y1="37.50" x2="30.00" y2="37.50"/>
<rect class="action" x="30.00" y="36.07" width="5.75" height="2.86" rx="0.45" ry="0.45"/>
<text class="action-label" x="32.88" y="37.09"><tspan x="32.88" dy="0">applyrebin</tspan><tspan x="32.88" dy="0.82">dratelimit</tspan></text>
<line class="assoc" x1="29.00" y1="52.50" x2="30.00" y2="52.50"/>
<rect class="action" x="30.00" y="51.07" width="5.75" height="2.86" rx="0.45" ry="0.45"/>
<text class="action-label" x="32.88" y="51.68"><tspan x="32.88" dy="0">reinjectc</tspan><tspan x="32.88" dy="0.82">apability</tspan><tspan x="32.88" dy="0.82">snapshot</tspan></text>
<line class="assoc" x1="-6.25" y1="37.50" x2="-5.25" y2="37.50"/>
<rect class="action" x="-5.25" y="36.07" width="5.75" height="2.86" rx="0.45" ry="0.45"/>
<text class="action-label" x="-2.38" y="36.68"><tspan x="-2.38" dy="0">loadolders</tspan><tspan x="-2.38" dy="0.82">lice使用</tspan><tspan x="-2.38" dy="0.82">beforecursor</tspan></text>
<line class="assoc" x1="-6.25" y1="52.50" x2="-5.25" y2="52.50"/>
<rect class="action" x="-5.25" y="51.07" width="5.75" height="2.86" rx="0.45" ry="0.45"/>
<text class="action-label" x="-2.38" y="52.09"><tspan x="-2.38" dy="0">reduce與</tspan><tspan x="-2.38" dy="0.82">foldparts</tspan></text>
<line class="assoc" x1="5.50" y1="76.50" x2="6.50" y2="76.50"/>
<rect class="action" x="6.50" y="75.07" width="5.75" height="2.86" rx="0.45" ry="0.45"/>
<text class="action-label" x="9.38" y="75.68"><tspan x="9.38" dy="0">stamp已收到</tspan><tspan x="9.38" dy="0.82">於與classif</tspan><tspan x="9.38" dy="0.82">yfreshness</tspan></text>
<line class="assoc" x1="17.25" y1="37.50" x2="18.25" y2="37.50"/>
<rect class="action" x="18.25" y="36.07" width="5.75" height="2.86" rx="0.45" ry="0.45"/>
<text class="action-label" x="21.12" y="37.09"><tspan x="21.12" dy="0">freshness</tspan><tspan x="21.12" dy="0.82">clocktick</tspan></text>
<line class="assoc" x1="5.50" y1="52.50" x2="6.50" y2="52.50"/>
<rect class="action" x="6.50" y="51.07" width="5.75" height="2.86" rx="0.45" ry="0.45"/>
<text class="action-label" x="9.38" y="52.09"><tspan x="9.38" dy="0">forcetailre</tspan><tspan x="9.38" dy="0.82">fetch在stale</tspan></text>
<line class="assoc" x1="17.25" y1="52.50" x2="18.25" y2="52.50"/>
<rect class="action" x="18.25" y="51.07" width="5.75" height="2.86" rx="0.45" ry="0.45"/>
<text class="action-label" x="21.12" y="51.68"><tspan x="21.12" dy="0">schedulere</tspan><tspan x="21.12" dy="0.82">sumerebind在</tspan><tspan x="21.12" dy="0.82">hardstale</tspan></text>
<line class="gate" x1="2.50" y1="9.00" x2="4.50" y2="9.00"/>
<text class="gate-label-left" x="2.10" y="9.00"><tspan x="2.10" dy="0">clientopensSession路由</tspan></text>
<line class="gate" x1="2.50" y1="16.00" x2="4.50" y2="16.00"/>
<text class="gate-label-left" x="2.10" y="16.00"><tspan x="2.10" dy="0">epochbumpok &amp;&amp; reinject完成</tspan></text>
<line class="gate" x1="2.50" y1="23.00" x2="4.50" y2="23.00"/>
<text class="gate-label-left" x="2.10" y="23.00"><tspan x="2.10" dy="0">tail已載入或304</tspan></text>
<line class="gate" x1="-24.00" y1="32.00" x2="31.00" y2="32.00"/>
<line class="gate" x1="-21.00" y1="43.00" x2="-19.00" y2="43.00"/>
<text class="gate-label" x="-18.60" y="42.32"><tspan x="-18.60" dy="0">httppost2xx</tspan><tspan x="-18.60" dy="0.68">&amp;&amp; 訊息</tspan><tspan x="-18.60" dy="0.68">appended</tspan></text>
<line class="gate" x1="-21.00" y1="64.00" x2="-19.00" y2="64.00"/>
<text class="gate-label" x="-18.60" y="63.32"><tspan x="-18.60" dy="0">runloops</tspan><tspan x="-18.60" dy="0.68">tarted &amp;&amp;</tspan><tspan x="-18.60" dy="0.68">串流open</tspan></text>
<line class="gate" x1="-22.00" y1="73.00" x2="40.75" y2="73.00"/>
<line class="gate" x1="26.00" y1="45.00" x2="28.00" y2="45.00"/>
<text class="gate-label" x="28.40" y="45.00"><tspan x="28.40" dy="0">underratelimit</tspan></text>
<line class="gate" x1="-9.25" y1="47.00" x2="-7.25" y2="47.00"/>
<text class="gate-label" x="-6.85" y="46.66"><tspan x="-6.85" dy="0">olderslicere</tspan><tspan x="-6.85" dy="0.68">turned或empty</tspan></text>
<line class="gate" x1="2.50" y1="80.00" x2="4.50" y2="80.00"/>
<text class="gate-label-left" x="2.10" y="80.00"><tspan x="2.10" dy="0">fidelityclassified</tspan></text>
<line class="gate" x1="-0.50" y1="41.00" x2="19.25" y2="41.00"/>
<line class="gate" x1="2.50" y1="56.00" x2="4.50" y2="56.00"/>
<text class="gate-label-left" x="2.10" y="56.00"><tspan x="2.10" dy="0">tailrefreshed</tspan></text>
<line class="gate" x1="14.25" y1="60.00" x2="16.25" y2="60.00"/>
<text class="gate-label" x="16.65" y="60.00"><tspan x="16.65" dy="0">resumepostreturned</tspan></text>
<line class="gate" x1="-21.00" y1="34.00" x2="-19.00" y2="34.00"/>
<text class="gate-label-left" x="-21.40" y="33.32"><tspan x="-21.40" dy="0">使用者</tspan><tspan x="-21.40" dy="0.68">submi</tspan><tspan x="-21.40" dy="0.68">ts提示</tspan></text>
<line class="gate" x1="26.00" y1="34.00" x2="28.00" y2="34.00"/>
<text class="gate-label-left" x="25.60" y="34.00"><tspan x="25.60" dy="0">rebindtriggerobserved</tspan></text>
<line class="gate" x1="-9.25" y1="34.00" x2="-7.25" y2="34.00"/>
<text class="gate-label-left" x="-9.65" y="34.00"><tspan x="-9.65" dy="0">scrollupSentinelhit</tspan></text>
<line class="gate" x1="14.25" y1="34.00" x2="16.25" y2="34.00"/>
<text class="gate-label-left" x="13.85" y="34.00"><tspan x="13.85" dy="0">閒置freshnesstick</tspan></text>
<line class="gate" x1="-21.00" y1="71.00" x2="-19.00" y2="71.00"/>
<text class="gate-label-left" x="-21.40" y="70.32"><tspan x="-21.40" dy="0">訊息已</tspan><tspan x="-21.40" dy="0.68">完成或</tspan><tspan x="-21.40" dy="0.68">aborted</tspan></text>
<line class="gate" x1="37.75" y1="71.00" x2="39.75" y2="71.00"/>
<text class="gate-label-left" x="37.35" y="71.00"><tspan x="37.35" dy="0">ratelimitedstorm</tspan></text>
<line class="gate" x1="26.00" y1="71.00" x2="28.00" y2="71.00"/>
<text class="gate-label-left" x="25.60" y="71.00"><tspan x="25.60" dy="0">reinject返回或Sessionbusy</tspan></text>
<line class="gate" x1="-9.25" y1="71.00" x2="-7.25" y2="71.00"/>
<text class="gate-label-left" x="-9.65" y="71.00"><tspan x="-9.65" dy="0">timelinerendered</tspan></text>
<line class="gate" x1="2.50" y1="43.00" x2="4.50" y2="43.00"/>
<text class="gate-label-left" x="-0.70" y="42.32"><tspan x="-0.70" dy="0">staleth</tspan><tspan x="-0.70" dy="0.68">reshold</tspan><tspan x="-0.70" dy="0.68">crossed</tspan></text>
<line class="gate" x1="14.25" y1="43.00" x2="16.25" y2="43.00"/>
<text class="gate-label-left" x="13.85" y="42.32"><tspan x="13.85" dy="0">hardstal</tspan><tspan x="13.85" dy="0.68">ethresho</tspan><tspan x="13.85" dy="0.68">ldcrossed</tspan></text>
<line class="gate" x1="-0.50" y1="45.00" x2="1.50" y2="45.00"/>
<text class="gate-label" x="4.70" y="45.68"><tspan x="4.70" dy="0">Session路由left</tspan></text>
<line class="flyover-mask" x1="-29.00" y1="49.00" x2="-27.00" y2="49.00"/>
<path class="flyover" d="M -29.00 49.00 Q -28.00 48.00 -27.00 49.00"/>
<circle class="junction" cx="3.50" cy="25.00" r="0.22"/>
<circle class="junction" cx="-28.00" cy="58.00" r="0.22"/>
<circle class="junction" cx="-28.00" cy="62.00" r="0.22"/>
<circle class="branch-junction" cx="27.00" cy="41.00" r="0.28"/>
</svg>