<svg xmlns="http://www.w3.org/2000/svg" width="1520" height="1600" viewBox="-37.00 -2.00 76.00 80.00" role="img">
<style>
.step{fill:#fff;stroke:#111;stroke-width:.14}.step-inner{fill:none;stroke:#111;stroke-width:.08}
.action{fill:#fff;stroke:#111;stroke-width:.14}.gate{stroke:#111;stroke-width:.16}
.edge{fill:none;stroke:#111;stroke-width:.05;stroke-linecap:round;stroke-linejoin:round}.edge-arrow{marker-end:url(#arrow)}
.flyover-mask{stroke:#fff;stroke-width:.12;stroke-linecap:round}
.flyover{fill:none;stroke:#111;stroke-width:.05;stroke-linecap:round}
.junction{fill:#111;stroke:#111;stroke-width:0}.branch-junction{fill:#fff;stroke:#111;stroke-width:.08}
.assoc{stroke:#111;stroke-width:.05}.label{font:bold .7px 'Times New Roman', 'BiauKai', 'DFKai-SB', serif;text-anchor:middle;dominant-baseline:middle}
.action-label{font:.55px 'Times New Roman', 'BiauKai', 'DFKai-SB', serif;text-anchor:middle;dominant-baseline:middle}.gate-label{font:italic .55px 'Times New Roman', 'BiauKai', 'DFKai-SB', serif;text-anchor:start;dominant-baseline:middle}.gate-label-left{font:italic .55px 'Times New Roman', 'BiauKai', 'DFKai-SB', serif;text-anchor:end;dominant-baseline:middle}
.debug-gap-band{fill:#fff3bf;stroke:#f59f00;stroke-width:.04;opacity:.22}.debug-gap-area{fill:#74c0fc;stroke:#1971c2;stroke-width:.05;opacity:.24}.debug-gap-line{stroke:#e67700;stroke-width:.05;stroke-dasharray:.4 .25}.debug-gap-label{font:bold .55px 'Times New Roman', 'BiauKai', 'DFKai-SB', serif;fill:#0b7285;text-anchor:start;dominant-baseline:hanging}.debug-gap-label-right{text-anchor:end}.debug-gap-item-label{font:bold .46px 'Times New Roman', 'BiauKai', 'DFKai-SB', serif;fill:#1864ab;text-anchor:start;dominant-baseline:hanging}
</style>
<defs><marker id="arrow" markerWidth="0.4" markerHeight="0.4" refX="0.36" refY="0.2" orient="auto" markerUnits="userSpaceOnUse"><path d="M 0 0 L 0.4 0.2 L 0 0.4 z" fill="#111"/></marker></defs>
<rect x="-37.00" y="-2.00" width="76.00" height="80.00" fill="white"/>
<rect class="debug-gap-band" x="-36.50" y="7.00" width="75.00" height="4.00" data-gap-id="gap:0"/>
<line class="debug-gap-line" x1="-36.50" y1="7.00" x2="38.50" y2="7.00"/>
<line class="debug-gap-line" x1="-36.50" y1="11.00" x2="38.50" y2="11.00"/>
<rect class="debug-gap-area" x="-36.50" y="7.00" width="75.00" height="4.00" data-gap-id="gap:0:area:0"/>
<text class="debug-gap-label debug-gap-label-right" x="38.15" y="7.45" data-gap-id="gap:0:area:0"><tspan x="38.15" dy="0">gap 0 total 4.0U</tspan><tspan x="38.15" dy="0.62">0.0 box_to_box 4.0U lanes=1</tspan></text>
<text class="debug-gap-item-label" x="0.35" y="8.08" data-gap-id="gap:0:area:0">transition:T1 G0</text>
<rect class="debug-gap-band" x="-36.50" y="14.00" width="75.00" height="4.00" data-gap-id="gap:1"/>
<line class="debug-gap-line" x1="-36.50" y1="14.00" x2="38.50" y2="14.00"/>
<line class="debug-gap-line" x1="-36.50" y1="18.00" x2="38.50" y2="18.00"/>
<rect class="debug-gap-area" x="-36.50" y="14.00" width="75.00" height="4.00" data-gap-id="gap:1:area:0"/>
<text class="debug-gap-label debug-gap-label-right" x="38.15" y="14.45" data-gap-id="gap:1:area:0"><tspan x="38.15" dy="0">gap 1 total 4.0U</tspan><tspan x="38.15" dy="0.62">1.0 box_to_box 4.0U lanes=1</tspan></text>
<text class="debug-gap-item-label" x="0.35" y="15.08" data-gap-id="gap:1:area:0">transition:T2 G0</text>
<rect class="debug-gap-band" x="-36.50" y="21.00" width="75.00" height="8.00" data-gap-id="gap:2"/>
<line class="debug-gap-line" x1="-36.50" y1="21.00" x2="38.50" y2="21.00"/>
<line class="debug-gap-line" x1="-36.50" y1="29.00" x2="38.50" y2="29.00"/>
<rect class="debug-gap-area" x="-36.50" y="21.00" width="75.00" height="8.00" data-gap-id="gap:2:area:0"/>
<text class="debug-gap-label debug-gap-label-right" x="38.15" y="21.45" data-gap-id="gap:2:area:0"><tspan x="38.15" dy="0">gap 2 total 8.0U</tspan><tspan x="38.15" dy="0.62">2.0 box_to_box 8.0U lanes=3</tspan></text>
<text class="debug-gap-item-label" x="0.35" y="22.08" data-gap-id="gap:2:area:0">transition:T3 G0</text>
<text class="debug-gap-item-label" x="0.35" y="24.58" data-gap-id="gap:2:area:0">3 G1</text>
<text class="debug-gap-item-label" x="-29.65" y="26.58" data-gap-id="gap:2:area:0">R39 G2</text>
<rect class="debug-gap-band" x="-36.50" y="32.00" width="75.00" height="6.00" data-gap-id="gap:3"/>
<line class="debug-gap-line" x1="-36.50" y1="32.00" x2="38.50" y2="32.00"/>
<line class="debug-gap-line" x1="-36.50" y1="38.00" x2="38.50" y2="38.00"/>
<rect class="debug-gap-area" x="-36.50" y="32.00" width="75.00" height="6.00" data-gap-id="gap:3:area:0"/>
<text class="debug-gap-label debug-gap-label-right" x="38.15" y="32.45" data-gap-id="gap:3:area:0"><tspan x="38.15" dy="0">gap 3 total 6.0U</tspan><tspan x="38.15" dy="0.62">3.0 box_to_box 6.0U lanes=2</tspan></text>
<text class="debug-gap-item-label" x="0.35" y="33.08" data-gap-id="gap:3:area:0">diverge:3 G0</text>
<text class="debug-gap-item-label" x="-19.65" y="35.08" data-gap-id="gap:3:area:0">T4 G1</text>
<text class="debug-gap-item-label" x="-9.65" y="35.08" data-gap-id="gap:3:area:0">T6 G1</text>
<text class="debug-gap-item-label" x="10.35" y="35.08" data-gap-id="gap:3:area:0">T7 G1</text>
<text class="debug-gap-item-label" x="20.35" y="35.08" data-gap-id="gap:3:area:0">T5 G1</text>
<rect class="debug-gap-band" x="-36.50" y="41.00" width="75.00" height="8.00" data-gap-id="gap:4"/>
<line class="debug-gap-line" x1="-36.50" y1="41.00" x2="38.50" y2="41.00"/>
<line class="debug-gap-line" x1="-36.50" y1="49.00" x2="38.50" y2="49.00"/>
<rect class="debug-gap-area" x="-36.50" y="41.00" width="75.00" height="8.00" data-gap-id="gap:4:area:0"/>
<text class="debug-gap-label debug-gap-label-right" x="38.15" y="41.45" data-gap-id="gap:4:area:0"><tspan x="38.15" dy="0">gap 4 total 8.0U</tspan><tspan x="38.15" dy="0.62">4.0 box_to_box 8.0U lanes=3</tspan></text>
<text class="debug-gap-item-label" x="5.35" y="42.08" data-gap-id="gap:4:area:0">diverge:12 G0</text>
<text class="debug-gap-item-label" x="20.35" y="42.58" data-gap-id="gap:4:area:0">7 G0</text>
<text class="debug-gap-item-label" x="25.35" y="42.58" data-gap-id="gap:4:area:0">R57 G0</text>
<text class="debug-gap-item-label" x="-19.65" y="42.08" data-gap-id="gap:4:area:0">transition:T8 G0</text>
<text class="debug-gap-item-label" x="-9.65" y="42.08" data-gap-id="gap:4:area:0">transition:T14 G0</text>
<text class="debug-gap-item-label" x="-2.15" y="44.08" data-gap-id="gap:4:area:0">T19 G1</text>
<text class="debug-gap-item-label" x="0.35" y="44.08" data-gap-id="gap:4:area:0">T17 G1</text>
<text class="debug-gap-item-label" x="10.35" y="44.08" data-gap-id="gap:4:area:0">T18 G1</text>
<text class="debug-gap-item-label" x="20.35" y="44.08" data-gap-id="gap:4:area:0">transition:T11 G1</text>
<text class="debug-gap-item-label" x="-34.90" y="46.58" data-gap-id="gap:4:area:0">R61 G2</text>
<rect class="debug-gap-band" x="-36.50" y="52.00" width="75.00" height="6.00" data-gap-id="gap:5"/>
<line class="debug-gap-line" x1="-36.50" y1="52.00" x2="38.50" y2="52.00"/>
<line class="debug-gap-line" x1="-36.50" y1="58.00" x2="38.50" y2="58.00"/>
<rect class="debug-gap-area" x="-36.50" y="52.00" width="75.00" height="6.00" data-gap-id="gap:5:area:0"/>
<text class="debug-gap-label debug-gap-label-right" x="38.15" y="52.45" data-gap-id="gap:5:area:0"><tspan x="38.15" dy="0">gap 5 total 6.0U</tspan><tspan x="38.15" dy="0.62">5.0 box_to_box 6.0U lanes=2</tspan></text>
<text class="debug-gap-item-label" x="0.35" y="53.08" data-gap-id="gap:5:area:0">transition:T20 G0</text>
<text class="debug-gap-item-label" x="10.35" y="53.08" data-gap-id="gap:5:area:0">transition:T21 G0</text>
<text class="debug-gap-item-label" x="-19.65" y="53.08" data-gap-id="gap:5:area:0">transition:T9 G0</text>
<text class="debug-gap-item-label" x="-27.15" y="55.58" data-gap-id="gap:5:area:0">R76 G1</text>
<rect class="debug-gap-band" x="-36.50" y="61.00" width="75.00" height="6.00" data-gap-id="gap:6"/>
<line class="debug-gap-line" x1="-36.50" y1="61.00" x2="38.50" y2="61.00"/>
<line class="debug-gap-line" x1="-36.50" y1="67.00" x2="38.50" y2="67.00"/>
<rect class="debug-gap-area" x="-36.50" y="61.00" width="75.00" height="6.00" data-gap-id="gap:6:area:0"/>
<text class="debug-gap-label debug-gap-label-right" x="38.15" y="61.45" data-gap-id="gap:6:area:0"><tspan x="38.15" dy="0">gap 6 total 6.0U</tspan><tspan x="38.15" dy="0.62">6.0 box_to_box 6.0U lanes=2</tspan></text>
<text class="debug-gap-item-label" x="-19.65" y="62.08" data-gap-id="gap:6:area:0">T10 G0</text>
<text class="debug-gap-item-label" x="-9.65" y="62.08" data-gap-id="gap:6:area:0">T15 G0</text>
<text class="debug-gap-item-label" x="20.35" y="62.08" data-gap-id="gap:6:area:0">T13 G0</text>
<text class="debug-gap-item-label" x="30.35" y="62.08" data-gap-id="gap:6:area:0">T12 G0</text>
<text class="debug-gap-item-label" x="5.35" y="64.08" data-gap-id="gap:6:area:0">converge:11 G1</text>
<path class="edge edge-arrow" d="M 0.00 23.00 L 0.00 29.00"/>
<path class="edge" d="M 0.00 7.00 L 0.00 9.00"/>
<path class="edge edge-arrow" d="M 0.00 9.00 L 0.00 11.00"/>
<path class="edge" d="M 0.00 14.00 L 0.00 16.00"/>
<path class="edge edge-arrow" d="M 0.00 16.00 L 0.00 18.00"/>
<path class="edge" d="M 0.00 21.00 L 0.00 23.00"/>
<path class="edge edge-arrow" d="M 0.00 32.00 L 0.00 34.00"/>
<path class="edge edge-arrow" d="M -20.00 34.00 L -20.00 38.00"/>
<path class="edge edge-arrow" d="M 20.00 34.00 L 20.00 38.00"/>
<path class="edge edge-arrow" d="M -10.00 34.00 L -10.00 38.00"/>
<path class="edge edge-arrow" d="M 10.00 34.00 L 10.00 38.00"/>
<path class="edge" d="M -20.00 41.00 L -20.00 43.00"/>
<path class="edge edge-arrow" d="M -20.00 43.00 L -20.00 49.00"/>
<path class="edge" d="M -20.00 52.00 L -20.00 54.00"/>
<path class="edge edge-arrow" d="M -20.00 54.00 L -20.00 58.00"/>
<path class="edge edge-arrow" d="M -20.00 61.00 L -20.00 65.00"/>
<path class="edge edge-arrow" d="M 0.00 65.00 L 0.00 67.00"/>
<path class="edge" d="M 20.00 41.00 L 20.00 43.00"/>
<path class="edge" d="M 20.00 43.00 L 20.00 45.00"/>
<path class="edge edge-arrow" d="M 20.00 45.00 L 20.00 49.00"/>
<path class="edge edge-arrow" d="M 20.00 43.00 L 29.50 43.00 Q 30.00 43.00 30.00 43.50 L 30.00 65.00"/>
<path class="edge edge-arrow" d="M 20.00 52.00 L 20.00 65.00"/>
<path class="edge" d="M -10.00 41.00 L -10.00 43.00"/>
<path class="edge edge-arrow" d="M -10.00 43.00 L -10.00 49.00"/>
<path class="edge edge-arrow" d="M -10.00 52.00 L -10.00 65.00"/>
<path class="edge" d="M 0.00 70.00 L 0.00 72.00"/>
<path class="edge" d="M 0.00 72.00 L 0.00 73.50 Q 0.00 74.00 -0.50 74.00 L -28.50 74.00 Q -29.00 74.00 -29.00 73.50 L -29.00 27.50 Q -29.00 27.00 -28.50 27.00 L 0.00 27.00"/>
<path class="edge edge-arrow" d="M 10.00 41.00 L 10.00 43.00"/>
<path class="edge edge-arrow" d="M 0.00 43.00 L 0.00 49.00"/>
<path class="edge edge-arrow" d="M 10.00 43.00 L 10.00 49.00"/>
<path class="edge edge-arrow" d="M -2.50 43.00 L -2.50 46.50 Q -2.50 47.00 -3.00 47.00 L -32.50 47.00 Q -33.00 47.00 -33.00 46.50 L -33.00 2.50 Q -33.00 2.00 -32.50 2.00 L -0.50 2.00 Q 0.00 2.00 0.00 2.50 L 0.00 4.00"/>
<path class="edge" d="M 0.00 52.00 L 0.00 54.00"/>
<path class="edge" d="M 0.00 54.00 L 0.00 56.00"/>
<path class="edge" d="M 0.00 56.00 L -29.00 56.00"/>
<path class="edge" d="M 10.00 52.00 L 10.00 54.00"/>
<path class="edge" d="M 10.00 54.00 L 10.00 56.00"/>
<path class="edge" d="M 10.00 56.00 L 0.00 56.00"/>
<rect class="step" x="-2.00" y="4.00" width="4.00" height="3.00" rx="0.35" ry="0.35"/>
<rect class="step-inner" x="-1.75" y="4.25" width="3.50" height="2.50" rx="0.22" ry="0.22"/>
<text class="label" x="0.00" y="5.50">0</text>
<rect class="step" x="-2.00" y="11.00" width="4.00" height="3.00" rx="0.35" ry="0.35"/>
<text class="label" x="0.00" y="12.50">1</text>
<rect class="step" x="-2.00" y="18.00" width="4.00" height="3.00" rx="0.35" ry="0.35"/>
<text class="label" x="0.00" y="19.50">2</text>
<rect class="step" x="-2.00" y="29.00" width="4.00" height="3.00" rx="0.35" ry="0.35"/>
<text class="label" x="0.00" y="30.50">3</text>
<rect class="step" x="-22.00" y="38.00" width="4.00" height="3.00" rx="0.35" ry="0.35"/>
<text class="label" x="-20.00" y="39.50">4</text>
<rect class="step" x="-22.00" y="49.00" width="4.00" height="3.00" rx="0.35" ry="0.35"/>
<text class="label" x="-20.00" y="50.50">5</text>
<rect class="step" x="-22.00" y="58.00" width="4.00" height="3.00" rx="0.35" ry="0.35"/>
<text class="label" x="-20.00" y="59.50">6</text>
<rect class="step" x="18.00" y="38.00" width="4.00" height="3.00" rx="0.35" ry="0.35"/>
<text class="label" x="20.00" y="39.50">7</text>
<rect class="step" x="18.00" y="49.00" width="4.00" height="3.00" rx="0.35" ry="0.35"/>
<text class="label" x="20.00" y="50.50">8</text>
<rect class="step" x="-12.00" y="38.00" width="4.00" height="3.00" rx="0.35" ry="0.35"/>
<text class="label" x="-10.00" y="39.50">9</text>
<rect class="step" x="-12.00" y="49.00" width="4.00" height="3.00" rx="0.35" ry="0.35"/>
<text class="label" x="-10.00" y="50.50">10</text>
<rect class="step" x="-2.00" y="67.00" width="4.00" height="3.00" rx="0.35" ry="0.35"/>
<text class="label" x="0.00" y="68.50">11</text>
<rect class="step" x="8.00" y="38.00" width="4.00" height="3.00" rx="0.35" ry="0.35"/>
<text class="label" x="10.00" y="39.50">12</text>
<rect class="step" x="-2.00" y="49.00" width="4.00" height="3.00" rx="0.35" ry="0.35"/>
<text class="label" x="0.00" y="50.50">13</text>
<rect class="step" x="8.00" y="49.00" width="4.00" height="3.00" rx="0.35" ry="0.35"/>
<text class="label" x="10.00" y="50.50">14</text>
<line class="assoc" x1="2.00" y1="5.50" x2="3.00" y2="5.50"/>
<rect class="action" x="3.00" y="4.07" width="4.00" height="2.86"/>
<text class="action-label" x="5.00" y="5.09"><tspan x="5.00" dy="0">Sessionunb</tspan><tspan x="5.00" dy="0.82">ound閒置</tspan></text>
<line class="assoc" x1="2.00" y1="12.50" x2="3.00" y2="12.50"/>
<rect class="action" x="3.00" y="11.07" width="4.00" height="2.86"/>
<text class="action-label" x="5.00" y="12.09"><tspan x="5.00" dy="0">bindSession</tspan><tspan x="5.00" dy="0.82">與bumpepoch</tspan></text>
<line class="assoc" x1="2.00" y1="19.50" x2="3.00" y2="19.50"/>
<rect class="action" x="3.00" y="18.07" width="4.00" height="2.86"/>
<text class="action-label" x="5.00" y="18.68"><tspan x="5.00" dy="0">hydratetail</tspan><tspan x="5.00" dy="0.82">透過mess</tspan><tspan x="5.00" dy="0.82">agesendpoint</tspan></text>
<line class="assoc" x1="2.00" y1="30.50" x2="3.00" y2="30.50"/>
<rect class="action" x="3.00" y="29.07" width="4.00" height="2.86"/>
<text class="action-label" x="5.00" y="29.68"><tspan x="5.00" dy="0">subscribe</tspan><tspan x="5.00" dy="0.82">sse與等</tspan><tspan x="5.00" dy="0.82">待輸入</tspan></text>
<line class="assoc" x1="-18.00" y1="39.50" x2="-17.00" y2="39.50"/>
<rect class="action" x="-17.00" y="38.07" width="4.00" height="2.86"/>
<text class="action-label" x="-15.00" y="39.09"><tspan x="-15.00" dy="0">submit訊息</tspan><tspan x="-15.00" dy="0.82">與持久化</tspan></text>
<line class="assoc" x1="-18.00" y1="50.50" x2="-17.00" y2="50.50"/>
<rect class="action" x="-17.00" y="49.07" width="4.00" height="2.86"/>
<text class="action-label" x="-15.00" y="50.09"><tspan x="-15.00" dy="0">派發到</tspan><tspan x="-15.00" dy="0.82">runloop</tspan></text>
<line class="assoc" x1="-18.00" y1="59.50" x2="-17.00" y2="59.50"/>
<rect class="action" x="-17.00" y="58.07" width="4.00" height="2.86"/>
<text class="action-label" x="-15.00" y="58.68"><tspan x="-15.00" dy="0">串流parts</tspan><tspan x="-15.00" dy="0.82">invalidate快</tspan><tspan x="-15.00" dy="0.82">取pushsse</tspan></text>
<line class="assoc" x1="22.00" y1="39.50" x2="23.00" y2="39.50"/>
<rect class="action" x="23.00" y="38.07" width="4.00" height="2.86"/>
<text class="action-label" x="25.00" y="39.09"><tspan x="25.00" dy="0">applyrebin</tspan><tspan x="25.00" dy="0.82">dratelimit</tspan></text>
<line class="assoc" x1="22.00" y1="50.50" x2="23.00" y2="50.50"/>
<rect class="action" x="23.00" y="49.07" width="4.00" height="2.86"/>
<text class="action-label" x="25.00" y="50.09"><tspan x="25.00" dy="0">reinjectcapab</tspan><tspan x="25.00" dy="0.82">ilitysnapshot</tspan></text>
<line class="assoc" x1="-8.00" y1="39.50" x2="-7.00" y2="39.50"/>
<rect class="action" x="-7.00" y="38.07" width="4.00" height="2.86"/>
<text class="action-label" x="-5.00" y="38.68"><tspan x="-5.00" dy="0">loadoldersli</tspan><tspan x="-5.00" dy="0.82">ce使用be</tspan><tspan x="-5.00" dy="0.82">forecursor</tspan></text>
<line class="assoc" x1="-8.00" y1="50.50" x2="-7.00" y2="50.50"/>
<rect class="action" x="-7.00" y="49.07" width="4.00" height="2.86"/>
<text class="action-label" x="-5.00" y="50.09"><tspan x="-5.00" dy="0">reduce與</tspan><tspan x="-5.00" dy="0.82">foldparts</tspan></text>
<line class="assoc" x1="2.00" y1="68.50" x2="3.00" y2="68.50"/>
<rect class="action" x="3.00" y="67.07" width="4.00" height="2.86"/>
<text class="action-label" x="5.00" y="67.68"><tspan x="5.00" dy="0">stamp已收</tspan><tspan x="5.00" dy="0.82">到於與clas</tspan><tspan x="5.00" dy="0.82">sifyfreshness</tspan></text>
<line class="assoc" x1="12.00" y1="39.50" x2="13.00" y2="39.50"/>
<rect class="action" x="13.00" y="38.07" width="4.00" height="2.86"/>
<text class="action-label" x="15.00" y="39.09"><tspan x="15.00" dy="0">freshness</tspan><tspan x="15.00" dy="0.82">clocktick</tspan></text>
<line class="assoc" x1="2.00" y1="50.50" x2="3.00" y2="50.50"/>
<rect class="action" x="3.00" y="49.07" width="4.00" height="2.86"/>
<text class="action-label" x="5.00" y="50.09"><tspan x="5.00" dy="0">forcetailref</tspan><tspan x="5.00" dy="0.82">etch在stale</tspan></text>
<line class="assoc" x1="12.00" y1="50.50" x2="13.00" y2="50.50"/>
<rect class="action" x="13.00" y="49.07" width="4.00" height="2.86"/>
<text class="action-label" x="15.00" y="49.68"><tspan x="15.00" dy="0">scheduleres</tspan><tspan x="15.00" dy="0.82">umerebind</tspan><tspan x="15.00" dy="0.82">在hardstale</tspan></text>
<line class="gate" x1="-1.00" y1="9.00" x2="1.00" y2="9.00"/>
<text class="gate-label" x="1.40" y="9.00"><tspan x="1.40" dy="0">clientopensSession路由</tspan></text>
<line class="gate" x1="-1.00" y1="16.00" x2="1.00" y2="16.00"/>
<text class="gate-label" x="1.40" y="16.00"><tspan x="1.40" dy="0">epochbumpok &amp;&amp; reinject完成</tspan></text>
<line class="gate" x1="-1.00" y1="23.00" x2="1.00" y2="23.00"/>
<text class="gate-label" x="1.40" y="23.00"><tspan x="1.40" dy="0">tail已載入或304</tspan></text>
<line class="gate" x1="-25.00" y1="34.00" x2="25.00" y2="34.00"/>
<line class="gate" x1="-21.00" y1="43.00" x2="-19.00" y2="43.00"/>
<text class="gate-label" x="-18.60" y="43.00"><tspan x="-18.60" dy="0">httppost2xx &amp;&amp; 訊息appended</tspan></text>
<line class="gate" x1="-21.00" y1="54.00" x2="-19.00" y2="54.00"/>
<text class="gate-label" x="-18.60" y="54.00"><tspan x="-18.60" dy="0">runloopstarted &amp;&amp; 串流open</tspan></text>
<line class="gate" x1="-25.00" y1="65.00" x2="35.00" y2="65.00"/>
<line class="gate" x1="19.00" y1="45.00" x2="21.00" y2="45.00"/>
<text class="gate-label" x="21.40" y="45.00"><tspan x="21.40" dy="0">underratelimit</tspan></text>
<line class="gate" x1="-11.00" y1="43.00" x2="-9.00" y2="43.00"/>
<text class="gate-label" x="-8.60" y="42.32"><tspan x="-8.60" dy="0">olderslicereturned或empty</tspan></text>
<line class="gate" x1="-1.00" y1="72.00" x2="1.00" y2="72.00"/>
<text class="gate-label" x="1.40" y="72.00"><tspan x="1.40" dy="0">fidelityclassified</tspan></text>
<line class="gate" x1="-3.50" y1="43.00" x2="13.50" y2="43.00"/>
<line class="gate" x1="-1.00" y1="54.00" x2="1.00" y2="54.00"/>
<text class="gate-label" x="1.40" y="54.00"><tspan x="1.40" dy="0">tailrefreshed</tspan></text>
<line class="gate" x1="9.00" y1="54.00" x2="11.00" y2="54.00"/>
<text class="gate-label" x="11.40" y="54.00"><tspan x="11.40" dy="0">resumepostreturned</tspan></text>
<line class="gate" x1="-21.00" y1="36.00" x2="-19.00" y2="36.00"/>
<text class="gate-label-left" x="-21.40" y="36.00"><tspan x="-21.40" dy="0">使用者submits提示</tspan></text>
<line class="gate" x1="19.00" y1="36.00" x2="21.00" y2="36.00"/>
<text class="gate-label-left" x="18.60" y="36.00"><tspan x="18.60" dy="0">rebindtriggerobserved</tspan></text>
<line class="gate" x1="-11.00" y1="36.00" x2="-9.00" y2="36.00"/>
<text class="gate-label-left" x="-11.40" y="36.00"><tspan x="-11.40" dy="0">scrollupSentinelhit</tspan></text>
<line class="gate" x1="9.00" y1="36.00" x2="11.00" y2="36.00"/>
<text class="gate-label-left" x="8.60" y="36.00"><tspan x="8.60" dy="0">閒置freshnesstick</tspan></text>
<line class="gate" x1="-21.00" y1="63.00" x2="-19.00" y2="63.00"/>
<text class="gate-label-left" x="-21.40" y="63.00"><tspan x="-21.40" dy="0">訊息已完成或aborted</tspan></text>
<line class="gate" x1="29.00" y1="63.00" x2="31.00" y2="63.00"/>
<text class="gate-label-left" x="28.60" y="63.00"><tspan x="28.60" dy="0">ratelimitedstorm</tspan></text>
<line class="gate" x1="19.00" y1="63.00" x2="21.00" y2="63.00"/>
<text class="gate-label-left" x="18.60" y="63.00"><tspan x="18.60" dy="0">reinject返回或Sessionbusy</tspan></text>
<line class="gate" x1="-11.00" y1="63.00" x2="-9.00" y2="63.00"/>
<text class="gate-label-left" x="-11.40" y="63.00"><tspan x="-11.40" dy="0">timelinerendered</tspan></text>
<line class="gate" x1="-1.00" y1="45.00" x2="1.00" y2="45.00"/>
<text class="gate-label-left" x="-2.80" y="45.00"><tspan x="-2.80" dy="0">stalethresholdcrossed</tspan></text>
<line class="gate" x1="9.00" y1="45.00" x2="11.00" y2="45.00"/>
<text class="gate-label-left" x="8.60" y="45.00"><tspan x="8.60" dy="0">hardstalethresholdcrossed</tspan></text>
<line class="gate" x1="-3.50" y1="45.00" x2="-1.50" y2="45.00"/>
<text class="gate-label-left" x="-8.10" y="44.32"><tspan x="-8.10" dy="0">Sess</tspan><tspan x="-8.10" dy="0.68">ion路</tspan><tspan x="-8.10" dy="0.68">由left</tspan></text>
<circle class="junction" cx="0.00" cy="27.00" r="0.22"/>
<circle class="junction" cx="-29.00" cy="56.00" r="0.22"/>
<circle class="junction" cx="0.00" cy="56.00" r="0.22"/>
<circle class="branch-junction" cx="20.00" cy="43.00" r="0.28"/>
</svg>