<svg xmlns="http://www.w3.org/2000/svg" width="1810" height="1858" viewBox="-14.00 -2.00 90.50 92.92" role="img">
<style>
.step{fill:#fff;stroke:#111;stroke-width:.14}.step-inner{fill:none;stroke:#111;stroke-width:.08}
.action{fill:#fff;stroke:#111;stroke-width:.14}.gate{stroke:#111;stroke-width:.16}
.edge{fill:none;stroke:#111;stroke-width:.05;stroke-linecap:round;stroke-linejoin:round}.edge-arrow{marker-end:url(#arrow)}
.flyover-mask{stroke:#fff;stroke-width:.12;stroke-linecap:round}
.flyover{fill:none;stroke:#111;stroke-width:.05;stroke-linecap:round}
.junction{fill:#111;stroke:#111;stroke-width:0}.branch-junction{fill:#fff;stroke:#111;stroke-width:.08}
.assoc{stroke:#111;stroke-width:.05}.label{font:bold .7px 'Times New Roman', 'BiauKai', 'DFKai-SB', serif;text-anchor:middle;dominant-baseline:middle}
.action-label{font:.55px 'Times New Roman', 'BiauKai', 'DFKai-SB', serif;text-anchor:middle;dominant-baseline:middle}.gate-label{font:italic .55px 'Times New Roman', 'BiauKai', 'DFKai-SB', serif;text-anchor:start;dominant-baseline:middle}.gate-label-left{font:italic .55px 'Times New Roman', 'BiauKai', 'DFKai-SB', serif;text-anchor:end;dominant-baseline:middle}
</style>
<defs><marker id="arrow" markerWidth="0.4" markerHeight="0.4" refX="0.36" refY="0.2" orient="auto" markerUnits="userSpaceOnUse"><path d="M 0 0 L 0.4 0.2 L 0 0.4 z" fill="#111"/></marker></defs>
<rect x="-14.00" y="-2.00" width="90.50" height="92.92" fill="white"/>
<path class="edge edge-arrow" d="M 23.50 23.00 L 23.50 27.00"/>
<path class="edge" d="M 23.50 7.00 L 23.50 9.00"/>
<path class="edge edge-arrow" d="M 23.50 9.00 L 23.50 11.00"/>
<path class="edge" d="M 23.50 14.00 L 23.50 16.00"/>
<path class="edge edge-arrow" d="M 23.50 16.00 L 23.50 18.00"/>
<path class="edge" d="M 23.50 21.00 L 23.50 23.00"/>
<path class="edge edge-arrow" d="M 23.50 30.00 L 23.50 32.00"/>
<path class="edge edge-arrow" d="M 0.00 32.00 L 0.00 38.46"/>
<path class="edge edge-arrow" d="M 11.75 32.00 L 11.75 38.46"/>
<path class="edge edge-arrow" d="M 35.25 32.00 L 35.25 38.46"/>
<path class="edge edge-arrow" d="M 47.00 32.00 L 47.00 38.46"/>
<path class="edge" d="M 0.00 41.46 L 0.00 45.46"/>
<path class="edge edge-arrow" d="M 0.00 45.46 L 0.00 53.46"/>
<path class="edge" d="M 0.00 56.46 L 0.00 60.46"/>
<path class="edge edge-arrow" d="M 0.00 60.46 L 0.00 68.46"/>
<path class="edge edge-arrow" d="M 0.00 71.46 L 0.00 75.46"/>
<path class="edge edge-arrow" d="M 11.75 75.46 L 11.75 79.92"/>
<path class="edge" d="M 11.75 41.46 L 11.75 43.46"/>
<path class="edge" d="M 11.75 43.46 L 11.75 47.46"/>
<path class="edge edge-arrow" d="M 11.75 47.46 L 11.75 53.46"/>
<path class="edge edge-arrow" d="M 11.75 43.46 L 70.00 43.46 Q 70.50 43.46 70.50 43.96 L 70.50 75.46"/>
<path class="edge edge-arrow" d="M 11.75 56.46 L 11.75 75.46"/>
<path class="edge" d="M 35.25 41.46 L 35.25 49.46"/>
<path class="edge edge-arrow" d="M 35.25 49.46 L 35.25 53.46"/>
<path class="edge edge-arrow" d="M 35.25 56.46 L 35.25 75.46"/>
<path class="edge" d="M 11.75 82.92 L 11.75 84.92"/>
<path class="edge" d="M 11.75 84.92 L 11.75 86.92"/>
<path class="edge" d="M 11.75 86.92 L -8.00 86.92"/>
<path class="edge" d="M -8.00 86.92 L -8.00 25.00"/>
<path class="edge" d="M -8.00 25.00 L 23.50 25.00"/>
<path class="edge edge-arrow" d="M 47.00 41.46 L 47.00 43.46"/>
<path class="edge edge-arrow" d="M 23.50 43.46 L 23.50 53.46"/>
<path class="edge edge-arrow" d="M 58.75 43.46 L 58.75 53.46"/>
<path class="edge edge-arrow" d="M 47.00 43.46 L 47.00 50.96 Q 47.00 51.46 46.50 51.46 L -9.50 51.46 Q -10.00 51.46 -10.00 50.96 L -10.00 2.50 Q -10.00 2.00 -9.50 2.00 L 23.00 2.00 Q 23.50 2.00 23.50 2.50 L 23.50 4.00"/>
<path class="edge" d="M 23.50 56.46 L 23.50 58.46"/>
<path class="edge" d="M 23.50 58.46 L 23.50 62.46"/>
<path class="edge" d="M 23.50 62.46 L -8.00 62.46"/>
<path class="edge" d="M 58.75 56.46 L 58.75 64.46"/>
<path class="edge" d="M 58.75 64.46 L 58.75 66.46"/>
<path class="edge" d="M 58.75 66.46 L -8.00 66.46"/>
<rect class="step" x="21.50" y="4.00" width="4.00" height="3.00"/>
<rect class="step-inner" x="21.75" y="4.25" width="3.50" height="2.50"/>
<text class="label" x="23.50" y="5.50">0</text>
<rect class="step" x="21.50" y="11.00" width="4.00" height="3.00"/>
<text class="label" x="23.50" y="12.50">1</text>
<rect class="step" x="21.50" y="18.00" width="4.00" height="3.00"/>
<text class="label" x="23.50" y="19.50">2</text>
<rect class="step" x="21.50" y="27.00" width="4.00" height="3.00"/>
<text class="label" x="23.50" y="28.50">3</text>
<rect class="step" x="-2.00" y="38.46" width="4.00" height="3.00"/>
<text class="label" x="0.00" y="39.96">4</text>
<rect class="step" x="-2.00" y="53.46" width="4.00" height="3.00"/>
<text class="label" x="0.00" y="54.96">5</text>
<rect class="step" x="-2.00" y="68.46" width="4.00" height="3.00"/>
<text class="label" x="0.00" y="69.96">6</text>
<rect class="step" x="9.75" y="38.46" width="4.00" height="3.00"/>
<text class="label" x="11.75" y="39.96">7</text>
<rect class="step" x="9.75" y="53.46" width="4.00" height="3.00"/>
<text class="label" x="11.75" y="54.96">8</text>
<rect class="step" x="33.25" y="38.46" width="4.00" height="3.00"/>
<text class="label" x="35.25" y="39.96">9</text>
<rect class="step" x="33.25" y="53.46" width="4.00" height="3.00"/>
<text class="label" x="35.25" y="54.96">10</text>
<rect class="step" x="9.75" y="79.92" width="4.00" height="3.00"/>
<text class="label" x="11.75" y="81.42">11</text>
<rect class="step" x="45.00" y="38.46" width="4.00" height="3.00"/>
<text class="label" x="47.00" y="39.96">12</text>
<rect class="step" x="21.50" y="53.46" width="4.00" height="3.00"/>
<text class="label" x="23.50" y="54.96">13</text>
<rect class="step" x="56.75" y="53.46" width="4.00" height="3.00"/>
<text class="label" x="58.75" y="54.96">14</text>
<line class="assoc" x1="25.50" y1="5.50" x2="26.50" y2="5.50"/>
<rect class="action" x="26.50" y="4.07" width="5.75" height="2.86" rx="0.45" ry="0.45"/>
<text class="action-label" x="29.38" y="5.09"><tspan x="29.38" dy="0">Sessionun</tspan><tspan x="29.38" dy="0.82">bound閒置</tspan></text>
<line class="assoc" x1="25.50" y1="12.50" x2="26.50" y2="12.50"/>
<rect class="action" x="26.50" y="11.07" width="5.75" height="2.86" rx="0.45" ry="0.45"/>
<text class="action-label" x="29.38" y="11.68"><tspan x="29.38" dy="0">bindSes</tspan><tspan x="29.38" dy="0.82">sion與</tspan><tspan x="29.38" dy="0.82">bumpepoch</tspan></text>
<line class="assoc" x1="25.50" y1="19.50" x2="26.50" y2="19.50"/>
<rect class="action" x="26.50" y="18.07" width="5.75" height="2.86" rx="0.45" ry="0.45"/>
<text class="action-label" x="29.38" y="18.68"><tspan x="29.38" dy="0">hydratetail透</tspan><tspan x="29.38" dy="0.82">過messages</tspan><tspan x="29.38" dy="0.82">endpoint</tspan></text>
<line class="assoc" x1="25.50" y1="28.50" x2="26.50" y2="28.50"/>
<rect class="action" x="26.50" y="27.07" width="5.75" height="2.86" rx="0.45" ry="0.45"/>
<text class="action-label" x="29.38" y="27.68"><tspan x="29.38" dy="0">subscri</tspan><tspan x="29.38" dy="0.82">besse與</tspan><tspan x="29.38" dy="0.82">等待輸入</tspan></text>
<line class="assoc" x1="2.00" y1="39.96" x2="3.00" y2="39.96"/>
<rect class="action" x="3.00" y="38.53" width="5.75" height="2.86" rx="0.45" ry="0.45"/>
<text class="action-label" x="5.88" y="39.55"><tspan x="5.88" dy="0">submit訊</tspan><tspan x="5.88" dy="0.82">息與持久化</tspan></text>
<line class="assoc" x1="2.00" y1="54.96" x2="3.00" y2="54.96"/>
<rect class="action" x="3.00" y="53.53" width="5.75" height="2.86" rx="0.45" ry="0.45"/>
<text class="action-label" x="5.88" y="54.55"><tspan x="5.88" dy="0">派發到</tspan><tspan x="5.88" dy="0.82">runloop</tspan></text>
<line class="assoc" x1="2.00" y1="69.96" x2="3.00" y2="69.96"/>
<rect class="action" x="3.00" y="68.53" width="5.75" height="2.86" rx="0.45" ry="0.45"/>
<text class="action-label" x="5.88" y="69.14"><tspan x="5.88" dy="0">串流partsi</tspan><tspan x="5.88" dy="0.82">nvalidate快</tspan><tspan x="5.88" dy="0.82">取pushsse</tspan></text>
<line class="assoc" x1="13.75" y1="39.96" x2="14.75" y2="39.96"/>
<rect class="action" x="14.75" y="38.53" width="5.75" height="2.86" rx="0.45" ry="0.45"/>
<text class="action-label" x="17.62" y="39.55"><tspan x="17.62" dy="0">applyrebin</tspan><tspan x="17.62" dy="0.82">dratelimit</tspan></text>
<line class="assoc" x1="13.75" y1="54.96" x2="14.75" y2="54.96"/>
<rect class="action" x="14.75" y="53.53" width="5.75" height="2.86" rx="0.45" ry="0.45"/>
<text class="action-label" x="17.62" y="54.14"><tspan x="17.62" dy="0">reinjectc</tspan><tspan x="17.62" dy="0.82">apability</tspan><tspan x="17.62" dy="0.82">snapshot</tspan></text>
<line class="assoc" x1="37.25" y1="39.96" x2="38.25" y2="39.96"/>
<rect class="action" x="38.25" y="38.53" width="5.75" height="2.86" rx="0.45" ry="0.45"/>
<text class="action-label" x="41.12" y="39.14"><tspan x="41.12" dy="0">loadolders</tspan><tspan x="41.12" dy="0.82">lice使用</tspan><tspan x="41.12" dy="0.82">beforecursor</tspan></text>
<line class="assoc" x1="37.25" y1="54.96" x2="38.25" y2="54.96"/>
<rect class="action" x="38.25" y="53.53" width="5.75" height="2.86" rx="0.45" ry="0.45"/>
<text class="action-label" x="41.12" y="54.55"><tspan x="41.12" dy="0">reduce與</tspan><tspan x="41.12" dy="0.82">foldparts</tspan></text>
<line class="assoc" x1="13.75" y1="81.42" x2="14.75" y2="81.42"/>
<rect class="action" x="14.75" y="79.99" width="5.75" height="2.86" rx="0.45" ry="0.45"/>
<text class="action-label" x="17.62" y="80.60"><tspan x="17.62" dy="0">stamp已收到</tspan><tspan x="17.62" dy="0.82">於與classif</tspan><tspan x="17.62" dy="0.82">yfreshness</tspan></text>
<line class="assoc" x1="49.00" y1="39.96" x2="50.00" y2="39.96"/>
<rect class="action" x="50.00" y="38.53" width="5.75" height="2.86" rx="0.45" ry="0.45"/>
<text class="action-label" x="52.88" y="39.55"><tspan x="52.88" dy="0">freshness</tspan><tspan x="52.88" dy="0.82">clocktick</tspan></text>
<line class="assoc" x1="25.50" y1="54.96" x2="26.50" y2="54.96"/>
<rect class="action" x="26.50" y="53.53" width="5.75" height="2.86" rx="0.45" ry="0.45"/>
<text class="action-label" x="29.38" y="54.55"><tspan x="29.38" dy="0">forcetailre</tspan><tspan x="29.38" dy="0.82">fetch在stale</tspan></text>
<line class="assoc" x1="60.75" y1="54.96" x2="61.75" y2="54.96"/>
<rect class="action" x="61.75" y="53.53" width="5.75" height="2.86" rx="0.45" ry="0.45"/>
<text class="action-label" x="64.62" y="54.14"><tspan x="64.62" dy="0">schedulere</tspan><tspan x="64.62" dy="0.82">sumerebind在</tspan><tspan x="64.62" dy="0.82">hardstale</tspan></text>
<line class="gate" x1="22.50" y1="9.00" x2="24.50" y2="9.00"/>
<text class="gate-label" x="24.90" y="9.00"><tspan x="24.90" dy="0">clientopensSession路由</tspan></text>
<line class="gate" x1="22.50" y1="16.00" x2="24.50" y2="16.00"/>
<text class="gate-label" x="24.90" y="16.00"><tspan x="24.90" dy="0">epochbumpok &amp;&amp; reinject完成</tspan></text>
<line class="gate" x1="22.50" y1="23.00" x2="24.50" y2="23.00"/>
<text class="gate-label" x="24.90" y="23.00"><tspan x="24.90" dy="0">tail已載入或304</tspan></text>
<line class="gate" x1="-4.00" y1="32.00" x2="51.00" y2="32.00"/>
<line class="gate" x1="-1.00" y1="45.46" x2="1.00" y2="45.46"/>
<text class="gate-label" x="1.40" y="44.78"><tspan x="1.40" dy="0">httppost2xx</tspan><tspan x="1.40" dy="0.68">&amp;&amp; 訊息</tspan><tspan x="1.40" dy="0.68">appended</tspan></text>
<line class="gate" x1="-1.00" y1="60.46" x2="1.00" y2="60.46"/>
<text class="gate-label" x="1.40" y="59.78"><tspan x="1.40" dy="0">runloops</tspan><tspan x="1.40" dy="0.68">tarted &amp;&amp;</tspan><tspan x="1.40" dy="0.68">串流open</tspan></text>
<line class="gate" x1="-2.00" y1="75.46" x2="72.50" y2="75.46"/>
<line class="gate" x1="10.75" y1="47.46" x2="12.75" y2="47.46"/>
<text class="gate-label" x="13.15" y="47.46"><tspan x="13.15" dy="0">underratelimit</tspan></text>
<line class="gate" x1="34.25" y1="49.46" x2="36.25" y2="49.46"/>
<text class="gate-label" x="36.65" y="49.12"><tspan x="36.65" dy="0">olderslicere</tspan><tspan x="36.65" dy="0.68">turned或empty</tspan></text>
<line class="gate" x1="10.75" y1="84.92" x2="12.75" y2="84.92"/>
<text class="gate-label" x="13.15" y="84.92"><tspan x="13.15" dy="0">fidelityclassified</tspan></text>
<line class="gate" x1="19.50" y1="43.46" x2="62.75" y2="43.46"/>
<line class="gate" x1="22.50" y1="58.46" x2="24.50" y2="58.46"/>
<text class="gate-label" x="24.90" y="58.46"><tspan x="24.90" dy="0">tailrefreshed</tspan></text>
<line class="gate" x1="57.75" y1="64.46" x2="59.75" y2="64.46"/>
<text class="gate-label" x="60.15" y="64.46"><tspan x="60.15" dy="0">resumepostreturned</tspan></text>
<line class="gate" x1="-1.00" y1="34.00" x2="1.00" y2="34.00"/>
<text class="gate-label-left" x="-1.40" y="33.32"><tspan x="-1.40" dy="0">使用者</tspan><tspan x="-1.40" dy="0.68">submi</tspan><tspan x="-1.40" dy="0.68">ts提示</tspan></text>
<line class="gate" x1="10.75" y1="34.00" x2="12.75" y2="34.00"/>
<text class="gate-label-left" x="10.35" y="34.00"><tspan x="10.35" dy="0">rebindtriggerobserved</tspan></text>
<line class="gate" x1="34.25" y1="34.00" x2="36.25" y2="34.00"/>
<text class="gate-label-left" x="33.85" y="34.00"><tspan x="33.85" dy="0">scrollupSentinelhit</tspan></text>
<line class="gate" x1="46.00" y1="34.00" x2="48.00" y2="34.00"/>
<text class="gate-label-left" x="45.60" y="34.00"><tspan x="45.60" dy="0">閒置freshnesstick</tspan></text>
<line class="gate" x1="-1.00" y1="73.46" x2="1.00" y2="73.46"/>
<text class="gate-label-left" x="-1.40" y="72.78"><tspan x="-1.40" dy="0">訊息已</tspan><tspan x="-1.40" dy="0.68">完成或</tspan><tspan x="-1.40" dy="0.68">aborted</tspan></text>
<line class="gate" x1="69.50" y1="73.46" x2="71.50" y2="73.46"/>
<text class="gate-label-left" x="69.10" y="73.46"><tspan x="69.10" dy="0">ratelimitedstorm</tspan></text>
<line class="gate" x1="10.75" y1="73.46" x2="12.75" y2="73.46"/>
<text class="gate-label-left" x="10.35" y="72.78"><tspan x="10.35" dy="0">reinject返</tspan><tspan x="10.35" dy="0.68">回或Sessi</tspan><tspan x="10.35" dy="0.68">onbusy</tspan></text>
<line class="gate" x1="34.25" y1="73.46" x2="36.25" y2="73.46"/>
<text class="gate-label-left" x="33.85" y="73.46"><tspan x="33.85" dy="0">timelinerendered</tspan></text>
<line class="gate" x1="22.50" y1="45.46" x2="24.50" y2="45.46"/>
<text class="gate-label-left" x="22.10" y="45.46"><tspan x="22.10" dy="0">stalethresholdcrossed</tspan></text>
<line class="gate" x1="57.75" y1="45.46" x2="59.75" y2="45.46"/>
<text class="gate-label-left" x="57.35" y="44.78"><tspan x="57.35" dy="0">hardstal</tspan><tspan x="57.35" dy="0.68">ethresho</tspan><tspan x="57.35" dy="0.68">ldcrossed</tspan></text>
<line class="gate" x1="46.00" y1="47.46" x2="48.00" y2="47.46"/>
<text class="gate-label-left" x="45.60" y="47.46"><tspan x="45.60" dy="0">Session路由left</tspan></text>
<line class="flyover-mask" x1="-9.00" y1="51.46" x2="-7.00" y2="51.46"/>
<path class="flyover" d="M -9.00 51.46 Q -8.00 50.46 -7.00 51.46"/>
<circle class="junction" cx="23.50" cy="25.00" r="0.22"/>
<circle class="junction" cx="-8.00" cy="62.46" r="0.22"/>
<circle class="junction" cx="-8.00" cy="66.46" r="0.22"/>
<circle class="branch-junction" cx="11.75" cy="43.46" r="0.28"/>
</svg>