<svg xmlns="http://www.w3.org/2000/svg" width="740" height="400" viewBox="14.00 0.00 37.00 20.00" role="img">
<style>
.step{fill:#fff;stroke:#111;stroke-width:.14}.step-inner{fill:none;stroke:#111;stroke-width:.08}
.action{fill:#fff;stroke:#111;stroke-width:.14}.gate{stroke:#111;stroke-width:.16}
.edge{fill:none;stroke:#111;stroke-width:.05;stroke-linecap:round;stroke-linejoin:round}.edge-arrow{marker-end:url(#arrow)}
.flyover-mask{stroke:#fff;stroke-width:.12;stroke-linecap:round}
.flyover{fill:none;stroke:#111;stroke-width:.05;stroke-linecap:round}
.junction{fill:#111;stroke:#111;stroke-width:0}.branch-junction{fill:#fff;stroke:#111;stroke-width:.08}
.assoc{stroke:#111;stroke-width:.05}.label{font:bold .7px 'Times New Roman', 'BiauKai', 'DFKai-SB', serif;text-anchor:middle;dominant-baseline:middle}
.action-label{font:.55px 'Times New Roman', 'BiauKai', 'DFKai-SB', serif;text-anchor:middle;dominant-baseline:middle}.gate-label{font:italic .55px 'Times New Roman', 'BiauKai', 'DFKai-SB', serif;text-anchor:start;dominant-baseline:middle}.gate-label-left{font:italic .55px 'Times New Roman', 'BiauKai', 'DFKai-SB', serif;text-anchor:end;dominant-baseline:middle}
</style>
<defs><marker id="arrow" markerWidth="0.4" markerHeight="0.4" refX="0.36" refY="0.2" orient="auto" markerUnits="userSpaceOnUse"><path d="M 0 0 L 0.4 0.2 L 0 0.4 z" fill="#111"/></marker></defs>
<rect x="14.00" y="0.00" width="37.00" height="20.00" fill="white"/>
<path class="edge" d="M 30.00 7.00 L 30.00 10.50 Q 30.00 11.00 29.50 11.00 L 20.00 11.00"/>
<path class="edge edge-arrow" d="M 20.00 9.00 L 20.00 13.00"/>
<rect class="step" x="18.00" y="4.00" width="4.00" height="3.00" rx="0.35" ry="0.35"/>
<rect class="step-inner" x="18.25" y="4.25" width="3.50" height="2.50" rx="0.22" ry="0.22"/>
<text class="label" x="20.00" y="5.50">1</text>
<rect class="step" x="28.00" y="4.00" width="4.00" height="3.00" rx="0.35" ry="0.35"/>
<text class="label" x="30.00" y="5.50">7</text>
<rect class="step" x="18.00" y="13.00" width="4.00" height="3.00" rx="0.35" ry="0.35"/>
<text class="label" x="20.00" y="14.50">8</text>
<rect class="step" x="38.00" y="4.00" width="4.00" height="3.00" rx="0.35" ry="0.35"/>
<text class="label" x="40.00" y="5.50">14</text>
<line class="assoc" x1="22.00" y1="5.50" x2="23.00" y2="5.50"/>
<rect class="action" x="23.00" y="4.07" width="4.00" height="2.86"/>
<text class="action-label" x="25.00" y="4.68"><tspan x="25.00" dy="0">bindSess</tspan><tspan x="25.00" dy="0.82">ion與bu</tspan><tspan x="25.00" dy="0.82">mpepoch</tspan></text>
<line class="assoc" x1="32.00" y1="5.50" x2="33.00" y2="5.50"/>
<rect class="action" x="33.00" y="4.07" width="4.00" height="2.86"/>
<text class="action-label" x="35.00" y="5.09"><tspan x="35.00" dy="0">applyrebin</tspan><tspan x="35.00" dy="0.82">dratelimit</tspan></text>
<line class="assoc" x1="22.00" y1="14.50" x2="23.00" y2="14.50"/>
<rect class="action" x="23.00" y="13.07" width="4.00" height="2.86"/>
<text class="action-label" x="25.00" y="13.68"><tspan x="25.00" dy="0">reinjectc</tspan><tspan x="25.00" dy="0.82">apability</tspan><tspan x="25.00" dy="0.82">snapshot</tspan></text>
<line class="assoc" x1="42.00" y1="5.50" x2="43.00" y2="5.50"/>
<rect class="action" x="43.00" y="4.07" width="4.00" height="2.86"/>
<text class="action-label" x="45.00" y="4.68"><tspan x="45.00" dy="0">scheduleres</tspan><tspan x="45.00" dy="0.82">umerebind</tspan><tspan x="45.00" dy="0.82">在hardstale</tspan></text>
<line class="gate" x1="19.00" y1="9.00" x2="21.00" y2="9.00"/>
<text class="gate-label" x="21.40" y="9.00"><tspan x="21.40" dy="0">underratelimit</tspan></text>
<circle class="junction" cx="20.00" cy="11.00" r="0.22"/>
</svg>