<svg width="2571.7" height="1040.0" viewBox="-666.9 -250.0 2571.7 1040.0" xmlns="http://www.w3.org/2000/svg">
<defs>
<marker id="arrow" viewBox="0 0 10 10" refX="10" refY="5" markerWidth="6" markerHeight="6" orient="auto-start-reverse"><path d="M 0 0 L 10 5 L 0 10 z" fill="black" /></marker>
<marker id="call_arrow" viewBox="0 0 10 10" refX="10" refY="5" markerWidth="8" markerHeight="8" orient="auto-start-reverse"><path d="M 0 0 L 10 5 L 0 10 M 0 2 L 6 5 L 0 8" fill="none" stroke="black" stroke-width="1" /></marker>
</defs>
<rect x="-666.9" y="-250.0" width="2571.7" height="1040.0" fill="white" />
<rect x="130.0" y="120.0" width="206.0" height="120.0" stroke="black" fill="white" stroke-width="1.5" data-id="A1" />
<text x="233.0" y="165.0" text-anchor="middle" font-size="16" font-weight="bold" font-family="'Times New Roman', 'BiauKai', 'DFKai-SB', '標楷體', 'KaiTi', serif" data-id="A1" >A1</text>
<text x="233.0" y="197.8" text-anchor="middle" font-size="18" font-weight="bold" font-family="'Times New Roman', 'BiauKai', 'DFKai-SB', '標楷體', 'KaiTi', serif" data-id="A1" >持久化 SESSION 狀態</text>
<rect x="496.0" y="120.0" width="206.0" height="120.0" stroke="black" fill="white" stroke-width="1.5" data-id="A2" />
<text x="599.0" y="149.6" text-anchor="middle" font-size="15" font-weight="bold" font-family="'Times New Roman', 'BiauKai', 'DFKai-SB', '標楷體', 'KaiTi', serif" data-id="A2" >A2</text>
<text x="599.0" y="181.0" text-anchor="middle" font-size="17" font-weight="bold" font-family="'Times New Roman', 'BiauKai', 'DFKai-SB', '標楷體', 'KaiTi', serif" data-id="A2" >刷新 CAPABILITY</text>
<text x="599.0" y="212.9" text-anchor="middle" font-size="17" font-weight="bold" font-family="'Times New Roman', 'BiauKai', 'DFKai-SB', '標楷體', 'KaiTi', serif" data-id="A2" >LAYER</text>
<rect x="862.0" y="120.0" width="206.0" height="120.0" stroke="black" fill="white" stroke-width="1.5" data-id="A3" />
<text x="965.0" y="163.5" text-anchor="middle" font-size="19" font-weight="bold" font-family="'Times New Roman', 'BiauKai', 'DFKai-SB', '標楷體', 'KaiTi', serif" data-id="A3" >A3</text>
<text x="965.0" y="200.6" text-anchor="middle" font-size="21" font-weight="bold" font-family="'Times New Roman', 'BiauKai', 'DFKai-SB', '標楷體', 'KaiTi', serif" data-id="A3" >快取 HTTP POLLS</text>
<rect x="130.0" y="540.0" width="206.0" height="120.0" stroke="black" fill="white" stroke-width="1.5" data-id="A4" />
<text x="233.0" y="584.5" text-anchor="middle" font-size="17" font-weight="bold" font-family="'Times New Roman', 'BiauKai', 'DFKai-SB', '標楷體', 'KaiTi', serif" data-id="A4" >A4</text>
<text x="233.0" y="618.8" text-anchor="middle" font-size="19" font-weight="bold" font-family="'Times New Roman', 'BiauKai', 'DFKai-SB', '標楷體', 'KaiTi', serif" data-id="A4" >串流 前端 UPDATES</text>
<rect x="496.0" y="540.0" width="206.0" height="120.0" stroke="black" fill="white" stroke-width="1.5" data-id="A5" />
<text x="599.0" y="584.5" text-anchor="middle" font-size="17" font-weight="bold" font-family="'Times New Roman', 'BiauKai', 'DFKai-SB', '標楷體', 'KaiTi', serif" data-id="A5" >A5</text>
<text x="599.0" y="618.8" text-anchor="middle" font-size="19" font-weight="bold" font-family="'Times New Roman', 'BiauKai', 'DFKai-SB', '標楷體', 'KaiTi', serif" data-id="A5" >SUBMIT 使用者 訊息</text>
<rect x="862.0" y="540.0" width="206.0" height="120.0" stroke="black" fill="white" stroke-width="1.5" data-id="A6" />
<text x="965.0" y="569.6" text-anchor="middle" font-size="15" font-weight="bold" font-family="'Times New Roman', 'BiauKai', 'DFKai-SB', '標楷體', 'KaiTi', serif" data-id="A6" >A6</text>
<text x="965.0" y="601.0" text-anchor="middle" font-size="17" font-weight="bold" font-family="'Times New Roman', 'BiauKai', 'DFKai-SB', '標楷體', 'KaiTi', serif" data-id="A6" >DETECT UI</text>
<text x="965.0" y="632.9" text-anchor="middle" font-size="17" font-weight="bold" font-family="'Times New Roman', 'BiauKai', 'DFKai-SB', '標楷體', 'KaiTi', serif" data-id="A6" >FRESHNESS</text>
<rect x="40.0" y="-40.0" width="1158.0" height="820.0" stroke="black" fill="none" stroke-width="2" />
<rect x="495.0" y="-240.0" width="248.0" height="110.0" stroke="black" fill="white" stroke-width="1.5" data-id="A0" />
<text x="619.0" y="-214.0" text-anchor="middle" font-size="14" font-weight="bold" font-family="'Times New Roman', 'BiauKai', 'DFKai-SB', '標楷體', 'KaiTi', serif" data-id="A0" >A0</text>
<text x="619.0" y="-184.0" text-anchor="middle" font-size="16" font-weight="bold" font-family="'Times New Roman', 'BiauKai', 'DFKai-SB', '標楷體', 'KaiTi', serif" data-id="A0" >MANAGE SESSION</text>
<text x="619.0" y="-154.0" text-anchor="middle" font-size="16" font-weight="bold" font-family="'Times New Roman', 'BiauKai', 'DFKai-SB', '標楷體', 'KaiTi', serif" data-id="A0" >LIFECYCLE</text>
<line x1="495.0" y1="-240.0" x2="40.0" y2="-40.0" stroke="red" stroke-dasharray="5,5" stroke-width="1.0" opacity="0.6" />
<line x1="743.0" y1="-240.0" x2="1198.0" y2="-40.0" stroke="red" stroke-dasharray="5,5" stroke-width="1.0" opacity="0.6" />
<line x1="495.0" y1="-130.0" x2="40.0" y2="780.0" stroke="red" stroke-dasharray="5,5" stroke-width="1.0" opacity="0.6" />
<line x1="743.0" y1="-130.0" x2="1198.0" y2="780.0" stroke="red" stroke-dasharray="5,5" stroke-width="1.0" opacity="0.6" />
<path d="M 1068.0 180.0 L 1098.0 180.0 Q 1108.0 180.0 1108.0 190.0 L 1108.0 400.0 Q 1108.0 410.0 1098.0 410.0 L 100.0 410.0 Q 90.0 410.0 90.0 420.0 L 90.0 590.0 Q 90.0 600.0 100.0 600.0 L 130.0 600.0" stroke="black" stroke-width="1.2" data-arrow-id="x_cache_to_stream" data-waypoints="1068.0,180.0 1108.0,180.0 1108.0,410.0 90.0,410.0 90.0,600.0 130.0,600.0" marker-end="url(#arrow)" fill="none" />
<path d="M 702.0 580.0 L 732.0 580.0 Q 742.0 580.0 742.0 570.0 L 742.0 380.0 Q 742.0 370.0 732.0 370.0 L 100.0 370.0 Q 90.0 370.0 90.0 360.0 L 90.0 190.0 Q 90.0 180.0 100.0 180.0 L 130.0 180.0" stroke="black" stroke-width="1.2" data-arrow-id="x_submit_to_persist" data-waypoints="702.0,580.0 742.0,580.0 742.0,370.0 90.0,370.0 90.0,180.0 130.0,180.0" marker-end="url(#arrow)" fill="none" />
<path d="M 336.0 200.0 L 406.0 200.0 Q 416.0 200.0 416.0 190.0 L 416.0 90.0 Q 416.0 80.0 426.0 80.0 L 772.0 80.0 Q 782.0 80.0 782.0 90.0 L 782.0 190.0 Q 782.0 200.0 792.0 200.0 L 862.0 200.0" stroke="black" stroke-width="1.2" data-arrow-id="x_persist_to_cache" data-waypoints="336.0,200.0 416.0,200.0 416.0,80.0 782.0,80.0 782.0,200.0 862.0,200.0" marker-end="url(#arrow)" fill="none" />
<path d="M 336.0 580.0 L 406.0 580.0 Q 416.0 580.0 416.0 570.0 L 416.0 500.0 Q 416.0 490.0 426.0 490.0 L 772.0 490.0 Q 782.0 490.0 782.0 500.0 L 782.0 590.0 Q 782.0 600.0 792.0 600.0 L 862.0 600.0" stroke="black" stroke-width="1.2" data-arrow-id="x_stream_to_fresh" data-waypoints="336.0,580.0 416.0,580.0 416.0,490.0 782.0,490.0 782.0,600.0 862.0,600.0" marker-end="url(#arrow)" fill="none" />
<path d="M 1068.0 580.0 L 1138.0 580.0 Q 1148.0 580.0 1148.0 570.0 L 1148.0 340.0 Q 1148.0 330.0 1138.0 330.0 L 466.0 330.0 Q 456.0 330.0 456.0 320.0 L 456.0 210.0 Q 456.0 200.0 466.0 200.0 L 496.0 200.0" stroke="black" stroke-width="1.2" data-arrow-id="x_fresh_to_rebind" data-waypoints="1068.0,580.0 1148.0,580.0 1148.0,330.0 456.0,330.0 456.0,200.0 496.0,200.0" marker-end="url(#arrow)" fill="none" />
<path d="M -10.0 450.0 L 446.0 450.0 Q 456.0 450.0 456.0 460.0 L 456.0 590.0 Q 456.0 600.0 466.0 600.0 L 496.0 600.0" stroke="black" stroke-width="1.2" data-arrow-id="x_in_user" data-waypoints="-10.0,450.0 456.0,450.0 456.0,600.0 496.0,600.0" marker-end="url(#arrow)" fill="none" />
<path d="M 965.0 504.2 L 965.0 540.0" stroke="black" stroke-width="1.2" data-arrow-id="x_ctrl_tweaks_ui" data-waypoints="965.0,504.2 965.0,540.0" marker-end="url(#arrow)" fill="none" />
<path d="M 599.0 695.8 L 599.0 660.0" stroke="black" stroke-width="1.2" data-arrow-id="x_mech_post" data-waypoints="599.0,695.8 599.0,660.0" marker-end="url(#arrow)" fill="none" />
<path d="M 702.0 620.0 L 732.0 620.0 Q 742.0 620.0 742.0 630.0 L 742.0 691.8 Q 742.0 701.8 752.0 701.8 L 1248.0 701.8" stroke="black" stroke-width="1.2" data-arrow-id="x_submit_to_runloop" data-waypoints="702.0,620.0 742.0,620.0 742.0,701.8 1248.0,701.8" marker-end="url(#arrow)" fill="none" />
<path d="M -10.0 0.0 L 812.0 0.0 Q 822.0 0.0 822.0 10.0 L 822.0 150.0 Q 822.0 160.0 832.0 160.0 L 862.0 160.0" stroke="black" stroke-width="1.2" data-arrow-id="x_bus_to_cache" data-waypoints="-10.0,0.0 822.0,0.0 822.0,160.0 862.0,160.0" marker-end="url(#arrow)" fill="none" />
<path d="M 965.0 275.8 L 965.0 240.0" stroke="black" stroke-width="1.2" data-arrow-id="x_mech_cache" data-waypoints="965.0,275.8 965.0,240.0" marker-end="url(#arrow)" fill="none" />
<path d="M -10.0 40.0 L 446.0 40.0 Q 456.0 40.0 456.0 50.0 L 456.0 150.0 Q 456.0 160.0 466.0 160.0 L 496.0 160.0" stroke="black" stroke-width="1.2" data-arrow-id="x_rebind_to_capability" data-waypoints="-10.0,40.0 456.0,40.0 456.0,160.0 496.0,160.0" marker-end="url(#arrow)" fill="none" />
<path d="M 965.0 695.8 L 965.0 660.0" stroke="black" stroke-width="1.2" data-arrow-id="x_mech_fresh" data-waypoints="965.0,695.8 965.0,660.0" marker-end="url(#arrow)" fill="none" />
<path d="M 1068.0 620.0 L 1248.0 620.0" stroke="black" stroke-width="1.2" data-arrow-id="x_fresh_to_render" data-waypoints="1068.0,620.0 1248.0,620.0" marker-end="url(#arrow)" fill="none" />
<path d="M 233.0 504.2 L 233.0 540.0" stroke="black" stroke-width="1.2" data-arrow-id="x_fresh_to_reload" data-waypoints="233.0,504.2 233.0,540.0" marker-end="url(#arrow)" fill="none" />
<path d="M 336.0 160.0 L 366.0 160.0 Q 376.0 160.0 376.0 170.0 L 376.0 280.0 Q 376.0 290.0 386.0 290.0 L 1248.0 290.0" stroke="black" stroke-width="1.2" data-arrow-id="x_persist_out" data-waypoints="336.0,160.0 376.0,160.0 376.0,290.0 1248.0,290.0" marker-end="url(#arrow)" fill="none" />
<path d="M 336.0 620.0 L 366.0 620.0 Q 376.0 620.0 376.0 630.0 L 376.0 730.0 Q 376.0 740.0 386.0 740.0 L 1248.0 740.0" stroke="black" stroke-width="1.2" data-arrow-id="x_stream_out" data-waypoints="336.0,620.0 376.0,620.0 376.0,740.0 1248.0,740.0" marker-end="url(#arrow)" fill="none" />
<path d="M 233.0 84.2 L 233.0 120.0" stroke="black" stroke-width="1.2" data-arrow-id="_merged_A1_control" data-waypoints="233.0,84.2 233.0,120.0" marker-end="url(#arrow)" fill="none" />
<path d="M 965.0 84.2 L 965.0 120.0" stroke="black" stroke-width="1.2" data-arrow-id="_merged_A3_control" data-waypoints="965.0,84.2 965.0,120.0" marker-end="url(#arrow)" fill="none" />
<text x="965.0" y="498.2" font-size="14" text-anchor="middle" font-weight="bold" fill="black" font-family="'Times New Roman', 'BiauKai', 'DFKai-SB', '標楷體', 'KaiTi', serif" data-arrow-id="x_ctrl_tweaks_ui">uifreshnessthresholdsec / hardtimeoutsec</text>
<text x="593.0" y="676.0" font-size="11" text-anchor="end" font-weight="bold" fill="black" font-family="'Times New Roman', 'BiauKai', 'DFKai-SB', '標楷體', 'KaiTi', serif" data-arrow-id="x_mech_post">prompt-input/submit.ts (single</text>
<text x="605.0" y="676.0" font-size="11" text-anchor="start" font-weight="bold" fill="black" font-family="'Times New Roman', 'BiauKai', 'DFKai-SB', '標楷體', 'KaiTi', serif" data-arrow-id="x_mech_post">fetch + AbortController)</text>
<text x="959.0" y="256.0" font-size="12" text-anchor="end" font-weight="bold" fill="black" font-family="'Times New Roman', 'BiauKai', 'DFKai-SB', '標楷體', 'KaiTi', serif" data-arrow-id="x_mech_cache">server/session-cache.ts</text>
<text x="971.0" y="256.0" font-size="12" text-anchor="start" font-weight="bold" fill="black" font-family="'Times New Roman', 'BiauKai', 'DFKai-SB', '標楷體', 'KaiTi', serif" data-arrow-id="x_mech_cache">(LRU + version + ETag)</text>
<text x="959.0" y="676.0" font-size="14" text-anchor="end" font-weight="bold" fill="black" font-family="'Times New Roman', 'BiauKai', 'DFKai-SB', '標楷體', 'KaiTi', serif" data-arrow-id="x_mech_fresh">utils/freshness.ts</text>
<text x="971.0" y="676.0" font-size="14" text-anchor="start" font-weight="bold" fill="black" font-family="'Times New Roman', 'BiauKai', 'DFKai-SB', '標楷體', 'KaiTi', serif" data-arrow-id="x_mech_fresh">use-freshness-clock.ts</text>
<text x="233.0" y="498.2" font-size="14" text-anchor="middle" font-weight="bold" fill="black" font-family="'Times New Roman', 'BiauKai', 'DFKai-SB', '標楷體', 'KaiTi', serif" data-arrow-id="x_fresh_to_reload">Stale Forces Tail Refetch</text>
<text x="227.0" y="114.0" font-size="14" text-anchor="end" font-weight="bold" fill="black" font-family="'Times New Roman', 'BiauKai', 'DFKai-SB', '標楷體', 'KaiTi', serif" data-arrow-id="x_ctrl_tweaks">tweaks.cfg 儲存 Keys</text>
<text x="239.0" y="114.0" font-size="14" text-anchor="start" font-weight="bold" fill="black" font-family="'Times New Roman', 'BiauKai', 'DFKai-SB', '標楷體', 'KaiTi', serif" data-arrow-id="x_ctrl_tweaks">已釘選技能 + 必要 技能 Snapshot</text>
<text x="959.0" y="114.0" font-size="14" text-anchor="end" font-weight="bold" fill="black" font-family="'Times New Roman', 'BiauKai', 'DFKai-SB', '標楷體', 'KaiTi', serif" data-arrow-id="x_ctrl_tweaks_cache">tweaks.cfg 快取 + RateLimit</text>
<text x="971.0" y="114.0" font-size="14" text-anchor="start" font-weight="bold" fill="black" font-family="'Times New Roman', 'BiauKai', 'DFKai-SB', '標楷體', 'KaiTi', serif" data-arrow-id="x_ctrl_tweaks_cache">Keys、Epoch Bump Invalidation</text>
<text x="599.0" y="402.0" font-size="14" font-weight="bold" fill="black" text-anchor="middle" font-family="'Times New Roman', 'BiauKai', 'DFKai-SB', '標楷體', 'KaiTi', serif" data-arrow-id="x_cache_to_stream" >200 Body 或 304 不 Modified</text>
<text x="233.0" y="362.0" font-size="14" font-weight="bold" fill="black" text-anchor="middle" font-family="'Times New Roman', 'BiauKai', 'DFKai-SB', '標楷體', 'KaiTi', serif" data-arrow-id="x_submit_to_persist" >使用者 訊息 記錄</text>
<text x="599.0" y="72.0" font-size="14" font-weight="bold" fill="black" text-anchor="middle" font-family="'Times New Roman', 'BiauKai', 'DFKai-SB', '標楷體', 'KaiTi', serif" data-arrow-id="x_persist_to_cache" >Updated 訊息 或 Session 狀態</text>
<text x="599.0" y="482.0" font-size="14" font-weight="bold" fill="black" text-anchor="middle" font-family="'Times New Roman', 'BiauKai', 'DFKai-SB', '標楷體', 'KaiTi', serif" data-arrow-id="x_stream_to_fresh" >已收到於 Stamp 依 Store 項目</text>
<text x="599.0" y="322.0" font-size="14" font-weight="bold" fill="black" text-anchor="middle" font-family="'Times New Roman', 'BiauKai', 'DFKai-SB', '標楷體', 'KaiTi', serif" data-arrow-id="x_fresh_to_rebind" >閒置 Boundary -&gt; Sessionresume Trigger</text>
<text x="-14.0" y="454.0" font-size="20" text-anchor="end" font-weight="bold" fill="black" font-family="'Times New Roman', 'BiauKai', 'DFKai-SB', '標楷體', 'KaiTi', serif" data-arrow-id="x_in_user">使用者 提示 + 附件</text>
<text x="1252.0" y="705.8" font-size="20" text-anchor="start" font-weight="bold" fill="black" font-family="'Times New Roman', 'BiauKai', 'DFKai-SB', '標楷體', 'KaiTi', serif" data-arrow-id="x_submit_to_runloop">派發 到 Runloop</text>
<text x="-14.0" y="-9.0" font-size="20" text-anchor="end" font-weight="bold" fill="black" font-family="'Times New Roman', 'BiauKai', 'DFKai-SB', '標楷體', 'KaiTi', serif" data-arrow-id="x_bus_to_cache">Session.事件.Updated</text>
<text x="-14.0" y="17.0" font-size="20" text-anchor="end" font-weight="bold" fill="black" font-family="'Times New Roman', 'BiauKai', 'DFKai-SB', '標楷體', 'KaiTi', serif" data-arrow-id="x_bus_to_cache">/ 訊息v2.事件.*</text>
<text x="-14.0" y="44.0" font-size="20" text-anchor="end" font-weight="bold" fill="black" font-family="'Times New Roman', 'BiauKai', 'DFKai-SB', '標楷體', 'KaiTi', serif" data-arrow-id="x_rebind_to_capability">Trigger 來自 Boot / Resume / Switch / 重載 / 工具 / Mtime</text>
<text x="1252.0" y="598.0" font-size="20" text-anchor="start" font-weight="bold" fill="black" font-family="'Times New Roman', 'BiauKai', 'DFKai-SB', '標楷體', 'KaiTi', serif" data-arrow-id="x_fresh_to_render">Fidelity Class</text>
<text x="1252.0" y="624.0" font-size="20" text-anchor="start" font-weight="bold" fill="black" font-family="'Times New Roman', 'BiauKai', 'DFKai-SB', '標楷體', 'KaiTi', serif" data-arrow-id="x_fresh_to_render">(fresh / stale</text>
<text x="1252.0" y="650.0" font-size="20" text-anchor="start" font-weight="bold" fill="black" font-family="'Times New Roman', 'BiauKai', 'DFKai-SB', '標楷體', 'KaiTi', serif" data-arrow-id="x_fresh_to_render">/ hard-stale)</text>
<text x="1252.0" y="281.0" font-size="20" text-anchor="start" font-weight="bold" fill="black" font-family="'Times New Roman', 'BiauKai', 'DFKai-SB', '標楷體', 'KaiTi', serif" data-arrow-id="x_persist_out">Persisted</text>
<text x="1252.0" y="307.0" font-size="20" text-anchor="start" font-weight="bold" fill="black" font-family="'Times New Roman', 'BiauKai', 'DFKai-SB', '標楷體', 'KaiTi', serif" data-arrow-id="x_persist_out">Snapshot 到 磁碟</text>
<text x="1252.0" y="744.0" font-size="20" text-anchor="start" font-weight="bold" fill="black" font-family="'Times New Roman', 'BiauKai', 'DFKai-SB', '標楷體', 'KaiTi', serif" data-arrow-id="x_stream_out">Rendered Session UI</text>
</svg>