<svg xmlns="http://www.w3.org/2000/svg" width="1520" height="1560" viewBox="-37.00 -2.00 76.00 78.00" role="img">
<style>
.step{fill:#fff;stroke:#111;stroke-width:.14}.step-inner{fill:none;stroke:#111;stroke-width:.08}
.action{fill:#fff;stroke:#111;stroke-width:.14}.gate{stroke:#111;stroke-width:.16}
.edge{fill:none;stroke:#111;stroke-width:.05;stroke-linecap:round;stroke-linejoin:round}.edge-arrow{marker-end:url(#arrow)}
.flyover-mask{stroke:#fff;stroke-width:.12;stroke-linecap:round}
.flyover{fill:none;stroke:#111;stroke-width:.05;stroke-linecap:round}
.junction{fill:#111;stroke:#111;stroke-width:0}.branch-junction{fill:#fff;stroke:#111;stroke-width:.08}
.assoc{stroke:#111;stroke-width:.05}.label{font:bold .7px 'Times New Roman', 'BiauKai', 'DFKai-SB', serif;text-anchor:middle;dominant-baseline:middle}
.action-label{font:.55px 'Times New Roman', 'BiauKai', 'DFKai-SB', serif;text-anchor:middle;dominant-baseline:middle}.gate-label{font:italic .55px 'Times New Roman', 'BiauKai', 'DFKai-SB', serif;text-anchor:start;dominant-baseline:middle}.gate-label-left{font:italic .55px 'Times New Roman', 'BiauKai', 'DFKai-SB', serif;text-anchor:end;dominant-baseline:middle}
</style>
<defs><marker id="arrow" markerWidth="0.4" markerHeight="0.4" refX="0.36" refY="0.2" orient="auto" markerUnits="userSpaceOnUse"><path d="M 0 0 L 0.4 0.2 L 0 0.4 z" fill="#111"/></marker></defs>
<rect x="-37.00" y="-2.00" width="76.00" height="78.00" fill="white"/>
<path class="edge edge-arrow" d="M 0.00 23.00 L 0.00 27.00"/>
<path class="edge" d="M 0.00 7.00 L 0.00 9.00"/>
<path class="edge edge-arrow" d="M 0.00 9.00 L 0.00 11.00"/>
<path class="edge" d="M 0.00 14.00 L 0.00 16.00"/>
<path class="edge edge-arrow" d="M 0.00 16.00 L 0.00 18.00"/>
<path class="edge" d="M 0.00 21.00 L 0.00 23.00"/>
<path class="edge edge-arrow" d="M 0.00 30.00 L 0.00 32.00"/>
<path class="edge edge-arrow" d="M -20.00 32.00 L -20.00 36.00"/>
<path class="edge edge-arrow" d="M 20.00 32.00 L 20.00 36.00"/>
<path class="edge edge-arrow" d="M -10.00 32.00 L -10.00 36.00"/>
<path class="edge edge-arrow" d="M 10.00 32.00 L 10.00 36.00"/>
<path class="edge" d="M -20.00 39.00 L -20.00 41.00"/>
<path class="edge edge-arrow" d="M -20.00 41.00 L -20.00 47.00"/>
<path class="edge" d="M -20.00 50.00 L -20.00 52.00"/>
<path class="edge edge-arrow" d="M -20.00 52.00 L -20.00 56.00"/>
<path class="edge edge-arrow" d="M -20.00 59.00 L -20.00 63.00"/>
<path class="edge edge-arrow" d="M 0.00 63.00 L 0.00 65.00"/>
<path class="edge" d="M 20.00 39.00 L 20.00 41.00"/>
<path class="edge" d="M 20.00 41.00 L 20.00 43.00"/>
<path class="edge edge-arrow" d="M 20.00 43.00 L 20.00 47.00"/>
<path class="edge edge-arrow" d="M 20.00 41.00 L 29.50 41.00 Q 30.00 41.00 30.00 41.50 L 30.00 63.00"/>
<path class="edge edge-arrow" d="M 20.00 50.00 L 20.00 63.00"/>
<path class="edge" d="M -10.00 39.00 L -10.00 41.00"/>
<path class="edge edge-arrow" d="M -10.00 41.00 L -10.00 47.00"/>
<path class="edge edge-arrow" d="M -10.00 50.00 L -10.00 63.00"/>
<path class="edge" d="M 0.00 68.00 L 0.00 70.00"/>
<path class="edge" d="M 0.00 70.00 L 0.00 71.50 Q 0.00 72.00 -0.50 72.00 L -28.50 72.00 Q -29.00 72.00 -29.00 71.50 L -29.00 25.50 Q -29.00 25.00 -28.50 25.00 L 0.00 25.00"/>
<path class="edge edge-arrow" d="M 10.00 39.00 L 10.00 41.00"/>
<path class="edge edge-arrow" d="M 0.00 41.00 L 0.00 47.00"/>
<path class="edge edge-arrow" d="M 10.00 41.00 L 10.00 47.00"/>
<path class="edge edge-arrow" d="M -2.50 41.00 L -2.50 44.50 Q -2.50 45.00 -3.00 45.00 L -32.50 45.00 Q -33.00 45.00 -33.00 44.50 L -33.00 2.50 Q -33.00 2.00 -32.50 2.00 L -0.50 2.00 Q 0.00 2.00 0.00 2.50 L 0.00 4.00"/>
<path class="edge" d="M 0.00 50.00 L 0.00 52.00"/>
<path class="edge" d="M 0.00 52.00 L 0.00 56.00"/>
<path class="edge" d="M 0.00 56.00 L -29.00 56.00"/>
<path class="edge" d="M 10.00 50.00 L 10.00 52.00"/>
<path class="edge" d="M 10.00 52.00 L 10.00 56.00"/>
<path class="edge" d="M 10.00 56.00 L 0.00 56.00"/>
<rect class="step" x="-2.00" y="4.00" width="4.00" height="3.00" rx="0.35" ry="0.35"/>
<rect class="step-inner" x="-1.75" y="4.25" width="3.50" height="2.50" rx="0.22" ry="0.22"/>
<text class="label" x="0.00" y="5.50">0</text>
<rect class="step" x="-2.00" y="11.00" width="4.00" height="3.00" rx="0.35" ry="0.35"/>
<text class="label" x="0.00" y="12.50">1</text>
<rect class="step" x="-2.00" y="18.00" width="4.00" height="3.00" rx="0.35" ry="0.35"/>
<text class="label" x="0.00" y="19.50">2</text>
<rect class="step" x="-2.00" y="27.00" width="4.00" height="3.00" rx="0.35" ry="0.35"/>
<text class="label" x="0.00" y="28.50">3</text>
<rect class="step" x="-22.00" y="36.00" width="4.00" height="3.00" rx="0.35" ry="0.35"/>
<text class="label" x="-20.00" y="37.50">4</text>
<rect class="step" x="-22.00" y="47.00" width="4.00" height="3.00" rx="0.35" ry="0.35"/>
<text class="label" x="-20.00" y="48.50">5</text>
<rect class="step" x="-22.00" y="56.00" width="4.00" height="3.00" rx="0.35" ry="0.35"/>
<text class="label" x="-20.00" y="57.50">6</text>
<rect class="step" x="18.00" y="36.00" width="4.00" height="3.00" rx="0.35" ry="0.35"/>
<text class="label" x="20.00" y="37.50">7</text>
<rect class="step" x="18.00" y="47.00" width="4.00" height="3.00" rx="0.35" ry="0.35"/>
<text class="label" x="20.00" y="48.50">8</text>
<rect class="step" x="-12.00" y="36.00" width="4.00" height="3.00" rx="0.35" ry="0.35"/>
<text class="label" x="-10.00" y="37.50">9</text>
<rect class="step" x="-12.00" y="47.00" width="4.00" height="3.00" rx="0.35" ry="0.35"/>
<text class="label" x="-10.00" y="48.50">10</text>
<rect class="step" x="-2.00" y="65.00" width="4.00" height="3.00" rx="0.35" ry="0.35"/>
<text class="label" x="0.00" y="66.50">11</text>
<rect class="step" x="8.00" y="36.00" width="4.00" height="3.00" rx="0.35" ry="0.35"/>
<text class="label" x="10.00" y="37.50">12</text>
<rect class="step" x="-2.00" y="47.00" width="4.00" height="3.00" rx="0.35" ry="0.35"/>
<text class="label" x="0.00" y="48.50">13</text>
<rect class="step" x="8.00" y="47.00" width="4.00" height="3.00" rx="0.35" ry="0.35"/>
<text class="label" x="10.00" y="48.50">14</text>
<line class="assoc" x1="2.00" y1="5.50" x2="3.00" y2="5.50"/>
<rect class="action" x="3.00" y="4.07" width="4.00" height="2.86"/>
<text class="action-label" x="5.00" y="5.09"><tspan x="5.00" dy="0">Sessionunb</tspan><tspan x="5.00" dy="0.82">ound閒置</tspan></text>
<line class="assoc" x1="2.00" y1="12.50" x2="3.00" y2="12.50"/>
<rect class="action" x="3.00" y="11.07" width="4.00" height="2.86"/>
<text class="action-label" x="5.00" y="12.09"><tspan x="5.00" dy="0">bindSession</tspan><tspan x="5.00" dy="0.82">與bumpepoch</tspan></text>
<line class="assoc" x1="2.00" y1="19.50" x2="3.00" y2="19.50"/>
<rect class="action" x="3.00" y="18.07" width="4.00" height="2.86"/>
<text class="action-label" x="5.00" y="18.68"><tspan x="5.00" dy="0">hydratetail</tspan><tspan x="5.00" dy="0.82">透過mess</tspan><tspan x="5.00" dy="0.82">agesendpoint</tspan></text>
<line class="assoc" x1="2.00" y1="28.50" x2="3.00" y2="28.50"/>
<rect class="action" x="3.00" y="27.07" width="4.00" height="2.86"/>
<text class="action-label" x="5.00" y="27.68"><tspan x="5.00" dy="0">subscribe</tspan><tspan x="5.00" dy="0.82">sse與等</tspan><tspan x="5.00" dy="0.82">待輸入</tspan></text>
<line class="assoc" x1="-18.00" y1="37.50" x2="-17.00" y2="37.50"/>
<rect class="action" x="-17.00" y="36.07" width="4.00" height="2.86"/>
<text class="action-label" x="-15.00" y="37.09"><tspan x="-15.00" dy="0">submit訊息</tspan><tspan x="-15.00" dy="0.82">與持久化</tspan></text>
<line class="assoc" x1="-18.00" y1="48.50" x2="-17.00" y2="48.50"/>
<rect class="action" x="-17.00" y="47.07" width="4.00" height="2.86"/>
<text class="action-label" x="-15.00" y="48.09"><tspan x="-15.00" dy="0">派發到</tspan><tspan x="-15.00" dy="0.82">runloop</tspan></text>
<line class="assoc" x1="-18.00" y1="57.50" x2="-17.00" y2="57.50"/>
<rect class="action" x="-17.00" y="56.07" width="4.00" height="2.86"/>
<text class="action-label" x="-15.00" y="56.68"><tspan x="-15.00" dy="0">串流parts</tspan><tspan x="-15.00" dy="0.82">invalidate快</tspan><tspan x="-15.00" dy="0.82">取pushsse</tspan></text>
<line class="assoc" x1="22.00" y1="37.50" x2="23.00" y2="37.50"/>
<rect class="action" x="23.00" y="36.07" width="4.00" height="2.86"/>
<text class="action-label" x="25.00" y="37.09"><tspan x="25.00" dy="0">applyrebin</tspan><tspan x="25.00" dy="0.82">dratelimit</tspan></text>
<line class="assoc" x1="22.00" y1="48.50" x2="23.00" y2="48.50"/>
<rect class="action" x="23.00" y="47.07" width="4.00" height="2.86"/>
<text class="action-label" x="25.00" y="48.09"><tspan x="25.00" dy="0">reinjectcapab</tspan><tspan x="25.00" dy="0.82">ilitysnapshot</tspan></text>
<line class="assoc" x1="-8.00" y1="37.50" x2="-7.00" y2="37.50"/>
<rect class="action" x="-7.00" y="36.07" width="4.00" height="2.86"/>
<text class="action-label" x="-5.00" y="36.68"><tspan x="-5.00" dy="0">loadoldersli</tspan><tspan x="-5.00" dy="0.82">ce使用be</tspan><tspan x="-5.00" dy="0.82">forecursor</tspan></text>
<line class="assoc" x1="-8.00" y1="48.50" x2="-7.00" y2="48.50"/>
<rect class="action" x="-7.00" y="47.07" width="4.00" height="2.86"/>
<text class="action-label" x="-5.00" y="48.09"><tspan x="-5.00" dy="0">reduce與</tspan><tspan x="-5.00" dy="0.82">foldparts</tspan></text>
<line class="assoc" x1="2.00" y1="66.50" x2="3.00" y2="66.50"/>
<rect class="action" x="3.00" y="65.07" width="4.00" height="2.86"/>
<text class="action-label" x="5.00" y="65.68"><tspan x="5.00" dy="0">stamp已收</tspan><tspan x="5.00" dy="0.82">到於與clas</tspan><tspan x="5.00" dy="0.82">sifyfreshness</tspan></text>
<line class="assoc" x1="12.00" y1="37.50" x2="13.00" y2="37.50"/>
<rect class="action" x="13.00" y="36.07" width="4.00" height="2.86"/>
<text class="action-label" x="15.00" y="37.09"><tspan x="15.00" dy="0">freshness</tspan><tspan x="15.00" dy="0.82">clocktick</tspan></text>
<line class="assoc" x1="2.00" y1="48.50" x2="3.00" y2="48.50"/>
<rect class="action" x="3.00" y="47.07" width="4.00" height="2.86"/>
<text class="action-label" x="5.00" y="48.09"><tspan x="5.00" dy="0">forcetailref</tspan><tspan x="5.00" dy="0.82">etch在stale</tspan></text>
<line class="assoc" x1="12.00" y1="48.50" x2="13.00" y2="48.50"/>
<rect class="action" x="13.00" y="47.07" width="4.00" height="2.86"/>
<text class="action-label" x="15.00" y="47.68"><tspan x="15.00" dy="0">scheduleres</tspan><tspan x="15.00" dy="0.82">umerebind</tspan><tspan x="15.00" dy="0.82">在hardstale</tspan></text>
<line class="gate" x1="-1.00" y1="9.00" x2="1.00" y2="9.00"/>
<text class="gate-label" x="1.40" y="9.00"><tspan x="1.40" dy="0">clientopensSession路由</tspan></text>
<line class="gate" x1="-1.00" y1="16.00" x2="1.00" y2="16.00"/>
<text class="gate-label" x="1.40" y="16.00"><tspan x="1.40" dy="0">epochbumpok &amp;&amp; reinject完成</tspan></text>
<line class="gate" x1="-1.00" y1="23.00" x2="1.00" y2="23.00"/>
<text class="gate-label" x="1.40" y="23.00"><tspan x="1.40" dy="0">tail已載入或304</tspan></text>
<line class="gate" x1="-25.00" y1="32.00" x2="25.00" y2="32.00"/>
<line class="gate" x1="-21.00" y1="41.00" x2="-19.00" y2="41.00"/>
<text class="gate-label" x="-18.60" y="41.00"><tspan x="-18.60" dy="0">httppost2xx &amp;&amp; 訊息appended</tspan></text>
<line class="gate" x1="-21.00" y1="52.00" x2="-19.00" y2="52.00"/>
<text class="gate-label" x="-18.60" y="52.00"><tspan x="-18.60" dy="0">runloopstarted &amp;&amp; 串流open</tspan></text>
<line class="gate" x1="-25.00" y1="63.00" x2="35.00" y2="63.00"/>
<line class="gate" x1="19.00" y1="43.00" x2="21.00" y2="43.00"/>
<text class="gate-label" x="21.40" y="43.00"><tspan x="21.40" dy="0">underratelimit</tspan></text>
<line class="gate" x1="-11.00" y1="41.00" x2="-9.00" y2="41.00"/>
<text class="gate-label" x="-8.60" y="40.32"><tspan x="-8.60" dy="0">olderslicereturned或empty</tspan></text>
<line class="gate" x1="-1.00" y1="70.00" x2="1.00" y2="70.00"/>
<text class="gate-label" x="1.40" y="70.00"><tspan x="1.40" dy="0">fidelityclassified</tspan></text>
<line class="gate" x1="-3.50" y1="41.00" x2="13.50" y2="41.00"/>
<line class="gate" x1="-1.00" y1="52.00" x2="1.00" y2="52.00"/>
<text class="gate-label" x="1.40" y="52.00"><tspan x="1.40" dy="0">tailrefreshed</tspan></text>
<line class="gate" x1="9.00" y1="52.00" x2="11.00" y2="52.00"/>
<text class="gate-label" x="11.40" y="52.00"><tspan x="11.40" dy="0">resumepostreturned</tspan></text>
<line class="gate" x1="-21.00" y1="34.00" x2="-19.00" y2="34.00"/>
<text class="gate-label-left" x="-21.40" y="34.00"><tspan x="-21.40" dy="0">使用者submits提示</tspan></text>
<line class="gate" x1="19.00" y1="34.00" x2="21.00" y2="34.00"/>
<text class="gate-label" x="21.40" y="34.00"><tspan x="21.40" dy="0">rebindtriggerobserved</tspan></text>
<line class="gate" x1="-11.00" y1="34.00" x2="-9.00" y2="34.00"/>
<text class="gate-label-left" x="-11.40" y="34.00"><tspan x="-11.40" dy="0">scrollupSentinelhit</tspan></text>
<line class="gate" x1="9.00" y1="34.00" x2="11.00" y2="34.00"/>
<text class="gate-label" x="11.40" y="34.00"><tspan x="11.40" dy="0">閒置freshnesstick</tspan></text>
<line class="gate" x1="-21.00" y1="61.00" x2="-19.00" y2="61.00"/>
<text class="gate-label-left" x="-21.40" y="61.00"><tspan x="-21.40" dy="0">訊息已完成或aborted</tspan></text>
<line class="gate" x1="29.00" y1="61.00" x2="31.00" y2="61.00"/>
<text class="gate-label" x="31.40" y="61.00"><tspan x="31.40" dy="0">ratelimitedstorm</tspan></text>
<line class="gate" x1="19.00" y1="61.00" x2="21.00" y2="61.00"/>
<text class="gate-label" x="21.40" y="61.00"><tspan x="21.40" dy="0">reinject返回或Sessionbusy</tspan></text>
<line class="gate" x1="-11.00" y1="61.00" x2="-9.00" y2="61.00"/>
<text class="gate-label-left" x="-11.40" y="61.00"><tspan x="-11.40" dy="0">timelinerendered</tspan></text>
<line class="gate" x1="-1.00" y1="43.00" x2="1.00" y2="43.00"/>
<text class="gate-label-left" x="-2.80" y="43.00"><tspan x="-2.80" dy="0">stalethresholdcrossed</tspan></text>
<line class="gate" x1="9.00" y1="43.00" x2="11.00" y2="43.00"/>
<text class="gate-label" x="11.40" y="43.00"><tspan x="11.40" dy="0">hardstalethresholdcrossed</tspan></text>
<line class="gate" x1="-3.50" y1="43.00" x2="-1.50" y2="43.00"/>
<text class="gate-label-left" x="-8.10" y="42.32"><tspan x="-8.10" dy="0">Sess</tspan><tspan x="-8.10" dy="0.68">ion路</tspan><tspan x="-8.10" dy="0.68">由left</tspan></text>
<circle class="junction" cx="0.00" cy="25.00" r="0.22"/>
<circle class="junction" cx="-29.00" cy="56.00" r="0.22"/>
<circle class="junction" cx="0.00" cy="56.00" r="0.22"/>
<circle class="branch-junction" cx="20.00" cy="41.00" r="0.28"/>
</svg>