<svg width="743" height="770" viewBox="116.8 -50.0 743.2 770.0" xmlns="http://www.w3.org/2000/svg">
<defs><marker id="arrow" viewBox="0 0 10 10" refX="10" refY="5" markerWidth="6" markerHeight="6" orient="auto-start-reverse"><path d="M 0 0 L 10 5 L 0 10 z" fill="black" /></marker></defs>
<rect x="116.8" y="-50.0" width="743.2" height="770.0" fill="white" />
<rect x="380.0" y="80.0" width="40.0" height="40.0" stroke="black" stroke-width="1.5" fill="white" />
<rect x="385.0" y="85.0" width="30.0" height="30.0" stroke="black" stroke-width="1" fill="none" />
<text x="400" y="105.0" text-anchor="middle" font-family="'Times New Roman', 'BiauKai', 'DFKai-SB', '標楷體', 'KaiTi', serif" font-weight="bold" font-size="14">0</text>
<line x1="420.0" y1="100.0" x2="460.0" y2="100.0" stroke="black" />
<rect x="460.0" y="54.0" width="160.0" height="92.0" stroke="black" stroke-width="1.2" fill="white" />
<text x="540.0" y="104.0" text-anchor="middle" font-family="'Times New Roman', 'BiauKai', 'DFKai-SB', '標楷體', 'KaiTi', serif" font-size="11">Initialize</text>
<line x1="400" y1="120.0" x2="400" y2="200.0" stroke="black" />
<line x1="380" y1="160.0" x2="420" y2="160.0" stroke="black" stroke-width="2" />
<text x="424.0" y="164.0" font-style="italic" font-size="11" text-anchor="start" font-family="'Times New Roman', 'BiauKai', 'DFKai-SB', '標楷體', 'KaiTi', serif">start</text>
<rect x="380.0" y="200.0" width="40.0" height="40.0" stroke="black" stroke-width="1.5" fill="white" />
<text x="400" y="225.0" text-anchor="middle" font-family="'Times New Roman', 'BiauKai', 'DFKai-SB', '標楷體', 'KaiTi', serif" font-weight="bold" font-size="14">1</text>
<line x1="420.0" y1="220.0" x2="460.0" y2="220.0" stroke="black" />
<rect x="460.0" y="174.0" width="160.0" height="92.0" stroke="black" stroke-width="1.2" fill="white" />
<text x="540.0" y="200.0" text-anchor="middle" font-family="'Times New Roman', 'BiauKai', 'DFKai-SB', '標楷體', 'KaiTi', serif" font-size="11">Execute</text>
<text x="540.0" y="224.0" text-anchor="middle" font-family="'Times New Roman', 'BiauKai', 'DFKai-SB', '標楷體', 'KaiTi', serif" font-size="11">Core</text>
<text x="540.0" y="248.00000000000003" text-anchor="middle" font-family="'Times New Roman', 'BiauKai', 'DFKai-SB', '標楷體', 'KaiTi', serif" font-size="11">Function</text>
<line x1="400" y1="240.0" x2="400" y2="280.0" stroke="black" />
<line x1="200.0" y1="280.0" x2="600.0" y2="280.0" stroke="black" stroke-width="1.5" />
<line x1="240.0" y1="280.0" x2="240.0" y2="320.0" stroke="black" />
<line x1="220.0" y1="320.0" x2="260.0" y2="320.0" stroke="black" stroke-width="2" />
<text x="216.0" y="324.0" font-style="italic" font-size="11" text-anchor="end" font-family="'Times New Roman', 'BiauKai', 'DFKai-SB', '標楷體', 'KaiTi', serif">ok</text>
<line x1="240.0" y1="320.0" x2="240.0" y2="360.0" stroke="black" />
<line x1="560.0" y1="280.0" x2="560.0" y2="320.0" stroke="black" />
<line x1="540.0" y1="320.0" x2="580.0" y2="320.0" stroke="black" stroke-width="2" />
<text x="584.0" y="324.0" font-style="italic" font-size="11" text-anchor="start" font-family="'Times New Roman', 'BiauKai', 'DFKai-SB', '標楷體', 'KaiTi', serif">錯誤</text>
<line x1="560.0" y1="320.0" x2="560.0" y2="360.0" stroke="black" marker-end="url(#arrow)" />
<rect x="540.0" y="360.0" width="40.0" height="40.0" stroke="black" stroke-width="1.5" fill="white" />
<text x="560.0" y="385.0" text-anchor="middle" font-family="'Times New Roman', 'BiauKai', 'DFKai-SB', '標楷體', 'KaiTi', serif" font-weight="bold" font-size="14">3</text>
<line x1="580.0" y1="380.0" x2="620.0" y2="380.0" stroke="black" />
<rect x="620.0" y="334.0" width="160.0" height="92.0" stroke="black" stroke-width="1.2" fill="white" />
<text x="700.0" y="384.0" text-anchor="middle" font-family="'Times New Roman', 'BiauKai', 'DFKai-SB', '標楷體', 'KaiTi', serif" font-size="11">Recover</text>
<line x1="560.0" y1="400.0" x2="560.0" y2="480.0" stroke="black" />
<line x1="540.0" y1="440.0" x2="580.0" y2="440.0" stroke="black" stroke-width="2" />
<text x="584.0" y="444.0" font-style="italic" font-size="11" text-anchor="start" font-family="'Times New Roman', 'BiauKai', 'DFKai-SB', '標楷體', 'KaiTi', serif">重試</text>
<line x1="200.0" y1="480.0" x2="600.0" y2="480.0" stroke="black" stroke-width="1.5" />
<line x1="240.0" y1="360.0" x2="240.0" y2="480.0" stroke="black" />
<line x1="560.0" y1="480.0" x2="560.0" y2="480.0" stroke="black" />
<line x1="400" y1="480.0" x2="400" y2="520.0" stroke="black" marker-end="url(#arrow)" />
<rect x="380.0" y="520.0" width="40.0" height="40.0" stroke="black" stroke-width="1.5" fill="white" />
<text x="400" y="545.0" text-anchor="middle" font-family="'Times New Roman', 'BiauKai', 'DFKai-SB', '標楷體', 'KaiTi', serif" font-weight="bold" font-size="14">2</text>
<line x1="420.0" y1="540.0" x2="460.0" y2="540.0" stroke="black" />
<rect x="460.0" y="494.0" width="160.0" height="92.0" stroke="black" stroke-width="1.2" fill="white" />
<text x="540.0" y="544.0" text-anchor="middle" font-family="'Times New Roman', 'BiauKai', 'DFKai-SB', '標楷體', 'KaiTi', serif" font-size="11">完成</text>
<line x1="400" y1="560.0" x2="400" y2="640.0" stroke="black" />
<line x1="380" y1="600.0" x2="420" y2="600.0" stroke="black" stroke-width="2" />
<text x="424.0" y="604.0" font-style="italic" font-size="11" text-anchor="start" font-family="'Times New Roman', 'BiauKai', 'DFKai-SB', '標楷體', 'KaiTi', serif">reset</text>
<line x1="400" y1="640.0" x2="400" y2="640.0" stroke="black" />
<line x1="400" y1="640.0" x2="300.0" y2="640.0" stroke="black" />
<line x1="300.0" y1="640.0" x2="300.0" y2="30.0" stroke="black" />
<line x1="300.0" y1="30.0" x2="400" y2="30.0" stroke="black" />
<line x1="400" y1="30.0" x2="400" y2="70.0" stroke="black" marker-end="url(#arrow)" />
</svg>