<svg width="1485" height="812" viewBox="-173.6 -26.0 1484.6 812.0" xmlns="http://www.w3.org/2000/svg">
<defs><marker id="arrow" viewBox="0 0 10 10" refX="10" refY="5" markerWidth="6" markerHeight="6" orient="auto-start-reverse"><path d="M 0 0 L 10 5 L 0 10 z" fill="black" /></marker></defs>
<rect x="-173.6" y="-26.0" width="1484.6" height="812.0" fill="white" />
<rect x="380.0" y="80.0" width="40.0" height="40.0" stroke="black" stroke-width="1.5" fill="white" />
<rect x="385.0" y="85.0" width="30.0" height="30.0" stroke="black" stroke-width="1" fill="none" />
<text x="400" y="105.0" text-anchor="middle" font-family="'Times New Roman', 'BiauKai', 'DFKai-SB', '標楷體', 'KaiTi', serif" font-weight="bold" font-size="14">0</text>
<line x1="420.0" y1="100.0" x2="460.0" y2="100.0" stroke="black" />
<rect x="459.99999999999994" y="54.0" width="212.39999999999998" height="92.0" stroke="black" stroke-width="1.2" fill="white" />
<text x="566.1999999999999" y="80.0" text-anchor="middle" font-family="'Times New Roman', 'BiauKai', 'DFKai-SB', '標楷體', 'KaiTi', serif" font-size="11">Load approved mission</text>
<text x="566.1999999999999" y="104.0" text-anchor="middle" font-family="'Times New Roman', 'BiauKai', 'DFKai-SB', '標楷體', 'KaiTi', serif" font-size="11">與 derive expected</text>
<text x="566.1999999999999" y="127.99999999999999" text-anchor="middle" font-family="'Times New Roman', 'BiauKai', 'DFKai-SB', '標楷體', 'KaiTi', serif" font-size="11">quiz answer key</text>
<line x1="400" y1="120.0" x2="400" y2="200.0" stroke="black" />
<line x1="380" y1="160.0" x2="420" y2="160.0" stroke="black" stroke-width="2" />
<text x="424.0" y="164.0" font-style="italic" font-size="11" text-anchor="start" font-family="'Times New Roman', 'BiauKai', 'DFKai-SB', '標楷體', 'KaiTi', serif">建置項目requested</text>
<rect x="380.0" y="200.0" width="40.0" height="40.0" stroke="black" stroke-width="1.5" fill="white" />
<text x="400" y="225.0" text-anchor="middle" font-family="'Times New Roman', 'BiauKai', 'DFKai-SB', '標楷體', 'KaiTi', serif" font-weight="bold" font-size="14">1</text>
<line x1="420.0" y1="220.0" x2="460.0" y2="220.0" stroke="black" />
<rect x="459.99999999999994" y="174.0" width="212.39999999999998" height="92.0" stroke="black" stroke-width="1.2" fill="white" />
<text x="566.1999999999999" y="200.0" text-anchor="middle" font-family="'Times New Roman', 'BiauKai', 'DFKai-SB', '標楷體', 'KaiTi', serif" font-size="11">Ask structured 建置</text>
<text x="566.1999999999999" y="224.0" text-anchor="middle" font-family="'Times New Roman', 'BiauKai', 'DFKai-SB', '標楷體', 'KaiTi', serif" font-size="11">admission quiz 與</text>
<text x="566.1999999999999" y="248.00000000000003" text-anchor="middle" font-family="'Times New Roman', 'BiauKai', 'DFKai-SB', '標楷體', 'KaiTi', serif" font-size="11">evaluate first 回應</text>
<line x1="400" y1="240.0" x2="400" y2="280.0" stroke="black" />
<line x1="-12.399999999999949" y1="280.0" x2="812.4" y2="280.0" stroke="black" stroke-width="1.5" />
<line x1="27.60000000000005" y1="280.0" x2="27.60000000000005" y2="320.0" stroke="black" />
<line x1="7.600000000000051" y1="320.0" x2="47.60000000000005" y2="320.0" stroke="black" stroke-width="2" />
<text x="3.600000000000052" y="324.0" font-style="italic" font-size="11" text-anchor="end" font-family="'Times New Roman', 'BiauKai', 'DFKai-SB', '標楷體', 'KaiTi', serif">answers比對</text>
<line x1="27.60000000000005" y1="320.0" x2="27.60000000000005" y2="360.0" stroke="black" />
<line x1="772.4" y1="280.0" x2="772.4" y2="320.0" stroke="black" />
<line x1="752.4" y1="320.0" x2="792.4" y2="320.0" stroke="black" stroke-width="2" />
<text x="796.4" y="324.0" font-style="italic" font-size="11" text-anchor="start" font-family="'Times New Roman', 'BiauKai', 'DFKai-SB', '標楷體', 'KaiTi', serif">answersmismatch</text>
<line x1="772.4" y1="320.0" x2="772.4" y2="360.0" stroke="black" marker-end="url(#arrow)" />
<rect x="752.4" y="360.0" width="40.0" height="40.0" stroke="black" stroke-width="1.5" fill="white" />
<text x="772.4" y="385.0" text-anchor="middle" font-family="'Times New Roman', 'BiauKai', 'DFKai-SB', '標楷體', 'KaiTi', serif" font-weight="bold" font-size="14">3</text>
<line x1="792.4" y1="380.0" x2="832.4" y2="380.0" stroke="black" />
<rect x="832.4000000000001" y="334.0" width="212.39999999999998" height="92.0" stroke="black" stroke-width="1.2" fill="white" />
<text x="938.6" y="360.0" text-anchor="middle" font-family="'Times New Roman', 'BiauKai', 'DFKai-SB', '標楷體', 'KaiTi', serif" font-size="11">返回 mismatch</text>
<text x="938.6" y="384.0" text-anchor="middle" font-family="'Times New Roman', 'BiauKai', 'DFKai-SB', '標楷體', 'KaiTi', serif" font-size="11">evidence 與 allow</text>
<text x="938.6" y="408.0" text-anchor="middle" font-family="'Times New Roman', 'BiauKai', 'DFKai-SB', '標楷體', 'KaiTi', serif" font-size="11">單次 reflection 重試</text>
<line x1="772.4" y1="400.0" x2="772.4" y2="480.0" stroke="black" />
<line x1="752.4" y1="440.0" x2="792.4" y2="440.0" stroke="black" stroke-width="2" />
<text x="796.4" y="444.0" font-style="italic" font-size="11" text-anchor="start" font-family="'Times New Roman', 'BiauKai', 'DFKai-SB', '標楷體', 'KaiTi', serif">重試available</text>
<rect x="752.4" y="480.0" width="40.0" height="40.0" stroke="black" stroke-width="1.5" fill="white" />
<text x="772.4" y="505.0" text-anchor="middle" font-family="'Times New Roman', 'BiauKai', 'DFKai-SB', '標楷體', 'KaiTi', serif" font-weight="bold" font-size="14">4</text>
<line x1="792.4" y1="500.0" x2="832.4" y2="500.0" stroke="black" />
<rect x="832.4000000000001" y="454.0" width="212.39999999999998" height="92.0" stroke="black" stroke-width="1.2" fill="white" />
<text x="938.6" y="480.0" text-anchor="middle" font-family="'Times New Roman', 'BiauKai', 'DFKai-SB', '標楷體', 'KaiTi', serif" font-size="11">Evaluate</text>
<text x="938.6" y="504.0" text-anchor="middle" font-family="'Times New Roman', 'BiauKai', 'DFKai-SB', '標楷體', 'KaiTi', serif" font-size="11">reflected</text>
<text x="938.6" y="528.0" text-anchor="middle" font-family="'Times New Roman', 'BiauKai', 'DFKai-SB', '標楷體', 'KaiTi', serif" font-size="11">重試 answer</text>
<line x1="772.4" y1="520.0" x2="772.4" y2="560.0" stroke="black" />
<line x1="546.1999999999999" y1="560.0" x2="998.5999999999999" y2="560.0" stroke="black" stroke-width="1.5" />
<line x1="586.1999999999999" y1="560.0" x2="586.1999999999999" y2="600.0" stroke="black" />
<line x1="566.1999999999999" y1="600.0" x2="606.1999999999999" y2="600.0" stroke="black" stroke-width="2" />
<text x="562.2" y="604.0" font-style="italic" font-size="11" text-anchor="end" font-family="'Times New Roman', 'BiauKai', 'DFKai-SB', '標楷體', 'KaiTi', serif">重試answers比對</text>
<line x1="586.1999999999999" y1="600.0" x2="586.1999999999999" y2="640.0" stroke="black" marker-end="url(#arrow)" />
<line x1="958.5999999999999" y1="560.0" x2="958.5999999999999" y2="600.0" stroke="black" />
<line x1="938.5999999999999" y1="600.0" x2="978.5999999999999" y2="600.0" stroke="black" stroke-width="2" />
<text x="982.5999999999999" y="604.0" font-style="italic" font-size="11" text-anchor="start" font-family="'Times New Roman', 'BiauKai', 'DFKai-SB', '標楷體', 'KaiTi', serif">重試answersstillmismatch</text>
<line x1="958.5999999999999" y1="600.0" x2="958.5999999999999" y2="640.0" stroke="black" marker-end="url(#arrow)" />
<rect x="566.1999999999999" y="640.0" width="40.0" height="40.0" stroke="black" stroke-width="1.5" fill="white" />
<text x="586.1999999999999" y="665.0" text-anchor="middle" font-family="'Times New Roman', 'BiauKai', 'DFKai-SB', '標楷體', 'KaiTi', serif" font-weight="bold" font-size="14">2</text>
<line x1="606.1999999999999" y1="660.0" x2="646.2" y2="660.0" stroke="black" />
<rect x="646.2" y="614.0" width="212.39999999999998" height="92.0" stroke="black" stroke-width="1.2" fill="white" />
<text x="752.4000000000001" y="640.0" text-anchor="middle" font-family="'Times New Roman', 'BiauKai', 'DFKai-SB', '標楷體', 'KaiTi', serif" font-size="11">Admit 建置 與 繼續</text>
<text x="752.4000000000001" y="664.0" text-anchor="middle" font-family="'Times New Roman', 'BiauKai', 'DFKai-SB', '標楷體', 'KaiTi', serif" font-size="11">使用 minimal 建置</text>
<text x="752.4000000000001" y="688.0" text-anchor="middle" font-family="'Times New Roman', 'BiauKai', 'DFKai-SB', '標楷體', 'KaiTi', serif" font-size="11">-mode narration</text>
<rect x="938.5999999999999" y="640.0" width="40.0" height="40.0" stroke="black" stroke-width="1.5" fill="white" />
<text x="958.5999999999999" y="665.0" text-anchor="middle" font-family="'Times New Roman', 'BiauKai', 'DFKai-SB', '標楷體', 'KaiTi', serif" font-weight="bold" font-size="14">5</text>
<line x1="978.5999999999999" y1="660.0" x2="1018.5999999999999" y2="660.0" stroke="black" />
<rect x="1018.5999999999999" y="614.0" width="212.39999999999998" height="92.0" stroke="black" stroke-width="1.2" fill="white" />
<text x="1124.8" y="640.0" text-anchor="middle" font-family="'Times New Roman', 'BiauKai', 'DFKai-SB', '標楷體', 'KaiTi', serif" font-size="11">Stop 建置</text>
<text x="1124.8" y="664.0" text-anchor="middle" font-family="'Times New Roman', 'BiauKai', 'DFKai-SB', '標楷體', 'KaiTi', serif" font-size="11">admission</text>
<text x="1124.8" y="688.0" text-anchor="middle" font-family="'Times New Roman', 'BiauKai', 'DFKai-SB', '標楷體', 'KaiTi', serif" font-size="11">與 ask 使用者</text>
<line x1="-12.399999999999949" y1="680.0" x2="812.4" y2="680.0" stroke="black" stroke-width="1.5" />
<line x1="27.60000000000005" y1="360.0" x2="27.60000000000005" y2="680.0" stroke="black" />
<line x1="772.4" y1="680.0" x2="772.4" y2="680.0" stroke="black" />
<line x1="400" y1="680.0" x2="400" y2="720.0" stroke="black" marker-end="url(#arrow)" />
</svg>