<svg width="4990" height="1906" viewBox="-3935.2 -26.0 4990.0 1906.0" xmlns="http://www.w3.org/2000/svg">
<defs><marker id="arrow" viewBox="0 0 10 10" refX="10" refY="5" markerWidth="6" markerHeight="6" orient="auto-start-reverse"><path d="M 0 0 L 10 5 L 0 10 z" fill="black" /></marker></defs>
<rect x="-3935.2" y="-26.0" width="4990.0" height="1906.0" fill="white" />
<rect x="380.0" y="80.0" width="40.0" height="40.0" stroke="black" stroke-width="1.5" fill="white" />
<rect x="385.0" y="85.0" width="30.0" height="30.0" stroke="black" stroke-width="1" fill="none" />
<text x="400" y="105.0" text-anchor="middle" font-family="'Times New Roman', 'BiauKai', 'DFKai-SB', '標楷體', 'KaiTi', serif" font-weight="bold" font-size="14">0</text>
<line x1="420.0" y1="100.0" x2="460.0" y2="100.0" stroke="black" />
<rect x="460.0" y="54.0" width="514.8" height="92.0" stroke="black" stroke-width="1.2" fill="white" />
<text x="717.4" y="80.0" text-anchor="middle" font-family="'Times New Roman', 'BiauKai', 'DFKai-SB', '標楷體', 'KaiTi', serif" font-size="11">Evaluate transport availability: check</text>
<text x="717.4" y="104.0" text-anchor="middle" font-family="'Times New Roman', 'BiauKai', 'DFKai-SB', '標楷體', 'KaiTi', serif" font-size="11">Provider.supportswebsockets AND NOT</text>
<text x="717.4" y="127.99999999999999" text-anchor="middle" font-family="'Times New Roman', 'BiauKai', 'DFKai-SB', '標楷體', 'KaiTi', serif" font-size="11">disablewebsockets AND NOT SSE FIXTURE</text>
<line x1="400" y1="120.0" x2="400" y2="200.0" stroke="black" />
<line x1="380" y1="160.0" x2="420" y2="160.0" stroke="black" stroke-width="2" />
<text x="424.0" y="164.0" font-style="italic" font-size="11" text-anchor="start" font-family="'Times New Roman', 'BiauKai', 'DFKai-SB', '標楷體', 'KaiTi', serif">Session.stream() called</text>
<rect x="380.0" y="200.0" width="40.0" height="40.0" stroke="black" stroke-width="1.5" fill="white" />
<text x="400" y="225.0" text-anchor="middle" font-family="'Times New Roman', 'BiauKai', 'DFKai-SB', '標楷體', 'KaiTi', serif" font-weight="bold" font-size="14">1</text>
<line x1="420.0" y1="220.0" x2="460.0" y2="220.0" stroke="black" />
<rect x="460.0" y="174.0" width="514.8" height="92.0" stroke="black" stroke-width="1.2" fill="white" />
<text x="717.4" y="212.0" text-anchor="middle" font-family="'Times New Roman', 'BiauKai', 'DFKai-SB', '標楷體', 'KaiTi', serif" font-size="11">Select WS transport 路徑: 呼叫 串流</text>
<text x="717.4" y="236.0" text-anchor="middle" font-family="'Times New Roman', 'BiauKai', 'DFKai-SB', '標楷體', 'KaiTi', serif" font-size="11">responseswebsocket(warmup=false)</text>
<line x1="400" y1="240.0" x2="400" y2="280.0" stroke="black" />
<line x1="-2339.2" y1="280.0" x2="3139.2" y2="280.0" stroke="black" stroke-width="1.5" />
<line x1="-2299.2" y1="280.0" x2="-2299.2" y2="320.0" stroke="black" />
<line x1="-2319.2" y1="320.0" x2="-2279.2" y2="320.0" stroke="black" stroke-width="2" />
<text x="-2323.2" y="324.0" font-style="italic" font-size="11" text-anchor="end" font-family="'Times New Roman', 'BiauKai', 'DFKai-SB', '標楷體', 'KaiTi', serif">ws已啟用 == true</text>
<line x1="-2299.2" y1="320.0" x2="-2299.2" y2="360.0" stroke="black" marker-end="url(#arrow)" />
<line x1="3099.2" y1="280.0" x2="3099.2" y2="320.0" stroke="black" />
<line x1="3079.2" y1="320.0" x2="3119.2" y2="320.0" stroke="black" stroke-width="2" />
<line x1="3099.2" y1="320.0" x2="3099.2" y2="360.0" stroke="black" />
<rect x="-2319.2" y="360.0" width="40.0" height="40.0" stroke="black" stroke-width="1.5" fill="white" />
<text x="-2299.2" y="385.0" text-anchor="middle" font-family="'Times New Roman', 'BiauKai', 'DFKai-SB', '標楷體', 'KaiTi', serif" font-weight="bold" font-size="14">2</text>
<line x1="-2279.2" y1="380.0" x2="-2239.2" y2="380.0" stroke="black" />
<rect x="-2239.1999999999994" y="334.0" width="514.8" height="92.0" stroke="black" stroke-width="1.2" fill="white" />
<text x="-1981.7999999999995" y="360.0" text-anchor="middle" font-family="'Times New Roman', 'BiauKai', 'DFKai-SB', '標楷體', 'KaiTi', serif" font-size="11">Check cached WS connection:</text>
<text x="-1981.7999999999995" y="384.0" text-anchor="middle" font-family="'Times New Roman', 'BiauKai', 'DFKai-SB', '標楷體', 'KaiTi', serif" font-size="11">inspect websocketSession.</text>
<text x="-1981.7999999999995" y="408.0" text-anchor="middle" font-family="'Times New Roman', 'BiauKai', 'DFKai-SB', '標楷體', 'KaiTi', serif" font-size="11">connection 供 existing open connection</text>
<line x1="-2299.2" y1="400.0" x2="-2299.2" y2="440.0" stroke="black" />
<line x1="-3688.7999999999993" y1="440.0" x2="-909.5999999999998" y2="440.0" stroke="black" stroke-width="1.5" />
<line x1="-3648.7999999999993" y1="440.0" x2="-3648.7999999999993" y2="480.0" stroke="black" />
<line x1="-3668.7999999999993" y1="480.0" x2="-3628.7999999999993" y2="480.0" stroke="black" stroke-width="2" />
<text x="-3672.7999999999993" y="484.0" font-style="italic" font-size="11" text-anchor="end" font-family="'Times New Roman', 'BiauKai', 'DFKai-SB', '標楷體', 'KaiTi', serif">wstransportselected</text>
<line x1="-3648.7999999999993" y1="480.0" x2="-3648.7999999999993" y2="520.0" stroke="black" />
<line x1="-949.5999999999998" y1="440.0" x2="-949.5999999999998" y2="480.0" stroke="black" />
<line x1="-969.5999999999998" y1="480.0" x2="-929.5999999999998" y2="480.0" stroke="black" stroke-width="2" />
<line x1="-949.5999999999998" y1="480.0" x2="-949.5999999999998" y2="520.0" stroke="black" marker-end="url(#arrow)" />
<rect x="-969.5999999999998" y="520.0" width="40.0" height="40.0" stroke="black" stroke-width="1.5" fill="white" />
<text x="-949.5999999999998" y="545.0" text-anchor="middle" font-family="'Times New Roman', 'BiauKai', 'DFKai-SB', '標楷體', 'KaiTi', serif" font-weight="bold" font-size="14">4</text>
<line x1="-929.5999999999998" y1="540.0" x2="-889.5999999999998" y2="540.0" stroke="black" />
<rect x="-889.5999999999998" y="494.0" width="514.8" height="92.0" stroke="black" stroke-width="1.2" fill="white" />
<text x="-632.1999999999998" y="520.0" text-anchor="middle" font-family="'Times New Roman', 'BiauKai', 'DFKai-SB', '標楷體', 'KaiTi', serif" font-size="11">Verify 帳號 比對: compare current</text>
<text x="-632.1999999999998" y="544.0" text-anchor="middle" font-family="'Times New Roman', 'BiauKai', 'DFKai-SB', '標楷體', 'KaiTi', serif" font-size="11">帳號id 使用 connection.帳號id. If</text>
<text x="-632.1999999999998" y="568.0" text-anchor="middle" font-family="'Times New Roman', 'BiauKai', 'DFKai-SB', '標楷體', 'KaiTi', serif" font-size="11">mismatch: close 與 reconnect</text>
<line x1="-949.5999999999998" y1="560.0" x2="-949.5999999999998" y2="600.0" stroke="black" />
<line x1="-1664.3999999999996" y1="600.0" x2="-234.7999999999999" y2="600.0" stroke="black" stroke-width="1.5" />
<line x1="-1624.3999999999996" y1="600.0" x2="-1624.3999999999996" y2="640.0" stroke="black" />
<line x1="-1644.3999999999996" y1="640.0" x2="-1604.3999999999996" y2="640.0" stroke="black" stroke-width="2" />
<text x="-1648.3999999999996" y="634.0" font-style="italic" font-size="11" text-anchor="end" font-family="'Times New Roman', 'BiauKai', 'DFKai-SB', '標楷體', 'KaiTi', serif">existingconnectionopen</text>
<text x="-1648.3999999999996" y="654.0" font-style="italic" font-size="11" text-anchor="end" font-family="'Times New Roman', 'BiauKai', 'DFKai-SB', '標楷體', 'KaiTi', serif">AND needs帳號check</text>
<line x1="-1624.3999999999996" y1="640.0" x2="-1624.3999999999996" y2="680.0" stroke="black" marker-end="url(#arrow)" />
<line x1="-274.7999999999999" y1="600.0" x2="-274.7999999999999" y2="640.0" stroke="black" />
<line x1="-294.7999999999999" y1="640.0" x2="-254.7999999999999" y2="640.0" stroke="black" stroke-width="2" />
<line x1="-274.7999999999999" y1="640.0" x2="-274.7999999999999" y2="680.0" stroke="black" />
<rect x="-1644.3999999999996" y="680.0" width="40.0" height="40.0" stroke="black" stroke-width="1.5" fill="white" />
<text x="-1624.3999999999996" y="705.0" text-anchor="middle" font-family="'Times New Roman', 'BiauKai', 'DFKai-SB', '標楷體', 'KaiTi', serif" font-weight="bold" font-size="14">3</text>
<line x1="-1604.3999999999996" y1="700.0" x2="-1564.3999999999996" y2="700.0" stroke="black" />
<rect x="-1564.3999999999996" y="654.0" width="514.8" height="92.0" stroke="black" stroke-width="1.2" fill="white" />
<text x="-1306.9999999999995" y="680.0" text-anchor="middle" font-family="'Times New Roman', 'BiauKai', 'DFKai-SB', '標楷體', 'KaiTi', serif" font-size="11">Establish new WS connection: 建置 URL (21)</text>
<text x="-1306.9999999999995" y="704.0" text-anchor="middle" font-family="'Times New Roman', 'BiauKai', 'DFKai-SB', '標楷體', 'KaiTi', serif" font-size="11">, 建置 headers (22), TLS handshake 使用</text>
<text x="-1306.9999999999995" y="727.9999999999999" text-anchor="middle" font-family="'Times New Roman', 'BiauKai', 'DFKai-SB', '標楷體', 'KaiTi', serif" font-size="11">permessage-deflate, capture 回應 headers (24)</text>
<line x1="-1624.3999999999996" y1="720.0" x2="-1624.3999999999996" y2="760.0" stroke="black" />
<line x1="-2001.7999999999995" y1="760.0" x2="-1246.9999999999995" y2="760.0" stroke="black" stroke-width="1.5" />
<line x1="-1961.7999999999995" y1="760.0" x2="-1961.7999999999995" y2="800.0" stroke="black" />
<line x1="-1981.7999999999995" y1="800.0" x2="-1941.7999999999995" y2="800.0" stroke="black" stroke-width="2" />
<text x="-1985.7999999999995" y="784.0" font-style="italic" font-size="11" text-anchor="end" font-family="'Times New Roman', 'BiauKai', 'DFKai-SB', '標楷體', 'KaiTi', serif">needsnewconnection</text>
<text x="-1985.7999999999995" y="804.0" font-style="italic" font-size="11" text-anchor="end" font-family="'Times New Roman', 'BiauKai', 'DFKai-SB', '標楷體', 'KaiTi', serif">== true OR connection.</text>
<text x="-1985.7999999999995" y="824.0" font-style="italic" font-size="11" text-anchor="end" font-family="'Times New Roman', 'BiauKai', 'DFKai-SB', '標楷體', 'KaiTi', serif">is closed()</text>
<line x1="-1961.7999999999995" y1="800.0" x2="-1961.7999999999995" y2="840.0" stroke="black" />
<line x1="-1286.9999999999995" y1="760.0" x2="-1286.9999999999995" y2="800.0" stroke="black" />
<line x1="-1306.9999999999995" y1="800.0" x2="-1266.9999999999995" y2="800.0" stroke="black" stroke-width="2" />
<line x1="-1286.9999999999995" y1="800.0" x2="-1286.9999999999995" y2="840.0" stroke="black" marker-end="url(#arrow)" />
<rect x="-1306.9999999999995" y="840.0" width="40.0" height="40.0" stroke="black" stroke-width="1.5" fill="white" />
<text x="-1286.9999999999995" y="865.0" text-anchor="middle" font-family="'Times New Roman', 'BiauKai', 'DFKai-SB', '標楷體', 'KaiTi', serif" font-weight="bold" font-size="14">14</text>
<line x1="-1266.9999999999995" y1="860.0" x2="-1226.9999999999995" y2="860.0" stroke="black" />
<rect x="-1226.9999999999995" y="814.0" width="514.8" height="92.0" stroke="black" stroke-width="1.2" fill="white" />
<text x="-969.5999999999997" y="840.0" text-anchor="middle" font-family="'Times New Roman', 'BiauKai', 'DFKai-SB', '標楷體', 'KaiTi', serif" font-size="11">Handle connect failure: check 重試 budget.</text>
<text x="-969.5999999999997" y="864.0" text-anchor="middle" font-family="'Times New Roman', 'BiauKai', 'DFKai-SB', '標楷體', 'KaiTi', serif" font-size="11">If retries remaining: 重試 connect (步驟 3).</text>
<text x="-969.5999999999997" y="887.9999999999999" text-anchor="middle" font-family="'Times New Roman', 'BiauKai', 'DFKai-SB', '標楷體', 'KaiTi', serif" font-size="11">If exhausted: activate HTTP fallback (步驟 10)</text>
<line x1="-1286.9999999999995" y1="880.0" x2="-1286.9999999999995" y2="920.0" stroke="black" />
<line x1="-1406.9999999999995" y1="920.0" x2="-1166.9999999999995" y2="920.0" stroke="black" stroke-width="1.5" />
<line x1="-1366.9999999999995" y1="920.0" x2="-1366.9999999999995" y2="960.0" stroke="black" />
<line x1="-1386.9999999999995" y1="960.0" x2="-1346.9999999999995" y2="960.0" stroke="black" stroke-width="2" />
<text x="-1390.9999999999995" y="964.0" font-style="italic" font-size="11" text-anchor="end" font-family="'Times New Roman', 'BiauKai', 'DFKai-SB', '標楷體', 'KaiTi', serif">connectfailed</text>
<line x1="-1366.9999999999995" y1="960.0" x2="-1366.9999999999995" y2="1000.0" stroke="black" />
<line x1="-1206.9999999999995" y1="920.0" x2="-1206.9999999999995" y2="960.0" stroke="black" />
<line x1="-1226.9999999999995" y1="960.0" x2="-1186.9999999999995" y2="960.0" stroke="black" stroke-width="2" />
<line x1="-1206.9999999999995" y1="960.0" x2="-1206.9999999999995" y2="1000.0" stroke="black" />
<line x1="-1406.9999999999995" y1="1000.0" x2="-1166.9999999999995" y2="1000.0" stroke="black" stroke-width="1.5" />
<line x1="-1366.9999999999995" y1="1000.0" x2="-1366.9999999999995" y2="1000.0" stroke="black" />
<line x1="-1206.9999999999995" y1="1000.0" x2="-1206.9999999999995" y2="1000.0" stroke="black" />
<line x1="-1286.9999999999995" y1="1000.0" x2="-1286.9999999999995" y2="1040.0" stroke="black" marker-end="url(#arrow)" />
<rect x="-1306.9999999999995" y="1040.0" width="40.0" height="40.0" stroke="black" stroke-width="1.5" fill="white" />
<text x="-1286.9999999999995" y="1065.0" text-anchor="middle" font-family="'Times New Roman', 'BiauKai', 'DFKai-SB', '標楷體', 'KaiTi', serif" font-weight="bold" font-size="14">10</text>
<line x1="-1266.9999999999995" y1="1060.0" x2="-1226.9999999999995" y2="1060.0" stroke="black" />
<rect x="-1226.9999999999995" y="1014.0" width="514.8" height="92.0" stroke="black" stroke-width="1.2" fill="white" />
<text x="-969.5999999999997" y="1040.0" text-anchor="middle" font-family="'Times New Roman', 'BiauKai', 'DFKai-SB', '標楷體', 'KaiTi', serif" font-size="11">Select HTTP fallback 路徑: 呼</text>
<text x="-969.5999999999997" y="1064.0" text-anchor="middle" font-family="'Times New Roman', 'BiauKai', 'DFKai-SB', '標楷體', 'KaiTi', serif" font-size="11">叫 stream responses api(). WS</text>
<text x="-969.5999999999997" y="1088.0" text-anchor="middle" font-family="'Times New Roman', 'BiauKai', 'DFKai-SB', '標楷體', 'KaiTi', serif" font-size="11">was disabled 或 unavailable</text>
<line x1="-2001.7999999999995" y1="1080.0" x2="-1246.9999999999995" y2="1080.0" stroke="black" stroke-width="1.5" />
<line x1="-1961.7999999999995" y1="840.0" x2="-1961.7999999999995" y2="1080.0" stroke="black" />
<line x1="-1286.9999999999995" y1="1080.0" x2="-1286.9999999999995" y2="1080.0" stroke="black" />
<line x1="-1624.3999999999996" y1="1080.0" x2="-1624.3999999999996" y2="1120.0" stroke="black" marker-end="url(#arrow)" />
<line x1="-1664.3999999999996" y1="1120.0" x2="-234.7999999999999" y2="1120.0" stroke="black" stroke-width="1.5" />
<line x1="-1624.3999999999996" y1="1120.0" x2="-1624.3999999999996" y2="1120.0" stroke="black" />
<line x1="-274.7999999999999" y1="680.0" x2="-274.7999999999999" y2="1120.0" stroke="black" />
<line x1="-949.5999999999998" y1="1120.0" x2="-949.5999999999998" y2="1160.0" stroke="black" marker-end="url(#arrow)" />
<rect x="-969.5999999999998" y="1160.0" width="40.0" height="40.0" stroke="black" stroke-width="1.5" fill="white" />
<text x="-949.5999999999998" y="1185.0" text-anchor="middle" font-family="'Times New Roman', 'BiauKai', 'DFKai-SB', '標楷體', 'KaiTi', serif" font-weight="bold" font-size="14">5</text>
<line x1="-929.5999999999998" y1="1180.0" x2="-889.5999999999998" y2="1180.0" stroke="black" />
<rect x="-889.5999999999998" y="1134.0" width="514.8" height="92.0" stroke="black" stroke-width="1.2" fill="white" />
<text x="-632.1999999999998" y="1160.0" text-anchor="middle" font-family="'Times New Roman', 'BiauKai', 'DFKai-SB', '標楷體', 'KaiTi', serif" font-size="11">Prepare 請求: detect incremental 前綴 比對</text>
<text x="-632.1999999999998" y="1184.0" text-anchor="middle" font-family="'Times New Roman', 'BiauKai', 'DFKai-SB', '標楷體', 'KaiTi', serif" font-size="11">透過 get incremental items(). If 比對: set</text>
<text x="-632.1999999999998" y="1208.0" text-anchor="middle" font-family="'Times New Roman', 'BiauKai', 'DFKai-SB', '標楷體', 'KaiTi', serif" font-size="11">previous回應id + delta 輸入. Else: full 請求</text>
<line x1="-949.5999999999998" y1="1200.0" x2="-949.5999999999998" y2="1280.0" stroke="black" />
<line x1="-969.5999999999998" y1="1240.0" x2="-929.5999999999998" y2="1240.0" stroke="black" stroke-width="2" />
<text x="-925.5999999999997" y="1244.0" font-style="italic" font-size="11" text-anchor="start" font-family="'Times New Roman', 'BiauKai', 'DFKai-SB', '標楷體', 'KaiTi', serif">connection就緒</text>
<rect x="-969.5999999999998" y="1280.0" width="40.0" height="40.0" stroke="black" stroke-width="1.5" fill="white" />
<text x="-949.5999999999998" y="1305.0" text-anchor="middle" font-family="'Times New Roman', 'BiauKai', 'DFKai-SB', '標楷體', 'KaiTi', serif" font-weight="bold" font-size="14">6</text>
<line x1="-929.5999999999998" y1="1300.0" x2="-889.5999999999998" y2="1300.0" stroke="black" />
<rect x="-889.5999999999998" y="1254.0" width="514.8" height="92.0" stroke="black" stroke-width="1.2" fill="white" />
<text x="-632.1999999999998" y="1280.0" text-anchor="middle" font-family="'Times New Roman', 'BiauKai', 'DFKai-SB', '標楷體', 'KaiTi', serif" font-size="11">Send 請求 frame: serialize</text>
<text x="-632.1999999999998" y="1304.0" text-anchor="middle" font-family="'Times New Roman', 'BiauKai', 'DFKai-SB', '標楷體', 'KaiTi', serif" font-size="11">responsesws請求 到 JSON, send</text>
<text x="-632.1999999999998" y="1328.0" text-anchor="middle" font-family="'Times New Roman', 'BiauKai', 'DFKai-SB', '標楷體', 'KaiTi', serif" font-size="11">作為 文字 frame 透過 ws串流.send()</text>
<line x1="-949.5999999999998" y1="1320.0" x2="-949.5999999999998" y2="1400.0" stroke="black" />
<line x1="-969.5999999999998" y1="1360.0" x2="-929.5999999999998" y2="1360.0" stroke="black" stroke-width="2" />
<text x="-925.5999999999997" y="1364.0" font-style="italic" font-size="11" text-anchor="start" font-family="'Times New Roman', 'BiauKai', 'DFKai-SB', '標楷體', 'KaiTi', serif">請求prepared</text>
<rect x="-969.5999999999998" y="1400.0" width="40.0" height="40.0" stroke="black" stroke-width="1.5" fill="white" />
<text x="-949.5999999999998" y="1425.0" text-anchor="middle" font-family="'Times New Roman', 'BiauKai', 'DFKai-SB', '標楷體', 'KaiTi', serif" font-weight="bold" font-size="14">7</text>
<line x1="-929.5999999999998" y1="1420.0" x2="-889.5999999999998" y2="1420.0" stroke="black" />
<rect x="-889.5999999999998" y="1374.0" width="514.8" height="92.0" stroke="black" stroke-width="1.2" fill="white" />
<line x1="-877.5999999999998" y1="1374.0" x2="-877.5999999999998" y2="1466.0" stroke="black" />
<line x1="-386.79999999999995" y1="1374.0" x2="-386.79999999999995" y2="1466.0" stroke="black" />
<text x="-632.1999999999998" y="1400.0" text-anchor="middle" font-family="'Times New Roman', 'BiauKai', 'DFKai-SB', '標楷體', 'KaiTi', serif" font-size="11">串流 回應 loop: receive frames 使用 閒置 timeout. 解</text>
<text x="-632.1999999999998" y="1424.0" text-anchor="middle" font-family="'Times New Roman', 'BiauKai', 'DFKai-SB', '標楷體', 'KaiTi', serif" font-size="11">析 each: check wrapped錯誤事件 first, then responses串</text>
<text x="-632.1999999999998" y="1448.0" text-anchor="middle" font-family="'Times New Roman', 'BiauKai', 'DFKai-SB', '標楷體', 'KaiTi', serif" font-size="11">流事件. Handle ratelimits, track 模型, 發出 事件</text>
<line x1="-949.5999999999998" y1="1440.0" x2="-949.5999999999998" y2="1480.0" stroke="black" />
<line x1="-2001.7999999999995" y1="1480.0" x2="102.6000000000002" y2="1480.0" stroke="black" stroke-width="1.5" />
<line x1="-1961.7999999999995" y1="1480.0" x2="-1961.7999999999995" y2="1520.0" stroke="black" />
<line x1="-1981.7999999999995" y1="1520.0" x2="-1941.7999999999995" y2="1520.0" stroke="black" stroke-width="2" />
<text x="-1985.7999999999995" y="1524.0" font-style="italic" font-size="11" text-anchor="end" font-family="'Times New Roman', 'BiauKai', 'DFKai-SB', '標楷體', 'KaiTi', serif">請求sent</text>
<line x1="-1961.7999999999995" y1="1520.0" x2="-1961.7999999999995" y2="1560.0" stroke="black" marker-end="url(#arrow)" />
<line x1="-1286.9999999999995" y1="1480.0" x2="-1286.9999999999995" y2="1520.0" stroke="black" />
<line x1="-1306.9999999999995" y1="1520.0" x2="-1266.9999999999995" y2="1520.0" stroke="black" stroke-width="2" />
<line x1="-1286.9999999999995" y1="1520.0" x2="-1286.9999999999995" y2="1560.0" stroke="black" marker-end="url(#arrow)" />
<line x1="-612.1999999999997" y1="1480.0" x2="-612.1999999999997" y2="1520.0" stroke="black" />
<line x1="-632.1999999999997" y1="1520.0" x2="-592.1999999999997" y2="1520.0" stroke="black" stroke-width="2" />
<line x1="-612.1999999999997" y1="1520.0" x2="-612.1999999999997" y2="1560.0" stroke="black" marker-end="url(#arrow)" />
<line x1="62.60000000000019" y1="1480.0" x2="62.60000000000019" y2="1520.0" stroke="black" />
<line x1="42.60000000000019" y1="1520.0" x2="82.6000000000002" y2="1520.0" stroke="black" stroke-width="2" />
<line x1="62.60000000000019" y1="1520.0" x2="62.60000000000019" y2="1560.0" stroke="black" marker-end="url(#arrow)" />
<rect x="-1981.7999999999995" y="1560.0" width="40.0" height="40.0" stroke="black" stroke-width="1.5" fill="white" />
<text x="-1961.7999999999995" y="1585.0" text-anchor="middle" font-family="'Times New Roman', 'BiauKai', 'DFKai-SB', '標楷體', 'KaiTi', serif" font-weight="bold" font-size="14">8</text>
<line x1="-1941.7999999999995" y1="1580.0" x2="-1901.7999999999995" y2="1580.0" stroke="black" />
<rect x="-1901.7999999999993" y="1534.0" width="514.8" height="92.0" stroke="black" stroke-width="1.2" fill="white" />
<text x="-1644.3999999999994" y="1560.0" text-anchor="middle" font-family="'Times New Roman', 'BiauKai', 'DFKai-SB', '標楷體', 'KaiTi', serif" font-size="11">Capture last 回應: accumulate 輸出</text>
<text x="-1644.3999999999994" y="1584.0" text-anchor="middle" font-family="'Times New Roman', 'BiauKai', 'DFKai-SB', '標楷體', 'KaiTi', serif" font-size="11">itemdone items, 取出 回應id 來自 已完成</text>
<text x="-1644.3999999999994" y="1608.0" text-anchor="middle" font-family="'Times New Roman', 'BiauKai', 'DFKai-SB', '標楷體', 'KaiTi', serif" font-size="11">, send last回應 透過 oneshot 供 下一個 回合</text>
<line x1="-1961.7999999999995" y1="1600.0" x2="-1961.7999999999995" y2="1680.0" stroke="black" />
<line x1="-1981.7999999999995" y1="1640.0" x2="-1941.7999999999995" y2="1640.0" stroke="black" stroke-width="2" />
<text x="-1937.7999999999995" y="1644.0" font-style="italic" font-size="11" text-anchor="start" font-family="'Times New Roman', 'BiauKai', 'DFKai-SB', '標楷體', 'KaiTi', serif">串流已完成normally</text>
<rect x="-1981.7999999999995" y="1680.0" width="40.0" height="40.0" stroke="black" stroke-width="1.5" fill="white" />
<text x="-1961.7999999999995" y="1705.0" text-anchor="middle" font-family="'Times New Roman', 'BiauKai', 'DFKai-SB', '標楷體', 'KaiTi', serif" font-weight="bold" font-size="14">9</text>
<line x1="-1941.7999999999995" y1="1700.0" x2="-1901.7999999999995" y2="1700.0" stroke="black" />
<rect x="-1901.7999999999993" y="1654.0" width="514.8" height="92.0" stroke="black" stroke-width="1.2" fill="white" />
<text x="-1644.3999999999994" y="1680.0" text-anchor="middle" font-family="'Times New Roman', 'BiauKai', 'DFKai-SB', '標楷體', 'KaiTi', serif" font-size="11">返回 合成 SSE 回應 到 AI</text>
<text x="-1644.3999999999994" y="1704.0" text-anchor="middle" font-family="'Times New Roman', 'BiauKai', 'DFKai-SB', '標楷體', 'KaiTi', serif" font-size="11">SDK. Connection remains</text>
<text x="-1644.3999999999994" y="1728.0" text-anchor="middle" font-family="'Times New Roman', 'BiauKai', 'DFKai-SB', '標楷體', 'KaiTi', serif" font-size="11">open 供 下一個 回合 reuse</text>
<rect x="-1306.9999999999995" y="1560.0" width="40.0" height="40.0" stroke="black" stroke-width="1.5" fill="white" />
<text x="-1286.9999999999995" y="1585.0" text-anchor="middle" font-family="'Times New Roman', 'BiauKai', 'DFKai-SB', '標楷體', 'KaiTi', serif" font-weight="bold" font-size="14">11</text>
<line x1="-1266.9999999999995" y1="1580.0" x2="-1226.9999999999995" y2="1580.0" stroke="black" />
<rect x="-1226.9999999999995" y="1534.0" width="514.8" height="92.0" stroke="black" stroke-width="1.2" fill="white" />
<text x="-969.5999999999997" y="1560.0" text-anchor="middle" font-family="'Times New Roman', 'BiauKai', 'DFKai-SB', '標楷體', 'KaiTi', serif" font-size="11">Handle 426 Upgrade Required: set</text>
<text x="-969.5999999999997" y="1584.0" text-anchor="middle" font-family="'Times New Roman', 'BiauKai', 'DFKai-SB', '標楷體', 'KaiTi', serif" font-size="11">disablewebsockets=true, reset</text>
<text x="-969.5999999999997" y="1608.0" text-anchor="middle" font-family="'Times New Roman', 'BiauKai', 'DFKai-SB', '標楷體', 'KaiTi', serif" font-size="11">websocketSession, fall through 到 HTTP</text>
<line x1="-1286.9999999999995" y1="1600.0" x2="-1286.9999999999995" y2="1680.0" stroke="black" />
<line x1="-1306.9999999999995" y1="1640.0" x2="-1266.9999999999995" y2="1640.0" stroke="black" stroke-width="2" />
<text x="-1262.9999999999995" y="1644.0" font-style="italic" font-size="11" text-anchor="start" font-family="'Times New Roman', 'BiauKai', 'DFKai-SB', '標楷體', 'KaiTi', serif">錯誤type == 426upgraderequired</text>
<rect x="-632.1999999999997" y="1560.0" width="40.0" height="40.0" stroke="black" stroke-width="1.5" fill="white" />
<text x="-612.1999999999997" y="1585.0" text-anchor="middle" font-family="'Times New Roman', 'BiauKai', 'DFKai-SB', '標楷體', 'KaiTi', serif" font-weight="bold" font-size="14">12</text>
<line x1="-592.1999999999997" y1="1580.0" x2="-552.1999999999997" y2="1580.0" stroke="black" />
<rect x="-552.1999999999997" y="1534.0" width="514.8" height="92.0" stroke="black" stroke-width="1.2" fill="white" />
<text x="-294.7999999999997" y="1560.0" text-anchor="middle" font-family="'Times New Roman', 'BiauKai', 'DFKai-SB', '標楷體', 'KaiTi', serif" font-size="11">Handle 401 Unauthorized: attempt 驗證 recovery</text>
<text x="-294.7999999999997" y="1584.0" text-anchor="middle" font-family="'Times New Roman', 'BiauKai', 'DFKai-SB', '標楷體', 'KaiTi', serif" font-size="11">透過 UnauthorizedRecovery 狀態 machine. If success:</text>
<text x="-294.7999999999997" y="1608.0" text-anchor="middle" font-family="'Times New Roman', 'BiauKai', 'DFKai-SB', '標楷體', 'KaiTi', serif" font-size="11">重試 來自 步驟 3. If exhausted: propagate 錯誤</text>
<line x1="-612.1999999999997" y1="1600.0" x2="-612.1999999999997" y2="1680.0" stroke="black" />
<line x1="-632.1999999999997" y1="1640.0" x2="-592.1999999999997" y2="1640.0" stroke="black" stroke-width="2" />
<text x="-588.1999999999997" y="1644.0" font-style="italic" font-size="11" text-anchor="start" font-family="'Times New Roman', 'BiauKai', 'DFKai-SB', '標楷體', 'KaiTi', serif">錯誤type == 401unauthorized AND recoveryavailable</text>
<rect x="42.60000000000019" y="1560.0" width="40.0" height="40.0" stroke="black" stroke-width="1.5" fill="white" />
<text x="62.60000000000019" y="1585.0" text-anchor="middle" font-family="'Times New Roman', 'BiauKai', 'DFKai-SB', '標楷體', 'KaiTi', serif" font-weight="bold" font-size="14">13</text>
<line x1="82.6000000000002" y1="1580.0" x2="122.60000000000016" y2="1580.0" stroke="black" />
<rect x="122.60000000000014" y="1534.0" width="514.8" height="92.0" stroke="black" stroke-width="1.2" fill="white" />
<text x="380.0000000000001" y="1560.0" text-anchor="middle" font-family="'Times New Roman', 'BiauKai', 'DFKai-SB', '標楷體', 'KaiTi', serif" font-size="11">Handle 串流 錯誤: check 重試 budget. If retries remaining:</text>
<text x="380.0000000000001" y="1584.0" text-anchor="middle" font-family="'Times New Roman', 'BiauKai', 'DFKai-SB', '標楷體', 'KaiTi', serif" font-size="11">reconnect (步驟 3) 使用 &#x27;Reconnecting N/N&#x27; feedback.</text>
<text x="380.0000000000001" y="1608.0" text-anchor="middle" font-family="'Times New Roman', 'BiauKai', 'DFKai-SB', '標楷體', 'KaiTi', serif" font-size="11">If exhausted: activate HTTP fallback (步驟 10)</text>
<line x1="62.60000000000019" y1="1600.0" x2="62.60000000000019" y2="1640.0" stroke="black" />
<line x1="-57.39999999999981" y1="1640.0" x2="182.6000000000002" y2="1640.0" stroke="black" stroke-width="1.5" />
<line x1="-17.399999999999807" y1="1640.0" x2="-17.399999999999807" y2="1680.0" stroke="black" />
<line x1="-37.39999999999981" y1="1680.0" x2="2.6000000000001933" y2="1680.0" stroke="black" stroke-width="2" />
<text x="-41.39999999999981" y="1664.0" font-style="italic" font-size="11" text-anchor="end" font-family="'Times New Roman', 'BiauKai', 'DFKai-SB', '標楷體', 'KaiTi', serif">串流錯誤 AND</text>
<text x="-41.39999999999981" y="1684.0" font-style="italic" font-size="11" text-anchor="end" font-family="'Times New Roman', 'BiauKai', 'DFKai-SB', '標楷體', 'KaiTi', serif">NOT 401 AND</text>
<text x="-41.39999999999981" y="1704.0" font-style="italic" font-size="11" text-anchor="end" font-family="'Times New Roman', 'BiauKai', 'DFKai-SB', '標楷體', 'KaiTi', serif">NOT 426</text>
<line x1="-17.399999999999807" y1="1680.0" x2="-17.399999999999807" y2="1720.0" stroke="black" />
<line x1="142.6000000000002" y1="1640.0" x2="142.6000000000002" y2="1680.0" stroke="black" />
<line x1="122.6000000000002" y1="1680.0" x2="162.6000000000002" y2="1680.0" stroke="black" stroke-width="2" />
<line x1="142.6000000000002" y1="1680.0" x2="142.6000000000002" y2="1720.0" stroke="black" />
<line x1="-3688.7999999999993" y1="1720.0" x2="-909.5999999999998" y2="1720.0" stroke="black" stroke-width="1.5" />
<line x1="-3648.7999999999993" y1="520.0" x2="-3648.7999999999993" y2="1720.0" stroke="black" />
<line x1="-949.5999999999998" y1="1720.0" x2="-949.5999999999998" y2="1720.0" stroke="black" />
<line x1="-2299.2" y1="1720.0" x2="-2299.2" y2="1760.0" stroke="black" marker-end="url(#arrow)" />
<line x1="-2339.2" y1="1760.0" x2="3139.2" y2="1760.0" stroke="black" stroke-width="1.5" />
<line x1="-2299.2" y1="1760.0" x2="-2299.2" y2="1760.0" stroke="black" />
<line x1="3099.2" y1="360.0" x2="3099.2" y2="1760.0" stroke="black" />
<line x1="400" y1="1760.0" x2="400" y2="1800.0" stroke="black" marker-end="url(#arrow)" />
<line x1="-1366.9999999999995" y1="1000.0" x2="-1366.9999999999995" y2="1000.0" stroke="black" />
<line x1="-1366.9999999999995" y1="1000.0" x2="-2221.7999999999993" y2="1000.0" stroke="black" />
<line x1="-2221.7999999999993" y1="1000.0" x2="-2221.7999999999993" y2="656.0" stroke="black" />
<line x1="-2221.7999999999993" y1="656.0" x2="-1624.3999999999996" y2="656.0" stroke="black" marker-end="url(#arrow)" />
<line x1="-1286.9999999999995" y1="1680.0" x2="-1286.9999999999995" y2="1700.0" stroke="black" />
<line x1="-1286.9999999999995" y1="1700.0" x2="-2061.7999999999993" y2="1700.0" stroke="black" />
<line x1="-2061.7999999999993" y1="1700.0" x2="-2061.7999999999993" y2="1016.0" stroke="black" />
<line x1="-2061.7999999999993" y1="1016.0" x2="-1286.9999999999995" y2="1016.0" stroke="black" marker-end="url(#arrow)" />
<line x1="-612.1999999999997" y1="1680.0" x2="-612.1999999999997" y2="1720.0" stroke="black" />
<line x1="-612.1999999999997" y1="1720.0" x2="-2301.7999999999993" y2="1720.0" stroke="black" />
<line x1="-2301.7999999999993" y1="1720.0" x2="-2301.7999999999993" y2="656.0" stroke="black" />
<line x1="-2301.7999999999993" y1="656.0" x2="-1624.3999999999996" y2="656.0" stroke="black" marker-end="url(#arrow)" />
<line x1="-17.399999999999807" y1="1720.0" x2="-17.399999999999807" y2="1780.0" stroke="black" />
<line x1="-17.399999999999807" y1="1780.0" x2="-2381.7999999999993" y2="1780.0" stroke="black" />
<line x1="-2381.7999999999993" y1="1780.0" x2="-2381.7999999999993" y2="656.0" stroke="black" />
<line x1="-2381.7999999999993" y1="656.0" x2="-1624.3999999999996" y2="656.0" stroke="black" marker-end="url(#arrow)" />
<line x1="142.6000000000002" y1="1720.0" x2="142.6000000000002" y2="1800.0" stroke="black" />
<line x1="142.6000000000002" y1="1800.0" x2="-2141.7999999999993" y2="1800.0" stroke="black" />
<line x1="-2141.7999999999993" y1="1800.0" x2="-2141.7999999999993" y2="1016.0" stroke="black" />
<line x1="-2141.7999999999993" y1="1016.0" x2="-1286.9999999999995" y2="1016.0" stroke="black" marker-end="url(#arrow)" />
</svg>