<svg xmlns="http://www.w3.org/2000/svg" width="1971" height="1900" viewBox="-1.50 -2.00 98.53 95.00" role="img">
<style>
.step{fill:#fff;stroke:#111;stroke-width:.14}.step-inner{fill:none;stroke:#111;stroke-width:.08}
.action{fill:#fff;stroke:#111;stroke-width:.14}.gate{stroke:#111;stroke-width:.16}
.edge{fill:none;stroke:#111;stroke-width:.05;stroke-linecap:round;stroke-linejoin:round}.edge-arrow{marker-end:url(#arrow)}
.flyover-mask{stroke:#fff;stroke-width:.12;stroke-linecap:round}
.flyover{fill:none;stroke:#111;stroke-width:.05;stroke-linecap:round}
.junction{fill:#111;stroke:#111;stroke-width:0}.branch-junction{fill:#fff;stroke:#111;stroke-width:.08}
.assoc{stroke:#111;stroke-width:.05}.label{font:bold .7px 'Times New Roman', 'BiauKai', 'DFKai-SB', serif;text-anchor:middle;dominant-baseline:middle}
.action-label{font:.55px 'Times New Roman', 'BiauKai', 'DFKai-SB', serif;text-anchor:middle;dominant-baseline:middle}.gate-label{font:italic .55px 'Times New Roman', 'BiauKai', 'DFKai-SB', serif;text-anchor:start;dominant-baseline:middle}.gate-label-left{font:italic .55px 'Times New Roman', 'BiauKai', 'DFKai-SB', serif;text-anchor:end;dominant-baseline:middle}
</style>
<defs><marker id="arrow" markerWidth="0.4" markerHeight="0.4" refX="0.36" refY="0.2" orient="auto" markerUnits="userSpaceOnUse"><path d="M 0 0 L 0.4 0.2 L 0 0.4 z" fill="#111"/></marker></defs>
<rect x="-1.50" y="-2.00" width="98.53" height="95.00" fill="white"/>
<path class="edge" d="M 38.01 7.00 L 38.01 9.00"/>
<path class="edge edge-arrow" d="M 38.01 9.00 L 38.01 11.00"/>
<path class="edge" d="M 38.01 14.00 L 38.01 16.00"/>
<path class="edge edge-arrow" d="M 38.01 16.00 L 38.01 18.00"/>
<path class="edge edge-arrow" d="M 38.01 21.00 L 38.01 23.00"/>
<path class="edge edge-arrow" d="M 66.02 23.00 L 66.02 27.00"/>
<path class="edge edge-arrow" d="M 10.00 23.00 L 10.00 27.00"/>
<path class="edge edge-arrow" d="M 38.01 23.00 L 38.01 27.00"/>
<path class="edge edge-arrow" d="M 66.02 30.00 L 66.02 59.00"/>
<path class="edge edge-arrow" d="M 38.01 59.00 L 38.01 67.00"/>
<path class="edge edge-arrow" d="M 10.00 30.00 L 10.00 34.00"/>
<path class="edge edge-arrow" d="M 38.01 34.00 L 38.01 36.00"/>
<path class="edge edge-arrow" d="M 38.01 30.00 L 38.01 34.00"/>
<path class="edge" d="M 38.01 39.00 L 38.01 41.00"/>
<path class="edge edge-arrow" d="M 38.01 41.00 L 38.01 43.00"/>
<path class="edge edge-arrow" d="M 38.01 46.00 L 38.01 48.00"/>
<path class="edge edge-arrow" d="M 38.01 48.00 L 38.01 52.00"/>
<path class="edge edge-arrow" d="M 10.00 48.00 L 10.00 52.00"/>
<path class="edge" d="M 38.01 55.00 L 38.01 57.00"/>
<path class="edge" d="M 38.01 57.00 L 71.97 57.00"/>
<path class="edge" d="M 71.97 57.00 L 71.97 63.00"/>
<path class="edge" d="M 71.97 63.00 L 38.01 63.00"/>
<path class="edge" d="M 38.01 67.00 L 38.01 71.00"/>
<path class="edge" d="M 38.01 71.00 L 10.00 71.00"/>
<path class="edge" d="M 38.01 71.00 L 38.01 72.00"/>
<path class="edge edge-arrow" d="M 38.01 72.00 L 38.01 73.50 Q 38.01 74.00 38.51 74.00 L 92.53 74.00 Q 93.03 74.00 93.03 74.50 L 93.03 76.12 Q 93.03 76.62 92.53 76.62 L 38.51 76.62 Q 38.01 76.62 38.01 77.12 L 38.01 78.00"/>
<path class="edge" d="M 38.01 81.00 L 38.01 83.00"/>
<path class="edge edge-arrow" d="M 38.01 83.00 L 38.01 88.50 Q 38.01 89.00 37.51 89.00 L 3.00 89.00 Q 2.50 89.00 2.50 88.50 L 2.50 2.50 Q 2.50 2.00 3.00 2.00 L 37.51 2.00 Q 38.01 2.00 38.01 2.50 L 38.01 4.00"/>
<path class="edge edge-arrow" d="M 10.00 55.00 L 10.00 59.00"/>
<path class="edge edge-arrow" d="M 10.00 70.00 L 10.00 76.00"/>
<path class="edge edge-arrow" d="M 66.02 76.00 L 66.02 78.00"/>
<path class="edge edge-arrow" d="M 66.02 7.00 L 66.02 8.50 Q 66.02 9.00 66.52 9.00 L 92.53 9.00 Q 93.03 9.00 93.03 9.50 L 93.03 64.50 Q 93.03 65.00 92.53 65.00 L 66.52 65.00 Q 66.02 65.00 66.02 65.50 L 66.02 76.00"/>
<path class="edge" d="M 66.02 81.00 L 66.02 87.00"/>
<path class="edge" d="M 66.02 87.00 L 66.02 89.00"/>
<path class="edge" d="M 66.02 89.00 L 38.01 89.00"/>
<rect class="step" x="36.01" y="4.00" width="4.00" height="3.00" rx="0.35" ry="0.35"/>
<rect class="step-inner" x="36.26" y="4.25" width="3.50" height="2.50" rx="0.22" ry="0.22"/>
<text class="label" x="38.01" y="5.50">0</text>
<rect class="step" x="36.01" y="11.00" width="4.00" height="3.00" rx="0.35" ry="0.35"/>
<text class="label" x="38.01" y="12.50">1</text>
<rect class="step" x="36.01" y="18.00" width="4.00" height="3.00" rx="0.35" ry="0.35"/>
<text class="label" x="38.01" y="19.50">2</text>
<rect class="step" x="64.02" y="27.00" width="4.00" height="3.00" rx="0.35" ry="0.35"/>
<text class="label" x="66.02" y="28.50">3</text>
<rect class="step" x="8.00" y="27.00" width="4.00" height="3.00" rx="0.35" ry="0.35"/>
<text class="label" x="10.00" y="28.50">4</text>
<rect class="step" x="36.01" y="27.00" width="4.00" height="3.00" rx="0.35" ry="0.35"/>
<text class="label" x="38.01" y="28.50">5</text>
<rect class="step" x="36.01" y="36.00" width="4.00" height="3.00" rx="0.35" ry="0.35"/>
<text class="label" x="38.01" y="37.50">6</text>
<rect class="step" x="36.01" y="43.00" width="4.00" height="3.00" rx="0.35" ry="0.35"/>
<text class="label" x="38.01" y="44.50">7</text>
<rect class="step" x="36.01" y="52.00" width="4.00" height="3.00" rx="0.35" ry="0.35"/>
<text class="label" x="38.01" y="53.50">8</text>
<rect class="step" x="36.01" y="67.00" width="4.00" height="3.00" rx="0.35" ry="0.35"/>
<text class="label" x="38.01" y="68.50">9</text>
<rect class="step" x="36.01" y="78.00" width="4.00" height="3.00" rx="0.35" ry="0.35"/>
<text class="label" x="38.01" y="79.50">10</text>
<rect class="step" x="8.00" y="52.00" width="4.00" height="3.00" rx="0.35" ry="0.35"/>
<text class="label" x="10.00" y="53.50">11</text>
<rect class="step" x="8.00" y="67.00" width="4.00" height="3.00" rx="0.35" ry="0.35"/>
<text class="label" x="10.00" y="68.50">12</text>
<rect class="step" x="64.02" y="4.00" width="4.00" height="3.00" rx="0.35" ry="0.35"/>
<text class="label" x="66.02" y="5.50">13</text>
<rect class="step" x="64.02" y="78.00" width="4.00" height="3.00" rx="0.35" ry="0.35"/>
<text class="label" x="66.02" y="79.50">14</text>
<line class="assoc" x1="40.01" y1="5.50" x2="41.01" y2="5.50"/>
<rect class="action" x="41.01" y="4.07" width="22.01" height="2.86"/>
<text class="action-label" x="52.02" y="5.50"><tspan x="52.02" dy="0">wait 供 incoming Office 上傳</tspan></text>
<line class="assoc" x1="40.01" y1="12.50" x2="41.01" y2="12.50"/>
<rect class="action" x="41.01" y="11.07" width="22.01" height="2.86"/>
<text class="action-label" x="52.02" y="12.50"><tspan x="52.02" dy="0">validate 上傳 (receive 位元組, detect mime, compute 快取 key, 解析 快取 hit)</tspan></text>
<line class="assoc" x1="40.01" y1="19.50" x2="41.01" y2="19.50"/>
<rect class="action" x="41.01" y="18.07" width="22.01" height="2.86"/>
<text class="action-label" x="52.02" y="19.50"><tspan x="52.02" dy="0">branch 在 快取 verdict</tspan></text>
<line class="assoc" x1="68.02" y1="28.50" x2="69.02" y2="28.50"/>
<rect class="action" x="69.02" y="27.07" width="22.01" height="2.86"/>
<text class="action-label" x="80.03" y="28.50"><tspan x="80.03" dy="0">short-circuit: reuse existing Manifest 於 incoming/&lt;stem&gt;/manifest.js在</tspan></text>
<line class="assoc" x1="12.00" y1="28.50" x2="13.00" y2="28.50"/>
<rect class="action" x="13.00" y="27.07" width="22.01" height="2.86"/>
<text class="action-label" x="24.01" y="28.50"><tspan x="24.01" dy="0">decompose 進入 fresh incoming/&lt;stem&gt;/ (無 prior dir)</tspan></text>
<line class="assoc" x1="40.01" y1="28.50" x2="41.01" y2="28.50"/>
<rect class="action" x="41.01" y="27.07" width="22.01" height="2.86"/>
<text class="action-label" x="52.02" y="28.09"><tspan x="52.02" dy="0">rename prior incoming/&lt;stem&gt;/ 到 incoming/&lt;st</tspan><tspan x="52.02" dy="0.82">em&gt;-&lt;old-timestamp&gt;/ (regen 使用 sha drift)</tspan></text>
<line class="assoc" x1="40.01" y1="37.50" x2="41.01" y2="37.50"/>
<rect class="action" x="41.01" y="36.07" width="22.01" height="2.86"/>
<text class="action-label" x="52.02" y="36.68"><tspan x="52.02" dy="0">執行 format-specific decomposer FAST PHASE (docxmcp 取出all 返回 outlin</tspan><tspan x="52.02" dy="0.82">e+template+Manifest skeleton; 或 legacy scanner; 或 unsupported writer); 供 d</tspan><tspan x="52.02" dy="0.82">ocx: 啟動 detached background child 透過 double-fork before fast phase 返回</tspan></text>
<line class="assoc" x1="40.01" y1="44.50" x2="41.01" y2="44.50"/>
<rect class="action" x="41.01" y="43.07" width="22.01" height="2.86"/>
<text class="action-label" x="52.02" y="44.50"><tspan x="52.02" dy="0">branch 在 decompose outcome</tspan></text>
<line class="assoc" x1="40.01" y1="53.50" x2="41.01" y2="53.50"/>
<rect class="action" x="41.01" y="52.07" width="22.01" height="2.86"/>
<text class="action-label" x="52.02" y="52.68"><tspan x="52.02" dy="0">發布 FAST Bundle 到 incoming/&lt;stem&gt;/ (outline + template + Manifest skeleton + PEN</tspan><tspan x="52.02" dy="0.82">DING markers); 供 docx, also start polling loop (平行 branch — runs concurrently 使</tspan><tspan x="52.02" dy="0.82">用 steps 9 與 10 below; converges 回到 透過 background狀態 flip; see steps 12-15)</tspan></text>
<line class="assoc" x1="40.01" y1="68.50" x2="41.01" y2="68.50"/>
<rect class="action" x="41.01" y="67.07" width="22.01" height="2.86"/>
<text class="action-label" x="52.02" y="68.50"><tspan x="52.02" dy="0">compose plain-language routing hint 來自 Manifest (apply &gt;4 fold rule)</tspan></text>
<line class="assoc" x1="40.01" y1="79.50" x2="41.01" y2="79.50"/>
<rect class="action" x="41.01" y="78.07" width="22.01" height="2.86"/>
<text class="action-label" x="52.02" y="79.50"><tspan x="52.02" dy="0">decorate 使用者 訊息 使用 routing hint 與 發出 telemetry; release 訊息 到 AI</tspan></text>
<line class="assoc" x1="12.00" y1="53.50" x2="13.00" y2="53.50"/>
<rect class="action" x="13.00" y="52.07" width="22.01" height="2.86"/>
<text class="action-label" x="24.01" y="53.50"><tspan x="24.01" dy="0">write failure.md 使用 單次-line plain reason; 發出 failure Manifest</tspan></text>
<line class="assoc" x1="12.00" y1="68.50" x2="13.00" y2="68.50"/>
<rect class="action" x="13.00" y="67.07" width="22.01" height="2.86"/>
<text class="action-label" x="24.01" y="67.68"><tspan x="24.01" dy="0">[平行 branch] background detached child writes body.md + c</tspan><tspan x="24.01" dy="0.82">hapters/ + tables/ + media/ inside docxmcp container; rewrite</tspan><tspan x="24.01" dy="0.82">s Manifest{bg:done} when finished; removes PENDING markers</tspan></text>
<line class="assoc" x1="68.02" y1="5.50" x2="69.02" y2="5.50"/>
<rect class="action" x="69.02" y="4.07" width="22.01" height="2.86"/>
<text class="action-label" x="80.03" y="4.68"><tspan x="80.03" dy="0">[平行 branch] polling loop calls 取出allcollect(wait=0) every 5 s; Bu</tspan><tspan x="80.03" dy="0.82">ndle producer ships incremental 檔案; loop publishes them 進入 inco</tspan><tspan x="80.03" dy="0.82">ming/&lt;stem&gt;/; stops when Manifest.bg != 執行中 OR 180 s safety cap</tspan></text>
<line class="assoc" x1="68.02" y1="79.50" x2="69.02" y2="79.50"/>
<rect class="action" x="69.02" y="78.07" width="22.01" height="2.86"/>
<text class="action-label" x="80.03" y="79.09"><tspan x="80.03" dy="0">background + polling 平行 branches converge; incoming/&lt;stem&gt;/ now reflects fina</tspan><tspan x="80.03" dy="0.82">l 狀態 (或 stable failure / safety-cap 狀態); telemetry receives final outcome</tspan></text>
<line class="gate" x1="37.01" y1="9.00" x2="39.01" y2="9.00"/>
<text class="gate-label" x="39.41" y="9.00"><tspan x="39.41" dy="0">上傳arrived</tspan></text>
<line class="gate" x1="37.01" y1="16.00" x2="39.01" y2="16.00"/>
<text class="gate-label" x="39.41" y="16.00"><tspan x="39.41" dy="0">validation完成</tspan></text>
<line class="gate" x1="6.50" y1="23.00" x2="69.52" y2="23.00"/>
<line class="gate" x1="6.50" y1="59.00" x2="69.52" y2="59.00"/>
<line class="gate" x1="8.00" y1="34.00" x2="40.01" y2="34.00"/>
<line class="gate" x1="37.01" y1="41.00" x2="39.01" y2="41.00"/>
<text class="gate-label" x="39.41" y="41.00"><tspan x="39.41" dy="0">fastphasereturned</tspan></text>
<line class="gate" x1="8.00" y1="48.00" x2="40.01" y2="48.00"/>
<circle class="branch-junction" cx="38.01" cy="65.00" r="0.50"/>
<circle class="branch-junction" cx="38.01" cy="65.00" r="0.18"/>
<line class="gate" x1="37.01" y1="72.00" x2="39.01" y2="72.00"/>
<text class="gate-label" x="39.41" y="72.00"><tspan x="39.41" dy="0">hintcomposed</tspan></text>
<line class="gate" x1="37.01" y1="83.00" x2="39.01" y2="83.00"/>
<text class="gate-label" x="39.41" y="83.00"><tspan x="39.41" dy="0">訊息released</tspan></text>
<line class="gate" x1="8.00" y1="76.00" x2="68.02" y2="76.00"/>
<line class="gate" x1="65.02" y1="87.00" x2="67.02" y2="87.00"/>
<text class="gate-label" x="67.42" y="87.00"><tspan x="67.42" dy="0">allbranches完成</tspan></text>
<line class="gate" x1="65.02" y1="25.00" x2="67.02" y2="25.00"/>
<text class="gate-label" x="67.42" y="25.00"><tspan x="67.42" dy="0">verdict == hit</tspan></text>
<line class="gate" x1="9.00" y1="25.00" x2="11.00" y2="25.00"/>
<text class="gate-label-left" x="8.60" y="25.00"><tspan x="8.60" dy="0">verdict == fresh</tspan></text>
<line class="gate" x1="37.01" y1="25.00" x2="39.01" y2="25.00"/>
<text class="gate-label" x="39.41" y="25.00"><tspan x="39.41" dy="0">verdict == regen</tspan></text>
<line class="gate" x1="65.02" y1="61.00" x2="67.02" y2="61.00"/>
<text class="gate-label" x="67.42" y="60.32"><tspan x="67.42" dy="0">Manif</tspan><tspan x="67.42" dy="0.68">est已</tspan><tspan x="67.42" dy="0.68">載入</tspan></text>
<line class="gate" x1="9.00" y1="32.00" x2="11.00" y2="32.00"/>
<text class="gate-label-left" x="8.60" y="32.00"><tspan x="8.60" dy="0">decomposedispatched</tspan></text>
<line class="gate" x1="37.01" y1="32.00" x2="39.01" y2="32.00"/>
<text class="gate-label" x="39.41" y="32.00"><tspan x="39.41" dy="0">priordirrenamed</tspan></text>
<line class="gate" x1="37.01" y1="50.00" x2="39.01" y2="50.00"/>
<text class="gate-label" x="39.41" y="50.00"><tspan x="39.41" dy="0">狀態 在 (ok, unsupported)</tspan></text>
<line class="gate" x1="9.00" y1="50.00" x2="11.00" y2="50.00"/>
<text class="gate-label-left" x="8.60" y="50.00"><tspan x="8.60" dy="0">狀態 == failed</tspan></text>
<line class="gate" x1="37.01" y1="61.00" x2="39.01" y2="61.00"/>
<text class="gate-label" x="39.41" y="61.00"><tspan x="39.41" dy="0">fasttreepublished</tspan></text>
<line class="gate" x1="9.00" y1="61.00" x2="11.00" y2="61.00"/>
<text class="gate-label-left" x="8.60" y="61.00"><tspan x="8.60" dy="0">failurerecorded</tspan></text>
<line class="gate" x1="9.00" y1="72.00" x2="11.00" y2="72.00"/>
<text class="gate-label-left" x="8.60" y="71.32"><tspan x="8.60" dy="0">backgrou</tspan><tspan x="8.60" dy="0.68">ndfinishe</tspan><tspan x="8.60" dy="0.68">d或failed</tspan></text>
<line class="gate" x1="65.02" y1="72.00" x2="67.02" y2="72.00"/>
<text class="gate-label" x="67.42" y="72.00"><tspan x="67.42" dy="0">pollingloopterminated</tspan></text>
<circle class="junction" cx="38.01" cy="63.00" r="0.22"/>
<circle class="branch-junction" cx="38.01" cy="71.00" r="0.22"/>
<circle class="junction" cx="10.00" cy="71.00" r="0.22"/>
<circle class="junction" cx="38.01" cy="89.00" r="0.22"/>
</svg>