<svg xmlns="http://www.w3.org/2000/svg" width="1340" height="2600" viewBox="-16.00 -2.00 67.00 130.00" role="img">
<style>
.step{fill:#fff;stroke:#111;stroke-width:.14}.step-inner{fill:none;stroke:#111;stroke-width:.08}
.action{fill:#fff;stroke:#111;stroke-width:.14}.gate{stroke:#111;stroke-width:.16}
.edge{fill:none;stroke:#111;stroke-width:.05;stroke-linecap:round;stroke-linejoin:round}.edge-arrow{marker-end:url(#arrow)}
.flyover-mask{stroke:#fff;stroke-width:.12;stroke-linecap:round}
.flyover{fill:none;stroke:#111;stroke-width:.05;stroke-linecap:round}
.junction{fill:#111;stroke:#111;stroke-width:0}.branch-junction{fill:#fff;stroke:#111;stroke-width:.08}
.assoc{stroke:#111;stroke-width:.05}.label{font:bold .7px 'Times New Roman', 'BiauKai', 'DFKai-SB', serif;text-anchor:middle;dominant-baseline:middle}
.action-label{font:.55px 'Times New Roman', 'BiauKai', 'DFKai-SB', serif;text-anchor:middle;dominant-baseline:middle}.gate-label{font:italic .55px 'Times New Roman', 'BiauKai', 'DFKai-SB', serif;text-anchor:start;dominant-baseline:middle}.gate-label-left{font:italic .55px 'Times New Roman', 'BiauKai', 'DFKai-SB', serif;text-anchor:end;dominant-baseline:middle}
</style>
<defs><marker id="arrow" markerWidth="0.4" markerHeight="0.4" refX="0.36" refY="0.2" orient="auto" markerUnits="userSpaceOnUse"><path d="M 0 0 L 0.4 0.2 L 0 0.4 z" fill="#111"/></marker></defs>
<rect x="-16.00" y="-2.00" width="67.00" height="130.00" fill="white"/>
<path class="edge edge-arrow" d="M 20.00 96.00 L 20.00 104.00"/>
<path class="edge" d="M 20.00 7.00 L 20.00 9.00"/>
<path class="edge edge-arrow" d="M 20.00 9.00 L 20.00 11.00"/>
<path class="edge" d="M 20.00 14.00 L 20.00 16.00"/>
<path class="edge edge-arrow" d="M 20.00 16.00 L 20.00 18.00"/>
<path class="edge" d="M 20.00 21.00 L 20.00 23.00"/>
<path class="edge edge-arrow" d="M 20.00 23.00 L 20.00 25.00"/>
<path class="edge edge-arrow" d="M 20.00 28.00 L 20.00 30.00"/>
<path class="edge edge-arrow" d="M 10.00 30.00 L 10.00 34.00"/>
<path class="edge edge-arrow" d="M 20.00 30.00 L 20.00 34.00"/>
<path class="edge edge-arrow" d="M 10.00 37.00 L 10.00 41.00"/>
<path class="edge edge-arrow" d="M 20.00 41.00 L 20.00 47.00"/>
<path class="edge edge-arrow" d="M 20.00 37.00 L 20.00 41.00"/>
<path class="edge edge-arrow" d="M 20.00 50.00 L 20.00 52.00"/>
<path class="edge edge-arrow" d="M 0.00 52.00 L 0.00 56.00"/>
<path class="edge edge-arrow" d="M 30.00 52.00 L 30.00 56.00"/>
<path class="edge edge-arrow" d="M 20.00 52.00 L 20.00 56.00"/>
<path class="edge edge-arrow" d="M 10.00 52.00 L 10.00 56.00"/>
<path class="edge edge-arrow" d="M 0.00 59.00 L 0.00 69.00"/>
<path class="edge edge-arrow" d="M 10.00 69.00 L 10.00 71.00"/>
<path class="edge" d="M 30.00 59.00 L 30.00 61.00"/>
<path class="edge edge-arrow" d="M 30.00 61.00 L 30.00 69.00"/>
<path class="edge" d="M 30.00 63.00 L 36.45 63.00"/>
<path class="edge" d="M 36.45 63.00 L 36.45 73.62"/>
<path class="edge" d="M 36.45 73.62 L 30.00 73.62"/>
<path class="edge edge-arrow" d="M 30.00 73.62 L 30.00 104.00"/>
<path class="edge edge-arrow" d="M 30.00 104.00 L 30.00 106.00"/>
<path class="edge edge-arrow" d="M 20.00 59.00 L 20.00 64.50 Q 20.00 65.00 20.50 65.00 L 33.95 65.00 Q 34.45 65.00 34.45 65.50 L 34.45 71.12 Q 34.45 71.62 33.95 71.62 L 20.50 71.62 Q 20.00 71.62 20.00 72.12 L 20.00 78.00"/>
<path class="edge edge-arrow" d="M 20.00 78.00 L 20.00 80.00"/>
<path class="edge edge-arrow" d="M 10.00 59.00 L 10.00 69.00"/>
<path class="edge edge-arrow" d="M 10.00 74.00 L 10.00 78.00"/>
<path class="edge" d="M 20.00 83.00 L 20.00 85.00"/>
<path class="edge" d="M 20.00 85.00 L 20.00 87.00"/>
<path class="edge edge-arrow" d="M 20.00 87.00 L 20.00 91.00"/>
<path class="edge edge-arrow" d="M 20.00 85.00 L 39.50 85.00 Q 40.00 85.00 40.00 85.50 L 40.00 104.00"/>
<path class="edge edge-arrow" d="M 20.00 94.00 L 20.00 96.00"/>
<path class="edge" d="M 20.00 96.00 L -7.50 96.00 Q -8.00 96.00 -8.00 95.50 L -8.00 45.50 Q -8.00 45.00 -7.50 45.00 L 20.00 45.00"/>
<path class="edge edge-arrow" d="M 30.00 109.00 L 30.00 111.00"/>
<path class="edge edge-arrow" d="M 20.00 111.00 L 20.00 112.50 Q 20.00 113.00 19.50 113.00 L -11.50 113.00 Q -12.00 113.00 -12.00 112.50 L -12.00 2.50 Q -12.00 2.00 -11.50 2.00 L 19.50 2.00 Q 20.00 2.00 20.00 2.50 L 20.00 4.00"/>
<path class="edge edge-arrow" d="M 40.00 111.00 L 40.00 117.00"/>
<path class="edge" d="M 40.00 120.00 L 40.00 122.00"/>
<path class="edge" d="M 40.00 122.00 L 40.00 124.00"/>
<path class="edge" d="M 40.00 124.00 L -12.00 124.00"/>
<path class="edge" d="M -12.00 124.00 L -12.00 113.00"/>
<rect class="step" x="18.00" y="4.00" width="4.00" height="3.00"/>
<rect class="step-inner" x="18.25" y="4.25" width="3.50" height="2.50"/>
<text class="label" x="20.00" y="5.50">0</text>
<rect class="step" x="18.00" y="11.00" width="4.00" height="3.00"/>
<text class="label" x="20.00" y="12.50">1</text>
<rect class="step" x="18.00" y="18.00" width="4.00" height="3.00"/>
<text class="label" x="20.00" y="19.50">2</text>
<rect class="step" x="18.00" y="25.00" width="4.00" height="3.00"/>
<text class="label" x="20.00" y="26.50">3</text>
<rect class="step" x="8.00" y="34.00" width="4.00" height="3.00"/>
<text class="label" x="10.00" y="35.50">4</text>
<rect class="step" x="18.00" y="34.00" width="4.00" height="3.00"/>
<text class="label" x="20.00" y="35.50">5</text>
<rect class="step" x="18.00" y="47.00" width="4.00" height="3.00"/>
<text class="label" x="20.00" y="48.50">6</text>
<rect class="step" x="-2.00" y="56.00" width="4.00" height="3.00"/>
<text class="label" x="0.00" y="57.50">7</text>
<rect class="step" x="28.00" y="56.00" width="4.00" height="3.00"/>
<text class="label" x="30.00" y="57.50">8</text>
<rect class="step" x="18.00" y="56.00" width="4.00" height="3.00"/>
<text class="label" x="20.00" y="57.50">9</text>
<rect class="step" x="8.00" y="56.00" width="4.00" height="3.00"/>
<text class="label" x="10.00" y="57.50">10</text>
<rect class="step" x="8.00" y="71.00" width="4.00" height="3.00"/>
<text class="label" x="10.00" y="72.50">11</text>
<rect class="step" x="18.00" y="80.00" width="4.00" height="3.00"/>
<text class="label" x="20.00" y="81.50">12</text>
<rect class="step" x="18.00" y="91.00" width="4.00" height="3.00"/>
<text class="label" x="20.00" y="92.50">13</text>
<rect class="step" x="28.00" y="106.00" width="4.00" height="3.00"/>
<text class="label" x="30.00" y="107.50">14</text>
<rect class="step" x="38.00" y="117.00" width="4.00" height="3.00"/>
<text class="label" x="40.00" y="118.50">15</text>
<line class="assoc" x1="22.00" y1="5.50" x2="23.00" y2="5.50"/>
<rect class="action" x="23.00" y="4.07" width="4.00" height="2.86" rx="0.45" ry="0.45"/>
<text class="action-label" x="25.00" y="5.09"><tspan x="25.00" dy="0">等待使用</tspan><tspan x="25.00" dy="0.82">者輸入閒置</tspan></text>
<line class="assoc" x1="22.00" y1="12.50" x2="23.00" y2="12.50"/>
<rect class="action" x="23.00" y="11.07" width="4.00" height="2.86" rx="0.45" ry="0.45"/>
<text class="action-label" x="25.00" y="11.68"><tspan x="25.00" dy="0">納入使用</tspan><tspan x="25.00" dy="0.82">者文字移</tspan><tspan x="25.00" dy="0.82">除合成</tspan></text>
<line class="assoc" x1="22.00" y1="19.50" x2="23.00" y2="19.50"/>
<rect class="action" x="23.00" y="18.07" width="4.00" height="2.86" rx="0.45" ry="0.45"/>
<text class="action-label" x="25.00" y="19.09"><tspan x="25.00" dy="0">預載與釘</tspan><tspan x="25.00" dy="0.82">選必要技能</tspan></text>
<line class="assoc" x1="22.00" y1="26.50" x2="23.00" y2="26.50"/>
<rect class="action" x="23.00" y="25.07" width="4.00" height="2.86" rx="0.45" ry="0.45"/>
<text class="action-label" x="25.00" y="25.68"><tspan x="25.00" dy="0">比對啟用停</tspan><tspan x="25.00" dy="0.82">用短語與更</tspan><tspan x="25.00" dy="0.82">新工作流程</tspan></text>
<line class="assoc" x1="12.00" y1="35.50" x2="13.00" y2="35.50"/>
<rect class="action" x="13.00" y="34.07" width="4.00" height="2.86" rx="0.45" ry="0.45"/>
<text class="action-label" x="15.00" y="35.09"><tspan x="15.00" dy="0">規劃延續</tspan><tspan x="15.00" dy="0.82">已啟用路徑</tspan></text>
<line class="assoc" x1="22.00" y1="35.50" x2="23.00" y2="35.50"/>
<rect class="action" x="23.00" y="34.07" width="4.00" height="2.86" rx="0.45" ry="0.45"/>
<text class="action-label" x="25.00" y="34.68"><tspan x="25.00" dy="0">視為作為</tspan><tspan x="25.00" dy="0.82">單次回合</tspan><tspan x="25.00" dy="0.82">使用者回合</tspan></text>
<line class="assoc" x1="22.00" y1="48.50" x2="23.00" y2="48.50"/>
<rect class="action" x="23.00" y="47.07" width="4.00" height="2.86" rx="0.45" ry="0.45"/>
<text class="action-label" x="25.00" y="47.68"><tspan x="25.00" dy="0">組裝提示</tspan><tspan x="25.00" dy="0.82">與執行模</tspan><tspan x="25.00" dy="0.82">型步驟</tspan></text>
<line class="assoc" x1="2.00" y1="57.50" x2="3.00" y2="57.50"/>
<rect class="action" x="3.00" y="56.07" width="4.00" height="2.86" rx="0.45" ry="0.45"/>
<text class="action-label" x="5.00" y="56.68"><tspan x="5.00" dy="0">派發子代</tspan><tspan x="5.00" dy="0.82">理非同步</tspan><tspan x="5.00" dy="0.82">與繼續回合</tspan></text>
<line class="assoc" x1="32.00" y1="57.50" x2="33.00" y2="57.50"/>
<rect class="action" x="33.00" y="56.07" width="4.00" height="2.86" rx="0.45" ry="0.45"/>
<text class="action-label" x="35.00" y="56.68"><tspan x="35.00" dy="0">詢問問題</tspan><tspan x="35.00" dy="0.82">區塊並等</tspan><tspan x="35.00" dy="0.82">待回覆</tspan></text>
<line class="assoc" x1="22.00" y1="57.50" x2="23.00" y2="57.50"/>
<rect class="action" x="23.00" y="56.07" width="4.00" height="2.86" rx="0.45" ry="0.45"/>
<text class="action-label" x="25.00" y="57.09"><tspan x="25.00" dy="0">結束無更</tspan><tspan x="25.00" dy="0.82">多工具回合</tspan></text>
<line class="assoc" x1="12.00" y1="57.50" x2="13.00" y2="57.50"/>
<rect class="action" x="13.00" y="56.07" width="4.00" height="2.86" rx="0.45" ry="0.45"/>
<text class="action-label" x="15.00" y="57.09"><tspan x="15.00" dy="0">平行執行</tspan><tspan x="15.00" dy="0.82">其他工具</tspan></text>
<line class="assoc" x1="12.00" y1="72.50" x2="13.00" y2="72.50"/>
<rect class="action" x="13.00" y="71.07" width="4.00" height="2.86" rx="0.45" ry="0.45"/>
<text class="action-label" x="15.00" y="71.68"><tspan x="15.00" dy="0">合併工具</tspan><tspan x="15.00" dy="0.82">結果回到</tspan><tspan x="15.00" dy="0.82">進入回合</tspan></text>
<line class="assoc" x1="22.00" y1="81.50" x2="23.00" y2="81.50"/>
<rect class="action" x="23.00" y="80.07" width="4.00" height="2.86" rx="0.45" ry="0.45"/>
<text class="action-label" x="25.00" y="80.68"><tspan x="25.00" dy="0">檢查子代</tspan><tspan x="25.00" dy="0.82">理配額軟</tspan><tspan x="25.00" dy="0.82">收尾門檻</tspan></text>
<line class="assoc" x1="22.00" y1="92.50" x2="23.00" y2="92.50"/>
<rect class="action" x="23.00" y="91.07" width="4.00" height="2.86" rx="0.45" ry="0.45"/>
<text class="action-label" x="25.00" y="91.68"><tspan x="25.00" dy="0">規劃下一</tspan><tspan x="25.00" dy="0.82">個動作繼</tspan><tspan x="25.00" dy="0.82">續或停止</tspan></text>
<line class="assoc" x1="32.00" y1="107.50" x2="33.00" y2="107.50"/>
<rect class="action" x="33.00" y="106.07" width="4.00" height="2.86" rx="0.45" ry="0.45"/>
<text class="action-label" x="35.00" y="106.68"><tspan x="35.00" dy="0">閒置會話</tspan><tspan x="35.00" dy="0.82">直到使用</tspan><tspan x="35.00" dy="0.82">者或心跳</tspan></text>
<line class="assoc" x1="42.00" y1="118.50" x2="43.00" y2="118.50"/>
<rect class="action" x="43.00" y="117.07" width="4.00" height="2.86" rx="0.45" ry="0.45"/>
<text class="action-label" x="45.00" y="117.68"><tspan x="45.00" dy="0">排程器派發</tspan><tspan x="45.00" dy="0.82">工作並注入</tspan><tspan x="45.00" dy="0.82">合成使用者</tspan></text>
<line class="gate" x1="19.00" y1="9.00" x2="21.00" y2="9.00"/>
<text class="gate-label" x="21.40" y="9.00"><tspan x="21.40" dy="0">使用者訊息已收到</tspan></text>
<line class="gate" x1="19.00" y1="16.00" x2="21.00" y2="16.00"/>
<text class="gate-label" x="21.40" y="16.00"><tspan x="21.40" dy="0">使用者文字已取出</tspan></text>
<line class="gate" x1="19.00" y1="23.00" x2="21.00" y2="23.00"/>
<text class="gate-label" x="21.40" y="23.00"><tspan x="21.40" dy="0">技能已解析 &amp;&amp; 釘選完成</tspan></text>
<line class="gate" x1="6.00" y1="30.00" x2="24.00" y2="30.00"/>
<line class="gate" x1="8.00" y1="41.00" x2="22.00" y2="41.00"/>
<line class="gate" x1="-4.00" y1="52.00" x2="34.00" y2="52.00"/>
<line class="gate" x1="-2.00" y1="69.00" x2="32.00" y2="69.00"/>
<line class="gate" x1="18.00" y1="104.00" x2="42.00" y2="104.00"/>
<line class="gate" x1="8.00" y1="78.00" x2="22.00" y2="78.00"/>
<line class="gate" x1="19.00" y1="87.00" x2="21.00" y2="87.00"/>
<text class="gate-label-left" x="18.60" y="87.00"><tspan x="18.60" dy="0">是子代理會話 &amp;&amp; 配額低於紅線 -&gt; 下一回合收尾</tspan></text>
<circle class="branch-junction" cx="20.00" cy="96.00" r="0.28"/>
<line class="gate" x1="16.00" y1="111.00" x2="44.00" y2="111.00"/>
<line class="gate" x1="39.00" y1="122.00" x2="41.00" y2="122.00"/>
<text class="gate-label-left" x="38.60" y="122.00"><tspan x="38.60" dy="0">工作已派發 &amp;&amp; 合成訊息已種入</tspan></text>
<line class="gate" x1="9.00" y1="32.00" x2="11.00" y2="32.00"/>
<text class="gate-label-left" x="8.60" y="32.00"><tspan x="8.60" dy="0">工作流程自主已啟用 == 是</tspan></text>
<line class="gate" x1="19.00" y1="32.00" x2="21.00" y2="32.00"/>
<text class="gate-label-left" x="18.60" y="32.00"><tspan x="18.60" dy="0">工作流程自主已啟用 == 否</tspan></text>
<line class="gate" x1="9.00" y1="39.00" x2="11.00" y2="39.00"/>
<text class="gate-label-left" x="8.60" y="39.00"><tspan x="8.60" dy="0">父層ID==空 &amp;&amp; 下一個可執行待辦!=空</tspan></text>
<line class="gate" x1="19.00" y1="39.00" x2="21.00" y2="39.00"/>
<text class="gate-label-left" x="18.60" y="39.00"><tspan x="18.60" dy="0">單次回合就緒</tspan></text>
<line class="gate" x1="-1.00" y1="54.00" x2="1.00" y2="54.00"/>
<text class="gate-label-left" x="-1.40" y="54.00"><tspan x="-1.40" dy="0">工具呼叫任務派發</tspan></text>
<line class="gate" x1="29.00" y1="54.00" x2="31.00" y2="54.00"/>
<text class="gate-label-left" x="28.60" y="54.00"><tspan x="28.60" dy="0">工具呼叫問題</tspan></text>
<line class="gate" x1="19.00" y1="54.00" x2="21.00" y2="54.00"/>
<text class="gate-label-left" x="18.60" y="54.00"><tspan x="18.60" dy="0">助手完成無工具</tspan></text>
<line class="gate" x1="9.00" y1="54.00" x2="11.00" y2="54.00"/>
<text class="gate-label-left" x="8.60" y="54.00"><tspan x="8.60" dy="0">工具呼叫其他平行</tspan></text>
<line class="gate" x1="-1.00" y1="61.00" x2="1.00" y2="61.00"/>
<text class="gate-label-left" x="-1.40" y="60.32"><tspan x="-1.40" dy="0">已派發==是</tspan><tspan x="-1.40" dy="0.68">&amp;&amp; 父層回</tspan><tspan x="-1.40" dy="0.68">合已返回</tspan></text>
<line class="gate" x1="29.00" y1="63.00" x2="31.00" y2="63.00"/>
<text class="gate-label-left" x="28.60" y="63.00"><tspan x="28.60" dy="0">回覆已收到或已解析</tspan></text>
<line class="gate" x1="29.00" y1="98.00" x2="31.00" y2="98.00"/>
<text class="gate-label" x="31.40" y="98.00"><tspan x="31.40" dy="0">中止訊號已觸發</tspan></text>
<line class="gate" x1="19.00" y1="76.00" x2="21.00" y2="76.00"/>
<text class="gate-label-left" x="18.60" y="76.00"><tspan x="18.60" dy="0">助手乾淨完成</tspan></text>
<line class="gate" x1="9.00" y1="61.00" x2="11.00" y2="61.00"/>
<text class="gate-label-left" x="8.60" y="61.00"><tspan x="8.60" dy="0">所有工具結果就緒</tspan></text>
<line class="gate" x1="9.00" y1="76.00" x2="11.00" y2="76.00"/>
<text class="gate-label-left" x="8.60" y="76.00"><tspan x="8.60" dy="0">工具結果已提交</tspan></text>
<line class="gate" x1="39.00" y1="98.00" x2="41.00" y2="98.00"/>
<text class="gate-label" x="41.40" y="98.00"><tspan x="41.40" dy="0">無配額觸發</tspan></text>
<line class="gate" x1="-9.00" y1="98.00" x2="-7.00" y2="98.00"/>
<text class="gate-label" x="-6.60" y="98.00"><tspan x="-6.60" dy="0">已啟用 &amp;&amp; (下一個可執行待辦!=空 || 補充啟用規劃)</tspan></text>
<line class="gate" x1="19.00" y1="100.00" x2="21.00" y2="100.00"/>
<text class="gate-label-left" x="18.60" y="100.00"><tspan x="18.60" dy="0">停止：子代理會話或未啟用或待辦完成</tspan></text>
<line class="gate" x1="19.00" y1="113.00" x2="21.00" y2="113.00"/>
<text class="gate-label-left" x="18.60" y="112.32"><tspan x="18.60" dy="0">下一個使用者訊息</tspan></text>
<line class="gate" x1="39.00" y1="113.00" x2="41.00" y2="113.00"/>
<text class="gate-label-left" x="38.60" y="113.00"><tspan x="38.60" dy="0">排程心跳派發到期工作</tspan></text>
<circle class="junction" cx="20.00" cy="45.00" r="0.22"/>
<circle class="branch-junction" cx="30.00" cy="63.00" r="0.22"/>
<circle class="junction" cx="-12.00" cy="113.00" r="0.22"/>
<circle class="branch-junction" cx="20.00" cy="85.00" r="0.28"/>
</svg>