<svg xmlns="http://www.w3.org/2000/svg" width="1522" height="1000" viewBox="-6.00 -2.00 76.08 50.00" role="img">
<style>
.step{fill:#fff;stroke:#111;stroke-width:.14}.step-inner{fill:none;stroke:#111;stroke-width:.08}
.action{fill:#fff;stroke:#111;stroke-width:.14}.gate{stroke:#111;stroke-width:.16}
.edge{fill:none;stroke:#111;stroke-width:.05;stroke-linecap:round;stroke-linejoin:round}.edge-arrow{marker-end:url(#arrow)}
.flyover-mask{stroke:#fff;stroke-width:.12;stroke-linecap:round}
.flyover{fill:none;stroke:#111;stroke-width:.05;stroke-linecap:round}
.junction{fill:#111;stroke:#111;stroke-width:0}.branch-junction{fill:#fff;stroke:#111;stroke-width:.08}
.assoc{stroke:#111;stroke-width:.05}.label{font:bold .7px 'Times New Roman', 'BiauKai', 'DFKai-SB', serif;text-anchor:middle;dominant-baseline:middle}
.action-label{font:.55px 'Times New Roman', 'BiauKai', 'DFKai-SB', serif;text-anchor:middle;dominant-baseline:middle}.gate-label{font:italic .55px 'Times New Roman', 'BiauKai', 'DFKai-SB', serif;text-anchor:start;dominant-baseline:middle}.gate-label-left{font:italic .55px 'Times New Roman', 'BiauKai', 'DFKai-SB', serif;text-anchor:end;dominant-baseline:middle}
</style>
<defs><marker id="arrow" markerWidth="0.4" markerHeight="0.4" refX="0.36" refY="0.2" orient="auto" markerUnits="userSpaceOnUse"><path d="M 0 0 L 0.4 0.2 L 0 0.4 z" fill="#111"/></marker></defs>
<rect x="-6.00" y="-2.00" width="76.08" height="50.00" fill="white"/>
<path class="edge edge-arrow" d="M 24.77 9.00 L 24.77 13.00"/>
<path class="edge" d="M 24.77 7.00 L 24.77 9.00"/>
<path class="edge edge-arrow" d="M 24.77 16.00 L 24.77 18.00"/>
<path class="edge edge-arrow" d="M 39.54 18.00 L 39.54 22.00"/>
<path class="edge edge-arrow" d="M 10.00 18.00 L 10.00 22.00"/>
<path class="edge edge-arrow" d="M 24.77 18.00 L 24.77 22.00"/>
<path class="edge edge-arrow" d="M 39.54 25.00 L 39.54 35.00"/>
<path class="edge" d="M 24.77 35.00 L 24.77 37.00"/>
<path class="edge" d="M 24.77 37.00 L 2.00 37.00"/>
<path class="edge" d="M 2.00 37.00 L 2.00 11.00"/>
<path class="edge" d="M 2.00 11.00 L 24.77 11.00"/>
<path class="edge edge-arrow" d="M 54.31 35.00 L 54.31 37.00"/>
<path class="edge" d="M 10.00 25.00 L 10.00 27.00"/>
<path class="edge edge-arrow" d="M 10.00 27.00 L 10.00 30.50 Q 10.00 31.00 9.50 31.00 L -1.50 31.00 Q -2.00 31.00 -2.00 30.50 L -2.00 2.50 Q -2.00 2.00 -1.50 2.00 L 24.27 2.00 Q 24.77 2.00 24.77 2.50 L 24.77 4.00"/>
<path class="edge" d="M 24.77 25.00 L 24.77 29.00"/>
<path class="edge" d="M 24.77 29.00 L 24.77 31.00"/>
<path class="edge" d="M 24.77 31.00 L 10.00 31.00"/>
<path class="edge" d="M 54.31 40.00 L 54.31 42.00"/>
<path class="edge" d="M 54.31 42.00 L 54.31 44.00"/>
<path class="edge" d="M 54.31 44.00 L -2.00 44.00"/>
<path class="edge" d="M -2.00 44.00 L -2.00 31.00"/>
<rect class="step" x="22.77" y="4.00" width="4.00" height="3.00"/>
<rect class="step-inner" x="23.02" y="4.25" width="3.50" height="2.50"/>
<text class="label" x="24.77" y="5.50">0</text>
<rect class="step" x="22.77" y="13.00" width="4.00" height="3.00"/>
<text class="label" x="24.77" y="14.50">1</text>
<rect class="step" x="37.54" y="22.00" width="4.00" height="3.00"/>
<text class="label" x="39.54" y="23.50">2</text>
<rect class="step" x="8.00" y="22.00" width="4.00" height="3.00"/>
<text class="label" x="10.00" y="23.50">3</text>
<rect class="step" x="22.77" y="22.00" width="4.00" height="3.00"/>
<text class="label" x="24.77" y="23.50">4</text>
<rect class="step" x="52.31" y="37.00" width="4.00" height="3.00"/>
<text class="label" x="54.31" y="38.50">5</text>
<line class="assoc" x1="26.77" y1="5.50" x2="27.77" y2="5.50"/>
<rect class="action" x="27.77" y="4.07" width="8.77" height="2.86" rx="0.45" ry="0.45"/>
<text class="action-label" x="32.16" y="5.09"><tspan x="32.16" dy="0">Session idle; runloop does not p</tspan><tspan x="32.16" dy="0.82">ump autonomous continuations</tspan></text>
<line class="assoc" x1="26.77" y1="14.50" x2="27.77" y2="14.50"/>
<rect class="action" x="27.77" y="13.07" width="8.77" height="2.86" rx="0.45" ry="0.45"/>
<text class="action-label" x="32.16" y="13.68"><tspan x="32.16" dy="0">Autorun armed; runloop pu</tspan><tspan x="32.16" dy="0.82">mps continuation when tod</tspan><tspan x="32.16" dy="0.82">olist has actionable items</tspan></text>
<line class="assoc" x1="41.54" y1="23.50" x2="42.54" y2="23.50"/>
<rect class="action" x="42.54" y="22.07" width="8.77" height="2.86" rx="0.45" ry="0.45"/>
<text class="action-label" x="46.92" y="23.09"><tspan x="46.92" dy="0">Refill TodoWrite from tasks.md n</tspan><tspan x="46.92" dy="0.82">ext phase; log autorun.refill event</tspan></text>
<line class="assoc" x1="12.00" y1="23.50" x2="13.00" y2="23.50"/>
<rect class="action" x="13.00" y="22.07" width="8.77" height="2.86" rx="0.45" ry="0.45"/>
<text class="action-label" x="17.38" y="22.68"><tspan x="17.38" dy="0">Disarm: flip autorun_armed to</tspan><tspan x="17.38" dy="0.82">false; log autorun.disarmed wit</tspan><tspan x="17.38" dy="0.82">h reason; .state.json unchanged</tspan></text>
<line class="assoc" x1="26.77" y1="23.50" x2="27.77" y2="23.50"/>
<rect class="action" x="27.77" y="22.07" width="8.77" height="2.86" rx="0.45" ry="0.45"/>
<text class="action-label" x="32.16" y="22.68"><tspan x="32.16" dy="0">Demote .state.json implementing-</tspan><tspan x="32.16" dy="0.82">&gt;planned; flip autorun_armed to f</tspan><tspan x="32.16" dy="0.82">alse; log autorun.demoted_by_edit</tspan></text>
<line class="assoc" x1="56.31" y1="38.50" x2="57.31" y2="38.50"/>
<rect class="action" x="57.31" y="37.07" width="8.77" height="2.86" rx="0.45" ry="0.45"/>
<text class="action-label" x="61.70" y="37.68"><tspan x="61.70" dy="0">Plan fully drained; flip autorun_arm</tspan><tspan x="61.70" dy="0.82">ed to false; emit autorun.complete</tspan><tspan x="61.70" dy="0.82">d; return stop reason plan_drained</tspan></text>
<line class="gate" x1="23.77" y1="9.00" x2="25.77" y2="9.00"/>
<text class="gate-label" x="26.17" y="9.00"><tspan x="26.17" dy="0">arm_signal_received AND binding_valid AND state IN {planned, implementing} AND has_actionable_todo</tspan></text>
<line class="gate" x1="6.00" y1="18.00" x2="43.54" y2="18.00"/>
<line class="gate" x1="20.77" y1="35.00" x2="58.31" y2="35.00"/>
<line class="gate" x1="9.00" y1="27.00" x2="11.00" y2="27.00"/>
<text class="gate-label" x="11.40" y="27.00"><tspan x="11.40" dy="0">disarm_complete</tspan></text>
<line class="gate" x1="23.77" y1="29.00" x2="25.77" y2="29.00"/>
<text class="gate-label" x="26.17" y="29.00"><tspan x="26.17" dy="0">demotion_complete</tspan></text>
<line class="gate" x1="53.31" y1="42.00" x2="55.31" y2="42.00"/>
<text class="gate-label" x="55.71" y="42.00"><tspan x="55.71" dy="0">cleanup_complete</tspan></text>
<line class="gate" x1="38.54" y1="20.00" x2="40.54" y2="20.00"/>
<text class="gate-label" x="40.94" y="20.00"><tspan x="40.94" dy="0">todolist_drained AND plan_has_next_phase</tspan></text>
<line class="gate" x1="9.00" y1="20.00" x2="11.00" y2="20.00"/>
<text class="gate-label" x="11.40" y="20.00"><tspan x="11.40" dy="0">user_speaks OR blocker_fires OR abort_signal</tspan></text>
<line class="gate" x1="23.77" y1="20.00" x2="25.77" y2="20.00"/>
<text class="gate-label" x="26.17" y="20.00"><tspan x="26.17" dy="0">plan_edit_during_implementing</tspan></text>
<line class="gate" x1="23.77" y1="33.00" x2="25.77" y2="33.00"/>
<text class="gate-label-left" x="23.37" y="33.00"><tspan x="23.37" dy="0">refill_non_empty</tspan></text>
<line class="gate" x1="53.31" y1="33.00" x2="55.31" y2="33.00"/>
<text class="gate-label-left" x="52.91" y="33.00"><tspan x="52.91" dy="0">refill_empty</tspan></text>
<circle class="junction" cx="24.77" cy="11.00" r="0.22"/>
<circle class="junction" cx="10.00" cy="31.00" r="0.22"/>
<circle class="junction" cx="-2.00" cy="31.00" r="0.22"/>
</svg>