<svg xmlns="http://www.w3.org/2000/svg" width="1040" height="1920" viewBox="-6.00 -2.00 52.00 96.00" role="img">
<style>
.step{fill:#fff;stroke:#111;stroke-width:.14}.step-inner{fill:none;stroke:#111;stroke-width:.08}
.action{fill:#fff;stroke:#111;stroke-width:.14}.gate{stroke:#111;stroke-width:.16}
.edge{fill:none;stroke:#111;stroke-width:.05;stroke-linecap:round;stroke-linejoin:round}.edge-arrow{marker-end:url(#arrow)}
.flyover-mask{stroke:#fff;stroke-width:.12;stroke-linecap:round}
.flyover{fill:none;stroke:#111;stroke-width:.05;stroke-linecap:round}
.junction{fill:#111;stroke:#111;stroke-width:0}.branch-junction{fill:#fff;stroke:#111;stroke-width:.08}
.assoc{stroke:#111;stroke-width:.05}.label{font:bold .7px 'Times New Roman', 'BiauKai', 'DFKai-SB', serif;text-anchor:middle;dominant-baseline:middle}
.action-label{font:.55px 'Times New Roman', 'BiauKai', 'DFKai-SB', serif;text-anchor:middle;dominant-baseline:middle}.gate-label{font:italic .55px 'Times New Roman', 'BiauKai', 'DFKai-SB', serif;text-anchor:start;dominant-baseline:middle}.gate-label-left{font:italic .55px 'Times New Roman', 'BiauKai', 'DFKai-SB', serif;text-anchor:end;dominant-baseline:middle}
</style>
<defs><marker id="arrow" markerWidth="0.4" markerHeight="0.4" refX="0.36" refY="0.2" orient="auto" markerUnits="userSpaceOnUse"><path d="M 0 0 L 0.4 0.2 L 0 0.4 z" fill="#111"/></marker></defs>
<rect x="-6.00" y="-2.00" width="52.00" height="96.00" fill="white"/>
<path class="edge edge-arrow" d="M 20.00 34.00 L 20.00 38.00"/>
<path class="edge" d="M 20.00 7.00 L 20.00 9.00"/>
<path class="edge edge-arrow" d="M 20.00 9.00 L 20.00 11.00"/>
<path class="edge" d="M 20.00 14.00 L 20.00 16.00"/>
<path class="edge edge-arrow" d="M 20.00 16.00 L 20.00 18.00"/>
<path class="edge" d="M 20.00 21.00 L 20.00 23.00"/>
<path class="edge" d="M 20.00 23.00 L 20.00 25.00"/>
<path class="edge edge-arrow" d="M 20.00 25.00 L 20.00 29.00"/>
<path class="edge edge-arrow" d="M 20.00 23.00 L 39.50 23.00 Q 40.00 23.00 40.00 23.50 L 40.00 79.00"/>
<path class="edge edge-arrow" d="M 20.00 79.00 L 20.00 83.00"/>
<path class="edge" d="M 20.00 32.00 L 20.00 34.00"/>
<path class="edge edge-arrow" d="M 20.00 41.00 L 20.00 43.00"/>
<path class="edge edge-arrow" d="M 10.00 43.00 L 10.00 47.00"/>
<path class="edge edge-arrow" d="M 20.00 43.00 L 20.00 47.00"/>
<path class="edge edge-arrow" d="M 30.00 43.00 L 30.00 47.00"/>
<path class="edge" d="M 10.00 50.00 L 10.00 52.00"/>
<path class="edge" d="M 10.00 52.00 L 10.00 54.00"/>
<path class="edge" d="M 10.00 54.00 L 2.00 54.00"/>
<path class="edge" d="M 2.00 54.00 L 2.00 36.00"/>
<path class="edge" d="M 2.00 36.00 L 20.00 36.00"/>
<path class="edge edge-arrow" d="M 20.00 50.00 L 20.00 56.00"/>
<path class="edge edge-arrow" d="M 10.00 56.00 L 10.00 58.00"/>
<path class="edge edge-arrow" d="M 20.00 56.00 L 20.00 58.00"/>
<path class="edge edge-arrow" d="M 10.00 61.00 L 10.00 63.00"/>
<path class="edge edge-arrow" d="M 20.00 63.00 L 20.00 67.00"/>
<path class="edge edge-arrow" d="M 20.00 61.00 L 20.00 63.00"/>
<path class="edge" d="M 20.00 70.00 L 20.00 72.00"/>
<path class="edge edge-arrow" d="M 20.00 72.00 L 20.00 74.00"/>
<path class="edge edge-arrow" d="M 20.00 77.00 L 20.00 79.00"/>
<path class="edge edge-arrow" d="M 30.00 50.00 L 30.00 79.00"/>
<path class="edge" d="M 20.00 86.00 L 20.00 88.00"/>
<path class="edge edge-arrow" d="M 20.00 88.00 L 20.00 89.50 Q 20.00 90.00 19.50 90.00 L -1.50 90.00 Q -2.00 90.00 -2.00 89.50 L -2.00 2.50 Q -2.00 2.00 -1.50 2.00 L 19.50 2.00 Q 20.00 2.00 20.00 2.50 L 20.00 4.00"/>
<rect class="step" x="18.00" y="4.00" width="4.00" height="3.00"/>
<rect class="step-inner" x="18.25" y="4.25" width="3.50" height="2.50"/>
<text class="label" x="20.00" y="5.50">0</text>
<rect class="step" x="18.00" y="11.00" width="4.00" height="3.00"/>
<text class="label" x="20.00" y="12.50">1</text>
<rect class="step" x="18.00" y="18.00" width="4.00" height="3.00"/>
<text class="label" x="20.00" y="19.50">2</text>
<rect class="step" x="18.00" y="29.00" width="4.00" height="3.00"/>
<text class="label" x="20.00" y="30.50">3</text>
<rect class="step" x="18.00" y="38.00" width="4.00" height="3.00"/>
<text class="label" x="20.00" y="39.50">4</text>
<rect class="step" x="8.00" y="47.00" width="4.00" height="3.00"/>
<text class="label" x="10.00" y="48.50">5</text>
<rect class="step" x="18.00" y="47.00" width="4.00" height="3.00"/>
<text class="label" x="20.00" y="48.50">6</text>
<rect class="step" x="8.00" y="58.00" width="4.00" height="3.00"/>
<text class="label" x="10.00" y="59.50">7</text>
<rect class="step" x="18.00" y="58.00" width="4.00" height="3.00"/>
<text class="label" x="20.00" y="59.50">8</text>
<rect class="step" x="18.00" y="67.00" width="4.00" height="3.00"/>
<text class="label" x="20.00" y="68.50">9</text>
<rect class="step" x="18.00" y="74.00" width="4.00" height="3.00"/>
<text class="label" x="20.00" y="75.50">10</text>
<rect class="step" x="28.00" y="47.00" width="4.00" height="3.00"/>
<text class="label" x="30.00" y="48.50">11</text>
<rect class="step" x="18.00" y="83.00" width="4.00" height="3.00"/>
<text class="label" x="20.00" y="84.50">12</text>
<line class="assoc" x1="22.00" y1="5.50" x2="23.00" y2="5.50"/>
<rect class="action" x="23.00" y="4.07" width="4.00" height="2.86" rx="0.45" ry="0.45"/>
<text class="action-label" x="25.00" y="4.68"><tspan x="25.00" dy="0">等待下</tspan><tspan x="25.00" dy="0.82">一個runl</tspan><tspan x="25.00" dy="0.82">oopiteration</tspan></text>
<line class="assoc" x1="22.00" y1="12.50" x2="23.00" y2="12.50"/>
<rect class="action" x="23.00" y="11.07" width="4.00" height="2.86" rx="0.45" ry="0.45"/>
<text class="action-label" x="25.00" y="12.09"><tspan x="25.00" dy="0">DeriveObser</tspan><tspan x="25.00" dy="0.82">vedCondition</tspan></text>
<line class="assoc" x1="22.00" y1="19.50" x2="23.00" y2="19.50"/>
<rect class="action" x="23.00" y="18.07" width="4.00" height="2.86" rx="0.45" ry="0.45"/>
<text class="action-label" x="25.00" y="18.68"><tspan x="25.00" dy="0">checkcoo</tspan><tspan x="25.00" dy="0.82">ldown與</tspan><tspan x="25.00" dy="0.82">閒置tail</tspan></text>
<line class="assoc" x1="22.00" y1="30.50" x2="23.00" y2="30.50"/>
<rect class="action" x="23.00" y="29.07" width="4.00" height="2.86" rx="0.45" ry="0.45"/>
<text class="action-label" x="25.00" y="30.09"><tspan x="25.00" dy="0">解析k</tspan><tspan x="25.00" dy="0.82">indchain</tspan></text>
<line class="assoc" x1="22.00" y1="39.50" x2="23.00" y2="39.50"/>
<rect class="action" x="23.00" y="38.07" width="4.00" height="2.86" rx="0.45" ry="0.45"/>
<text class="action-label" x="25.00" y="38.68"><tspan x="25.00" dy="0">try下一</tspan><tspan x="25.00" dy="0.82">個kind</tspan><tspan x="25.00" dy="0.82">在chain</tspan></text>
<line class="assoc" x1="12.00" y1="48.50" x2="13.00" y2="48.50"/>
<rect class="action" x="13.00" y="47.07" width="4.00" height="2.86" rx="0.45" ry="0.45"/>
<text class="action-label" x="15.00" y="47.68"><tspan x="15.00" dy="0">advance到</tspan><tspan x="15.00" dy="0.82">下一個</tspan><tspan x="15.00" dy="0.82">chainindex</tspan></text>
<line class="assoc" x1="22.00" y1="48.50" x2="23.00" y2="48.50"/>
<rect class="action" x="23.00" y="47.07" width="4.00" height="2.86" rx="0.45" ry="0.45"/>
<text class="action-label" x="25.00" y="48.09"><tspan x="25.00" dy="0">branch在an</tspan><tspan x="25.00" dy="0.82">chorwriter</tspan></text>
<line class="assoc" x1="12.00" y1="59.50" x2="13.00" y2="59.50"/>
<rect class="action" x="13.00" y="58.07" width="4.00" height="2.86" rx="0.45" ry="0.45"/>
<text class="action-label" x="15.00" y="58.68"><tspan x="15.00" dy="0">writesan</tspan><tspan x="15.00" dy="0.82">itizedanc</tspan><tspan x="15.00" dy="0.82">hor訊息</tspan></text>
<line class="assoc" x1="22.00" y1="59.50" x2="23.00" y2="59.50"/>
<rect class="action" x="23.00" y="58.07" width="4.00" height="2.86" rx="0.45" ry="0.45"/>
<text class="action-label" x="25.00" y="58.68"><tspan x="25.00" dy="0">發出壓縮</tspan><tspan x="25.00" dy="0.82">started與ki</tspan><tspan x="25.00" dy="0.82">ndtelemetry</tspan></text>
<line class="assoc" x1="22.00" y1="68.50" x2="23.00" y2="68.50"/>
<rect class="action" x="23.00" y="67.07" width="4.00" height="2.86" rx="0.45" ry="0.45"/>
<text class="action-label" x="25.00" y="67.68"><tspan x="25.00" dy="0">inject合</tspan><tspan x="25.00" dy="0.82">成繼續</tspan><tspan x="25.00" dy="0.82">ifallowed</tspan></text>
<line class="assoc" x1="22.00" y1="75.50" x2="23.00" y2="75.50"/>
<rect class="action" x="23.00" y="74.07" width="4.00" height="2.86" rx="0.45" ry="0.45"/>
<text class="action-label" x="25.00" y="74.68"><tspan x="25.00" dy="0">apply快取</tspan><tspan x="25.00" dy="0.82">layout與st</tspan><tspan x="25.00" dy="0.82">aticsystem</tspan></text>
<line class="assoc" x1="32.00" y1="48.50" x2="33.00" y2="48.50"/>
<rect class="action" x="33.00" y="47.07" width="4.00" height="2.86" rx="0.45" ry="0.45"/>
<text class="action-label" x="35.00" y="48.09"><tspan x="35.00" dy="0">abort使用</tspan><tspan x="35.00" dy="0.82">stopverdict</tspan></text>
<line class="assoc" x1="22.00" y1="84.50" x2="23.00" y2="84.50"/>
<rect class="action" x="23.00" y="83.07" width="4.00" height="2.86" rx="0.45" ry="0.45"/>
<text class="action-label" x="25.00" y="84.09"><tspan x="25.00" dy="0">返回verdic</tspan><tspan x="25.00" dy="0.82">t到runloop</tspan></text>
<line class="gate" x1="19.00" y1="9.00" x2="21.00" y2="9.00"/>
<text class="gate-label" x="21.40" y="9.00"><tspan x="21.40" dy="0">runloopiterationstarted</tspan></text>
<line class="gate" x1="19.00" y1="16.00" x2="21.00" y2="16.00"/>
<text class="gate-label" x="21.40" y="16.00"><tspan x="21.40" dy="0">deriveobserveddone</tspan></text>
<line class="gate" x1="19.00" y1="25.00" x2="21.00" y2="25.00"/>
<text class="gate-label" x="21.40" y="25.00"><tspan x="21.40" dy="0">observed != null &amp;&amp; cooldownclear &amp;&amp; tailclean</tspan></text>
<line class="gate" x1="18.00" y1="78.85" x2="42.00" y2="78.85"/>
<line class="gate" x1="18.00" y1="79.15" x2="42.00" y2="79.15"/>
<line class="gate" x1="19.00" y1="34.00" x2="21.00" y2="34.00"/>
<text class="gate-label" x="21.40" y="34.00"><tspan x="21.40" dy="0">chain已解析</tspan></text>
<line class="gate" x1="6.00" y1="43.00" x2="34.00" y2="43.00"/>
<line class="gate" x1="9.00" y1="52.00" x2="11.00" y2="52.00"/>
<text class="gate-label" x="11.40" y="52.00"><tspan x="11.40" dy="0">indexincremented</tspan></text>
<line class="gate" x1="8.00" y1="55.85" x2="22.00" y2="55.85"/>
<line class="gate" x1="8.00" y1="56.15" x2="22.00" y2="56.15"/>
<line class="gate" x1="8.00" y1="62.85" x2="22.00" y2="62.85"/>
<line class="gate" x1="8.00" y1="63.15" x2="22.00" y2="63.15"/>
<line class="gate" x1="19.00" y1="72.00" x2="21.00" y2="72.00"/>
<text class="gate-label-left" x="18.60" y="72.00"><tspan x="18.60" dy="0">INJECT CONTINUE[observed] applied 或 skipped</tspan></text>
<line class="gate" x1="19.00" y1="88.00" x2="21.00" y2="88.00"/>
<text class="gate-label" x="21.40" y="88.00"><tspan x="21.40" dy="0">runloopresumed</tspan></text>
<line class="gate" x1="19.00" y1="81.00" x2="21.00" y2="81.00"/>
<text class="gate-label-left" x="18.60" y="81.00"><tspan x="18.60" dy="0">observed == null || cooldownactive || (observed == 閒置 &amp;&amp; tailunclean)</tspan></text>
<line class="gate" x1="9.00" y1="45.00" x2="11.00" y2="45.00"/>
<text class="gate-label" x="11.40" y="44.32"><tspan x="11.40" dy="0">attempt.ok &amp;&amp; !(l</tspan><tspan x="11.40" dy="0.68">ocal &amp;&amp; truncated</tspan><tspan x="11.40" dy="0.68">&amp;&amp; paidremaining)</tspan></text>
<line class="gate" x1="19.00" y1="45.00" x2="21.00" y2="45.00"/>
<text class="gate-label" x="21.40" y="44.32"><tspan x="21.40" dy="0">attempt.faile</tspan><tspan x="21.40" dy="0.68">d || localtrunc</tspan><tspan x="21.40" dy="0.68">atedescalate</tspan></text>
<line class="gate" x1="29.00" y1="45.00" x2="31.00" y2="45.00"/>
<text class="gate-label" x="31.40" y="45.00"><tspan x="31.40" dy="0">chainexhausted</tspan></text>
<line class="gate" x1="19.00" y1="54.00" x2="21.00" y2="54.00"/>
<text class="gate-label-left" x="18.60" y="54.68"><tspan x="18.60" dy="0">anchorwritteninline || anchor待處理</tspan></text>
<line class="gate" x1="19.00" y1="65.00" x2="21.00" y2="65.00"/>
<text class="gate-label-left" x="18.60" y="65.00"><tspan x="18.60" dy="0">anchorpersisted &amp;&amp; telemetryemitted</tspan></text>
<circle class="junction" cx="20.00" cy="36.00" r="0.22"/>
<circle class="branch-junction" cx="20.00" cy="23.00" r="0.28"/>
</svg>