<svg xmlns="http://www.w3.org/2000/svg" width="2094" height="1660" viewBox="-16.00 -2.00 104.72 83.00" role="img">
<style>
.step{fill:#fff;stroke:#111;stroke-width:.14}.step-inner{fill:none;stroke:#111;stroke-width:.08}
.action{fill:#fff;stroke:#111;stroke-width:.14}.gate{stroke:#111;stroke-width:.16}
.edge{fill:none;stroke:#111;stroke-width:.05;stroke-linecap:round;stroke-linejoin:round}.edge-arrow{marker-end:url(#arrow)}
.flyover-mask{stroke:#fff;stroke-width:.12;stroke-linecap:round}
.flyover{fill:none;stroke:#111;stroke-width:.05;stroke-linecap:round}
.junction{fill:#111;stroke:#111;stroke-width:0}.branch-junction{fill:#fff;stroke:#111;stroke-width:.08}
.assoc{stroke:#111;stroke-width:.05}.label{font:bold .7px 'Times New Roman', 'BiauKai', 'DFKai-SB', serif;text-anchor:middle;dominant-baseline:middle}
.action-label{font:.55px 'Times New Roman', 'BiauKai', 'DFKai-SB', serif;text-anchor:middle;dominant-baseline:middle}.gate-label{font:italic .55px 'Times New Roman', 'BiauKai', 'DFKai-SB', serif;text-anchor:start;dominant-baseline:middle}.gate-label-left{font:italic .55px 'Times New Roman', 'BiauKai', 'DFKai-SB', serif;text-anchor:end;dominant-baseline:middle}
</style>
<defs><marker id="arrow" markerWidth="0.4" markerHeight="0.4" refX="0.36" refY="0.2" orient="auto" markerUnits="userSpaceOnUse"><path d="M 0 0 L 0.4 0.2 L 0 0.4 z" fill="#111"/></marker></defs>
<rect x="-16.00" y="-2.00" width="104.72" height="83.00" fill="white"/>
<path class="edge edge-arrow" d="M 58.48 16.00 L 58.48 20.00"/>
<path class="edge" d="M 58.48 7.00 L 58.48 9.00"/>
<path class="edge edge-arrow" d="M 58.48 9.00 L 58.48 11.00"/>
<path class="edge" d="M 58.48 14.00 L 58.48 16.00"/>
<path class="edge edge-arrow" d="M 58.48 23.00 L 58.48 25.00"/>
<path class="edge edge-arrow" d="M 29.24 25.00 L 29.24 29.00"/>
<path class="edge edge-arrow" d="M 58.48 25.00 L 58.48 29.00"/>
<path class="edge" d="M 29.24 32.00 L 29.24 34.00"/>
<path class="edge edge-arrow" d="M 29.24 34.00 L 29.24 36.00"/>
<path class="edge" d="M 29.24 39.00 L 29.24 41.00"/>
<path class="edge edge-arrow" d="M 29.24 41.00 L 29.24 43.00"/>
<path class="edge edge-arrow" d="M 29.24 46.00 L 29.24 48.00"/>
<path class="edge edge-arrow" d="M 0.00 48.00 L 0.00 52.00"/>
<path class="edge edge-arrow" d="M 29.24 48.00 L 29.24 52.00"/>
<path class="edge" d="M 0.00 55.00 L 0.00 57.00"/>
<path class="edge" d="M 0.00 57.00 L 0.00 59.00"/>
<path class="edge" d="M 0.00 59.00 L -8.00 59.00"/>
<path class="edge" d="M -8.00 59.00 L -8.00 18.00"/>
<path class="edge" d="M -8.00 18.00 L 58.48 18.00"/>
<path class="edge edge-arrow" d="M 29.24 55.00 L 29.24 61.00"/>
<path class="edge edge-arrow" d="M 58.48 61.00 L 58.48 63.00"/>
<path class="edge edge-arrow" d="M 58.48 32.00 L 58.48 61.00"/>
<path class="edge" d="M 58.48 66.00 L 58.48 68.00"/>
<path class="edge edge-arrow" d="M 58.48 68.00 L 58.48 70.00"/>
<path class="edge" d="M 58.48 73.00 L 58.48 75.00"/>
<path class="edge edge-arrow" d="M 58.48 75.00 L 58.48 76.50 Q 58.48 77.00 57.98 77.00 L -11.50 77.00 Q -12.00 77.00 -12.00 76.50 L -12.00 2.50 Q -12.00 2.00 -11.50 2.00 L 57.98 2.00 Q 58.48 2.00 58.48 2.50 L 58.48 4.00"/>
<rect class="step" x="56.48" y="4.00" width="4.00" height="3.00"/>
<rect class="step-inner" x="56.73" y="4.25" width="3.50" height="2.50"/>
<text class="label" x="58.48" y="5.50">0</text>
<rect class="step" x="56.48" y="11.00" width="4.00" height="3.00"/>
<text class="label" x="58.48" y="12.50">1</text>
<rect class="step" x="56.48" y="20.00" width="4.00" height="3.00"/>
<text class="label" x="58.48" y="21.50">2</text>
<rect class="step" x="27.24" y="29.00" width="4.00" height="3.00"/>
<text class="label" x="29.24" y="30.50">3</text>
<rect class="step" x="27.24" y="36.00" width="4.00" height="3.00"/>
<text class="label" x="29.24" y="37.50">4</text>
<rect class="step" x="27.24" y="43.00" width="4.00" height="3.00"/>
<text class="label" x="29.24" y="44.50">5</text>
<rect class="step" x="-2.00" y="52.00" width="4.00" height="3.00"/>
<text class="label" x="0.00" y="53.50">6</text>
<rect class="step" x="27.24" y="52.00" width="4.00" height="3.00"/>
<text class="label" x="29.24" y="53.50">7</text>
<rect class="step" x="56.48" y="29.00" width="4.00" height="3.00"/>
<text class="label" x="58.48" y="30.50">8</text>
<rect class="step" x="56.48" y="63.00" width="4.00" height="3.00"/>
<text class="label" x="58.48" y="64.50">9</text>
<rect class="step" x="56.48" y="70.00" width="4.00" height="3.00"/>
<text class="label" x="58.48" y="71.50">10</text>
<line class="assoc" x1="60.48" y1="5.50" x2="61.48" y2="5.50"/>
<rect class="action" x="61.48" y="4.07" width="23.24" height="2.86" rx="0.45" ry="0.45"/>
<text class="action-label" x="73.10" y="5.50"><tspan x="73.10" dy="0">Idle; provider awaiting next codex doStream call</tspan></text>
<line class="assoc" x1="60.48" y1="12.50" x2="61.48" y2="12.50"/>
<rect class="action" x="61.48" y="11.07" width="23.24" height="2.86" rx="0.45" ry="0.45"/>
<text class="action-label" x="73.10" y="11.68"><tspan x="73.10" dy="0">DD-1: derivePredictedCacheMiss(sessionExec, lastFinished) return</tspan><tspan x="73.10" dy="0.82">s hit/miss/unknown based on observable cache.read; sticky continua</tspan><tspan x="73.10" dy="0.82">tionInvalidatedAt no longer forces miss when cache evidence is alive</tspan></text>
<line class="assoc" x1="60.48" y1="21.50" x2="61.48" y2="21.50"/>
<rect class="action" x="61.48" y="20.07" width="23.24" height="2.86" rx="0.45" ry="0.45"/>
<text class="action-label" x="73.10" y="20.68"><tspan x="73.10" dy="0">WS streaming via transport-ws.ts wsRequest; observes frames; mutates ws</tspan><tspan x="73.10" dy="0.82">Obs (frameCount, terminalEventReceived, wsCloseCode, wsCloseReason, wsE</tspan><tspan x="73.10" dy="0.82">rrorReason); SSE pipeline consumes frames in parallel emitting LMv2 parts</tspan></text>
<line class="assoc" x1="31.24" y1="30.50" x2="32.24" y2="30.50"/>
<rect class="action" x="32.24" y="29.07" width="23.24" height="2.86" rx="0.45" ry="0.45"/>
<text class="action-label" x="43.86" y="29.68"><tspan x="43.86" dy="0">Classify empty turn; predicate ladder selects causeFamily and recove</tspan><tspan x="43.86" dy="0.82">ryAction; ws_no_frames now covers both clean close-without-frame</tspan><tspan x="43.86" dy="0.82">s and onerror-without-frames cases (wsErrorReason discriminates)</tspan></text>
<line class="assoc" x1="31.24" y1="37.50" x2="32.24" y2="37.50"/>
<rect class="action" x="32.24" y="36.07" width="23.24" height="2.86" rx="0.45" ry="0.45"/>
<text class="action-label" x="43.86" y="37.09"><tspan x="43.86" dy="0">Persist forensic evidence: empty-turn-log appends JSONL line including ws</tspan><tspan x="43.86" dy="0.82">ErrorReason field; non-blocking on file write failure (CET-001 breadcrumb)</tspan></text>
<line class="assoc" x1="31.24" y1="44.50" x2="32.24" y2="44.50"/>
<rect class="action" x="32.24" y="43.07" width="23.24" height="2.86" rx="0.45" ry="0.45"/>
<text class="action-label" x="43.86" y="44.50"><tspan x="43.86" dy="0">Apply recovery action selected by classifier; INV-08 retry cap demotion holds</tspan></text>
<line class="assoc" x1="2.00" y1="53.50" x2="3.00" y2="53.50"/>
<rect class="action" x="3.00" y="52.07" width="23.24" height="2.86" rx="0.45" ry="0.45"/>
<text class="action-label" x="14.62" y="53.09"><tspan x="14.62" dy="0">Retry attempt 2: WS reopens with same body; fl</tspan><tspan x="14.62" dy="0.82">ip retryAttempted=true; cap held at 1 by INV-08</tspan></text>
<line class="assoc" x1="31.24" y1="53.50" x2="32.24" y2="53.50"/>
<rect class="action" x="32.24" y="52.07" width="23.24" height="2.86" rx="0.45" ry="0.45"/>
<text class="action-label" x="43.86" y="52.68"><tspan x="43.86" dy="0">Emit finish part with finishReason + providerMetadata.openai.em</tspan><tspan x="43.86" dy="0.82">ptyTurnClassification; no exception ever leaves codex provider p</tspan><tspan x="43.86" dy="0.82">ackage (INV-01 preserved; DD-2 closes the leak that violated it)</tspan></text>
<line class="assoc" x1="60.48" y1="30.50" x2="61.48" y2="30.50"/>
<rect class="action" x="61.48" y="29.07" width="23.24" height="2.86" rx="0.45" ry="0.45"/>
<text class="action-label" x="73.10" y="30.09"><tspan x="73.10" dy="0">Normal completion: emit finish part with finishReason in {stop, tool-calls, length};</tspan><tspan x="73.10" dy="0.82">classifier was NOT invoked; no providerMetadata.emptyTurnClassification attached</tspan></text>
<line class="assoc" x1="60.48" y1="64.50" x2="61.48" y2="64.50"/>
<rect class="action" x="61.48" y="63.07" width="23.24" height="2.86" rx="0.45" ry="0.45"/>
<text class="action-label" x="73.10" y="63.68"><tspan x="73.10" dy="0">DD-3: processor.ts catch / isModelTemporaryError reads providerMetadata.openai.emptyTurn</tspan><tspan x="73.10" dy="0.82">Classification.causeFamily as opaque metadata; if present, returns false so handleRateLimitFa</tspan><tspan x="73.10" dy="0.82">llback is NOT invoked; else existing pattern matching continues for genuine 5xx/quota/overload</tspan></text>
<line class="assoc" x1="60.48" y1="71.50" x2="61.48" y2="71.50"/>
<rect class="action" x="61.48" y="70.07" width="23.24" height="2.86" rx="0.45" ry="0.45"/>
<text class="action-label" x="73.10" y="71.50"><tspan x="73.10" dy="0">Cycle complete; runloop processes nudge or normal finish; provider returns to idle</tspan></text>
<line class="gate" x1="57.48" y1="9.00" x2="59.48" y2="9.00"/>
<text class="gate-label" x="59.88" y="9.00"><tspan x="59.88" dy="0">doStream invoked from runloop</tspan></text>
<line class="gate" x1="57.48" y1="16.00" x2="59.48" y2="16.00"/>
<text class="gate-label" x="59.88" y="16.00"><tspan x="59.88" dy="0">predictedCacheMiss derived; (parallel) cache-equilibrium-detector observation step</tspan></text>
<line class="gate" x1="25.24" y1="25.00" x2="62.48" y2="25.00"/>
<line class="gate" x1="28.24" y1="34.00" x2="30.24" y2="34.00"/>
<text class="gate-label" x="30.64" y="34.00"><tspan x="30.64" dy="0">classification complete with wsErrorReason field threaded into payload</tspan></text>
<line class="gate" x1="28.24" y1="41.00" x2="30.24" y2="41.00"/>
<text class="gate-label" x="30.64" y="41.00"><tspan x="30.64" dy="0">log dispatch attempted</tspan></text>
<line class="gate" x1="-4.00" y1="48.00" x2="33.24" y2="48.00"/>
<line class="gate" x1="-1.00" y1="57.00" x2="1.00" y2="57.00"/>
<text class="gate-label" x="1.40" y="57.00"><tspan x="1.40" dy="0">WS reopened body resent</tspan></text>
<line class="gate" x1="27.24" y1="61.00" x2="60.48" y2="61.00"/>
<line class="gate" x1="57.48" y1="68.00" x2="59.48" y2="68.00"/>
<text class="gate-label" x="59.88" y="68.00"><tspan x="59.88" dy="0">rotation gate evaluated</tspan></text>
<line class="gate" x1="57.48" y1="75.00" x2="59.48" y2="75.00"/>
<text class="gate-label" x="59.88" y="75.00"><tspan x="59.88" dy="0">session ready for next turn</tspan></text>
<line class="gate" x1="28.24" y1="27.00" x2="30.24" y2="27.00"/>
<text class="gate-label-left" x="27.84" y="27.00"><tspan x="27.84" dy="0">stream_ended AND emittedTextDeltas == 0 AND emittedToolCalls == 0</tspan></text>
<line class="gate" x1="57.48" y1="27.00" x2="59.48" y2="27.00"/>
<text class="gate-label-left" x="57.08" y="27.00"><tspan x="57.08" dy="0">stream_ended AND (emittedTextDeltas &gt; 0 OR emittedToolCalls &gt; 0)</tspan></text>
<line class="gate" x1="-1.00" y1="50.00" x2="1.00" y2="50.00"/>
<text class="gate-label-left" x="-1.40" y="49.32"><tspan x="-1.40" dy="0">recoveryAction == retry-</tspan><tspan x="-1.40" dy="0.68">once-then-soft-fail AND</tspan><tspan x="-1.40" dy="0.68">retryAttempted == false</tspan></text>
<line class="gate" x1="28.24" y1="50.00" x2="30.24" y2="50.00"/>
<text class="gate-label-left" x="27.84" y="49.32"><tspan x="27.84" dy="0">recoveryAction IN {pass-through-to-runl</tspan><tspan x="27.84" dy="0.68">oop-nudge, log-and-continue, synthesize-</tspan><tspan x="27.84" dy="0.68">from-deltas} OR retryAttempted == true</tspan></text>
<line class="gate" x1="28.24" y1="57.00" x2="30.24" y2="57.00"/>
<text class="gate-label-left" x="27.84" y="57.00"><tspan x="27.84" dy="0">finish_with_classification_emitted</tspan></text>
<line class="gate" x1="57.48" y1="57.00" x2="59.48" y2="57.00"/>
<text class="gate-label-left" x="57.08" y="57.00"><tspan x="57.08" dy="0">normal_finish_emitted</tspan></text>
<circle class="junction" cx="58.48" cy="18.00" r="0.22"/>
</svg>