<svg xmlns="http://www.w3.org/2000/svg" width="1320" height="1820" viewBox="-30.00 -2.00 66.00 91.00" role="img">
<style>
.step{fill:#fff;stroke:#111;stroke-width:.14}.step-inner{fill:none;stroke:#111;stroke-width:.08}
.action{fill:#fff;stroke:#111;stroke-width:.14}.gate{stroke:#111;stroke-width:.16}
.edge{fill:none;stroke:#111;stroke-width:.05;stroke-linecap:round;stroke-linejoin:round}.edge-arrow{marker-end:url(#arrow)}
.flyover-mask{stroke:#fff;stroke-width:.12;stroke-linecap:round}
.flyover{fill:none;stroke:#111;stroke-width:.05;stroke-linecap:round}
.junction{fill:#111;stroke:#111;stroke-width:0}.branch-junction{fill:#fff;stroke:#111;stroke-width:.08}
.assoc{stroke:#111;stroke-width:.05}.label{font:bold .7px 'Times New Roman', 'BiauKai', 'DFKai-SB', serif;text-anchor:middle;dominant-baseline:middle}
.action-label{font:.55px 'Times New Roman', 'BiauKai', 'DFKai-SB', serif;text-anchor:middle;dominant-baseline:middle}.gate-label{font:italic .55px 'Times New Roman', 'BiauKai', 'DFKai-SB', serif;text-anchor:start;dominant-baseline:middle}.gate-label-left{font:italic .55px 'Times New Roman', 'BiauKai', 'DFKai-SB', serif;text-anchor:end;dominant-baseline:middle}
</style>
<defs><marker id="arrow" markerWidth="0.4" markerHeight="0.4" refX="0.36" refY="0.2" orient="auto" markerUnits="userSpaceOnUse"><path d="M 0 0 L 0.4 0.2 L 0 0.4 z" fill="#111"/></marker></defs>
<rect x="-30.00" y="-2.00" width="66.00" height="91.00" fill="white"/>
<path class="edge edge-arrow" d="M 20.00 9.00 L 20.00 13.00"/>
<path class="edge edge-arrow" d="M 20.00 18.00 L 20.00 22.00"/>
<path class="edge" d="M 20.00 7.00 L 20.00 9.00"/>
<path class="edge" d="M 20.00 16.00 L 20.00 18.00"/>
<path class="edge" d="M 20.00 25.00 L 20.00 27.00"/>
<path class="edge edge-arrow" d="M 20.00 27.00 L 20.00 29.00"/>
<path class="edge" d="M 20.00 32.00 L 20.00 34.00"/>
<path class="edge edge-arrow" d="M 20.00 34.00 L 20.00 36.00"/>
<path class="edge edge-arrow" d="M 20.00 39.00 L 20.00 41.00"/>
<path class="edge edge-arrow" d="M 10.00 41.00 L 10.00 45.00"/>
<path class="edge edge-arrow" d="M 20.00 41.00 L 20.00 45.00"/>
<path class="edge" d="M 10.00 48.00 L 10.00 50.00"/>
<path class="edge edge-arrow" d="M 10.00 50.00 L 10.00 52.00"/>
<path class="edge edge-arrow" d="M 10.00 55.00 L 10.00 57.00"/>
<path class="edge edge-arrow" d="M 10.00 57.00 L 10.00 61.00"/>
<path class="edge edge-arrow" d="M -10.00 57.00 L -10.00 61.00"/>
<path class="edge edge-arrow" d="M 0.00 57.00 L 0.00 61.00"/>
<path class="edge edge-arrow" d="M 20.00 57.00 L 20.00 61.00"/>
<path class="edge edge-arrow" d="M 10.00 64.00 L 10.00 76.00"/>
<path class="edge edge-arrow" d="M 20.00 76.00 L 20.00 78.00"/>
<path class="edge" d="M -10.00 64.00 L -10.00 66.00"/>
<path class="edge" d="M -10.00 66.00 L -10.00 68.00"/>
<path class="edge" d="M -10.00 68.00 L -18.00 68.00"/>
<path class="edge" d="M -18.00 68.00 L -18.00 20.00"/>
<path class="edge" d="M -18.00 20.00 L 20.00 20.00"/>
<path class="edge" d="M 0.00 64.00 L 0.00 70.00"/>
<path class="edge" d="M 0.00 70.00 L 0.00 72.00"/>
<path class="edge" d="M 0.00 72.00 L -22.00 72.00"/>
<path class="edge" d="M -22.00 72.00 L -22.00 11.00"/>
<path class="edge" d="M -22.00 11.00 L 20.00 11.00"/>
<path class="edge edge-arrow" d="M 20.00 64.00 L 20.00 76.00"/>
<path class="edge" d="M 20.00 81.00 L 20.00 83.00"/>
<path class="edge edge-arrow" d="M 20.00 83.00 L 20.00 84.50 Q 20.00 85.00 19.50 85.00 L -25.50 85.00 Q -26.00 85.00 -26.00 84.50 L -26.00 2.50 Q -26.00 2.00 -25.50 2.00 L 19.50 2.00 Q 20.00 2.00 20.00 2.50 L 20.00 4.00"/>
<path class="edge edge-arrow" d="M 20.00 48.00 L 20.00 49.50 Q 20.00 50.00 20.50 50.00 L 29.50 50.00 Q 30.00 50.00 30.00 50.50 L 30.00 76.00"/>
<rect class="step" x="18.00" y="4.00" width="4.00" height="3.00"/>
<rect class="step-inner" x="18.25" y="4.25" width="3.50" height="2.50"/>
<text class="label" x="20.00" y="5.50">0</text>
<rect class="step" x="18.00" y="13.00" width="4.00" height="3.00"/>
<text class="label" x="20.00" y="14.50">1</text>
<rect class="step" x="18.00" y="22.00" width="4.00" height="3.00"/>
<text class="label" x="20.00" y="23.50">2</text>
<rect class="step" x="18.00" y="29.00" width="4.00" height="3.00"/>
<text class="label" x="20.00" y="30.50">3</text>
<rect class="step" x="18.00" y="36.00" width="4.00" height="3.00"/>
<text class="label" x="20.00" y="37.50">4</text>
<rect class="step" x="8.00" y="45.00" width="4.00" height="3.00"/>
<text class="label" x="10.00" y="46.50">5</text>
<rect class="step" x="8.00" y="52.00" width="4.00" height="3.00"/>
<text class="label" x="10.00" y="53.50">6</text>
<rect class="step" x="8.00" y="61.00" width="4.00" height="3.00"/>
<text class="label" x="10.00" y="62.50">7</text>
<rect class="step" x="-12.00" y="61.00" width="4.00" height="3.00"/>
<text class="label" x="-10.00" y="62.50">8</text>
<rect class="step" x="-2.00" y="61.00" width="4.00" height="3.00"/>
<text class="label" x="0.00" y="62.50">9</text>
<rect class="step" x="18.00" y="61.00" width="4.00" height="3.00"/>
<text class="label" x="20.00" y="62.50">10</text>
<rect class="step" x="18.00" y="78.00" width="4.00" height="3.00"/>
<text class="label" x="20.00" y="79.50">11</text>
<rect class="step" x="18.00" y="45.00" width="4.00" height="3.00"/>
<text class="label" x="20.00" y="46.50">12</text>
<line class="assoc" x1="22.00" y1="5.50" x2="23.00" y2="5.50"/>
<rect class="action" x="23.00" y="4.07" width="4.00" height="2.86" rx="0.45" ry="0.45"/>
<text class="action-label" x="25.00" y="5.09"><tspan x="25.00" dy="0">ÁĄ°spec</tspan><tspan x="25.00" dy="0.82">Śú®flight</tspan></text>
<line class="assoc" x1="22.00" y1="14.50" x2="23.00" y2="14.50"/>
<rect class="action" x="23.00" y="13.07" width="4.00" height="2.86" rx="0.45" ry="0.45"/>
<text class="action-label" x="25.00" y="14.09"><tspan x="25.00" dy="0">propos</tspan><tspan x="25.00" dy="0.82">eÁčÄśÖč</tspan></text>
<line class="assoc" x1="22.00" y1="23.50" x2="23.00" y2="23.50"/>
<rect class="action" x="23.00" y="22.07" width="4.00" height="2.86" rx="0.45" ry="0.45"/>
<text class="action-label" x="25.00" y="23.09"><tspan x="25.00" dy="0">design</tspan><tspan x="25.00" dy="0.82">ÁčÄśÖč</tspan></text>
<line class="assoc" x1="22.00" y1="30.50" x2="23.00" y2="30.50"/>
<rect class="action" x="23.00" y="29.07" width="4.00" height="2.86" rx="0.45" ry="0.45"/>
<text class="action-label" x="25.00" y="30.09"><tspan x="25.00" dy="0">Ť¶ŹŚäÉ</tspan><tspan x="25.00" dy="0.82">ÁčÄśÖč</tspan></text>
<line class="assoc" x1="22.00" y1="37.50" x2="23.00" y2="37.50"/>
<rect class="action" x="23.00" y="36.07" width="4.00" height="2.86" rx="0.45" ry="0.45"/>
<text class="action-label" x="25.00" y="37.09"><tspan x="25.00" dy="0">impleme</tspan><tspan x="25.00" dy="0.82">ntÁčÄśÖč</tspan></text>
<line class="assoc" x1="12.00" y1="46.50" x2="13.00" y2="46.50"/>
<rect class="action" x="13.00" y="45.07" width="4.00" height="2.86" rx="0.45" ry="0.45"/>
<text class="action-label" x="15.00" y="46.09"><tspan x="15.00" dy="0">verify</tspan><tspan x="15.00" dy="0.82">ÁčÄśÖč</tspan></text>
<line class="assoc" x1="12.00" y1="53.50" x2="13.00" y2="53.50"/>
<rect class="action" x="13.00" y="52.07" width="4.00" height="2.86" rx="0.45" ry="0.45"/>
<text class="action-label" x="15.00" y="52.68"><tspan x="15.00" dy="0">liveÁčÄśÖč</tspan><tspan x="15.00" dy="0.82">syncche</tspan><tspan x="15.00" dy="0.82">ckpoint</tspan></text>
<line class="assoc" x1="12.00" y1="62.50" x2="13.00" y2="62.50"/>
<rect class="action" x="13.00" y="61.07" width="4.00" height="2.86" rx="0.45" ry="0.45"/>
<text class="action-label" x="15.00" y="62.09"><tspan x="15.00" dy="0">amendinl</tspan><tspan x="15.00" dy="0.82">inedelta</tspan></text>
<line class="assoc" x1="-8.00" y1="62.50" x2="-7.00" y2="62.50"/>
<rect class="action" x="-7.00" y="61.07" width="4.00" height="2.86" rx="0.45" ry="0.45"/>
<text class="action-label" x="-5.00" y="61.68"><tspan x="-5.00" dy="0">reviseśąĖex</tspan><tspan x="-5.00" dy="0.82">tendŚõěŚąį</tspan><tspan x="-5.00" dy="0.82">Śąįdesigned</tspan></text>
<line class="assoc" x1="2.00" y1="62.50" x2="3.00" y2="62.50"/>
<rect class="action" x="3.00" y="61.07" width="4.00" height="2.86" rx="0.45" ry="0.45"/>
<text class="action-label" x="5.00" y="61.68"><tspan x="5.00" dy="0">refactor</tspan><tspan x="5.00" dy="0.82">snapshot</tspan><tspan x="5.00" dy="0.82">Ťąáreset</tspan></text>
<line class="assoc" x1="22.00" y1="62.50" x2="23.00" y2="62.50"/>
<rect class="action" x="23.00" y="61.07" width="4.00" height="2.86" rx="0.45" ry="0.45"/>
<text class="action-label" x="25.00" y="62.09"><tspan x="25.00" dy="0">archive</tspan><tspan x="25.00" dy="0.82">ÁčÄśÖč</tspan></text>
<line class="assoc" x1="22.00" y1="79.50" x2="23.00" y2="79.50"/>
<rect class="action" x="23.00" y="78.07" width="4.00" height="2.86" rx="0.45" ry="0.45"/>
<text class="action-label" x="25.00" y="79.09"><tspan x="25.00" dy="0">spec</tspan><tspan x="25.00" dy="0.82">śĖľrest</tspan></text>
<line class="assoc" x1="22.00" y1="46.50" x2="23.00" y2="46.50"/>
<rect class="action" x="23.00" y="45.07" width="4.00" height="2.86" rx="0.45" ry="0.45"/>
<text class="action-label" x="25.00" y="46.09"><tspan x="25.00" dy="0">abandonśąĖ</tspan><tspan x="25.00" dy="0.82">rollback</tspan></text>
<line class="gate" x1="19.00" y1="9.00" x2="21.00" y2="9.00"/>
<text class="gate-label" x="21.40" y="9.00"><tspan x="21.40" dy="0">Ť¶ŹŚäÉinitinvokedšĺõnewslugOR legacyplanstouched</tspan></text>
<line class="gate" x1="19.00" y1="18.00" x2="21.00" y2="18.00"/>
<text class="gate-label" x="21.40" y="18.00"><tspan x="21.40" dy="0">proposalmdAND ÁčÄśÖčjsonwrittenÁčÄśÖč==proposed</tspan></text>
<line class="gate" x1="19.00" y1="27.00" x2="21.00" y2="27.00"/>
<text class="gate-label-left" x="18.60" y="27.00"><tspan x="18.60" dy="0">specmddesignmdidef0grafcetc4sequencedataschemapresentAND validatepasses</tspan></text>
<line class="gate" x1="19.00" y1="34.00" x2="21.00" y2="34.00"/>
<text class="gate-label" x="21.40" y="34.00"><tspan x="21.40" dy="0">tasksmdhandoffmdtestvectorsťĆĮŤ™§observabilitypresent</tspan></text>
<line class="gate" x1="6.00" y1="41.00" x2="24.00" y2="41.00"/>
<line class="gate" x1="9.00" y1="50.00" x2="11.00" y2="50.00"/>
<text class="gate-label-left" x="8.60" y="50.00"><tspan x="8.60" dy="0">validationevidenceattachedAND testspass</tspan></text>
<line class="gate" x1="-14.00" y1="57.00" x2="24.00" y2="57.00"/>
<line class="gate" x1="8.00" y1="76.00" x2="32.00" y2="76.00"/>
<line class="gate" x1="-11.00" y1="66.00" x2="-9.00" y2="66.00"/>
<text class="gate-label" x="-8.60" y="65.32"><tspan x="-8.60" dy="0">ÁčÄśÖčsetdesignedAN</tspan><tspan x="-8.60" dy="0.68">D reviseśąĖextendhis</tspan><tspan x="-8.60" dy="0.68">toryť†ÖÁõģappended</tspan></text>
<line class="gate" x1="-1.00" y1="70.00" x2="1.00" y2="70.00"/>
<text class="gate-label-left" x="-1.40" y="70.00"><tspan x="-1.40" dy="0">historyrefactorYYYY MM DD createdAND artifactsresetŚąįproposedskeleton</tspan></text>
<line class="gate" x1="19.00" y1="83.00" x2="21.00" y2="83.00"/>
<text class="gate-label" x="21.40" y="83.00"><tspan x="21.40" dy="0">1</tspan></text>
<line class="gate" x1="9.00" y1="43.00" x2="11.00" y2="43.00"/>
<text class="gate-label-left" x="8.60" y="43.00"><tspan x="8.60" dy="0">alltaskscheckedAND syncclean</tspan></text>
<line class="gate" x1="19.00" y1="43.00" x2="21.00" y2="43.00"/>
<text class="gate-label-left" x="18.60" y="42.32"><tspan x="18.60" dy="0">Ť¶ŹŚäÉabando</tspan><tspan x="18.60" dy="0.68">nedśąĖrefact</tspan><tspan x="18.60" dy="0.68">orrequested</tspan></text>
<line class="gate" x1="9.00" y1="59.00" x2="11.00" y2="59.00"/>
<text class="gate-label-left" x="8.60" y="59.00"><tspan x="8.60" dy="0">mode==amend</tspan></text>
<line class="gate" x1="-11.00" y1="59.00" x2="-9.00" y2="59.00"/>
<text class="gate-label-left" x="-11.40" y="59.00"><tspan x="-11.40" dy="0">mode==reviseśąĖextend</tspan></text>
<line class="gate" x1="-1.00" y1="59.00" x2="1.00" y2="59.00"/>
<text class="gate-label-left" x="-1.40" y="59.00"><tspan x="-1.40" dy="0">mode==refactor</tspan></text>
<line class="gate" x1="19.00" y1="59.00" x2="21.00" y2="59.00"/>
<text class="gate-label-left" x="18.60" y="59.00"><tspan x="18.60" dy="0">mode==archive</tspan></text>
<line class="gate" x1="9.00" y1="74.00" x2="11.00" y2="74.00"/>
<text class="gate-label" x="11.40" y="73.32"><tspan x="11.40" dy="0">inlinedeltamark</tspan><tspan x="11.40" dy="0.68">eraddedAND ÁčÄ</tspan><tspan x="11.40" dy="0.68">śÖčremainsliving</tspan></text>
<line class="gate" x1="19.00" y1="74.00" x2="21.00" y2="74.00"/>
<text class="gate-label" x="21.40" y="73.32"><tspan x="21.40" dy="0">ÁčÄśÖčsetarchivedA</tspan><tspan x="21.40" dy="0.68">ND optionalmoveŚąį</tspan><tspan x="21.40" dy="0.68">archivefolderdone</tspan></text>
<line class="gate" x1="29.00" y1="74.00" x2="31.00" y2="74.00"/>
<text class="gate-label" x="31.40" y="73.32"><tspan x="31.40" dy="0">Ť¶ŹŚäÉrollbackrefac</tspan><tspan x="31.40" dy="0.68">torśąĖexplicitabando</tspan><tspan x="31.40" dy="0.68">nrecordedŚú®history</tspan></text>
<circle class="junction" cx="20.00" cy="11.00" r="0.22"/>
<circle class="junction" cx="20.00" cy="20.00" r="0.22"/>
</svg>