<svg xmlns="http://www.w3.org/2000/svg" width="860" height="1480" viewBox="-2.00 -2.00 43.00 74.00" role="img">
<style>
.step{fill:#fff;stroke:#111;stroke-width:.14}.step-inner{fill:none;stroke:#111;stroke-width:.08}
.action{fill:#fff;stroke:#111;stroke-width:.14}.gate{stroke:#111;stroke-width:.16}
.edge{fill:none;stroke:#111;stroke-width:.05;stroke-linecap:round;stroke-linejoin:round}.edge-arrow{marker-end:url(#arrow)}
.flyover-mask{stroke:#fff;stroke-width:.12;stroke-linecap:round}
.flyover{fill:none;stroke:#111;stroke-width:.05;stroke-linecap:round}
.junction{fill:#111;stroke:#111;stroke-width:0}.branch-junction{fill:#fff;stroke:#111;stroke-width:.08}
.assoc{stroke:#111;stroke-width:.05}.label{font:bold .7px 'Times New Roman', 'BiauKai', 'DFKai-SB', serif;text-anchor:middle;dominant-baseline:middle}
.action-label{font:.55px 'Times New Roman', 'BiauKai', 'DFKai-SB', serif;text-anchor:middle;dominant-baseline:middle}.gate-label{font:italic .55px 'Times New Roman', 'BiauKai', 'DFKai-SB', serif;text-anchor:start;dominant-baseline:middle}.gate-label-left{font:italic .55px 'Times New Roman', 'BiauKai', 'DFKai-SB', serif;text-anchor:end;dominant-baseline:middle}
</style>
<defs><marker id="arrow" markerWidth="0.4" markerHeight="0.4" refX="0.36" refY="0.2" orient="auto" markerUnits="userSpaceOnUse"><path d="M 0 0 L 0.4 0.2 L 0 0.4 z" fill="#111"/></marker></defs>
<rect x="-2.00" y="-2.00" width="43.00" height="74.00" fill="white"/>
<path class="edge" d="M 20.00 7.00 L 20.00 9.00"/>
<path class="edge edge-arrow" d="M 20.00 9.00 L 20.00 11.00"/>
<path class="edge" d="M 20.00 14.00 L 20.00 16.00"/>
<path class="edge edge-arrow" d="M 20.00 16.00 L 20.00 18.00"/>
<path class="edge" d="M 20.00 21.00 L 20.00 23.00"/>
<path class="edge edge-arrow" d="M 20.00 23.00 L 20.00 25.00"/>
<path class="edge" d="M 20.00 28.00 L 20.00 30.00"/>
<path class="edge edge-arrow" d="M 20.00 30.00 L 20.00 32.00"/>
<path class="edge edge-arrow" d="M 20.00 35.00 L 20.00 37.00"/>
<path class="edge edge-arrow" d="M 10.00 37.00 L 10.00 41.00"/>
<path class="edge edge-arrow" d="M 20.00 37.00 L 20.00 41.00"/>
<path class="edge edge-arrow" d="M 30.00 37.00 L 30.00 41.00"/>
<path class="edge edge-arrow" d="M 10.00 44.00 L 10.00 50.00"/>
<path class="edge edge-arrow" d="M 20.00 50.00 L 20.00 52.00"/>
<path class="edge edge-arrow" d="M 20.00 44.00 L 20.00 50.00"/>
<path class="edge" d="M 30.00 44.00 L 30.00 46.00"/>
<path class="edge edge-arrow" d="M 30.00 46.00 L 30.00 52.00"/>
<path class="edge edge-arrow" d="M 20.00 55.00 L 20.00 59.00"/>
<path class="edge edge-arrow" d="M 20.00 59.00 L 20.00 61.00"/>
<path class="edge edge-arrow" d="M 30.00 55.00 L 30.00 59.00"/>
<path class="edge" d="M 20.00 64.00 L 20.00 66.00"/>
<path class="edge edge-arrow" d="M 20.00 66.00 L 20.00 67.50 Q 20.00 68.00 19.50 68.00 L 2.50 68.00 Q 2.00 68.00 2.00 67.50 L 2.00 2.50 Q 2.00 2.00 2.50 2.00 L 19.50 2.00 Q 20.00 2.00 20.00 2.50 L 20.00 4.00"/>
<rect class="step" x="18.00" y="4.00" width="4.00" height="3.00"/>
<rect class="step-inner" x="18.25" y="4.25" width="3.50" height="2.50"/>
<text class="label" x="20.00" y="5.50">0</text>
<rect class="step" x="18.00" y="11.00" width="4.00" height="3.00"/>
<text class="label" x="20.00" y="12.50">1</text>
<rect class="step" x="18.00" y="18.00" width="4.00" height="3.00"/>
<text class="label" x="20.00" y="19.50">2</text>
<rect class="step" x="18.00" y="25.00" width="4.00" height="3.00"/>
<text class="label" x="20.00" y="26.50">3</text>
<rect class="step" x="18.00" y="32.00" width="4.00" height="3.00"/>
<text class="label" x="20.00" y="33.50">4</text>
<rect class="step" x="8.00" y="41.00" width="4.00" height="3.00"/>
<text class="label" x="10.00" y="42.50">5</text>
<rect class="step" x="18.00" y="41.00" width="4.00" height="3.00"/>
<text class="label" x="20.00" y="42.50">6</text>
<rect class="step" x="28.00" y="41.00" width="4.00" height="3.00"/>
<text class="label" x="30.00" y="42.50">7</text>
<rect class="step" x="18.00" y="52.00" width="4.00" height="3.00"/>
<text class="label" x="20.00" y="53.50">8</text>
<rect class="step" x="28.00" y="52.00" width="4.00" height="3.00"/>
<text class="label" x="30.00" y="53.50">9</text>
<rect class="step" x="18.00" y="61.00" width="4.00" height="3.00"/>
<text class="label" x="20.00" y="62.50">10</text>
<line class="assoc" x1="22.00" y1="5.50" x2="23.00" y2="5.50"/>
<rect class="action" x="23.00" y="4.07" width="4.00" height="2.86" rx="0.45" ry="0.45"/>
<text class="action-label" x="25.00" y="5.09"><tspan x="25.00" dy="0">閒置</tspan><tspan x="25.00" dy="0.82">無前端</tspan></text>
<line class="assoc" x1="22.00" y1="12.50" x2="23.00" y2="12.50"/>
<rect class="action" x="23.00" y="11.07" width="4.00" height="2.86" rx="0.45" ry="0.45"/>
<text class="action-label" x="25.00" y="12.09"><tspan x="25.00" dy="0">建置前</tspan><tspan x="25.00" dy="0.82">端Bundle</tspan></text>
<line class="assoc" x1="22.00" y1="19.50" x2="23.00" y2="19.50"/>
<rect class="action" x="23.00" y="18.07" width="4.00" height="2.86" rx="0.45" ry="0.45"/>
<text class="action-label" x="25.00" y="19.09"><tspan x="25.00" dy="0">發布Gate</tspan><tspan x="25.00" dy="0.82">way路由</tspan></text>
<line class="assoc" x1="22.00" y1="26.50" x2="23.00" y2="26.50"/>
<rect class="action" x="23.00" y="25.07" width="4.00" height="2.86" rx="0.45" ry="0.45"/>
<text class="action-label" x="25.00" y="25.68"><tspan x="25.00" dy="0">serveauth</tspan><tspan x="25.00" dy="0.82">enticated</tspan><tspan x="25.00" dy="0.82">SPA外殼</tspan></text>
<line class="assoc" x1="22.00" y1="33.50" x2="23.00" y2="33.50"/>
<rect class="action" x="23.00" y="32.07" width="4.00" height="2.86" rx="0.45" ry="0.45"/>
<text class="action-label" x="25.00" y="32.68"><tspan x="25.00" dy="0">mountPro</tspan><tspan x="25.00" dy="0.82">vider與渲</tspan><tspan x="25.00" dy="0.82">染路由</tspan></text>
<line class="assoc" x1="12.00" y1="42.50" x2="13.00" y2="42.50"/>
<rect class="action" x="13.00" y="41.07" width="4.00" height="2.86" rx="0.45" ry="0.45"/>
<text class="action-label" x="15.00" y="41.68"><tspan x="15.00" dy="0">drive管</tspan><tspan x="15.00" dy="0.82">理面</tspan><tspan x="15.00" dy="0.82">板action</tspan></text>
<line class="assoc" x1="22.00" y1="42.50" x2="23.00" y2="42.50"/>
<rect class="action" x="23.00" y="41.07" width="4.00" height="2.86" rx="0.45" ry="0.45"/>
<text class="action-label" x="25.00" y="41.68"><tspan x="25.00" dy="0">渲染豐</tspan><tspan x="25.00" dy="0.82">富mark</tspan><tspan x="25.00" dy="0.82">downlink</tspan></text>
<line class="assoc" x1="32.00" y1="42.50" x2="33.00" y2="42.50"/>
<rect class="action" x="33.00" y="41.07" width="4.00" height="2.86" rx="0.45" ry="0.45"/>
<text class="action-label" x="35.00" y="41.68"><tspan x="35.00" dy="0">capture語</tspan><tspan x="35.00" dy="0.82">音透過ch</tspan><tspan x="35.00" dy="0.82">osen路徑</tspan></text>
<line class="assoc" x1="22.00" y1="53.50" x2="23.00" y2="53.50"/>
<rect class="action" x="23.00" y="52.07" width="4.00" height="2.86" rx="0.45" ry="0.45"/>
<text class="action-label" x="25.00" y="52.68"><tspan x="25.00" dy="0">wait供下</tspan><tspan x="25.00" dy="0.82">一個使</tspan><tspan x="25.00" dy="0.82">用者事件</tspan></text>
<line class="assoc" x1="32.00" y1="53.50" x2="33.00" y2="53.50"/>
<rect class="action" x="33.00" y="52.07" width="4.00" height="2.86" rx="0.45" ry="0.45"/>
<text class="action-label" x="35.00" y="52.68"><tspan x="35.00" dy="0">delivertr</tspan><tspan x="35.00" dy="0.82">anscript</tspan><tspan x="35.00" dy="0.82">到提示</tspan></text>
<line class="assoc" x1="22.00" y1="62.50" x2="23.00" y2="62.50"/>
<rect class="action" x="23.00" y="61.07" width="4.00" height="2.86" rx="0.45" ry="0.45"/>
<text class="action-label" x="25.00" y="62.09"><tspan x="25.00" dy="0">返回到</tspan><tspan x="25.00" dy="0.82">閒置loop</tspan></text>
<line class="gate" x1="19.00" y1="9.00" x2="21.00" y2="9.00"/>
<text class="gate-label" x="21.40" y="9.00"><tspan x="21.40" dy="0">operatorrunswebctl開發start</tspan></text>
<line class="gate" x1="19.00" y1="16.00" x2="21.00" y2="16.00"/>
<text class="gate-label" x="21.40" y="16.00"><tspan x="21.40" dy="0">distemitted或開發伺服器listening</tspan></text>
<line class="gate" x1="19.00" y1="23.00" x2="21.00" y2="23.00"/>
<text class="gate-label" x="21.40" y="23.00"><tspan x="21.40" dy="0">web路由confreloaded透過SIGHUP</tspan></text>
<line class="gate" x1="19.00" y1="30.00" x2="21.00" y2="30.00"/>
<text class="gate-label" x="21.40" y="30.00"><tspan x="21.40" dy="0">oc jwtvalidAND AuthGatepassed</tspan></text>
<line class="gate" x1="6.00" y1="37.00" x2="34.00" y2="37.00"/>
<line class="gate" x1="8.00" y1="50.00" x2="22.00" y2="50.00"/>
<line class="gate" x1="29.00" y1="46.00" x2="31.00" y2="46.00"/>
<text class="gate-label" x="31.40" y="46.00"><tspan x="31.40" dy="0">語音buffer就緒或分塊available</tspan></text>
<line class="gate" x1="18.00" y1="59.00" x2="32.00" y2="59.00"/>
<line class="gate" x1="19.00" y1="66.00" x2="21.00" y2="66.00"/>
<text class="gate-label" x="21.40" y="66.00"><tspan x="21.40" dy="0">1</tspan></text>
<line class="gate" x1="9.00" y1="39.00" x2="11.00" y2="39.00"/>
<text class="gate-label" x="11.40" y="39.00"><tspan x="11.40" dy="0">使用者opens管理</tspan></text>
<line class="gate" x1="19.00" y1="39.00" x2="21.00" y2="39.00"/>
<text class="gate-label" x="21.40" y="39.00"><tspan x="21.40" dy="0">使用者clicks路徑link</tspan></text>
<line class="gate" x1="29.00" y1="39.00" x2="31.00" y2="39.00"/>
<text class="gate-label" x="31.40" y="39.00"><tspan x="31.40" dy="0">使用者starts語音輸入</tspan></text>
<line class="gate" x1="9.00" y1="48.00" x2="11.00" y2="48.00"/>
<text class="gate-label-left" x="8.60" y="47.32"><tspan x="8.60" dy="0">對話框ac</tspan><tspan x="8.60" dy="0.68">tioncommitt</tspan><tspan x="8.60" dy="0.68">ed或closed</tspan></text>
<line class="gate" x1="19.00" y1="46.00" x2="21.00" y2="46.00"/>
<text class="gate-label" x="21.40" y="46.00"><tspan x="21.40" dy="0">檔案tabopened於line</tspan></text>
<line class="gate" x1="19.00" y1="57.00" x2="21.00" y2="57.00"/>
<text class="gate-label-left" x="18.60" y="57.00"><tspan x="18.60" dy="0">Session閒置或路由change</tspan></text>
<line class="gate" x1="29.00" y1="57.00" x2="31.00" y2="57.00"/>
<text class="gate-label-left" x="28.60" y="56.32"><tspan x="28.60" dy="0">apply語音transcr</tspan><tspan x="28.60" dy="0.68">iptsucceeded或exp</tspan><tspan x="28.60" dy="0.68">licit錯誤surfaced</tspan></text>
</svg>