<svg xmlns="http://www.w3.org/2000/svg" width="597" height="760" viewBox="4.00 0.00 29.86 38.00" role="img">
<style>
.step{fill:#fff;stroke:#111;stroke-width:.14}.step-inner{fill:none;stroke:#111;stroke-width:.08}
.action{fill:#fff;stroke:#111;stroke-width:.14}.gate{stroke:#111;stroke-width:.16}
.edge{fill:none;stroke:#111;stroke-width:.05;stroke-linecap:round;stroke-linejoin:round}.edge-arrow{marker-end:url(#arrow)}
.flyover-mask{stroke:#fff;stroke-width:.12;stroke-linecap:round}
.flyover{fill:none;stroke:#111;stroke-width:.05;stroke-linecap:round}
.junction{fill:#111;stroke:#111;stroke-width:0}.branch-junction{fill:#fff;stroke:#111;stroke-width:.08}
.assoc{stroke:#111;stroke-width:.05}.label{font:bold .7px 'Times New Roman', 'BiauKai', 'DFKai-SB', serif;text-anchor:middle;dominant-baseline:middle}
.action-label{font:.55px 'Times New Roman', 'BiauKai', 'DFKai-SB', serif;text-anchor:middle;dominant-baseline:middle}.gate-label{font:italic .55px 'Times New Roman', 'BiauKai', 'DFKai-SB', serif;text-anchor:start;dominant-baseline:middle}.gate-label-left{font:italic .55px 'Times New Roman', 'BiauKai', 'DFKai-SB', serif;text-anchor:end;dominant-baseline:middle}
</style>
<defs><marker id="arrow" markerWidth="0.4" markerHeight="0.4" refX="0.36" refY="0.2" orient="auto" markerUnits="userSpaceOnUse"><path d="M 0 0 L 0.4 0.2 L 0 0.4 z" fill="#111"/></marker></defs>
<rect x="4.00" y="0.00" width="29.86" height="38.00" fill="white"/>
<path class="edge edge-arrow" d="M 21.43 7.00 L 21.43 9.00"/>
<path class="edge edge-arrow" d="M 10.00 9.00 L 10.00 13.00"/>
<path class="edge edge-arrow" d="M 21.43 9.00 L 21.43 13.00"/>
<path class="edge edge-arrow" d="M 10.00 16.00 L 10.00 20.00"/>
<path class="edge edge-arrow" d="M 21.43 20.00 L 21.43 22.00"/>
<path class="edge edge-arrow" d="M 21.43 16.00 L 21.43 20.00"/>
<path class="edge edge-arrow" d="M 21.43 25.00 L 21.43 27.00"/>
<path class="edge edge-arrow" d="M 10.00 27.00 L 10.00 31.00"/>
<path class="edge edge-arrow" d="M 21.43 27.00 L 21.43 31.00"/>
<rect class="step" x="19.43" y="4.00" width="4.00" height="3.00" rx="0.35" ry="0.35"/>
<rect class="step-inner" x="19.68" y="4.25" width="3.50" height="2.50" rx="0.22" ry="0.22"/>
<text class="label" x="21.43" y="5.50">6</text>
<rect class="step" x="8.00" y="13.00" width="4.00" height="3.00" rx="0.35" ry="0.35"/>
<text class="label" x="10.00" y="14.50">7</text>
<rect class="step" x="19.43" y="13.00" width="4.00" height="3.00" rx="0.35" ry="0.35"/>
<text class="label" x="21.43" y="14.50">8</text>
<rect class="step" x="19.43" y="22.00" width="4.00" height="3.00" rx="0.35" ry="0.35"/>
<text class="label" x="21.43" y="23.50">9</text>
<rect class="step" x="8.00" y="31.00" width="4.00" height="3.00" rx="0.35" ry="0.35"/>
<text class="label" x="10.00" y="32.50">10</text>
<rect class="step" x="19.43" y="31.00" width="4.00" height="3.00" rx="0.35" ry="0.35"/>
<text class="label" x="21.43" y="32.50">13</text>
<line class="assoc" x1="23.43" y1="5.50" x2="24.43" y2="5.50"/>
<rect class="action" x="24.43" y="4.07" width="5.43" height="2.86"/>
<text class="action-label" x="27.14" y="5.09"><tspan x="27.14" dy="0">choosetransp</tspan><tspan x="27.14" dy="0.82">ortws或http</tspan></text>
<line class="assoc" x1="12.00" y1="14.50" x2="13.00" y2="14.50"/>
<rect class="action" x="13.00" y="13.07" width="5.43" height="2.86"/>
<text class="action-label" x="15.71" y="13.68"><tspan x="15.71" dy="0">派發透過websock</tspan><tspan x="15.71" dy="0.82">etupgraderesponses</tspan><tspan x="15.71" dy="0.82">websockets20260206</tspan></text>
<line class="assoc" x1="23.43" y1="14.50" x2="24.43" y2="14.50"/>
<rect class="action" x="24.43" y="13.07" width="5.43" height="2.86"/>
<text class="action-label" x="27.14" y="14.09"><tspan x="27.14" dy="0">派發透過httppos</tspan><tspan x="27.14" dy="0.82">t文字事件串流</tspan></text>
<line class="assoc" x1="23.43" y1="23.50" x2="24.43" y2="23.50"/>
<rect class="action" x="24.43" y="22.07" width="5.43" height="2.86"/>
<text class="action-label" x="27.14" y="23.09"><tspan x="27.14" dy="0">串流分塊c</tspan><tspan x="27.14" dy="0.82">lassify錯誤</tspan></text>
<line class="assoc" x1="12.00" y1="32.50" x2="13.00" y2="32.50"/>
<rect class="action" x="13.00" y="31.07" width="5.43" height="2.86"/>
<text class="action-label" x="15.71" y="32.09"><tspan x="15.71" dy="0">更新tokenusage與</tspan><tspan x="15.71" dy="0.82">ratelimittelemetry</tspan></text>
<line class="assoc" x1="23.43" y1="32.50" x2="24.43" y2="32.50"/>
<rect class="action" x="24.43" y="31.07" width="5.43" height="2.86"/>
<text class="action-label" x="27.14" y="31.68"><tspan x="27.14" dy="0">發出延續inv</tspan><tspan x="27.14" dy="0.82">alidatedbus事</tspan><tspan x="27.14" dy="0.82">件與evict快取</tspan></text>
<line class="gate" x1="8.00" y1="9.00" x2="23.43" y2="9.00"/>
<line class="gate" x1="8.00" y1="20.00" x2="23.43" y2="20.00"/>
<line class="gate" x1="8.00" y1="27.00" x2="23.43" y2="27.00"/>
<line class="gate" x1="9.00" y1="11.00" x2="11.00" y2="11.00"/>
<text class="gate-label-left" x="8.60" y="10.32"><tspan x="8.60" dy="0">ws已啟用</tspan><tspan x="8.60" dy="0.68">與不stick</tspan><tspan x="8.60" dy="0.68">yfallback</tspan></text>
<line class="gate" x1="20.43" y1="11.00" x2="22.43" y2="11.00"/>
<text class="gate-label" x="22.83" y="11.00"><tspan x="22.83" dy="0">http或wsstickyfallback</tspan></text>
<line class="gate" x1="9.00" y1="18.00" x2="11.00" y2="18.00"/>
<text class="gate-label-left" x="8.60" y="18.00"><tspan x="8.60" dy="0">wshandshakeok</tspan></text>
<line class="gate" x1="20.43" y1="18.00" x2="22.43" y2="18.00"/>
<text class="gate-label" x="22.83" y="18.00"><tspan x="22.83" dy="0">http回應opened</tspan></text>
<line class="gate" x1="9.00" y1="29.00" x2="11.00" y2="29.00"/>
<text class="gate-label-left" x="8.60" y="28.32"><tspan x="8.60" dy="0">分塊c</tspan><tspan x="8.60" dy="0.68">ompleti</tspan><tspan x="8.60" dy="0.68">onframe</tspan></text>
<line class="gate" x1="20.43" y1="29.00" x2="22.43" y2="29.00"/>
<text class="gate-label" x="22.83" y="29.00"><tspan x="22.83" dy="0">延續invalidated或4xx5xx</tspan></text>
</svg>