<svg xmlns="http://www.w3.org/2000/svg" width="1442" height="2580" viewBox="-18.00 -2.00 72.08 129.00" role="img">
<style>
.step{fill:#fff;stroke:#111;stroke-width:.14}.step-inner{fill:none;stroke:#111;stroke-width:.08}
.action{fill:#fff;stroke:#111;stroke-width:.14}.gate{stroke:#111;stroke-width:.16}
.edge{fill:none;stroke:#111;stroke-width:.05;stroke-linecap:round;stroke-linejoin:round}.edge-arrow{marker-end:url(#arrow)}
.flyover-mask{stroke:#fff;stroke-width:.12;stroke-linecap:round}
.flyover{fill:none;stroke:#111;stroke-width:.05;stroke-linecap:round}
.junction{fill:#111;stroke:#111;stroke-width:0}.branch-junction{fill:#fff;stroke:#111;stroke-width:.08}
.assoc{stroke:#111;stroke-width:.05}.label{font:bold .7px 'Times New Roman', 'BiauKai', 'DFKai-SB', serif;text-anchor:middle;dominant-baseline:middle}
.action-label{font:.55px 'Times New Roman', 'BiauKai', 'DFKai-SB', serif;text-anchor:middle;dominant-baseline:middle}.gate-label{font:italic .55px 'Times New Roman', 'BiauKai', 'DFKai-SB', serif;text-anchor:start;dominant-baseline:middle}.gate-label-left{font:italic .55px 'Times New Roman', 'BiauKai', 'DFKai-SB', serif;text-anchor:end;dominant-baseline:middle}
</style>
<defs><marker id="arrow" markerWidth="0.4" markerHeight="0.4" refX="0.36" refY="0.2" orient="auto" markerUnits="userSpaceOnUse"><path d="M 0 0 L 0.4 0.2 L 0 0.4 z" fill="#111"/></marker></defs>
<rect x="-18.00" y="-2.00" width="72.08" height="129.00" fill="white"/>
<path class="edge edge-arrow" d="M 38.72 110.00 L 24.86 110.00 Q 24.36 110.00 24.36 110.50 L 24.36 110.88 Q 24.36 111.38 24.86 111.38 L 28.31 111.38 Q 28.81 111.38 28.81 111.88 L 28.81 116.12 Q 28.81 116.62 28.31 116.62 L 24.67 116.62 Q 24.36 116.62 24.36 116.31 L 24.36 116.00"/>
<path class="edge" d="M 24.36 7.00 L 24.36 11.00"/>
<path class="edge edge-arrow" d="M 24.36 11.00 L 24.36 15.00"/>
<path class="edge" d="M 24.36 18.00 L 24.36 22.00"/>
<path class="edge edge-arrow" d="M 24.36 22.00 L 24.36 26.00"/>
<path class="edge" d="M 24.36 29.00 L 24.36 33.00"/>
<path class="edge edge-arrow" d="M 24.36 33.00 L 24.36 37.00"/>
<path class="edge" d="M 24.36 40.00 L 24.36 44.00"/>
<path class="edge edge-arrow" d="M 24.36 44.00 L 24.36 48.00"/>
<path class="edge" d="M 24.36 51.00 L 24.36 55.00"/>
<path class="edge edge-arrow" d="M 24.36 55.00 L 24.36 59.00"/>
<path class="edge" d="M 24.36 62.00 L 24.36 66.00"/>
<path class="edge edge-arrow" d="M 24.36 66.00 L 24.36 70.00"/>
<path class="edge edge-arrow" d="M 24.36 73.00 L 24.36 75.00"/>
<path class="edge edge-arrow" d="M 10.00 75.00 L 10.00 79.00"/>
<path class="edge edge-arrow" d="M 38.72 75.00 L 38.72 79.00"/>
<path class="edge edge-arrow" d="M 10.00 82.00 L 10.00 88.00"/>
<path class="edge edge-arrow" d="M 24.36 88.00 L 24.36 90.00"/>
<path class="edge edge-arrow" d="M 38.72 82.00 L 38.72 88.00"/>
<path class="edge edge-arrow" d="M 24.36 93.00 L 24.36 95.00"/>
<path class="edge edge-arrow" d="M 10.00 95.00 L 10.00 99.00"/>
<path class="edge edge-arrow" d="M 24.36 95.00 L 24.36 99.00"/>
<path class="edge edge-arrow" d="M 38.72 95.00 L 38.72 99.00"/>
<path class="edge edge-arrow" d="M 10.00 102.00 L 10.00 114.00"/>
<path class="edge edge-arrow" d="M 24.36 114.00 L 24.36 116.00"/>
<path class="edge" d="M 24.36 102.00 L 24.36 110.00"/>
<path class="edge" d="M 24.36 111.38 L 24.36 114.00"/>
<path class="edge" d="M 24.36 119.00 L 24.36 121.00"/>
<path class="edge edge-arrow" d="M 24.36 121.00 L 24.36 122.50 Q 24.36 123.00 23.86 123.00 L -13.50 123.00 Q -14.00 123.00 -14.00 122.50 L -14.00 2.50 Q -14.00 2.00 -13.50 2.00 L 23.86 2.00 Q 24.36 2.00 24.36 2.50 L 24.36 4.00"/>
<path class="edge" d="M 38.72 102.00 L 38.72 110.00"/>
<rect class="step" x="22.36" y="4.00" width="4.00" height="3.00"/>
<rect class="step-inner" x="22.61" y="4.25" width="3.50" height="2.50"/>
<text class="label" x="24.36" y="5.50">0</text>
<rect class="step" x="22.36" y="15.00" width="4.00" height="3.00"/>
<text class="label" x="24.36" y="16.50">1</text>
<rect class="step" x="22.36" y="26.00" width="4.00" height="3.00"/>
<text class="label" x="24.36" y="27.50">2</text>
<rect class="step" x="22.36" y="37.00" width="4.00" height="3.00"/>
<text class="label" x="24.36" y="38.50">3</text>
<rect class="step" x="22.36" y="48.00" width="4.00" height="3.00"/>
<text class="label" x="24.36" y="49.50">4</text>
<rect class="step" x="22.36" y="59.00" width="4.00" height="3.00"/>
<text class="label" x="24.36" y="60.50">5</text>
<rect class="step" x="22.36" y="70.00" width="4.00" height="3.00"/>
<text class="label" x="24.36" y="71.50">6</text>
<rect class="step" x="8.00" y="79.00" width="4.00" height="3.00"/>
<text class="label" x="10.00" y="80.50">7</text>
<rect class="step" x="36.72" y="79.00" width="4.00" height="3.00"/>
<text class="label" x="38.72" y="80.50">8</text>
<rect class="step" x="22.36" y="90.00" width="4.00" height="3.00"/>
<text class="label" x="24.36" y="91.50">9</text>
<rect class="step" x="8.00" y="99.00" width="4.00" height="3.00"/>
<text class="label" x="10.00" y="100.50">10</text>
<rect class="step" x="22.36" y="99.00" width="4.00" height="3.00"/>
<text class="label" x="24.36" y="100.50">11</text>
<rect class="step" x="22.36" y="116.00" width="4.00" height="3.00"/>
<text class="label" x="24.36" y="117.50">12</text>
<rect class="step" x="36.72" y="99.00" width="4.00" height="3.00"/>
<text class="label" x="38.72" y="100.50">13</text>
<line class="assoc" x1="26.36" y1="5.50" x2="27.36" y2="5.50"/>
<rect class="action" x="27.36" y="4.07" width="8.36" height="2.86" rx="0.45" ry="0.45"/>
<text class="action-label" x="31.54" y="5.50"><tspan x="31.54" dy="0">閒置無inflight</tspan></text>
<line class="assoc" x1="26.36" y1="16.50" x2="27.36" y2="16.50"/>
<rect class="action" x="27.36" y="15.07" width="8.36" height="2.86" rx="0.45" ry="0.45"/>
<text class="action-label" x="31.54" y="16.09"><tspan x="31.54" dy="0">解析family透過</tspan><tspan x="31.54" dy="0.82">assertfamilykey</tspan></text>
<line class="assoc" x1="26.36" y1="27.50" x2="27.36" y2="27.50"/>
<rect class="action" x="27.36" y="26.07" width="8.36" height="2.86" rx="0.45" ry="0.45"/>
<text class="action-label" x="31.54" y="27.09"><tspan x="31.54" dy="0">select帳號透過</tspan><tspan x="31.54" dy="0.82">驗證gettwoarg</tspan></text>
<line class="assoc" x1="26.36" y1="38.50" x2="27.36" y2="38.50"/>
<rect class="action" x="27.36" y="37.07" width="8.36" height="2.86" rx="0.45" ry="0.45"/>
<text class="action-label" x="31.54" y="37.68"><tspan x="31.54" dy="0">instantiatesdk透</tspan><tspan x="31.54" dy="0.82">過getSDK family帳</tspan><tspan x="31.54" dy="0.82">號id模型</tspan></text>
<line class="assoc" x1="26.36" y1="49.50" x2="27.36" y2="49.50"/>
<rect class="action" x="27.36" y="48.07" width="8.36" height="2.86" rx="0.45" ry="0.45"/>
<text class="action-label" x="31.54" y="49.09"><tspan x="31.54" dy="0">建置headers建置</tspan><tspan x="31.54" dy="0.82">headers或組裝betas</tspan></text>
<line class="assoc" x1="26.36" y1="60.50" x2="27.36" y2="60.50"/>
<rect class="action" x="27.36" y="59.07" width="8.36" height="2.86" rx="0.45" ry="0.45"/>
<text class="action-label" x="31.54" y="59.68"><tspan x="31.54" dy="0">transformpayl</tspan><tspan x="31.54" dy="0.82">oadapplycaching或</tspan><tspan x="31.54" dy="0.82">skipnative</tspan></text>
<line class="assoc" x1="26.36" y1="71.50" x2="27.36" y2="71.50"/>
<rect class="action" x="27.36" y="70.07" width="8.36" height="2.86" rx="0.45" ry="0.45"/>
<text class="action-label" x="31.54" y="71.09"><tspan x="31.54" dy="0">choosetrans</tspan><tspan x="31.54" dy="0.82">portws或http</tspan></text>
<line class="assoc" x1="12.00" y1="80.50" x2="13.00" y2="80.50"/>
<rect class="action" x="13.00" y="79.07" width="8.36" height="2.86" rx="0.45" ry="0.45"/>
<text class="action-label" x="17.18" y="79.68"><tspan x="17.18" dy="0">派發透過websocketu</tspan><tspan x="17.18" dy="0.82">pgraderesponsesw</tspan><tspan x="17.18" dy="0.82">ebsockets20260206</tspan></text>
<line class="assoc" x1="40.72" y1="80.50" x2="41.72" y2="80.50"/>
<rect class="action" x="41.72" y="79.07" width="8.36" height="2.86" rx="0.45" ry="0.45"/>
<text class="action-label" x="45.90" y="80.09"><tspan x="45.90" dy="0">派發透過httppost文</tspan><tspan x="45.90" dy="0.82">字事件串流</tspan></text>
<line class="assoc" x1="26.36" y1="91.50" x2="27.36" y2="91.50"/>
<rect class="action" x="27.36" y="90.07" width="8.36" height="2.86" rx="0.45" ry="0.45"/>
<text class="action-label" x="31.54" y="91.09"><tspan x="31.54" dy="0">串流分塊</tspan><tspan x="31.54" dy="0.82">classify錯誤</tspan></text>
<line class="assoc" x1="12.00" y1="100.50" x2="13.00" y2="100.50"/>
<rect class="action" x="13.00" y="99.07" width="8.36" height="2.86" rx="0.45" ry="0.45"/>
<text class="action-label" x="17.18" y="99.68"><tspan x="17.18" dy="0">更新tokenusage與</tspan><tspan x="17.18" dy="0.82">ratelimitte</tspan><tspan x="17.18" dy="0.82">lemetry</tspan></text>
<line class="assoc" x1="26.36" y1="100.50" x2="27.36" y2="100.50"/>
<rect class="action" x="27.36" y="99.07" width="8.36" height="2.86" rx="0.45" ry="0.45"/>
<text class="action-label" x="31.54" y="100.09"><tspan x="31.54" dy="0">rotate帳號或</tspan><tspan x="31.54" dy="0.82">backoff透過輪替3d</tspan></text>
<line class="assoc" x1="26.36" y1="117.50" x2="27.36" y2="117.50"/>
<rect class="action" x="27.36" y="116.07" width="8.36" height="2.86" rx="0.45" ry="0.45"/>
<text class="action-label" x="31.54" y="117.09"><tspan x="31.54" dy="0">返回到閒置</tspan><tspan x="31.54" dy="0.82">releaseinflight</tspan></text>
<line class="assoc" x1="40.72" y1="100.50" x2="41.72" y2="100.50"/>
<rect class="action" x="41.72" y="99.07" width="8.36" height="2.86" rx="0.45" ry="0.45"/>
<text class="action-label" x="45.90" y="100.09"><tspan x="45.90" dy="0">發出延續invalidate</tspan><tspan x="45.90" dy="0.82">dbus事件與evict快取</tspan></text>
<line class="gate" x1="23.36" y1="11.00" x2="25.36" y2="11.00"/>
<text class="gate-label" x="25.76" y="11.00"><tspan x="25.76" dy="0">請求已收到</tspan></text>
<line class="gate" x1="23.36" y1="22.00" x2="25.36" y2="22.00"/>
<text class="gate-label" x="25.76" y="22.00"><tspan x="25.76" dy="0">family在knownfamilies</tspan></text>
<line class="gate" x1="23.36" y1="33.00" x2="25.36" y2="33.00"/>
<text class="gate-label" x="25.76" y="33.00"><tspan x="25.76" dy="0">帳號idpresent與active</tspan></text>
<line class="gate" x1="23.36" y1="44.00" x2="25.36" y2="44.00"/>
<text class="gate-label" x="25.76" y="44.00"><tspan x="25.76" dy="0">sdkclient就緒</tspan></text>
<line class="gate" x1="23.36" y1="55.00" x2="25.36" y2="55.00"/>
<text class="gate-label" x="25.76" y="55.00"><tspan x="25.76" dy="0">headersfinalized</tspan></text>
<line class="gate" x1="23.36" y1="66.00" x2="25.36" y2="66.00"/>
<text class="gate-label" x="25.76" y="66.00"><tspan x="25.76" dy="0">payloadtransform完成</tspan></text>
<line class="gate" x1="6.00" y1="75.00" x2="42.72" y2="75.00"/>
<line class="gate" x1="8.00" y1="88.00" x2="40.72" y2="88.00"/>
<line class="gate" x1="6.00" y1="95.00" x2="42.72" y2="95.00"/>
<line class="gate" x1="8.00" y1="114.00" x2="26.36" y2="114.00"/>
<line class="gate" x1="23.36" y1="121.00" x2="25.36" y2="121.00"/>
<text class="gate-label" x="25.76" y="121.00"><tspan x="25.76" dy="0">1</tspan></text>
<line class="gate" x1="37.72" y1="110.00" x2="39.72" y2="110.00"/>
<text class="gate-label" x="40.12" y="110.00"><tspan x="40.12" dy="0">bus事件emitted與快取evicted</tspan></text>
<line class="gate" x1="9.00" y1="77.00" x2="11.00" y2="77.00"/>
<text class="gate-label-left" x="8.60" y="77.00"><tspan x="8.60" dy="0">ws已啟用與不stickyfallback</tspan></text>
<line class="gate" x1="37.72" y1="77.00" x2="39.72" y2="77.00"/>
<text class="gate-label-left" x="37.32" y="77.00"><tspan x="37.32" dy="0">http或wsstickyfallback</tspan></text>
<line class="gate" x1="9.00" y1="86.00" x2="11.00" y2="86.00"/>
<text class="gate-label-left" x="8.60" y="86.00"><tspan x="8.60" dy="0">wshandshakeok</tspan></text>
<line class="gate" x1="37.72" y1="86.00" x2="39.72" y2="86.00"/>
<text class="gate-label-left" x="37.32" y="86.00"><tspan x="37.32" dy="0">http回應opened</tspan></text>
<line class="gate" x1="9.00" y1="97.00" x2="11.00" y2="97.00"/>
<text class="gate-label" x="11.40" y="97.00"><tspan x="11.40" dy="0">分塊completionframe</tspan></text>
<line class="gate" x1="23.36" y1="97.00" x2="25.36" y2="97.00"/>
<text class="gate-label" x="25.76" y="97.00"><tspan x="25.76" dy="0">ratelimit或配額hit</tspan></text>
<line class="gate" x1="37.72" y1="97.00" x2="39.72" y2="97.00"/>
<text class="gate-label" x="40.12" y="97.00"><tspan x="40.12" dy="0">延續invalidated或4xx5xx</tspan></text>
<line class="gate" x1="9.00" y1="112.00" x2="11.00" y2="112.00"/>
<text class="gate-label-left" x="8.60" y="112.00"><tspan x="8.60" dy="0">telemetrycommitted</tspan></text>
<line class="gate" x1="23.36" y1="112.00" x2="25.36" y2="112.00"/>
<text class="gate-label-left" x="22.96" y="111.32"><tspan x="22.96" dy="0">candidatepoo</tspan><tspan x="22.96" dy="0.68">lexhausted或</tspan><tspan x="22.96" dy="0.68">backoffdone</tspan></text>
<circle class="junction" cx="24.36" cy="110.00" r="0.22"/>
<circle class="junction" cx="24.36" cy="111.38" r="0.22"/>
</svg>