<svg xmlns="http://www.w3.org/2000/svg" width="980" height="1790" viewBox="0 0 980 1790" role="img" aria-label="provider GRAFCET A0">
<defs><marker id="arrow" markerWidth="10" markerHeight="10" refX="8" refY="3" orient="auto" markerUnits="strokeWidth"><path d="M0,0 L0,6 L9,3 z" fill="#111"/></marker></defs>
<style>
.title{font:bold 26px serif;fill:#111}.meta{font:14px monospace;fill:#555}.step{fill:#fff;stroke:#111;stroke-width:2}.step-inner{fill:none;stroke:#111;stroke-width:1.5}.step-no{font:bold 22px serif;text-anchor:middle;dominant-baseline:middle}.assoc,.edge{stroke:#111;stroke-width:2;fill:none}.action{fill:#fff;stroke:#111;stroke-width:2}.module{fill:#f8fafc;stroke:#475569;stroke-width:1.5}.label{font:18px serif;fill:#111}.module-label{font:15px monospace;fill:#334155}.gate{font:14px serif;fill:#444}.gate-line{stroke:#111;stroke-width:2}
</style>
<rect width="100%" height="100%" fill="white"/>
<text class="title" x="40" y="42">provider GRAFCET A0</text><text class="meta" x="40" y="70">source: specs/provider/grafcet.json · layer: A0</text><rect class="step" x="54" y="105" width="72" height="72" rx="9"/><rect class="step-inner" x="62" y="113" width="56" height="56" rx="7"/><text class="step-no" x="90" y="149">0</text><line class="assoc" x1="126" y1="141" x2="160" y2="141"/><rect class="action" x="160" y="105" width="500" height="72" rx="8"/><text class="label" x="176" y="129"><tspan x="176" dy="0">閒置無inflight</tspan></text><rect class="module" x="690" y="105" width="220" height="72" rx="8"/><text class="module-label" x="704" y="132"><tspan x="704" dy="0">ModuleRef: A0</tspan></text><text class="gate" x="176" y="197"><tspan x="176" dy="0">請求已收到</tspan></text><path class="edge" d="M90 177 L90 225" marker-end="url(#arrow)"/><line class="gate-line" x1="58" y1="199" x2="122" y2="199"/><rect class="step" x="54" y="225" width="72" height="72" rx="9"/><text class="step-no" x="90" y="269">1</text><line class="assoc" x1="126" y1="261" x2="160" y2="261"/><rect class="action" x="160" y="225" width="500" height="72" rx="8"/><text class="label" x="176" y="249"><tspan x="176" dy="0">解析family透過assertfamilykey</tspan></text><rect class="module" x="690" y="225" width="220" height="72" rx="8"/><text class="module-label" x="704" y="252"><tspan x="704" dy="0">ModuleRef: A1</tspan></text><text class="gate" x="176" y="317"><tspan x="176" dy="0">family在knownfamilies</tspan></text><path class="edge" d="M90 297 L90 345" marker-end="url(#arrow)"/><line class="gate-line" x1="58" y1="319" x2="122" y2="319"/><rect class="step" x="54" y="345" width="72" height="72" rx="9"/><text class="step-no" x="90" y="389">2</text><line class="assoc" x1="126" y1="381" x2="160" y2="381"/><rect class="action" x="160" y="345" width="500" height="72" rx="8"/><text class="label" x="176" y="369"><tspan x="176" dy="0">select帳號透過驗證gettwoarg</tspan></text><rect class="module" x="690" y="345" width="220" height="72" rx="8"/><text class="module-label" x="704" y="372"><tspan x="704" dy="0">ModuleRef: A2</tspan></text><text class="gate" x="176" y="437"><tspan x="176" dy="0">帳號idpresent與active</tspan></text><path class="edge" d="M90 417 L90 465" marker-end="url(#arrow)"/><line class="gate-line" x1="58" y1="439" x2="122" y2="439"/><rect class="step" x="54" y="465" width="72" height="72" rx="9"/><text class="step-no" x="90" y="509">3</text><line class="assoc" x1="126" y1="501" x2="160" y2="501"/><rect class="action" x="160" y="465" width="500" height="72" rx="8"/><text class="label" x="176" y="489"><tspan x="176" dy="0">instantiatesdk透過getSDK family帳號id模</tspan><tspan x="176" dy="16">型</tspan></text><rect class="module" x="690" y="465" width="220" height="72" rx="8"/><text class="module-label" x="704" y="492"><tspan x="704" dy="0">ModuleRef: A3</tspan></text><text class="gate" x="176" y="557"><tspan x="176" dy="0">sdkclient就緒</tspan></text><path class="edge" d="M90 537 L90 585" marker-end="url(#arrow)"/><line class="gate-line" x1="58" y1="559" x2="122" y2="559"/><rect class="step" x="54" y="585" width="72" height="72" rx="9"/><text class="step-no" x="90" y="629">4</text><line class="assoc" x1="126" y1="621" x2="160" y2="621"/><rect class="action" x="160" y="585" width="500" height="72" rx="8"/><text class="label" x="176" y="609"><tspan x="176" dy="0">建置headers建置headers或組裝betas</tspan></text><rect class="module" x="690" y="585" width="220" height="72" rx="8"/><text class="module-label" x="704" y="612"><tspan x="704" dy="0">ModuleRef: A4</tspan></text><text class="gate" x="176" y="677"><tspan x="176" dy="0">headersfinalized</tspan></text><path class="edge" d="M90 657 L90 705" marker-end="url(#arrow)"/><line class="gate-line" x1="58" y1="679" x2="122" y2="679"/><rect class="step" x="54" y="705" width="72" height="72" rx="9"/><text class="step-no" x="90" y="749">5</text><line class="assoc" x1="126" y1="741" x2="160" y2="741"/><rect class="action" x="160" y="705" width="500" height="72" rx="8"/><text class="label" x="176" y="729"><tspan x="176" dy="0">transformpayloadapplycaching或skipn</tspan><tspan x="176" dy="16">ative</tspan></text><rect class="module" x="690" y="705" width="220" height="72" rx="8"/><text class="module-label" x="704" y="732"><tspan x="704" dy="0">ModuleRef: A5</tspan></text><text class="gate" x="176" y="797"><tspan x="176" dy="0">payloadtransform完成</tspan></text><path class="edge" d="M90 777 L90 825" marker-end="url(#arrow)"/><line class="gate-line" x1="58" y1="799" x2="122" y2="799"/><rect class="step" x="54" y="825" width="72" height="72" rx="9"/><text class="step-no" x="90" y="869">6</text><line class="assoc" x1="126" y1="861" x2="160" y2="861"/><rect class="action" x="160" y="825" width="500" height="72" rx="8"/><text class="label" x="176" y="849"><tspan x="176" dy="0">choosetransportws或http</tspan></text><rect class="module" x="690" y="825" width="220" height="72" rx="8"/><text class="module-label" x="704" y="852"><tspan x="704" dy="0">ModuleRef: A61</tspan></text><text class="gate" x="176" y="917"><tspan x="176" dy="0">ws已啟用與不stickyfallback; http或wsstickyfallback</tspan></text><path class="edge" d="M90 897 L90 945" marker-end="url(#arrow)"/><line class="gate-line" x1="58" y1="919" x2="122" y2="919"/><rect class="step" x="54" y="945" width="72" height="72" rx="9"/><text class="step-no" x="90" y="989">7</text><line class="assoc" x1="126" y1="981" x2="160" y2="981"/><rect class="action" x="160" y="945" width="500" height="72" rx="8"/><text class="label" x="176" y="969"><tspan x="176" dy="0">派發透過websocketupgraderesponseswebso</tspan><tspan x="176" dy="16">ckets20260206</tspan></text><rect class="module" x="690" y="945" width="220" height="72" rx="8"/><text class="module-label" x="704" y="972"><tspan x="704" dy="0">ModuleRef: A62</tspan></text><text class="gate" x="176" y="1037"><tspan x="176" dy="0">wshandshakeok</tspan></text><path class="edge" d="M90 1017 L90 1065" marker-end="url(#arrow)"/><line class="gate-line" x1="58" y1="1039" x2="122" y2="1039"/><rect class="step" x="54" y="1065" width="72" height="72" rx="9"/><text class="step-no" x="90" y="1109">8</text><line class="assoc" x1="126" y1="1101" x2="160" y2="1101"/><rect class="action" x="160" y="1065" width="500" height="72" rx="8"/><text class="label" x="176" y="1089"><tspan x="176" dy="0">派發透過httppost文字事件串流</tspan></text><rect class="module" x="690" y="1065" width="220" height="72" rx="8"/><text class="module-label" x="704" y="1092"><tspan x="704" dy="0">ModuleRef: A62</tspan></text><text class="gate" x="176" y="1157"><tspan x="176" dy="0">http回應opened</tspan></text><path class="edge" d="M90 1137 L90 1185" marker-end="url(#arrow)"/><line class="gate-line" x1="58" y1="1159" x2="122" y2="1159"/><rect class="step" x="54" y="1185" width="72" height="72" rx="9"/><text class="step-no" x="90" y="1229">9</text><line class="assoc" x1="126" y1="1221" x2="160" y2="1221"/><rect class="action" x="160" y="1185" width="500" height="72" rx="8"/><text class="label" x="176" y="1209"><tspan x="176" dy="0">串流分塊classify錯誤</tspan></text><rect class="module" x="690" y="1185" width="220" height="72" rx="8"/><text class="module-label" x="704" y="1212"><tspan x="704" dy="0">ModuleRef: A63</tspan></text><text class="gate" x="176" y="1277"><tspan x="176" dy="0">分塊completionframe; ratelimit或配額hit; 延續invalidated或4xx5xx</tspan></text><path class="edge" d="M90 1257 L90 1305" marker-end="url(#arrow)"/><line class="gate-line" x1="58" y1="1279" x2="122" y2="1279"/><rect class="step" x="54" y="1305" width="72" height="72" rx="9"/><text class="step-no" x="90" y="1349">10</text><line class="assoc" x1="126" y1="1341" x2="160" y2="1341"/><rect class="action" x="160" y="1305" width="500" height="72" rx="8"/><text class="label" x="176" y="1329"><tspan x="176" dy="0">更新tokenusage與ratelimittelemetry</tspan></text><rect class="module" x="690" y="1305" width="220" height="72" rx="8"/><text class="module-label" x="704" y="1332"><tspan x="704" dy="0">ModuleRef: A65</tspan></text><text class="gate" x="176" y="1397"><tspan x="176" dy="0">telemetrycommitted</tspan></text><path class="edge" d="M90 1377 L90 1425" marker-end="url(#arrow)"/><line class="gate-line" x1="58" y1="1399" x2="122" y2="1399"/><rect class="step" x="54" y="1425" width="72" height="72" rx="9"/><text class="step-no" x="90" y="1469">11</text><line class="assoc" x1="126" y1="1461" x2="160" y2="1461"/><rect class="action" x="160" y="1425" width="500" height="72" rx="8"/><text class="label" x="176" y="1449"><tspan x="176" dy="0">rotate帳號或backoff透過輪替3d</tspan></text><rect class="module" x="690" y="1425" width="220" height="72" rx="8"/><text class="module-label" x="704" y="1452"><tspan x="704" dy="0">ModuleRef: A2</tspan></text><text class="gate" x="176" y="1517"><tspan x="176" dy="0">candidatepoolexhausted或backoffdone</tspan></text><path class="edge" d="M90 1497 L90 1545" marker-end="url(#arrow)"/><line class="gate-line" x1="58" y1="1519" x2="122" y2="1519"/><rect class="step" x="54" y="1545" width="72" height="72" rx="9"/><text class="step-no" x="90" y="1589">12</text><line class="assoc" x1="126" y1="1581" x2="160" y2="1581"/><rect class="action" x="160" y="1545" width="500" height="72" rx="8"/><text class="label" x="176" y="1569"><tspan x="176" dy="0">返回到閒置releaseinflight</tspan></text><rect class="module" x="690" y="1545" width="220" height="72" rx="8"/><text class="module-label" x="704" y="1572"><tspan x="704" dy="0">ModuleRef: A0</tspan></text><text class="gate" x="176" y="1637"><tspan x="176" dy="0">1</tspan></text><path class="edge" d="M90 1617 L90 1665" marker-end="url(#arrow)"/><line class="gate-line" x1="58" y1="1639" x2="122" y2="1639"/><rect class="step" x="54" y="1665" width="72" height="72" rx="9"/><text class="step-no" x="90" y="1709">13</text><line class="assoc" x1="126" y1="1701" x2="160" y2="1701"/><rect class="action" x="160" y="1665" width="500" height="72" rx="8"/><text class="label" x="176" y="1689"><tspan x="176" dy="0">發出延續invalidatedbus事件與evict快取</tspan></text><rect class="module" x="690" y="1665" width="220" height="72" rx="8"/><text class="module-label" x="704" y="1692"><tspan x="704" dy="0">ModuleRef: A64</tspan></text><text class="gate" x="176" y="1757"><tspan x="176" dy="0">bus事件emitted與快取evicted</tspan></text>
</svg>
