<svg width="2995" height="790" viewBox="-1188.5 -50.0 2994.7 790.0" xmlns="http://www.w3.org/2000/svg">
<defs><marker id="arrow" viewBox="0 0 10 10" refX="10" refY="5" markerWidth="6" markerHeight="6" orient="auto-start-reverse"><path d="M 0 0 L 10 5 L 0 10 z" fill="black" /></marker></defs>
<rect x="-1188.5" y="-50.0" width="2994.7" height="790.0" fill="white" />
<rect x="380.0" y="80.0" width="40.0" height="40.0" stroke="black" stroke-width="1.5" fill="white" />
<rect x="385.0" y="85.0" width="30.0" height="30.0" stroke="black" stroke-width="1" fill="none" />
<text x="400" y="105.0" text-anchor="middle" font-family="'Times New Roman', 'BiauKai', 'DFKai-SB', '標楷體', 'KaiTi', serif" font-weight="bold" font-size="14">0</text>
<line x1="420.0" y1="100.0" x2="460.0" y2="100.0" stroke="black" />
<rect x="459.99999999999994" y="54.0" width="315.4" height="92.0" stroke="black" stroke-width="1.2" fill="white" />
<text x="617.6999999999999" y="92.0" text-anchor="middle" font-family="'Times New Roman', 'BiauKai', 'DFKai-SB', '標楷體', 'KaiTi', serif" font-size="11">Session 閒置; runloop does</text>
<text x="617.6999999999999" y="116.00000000000001" text-anchor="middle" font-family="'Times New Roman', 'BiauKai', 'DFKai-SB', '標楷體', 'KaiTi', serif" font-size="11">不 pump 自主 continuations</text>
<line x1="400" y1="120.0" x2="400" y2="200.0" stroke="black" />
<line x1="380" y1="160.0" x2="420" y2="160.0" stroke="black" stroke-width="2" />
<text x="424.0" y="164.0" font-style="italic" font-size="11" text-anchor="start" font-family="'Times New Roman', 'BiauKai', 'DFKai-SB', '標楷體', 'KaiTi', serif">啟用signal已收到 AND bindingvalid AND 狀態 IN {planned, implementing} AND has可執行待辦</text>
<rect x="380.0" y="200.0" width="40.0" height="40.0" stroke="black" stroke-width="1.5" fill="white" />
<text x="400" y="225.0" text-anchor="middle" font-family="'Times New Roman', 'BiauKai', 'DFKai-SB', '標楷體', 'KaiTi', serif" font-weight="bold" font-size="14">1</text>
<line x1="420.0" y1="220.0" x2="460.0" y2="220.0" stroke="black" />
<rect x="459.99999999999994" y="174.0" width="315.4" height="92.0" stroke="black" stroke-width="1.2" fill="white" />
<text x="617.6999999999999" y="200.0" text-anchor="middle" font-family="'Times New Roman', 'BiauKai', 'DFKai-SB', '標楷體', 'KaiTi', serif" font-size="11">Autorun 已啟用; runloop</text>
<text x="617.6999999999999" y="224.0" text-anchor="middle" font-family="'Times New Roman', 'BiauKai', 'DFKai-SB', '標楷體', 'KaiTi', serif" font-size="11">pumps 延續 when todolist</text>
<text x="617.6999999999999" y="248.00000000000003" text-anchor="middle" font-family="'Times New Roman', 'BiauKai', 'DFKai-SB', '標楷體', 'KaiTi', serif" font-size="11">has 可執行 items</text>
<line x1="400" y1="240.0" x2="400" y2="280.0" stroke="black" />
<line x1="-590.8" y1="280.0" x2="1390.7999999999997" y2="280.0" stroke="black" stroke-width="1.5" />
<line x1="-550.8" y1="280.0" x2="-550.8" y2="320.0" stroke="black" />
<line x1="-570.8" y1="320.0" x2="-530.8" y2="320.0" stroke="black" stroke-width="2" />
<text x="-574.8" y="304.0" font-style="italic" font-size="11" text-anchor="end" font-family="'Times New Roman', 'BiauKai', 'DFKai-SB', '標楷體', 'KaiTi', serif">todolistdrained</text>
<text x="-574.8" y="324.0" font-style="italic" font-size="11" text-anchor="end" font-family="'Times New Roman', 'BiauKai', 'DFKai-SB', '標楷體', 'KaiTi', serif">AND 規劃has下</text>
<text x="-574.8" y="344.0" font-style="italic" font-size="11" text-anchor="end" font-family="'Times New Roman', 'BiauKai', 'DFKai-SB', '標楷體', 'KaiTi', serif">一個phase</text>
<line x1="-550.8" y1="320.0" x2="-550.8" y2="360.0" stroke="black" marker-end="url(#arrow)" />
<line x1="400.0" y1="280.0" x2="400.0" y2="320.0" stroke="black" />
<line x1="380.0" y1="320.0" x2="420.0" y2="320.0" stroke="black" stroke-width="2" />
<text x="424.0" y="304.0" font-style="italic" font-size="11" text-anchor="start" font-family="'Times New Roman', 'BiauKai', 'DFKai-SB', '標楷體', 'KaiTi', serif">使用者speaks OR</text>
<text x="424.0" y="324.0" font-style="italic" font-size="11" text-anchor="start" font-family="'Times New Roman', 'BiauKai', 'DFKai-SB', '標楷體', 'KaiTi', serif">blockerfires</text>
<text x="424.0" y="344.0" font-style="italic" font-size="11" text-anchor="start" font-family="'Times New Roman', 'BiauKai', 'DFKai-SB', '標楷體', 'KaiTi', serif">OR abortsignal</text>
<line x1="400.0" y1="320.0" x2="400.0" y2="360.0" stroke="black" marker-end="url(#arrow)" />
<line x1="1350.7999999999997" y1="280.0" x2="1350.7999999999997" y2="320.0" stroke="black" />
<line x1="1330.7999999999997" y1="320.0" x2="1370.7999999999997" y2="320.0" stroke="black" stroke-width="2" />
<text x="1374.8" y="314.0" font-style="italic" font-size="11" text-anchor="start" font-family="'Times New Roman', 'BiauKai', 'DFKai-SB', '標楷體', 'KaiTi', serif">規劃</text>
<text x="1374.8" y="334.0" font-style="italic" font-size="11" text-anchor="start" font-family="'Times New Roman', 'BiauKai', 'DFKai-SB', '標楷體', 'KaiTi', serif">editduringimplementing</text>
<line x1="1350.7999999999997" y1="320.0" x2="1350.7999999999997" y2="360.0" stroke="black" marker-end="url(#arrow)" />
<rect x="-570.8" y="360.0" width="40.0" height="40.0" stroke="black" stroke-width="1.5" fill="white" />
<text x="-550.8" y="385.0" text-anchor="middle" font-family="'Times New Roman', 'BiauKai', 'DFKai-SB', '標楷體', 'KaiTi', serif" font-weight="bold" font-size="14">2</text>
<line x1="-530.8" y1="380.0" x2="-490.79999999999995" y2="380.0" stroke="black" />
<rect x="-490.8" y="334.0" width="315.4" height="92.0" stroke="black" stroke-width="1.2" fill="white" />
<text x="-333.1" y="360.0" text-anchor="middle" font-family="'Times New Roman', 'BiauKai', 'DFKai-SB', '標楷體', 'KaiTi', serif" font-size="11">Refill 待辦write 來自</text>
<text x="-333.1" y="384.0" text-anchor="middle" font-family="'Times New Roman', 'BiauKai', 'DFKai-SB', '標楷體', 'KaiTi', serif" font-size="11">tasks.md 下一個 phase;</text>
<text x="-333.1" y="408.0" text-anchor="middle" font-family="'Times New Roman', 'BiauKai', 'DFKai-SB', '標楷體', 'KaiTi', serif" font-size="11">記錄 autorun.refill 事件</text>
<line x1="-550.8" y1="400.0" x2="-550.8" y2="440.0" stroke="black" />
<line x1="-828.5" y1="440.0" x2="-273.09999999999997" y2="440.0" stroke="black" stroke-width="1.5" />
<line x1="-788.5" y1="440.0" x2="-788.5" y2="480.0" stroke="black" />
<line x1="-808.5" y1="480.0" x2="-768.5" y2="480.0" stroke="black" stroke-width="2" />
<text x="-812.5" y="484.0" font-style="italic" font-size="11" text-anchor="end" font-family="'Times New Roman', 'BiauKai', 'DFKai-SB', '標楷體', 'KaiTi', serif">refillnonempty</text>
<line x1="-788.5" y1="480.0" x2="-788.5" y2="520.0" stroke="black" />
<line x1="-313.09999999999997" y1="440.0" x2="-313.09999999999997" y2="480.0" stroke="black" />
<line x1="-333.09999999999997" y1="480.0" x2="-293.09999999999997" y2="480.0" stroke="black" stroke-width="2" />
<text x="-289.09999999999997" y="484.0" font-style="italic" font-size="11" text-anchor="start" font-family="'Times New Roman', 'BiauKai', 'DFKai-SB', '標楷體', 'KaiTi', serif">refillempty</text>
<line x1="-313.09999999999997" y1="480.0" x2="-313.09999999999997" y2="520.0" stroke="black" marker-end="url(#arrow)" />
<rect x="-333.09999999999997" y="520.0" width="40.0" height="40.0" stroke="black" stroke-width="1.5" fill="white" />
<text x="-313.09999999999997" y="545.0" text-anchor="middle" font-family="'Times New Roman', 'BiauKai', 'DFKai-SB', '標楷體', 'KaiTi', serif" font-weight="bold" font-size="14">5</text>
<line x1="-293.09999999999997" y1="540.0" x2="-253.09999999999997" y2="540.0" stroke="black" />
<rect x="-253.09999999999994" y="494.0" width="315.4" height="92.0" stroke="black" stroke-width="1.2" fill="white" />
<text x="-95.39999999999995" y="520.0" text-anchor="middle" font-family="'Times New Roman', 'BiauKai', 'DFKai-SB', '標楷體', 'KaiTi', serif" font-size="11">規劃 fully drained; flip autorun已</text>
<text x="-95.39999999999995" y="544.0" text-anchor="middle" font-family="'Times New Roman', 'BiauKai', 'DFKai-SB', '標楷體', 'KaiTi', serif" font-size="11">啟用 到 false; 發出 autorun.已完成</text>
<text x="-95.39999999999995" y="568.0" text-anchor="middle" font-family="'Times New Roman', 'BiauKai', 'DFKai-SB', '標楷體', 'KaiTi', serif" font-size="11">; 返回 stop reason 規劃drained</text>
<line x1="-313.09999999999997" y1="560.0" x2="-313.09999999999997" y2="640.0" stroke="black" />
<line x1="-333.09999999999997" y1="600.0" x2="-293.09999999999997" y2="600.0" stroke="black" stroke-width="2" />
<text x="-289.09999999999997" y="604.0" font-style="italic" font-size="11" text-anchor="start" font-family="'Times New Roman', 'BiauKai', 'DFKai-SB', '標楷體', 'KaiTi', serif">cleanup完成</text>
<rect x="380.0" y="360.0" width="40.0" height="40.0" stroke="black" stroke-width="1.5" fill="white" />
<text x="400.0" y="385.0" text-anchor="middle" font-family="'Times New Roman', 'BiauKai', 'DFKai-SB', '標楷體', 'KaiTi', serif" font-weight="bold" font-size="14">3</text>
<line x1="420.0" y1="380.0" x2="460.0" y2="380.0" stroke="black" />
<rect x="459.99999999999994" y="334.0" width="315.4" height="92.0" stroke="black" stroke-width="1.2" fill="white" />
<text x="617.6999999999999" y="360.0" text-anchor="middle" font-family="'Times New Roman', 'BiauKai', 'DFKai-SB', '標楷體', 'KaiTi', serif" font-size="11">停用: flip autorun已啟用 到 false;</text>
<text x="617.6999999999999" y="384.0" text-anchor="middle" font-family="'Times New Roman', 'BiauKai', 'DFKai-SB', '標楷體', 'KaiTi', serif" font-size="11">記錄 autorun.disarmed 使用</text>
<text x="617.6999999999999" y="408.0" text-anchor="middle" font-family="'Times New Roman', 'BiauKai', 'DFKai-SB', '標楷體', 'KaiTi', serif" font-size="11">reason; .state.js在 unchanged</text>
<line x1="400.0" y1="400.0" x2="400.0" y2="480.0" stroke="black" />
<line x1="380.0" y1="440.0" x2="420.0" y2="440.0" stroke="black" stroke-width="2" />
<text x="424.0" y="444.0" font-style="italic" font-size="11" text-anchor="start" font-family="'Times New Roman', 'BiauKai', 'DFKai-SB', '標楷體', 'KaiTi', serif">停用完成</text>
<rect x="1330.7999999999997" y="360.0" width="40.0" height="40.0" stroke="black" stroke-width="1.5" fill="white" />
<text x="1350.7999999999997" y="385.0" text-anchor="middle" font-family="'Times New Roman', 'BiauKai', 'DFKai-SB', '標楷體', 'KaiTi', serif" font-weight="bold" font-size="14">4</text>
<line x1="1370.7999999999997" y1="380.0" x2="1410.7999999999997" y2="380.0" stroke="black" />
<rect x="1410.8" y="334.0" width="315.4" height="92.0" stroke="black" stroke-width="1.2" fill="white" />
<text x="1568.5" y="360.0" text-anchor="middle" font-family="'Times New Roman', 'BiauKai', 'DFKai-SB', '標楷體', 'KaiTi', serif" font-size="11">Demote .state.js在 implementing-</text>
<text x="1568.5" y="384.0" text-anchor="middle" font-family="'Times New Roman', 'BiauKai', 'DFKai-SB', '標楷體', 'KaiTi', serif" font-size="11">&gt;planned; flip autorun已啟用 到</text>
<text x="1568.5" y="408.0" text-anchor="middle" font-family="'Times New Roman', 'BiauKai', 'DFKai-SB', '標楷體', 'KaiTi', serif" font-size="11">false; 記錄 autorun.demoted由edit</text>
<line x1="1350.7999999999997" y1="400.0" x2="1350.7999999999997" y2="480.0" stroke="black" />
<line x1="1330.7999999999997" y1="440.0" x2="1370.7999999999997" y2="440.0" stroke="black" stroke-width="2" />
<text x="1374.8" y="444.0" font-style="italic" font-size="11" text-anchor="start" font-family="'Times New Roman', 'BiauKai', 'DFKai-SB', '標楷體', 'KaiTi', serif">demotion完成</text>
<line x1="-788.5" y1="520.0" x2="-788.5" y2="520.0" stroke="black" />
<line x1="-788.5" y1="520.0" x2="-868.5" y2="520.0" stroke="black" />
<line x1="-868.5" y1="520.0" x2="-868.5" y2="176.0" stroke="black" />
<line x1="-868.5" y1="176.0" x2="400" y2="176.0" stroke="black" marker-end="url(#arrow)" />
<line x1="-313.09999999999997" y1="640.0" x2="-313.09999999999997" y2="660.0" stroke="black" />
<line x1="-313.09999999999997" y1="660.0" x2="-948.5" y2="660.0" stroke="black" />
<line x1="-948.5" y1="660.0" x2="-948.5" y2="30.0" stroke="black" />
<line x1="-948.5" y1="30.0" x2="400" y2="30.0" stroke="black" />
<line x1="400" y1="30.0" x2="400" y2="70.0" stroke="black" marker-end="url(#arrow)" />
<line x1="400.0" y1="480.0" x2="400.0" y2="520.0" stroke="black" />
<line x1="400.0" y1="520.0" x2="-1028.5" y2="520.0" stroke="black" />
<line x1="-1028.5" y1="520.0" x2="-1028.5" y2="30.0" stroke="black" />
<line x1="-1028.5" y1="30.0" x2="400" y2="30.0" stroke="black" />
<line x1="400" y1="30.0" x2="400" y2="70.0" stroke="black" marker-end="url(#arrow)" />
<line x1="1350.7999999999997" y1="480.0" x2="1350.7999999999997" y2="540.0" stroke="black" />
<line x1="1350.7999999999997" y1="540.0" x2="-1108.5" y2="540.0" stroke="black" />
<line x1="-1108.5" y1="540.0" x2="-1108.5" y2="30.0" stroke="black" />
<line x1="-1108.5" y1="30.0" x2="400" y2="30.0" stroke="black" />
<line x1="400" y1="30.0" x2="400" y2="70.0" stroke="black" marker-end="url(#arrow)" />
</svg>