<svg xmlns="http://www.w3.org/2000/svg" width="1568" height="1000" viewBox="-5.50 -2.00 78.42 50.00" role="img">
<style>
.step{fill:#fff;stroke:#111;stroke-width:.14}.step-inner{fill:none;stroke:#111;stroke-width:.08}
.action{fill:#fff;stroke:#111;stroke-width:.14}.gate{stroke:#111;stroke-width:.16}
.edge{fill:none;stroke:#111;stroke-width:.05;stroke-linecap:round;stroke-linejoin:round}.edge-arrow{marker-end:url(#arrow)}
.flyover-mask{stroke:#fff;stroke-width:.12;stroke-linecap:round}
.flyover{fill:none;stroke:#111;stroke-width:.05;stroke-linecap:round}
.junction{fill:#111;stroke:#111;stroke-width:0}.branch-junction{fill:#fff;stroke:#111;stroke-width:.08}
.assoc{stroke:#111;stroke-width:.05}.label{font:bold .7px 'Times New Roman', 'BiauKai', 'DFKai-SB', serif;text-anchor:middle;dominant-baseline:middle}
.action-label{font:.55px 'Times New Roman', 'BiauKai', 'DFKai-SB', serif;text-anchor:middle;dominant-baseline:middle}.gate-label{font:italic .55px 'Times New Roman', 'BiauKai', 'DFKai-SB', serif;text-anchor:start;dominant-baseline:middle}.gate-label-left{font:italic .55px 'Times New Roman', 'BiauKai', 'DFKai-SB', serif;text-anchor:end;dominant-baseline:middle}
</style>
<defs><marker id="arrow" markerWidth="0.4" markerHeight="0.4" refX="0.36" refY="0.2" orient="auto" markerUnits="userSpaceOnUse"><path d="M 0 0 L 0.4 0.2 L 0 0.4 z" fill="#111"/></marker></defs>
<rect x="-5.50" y="-2.00" width="78.42" height="50.00" fill="white"/>
<path class="edge edge-arrow" d="M 25.48 9.00 L 25.48 13.00"/>
<path class="edge" d="M 25.48 7.00 L 25.48 9.00"/>
<path class="edge edge-arrow" d="M 25.48 16.00 L 25.48 18.00"/>
<path class="edge edge-arrow" d="M 40.96 18.00 L 40.96 22.00"/>
<path class="edge edge-arrow" d="M 10.00 18.00 L 10.00 22.00"/>
<path class="edge edge-arrow" d="M 25.48 18.00 L 25.48 22.00"/>
<path class="edge edge-arrow" d="M 40.96 25.00 L 40.96 31.00"/>
<path class="edge" d="M 25.48 31.00 L 25.48 35.00"/>
<path class="edge" d="M 25.48 35.00 L 2.50 35.00"/>
<path class="edge" d="M 2.50 35.00 L 2.50 11.00"/>
<path class="edge" d="M 2.50 11.00 L 25.48 11.00"/>
<path class="edge edge-arrow" d="M 56.44 31.00 L 56.44 37.00"/>
<path class="edge" d="M 10.00 25.00 L 10.00 27.00"/>
<path class="edge edge-arrow" d="M 10.00 27.00 L 10.00 28.50 Q 10.00 29.00 9.50 29.00 L -1.00 29.00 Q -1.50 29.00 -1.50 28.50 L -1.50 2.50 Q -1.50 2.00 -1.00 2.00 L 24.98 2.00 Q 25.48 2.00 25.48 2.50 L 25.48 4.00"/>
<path class="edge" d="M 25.48 25.00 L 25.48 27.00"/>
<path class="edge" d="M 25.48 27.00 L 25.48 29.00"/>
<path class="edge" d="M 25.48 29.00 L 10.00 29.00"/>
<path class="edge" d="M 56.44 40.00 L 56.44 42.00"/>
<path class="edge" d="M 56.44 42.00 L 56.44 44.00"/>
<path class="edge" d="M 56.44 44.00 L -1.50 44.00"/>
<path class="edge" d="M -1.50 44.00 L -1.50 29.00"/>
<rect class="step" x="23.48" y="4.00" width="4.00" height="3.00" rx="0.35" ry="0.35"/>
<rect class="step-inner" x="23.73" y="4.25" width="3.50" height="2.50" rx="0.22" ry="0.22"/>
<text class="label" x="25.48" y="5.50">0</text>
<rect class="step" x="23.48" y="13.00" width="4.00" height="3.00" rx="0.35" ry="0.35"/>
<text class="label" x="25.48" y="14.50">1</text>
<rect class="step" x="38.96" y="22.00" width="4.00" height="3.00" rx="0.35" ry="0.35"/>
<text class="label" x="40.96" y="23.50">2</text>
<rect class="step" x="8.00" y="22.00" width="4.00" height="3.00" rx="0.35" ry="0.35"/>
<text class="label" x="10.00" y="23.50">3</text>
<rect class="step" x="23.48" y="22.00" width="4.00" height="3.00" rx="0.35" ry="0.35"/>
<text class="label" x="25.48" y="23.50">4</text>
<rect class="step" x="54.44" y="37.00" width="4.00" height="3.00" rx="0.35" ry="0.35"/>
<text class="label" x="56.44" y="38.50">5</text>
<line class="assoc" x1="27.48" y1="5.50" x2="28.48" y2="5.50"/>
<rect class="action" x="28.48" y="4.07" width="9.48" height="2.86"/>
<text class="action-label" x="33.22" y="5.09"><tspan x="33.22" dy="0">Session 閒置; runloop does</tspan><tspan x="33.22" dy="0.82">不 pump 自主 continuations</tspan></text>
<line class="assoc" x1="27.48" y1="14.50" x2="28.48" y2="14.50"/>
<rect class="action" x="28.48" y="13.07" width="9.48" height="2.86"/>
<text class="action-label" x="33.22" y="14.09"><tspan x="33.22" dy="0">Autorun 已啟用; runloop pumps 延</tspan><tspan x="33.22" dy="0.82">續 when todolist has 可執行 items</tspan></text>
<line class="assoc" x1="42.96" y1="23.50" x2="43.96" y2="23.50"/>
<rect class="action" x="43.96" y="22.07" width="9.48" height="2.86"/>
<text class="action-label" x="48.70" y="22.68"><tspan x="48.70" dy="0">Refill 待辦write 來自</tspan><tspan x="48.70" dy="0.82">tasks.md 下一個 phase;</tspan><tspan x="48.70" dy="0.82">記錄 autorun.refill 事件</tspan></text>
<line class="assoc" x1="12.00" y1="23.50" x2="13.00" y2="23.50"/>
<rect class="action" x="13.00" y="22.07" width="9.48" height="2.86"/>
<text class="action-label" x="17.74" y="22.68"><tspan x="17.74" dy="0">停用: flip autorun已啟用 到 f</tspan><tspan x="17.74" dy="0.82">alse; 記錄 autorun.disarmed 使</tspan><tspan x="17.74" dy="0.82">用 reason; .state.js在 unchanged</tspan></text>
<line class="assoc" x1="27.48" y1="23.50" x2="28.48" y2="23.50"/>
<rect class="action" x="28.48" y="22.07" width="9.48" height="2.86"/>
<text class="action-label" x="33.22" y="22.68"><tspan x="33.22" dy="0">Demote .state.js在 implementing-&gt;</tspan><tspan x="33.22" dy="0.82">planned; flip autorun已啟用 到 f</tspan><tspan x="33.22" dy="0.82">alse; 記錄 autorun.demoted由edit</tspan></text>
<line class="assoc" x1="58.44" y1="38.50" x2="59.44" y2="38.50"/>
<rect class="action" x="59.44" y="37.07" width="9.48" height="2.86"/>
<text class="action-label" x="64.18" y="37.68"><tspan x="64.18" dy="0">規劃 fully drained; flip autorun已</tspan><tspan x="64.18" dy="0.82">啟用 到 false; 發出 autorun.已完</tspan><tspan x="64.18" dy="0.82">成; 返回 stop reason 規劃drained</tspan></text>
<line class="gate" x1="24.48" y1="9.00" x2="26.48" y2="9.00"/>
<text class="gate-label" x="26.88" y="9.00"><tspan x="26.88" dy="0">啟用signal已收到 AND bindingvalid AND 狀態 IN {planned, implementing} AND has可執行待辦</tspan></text>
<line class="gate" x1="6.50" y1="18.00" x2="44.46" y2="18.00"/>
<line class="gate" x1="23.48" y1="31.00" x2="58.44" y2="31.00"/>
<line class="gate" x1="9.00" y1="27.00" x2="11.00" y2="27.00"/>
<text class="gate-label" x="11.40" y="27.00"><tspan x="11.40" dy="0">停用完成</tspan></text>
<line class="gate" x1="24.48" y1="27.00" x2="26.48" y2="27.00"/>
<text class="gate-label" x="26.88" y="27.00"><tspan x="26.88" dy="0">demotion完成</tspan></text>
<line class="gate" x1="55.44" y1="42.00" x2="57.44" y2="42.00"/>
<text class="gate-label" x="57.84" y="42.00"><tspan x="57.84" dy="0">cleanup完成</tspan></text>
<line class="gate" x1="39.96" y1="20.00" x2="41.96" y2="20.00"/>
<text class="gate-label" x="42.36" y="20.00"><tspan x="42.36" dy="0">todolistdrained AND 規劃has下一個phase</tspan></text>
<line class="gate" x1="9.00" y1="20.00" x2="11.00" y2="20.00"/>
<text class="gate-label-left" x="8.60" y="19.32"><tspan x="8.60" dy="0">使用者speaks</tspan><tspan x="8.60" dy="0.68">OR blockerfires</tspan><tspan x="8.60" dy="0.68">OR abortsignal</tspan></text>
<line class="gate" x1="24.48" y1="20.00" x2="26.48" y2="20.00"/>
<text class="gate-label" x="26.88" y="20.00"><tspan x="26.88" dy="0">規劃editduringimplementing</tspan></text>
<line class="gate" x1="24.48" y1="33.00" x2="26.48" y2="33.00"/>
<text class="gate-label-left" x="24.08" y="33.00"><tspan x="24.08" dy="0">refillnonempty</tspan></text>
<line class="gate" x1="55.44" y1="27.00" x2="57.44" y2="27.00"/>
<text class="gate-label" x="57.84" y="27.00"><tspan x="57.84" dy="0">refillempty</tspan></text>
<circle class="junction" cx="25.48" cy="11.00" r="0.22"/>
<circle class="junction" cx="10.00" cy="29.00" r="0.22"/>
<circle class="junction" cx="-1.50" cy="29.00" r="0.22"/>
</svg>