<svg xmlns="http://www.w3.org/2000/svg" width="1040" height="1880" viewBox="-6.00 -2.00 52.00 94.00" role="img">
<style>
.step{fill:#fff;stroke:#111;stroke-width:.14}.step-inner{fill:none;stroke:#111;stroke-width:.08}
.action{fill:#fff;stroke:#111;stroke-width:.14}.gate{stroke:#111;stroke-width:.16}
.edge{fill:none;stroke:#111;stroke-width:.05;stroke-linecap:round;stroke-linejoin:round}.edge-arrow{marker-end:url(#arrow)}
.flyover-mask{stroke:#fff;stroke-width:.12;stroke-linecap:round}
.flyover{fill:none;stroke:#111;stroke-width:.05;stroke-linecap:round}
.junction{fill:#111;stroke:#111;stroke-width:0}.branch-junction{fill:#fff;stroke:#111;stroke-width:.08}
.assoc{stroke:#111;stroke-width:.05}.label{font:bold .7px 'Times New Roman', 'BiauKai', 'DFKai-SB', serif;text-anchor:middle;dominant-baseline:middle}
.action-label{font:.55px 'Times New Roman', 'BiauKai', 'DFKai-SB', serif;text-anchor:middle;dominant-baseline:middle}.gate-label{font:italic .55px 'Times New Roman', 'BiauKai', 'DFKai-SB', serif;text-anchor:start;dominant-baseline:middle}.gate-label-left{font:italic .55px 'Times New Roman', 'BiauKai', 'DFKai-SB', serif;text-anchor:end;dominant-baseline:middle}
</style>
<defs><marker id="arrow" markerWidth="0.4" markerHeight="0.4" refX="0.36" refY="0.2" orient="auto" markerUnits="userSpaceOnUse"><path d="M 0 0 L 0.4 0.2 L 0 0.4 z" fill="#111"/></marker></defs>
<rect x="-6.00" y="-2.00" width="52.00" height="94.00" fill="white"/>
<path class="edge edge-arrow" d="M 20.00 32.00 L 20.00 36.00"/>
<path class="edge" d="M 20.00 7.00 L 20.00 9.00"/>
<path class="edge edge-arrow" d="M 20.00 9.00 L 20.00 11.00"/>
<path class="edge" d="M 20.00 14.00 L 20.00 16.00"/>
<path class="edge edge-arrow" d="M 20.00 16.00 L 20.00 18.00"/>
<path class="edge" d="M 20.00 21.00 L 20.00 23.00"/>
<path class="edge" d="M 20.00 23.00 L 20.00 25.00"/>
<path class="edge edge-arrow" d="M 20.00 25.00 L 20.00 27.00"/>
<path class="edge edge-arrow" d="M 20.00 23.00 L 39.50 23.00 Q 40.00 23.00 40.00 23.50 L 40.00 77.00"/>
<path class="edge edge-arrow" d="M 20.00 77.00 L 20.00 81.00"/>
<path class="edge" d="M 20.00 30.00 L 20.00 32.00"/>
<path class="edge edge-arrow" d="M 20.00 39.00 L 20.00 41.00"/>
<path class="edge edge-arrow" d="M 10.00 41.00 L 10.00 45.00"/>
<path class="edge edge-arrow" d="M 20.00 41.00 L 20.00 45.00"/>
<path class="edge edge-arrow" d="M 30.00 41.00 L 30.00 45.00"/>
<path class="edge" d="M 10.00 48.00 L 10.00 50.00"/>
<path class="edge" d="M 10.00 50.00 L 10.00 52.00"/>
<path class="edge" d="M 10.00 52.00 L 2.00 52.00"/>
<path class="edge" d="M 2.00 52.00 L 2.00 34.00"/>
<path class="edge" d="M 2.00 34.00 L 20.00 34.00"/>
<path class="edge edge-arrow" d="M 20.00 48.00 L 20.00 54.00"/>
<path class="edge edge-arrow" d="M 10.00 54.00 L 10.00 56.00"/>
<path class="edge edge-arrow" d="M 20.00 54.00 L 20.00 56.00"/>
<path class="edge edge-arrow" d="M 10.00 59.00 L 10.00 61.00"/>
<path class="edge edge-arrow" d="M 20.00 61.00 L 20.00 65.00"/>
<path class="edge edge-arrow" d="M 20.00 59.00 L 20.00 61.00"/>
<path class="edge" d="M 20.00 68.00 L 20.00 70.00"/>
<path class="edge edge-arrow" d="M 20.00 70.00 L 20.00 72.00"/>
<path class="edge edge-arrow" d="M 20.00 75.00 L 20.00 77.00"/>
<path class="edge edge-arrow" d="M 30.00 48.00 L 30.00 77.00"/>
<path class="edge" d="M 20.00 84.00 L 20.00 86.00"/>
<path class="edge edge-arrow" d="M 20.00 86.00 L 20.00 87.50 Q 20.00 88.00 19.50 88.00 L -1.50 88.00 Q -2.00 88.00 -2.00 87.50 L -2.00 2.50 Q -2.00 2.00 -1.50 2.00 L 19.50 2.00 Q 20.00 2.00 20.00 2.50 L 20.00 4.00"/>
<rect class="step" x="18.00" y="4.00" width="4.00" height="3.00"/>
<rect class="step-inner" x="18.25" y="4.25" width="3.50" height="2.50"/>
<text class="label" x="20.00" y="5.50">0</text>
<rect class="step" x="18.00" y="11.00" width="4.00" height="3.00"/>
<text class="label" x="20.00" y="12.50">1</text>
<rect class="step" x="18.00" y="18.00" width="4.00" height="3.00"/>
<text class="label" x="20.00" y="19.50">2</text>
<rect class="step" x="18.00" y="27.00" width="4.00" height="3.00"/>
<text class="label" x="20.00" y="28.50">3</text>
<rect class="step" x="18.00" y="36.00" width="4.00" height="3.00"/>
<text class="label" x="20.00" y="37.50">4</text>
<rect class="step" x="8.00" y="45.00" width="4.00" height="3.00"/>
<text class="label" x="10.00" y="46.50">5</text>
<rect class="step" x="18.00" y="45.00" width="4.00" height="3.00"/>
<text class="label" x="20.00" y="46.50">6</text>
<rect class="step" x="8.00" y="56.00" width="4.00" height="3.00"/>
<text class="label" x="10.00" y="57.50">7</text>
<rect class="step" x="18.00" y="56.00" width="4.00" height="3.00"/>
<text class="label" x="20.00" y="57.50">8</text>
<rect class="step" x="18.00" y="65.00" width="4.00" height="3.00"/>
<text class="label" x="20.00" y="66.50">9</text>
<rect class="step" x="18.00" y="72.00" width="4.00" height="3.00"/>
<text class="label" x="20.00" y="73.50">10</text>
<rect class="step" x="28.00" y="45.00" width="4.00" height="3.00"/>
<text class="label" x="30.00" y="46.50">11</text>
<rect class="step" x="18.00" y="81.00" width="4.00" height="3.00"/>
<text class="label" x="20.00" y="82.50">12</text>
<line class="assoc" x1="22.00" y1="5.50" x2="23.00" y2="5.50"/>
<rect class="action" x="23.00" y="4.07" width="4.00" height="2.86" rx="0.45" ry="0.45"/>
<text class="action-label" x="25.00" y="4.68"><tspan x="25.00" dy="0">等待下</tspan><tspan x="25.00" dy="0.82">一個runl</tspan><tspan x="25.00" dy="0.82">oopiteration</tspan></text>
<line class="assoc" x1="22.00" y1="12.50" x2="23.00" y2="12.50"/>
<rect class="action" x="23.00" y="11.07" width="4.00" height="2.86" rx="0.45" ry="0.45"/>
<text class="action-label" x="25.00" y="12.09"><tspan x="25.00" dy="0">DeriveObser</tspan><tspan x="25.00" dy="0.82">vedCondition</tspan></text>
<line class="assoc" x1="22.00" y1="19.50" x2="23.00" y2="19.50"/>
<rect class="action" x="23.00" y="18.07" width="4.00" height="2.86" rx="0.45" ry="0.45"/>
<text class="action-label" x="25.00" y="18.68"><tspan x="25.00" dy="0">checkcoo</tspan><tspan x="25.00" dy="0.82">ldown與</tspan><tspan x="25.00" dy="0.82">閒置tail</tspan></text>
<line class="assoc" x1="22.00" y1="28.50" x2="23.00" y2="28.50"/>
<rect class="action" x="23.00" y="27.07" width="4.00" height="2.86" rx="0.45" ry="0.45"/>
<text class="action-label" x="25.00" y="28.09"><tspan x="25.00" dy="0">解析k</tspan><tspan x="25.00" dy="0.82">indchain</tspan></text>
<line class="assoc" x1="22.00" y1="37.50" x2="23.00" y2="37.50"/>
<rect class="action" x="23.00" y="36.07" width="4.00" height="2.86" rx="0.45" ry="0.45"/>
<text class="action-label" x="25.00" y="36.68"><tspan x="25.00" dy="0">try下一</tspan><tspan x="25.00" dy="0.82">個kind</tspan><tspan x="25.00" dy="0.82">在chain</tspan></text>
<line class="assoc" x1="12.00" y1="46.50" x2="13.00" y2="46.50"/>
<rect class="action" x="13.00" y="45.07" width="4.00" height="2.86" rx="0.45" ry="0.45"/>
<text class="action-label" x="15.00" y="45.68"><tspan x="15.00" dy="0">advance到</tspan><tspan x="15.00" dy="0.82">下一個</tspan><tspan x="15.00" dy="0.82">chainindex</tspan></text>
<line class="assoc" x1="22.00" y1="46.50" x2="23.00" y2="46.50"/>
<rect class="action" x="23.00" y="45.07" width="4.00" height="2.86" rx="0.45" ry="0.45"/>
<text class="action-label" x="25.00" y="46.09"><tspan x="25.00" dy="0">branch在an</tspan><tspan x="25.00" dy="0.82">chorwriter</tspan></text>
<line class="assoc" x1="12.00" y1="57.50" x2="13.00" y2="57.50"/>
<rect class="action" x="13.00" y="56.07" width="4.00" height="2.86" rx="0.45" ry="0.45"/>
<text class="action-label" x="15.00" y="56.68"><tspan x="15.00" dy="0">writesan</tspan><tspan x="15.00" dy="0.82">itizedanc</tspan><tspan x="15.00" dy="0.82">hor訊息</tspan></text>
<line class="assoc" x1="22.00" y1="57.50" x2="23.00" y2="57.50"/>
<rect class="action" x="23.00" y="56.07" width="4.00" height="2.86" rx="0.45" ry="0.45"/>
<text class="action-label" x="25.00" y="56.68"><tspan x="25.00" dy="0">發出壓縮</tspan><tspan x="25.00" dy="0.82">started與ki</tspan><tspan x="25.00" dy="0.82">ndtelemetry</tspan></text>
<line class="assoc" x1="22.00" y1="66.50" x2="23.00" y2="66.50"/>
<rect class="action" x="23.00" y="65.07" width="4.00" height="2.86" rx="0.45" ry="0.45"/>
<text class="action-label" x="25.00" y="65.68"><tspan x="25.00" dy="0">inject合</tspan><tspan x="25.00" dy="0.82">成繼續</tspan><tspan x="25.00" dy="0.82">ifallowed</tspan></text>
<line class="assoc" x1="22.00" y1="73.50" x2="23.00" y2="73.50"/>
<rect class="action" x="23.00" y="72.07" width="4.00" height="2.86" rx="0.45" ry="0.45"/>
<text class="action-label" x="25.00" y="72.68"><tspan x="25.00" dy="0">apply快取</tspan><tspan x="25.00" dy="0.82">layout與st</tspan><tspan x="25.00" dy="0.82">aticsystem</tspan></text>
<line class="assoc" x1="32.00" y1="46.50" x2="33.00" y2="46.50"/>
<rect class="action" x="33.00" y="45.07" width="4.00" height="2.86" rx="0.45" ry="0.45"/>
<text class="action-label" x="35.00" y="46.09"><tspan x="35.00" dy="0">abort使用</tspan><tspan x="35.00" dy="0.82">stopverdict</tspan></text>
<line class="assoc" x1="22.00" y1="82.50" x2="23.00" y2="82.50"/>
<rect class="action" x="23.00" y="81.07" width="4.00" height="2.86" rx="0.45" ry="0.45"/>
<text class="action-label" x="25.00" y="82.09"><tspan x="25.00" dy="0">返回verdic</tspan><tspan x="25.00" dy="0.82">t到runloop</tspan></text>
<line class="gate" x1="19.00" y1="9.00" x2="21.00" y2="9.00"/>
<text class="gate-label" x="21.40" y="9.00"><tspan x="21.40" dy="0">runloopiterationstarted</tspan></text>
<line class="gate" x1="19.00" y1="16.00" x2="21.00" y2="16.00"/>
<text class="gate-label" x="21.40" y="16.00"><tspan x="21.40" dy="0">deriveobserveddone</tspan></text>
<line class="gate" x1="19.00" y1="25.00" x2="21.00" y2="25.00"/>
<text class="gate-label" x="21.40" y="25.00"><tspan x="21.40" dy="0">observed != null &amp;&amp; cooldownclear &amp;&amp; tailclean</tspan></text>
<line class="gate" x1="18.00" y1="76.85" x2="42.00" y2="76.85"/>
<line class="gate" x1="18.00" y1="77.15" x2="42.00" y2="77.15"/>
<line class="gate" x1="19.00" y1="32.00" x2="21.00" y2="32.00"/>
<text class="gate-label" x="21.40" y="32.00"><tspan x="21.40" dy="0">chain已解析</tspan></text>
<line class="gate" x1="6.00" y1="41.00" x2="34.00" y2="41.00"/>
<line class="gate" x1="9.00" y1="50.00" x2="11.00" y2="50.00"/>
<text class="gate-label" x="11.40" y="50.00"><tspan x="11.40" dy="0">indexincremented</tspan></text>
<line class="gate" x1="8.00" y1="53.85" x2="22.00" y2="53.85"/>
<line class="gate" x1="8.00" y1="54.15" x2="22.00" y2="54.15"/>
<line class="gate" x1="8.00" y1="60.85" x2="22.00" y2="60.85"/>
<line class="gate" x1="8.00" y1="61.15" x2="22.00" y2="61.15"/>
<line class="gate" x1="19.00" y1="70.00" x2="21.00" y2="70.00"/>
<text class="gate-label-left" x="18.60" y="70.00"><tspan x="18.60" dy="0">INJECT CONTINUE[observed] applied 或 skipped</tspan></text>
<line class="gate" x1="19.00" y1="86.00" x2="21.00" y2="86.00"/>
<text class="gate-label" x="21.40" y="86.00"><tspan x="21.40" dy="0">runloopresumed</tspan></text>
<line class="gate" x1="19.00" y1="79.00" x2="21.00" y2="79.00"/>
<text class="gate-label-left" x="18.60" y="79.00"><tspan x="18.60" dy="0">observed == null || cooldownactive || (observed == 閒置 &amp;&amp; tailunclean)</tspan></text>
<line class="gate" x1="9.00" y1="43.00" x2="11.00" y2="43.00"/>
<text class="gate-label" x="11.40" y="42.32"><tspan x="11.40" dy="0">attempt.ok &amp;&amp; !(l</tspan><tspan x="11.40" dy="0.68">ocal &amp;&amp; truncated</tspan><tspan x="11.40" dy="0.68">&amp;&amp; paidremaining)</tspan></text>
<line class="gate" x1="19.00" y1="43.00" x2="21.00" y2="43.00"/>
<text class="gate-label" x="21.40" y="42.32"><tspan x="21.40" dy="0">attempt.faile</tspan><tspan x="21.40" dy="0.68">d || localtrunc</tspan><tspan x="21.40" dy="0.68">atedescalate</tspan></text>
<line class="gate" x1="29.00" y1="43.00" x2="31.00" y2="43.00"/>
<text class="gate-label" x="31.40" y="43.00"><tspan x="31.40" dy="0">chainexhausted</tspan></text>
<line class="gate" x1="19.00" y1="50.00" x2="21.00" y2="50.00"/>
<text class="gate-label" x="21.40" y="49.32"><tspan x="21.40" dy="0">anchorwritt</tspan><tspan x="21.40" dy="0.68">eninline || anc</tspan><tspan x="21.40" dy="0.68">hor待處理</tspan></text>
<line class="gate" x1="19.00" y1="63.00" x2="21.00" y2="63.00"/>
<text class="gate-label-left" x="18.60" y="63.00"><tspan x="18.60" dy="0">anchorpersisted &amp;&amp; telemetryemitted</tspan></text>
<circle class="junction" cx="20.00" cy="34.00" r="0.22"/>
<circle class="branch-junction" cx="20.00" cy="23.00" r="0.28"/>
</svg>