<svg xmlns="http://www.w3.org/2000/svg" width="1199" height="2051" viewBox="-4.00 -2.00 59.93 102.56" role="img">
<style>
.step{fill:#fff;stroke:#111;stroke-width:.14}.step-inner{fill:none;stroke:#111;stroke-width:.08}
.action{fill:#fff;stroke:#111;stroke-width:.14}.gate{stroke:#111;stroke-width:.16}
.edge{fill:none;stroke:#111;stroke-width:.05;stroke-linecap:round;stroke-linejoin:round}.edge-arrow{marker-end:url(#arrow)}
.flyover-mask{stroke:#fff;stroke-width:.12;stroke-linecap:round}
.flyover{fill:none;stroke:#111;stroke-width:.05;stroke-linecap:round}
.junction{fill:#111;stroke:#111;stroke-width:0}.branch-junction{fill:#fff;stroke:#111;stroke-width:.08}
.assoc{stroke:#111;stroke-width:.05}.label{font:bold .7px 'Times New Roman', 'BiauKai', 'DFKai-SB', serif;text-anchor:middle;dominant-baseline:middle}
.action-label{font:.55px 'Times New Roman', 'BiauKai', 'DFKai-SB', serif;text-anchor:middle;dominant-baseline:middle}.gate-label{font:italic .55px 'Times New Roman', 'BiauKai', 'DFKai-SB', serif;text-anchor:start;dominant-baseline:middle}.gate-label-left{font:italic .55px 'Times New Roman', 'BiauKai', 'DFKai-SB', serif;text-anchor:end;dominant-baseline:middle}
</style>
<defs><marker id="arrow" markerWidth="0.4" markerHeight="0.4" refX="0.36" refY="0.2" orient="auto" markerUnits="userSpaceOnUse"><path d="M 0 0 L 0.4 0.2 L 0 0.4 z" fill="#111"/></marker></defs>
<rect x="-4.00" y="-2.00" width="59.93" height="102.56" fill="white"/>
<path class="edge edge-arrow" d="M 23.31 32.00 L 23.31 36.00"/>
<path class="edge" d="M 23.31 7.00 L 23.31 9.00"/>
<path class="edge edge-arrow" d="M 23.31 9.00 L 23.31 11.00"/>
<path class="edge" d="M 23.31 14.00 L 23.31 16.00"/>
<path class="edge edge-arrow" d="M 23.31 16.00 L 23.31 18.00"/>
<path class="edge" d="M 23.31 21.00 L 23.31 23.00"/>
<path class="edge" d="M 23.31 23.00 L 23.31 25.00"/>
<path class="edge edge-arrow" d="M 23.31 25.00 L 23.31 27.00"/>
<path class="edge edge-arrow" d="M 23.31 23.00 L 49.43 23.00 Q 49.93 23.00 49.93 23.50 L 49.93 85.10"/>
<path class="edge edge-arrow" d="M 23.31 85.10 L 23.31 89.56"/>
<path class="edge" d="M 23.31 30.00 L 23.31 32.00"/>
<path class="edge edge-arrow" d="M 23.31 39.00 L 23.31 41.00"/>
<path class="edge edge-arrow" d="M 10.00 41.00 L 10.00 47.46"/>
<path class="edge edge-arrow" d="M 23.31 41.00 L 23.31 47.46"/>
<path class="edge edge-arrow" d="M 36.62 41.00 L 36.62 47.46"/>
<path class="edge" d="M 10.00 50.46 L 10.00 52.46"/>
<path class="edge" d="M 10.00 52.46 L 10.00 54.46"/>
<path class="edge" d="M 10.00 54.46 L 2.00 54.46"/>
<path class="edge" d="M 2.00 54.46 L 2.00 34.00"/>
<path class="edge" d="M 2.00 34.00 L 23.31 34.00"/>
<path class="edge edge-arrow" d="M 23.31 50.46 L 23.31 56.46"/>
<path class="edge edge-arrow" d="M 10.00 56.46 L 10.00 60.46"/>
<path class="edge edge-arrow" d="M 36.62 56.46 L 36.62 60.46"/>
<path class="edge edge-arrow" d="M 10.00 63.46 L 10.00 67.46"/>
<path class="edge edge-arrow" d="M 23.31 67.46 L 23.31 71.10"/>
<path class="edge edge-arrow" d="M 36.62 63.46 L 36.62 67.46"/>
<path class="edge" d="M 23.31 74.10 L 23.31 76.10"/>
<path class="edge edge-arrow" d="M 23.31 76.10 L 23.31 78.10"/>
<path class="edge edge-arrow" d="M 23.31 81.10 L 23.31 85.10"/>
<path class="edge edge-arrow" d="M 36.62 50.46 L 36.62 53.96 Q 36.62 54.46 37.12 54.46 L 48.43 54.46 Q 48.93 54.46 48.93 54.96 L 48.93 81.12 Q 48.93 81.62 48.43 81.62 L 37.12 81.62 Q 36.62 81.62 36.62 82.12 L 36.62 85.10"/>
<path class="edge" d="M 23.31 92.56 L 23.31 94.56"/>
<path class="edge edge-arrow" d="M 23.31 94.56 L 23.31 96.06 Q 23.31 96.56 22.81 96.56 L 0.50 96.56 Q 0.00 96.56 0.00 96.06 L 0.00 2.50 Q 0.00 2.00 0.50 2.00 L 22.81 2.00 Q 23.31 2.00 23.31 2.50 L 23.31 4.00"/>
<rect class="step" x="21.31" y="4.00" width="4.00" height="3.00"/>
<rect class="step-inner" x="21.56" y="4.25" width="3.50" height="2.50"/>
<text class="label" x="23.31" y="5.50">0</text>
<rect class="step" x="21.31" y="11.00" width="4.00" height="3.00"/>
<text class="label" x="23.31" y="12.50">1</text>
<rect class="step" x="21.31" y="18.00" width="4.00" height="3.00"/>
<text class="label" x="23.31" y="19.50">2</text>
<rect class="step" x="21.31" y="27.00" width="4.00" height="3.00"/>
<text class="label" x="23.31" y="28.50">3</text>
<rect class="step" x="21.31" y="36.00" width="4.00" height="3.00"/>
<text class="label" x="23.31" y="37.50">4</text>
<rect class="step" x="8.00" y="47.46" width="4.00" height="3.00"/>
<text class="label" x="10.00" y="48.96">5</text>
<rect class="step" x="21.31" y="47.46" width="4.00" height="3.00"/>
<text class="label" x="23.31" y="48.96">6</text>
<rect class="step" x="8.00" y="60.46" width="4.00" height="3.00"/>
<text class="label" x="10.00" y="61.96">7</text>
<rect class="step" x="34.62" y="60.46" width="4.00" height="3.00"/>
<text class="label" x="36.62" y="61.96">8</text>
<rect class="step" x="21.31" y="71.10" width="4.00" height="3.00"/>
<text class="label" x="23.31" y="72.60">9</text>
<rect class="step" x="21.31" y="78.10" width="4.00" height="3.00"/>
<text class="label" x="23.31" y="79.60">10</text>
<rect class="step" x="34.62" y="47.46" width="4.00" height="3.00"/>
<text class="label" x="36.62" y="48.96">11</text>
<rect class="step" x="21.31" y="89.56" width="4.00" height="3.00"/>
<text class="label" x="23.31" y="91.06">12</text>
<line class="assoc" x1="25.31" y1="5.50" x2="26.31" y2="5.50"/>
<rect class="action" x="26.31" y="4.07" width="7.31" height="2.86" rx="0.45" ry="0.45"/>
<text class="action-label" x="29.96" y="4.68"><tspan x="29.96" dy="0">等待下一個</tspan><tspan x="29.96" dy="0.82">runloopi</tspan><tspan x="29.96" dy="0.82">teration</tspan></text>
<line class="assoc" x1="25.31" y1="12.50" x2="26.31" y2="12.50"/>
<rect class="action" x="26.31" y="11.07" width="7.31" height="2.86" rx="0.45" ry="0.45"/>
<text class="action-label" x="29.96" y="12.09"><tspan x="29.96" dy="0">DeriveObser</tspan><tspan x="29.96" dy="0.82">vedCondition</tspan></text>
<line class="assoc" x1="25.31" y1="19.50" x2="26.31" y2="19.50"/>
<rect class="action" x="26.31" y="18.07" width="7.31" height="2.86" rx="0.45" ry="0.45"/>
<text class="action-label" x="29.96" y="19.09"><tspan x="29.96" dy="0">checkcooldown與</tspan><tspan x="29.96" dy="0.82">閒置tail</tspan></text>
<line class="assoc" x1="25.31" y1="28.50" x2="26.31" y2="28.50"/>
<rect class="action" x="26.31" y="27.07" width="7.31" height="2.86" rx="0.45" ry="0.45"/>
<text class="action-label" x="29.96" y="28.50"><tspan x="29.96" dy="0">解析kindchain</tspan></text>
<line class="assoc" x1="25.31" y1="37.50" x2="26.31" y2="37.50"/>
<rect class="action" x="26.31" y="36.07" width="7.31" height="2.86" rx="0.45" ry="0.45"/>
<text class="action-label" x="29.96" y="37.09"><tspan x="29.96" dy="0">try下一個</tspan><tspan x="29.96" dy="0.82">kind在chain</tspan></text>
<line class="assoc" x1="12.00" y1="48.96" x2="13.00" y2="48.96"/>
<rect class="action" x="13.00" y="47.53" width="7.31" height="2.86" rx="0.45" ry="0.45"/>
<text class="action-label" x="16.66" y="48.55"><tspan x="16.66" dy="0">advance到下一</tspan><tspan x="16.66" dy="0.82">個chainindex</tspan></text>
<line class="assoc" x1="25.31" y1="48.96" x2="26.31" y2="48.96"/>
<rect class="action" x="26.31" y="47.53" width="7.31" height="2.86" rx="0.45" ry="0.45"/>
<text class="action-label" x="29.96" y="48.55"><tspan x="29.96" dy="0">branch在</tspan><tspan x="29.96" dy="0.82">anchorwriter</tspan></text>
<line class="assoc" x1="12.00" y1="61.96" x2="13.00" y2="61.96"/>
<rect class="action" x="13.00" y="60.53" width="7.31" height="2.86" rx="0.45" ry="0.45"/>
<text class="action-label" x="16.66" y="61.55"><tspan x="16.66" dy="0">writesanitiz</tspan><tspan x="16.66" dy="0.82">edanchor訊息</tspan></text>
<line class="assoc" x1="38.62" y1="61.96" x2="39.62" y2="61.96"/>
<rect class="action" x="39.62" y="60.53" width="7.31" height="2.86" rx="0.45" ry="0.45"/>
<text class="action-label" x="43.27" y="61.55"><tspan x="43.27" dy="0">發出壓縮started與</tspan><tspan x="43.27" dy="0.82">kindtelemetry</tspan></text>
<line class="assoc" x1="25.31" y1="72.60" x2="26.31" y2="72.60"/>
<rect class="action" x="26.31" y="71.17" width="7.31" height="2.86" rx="0.45" ry="0.45"/>
<text class="action-label" x="29.96" y="72.19"><tspan x="29.96" dy="0">inject合成繼</tspan><tspan x="29.96" dy="0.82">續ifallowed</tspan></text>
<line class="assoc" x1="25.31" y1="79.60" x2="26.31" y2="79.60"/>
<rect class="action" x="26.31" y="78.17" width="7.31" height="2.86" rx="0.45" ry="0.45"/>
<text class="action-label" x="29.96" y="78.78"><tspan x="29.96" dy="0">apply快取</tspan><tspan x="29.96" dy="0.82">layout與</tspan><tspan x="29.96" dy="0.82">staticsystem</tspan></text>
<line class="assoc" x1="38.62" y1="48.96" x2="39.62" y2="48.96"/>
<rect class="action" x="39.62" y="47.53" width="7.31" height="2.86" rx="0.45" ry="0.45"/>
<text class="action-label" x="43.27" y="48.55"><tspan x="43.27" dy="0">abort使用</tspan><tspan x="43.27" dy="0.82">stopverdict</tspan></text>
<line class="assoc" x1="25.31" y1="91.06" x2="26.31" y2="91.06"/>
<rect class="action" x="26.31" y="89.63" width="7.31" height="2.86" rx="0.45" ry="0.45"/>
<text class="action-label" x="29.96" y="90.65"><tspan x="29.96" dy="0">返回verdict到</tspan><tspan x="29.96" dy="0.82">runloop</tspan></text>
<line class="gate" x1="22.31" y1="9.00" x2="24.31" y2="9.00"/>
<text class="gate-label" x="24.71" y="9.00"><tspan x="24.71" dy="0">runloopiterationstarted</tspan></text>
<line class="gate" x1="22.31" y1="16.00" x2="24.31" y2="16.00"/>
<text class="gate-label" x="24.71" y="16.00"><tspan x="24.71" dy="0">deriveobserveddone</tspan></text>
<line class="gate" x1="22.31" y1="25.00" x2="24.31" y2="25.00"/>
<text class="gate-label" x="24.71" y="25.00"><tspan x="24.71" dy="0">observed != null &amp;&amp; cooldownclear &amp;&amp; tailclean</tspan></text>
<line class="gate" x1="21.31" y1="84.95" x2="51.93" y2="84.95"/>
<line class="gate" x1="21.31" y1="85.25" x2="51.93" y2="85.25"/>
<line class="gate" x1="22.31" y1="32.00" x2="24.31" y2="32.00"/>
<text class="gate-label" x="24.71" y="32.00"><tspan x="24.71" dy="0">chain已解析</tspan></text>
<line class="gate" x1="6.00" y1="41.00" x2="40.62" y2="41.00"/>
<line class="gate" x1="9.00" y1="52.46" x2="11.00" y2="52.46"/>
<text class="gate-label" x="11.40" y="52.46"><tspan x="11.40" dy="0">indexincremented</tspan></text>
<line class="gate" x1="8.00" y1="56.31" x2="38.62" y2="56.31"/>
<line class="gate" x1="8.00" y1="56.61" x2="38.62" y2="56.61"/>
<line class="gate" x1="8.00" y1="67.31" x2="38.62" y2="67.31"/>
<line class="gate" x1="8.00" y1="67.61" x2="38.62" y2="67.61"/>
<line class="gate" x1="22.31" y1="76.10" x2="24.31" y2="76.10"/>
<text class="gate-label" x="24.71" y="76.10"><tspan x="24.71" dy="0">INJECT CONTINUE[observed] applied 或 skipped</tspan></text>
<line class="gate" x1="22.31" y1="94.56" x2="24.31" y2="94.56"/>
<text class="gate-label" x="24.71" y="94.56"><tspan x="24.71" dy="0">runloopresumed</tspan></text>
<line class="gate" x1="22.31" y1="87.33" x2="24.31" y2="87.33"/>
<text class="gate-label-left" x="21.91" y="86.65"><tspan x="21.91" dy="0">observed == null ||</tspan><tspan x="21.91" dy="0.68">cooldownactive || (obse</tspan><tspan x="21.91" dy="0.68">rved == 閒置 &amp;&amp; tailunclean)</tspan></text>
<line class="gate" x1="9.00" y1="43.00" x2="11.00" y2="43.00"/>
<text class="gate-label" x="11.40" y="42.32"><tspan x="11.40" dy="0">attempt.ok &amp;&amp;</tspan><tspan x="11.40" dy="0.68">!(local &amp;&amp; truncated</tspan><tspan x="11.40" dy="0.68">&amp;&amp; paidremaining)</tspan></text>
<line class="gate" x1="22.31" y1="43.00" x2="24.31" y2="43.00"/>
<text class="gate-label" x="24.71" y="42.32"><tspan x="24.71" dy="0">attempt.failed</tspan><tspan x="24.71" dy="0.68">|| localtrunc</tspan><tspan x="24.71" dy="0.68">atedescalate</tspan></text>
<line class="gate" x1="35.62" y1="43.00" x2="37.62" y2="43.00"/>
<text class="gate-label" x="38.02" y="43.00"><tspan x="38.02" dy="0">chainexhausted</tspan></text>
<line class="gate" x1="22.31" y1="53.46" x2="24.31" y2="53.46"/>
<text class="gate-label" x="24.71" y="52.78"><tspan x="24.71" dy="0">anchorwritt</tspan><tspan x="24.71" dy="0.68">eninline ||</tspan><tspan x="24.71" dy="0.68">anchor待處理</tspan></text>
<line class="gate" x1="22.31" y1="69.28" x2="24.31" y2="69.28"/>
<text class="gate-label" x="24.71" y="69.28"><tspan x="24.71" dy="0">anchorpersisted &amp;&amp; telemetryemitted</tspan></text>
<circle class="junction" cx="23.31" cy="34.00" r="0.22"/>
<circle class="branch-junction" cx="23.31" cy="23.00" r="0.28"/>
</svg>