<svg width="1744.1" height="940.0" viewBox="-232.6 -210.0 1744.1 940.0" xmlns="http://www.w3.org/2000/svg">
<defs>
<marker id="arrow" viewBox="0 0 10 10" refX="10" refY="5" markerWidth="6" markerHeight="6" orient="auto-start-reverse"><path d="M 0 0 L 10 5 L 0 10 z" fill="black" /></marker>
<marker id="call_arrow" viewBox="0 0 10 10" refX="10" refY="5" markerWidth="8" markerHeight="8" orient="auto-start-reverse"><path d="M 0 0 L 10 5 L 0 10 M 0 2 L 6 5 L 0 8" fill="none" stroke="black" stroke-width="1" /></marker>
</defs>
<rect x="-232.6" y="-210.0" width="1744.1" height="940.0" fill="white" />
<rect x="130.0" y="120.0" width="229.0" height="200.0" stroke="black" fill="white" stroke-width="1.5" data-id="A31" />
<text x="244.5" y="178.0" text-anchor="middle" font-size="23" font-weight="bold" font-family="'Times New Roman', 'BiauKai', 'DFKai-SB', '標楷體', 'KaiTi', serif" data-id="A31" >A31</text>
<text x="244.5" y="220.8" text-anchor="middle" font-size="25" font-weight="bold" font-family="'Times New Roman', 'BiauKai', 'DFKai-SB', '標楷體', 'KaiTi', serif" data-id="A31" >TRY NARRATIVE</text>
<text x="244.5" y="267.7" text-anchor="middle" font-size="25" font-weight="bold" font-family="'Times New Roman', 'BiauKai', 'DFKai-SB', '標楷體', 'KaiTi', serif" data-id="A31" >KIND</text>
<rect x="519.0" y="120.0" width="229.0" height="200.0" stroke="black" fill="white" stroke-width="1.5" data-id="A32" />
<text x="633.5" y="173.6" text-anchor="middle" font-size="26" font-weight="bold" font-family="'Times New Roman', 'BiauKai', 'DFKai-SB', '標楷體', 'KaiTi', serif" data-id="A32" >A32</text>
<text x="633.5" y="220.8" text-anchor="middle" font-size="28" font-weight="bold" font-family="'Times New Roman', 'BiauKai', 'DFKai-SB', '標楷體', 'KaiTi', serif" data-id="A32" >TRY REPLAY</text>
<text x="633.5" y="273.3" text-anchor="middle" font-size="28" font-weight="bold" font-family="'Times New Roman', 'BiauKai', 'DFKai-SB', '標楷體', 'KaiTi', serif" data-id="A32" >TAIL KIND</text>
<rect x="880.0" y="120.0" width="229.0" height="200.0" stroke="black" fill="white" stroke-width="1.5" data-id="A33" />
<text x="994.5" y="175.1" text-anchor="middle" font-size="25" font-weight="bold" font-family="'Times New Roman', 'BiauKai', 'DFKai-SB', '標楷體', 'KaiTi', serif" data-id="A33" >A33</text>
<text x="994.5" y="220.8" text-anchor="middle" font-size="27" font-weight="bold" font-family="'Times New Roman', 'BiauKai', 'DFKai-SB', '標楷體', 'KaiTi', serif" data-id="A33" >TRY LOW COST</text>
<text x="994.5" y="271.4" text-anchor="middle" font-size="27" font-weight="bold" font-family="'Times New Roman', 'BiauKai', 'DFKai-SB', '標楷體', 'KaiTi', serif" data-id="A33" >伺服器 KIND</text>
<rect x="130.0" y="440.0" width="229.0" height="200.0" stroke="black" fill="white" stroke-width="1.5" data-id="A34" />
<text x="244.5" y="493.6" text-anchor="middle" font-size="26" font-weight="bold" font-family="'Times New Roman', 'BiauKai', 'DFKai-SB', '標楷體', 'KaiTi', serif" data-id="A34" >A34</text>
<text x="244.5" y="540.8" text-anchor="middle" font-size="28" font-weight="bold" font-family="'Times New Roman', 'BiauKai', 'DFKai-SB', '標楷體', 'KaiTi', serif" data-id="A34" >TRY LLM</text>
<text x="244.5" y="593.3" text-anchor="middle" font-size="28" font-weight="bold" font-family="'Times New Roman', 'BiauKai', 'DFKai-SB', '標楷體', 'KaiTi', serif" data-id="A34" >AGENT KIND</text>
<rect x="519.0" y="440.0" width="229.0" height="200.0" stroke="black" fill="white" stroke-width="1.5" data-id="A35" />
<text x="633.5" y="476.9" text-anchor="middle" font-size="22" font-weight="bold" font-family="'Times New Roman', 'BiauKai', 'DFKai-SB', '標楷體', 'KaiTi', serif" data-id="A35" >A35</text>
<text x="633.5" y="518.4" text-anchor="middle" font-size="24" font-weight="bold" font-family="'Times New Roman', 'BiauKai', 'DFKai-SB', '標楷體', 'KaiTi', serif" data-id="A35" >ESCALATE</text>
<text x="633.5" y="563.4" text-anchor="middle" font-size="24" font-weight="bold" font-family="'Times New Roman', 'BiauKai', 'DFKai-SB', '標楷體', 'KaiTi', serif" data-id="A35" >TRUNCATED</text>
<text x="633.5" y="608.4" text-anchor="middle" font-size="24" font-weight="bold" font-family="'Times New Roman', 'BiauKai', 'DFKai-SB', '標楷體', 'KaiTi', serif" data-id="A35" >LOCAL 結果</text>
<rect x="880.0" y="440.0" width="229.0" height="200.0" stroke="black" fill="white" stroke-width="1.5" data-id="A36" />
<text x="994.5" y="499.4" text-anchor="middle" font-size="22" font-weight="bold" font-family="'Times New Roman', 'BiauKai', 'DFKai-SB', '標楷體', 'KaiTi', serif" data-id="A36" >A36</text>
<text x="994.5" y="540.9" text-anchor="middle" font-size="24" font-weight="bold" font-family="'Times New Roman', 'BiauKai', 'DFKai-SB', '標楷體', 'KaiTi', serif" data-id="A36" >ABORT 在 CHAIN</text>
<text x="994.5" y="585.9" text-anchor="middle" font-size="24" font-weight="bold" font-family="'Times New Roman', 'BiauKai', 'DFKai-SB', '標楷體', 'KaiTi', serif" data-id="A36" >EXHAUSTION</text>
<rect x="80.0" y="0.0" width="1119.0" height="720.0" stroke="black" fill="none" stroke-width="2" />
<rect x="519.5" y="-200.0" width="240.0" height="110.0" stroke="black" fill="white" stroke-width="1.5" data-id="A3" />
<text x="639.5" y="-160.5" text-anchor="middle" font-size="17" font-weight="bold" font-family="'Times New Roman', 'BiauKai', 'DFKai-SB', '標楷體', 'KaiTi', serif" data-id="A3" >A3</text>
<text x="639.5" y="-126.2" text-anchor="middle" font-size="19" font-weight="bold" font-family="'Times New Roman', 'BiauKai', 'DFKai-SB', '標楷體', 'KaiTi', serif" data-id="A3" >EXECUTE KIND CHAIN</text>
<line x1="519.5" y1="-200.0" x2="80.0" y2="0.0" stroke="red" stroke-dasharray="5,5" stroke-width="1.0" opacity="0.6" />
<line x1="759.5" y1="-200.0" x2="1199.0" y2="0.0" stroke="red" stroke-dasharray="5,5" stroke-width="1.0" opacity="0.6" />
<line x1="519.5" y1="-90.0" x2="80.0" y2="720.0" stroke="red" stroke-dasharray="5,5" stroke-width="1.0" opacity="0.6" />
<line x1="759.5" y1="-90.0" x2="1199.0" y2="720.0" stroke="red" stroke-dasharray="5,5" stroke-width="1.0" opacity="0.6" />
<path d="M 359.0 600.0 L 519.0 600.0" stroke="black" stroke-width="1.2" data-arrow-id="a3_out_llm" data-waypoints="359.0,600.0 519.0,600.0" marker-end="url(#arrow)" fill="none" />
<path d="M 748.0 506.7 L 880.0 506.7" stroke="black" stroke-width="1.2" data-arrow-id="a3_in_exhausted" data-waypoints="748.0,506.7 880.0,506.7" marker-end="url(#arrow)" fill="none" />
<path d="M 359.0 220.0 L 389.0 220.0 Q 399.0 220.0 399.0 230.0 L 399.0 550.0 Q 399.0 560.0 409.0 560.0 L 519.0 560.0" stroke="black" stroke-width="1.2" data-arrow-id="a3_out_narrative" data-waypoints="359.0,220.0 399.0,220.0 399.0,560.0 519.0,560.0" marker-end="url(#arrow)" fill="none" />
<path d="M 1109.0 220.0 L 1139.0 220.0 Q 1149.0 220.0 1149.0 230.0 L 1149.0 350.0 Q 1149.0 360.0 1139.0 360.0 L 449.0 360.0 Q 439.0 360.0 439.0 370.0 L 439.0 510.0 Q 439.0 520.0 449.0 520.0 L 519.0 520.0" stroke="black" stroke-width="1.2" data-arrow-id="a3_out_lowcost" data-waypoints="1109.0,220.0 1149.0,220.0 1149.0,360.0 439.0,360.0 439.0,520.0 519.0,520.0" marker-end="url(#arrow)" fill="none" />
<path d="M 748.0 220.0 L 782.0 220.0 Q 792.0 220.0 792.0 230.0 L 792.0 390.0 Q 792.0 400.0 782.0 400.0 L 489.0 400.0 Q 479.0 400.0 479.0 410.0 L 479.0 470.0 Q 479.0 480.0 489.0 480.0 L 519.0 480.0" stroke="black" stroke-width="1.2" data-arrow-id="a3_out_replay" data-waypoints="748.0,220.0 792.0,220.0 792.0,400.0 479.0,400.0 479.0,480.0 519.0,480.0" marker-end="url(#arrow)" fill="none" />
<path d="M 30.0 186.7 L 130.0 186.7" stroke="black" stroke-width="1.2" data-arrow-id="a3_in_chain" data-waypoints="30.0,186.7 130.0,186.7" marker-end="url(#arrow)" fill="none" />
<path d="M 30.0 253.3 L 130.0 253.3" stroke="black" stroke-width="1.2" data-arrow-id="a3_in_memory" data-waypoints="30.0,253.3 130.0,253.3" marker-end="url(#arrow)" fill="none" />
<path d="M 244.5 84.2 L 244.5 120.0" stroke="black" stroke-width="1.2" data-arrow-id="a3_ctrl_target" data-waypoints="244.5,84.2 244.5,120.0" marker-end="url(#arrow)" fill="none" />
<path d="M 30.0 78.2 L 429.0 78.2 Q 439.0 78.2 439.0 88.2 L 439.0 210.0 Q 439.0 220.0 449.0 220.0 L 519.0 220.0" stroke="black" stroke-width="1.2" data-arrow-id="a3_in_tail" data-waypoints="30.0,78.2 439.0,78.2 439.0,220.0 519.0,220.0" marker-end="url(#arrow)" fill="none" />
<path d="M 30.0 40.0 L 826.0 40.0 Q 836.0 40.0 836.0 50.0 L 836.0 210.0 Q 836.0 220.0 846.0 220.0 L 880.0 220.0" stroke="black" stroke-width="1.2" data-arrow-id="a3_in_codex" data-waypoints="30.0,40.0 836.0,40.0 836.0,220.0 880.0,220.0" marker-end="url(#arrow)" fill="none" />
<path d="M 30.0 540.0 L 130.0 540.0" stroke="black" stroke-width="1.2" data-arrow-id="a3_in_llm_input" data-waypoints="30.0,540.0 130.0,540.0" marker-end="url(#arrow)" fill="none" />
<path d="M 748.0 573.3 L 782.0 573.3 Q 792.0 573.3 792.0 583.3 L 792.0 670.0 Q 792.0 680.0 802.0 680.0 L 1249.0 680.0" stroke="black" stroke-width="1.2" data-arrow-id="a3_out_winner" data-waypoints="748.0,573.3 792.0,573.3 792.0,680.0 1249.0,680.0" marker-end="url(#arrow)" fill="none" />
<path d="M 1109.0 540.0 L 1249.0 540.0" stroke="black" stroke-width="1.2" data-arrow-id="a3_out_abort" data-waypoints="1109.0,540.0 1249.0,540.0" marker-end="url(#arrow)" fill="none" />
<text x="238.5" y="114.0" font-size="14" text-anchor="end" font-weight="bold" fill="black" font-family="'Times New Roman', 'BiauKai', 'DFKai-SB', '標楷體', 'KaiTi', serif" data-arrow-id="a3_ctrl_target">目標 提示</text>
<text x="250.5" y="114.0" font-size="14" text-anchor="start" font-weight="bold" fill="black" font-family="'Times New Roman', 'BiauKai', 'DFKai-SB', '標楷體', 'KaiTi', serif" data-arrow-id="a3_ctrl_target">Tokens</text>
<text x="439.0" y="595.0" font-size="14" font-weight="bold" fill="black" text-anchor="middle" font-family="'Times New Roman', 'BiauKai', 'DFKai-SB', '標楷體', 'KaiTi', serif" data-arrow-id="a3_out_llm">LLM Agent Attempt</text>
<text x="439.0" y="612.0" font-size="14" font-weight="bold" fill="black" text-anchor="middle" font-family="'Times New Roman', 'BiauKai', 'DFKai-SB', '標楷體', 'KaiTi', serif" data-arrow-id="a3_out_llm">結果</text>
<text x="814.0" y="501.7" font-size="14" font-weight="bold" fill="black" text-anchor="middle" font-family="'Times New Roman', 'BiauKai', 'DFKai-SB', '標楷體', 'KaiTi', serif" data-arrow-id="a3_in_exhausted">Chain</text>
<text x="814.0" y="518.7" font-size="14" font-weight="bold" fill="black" text-anchor="middle" font-family="'Times New Roman', 'BiauKai', 'DFKai-SB', '標楷體', 'KaiTi', serif" data-arrow-id="a3_in_exhausted">Exhausted Flag</text>
<text x="369.0" y="397.0" font-size="14" font-weight="bold" fill="black" text-anchor="end" font-family="'Times New Roman', 'BiauKai', 'DFKai-SB', '標楷體', 'KaiTi', serif" data-arrow-id="a3_out_narrative" >Narrative Attempt 結果</text>
<text x="639.5" y="378.0" font-size="14" font-weight="bold" fill="black" text-anchor="middle" font-family="'Times New Roman', 'BiauKai', 'DFKai-SB', '標楷體', 'KaiTi', serif" data-arrow-id="a3_out_lowcost" >Low Cost 伺服器 Attempt 結果</text>
<text x="639.5" y="418.0" font-size="14" font-weight="bold" fill="black" text-anchor="middle" font-family="'Times New Roman', 'BiauKai', 'DFKai-SB', '標楷體', 'KaiTi', serif" data-arrow-id="a3_out_replay" >Replay Tail Attempt 結果</text>
<text x="26.0" y="190.7" font-size="20" text-anchor="end" font-weight="bold" fill="black" font-family="'Times New Roman', 'BiauKai', 'DFKai-SB', '標楷體', 'KaiTi', serif" data-arrow-id="a3_in_chain">Kind Chain</text>
<text x="26.0" y="257.3" font-size="20" text-anchor="end" font-weight="bold" fill="black" font-family="'Times New Roman', 'BiauKai', 'DFKai-SB', '標楷體', 'KaiTi', serif" data-arrow-id="a3_in_memory">回合 Summary Store</text>
<text x="26.0" y="69.2" font-size="20" text-anchor="end" font-weight="bold" fill="black" font-family="'Times New Roman', 'BiauKai', 'DFKai-SB', '標楷體', 'KaiTi', serif" data-arrow-id="a3_in_tail">Conversation</text>
<text x="26.0" y="95.2" font-size="20" text-anchor="end" font-weight="bold" fill="black" font-family="'Times New Roman', 'BiauKai', 'DFKai-SB', '標楷體', 'KaiTi', serif" data-arrow-id="a3_in_tail">Tail Snapshot</text>
<text x="26.0" y="44.0" font-size="20" text-anchor="end" font-weight="bold" fill="black" font-family="'Times New Roman', 'BiauKai', 'DFKai-SB', '標楷體', 'KaiTi', serif" data-arrow-id="a3_in_codex">Codex Previous 回應 Id</text>
<text x="26.0" y="544.0" font-size="20" text-anchor="end" font-weight="bold" fill="black" font-family="'Times New Roman', 'BiauKai', 'DFKai-SB', '標楷體', 'KaiTi', serif" data-arrow-id="a3_in_llm_input">子代理 提示 Bundle</text>
<text x="1253.0" y="671.0" font-size="20" text-anchor="start" font-weight="bold" fill="black" font-family="'Times New Roman', 'BiauKai', 'DFKai-SB', '標楷體', 'KaiTi', serif" data-arrow-id="a3_out_winner">Summary 文字 或</text>
<text x="1253.0" y="697.0" font-size="20" text-anchor="start" font-weight="bold" fill="black" font-family="'Times New Roman', 'BiauKai', 'DFKai-SB', '標楷體', 'KaiTi', serif" data-arrow-id="a3_out_winner">Inline Anchor</text>
<text x="1253.0" y="544.0" font-size="20" text-anchor="start" font-weight="bold" fill="black" font-family="'Times New Roman', 'BiauKai', 'DFKai-SB', '標楷體', 'KaiTi', serif" data-arrow-id="a3_out_abort">Stop 結果</text>
<path d="M 369.0,392.8 L 369.6,393.3 L 370.2,393.7 L 370.9,394.1 L 371.5,394.5 L 372.1,394.9 L 372.8,395.3 L 373.4,395.6 L 374.0,395.8 L 374.6,396.0 L 375.2,396.2 L 375.9,396.3 L 376.5,396.3 L 377.1,396.3 L 377.8,396.2 L 378.4,396.0 L 379.0,395.8 L 379.6,395.6 L 380.2,395.3 L 380.9,394.9 L 381.5,394.5 L 382.1,394.1 L 382.8,393.7 L 383.4,393.3 L 384.0,392.8 L 384.6,392.3 L 385.2,391.9 L 385.9,391.5 L 386.5,391.1 L 387.1,390.7 L 387.8,390.3 L 388.4,390.0 L 389.0,389.8 L 389.6,389.6 L 390.2,389.4 L 390.9,389.3 L 391.5,389.3 L 392.1,389.3 L 392.8,389.4 L 393.4,389.6 L 394.0,389.8 L 394.6,390.0 L 395.2,390.3 L 395.9,390.7 L 396.5,391.1 L 397.1,391.5 L 397.8,391.9 L 398.4,392.3 L 399.0,392.8" stroke="red" stroke-width="0.8" fill="none" opacity="0.5" />
</svg>