<svg xmlns="http://www.w3.org/2000/svg" width="1042" height="1060" viewBox="2.00 -2.00 52.08 53.00" role="img">
<style>
.step{fill:#fff;stroke:#111;stroke-width:.14}.step-inner{fill:none;stroke:#111;stroke-width:.08}
.action{fill:#fff;stroke:#111;stroke-width:.14}.action-inner{fill:none;stroke:#111;stroke-width:.08}.gate{stroke:#111;stroke-width:.16}
.edge{fill:none;stroke:#111;stroke-width:.05;stroke-linecap:round;stroke-linejoin:round}.edge-arrow{marker-end:url(#arrow)}
.flyover-mask{stroke:#fff;stroke-width:.12;stroke-linecap:round}
.flyover{fill:none;stroke:#111;stroke-width:.05;stroke-linecap:round}
.junction{fill:#111;stroke:#111;stroke-width:0}.branch-junction{fill:#fff;stroke:#111;stroke-width:.08}
.assoc{stroke:#111;stroke-width:.05}.label{font:bold .7px 'Times New Roman', 'BiauKai', 'DFKai-SB', serif;text-anchor:middle;dominant-baseline:middle}
.action-label{font:.55px 'Times New Roman', 'BiauKai', 'DFKai-SB', serif;text-anchor:middle;dominant-baseline:middle}.gate-label{font:italic .55px 'Times New Roman', 'BiauKai', 'DFKai-SB', serif;text-anchor:start;dominant-baseline:middle}.gate-label-left{font:italic .55px 'Times New Roman', 'BiauKai', 'DFKai-SB', serif;text-anchor:end;dominant-baseline:middle}
</style>
<defs><marker id="arrow" markerWidth="0.4" markerHeight="0.4" refX="0.36" refY="0.2" orient="auto" markerUnits="userSpaceOnUse"><path d="M 0 0 L 0.4 0.2 L 0 0.4 z" fill="#111"/></marker></defs>
<rect x="2.00" y="-2.00" width="52.08" height="53.00" fill="white"/>
<path class="edge edge-arrow" data-edge-id="edge:S0O1S1I1" data-segment-ids="S0O1S1I1:1S" d="M 24.36 7.00 L 24.36 11.00"/>
<path class="edge edge-arrow" data-edge-id="edge:S1O1G1I1" data-segment-ids="S1O1G1I1:1S" d="M 24.36 14.00 L 24.36 16.00"/>
<path class="edge edge-arrow" data-edge-id="edge:G1O1S2I1" data-segment-ids="G1O1S2I1:1S" d="M 24.36 16.00 L 24.36 20.00"/>
<path class="edge edge-arrow" data-edge-id="edge:G1O2S6I1" data-segment-ids="G1O2S6I1:1S" d="M 38.72 16.00 L 38.72 20.00"/>
<path class="edge edge-arrow" data-edge-id="edge:S2O1G2I1" data-segment-ids="S2O1G2I1:1S" d="M 24.36 23.00 L 24.36 25.00"/>
<path class="edge edge-arrow" data-edge-id="edge:G2O1S3I1" data-segment-ids="G2O1S3I1:1S" d="M 10.00 25.00 L 10.00 29.00"/>
<path class="edge edge-arrow" data-edge-id="edge:G2O2S4I1" data-segment-ids="G2O2S4I1:1S" d="M 24.36 25.00 L 24.36 29.00"/>
<path class="edge edge-arrow" data-edge-id="edge:S3O1G4I1" data-segment-ids="S3O1G4I1:1S" d="M 10.00 32.00 L 10.00 36.00"/>
<path class="edge edge-arrow" data-edge-id="edge:G4O1S5I1" data-segment-ids="G4O1S5I1:1S" d="M 24.36 36.00 L 24.36 38.00"/>
<path class="edge edge-arrow" data-edge-id="edge:S4O1G4I2" data-segment-ids="S4O1G4I2:1S" d="M 24.36 32.00 L 24.36 36.00"/>
<path class="edge edge-arrow" data-edge-id="edge:S5O1G3I1" data-segment-ids="S5O1G3I1:1S" d="M 24.36 41.00 L 24.36 45.00"/>
<path class="edge edge-arrow" data-edge-id="edge:G3O1S0I1" data-segment-ids="G3O1S0I1:1S G3O1S0I1:2W G3O1S0I1:3N G3O1S0I1:4E G3O1S0I1:5S" d="M 24.36 45.00 L 24.36 46.50 Q 24.36 47.00 23.86 47.00 L 6.50 47.00 Q 6.00 47.00 6.00 46.50 L 6.00 2.50 Q 6.00 2.00 6.50 2.00 L 23.86 2.00 Q 24.36 2.00 24.36 2.50 L 24.36 4.00"/>
<path class="edge edge-arrow" data-edge-id="edge:S6O1G3I2" data-segment-ids="S6O1G3I2:1S" d="M 38.72 23.00 L 38.72 45.00"/>
<rect class="step" x="22.36" y="4.00" width="4.00" height="3.00" rx="0.35" ry="0.35"/>
<rect class="step-inner" x="22.61" y="4.25" width="3.50" height="2.50" rx="0.22" ry="0.22"/>
<text class="label" x="24.36" y="5.50">0</text>
<rect class="step" x="22.36" y="11.00" width="4.00" height="3.00" rx="0.35" ry="0.35"/>
<text class="label" x="24.36" y="12.50">1</text>
<rect class="step" x="22.36" y="20.00" width="4.00" height="3.00" rx="0.35" ry="0.35"/>
<text class="label" x="24.36" y="21.50">2</text>
<rect class="step" x="8.00" y="29.00" width="4.00" height="3.00" rx="0.35" ry="0.35"/>
<text class="label" x="10.00" y="30.50">3</text>
<rect class="step" x="22.36" y="29.00" width="4.00" height="3.00" rx="0.35" ry="0.35"/>
<text class="label" x="24.36" y="30.50">4</text>
<rect class="step" x="22.36" y="38.00" width="4.00" height="3.00" rx="0.35" ry="0.35"/>
<text class="label" x="24.36" y="39.50">5</text>
<rect class="step" x="36.72" y="20.00" width="4.00" height="3.00" rx="0.35" ry="0.35"/>
<text class="label" x="38.72" y="21.50">6</text>
<line class="assoc" x1="26.36" y1="5.50" x2="27.36" y2="5.50"/>
<rect class="action" x="27.36" y="4.07" width="8.36" height="2.86"/>
<text class="action-label" x="31.54" y="5.09"><tspan x="31.54" dy="0">Runloop active — monitoring</tspan><tspan x="31.54" dy="0.82">recent turns for paralysis</tspan></text>
<line class="assoc" x1="26.36" y1="12.50" x2="27.36" y2="12.50"/>
<rect class="action" x="27.36" y="11.07" width="8.36" height="2.86"/>
<text class="action-label" x="31.54" y="12.09"><tspan x="31.54" dy="0">Read session-scoped</tspan><tspan x="31.54" dy="0.82">recoveryCount</tspan></text>
<line class="assoc" x1="26.36" y1="21.50" x2="27.36" y2="21.50"/>
<rect class="action" x="27.36" y="20.07" width="8.36" height="2.86"/>
<text class="action-label" x="31.54" y="21.09"><tspan x="31.54" dy="0">Classify provider class via</tspan><tspan x="31.54" dy="0.82">resolvePolicy/classifyProvider</tspan></text>
<line class="assoc" x1="12.00" y1="30.50" x2="13.00" y2="30.50"/>
<rect class="action" x="13.00" y="29.07" width="8.36" height="2.86"/>
<text class="action-label" x="17.18" y="29.68"><tspan x="17.18" dy="0">Emit ephemeral system-reminder</tspan><tspan x="17.18" dy="0.82">(3rd-person, not-user-feedback)</tspan><tspan x="17.18" dy="0.82">on clone tail — NOT persisted</tspan></text>
<line class="assoc" x1="26.36" y1="30.50" x2="27.36" y2="30.50"/>
<rect class="action" x="27.36" y="29.07" width="8.36" height="2.86"/>
<text class="action-label" x="31.54" y="30.09"><tspan x="31.54" dy="0">Persist role:user synthetic nudge</tspan><tspan x="31.54" dy="0.82">(existing codex path, INV-0)</tspan></text>
<line class="assoc" x1="26.36" y1="39.50" x2="27.36" y2="39.50"/>
<rect class="action" x="27.36" y="38.07" width="8.36" height="2.86"/>
<text class="action-label" x="31.54" y="39.09"><tspan x="31.54" dy="0">recoveryCount=1;</tspan><tspan x="31.54" dy="0.82">continue runloop</tspan></text>
<line class="assoc" x1="40.72" y1="21.50" x2="41.72" y2="21.50"/>
<rect class="action" x="41.72" y="20.07" width="8.36" height="2.86"/>
<text class="action-label" x="45.90" y="20.68"><tspan x="45.90" dy="0">Hard-halt: raise</tspan><tspan x="45.90" dy="0.82">ParalysisDetectedError;</tspan><tspan x="45.90" dy="0.82">loop ends, return to idle</tspan></text>
<line class="gate" x1="22.36" y1="16.00" x2="40.72" y2="16.00"/>
<line class="gate" x1="8.00" y1="25.00" x2="26.36" y2="25.00"/>
<line class="gate" x1="8.00" y1="36.00" x2="26.36" y2="36.00"/>
<line class="gate" x1="22.36" y1="45.00" x2="40.72" y2="45.00"/>
<line class="gate" x1="23.36" y1="9.00" x2="25.36" y2="9.00" data-label-kind="condition-stub" data-edge-id="edge:S0O1S1I1" data-arrow-id="condition_stub:T1" data-transition-id="T1" data-condition-stub-id="condition_stub:T1"/>
<text class="gate-label" x="25.76" y="9.00" data-label-kind="condition-stub" data-edge-id="edge:S0O1S1I1" data-arrow-id="condition_stub:T1" data-transition-id="T1" data-condition-stub-id="condition_stub:T1"><tspan x="25.76" dy="0">paralysis_window_detected</tspan></text>
<line class="gate" x1="23.36" y1="18.00" x2="25.36" y2="18.00" data-label-kind="condition-stub" data-edge-id="edge:G1O1S2I1" data-arrow-id="condition_stub:T2" data-transition-id="T2" data-condition-stub-id="condition_stub:T2"/>
<text class="gate-label-left" x="22.96" y="18.00" data-label-kind="condition-stub" data-edge-id="edge:G1O1S2I1" data-arrow-id="condition_stub:T2" data-transition-id="T2" data-condition-stub-id="condition_stub:T2"><tspan x="22.96" dy="0">recoveryCount==0 (first detection)</tspan></text>
<line class="gate" x1="37.72" y1="18.00" x2="39.72" y2="18.00" data-label-kind="condition-stub" data-edge-id="edge:G1O2S6I1" data-arrow-id="condition_stub:T3" data-transition-id="T3" data-condition-stub-id="condition_stub:T3"/>
<text class="gate-label" x="40.12" y="18.00" data-label-kind="condition-stub" data-edge-id="edge:G1O2S6I1" data-arrow-id="condition_stub:T3" data-transition-id="T3" data-condition-stub-id="condition_stub:T3"><tspan x="40.12" dy="0">recoveryCount&gt;=1 (already nudged)</tspan></text>
<line class="gate" x1="9.00" y1="27.00" x2="11.00" y2="27.00" data-label-kind="condition-stub" data-edge-id="edge:G2O1S3I1" data-arrow-id="condition_stub:T4" data-transition-id="T4" data-condition-stub-id="condition_stub:T4"/>
<text class="gate-label-left" x="5.80" y="26.66" data-label-kind="condition-stub" data-edge-id="edge:G2O1S3I1" data-arrow-id="condition_stub:T4" data-transition-id="T4" data-condition-stub-id="condition_stub:T4"><tspan x="5.80" dy="0">class==SL</tspan><tspan x="5.80" dy="0.68">(claude)</tspan></text>
<line class="gate" x1="23.36" y1="27.00" x2="25.36" y2="27.00" data-label-kind="condition-stub" data-edge-id="edge:G2O2S4I1" data-arrow-id="condition_stub:T5" data-transition-id="T5" data-condition-stub-id="condition_stub:T5"/>
<text class="gate-label" x="25.76" y="27.00" data-label-kind="condition-stub" data-edge-id="edge:G2O2S4I1" data-arrow-id="condition_stub:T5" data-transition-id="T5" data-condition-stub-id="condition_stub:T5"><tspan x="25.76" dy="0">class==SS (codex/other)</tspan></text>
<line class="gate" x1="9.00" y1="34.00" x2="11.00" y2="34.00" data-label-kind="condition-stub" data-edge-id="edge:S3O1G4I1" data-arrow-id="condition_stub:T6" data-transition-id="T6" data-condition-stub-id="condition_stub:T6"/>
<text class="gate-label-left" x="5.80" y="34.00" data-label-kind="condition-stub" data-edge-id="edge:S3O1G4I1" data-arrow-id="condition_stub:T6" data-transition-id="T6" data-condition-stub-id="condition_stub:T6"><tspan x="5.80" dy="0">steer_emitted</tspan></text>
<line class="gate" x1="23.36" y1="34.00" x2="25.36" y2="34.00" data-label-kind="condition-stub" data-edge-id="edge:S4O1G4I2" data-arrow-id="condition_stub:T7" data-transition-id="T7" data-condition-stub-id="condition_stub:T7"/>
<text class="gate-label" x="25.76" y="34.00" data-label-kind="condition-stub" data-edge-id="edge:S4O1G4I2" data-arrow-id="condition_stub:T7" data-transition-id="T7" data-condition-stub-id="condition_stub:T7"><tspan x="25.76" dy="0">nudge_persisted</tspan></text>
<line class="gate" x1="23.36" y1="43.00" x2="25.36" y2="43.00" data-label-kind="condition-stub" data-edge-id="edge:S5O1G3I1" data-arrow-id="condition_stub:T8" data-transition-id="T8" data-condition-stub-id="condition_stub:T8"/>
<text class="gate-label-left" x="22.96" y="43.00" data-label-kind="condition-stub" data-edge-id="edge:S5O1G3I1" data-arrow-id="condition_stub:T8" data-transition-id="T8" data-condition-stub-id="condition_stub:T8"><tspan x="22.96" dy="0">loop_back</tspan></text>
<line class="gate" x1="37.72" y1="43.00" x2="39.72" y2="43.00" data-label-kind="condition-stub" data-edge-id="edge:S6O1G3I2" data-arrow-id="condition_stub:T9" data-transition-id="T9" data-condition-stub-id="condition_stub:T9"/>
<text class="gate-label" x="40.12" y="43.00" data-label-kind="condition-stub" data-edge-id="edge:S6O1G3I2" data-arrow-id="condition_stub:T9" data-transition-id="T9" data-condition-stub-id="condition_stub:T9"><tspan x="40.12" dy="0">halted_return_to_idle</tspan></text>
</svg>