<svg xmlns="http://www.w3.org/2000/svg" width="857" height="1020" viewBox="-10.00 -2.00 42.83 51.00" role="img">
<style>
.step{fill:#fff;stroke:#111;stroke-width:.14}.step-inner{fill:none;stroke:#111;stroke-width:.08}
.action{fill:#fff;stroke:#111;stroke-width:.14}.gate{stroke:#111;stroke-width:.16}
.edge{fill:none;stroke:#111;stroke-width:.05;stroke-linecap:round;stroke-linejoin:round}.edge-arrow{marker-end:url(#arrow)}
.flyover-mask{stroke:#fff;stroke-width:.12;stroke-linecap:round}
.flyover{fill:none;stroke:#111;stroke-width:.05;stroke-linecap:round}
.junction{fill:#111;stroke:#111;stroke-width:0}.branch-junction{fill:#fff;stroke:#111;stroke-width:.08}
.assoc{stroke:#111;stroke-width:.05}.label{font:bold .7px 'Times New Roman', 'BiauKai', 'DFKai-SB', serif;text-anchor:middle;dominant-baseline:middle}
.action-label{font:.55px 'Times New Roman', 'BiauKai', 'DFKai-SB', serif;text-anchor:middle;dominant-baseline:middle}.gate-label{font:italic .55px 'Times New Roman', 'BiauKai', 'DFKai-SB', serif;text-anchor:start;dominant-baseline:middle}.gate-label-left{font:italic .55px 'Times New Roman', 'BiauKai', 'DFKai-SB', serif;text-anchor:end;dominant-baseline:middle}
</style>
<defs><marker id="arrow" markerWidth="0.4" markerHeight="0.4" refX="0.36" refY="0.2" orient="auto" markerUnits="userSpaceOnUse"><path d="M 0 0 L 0.4 0.2 L 0 0.4 z" fill="#111"/></marker></defs>
<rect x="-10.00" y="-2.00" width="42.83" height="51.00" fill="white"/>
<path class="edge" d="M 21.22 7.00 L 21.22 9.00"/>
<path class="edge edge-arrow" d="M 21.22 9.00 L 21.22 11.00"/>
<path class="edge edge-arrow" d="M 21.22 14.00 L 21.22 16.00"/>
<path class="edge edge-arrow" d="M 21.22 16.00 L 21.22 20.00"/>
<path class="edge edge-arrow" d="M 10.61 16.00 L 10.61 20.00"/>
<path class="edge edge-arrow" d="M 21.22 23.00 L 21.22 36.00"/>
<path class="edge edge-arrow" d="M 21.22 36.00 L 21.22 38.00"/>
<path class="edge edge-arrow" d="M 10.61 23.00 L 10.61 25.00"/>
<path class="edge edge-arrow" d="M 10.61 25.00 L 10.61 29.00"/>
<path class="edge edge-arrow" d="M 0.00 25.00 L 0.00 29.00"/>
<path class="edge edge-arrow" d="M 10.61 32.00 L 10.61 36.00"/>
<path class="edge" d="M 21.22 41.00 L 21.22 43.00"/>
<path class="edge edge-arrow" d="M 21.22 43.00 L 21.22 44.50 Q 21.22 45.00 20.72 45.00 L -5.50 45.00 Q -6.00 45.00 -6.00 44.50 L -6.00 2.50 Q -6.00 2.00 -5.50 2.00 L 20.72 2.00 Q 21.22 2.00 21.22 2.50 L 21.22 4.00"/>
<path class="edge" d="M 0.00 32.00 L 0.00 34.00"/>
<path class="edge" d="M 0.00 34.00 L 0.00 36.00"/>
<path class="edge" d="M 0.00 36.00 L -6.00 36.00"/>
<rect class="step" x="19.22" y="4.00" width="4.00" height="3.00" rx="0.35" ry="0.35"/>
<rect class="step-inner" x="19.47" y="4.25" width="3.50" height="2.50" rx="0.22" ry="0.22"/>
<text class="label" x="21.22" y="5.50">0</text>
<rect class="step" x="19.22" y="11.00" width="4.00" height="3.00" rx="0.35" ry="0.35"/>
<text class="label" x="21.22" y="12.50">1</text>
<rect class="step" x="19.22" y="20.00" width="4.00" height="3.00" rx="0.35" ry="0.35"/>
<text class="label" x="21.22" y="21.50">2</text>
<rect class="step" x="8.61" y="20.00" width="4.00" height="3.00" rx="0.35" ry="0.35"/>
<text class="label" x="10.61" y="21.50">3</text>
<rect class="step" x="8.61" y="29.00" width="4.00" height="3.00" rx="0.35" ry="0.35"/>
<text class="label" x="10.61" y="30.50">4</text>
<rect class="step" x="19.22" y="38.00" width="4.00" height="3.00" rx="0.35" ry="0.35"/>
<text class="label" x="21.22" y="39.50">5</text>
<rect class="step" x="-2.00" y="29.00" width="4.00" height="3.00" rx="0.35" ry="0.35"/>
<text class="label" x="0.00" y="30.50">6</text>
<line class="assoc" x1="23.22" y1="5.50" x2="24.22" y2="5.50"/>
<rect class="action" x="24.22" y="4.07" width="4.61" height="2.86"/>
<text class="action-label" x="26.52" y="5.09"><tspan x="26.52" dy="0">Start Gateway</tspan><tspan x="26.52" dy="0.82">登入 evaluation</tspan></text>
<line class="assoc" x1="23.22" y1="12.50" x2="24.22" y2="12.50"/>
<rect class="action" x="24.22" y="11.07" width="4.61" height="2.86"/>
<text class="action-label" x="26.52" y="11.68"><tspan x="26.52" dy="0">Inspect 登</tspan><tspan x="26.52" dy="0.82">入 mode 與</tspan><tspan x="26.52" dy="0.82">身分 來源</tspan></text>
<line class="assoc" x1="23.22" y1="21.50" x2="24.22" y2="21.50"/>
<rect class="action" x="24.22" y="20.07" width="4.61" height="2.86"/>
<text class="action-label" x="26.52" y="20.68"><tspan x="26.52" dy="0">Authorize 透過</tspan><tspan x="26.52" dy="0.82">Linux PAM 與 路</tspan><tspan x="26.52" dy="0.82">由 到 uid daemon</tspan></text>
<line class="assoc" x1="12.61" y1="21.50" x2="13.61" y2="21.50"/>
<rect class="action" x="13.61" y="20.07" width="4.61" height="2.86"/>
<text class="action-label" x="15.91" y="20.68"><tspan x="15.91" dy="0">Query 全域 bind</tspan><tspan x="15.91" dy="0.82">ing 註冊表 unde</tspan><tspan x="15.91" dy="0.82">r /etc/opencode/</tspan></text>
<line class="assoc" x1="12.61" y1="30.50" x2="13.61" y2="30.50"/>
<rect class="action" x="13.61" y="29.07" width="4.61" height="2.86"/>
<text class="action-label" x="15.91" y="29.68"><tspan x="15.91" dy="0">Accept boun</tspan><tspan x="15.91" dy="0.82">d Google 身</tspan><tspan x="15.91" dy="0.82">分 與 繼續</tspan></text>
<line class="assoc" x1="23.22" y1="39.50" x2="24.22" y2="39.50"/>
<rect class="action" x="24.22" y="38.07" width="4.61" height="2.86"/>
<text class="action-label" x="26.52" y="38.68"><tspan x="26.52" dy="0">路由 Sessio</tspan><tspan x="26.52" dy="0.82">n 到 依-使</tspan><tspan x="26.52" dy="0.82">用者 daemon</tspan></text>
<line class="assoc" x1="2.00" y1="30.50" x2="3.00" y2="30.50"/>
<rect class="action" x="3.00" y="29.07" width="4.61" height="2.86"/>
<text class="action-label" x="5.30" y="29.68"><tspan x="5.30" dy="0">Reject unbound</tspan><tspan x="5.30" dy="0.82">Google 身分 使</tspan><tspan x="5.30" dy="0.82">用 explicit denial</tspan></text>
<line class="gate" x1="20.22" y1="9.00" x2="22.22" y2="9.00"/>
<text class="gate-label" x="22.62" y="9.00"><tspan x="22.62" dy="0">start</tspan></text>
<line class="gate" x1="8.61" y1="16.00" x2="23.22" y2="16.00"/>
<line class="gate" x1="8.61" y1="36.00" x2="23.22" y2="36.00"/>
<line class="gate" x1="-2.00" y1="25.00" x2="12.61" y2="25.00"/>
<line class="gate" x1="20.22" y1="43.00" x2="22.22" y2="43.00"/>
<text class="gate-label" x="22.62" y="43.00"><tspan x="22.62" dy="0">daemon就緒</tspan></text>
<line class="gate" x1="-1.00" y1="34.00" x2="1.00" y2="34.00"/>
<text class="gate-label" x="1.40" y="34.00"><tspan x="1.40" dy="0">binding缺失</tspan></text>
<line class="gate" x1="20.22" y1="18.00" x2="22.22" y2="18.00"/>
<text class="gate-label" x="22.62" y="18.00"><tspan x="22.62" dy="0">linuxpam登入</tspan></text>
<line class="gate" x1="9.61" y1="18.00" x2="11.61" y2="18.00"/>
<text class="gate-label-left" x="9.21" y="18.00"><tspan x="9.21" dy="0">google登入</tspan></text>
<line class="gate" x1="20.22" y1="34.00" x2="22.22" y2="34.00"/>
<text class="gate-label" x="22.62" y="34.00"><tspan x="22.62" dy="0">pamsuccess</tspan></text>
<line class="gate" x1="9.61" y1="27.00" x2="11.61" y2="27.00"/>
<text class="gate-label" x="12.01" y="27.00"><tspan x="12.01" dy="0">bindingfound</tspan></text>
<line class="gate" x1="-1.00" y1="27.00" x2="1.00" y2="27.00"/>
<text class="gate-label-left" x="-1.40" y="27.00"><tspan x="-1.40" dy="0">binding缺失</tspan></text>
<line class="gate" x1="9.61" y1="34.00" x2="11.61" y2="34.00"/>
<text class="gate-label-left" x="9.21" y="34.00"><tspan x="9.21" dy="0">googlebound</tspan></text>
<circle class="junction" cx="-6.00" cy="36.00" r="0.22"/>
</svg>