<svg width="1493" height="810" viewBox="-275.2 -50.0 1493.2 810.0" xmlns="http://www.w3.org/2000/svg">
<defs><marker id="arrow" viewBox="0 0 10 10" refX="10" refY="5" markerWidth="6" markerHeight="6" orient="auto-start-reverse"><path d="M 0 0 L 10 5 L 0 10 z" fill="black" /></marker></defs>
<rect x="-275.2" y="-50.0" width="1493.2" height="810.0" fill="white" />
<rect x="380.0" y="80.0" width="40.0" height="40.0" stroke="black" stroke-width="1.5" fill="white" />
<rect x="385.0" y="85.0" width="30.0" height="30.0" stroke="black" stroke-width="1" fill="none" />
<text x="400" y="105.0" text-anchor="middle" font-family="'Times New Roman', 'BiauKai', 'DFKai-SB', '標楷體', 'KaiTi', serif" font-weight="bold" font-size="14">0</text>
<line x1="420.0" y1="100.0" x2="460.0" y2="100.0" stroke="black" />
<rect x="460.0" y="54.0" width="175.2" height="92.0" stroke="black" stroke-width="1.2" fill="white" />
<text x="547.6" y="92.0" text-anchor="middle" font-family="'Times New Roman', 'BiauKai', 'DFKai-SB', '標楷體', 'KaiTi', serif" font-size="11">Start Gateway</text>
<text x="547.6" y="116.00000000000001" text-anchor="middle" font-family="'Times New Roman', 'BiauKai', 'DFKai-SB', '標楷體', 'KaiTi', serif" font-size="11">登入 evaluation</text>
<line x1="400" y1="120.0" x2="400" y2="200.0" stroke="black" />
<line x1="380" y1="160.0" x2="420" y2="160.0" stroke="black" stroke-width="2" />
<text x="424.0" y="164.0" font-style="italic" font-size="11" text-anchor="start" font-family="'Times New Roman', 'BiauKai', 'DFKai-SB', '標楷體', 'KaiTi', serif">start</text>
<rect x="380.0" y="200.0" width="40.0" height="40.0" stroke="black" stroke-width="1.5" fill="white" />
<text x="400" y="225.0" text-anchor="middle" font-family="'Times New Roman', 'BiauKai', 'DFKai-SB', '標楷體', 'KaiTi', serif" font-weight="bold" font-size="14">1</text>
<line x1="420.0" y1="220.0" x2="460.0" y2="220.0" stroke="black" />
<rect x="460.0" y="174.0" width="175.2" height="92.0" stroke="black" stroke-width="1.2" fill="white" />
<text x="547.6" y="200.0" text-anchor="middle" font-family="'Times New Roman', 'BiauKai', 'DFKai-SB', '標楷體', 'KaiTi', serif" font-size="11">Inspect</text>
<text x="547.6" y="224.0" text-anchor="middle" font-family="'Times New Roman', 'BiauKai', 'DFKai-SB', '標楷體', 'KaiTi', serif" font-size="11">登入 mode</text>
<text x="547.6" y="248.00000000000003" text-anchor="middle" font-family="'Times New Roman', 'BiauKai', 'DFKai-SB', '標楷體', 'KaiTi', serif" font-size="11">與 身分 來源</text>
<line x1="400" y1="240.0" x2="400" y2="280.0" stroke="black" />
<line x1="24.80000000000004" y1="280.0" x2="775.1999999999999" y2="280.0" stroke="black" stroke-width="1.5" />
<line x1="64.80000000000004" y1="280.0" x2="64.80000000000004" y2="320.0" stroke="black" />
<line x1="44.80000000000004" y1="320.0" x2="84.80000000000004" y2="320.0" stroke="black" stroke-width="2" />
<text x="40.80000000000004" y="324.0" font-style="italic" font-size="11" text-anchor="end" font-family="'Times New Roman', 'BiauKai', 'DFKai-SB', '標楷體', 'KaiTi', serif">linuxpam登入</text>
<line x1="64.80000000000004" y1="320.0" x2="64.80000000000004" y2="360.0" stroke="black" marker-end="url(#arrow)" />
<line x1="735.1999999999999" y1="280.0" x2="735.1999999999999" y2="320.0" stroke="black" />
<line x1="715.1999999999999" y1="320.0" x2="755.1999999999999" y2="320.0" stroke="black" stroke-width="2" />
<text x="759.2" y="324.0" font-style="italic" font-size="11" text-anchor="start" font-family="'Times New Roman', 'BiauKai', 'DFKai-SB', '標楷體', 'KaiTi', serif">google登入</text>
<line x1="735.1999999999999" y1="320.0" x2="735.1999999999999" y2="360.0" stroke="black" marker-end="url(#arrow)" />
<rect x="44.80000000000004" y="360.0" width="40.0" height="40.0" stroke="black" stroke-width="1.5" fill="white" />
<text x="64.80000000000004" y="385.0" text-anchor="middle" font-family="'Times New Roman', 'BiauKai', 'DFKai-SB', '標楷體', 'KaiTi', serif" font-weight="bold" font-size="14">2</text>
<line x1="84.80000000000004" y1="380.0" x2="124.80000000000003" y2="380.0" stroke="black" />
<rect x="124.80000000000004" y="334.0" width="175.2" height="92.0" stroke="black" stroke-width="1.2" fill="white" />
<text x="212.40000000000003" y="360.0" text-anchor="middle" font-family="'Times New Roman', 'BiauKai', 'DFKai-SB', '標楷體', 'KaiTi', serif" font-size="11">Authorize 透過</text>
<text x="212.40000000000003" y="384.0" text-anchor="middle" font-family="'Times New Roman', 'BiauKai', 'DFKai-SB', '標楷體', 'KaiTi', serif" font-size="11">Linux PAM 與 路</text>
<text x="212.40000000000003" y="408.0" text-anchor="middle" font-family="'Times New Roman', 'BiauKai', 'DFKai-SB', '標楷體', 'KaiTi', serif" font-size="11">由 到 uid daemon</text>
<line x1="64.80000000000004" y1="400.0" x2="64.80000000000004" y2="480.0" stroke="black" />
<line x1="44.80000000000004" y1="440.0" x2="84.80000000000004" y2="440.0" stroke="black" stroke-width="2" />
<text x="88.80000000000004" y="444.0" font-style="italic" font-size="11" text-anchor="start" font-family="'Times New Roman', 'BiauKai', 'DFKai-SB', '標楷體', 'KaiTi', serif">pamsuccess</text>
<rect x="44.80000000000004" y="480.0" width="40.0" height="40.0" stroke="black" stroke-width="1.5" fill="white" />
<text x="64.80000000000004" y="505.0" text-anchor="middle" font-family="'Times New Roman', 'BiauKai', 'DFKai-SB', '標楷體', 'KaiTi', serif" font-weight="bold" font-size="14">5</text>
<line x1="84.80000000000004" y1="500.0" x2="124.80000000000003" y2="500.0" stroke="black" />
<rect x="124.80000000000004" y="454.0" width="175.2" height="92.0" stroke="black" stroke-width="1.2" fill="white" />
<text x="212.40000000000003" y="480.0" text-anchor="middle" font-family="'Times New Roman', 'BiauKai', 'DFKai-SB', '標楷體', 'KaiTi', serif" font-size="11">路由 Session</text>
<text x="212.40000000000003" y="504.0" text-anchor="middle" font-family="'Times New Roman', 'BiauKai', 'DFKai-SB', '標楷體', 'KaiTi', serif" font-size="11">到 依-使用者</text>
<text x="212.40000000000003" y="528.0" text-anchor="middle" font-family="'Times New Roman', 'BiauKai', 'DFKai-SB', '標楷體', 'KaiTi', serif" font-size="11">daemon</text>
<line x1="64.80000000000004" y1="520.0" x2="64.80000000000004" y2="600.0" stroke="black" />
<line x1="44.80000000000004" y1="560.0" x2="84.80000000000004" y2="560.0" stroke="black" stroke-width="2" />
<text x="88.80000000000004" y="564.0" font-style="italic" font-size="11" text-anchor="start" font-family="'Times New Roman', 'BiauKai', 'DFKai-SB', '標楷體', 'KaiTi', serif">daemon就緒</text>
<rect x="715.1999999999999" y="360.0" width="40.0" height="40.0" stroke="black" stroke-width="1.5" fill="white" />
<text x="735.1999999999999" y="385.0" text-anchor="middle" font-family="'Times New Roman', 'BiauKai', 'DFKai-SB', '標楷體', 'KaiTi', serif" font-weight="bold" font-size="14">3</text>
<line x1="755.1999999999999" y1="380.0" x2="795.1999999999999" y2="380.0" stroke="black" />
<rect x="795.1999999999999" y="334.0" width="175.2" height="92.0" stroke="black" stroke-width="1.2" fill="white" />
<text x="882.8" y="360.0" text-anchor="middle" font-family="'Times New Roman', 'BiauKai', 'DFKai-SB', '標楷體', 'KaiTi', serif" font-size="11">Query 全域 binding</text>
<text x="882.8" y="384.0" text-anchor="middle" font-family="'Times New Roman', 'BiauKai', 'DFKai-SB', '標楷體', 'KaiTi', serif" font-size="11">註冊表 under /etc/</text>
<text x="882.8" y="408.0" text-anchor="middle" font-family="'Times New Roman', 'BiauKai', 'DFKai-SB', '標楷體', 'KaiTi', serif" font-size="11">opencode/</text>
<line x1="735.1999999999999" y1="400.0" x2="735.1999999999999" y2="440.0" stroke="black" />
<line x1="527.6" y1="440.0" x2="942.8" y2="440.0" stroke="black" stroke-width="1.5" />
<line x1="567.6" y1="440.0" x2="567.6" y2="480.0" stroke="black" />
<line x1="547.6" y1="480.0" x2="587.6" y2="480.0" stroke="black" stroke-width="2" />
<text x="543.6" y="484.0" font-style="italic" font-size="11" text-anchor="end" font-family="'Times New Roman', 'BiauKai', 'DFKai-SB', '標楷體', 'KaiTi', serif">bindingfound</text>
<line x1="567.6" y1="480.0" x2="567.6" y2="520.0" stroke="black" marker-end="url(#arrow)" />
<line x1="902.8" y1="440.0" x2="902.8" y2="480.0" stroke="black" />
<line x1="882.8" y1="480.0" x2="922.8" y2="480.0" stroke="black" stroke-width="2" />
<text x="926.8000000000001" y="484.0" font-style="italic" font-size="11" text-anchor="start" font-family="'Times New Roman', 'BiauKai', 'DFKai-SB', '標楷體', 'KaiTi', serif">binding缺失</text>
<line x1="902.8" y1="480.0" x2="902.8" y2="520.0" stroke="black" marker-end="url(#arrow)" />
<rect x="547.6" y="520.0" width="40.0" height="40.0" stroke="black" stroke-width="1.5" fill="white" />
<text x="567.6" y="545.0" text-anchor="middle" font-family="'Times New Roman', 'BiauKai', 'DFKai-SB', '標楷體', 'KaiTi', serif" font-weight="bold" font-size="14">4</text>
<line x1="587.6" y1="540.0" x2="627.6" y2="540.0" stroke="black" />
<rect x="627.5999999999999" y="494.0" width="175.2" height="92.0" stroke="black" stroke-width="1.2" fill="white" />
<text x="715.1999999999999" y="520.0" text-anchor="middle" font-family="'Times New Roman', 'BiauKai', 'DFKai-SB', '標楷體', 'KaiTi', serif" font-size="11">Accept</text>
<text x="715.1999999999999" y="544.0" text-anchor="middle" font-family="'Times New Roman', 'BiauKai', 'DFKai-SB', '標楷體', 'KaiTi', serif" font-size="11">bound Google</text>
<text x="715.1999999999999" y="568.0" text-anchor="middle" font-family="'Times New Roman', 'BiauKai', 'DFKai-SB', '標楷體', 'KaiTi', serif" font-size="11">身分 與 繼續</text>
<line x1="567.6" y1="560.0" x2="567.6" y2="640.0" stroke="black" />
<line x1="547.6" y1="600.0" x2="587.6" y2="600.0" stroke="black" stroke-width="2" />
<text x="591.5999999999999" y="604.0" font-style="italic" font-size="11" text-anchor="start" font-family="'Times New Roman', 'BiauKai', 'DFKai-SB', '標楷體', 'KaiTi', serif">googlebound</text>
<rect x="882.8" y="520.0" width="40.0" height="40.0" stroke="black" stroke-width="1.5" fill="white" />
<text x="902.8" y="545.0" text-anchor="middle" font-family="'Times New Roman', 'BiauKai', 'DFKai-SB', '標楷體', 'KaiTi', serif" font-weight="bold" font-size="14">6</text>
<line x1="922.8" y1="540.0" x2="962.8" y2="540.0" stroke="black" />
<rect x="962.8000000000001" y="494.0" width="175.2" height="92.0" stroke="black" stroke-width="1.2" fill="white" />
<text x="1050.4" y="520.0" text-anchor="middle" font-family="'Times New Roman', 'BiauKai', 'DFKai-SB', '標楷體', 'KaiTi', serif" font-size="11">Reject unbound</text>
<text x="1050.4" y="544.0" text-anchor="middle" font-family="'Times New Roman', 'BiauKai', 'DFKai-SB', '標楷體', 'KaiTi', serif" font-size="11">Google 身分 使用</text>
<text x="1050.4" y="568.0" text-anchor="middle" font-family="'Times New Roman', 'BiauKai', 'DFKai-SB', '標楷體', 'KaiTi', serif" font-size="11">explicit denial</text>
<line x1="902.8" y1="560.0" x2="902.8" y2="640.0" stroke="black" />
<line x1="882.8" y1="600.0" x2="922.8" y2="600.0" stroke="black" stroke-width="2" />
<text x="926.8000000000001" y="604.0" font-style="italic" font-size="11" text-anchor="start" font-family="'Times New Roman', 'BiauKai', 'DFKai-SB', '標楷體', 'KaiTi', serif">binding缺失</text>
<line x1="64.80000000000004" y1="600.0" x2="64.80000000000004" y2="600.0" stroke="black" />
<line x1="64.80000000000004" y1="600.0" x2="-115.19999999999996" y2="600.0" stroke="black" />
<line x1="-115.19999999999996" y1="600.0" x2="-115.19999999999996" y2="30.0" stroke="black" />
<line x1="-115.19999999999996" y1="30.0" x2="400" y2="30.0" stroke="black" />
<line x1="400" y1="30.0" x2="400" y2="70.0" stroke="black" marker-end="url(#arrow)" />
<line x1="567.6" y1="640.0" x2="567.6" y2="660.0" stroke="black" />
<line x1="567.6" y1="660.0" x2="-35.19999999999996" y2="660.0" stroke="black" />
<line x1="-35.19999999999996" y1="660.0" x2="-35.19999999999996" y2="456.0" stroke="black" />
<line x1="-35.19999999999996" y1="456.0" x2="64.80000000000004" y2="456.0" stroke="black" marker-end="url(#arrow)" />
<line x1="902.8" y1="640.0" x2="902.8" y2="680.0" stroke="black" />
<line x1="902.8" y1="680.0" x2="-195.19999999999996" y2="680.0" stroke="black" />
<line x1="-195.19999999999996" y1="680.0" x2="-195.19999999999996" y2="30.0" stroke="black" />
<line x1="-195.19999999999996" y1="30.0" x2="400" y2="30.0" stroke="black" />
<line x1="400" y1="30.0" x2="400" y2="70.0" stroke="black" marker-end="url(#arrow)" />
</svg>