<svg xmlns="http://www.w3.org/2000/svg" width="1865" height="1580" viewBox="-24.50 -2.00 93.25 79.00" role="img">
<style>
.step{fill:#fff;stroke:#111;stroke-width:.14}.step-inner{fill:none;stroke:#111;stroke-width:.08}
.action{fill:#fff;stroke:#111;stroke-width:.14}.gate{stroke:#111;stroke-width:.16}
.edge{fill:none;stroke:#111;stroke-width:.05;stroke-linecap:round;stroke-linejoin:round}.edge-arrow{marker-end:url(#arrow)}
.flyover-mask{stroke:#fff;stroke-width:.12;stroke-linecap:round}
.flyover{fill:none;stroke:#111;stroke-width:.05;stroke-linecap:round}
.junction{fill:#111;stroke:#111;stroke-width:0}.branch-junction{fill:#fff;stroke:#111;stroke-width:.08}
.assoc{stroke:#111;stroke-width:.05}.label{font:bold .7px 'Times New Roman', 'BiauKai', 'DFKai-SB', serif;text-anchor:middle;dominant-baseline:middle}
.action-label{font:.55px 'Times New Roman', 'BiauKai', 'DFKai-SB', serif;text-anchor:middle;dominant-baseline:middle}.gate-label{font:italic .55px 'Times New Roman', 'BiauKai', 'DFKai-SB', serif;text-anchor:start;dominant-baseline:middle}.gate-label-left{font:italic .55px 'Times New Roman', 'BiauKai', 'DFKai-SB', serif;text-anchor:end;dominant-baseline:middle}
</style>
<defs><marker id="arrow" markerWidth="0.4" markerHeight="0.4" refX="0.36" refY="0.2" orient="auto" markerUnits="userSpaceOnUse"><path d="M 0 0 L 0.4 0.2 L 0 0.4 z" fill="#111"/></marker></defs>
<rect x="-24.50" y="-2.00" width="93.25" height="79.00" fill="white"/>
<path class="edge edge-arrow" d="M 36.65 7.00 L 36.65 9.00"/>
<path class="edge edge-arrow" d="M 36.65 9.00 L 36.65 13.00"/>
<path class="edge edge-arrow" d="M 21.10 9.00 L 21.10 13.00"/>
<path class="edge edge-arrow" d="M 36.65 16.00 L 36.65 18.00"/>
<path class="edge edge-arrow" d="M 21.10 18.00 L 21.10 26.00"/>
<path class="edge edge-arrow" d="M 36.65 18.00 L 36.65 26.00"/>
<path class="edge edge-arrow" d="M 21.10 29.00 L 21.10 31.00"/>
<path class="edge edge-arrow" d="M 21.10 31.00 L 21.10 37.00"/>
<path class="edge edge-arrow" d="M 5.55 31.00 L 5.55 37.00"/>
<path class="edge edge-arrow" d="M 36.65 29.00 L 36.65 60.00"/>
<path class="edge edge-arrow" d="M 5.55 60.00 L 5.55 66.00"/>
<path class="edge edge-arrow" d="M 21.10 40.00 L 21.10 60.00"/>
<path class="edge edge-arrow" d="M 5.55 40.00 L 5.55 42.00"/>
<path class="edge edge-arrow" d="M 5.55 42.00 L 5.55 48.00"/>
<path class="edge edge-arrow" d="M -10.00 42.00 L -10.00 48.00"/>
<path class="edge edge-arrow" d="M 5.55 51.00 L 5.55 60.00"/>
<path class="edge" d="M -10.00 51.00 L -10.00 53.00"/>
<path class="edge edge-arrow" d="M -10.00 53.00 L -10.00 55.00"/>
<path class="edge edge-arrow" d="M -10.00 58.00 L -10.00 60.00"/>
<path class="edge" d="M 5.55 69.00 L 5.55 71.00"/>
<path class="edge edge-arrow" d="M 5.55 71.00 L 5.55 72.50 Q 5.55 73.00 5.05 73.00 L -20.00 73.00 Q -20.50 73.00 -20.50 72.50 L -20.50 2.50 Q -20.50 2.00 -20.00 2.00 L 36.15 2.00 Q 36.65 2.00 36.65 2.50 L 36.65 4.00"/>
<path class="edge" d="M 21.10 16.00 L 21.10 17.38"/>
<path class="edge" d="M 21.10 17.38 L 51.20 17.38"/>
<path class="edge" d="M 51.20 17.38 L 51.20 20.00"/>
<path class="edge" d="M 51.20 20.00 L 21.10 20.00"/>
<path class="edge" d="M 21.10 24.62 L 52.20 24.62"/>
<path class="edge edge-arrow" d="M 52.20 18.00 L 52.20 26.00"/>
<path class="edge" d="M 52.20 29.00 L 52.20 34.50 Q 52.20 35.00 51.70 35.00 L -10.00 35.00"/>
<path class="edge edge-arrow" d="M -10.00 31.00 L -10.00 37.00"/>
<path class="edge" d="M -10.00 40.00 L -10.00 42.00"/>
<path class="edge" d="M -10.00 44.00 L 46.65 44.00"/>
<path class="edge edge-arrow" d="M 46.65 44.00 L 46.65 60.00"/>
<rect class="step" x="34.65" y="4.00" width="4.00" height="3.00" rx="0.35" ry="0.35"/>
<rect class="step-inner" x="34.90" y="4.25" width="3.50" height="2.50" rx="0.22" ry="0.22"/>
<text class="label" x="36.65" y="5.50">0</text>
<rect class="step" x="34.65" y="13.00" width="4.00" height="3.00" rx="0.35" ry="0.35"/>
<text class="label" x="36.65" y="14.50">1</text>
<rect class="step" x="19.10" y="26.00" width="4.00" height="3.00" rx="0.35" ry="0.35"/>
<text class="label" x="21.10" y="27.50">2</text>
<rect class="step" x="34.65" y="26.00" width="4.00" height="3.00" rx="0.35" ry="0.35"/>
<text class="label" x="36.65" y="27.50">3</text>
<rect class="step" x="19.10" y="37.00" width="4.00" height="3.00" rx="0.35" ry="0.35"/>
<text class="label" x="21.10" y="38.50">4</text>
<rect class="step" x="3.55" y="37.00" width="4.00" height="3.00" rx="0.35" ry="0.35"/>
<text class="label" x="5.55" y="38.50">5</text>
<rect class="step" x="3.55" y="48.00" width="4.00" height="3.00" rx="0.35" ry="0.35"/>
<text class="label" x="5.55" y="49.50">6</text>
<rect class="step" x="-12.00" y="48.00" width="4.00" height="3.00" rx="0.35" ry="0.35"/>
<text class="label" x="-10.00" y="49.50">7</text>
<rect class="step" x="-12.00" y="55.00" width="4.00" height="3.00" rx="0.35" ry="0.35"/>
<text class="label" x="-10.00" y="56.50">8</text>
<rect class="step" x="3.55" y="66.00" width="4.00" height="3.00" rx="0.35" ry="0.35"/>
<text class="label" x="5.55" y="67.50">9</text>
<rect class="step" x="19.10" y="13.00" width="4.00" height="3.00" rx="0.35" ry="0.35"/>
<text class="label" x="21.10" y="14.50">10</text>
<rect class="step" x="50.20" y="26.00" width="4.00" height="3.00" rx="0.35" ry="0.35"/>
<text class="label" x="52.20" y="27.50">11</text>
<rect class="step" x="-12.00" y="37.00" width="4.00" height="3.00" rx="0.35" ry="0.35"/>
<text class="label" x="-10.00" y="38.50">12</text>
<line class="assoc" x1="38.65" y1="5.50" x2="39.65" y2="5.50"/>
<rect class="action" x="39.65" y="4.07" width="9.55" height="2.86"/>
<text class="action-label" x="44.42" y="5.09"><tspan x="44.42" dy="0">閒置 — 就緒 到 acce</tspan><tspan x="44.42" dy="0.82">pt requests 與 bus 事件</tspan></text>
<line class="assoc" x1="38.65" y1="14.50" x2="39.65" y2="14.50"/>
<rect class="action" x="39.65" y="13.07" width="9.55" height="2.86"/>
<text class="action-label" x="44.42" y="14.09"><tspan x="44.42" dy="0">Check rate-limit bucket 供 (us</tspan><tspan x="44.42" dy="0.82">ername, method, 路由pattern)</tspan></text>
<line class="assoc" x1="23.10" y1="27.50" x2="24.10" y2="27.50"/>
<rect class="action" x="24.10" y="26.07" width="9.55" height="2.86"/>
<text class="action-label" x="28.87" y="27.09"><tspan x="28.87" dy="0">Compute weak ETag 與</tspan><tspan x="28.87" dy="0.82">compare If-None-比對</tspan></text>
<line class="assoc" x1="38.65" y1="27.50" x2="39.65" y2="27.50"/>
<rect class="action" x="39.65" y="26.07" width="9.55" height="2.86"/>
<text class="action-label" x="44.42" y="27.09"><tspan x="44.42" dy="0">發出 429 使用 重試-After</tspan><tspan x="44.42" dy="0.82">與 記錄 RateLimit.Throttled</tspan></text>
<line class="assoc" x1="23.10" y1="38.50" x2="24.10" y2="38.50"/>
<rect class="action" x="24.10" y="37.07" width="9.55" height="2.86"/>
<text class="action-label" x="28.87" y="38.09"><tspan x="28.87" dy="0">返回 304 不 Modifi</tspan><tspan x="28.87" dy="0.82">ed 使用 empty body</tspan></text>
<line class="assoc" x1="7.55" y1="38.50" x2="8.55" y2="38.50"/>
<rect class="action" x="8.55" y="37.07" width="9.55" height="2.86"/>
<text class="action-label" x="13.32" y="38.09"><tspan x="13.32" dy="0">Lookup 快取 項目 供 Sessio</tspan><tspan x="13.32" dy="0.82">n:&lt;id&gt; 或 messages:&lt;id&gt;:&lt;limit&gt;</tspan></text>
<line class="assoc" x1="7.55" y1="49.50" x2="8.55" y2="49.50"/>
<rect class="action" x="8.55" y="48.07" width="9.55" height="2.86"/>
<text class="action-label" x="13.32" y="49.09"><tspan x="13.32" dy="0">Serve cached body 使用 ET</tspan><tspan x="13.32" dy="0.82">ag; 記錄 Session快取.Hit</tspan></text>
<line class="assoc" x1="-8.00" y1="49.50" x2="-7.00" y2="49.50"/>
<rect class="action" x="-7.00" y="48.07" width="9.55" height="2.86"/>
<text class="action-label" x="-2.23" y="48.68"><tspan x="-2.23" dy="0">Load 來自 儲存 透過 Session</tspan><tspan x="-2.23" dy="0.82">.get/messages; memoize under LR</tspan><tspan x="-2.23" dy="0.82">U cap; 記錄 Session快取.Miss</tspan></text>
<line class="assoc" x1="-8.00" y1="56.50" x2="-7.00" y2="56.50"/>
<rect class="action" x="-7.00" y="55.07" width="9.55" height="2.86"/>
<text class="action-label" x="-2.23" y="56.09"><tspan x="-2.23" dy="0">發出 200 回應 使</tspan><tspan x="-2.23" dy="0.82">用 new ETag 與 body</tspan></text>
<line class="assoc" x1="7.55" y1="67.50" x2="8.55" y2="67.50"/>
<rect class="action" x="8.55" y="66.07" width="9.55" height="2.86"/>
<text class="action-label" x="13.32" y="67.09"><tspan x="13.32" dy="0">返回 到 閒置; statistics updated</tspan><tspan x="13.32" dy="0.82">; 下一個 請求 或 事件 awaited</tspan></text>
<line class="assoc" x1="23.10" y1="14.50" x2="24.10" y2="14.50"/>
<rect class="action" x="24.10" y="13.07" width="9.55" height="2.86"/>
<text class="action-label" x="28.87" y="14.09"><tspan x="28.87" dy="0">Receive bus 事件 (訊息v2.事件.*</tspan><tspan x="28.87" dy="0.82">或 Session.事件.*); 取出 SessionID</tspan></text>
<line class="assoc" x1="54.20" y1="27.50" x2="55.20" y2="27.50"/>
<rect class="action" x="55.20" y="26.07" width="9.55" height="2.86"/>
<text class="action-label" x="59.97" y="26.68"><tspan x="59.97" dy="0">Drop all 快取 keys under</tspan><tspan x="59.97" dy="0.82">Session:&lt;id&gt;*, messages:&lt;i</tspan><tspan x="59.97" dy="0.82">d&gt;*; bump version counter</tspan></text>
<line class="assoc" x1="-8.00" y1="38.50" x2="-7.00" y2="38.50"/>
<rect class="action" x="-7.00" y="37.07" width="9.55" height="2.86"/>
<text class="action-label" x="-2.23" y="37.68"><tspan x="-2.23" dy="0">發布 Session快取.事件.Invalidated</tspan><tspan x="-2.23" dy="0.82">; 記錄.info if subscription 是 health</tspan><tspan x="-2.23" dy="0.82">y, 記錄.warn if subscription disabled</tspan></text>
<line class="gate" x1="19.10" y1="9.00" x2="38.65" y2="9.00"/>
<line class="gate" x1="19.10" y1="18.00" x2="38.65" y2="18.00"/>
<line class="gate" x1="3.55" y1="31.00" x2="23.10" y2="31.00"/>
<line class="gate" x1="-16.50" y1="60.00" x2="48.65" y2="60.00"/>
<line class="gate" x1="-12.00" y1="42.00" x2="7.55" y2="42.00"/>
<line class="gate" x1="-11.00" y1="53.00" x2="-9.00" y2="53.00"/>
<text class="gate-label" x="-8.60" y="53.00"><tspan x="-8.60" dy="0">已載入與cached</tspan></text>
<line class="gate" x1="4.55" y1="71.00" x2="6.55" y2="71.00"/>
<text class="gate-label" x="6.95" y="71.00"><tspan x="6.95" dy="0">就緒</tspan></text>
<line class="gate" x1="51.20" y1="18.00" x2="53.20" y2="18.00"/>
<text class="gate-label" x="53.60" y="18.00"><tspan x="53.60" dy="0">Sessionid已取出</tspan></text>
<line class="gate" x1="-11.00" y1="31.00" x2="-9.00" y2="31.00"/>
<text class="gate-label" x="-8.60" y="31.00"><tspan x="-8.60" dy="0">invalidation完成</tspan></text>
<line class="gate" x1="35.65" y1="11.00" x2="37.65" y2="11.00"/>
<text class="gate-label" x="38.05" y="11.00"><tspan x="38.05" dy="0">http請求arrived</tspan></text>
<line class="gate" x1="20.10" y1="11.00" x2="22.10" y2="11.00"/>
<text class="gate-label-left" x="19.70" y="11.00"><tspan x="19.70" dy="0">bus事件arrived</tspan></text>
<line class="gate" x1="20.10" y1="22.00" x2="22.10" y2="22.00"/>
<text class="gate-label-left" x="19.70" y="22.00"><tspan x="19.70" dy="0">tokenavailable或exempt</tspan></text>
<line class="gate" x1="35.65" y1="22.00" x2="37.65" y2="22.00"/>
<text class="gate-label" x="38.05" y="22.00"><tspan x="38.05" dy="0">bucketexhausted</tspan></text>
<line class="gate" x1="20.10" y1="33.00" x2="22.10" y2="33.00"/>
<text class="gate-label" x="22.50" y="33.00"><tspan x="22.50" dy="0">etag比對</tspan></text>
<line class="gate" x1="4.55" y1="33.00" x2="6.55" y2="33.00"/>
<text class="gate-label-left" x="4.15" y="33.00"><tspan x="4.15" dy="0">etagmismatch或absent</tspan></text>
<line class="gate" x1="35.65" y1="64.00" x2="37.65" y2="64.00"/>
<text class="gate-label" x="38.05" y="64.00"><tspan x="38.05" dy="0">回應sent</tspan></text>
<line class="gate" x1="20.10" y1="64.00" x2="22.10" y2="64.00"/>
<text class="gate-label" x="22.50" y="64.00"><tspan x="22.50" dy="0">回應sent</tspan></text>
<line class="gate" x1="4.55" y1="46.00" x2="6.55" y2="46.00"/>
<text class="gate-label" x="6.95" y="46.00"><tspan x="6.95" dy="0">快取hitfresh</tspan></text>
<line class="gate" x1="-11.00" y1="46.00" x2="-9.00" y2="46.00"/>
<text class="gate-label-left" x="-11.40" y="46.00"><tspan x="-11.40" dy="0">快取miss或expired</tspan></text>
<line class="gate" x1="4.55" y1="64.00" x2="6.55" y2="64.00"/>
<text class="gate-label-left" x="4.15" y="64.00"><tspan x="4.15" dy="0">回應sent</tspan></text>
<line class="gate" x1="-11.00" y1="64.00" x2="-9.00" y2="64.00"/>
<text class="gate-label-left" x="-11.40" y="64.00"><tspan x="-11.40" dy="0">回應sent</tspan></text>
<line class="gate" x1="45.65" y1="64.00" x2="47.65" y2="64.00"/>
<text class="gate-label" x="48.05" y="64.00"><tspan x="48.05" dy="0">observabilityrecorded</tspan></text>
<circle class="junction" cx="21.10" cy="20.00" r="0.22"/>
<circle class="branch-junction" cx="21.10" cy="24.62" r="0.22"/>
<circle class="branch-junction" cx="-10.00" cy="44.00" r="0.22"/>
<circle class="junction" cx="52.20" cy="24.62" r="0.22"/>
<circle class="junction" cx="-10.00" cy="35.00" r="0.22"/>
</svg>