<svg xmlns="http://www.w3.org/2000/svg" width="1086" height="1790" viewBox="-4.00 -1.92 54.31 89.52" role="img">
<style>
.step{fill:#fff;stroke:#111;stroke-width:.14}.step-inner{fill:none;stroke:#111;stroke-width:.08}
.action{fill:#fff;stroke:#111;stroke-width:.14}.gate{stroke:#111;stroke-width:.16}
.edge{fill:none;stroke:#111;stroke-width:.05;stroke-linecap:round;stroke-linejoin:round}.edge-arrow{marker-end:url(#arrow)}
.flyover-mask{stroke:#fff;stroke-width:.12;stroke-linecap:round}
.flyover{fill:none;stroke:#111;stroke-width:.05;stroke-linecap:round}
.junction{fill:#111;stroke:#111;stroke-width:0}
.assoc{stroke:#111;stroke-width:.05}.label{font:bold .7px 'Times New Roman', 'BiauKai', 'DFKai-SB', serif;text-anchor:middle;dominant-baseline:middle}
.action-label{font:.55px 'Times New Roman', 'BiauKai', 'DFKai-SB', serif;text-anchor:middle;dominant-baseline:middle}.gate-label{font:italic .55px 'Times New Roman', 'BiauKai', 'DFKai-SB', serif;text-anchor:start;dominant-baseline:middle}.gate-label-left{font:italic .55px 'Times New Roman', 'BiauKai', 'DFKai-SB', serif;text-anchor:end;dominant-baseline:middle}
</style>
<defs><marker id="arrow" markerWidth="0.4" markerHeight="0.4" refX="0.36" refY="0.2" orient="auto" markerUnits="userSpaceOnUse"><path d="M 0 0 L 0.4 0.2 L 0 0.4 z" fill="#111"/></marker></defs>
<rect x="-4.00" y="-1.92" width="54.31" height="89.52" fill="white"/>
<path class="edge" d="M 20.00 7.08 L 20.00 9.16"/>
<path class="edge edge-arrow" d="M 20.00 9.16 L 20.00 11.24"/>
<path class="edge" d="M 20.00 14.24 L 20.00 16.32"/>
<path class="edge edge-arrow" d="M 20.00 16.32 L 20.00 18.40"/>
<path class="edge" d="M 20.00 21.40 L 20.00 23.48"/>
<path class="edge edge-arrow" d="M 10.00 23.48 L 10.00 24.98 Q 10.00 25.48 10.00 25.98 L 10.00 27.56"/>
<path class="edge edge-arrow" d="M 30.00 23.48 L 30.00 24.98 Q 30.00 25.48 30.00 25.98 L 30.00 27.56"/>
<path class="edge" d="M 10.00 30.56 L 10.00 34.14 Q 10.00 34.64 9.50 34.64 L 2.50 34.64 Q 2.00 34.64 2.00 35.14 L 2.00 39.30 Q 2.00 39.80 2.50 39.80 L 9.50 39.80 Q 10.00 39.80 10.00 40.30 L 10.00 41.80"/>
<path class="edge edge-arrow" d="M 20.00 41.80 L 20.00 43.88"/>
<path class="edge" d="M 30.00 30.56 L 30.00 32.64"/>
<path class="edge edge-arrow" d="M 30.00 32.64 L 30.00 34.72"/>
<path class="edge" d="M 30.00 37.72 L 30.00 41.80"/>
<path class="edge" d="M 20.00 46.88 L 20.00 48.96"/>
<path class="edge edge-arrow" d="M 10.00 48.96 L 10.00 50.46 Q 10.00 50.96 10.00 51.46 L 10.00 53.04"/>
<path class="edge edge-arrow" d="M 30.00 48.96 L 30.00 50.46 Q 30.00 50.96 30.00 51.46 L 30.00 53.04"/>
<path class="edge" d="M 10.00 56.04 L 10.00 60.12"/>
<path class="edge edge-arrow" d="M 20.00 60.12 L 20.00 62.20"/>
<path class="edge" d="M 30.00 56.04 L 30.00 60.12"/>
<path class="edge" d="M 20.00 65.20 L 20.00 67.28"/>
<path class="edge edge-arrow" d="M 20.00 67.28 L 20.00 69.36"/>
<path class="edge" d="M 20.00 72.36 L 20.00 74.44"/>
<path class="edge edge-arrow" d="M 20.00 74.44 L 20.00 76.52"/>
<path class="edge" d="M 20.00 79.52 L 20.00 81.60"/>
<path class="edge edge-arrow" d="M 20.00 81.60 L 20.00 83.10 Q 20.00 83.60 19.50 83.60 L 0.50 83.60 Q 0.00 83.60 0.00 83.10 L 0.00 2.58 Q 0.00 2.08 0.50 2.08 L 19.50 2.08 Q 20.00 2.08 20.00 2.58 L 20.00 4.08"/>
<rect class="step" x="18.00" y="4.08" width="4.00" height="3.00"/>
<rect class="step-inner" x="18.25" y="4.33" width="3.50" height="2.50"/>
<text class="label" x="20.00" y="5.58">0</text>
<rect class="step" x="18.00" y="11.24" width="4.00" height="3.00"/>
<text class="label" x="20.00" y="12.74">1</text>
<rect class="step" x="18.00" y="18.40" width="4.00" height="3.00"/>
<text class="label" x="20.00" y="19.90">2</text>
<rect class="step" x="8.00" y="27.56" width="4.00" height="3.00"/>
<text class="label" x="10.00" y="29.06">3</text>
<rect class="step" x="28.00" y="27.56" width="4.00" height="3.00"/>
<text class="label" x="30.00" y="29.06">4</text>
<rect class="step" x="28.00" y="34.72" width="4.00" height="3.00"/>
<text class="label" x="30.00" y="36.22">5</text>
<rect class="step" x="18.00" y="43.88" width="4.00" height="3.00"/>
<text class="label" x="20.00" y="45.38">6</text>
<rect class="step" x="8.00" y="53.04" width="4.00" height="3.00"/>
<text class="label" x="10.00" y="54.54">7</text>
<rect class="step" x="28.00" y="53.04" width="4.00" height="3.00"/>
<text class="label" x="30.00" y="54.54">8</text>
<rect class="step" x="18.00" y="62.20" width="4.00" height="3.00"/>
<text class="label" x="20.00" y="63.70">9</text>
<rect class="step" x="18.00" y="69.36" width="4.00" height="3.00"/>
<text class="label" x="20.00" y="70.86">10</text>
<rect class="step" x="18.00" y="76.52" width="4.00" height="3.00"/>
<text class="label" x="20.00" y="78.02">11</text>
<line class="assoc" x1="22.00" y1="5.58" x2="23.00" y2="5.58"/>
<rect class="action" x="23.00" y="4.00" width="13.31" height="3.16" rx="0.45" ry="0.45"/>
<text class="action-label" x="29.66" y="4.76"><tspan x="29.66" dy="0">帳號</tspan><tspan x="29.66" dy="0.82">儲存</tspan><tspan x="29.66" dy="0.82">閒置</tspan></text>
<line class="assoc" x1="22.00" y1="12.74" x2="23.00" y2="12.74"/>
<rect class="action" x="23.00" y="11.16" width="13.31" height="3.16" rx="0.45" ry="0.45"/>
<text class="action-label" x="29.66" y="12.74"><tspan x="29.66" dy="0">解析canonicalProviderkey</tspan></text>
<line class="assoc" x1="22.00" y1="19.90" x2="23.00" y2="19.90"/>
<rect class="action" x="23.00" y="18.32" width="13.31" height="3.16" rx="0.45" ry="0.45"/>
<text class="action-label" x="29.66" y="19.49"><tspan x="29.66" dy="0">validatecredentialshape與</tspan><tspan x="29.66" dy="0.82">branch</tspan></text>
<line class="assoc" x1="12.00" y1="29.06" x2="13.00" y2="29.06"/>
<rect class="action" x="13.00" y="27.48" width="13.31" height="3.16" rx="0.45" ry="0.45"/>
<text class="action-label" x="19.66" y="28.24"><tspan x="19.66" dy="0">掃描</tspan><tspan x="19.66" dy="0.82">existing供</tspan><tspan x="19.66" dy="0.82">apikey比對</tspan></text>
<line class="assoc" x1="32.00" y1="29.06" x2="33.00" y2="29.06"/>
<rect class="action" x="33.00" y="27.48" width="13.31" height="3.16" rx="0.45" ry="0.45"/>
<text class="action-label" x="39.66" y="28.65"><tspan x="39.66" dy="0">執行身分</tspan><tspan x="39.66" dy="0.82">chainemailusernametokenhash</tspan></text>
<line class="assoc" x1="32.00" y1="36.22" x2="33.00" y2="36.22"/>
<rect class="action" x="33.00" y="34.64" width="13.31" height="3.16" rx="0.45" ry="0.45"/>
<text class="action-label" x="39.66" y="35.40"><tspan x="39.66" dy="0">dedup由</tspan><tspan x="39.66" dy="0.82">basetoken或</tspan><tspan x="39.66" dy="0.82">emailcollision</tspan></text>
<line class="assoc" x1="22.00" y1="45.38" x2="23.00" y2="45.38"/>
<rect class="action" x="23.00" y="43.80" width="13.31" height="3.16" rx="0.45" ry="0.45"/>
<text class="action-label" x="29.66" y="44.56"><tspan x="29.66" dy="0">decide更新</tspan><tspan x="29.66" dy="0.82">existing或</tspan><tspan x="29.66" dy="0.82">generateid</tspan></text>
<line class="assoc" x1="12.00" y1="54.54" x2="13.00" y2="54.54"/>
<rect class="action" x="13.00" y="52.96" width="13.31" height="3.16" rx="0.45" ry="0.45"/>
<text class="action-label" x="19.66" y="54.13"><tspan x="19.66" dy="0">patchexisting記</tspan><tspan x="19.66" dy="0.82">錄在place</tspan></text>
<line class="assoc" x1="32.00" y1="54.54" x2="33.00" y2="54.54"/>
<rect class="action" x="33.00" y="52.96" width="13.31" height="3.16" rx="0.45" ry="0.45"/>
<text class="action-label" x="39.66" y="54.54"><tspan x="39.66" dy="0">帳號addundermutex</tspan></text>
<line class="assoc" x1="22.00" y1="63.70" x2="23.00" y2="63.70"/>
<rect class="action" x="23.00" y="62.12" width="13.31" height="3.16" rx="0.45" ry="0.45"/>
<text class="action-label" x="29.66" y="62.88"><tspan x="29.66" dy="0">normalize身</tspan><tspan x="29.66" dy="0.82">分與移除</tspan><tspan x="29.66" dy="0.82">managedapps</tspan></text>
<line class="assoc" x1="22.00" y1="70.86" x2="23.00" y2="70.86"/>
<rect class="action" x="23.00" y="69.28" width="13.31" height="3.16" rx="0.45" ry="0.45"/>
<text class="action-label" x="29.66" y="70.45"><tspan x="29.66" dy="0">發布帳號</tspan><tspan x="29.66" dy="0.82">addedbus事件</tspan></text>
<line class="assoc" x1="22.00" y1="78.02" x2="23.00" y2="78.02"/>
<rect class="action" x="23.00" y="76.44" width="13.31" height="3.16" rx="0.45" ry="0.45"/>
<text class="action-label" x="29.66" y="77.20"><tspan x="29.66" dy="0">返回帳號</tspan><tspan x="29.66" dy="0.82">記錄到</tspan><tspan x="29.66" dy="0.82">caller</tspan></text>
<line class="gate" x1="19.00" y1="9.16" x2="21.00" y2="9.16"/>
<text class="gate-label" x="21.40" y="9.16">驗證setinvoked由clitui或路由</text>
<line class="gate" x1="19.00" y1="16.32" x2="21.00" y2="16.32"/>
<text class="gate-label" x="21.40" y="16.32">family是known透過解析Provider或self</text>
<line class="gate" x1="6.00" y1="23.48" x2="34.00" y2="23.48"/>
<line class="gate" x1="8.00" y1="41.80" x2="32.00" y2="41.80"/>
<line class="gate" x1="29.00" y1="32.64" x2="31.00" y2="32.64"/>
<text class="gate-label" x="31.40" y="32.64">身分slug已解析</text>
<line class="gate" x1="6.00" y1="48.96" x2="34.00" y2="48.96"/>
<line class="gate" x1="8.00" y1="60.12" x2="32.00" y2="60.12"/>
<line class="gate" x1="19.00" y1="67.28" x2="21.00" y2="67.28"/>
<text class="gate-label" x="21.40" y="67.28">normalizereportemitted或noop</text>
<line class="gate" x1="19.00" y1="74.44" x2="21.00" y2="74.44"/>
<text class="gate-label" x="21.40" y="74.44">bus帳號addedpublished</text>
<line class="gate" x1="19.00" y1="81.60" x2="21.00" y2="81.60"/>
<text class="gate-label" x="21.40" y="81.60">caller已收到帳號id閒置again</text>
<line class="gate" x1="9.00" y1="25.48" x2="11.00" y2="25.48"/>
<text class="gate-label-left" x="8.60" y="25.48">infotypeequalsapi</text>
<line class="gate" x1="29.00" y1="25.48" x2="31.00" y2="25.48"/>
<text class="gate-label" x="31.40" y="25.48">infotypeequalsoauth</text>
<line class="gate" x1="9.00" y1="39.80" x2="11.00" y2="39.80"/>
<text class="gate-label-left" x="8.60" y="39.80">apikeydedupdone</text>
<line class="gate" x1="29.00" y1="39.80" x2="31.00" y2="39.80"/>
<text class="gate-label" x="31.40" y="39.80">oauthdedupdone</text>
<line class="gate" x1="9.00" y1="50.96" x2="11.00" y2="50.96"/>
<text class="gate-label-left" x="8.60" y="50.96">existing記錄found</text>
<line class="gate" x1="29.00" y1="50.96" x2="31.00" y2="50.96"/>
<text class="gate-label" x="31.40" y="50.96">無比對generatenewid使用suffix</text>
<line class="gate" x1="9.00" y1="58.12" x2="11.00" y2="58.12"/>
<text class="gate-label-left" x="8.60" y="58.12">帳號更新persisted</text>
<line class="gate" x1="29.00" y1="58.12" x2="31.00" y2="58.12"/>
<text class="gate-label" x="31.40" y="58.12">帳號jsonatomicwriteok</text>
</svg>