<svg xmlns="http://www.w3.org/2000/svg" width="740" height="1080" viewBox="4.00 0.00 37.00 54.00" role="img">
<style>
.step{fill:#fff;stroke:#111;stroke-width:.14}.step-inner{fill:none;stroke:#111;stroke-width:.08}
.action{fill:#fff;stroke:#111;stroke-width:.14}.gate{stroke:#111;stroke-width:.16}
.edge{fill:none;stroke:#111;stroke-width:.05;stroke-linecap:round;stroke-linejoin:round}.edge-arrow{marker-end:url(#arrow)}
.flyover-mask{stroke:#fff;stroke-width:.12;stroke-linecap:round}
.flyover{fill:none;stroke:#111;stroke-width:.05;stroke-linecap:round}
.junction{fill:#111;stroke:#111;stroke-width:0}.branch-junction{fill:#fff;stroke:#111;stroke-width:.08}
.assoc{stroke:#111;stroke-width:.05}.label{font:bold .7px 'Times New Roman', 'BiauKai', 'DFKai-SB', serif;text-anchor:middle;dominant-baseline:middle}
.action-label{font:.55px 'Times New Roman', 'BiauKai', 'DFKai-SB', serif;text-anchor:middle;dominant-baseline:middle}.gate-label{font:italic .55px 'Times New Roman', 'BiauKai', 'DFKai-SB', serif;text-anchor:start;dominant-baseline:middle}.gate-label-left{font:italic .55px 'Times New Roman', 'BiauKai', 'DFKai-SB', serif;text-anchor:end;dominant-baseline:middle}
</style>
<defs><marker id="arrow" markerWidth="0.4" markerHeight="0.4" refX="0.36" refY="0.2" orient="auto" markerUnits="userSpaceOnUse"><path d="M 0 0 L 0.4 0.2 L 0 0.4 z" fill="#111"/></marker></defs>
<rect x="4.00" y="0.00" width="37.00" height="54.00" fill="white"/>
<path class="edge" d="M 20.00 7.00 L 20.00 9.00"/>
<path class="edge edge-arrow" d="M 20.00 9.00 L 20.00 13.00"/>
<path class="edge edge-arrow" d="M 20.00 16.00 L 20.00 18.00"/>
<path class="edge edge-arrow" d="M 20.00 18.00 L 20.00 22.00"/>
<path class="edge edge-arrow" d="M 10.00 18.00 L 10.00 22.00"/>
<path class="edge edge-arrow" d="M 20.00 25.00 L 20.00 36.00"/>
<path class="edge edge-arrow" d="M 20.00 36.00 L 20.00 38.00"/>
<path class="edge" d="M 10.00 25.00 L 10.00 27.00"/>
<path class="edge edge-arrow" d="M 10.00 27.00 L 10.00 29.00"/>
<path class="edge edge-arrow" d="M 10.00 32.00 L 10.00 36.00"/>
<path class="edge edge-arrow" d="M 20.00 41.00 L 20.00 43.00"/>
<path class="edge edge-arrow" d="M 10.00 43.00 L 10.00 47.00"/>
<path class="edge edge-arrow" d="M 20.00 43.00 L 20.00 47.00"/>
<path class="edge" d="M 30.00 7.00 L 30.00 10.50 Q 30.00 11.00 29.50 11.00 L 10.00 11.00"/>
<path class="edge edge-arrow" d="M 10.00 9.00 L 10.00 13.00"/>
<rect class="step" x="18.00" y="4.00" width="4.00" height="3.00" rx="0.35" ry="0.35"/>
<rect class="step-inner" x="18.25" y="4.25" width="3.50" height="2.50" rx="0.22" ry="0.22"/>
<text class="label" x="20.00" y="5.50">1</text>
<rect class="step" x="18.00" y="13.00" width="4.00" height="3.00" rx="0.35" ry="0.35"/>
<text class="label" x="20.00" y="14.50">2</text>
<rect class="step" x="18.00" y="22.00" width="4.00" height="3.00" rx="0.35" ry="0.35"/>
<text class="label" x="20.00" y="23.50">3</text>
<rect class="step" x="8.00" y="22.00" width="4.00" height="3.00" rx="0.35" ry="0.35"/>
<text class="label" x="10.00" y="23.50">4</text>
<rect class="step" x="8.00" y="29.00" width="4.00" height="3.00" rx="0.35" ry="0.35"/>
<text class="label" x="10.00" y="30.50">5</text>
<rect class="step" x="18.00" y="38.00" width="4.00" height="3.00" rx="0.35" ry="0.35"/>
<text class="label" x="20.00" y="39.50">6</text>
<rect class="step" x="8.00" y="47.00" width="4.00" height="3.00" rx="0.35" ry="0.35"/>
<text class="label" x="10.00" y="48.50">7</text>
<rect class="step" x="18.00" y="47.00" width="4.00" height="3.00" rx="0.35" ry="0.35"/>
<text class="label" x="20.00" y="48.50">8</text>
<rect class="step" x="28.00" y="4.00" width="4.00" height="3.00" rx="0.35" ry="0.35"/>
<text class="label" x="30.00" y="5.50">10</text>
<rect class="step" x="8.00" y="13.00" width="4.00" height="3.00" rx="0.35" ry="0.35"/>
<text class="label" x="10.00" y="14.50">11</text>
<line class="assoc" x1="22.00" y1="5.50" x2="23.00" y2="5.50"/>
<rect class="action" x="23.00" y="4.07" width="4.00" height="2.86"/>
<text class="action-label" x="25.00" y="5.09"><tspan x="25.00" dy="0">è§£و‍گcanonic</tspan><tspan x="25.00" dy="0.82">alProviderkey</tspan></text>
<line class="assoc" x1="22.00" y1="14.50" x2="23.00" y2="14.50"/>
<rect class="action" x="23.00" y="13.07" width="4.00" height="2.86"/>
<text class="action-label" x="25.00" y="13.68"><tspan x="25.00" dy="0">validatecre</tspan><tspan x="25.00" dy="0.82">dentialshap</tspan><tspan x="25.00" dy="0.82">eèˆ‡branch</tspan></text>
<line class="assoc" x1="22.00" y1="23.50" x2="23.00" y2="23.50"/>
<rect class="action" x="23.00" y="22.07" width="4.00" height="2.86"/>
<text class="action-label" x="25.00" y="22.68"><tspan x="25.00" dy="0">وژƒوڈڈexis</tspan><tspan x="25.00" dy="0.82">tingن¾›api</tspan><tspan x="25.00" dy="0.82">keyو¯”ه°چ</tspan></text>
<line class="assoc" x1="12.00" y1="23.50" x2="13.00" y2="23.50"/>
<rect class="action" x="13.00" y="22.07" width="4.00" height="2.86"/>
<text class="action-label" x="15.00" y="22.68"><tspan x="15.00" dy="0">هں·è،Œè؛«هˆ†c</tspan><tspan x="15.00" dy="0.82">hainemailusern</tspan><tspan x="15.00" dy="0.82">ametokenhash</tspan></text>
<line class="assoc" x1="12.00" y1="30.50" x2="13.00" y2="30.50"/>
<rect class="action" x="13.00" y="29.07" width="4.00" height="2.86"/>
<text class="action-label" x="15.00" y="29.68"><tspan x="15.00" dy="0">dedupç”±bas</tspan><tspan x="15.00" dy="0.82">etokenوˆ–e</tspan><tspan x="15.00" dy="0.82">mailcollision</tspan></text>
<line class="assoc" x1="22.00" y1="39.50" x2="23.00" y2="39.50"/>
<rect class="action" x="23.00" y="38.07" width="4.00" height="2.86"/>
<text class="action-label" x="25.00" y="38.68"><tspan x="25.00" dy="0">decideو›´و–°</tspan><tspan x="25.00" dy="0.82">existingوˆ–</tspan><tspan x="25.00" dy="0.82">generateid</tspan></text>
<line class="assoc" x1="12.00" y1="48.50" x2="13.00" y2="48.50"/>
<rect class="action" x="13.00" y="47.07" width="4.00" height="2.86"/>
<text class="action-label" x="15.00" y="48.09"><tspan x="15.00" dy="0">patchexisting</tspan><tspan x="15.00" dy="0.82">è¨کéŒ„هœ¨place</tspan></text>
<line class="assoc" x1="22.00" y1="48.50" x2="23.00" y2="48.50"/>
<rect class="action" x="23.00" y="47.07" width="4.00" height="2.86"/>
<text class="action-label" x="25.00" y="48.09"><tspan x="25.00" dy="0">ه¸³è™ںaddu</tspan><tspan x="25.00" dy="0.82">ndermutex</tspan></text>
<line class="assoc" x1="32.00" y1="5.50" x2="33.00" y2="5.50"/>
<rect class="action" x="33.00" y="4.07" width="4.00" height="2.86"/>
<text class="action-label" x="35.00" y="5.09"><tspan x="35.00" dy="0">ç™¼ه¸ƒه¸³è™ںa</tspan><tspan x="35.00" dy="0.82">ddedbusن؛‹ن»¶</tspan></text>
<line class="assoc" x1="12.00" y1="14.50" x2="13.00" y2="14.50"/>
<rect class="action" x="13.00" y="13.07" width="4.00" height="2.86"/>
<text class="action-label" x="15.00" y="13.68"><tspan x="15.00" dy="0">è؟”ه›‍ه¸³</tspan><tspan x="15.00" dy="0.82">è™ںè¨کéŒ„</tspan><tspan x="15.00" dy="0.82">هˆ°caller</tspan></text>
<line class="gate" x1="19.00" y1="9.00" x2="21.00" y2="9.00"/>
<text class="gate-label-left" x="18.60" y="8.32"><tspan x="18.60" dy="0">familyوک¯knowné€ڈéپژè§£و‍گProviderوˆ–self</tspan></text>
<line class="gate" x1="8.00" y1="18.00" x2="22.00" y2="18.00"/>
<line class="gate" x1="8.00" y1="36.00" x2="22.00" y2="36.00"/>
<line class="gate" x1="9.00" y1="27.00" x2="11.00" y2="27.00"/>
<text class="gate-label" x="11.40" y="27.00"><tspan x="11.40" dy="0">è؛«هˆ†slugه·²è§£و‍گ</tspan></text>
<line class="gate" x1="8.00" y1="43.00" x2="22.00" y2="43.00"/>
<line class="gate" x1="9.00" y1="9.00" x2="11.00" y2="9.00"/>
<text class="gate-label" x="11.40" y="9.68"><tspan x="11.40" dy="0">busه¸³è™ںaddedpublished</tspan></text>
<line class="gate" x1="19.00" y1="20.00" x2="21.00" y2="20.00"/>
<text class="gate-label" x="21.40" y="20.00"><tspan x="21.40" dy="0">infotypeequalsapi</tspan></text>
<line class="gate" x1="9.00" y1="20.00" x2="11.00" y2="20.00"/>
<text class="gate-label-left" x="8.60" y="19.32"><tspan x="8.60" dy="0">infoty</tspan><tspan x="8.60" dy="0.68">peequa</tspan><tspan x="8.60" dy="0.68">lsoauth</tspan></text>
<line class="gate" x1="19.00" y1="34.00" x2="21.00" y2="34.00"/>
<text class="gate-label" x="21.40" y="34.00"><tspan x="21.40" dy="0">apikeydedupdone</tspan></text>
<line class="gate" x1="9.00" y1="34.00" x2="11.00" y2="34.00"/>
<text class="gate-label-left" x="8.60" y="34.00"><tspan x="8.60" dy="0">oauthdedupdone</tspan></text>
<line class="gate" x1="9.00" y1="45.00" x2="11.00" y2="45.00"/>
<text class="gate-label-left" x="8.60" y="44.32"><tspan x="8.60" dy="0">existin</tspan><tspan x="8.60" dy="0.68">gè¨کéŒ„</tspan><tspan x="8.60" dy="0.68">found</tspan></text>
<line class="gate" x1="19.00" y1="45.00" x2="21.00" y2="45.00"/>
<text class="gate-label" x="21.40" y="45.00"><tspan x="21.40" dy="0">ç„،و¯”ه°چgeneratenewidن½؟ç”¨suffix</tspan></text>
<circle class="junction" cx="10.00" cy="11.00" r="0.22"/>
</svg>