<svg xmlns="http://www.w3.org/2000/svg" width="566" height="680" viewBox="4.00 0.00 28.32 34.00" role="img">
<style>
.step{fill:#fff;stroke:#111;stroke-width:.14}.step-inner{fill:none;stroke:#111;stroke-width:.08}
.action{fill:#fff;stroke:#111;stroke-width:.14}.gate{stroke:#111;stroke-width:.16}
.edge{fill:none;stroke:#111;stroke-width:.05;stroke-linecap:round;stroke-linejoin:round}.edge-arrow{marker-end:url(#arrow)}
.flyover-mask{stroke:#fff;stroke-width:.12;stroke-linecap:round}
.flyover{fill:none;stroke:#111;stroke-width:.05;stroke-linecap:round}
.junction{fill:#111;stroke:#111;stroke-width:0}.branch-junction{fill:#fff;stroke:#111;stroke-width:.08}
.assoc{stroke:#111;stroke-width:.05}.label{font:bold .7px 'Times New Roman', 'BiauKai', 'DFKai-SB', serif;text-anchor:middle;dominant-baseline:middle}
.action-label{font:.55px 'Times New Roman', 'BiauKai', 'DFKai-SB', serif;text-anchor:middle;dominant-baseline:middle}.gate-label{font:italic .55px 'Times New Roman', 'BiauKai', 'DFKai-SB', serif;text-anchor:start;dominant-baseline:middle}.gate-label-left{font:italic .55px 'Times New Roman', 'BiauKai', 'DFKai-SB', serif;text-anchor:end;dominant-baseline:middle}
</style>
<defs><marker id="arrow" markerWidth="0.4" markerHeight="0.4" refX="0.36" refY="0.2" orient="auto" markerUnits="userSpaceOnUse"><path d="M 0 0 L 0.4 0.2 L 0 0.4 z" fill="#111"/></marker></defs>
<rect x="4.00" y="0.00" width="28.32" height="34.00" fill="white"/>
<path class="edge" d="M 20.66 7.00 L 20.66 9.00"/>
<path class="edge edge-arrow" d="M 20.66 9.00 L 20.66 11.00"/>
<path class="edge edge-arrow" d="M 20.66 14.00 L 20.66 16.00"/>
<path class="edge edge-arrow" d="M 20.66 16.00 L 20.66 20.00"/>
<path class="edge edge-arrow" d="M 10.00 16.00 L 10.00 20.00"/>
<path class="edge" d="M 20.66 23.00 L 20.66 25.00"/>
<path class="edge edge-arrow" d="M 20.66 25.00 L 20.66 27.00"/>
<rect class="step" x="18.66" y="4.00" width="4.00" height="3.00" rx="0.35" ry="0.35"/>
<rect class="step-inner" x="18.91" y="4.25" width="3.50" height="2.50" rx="0.22" ry="0.22"/>
<text class="label" x="20.66" y="5.50">0</text>
<rect class="step" x="18.66" y="11.00" width="4.00" height="3.00" rx="0.35" ry="0.35"/>
<text class="label" x="20.66" y="12.50">1</text>
<rect class="step" x="18.66" y="20.00" width="4.00" height="3.00" rx="0.35" ry="0.35"/>
<text class="label" x="20.66" y="21.50">2</text>
<rect class="step" x="18.66" y="27.00" width="4.00" height="3.00" rx="0.35" ry="0.35"/>
<text class="label" x="20.66" y="28.50">3</text>
<rect class="step" x="8.00" y="20.00" width="4.00" height="3.00" rx="0.35" ry="0.35"/>
<text class="label" x="10.00" y="21.50">4</text>
<line class="assoc" x1="22.66" y1="5.50" x2="23.66" y2="5.50"/>
<rect class="action" x="23.66" y="4.07" width="4.66" height="2.86"/>
<text class="action-label" x="25.99" y="5.09"><tspan x="25.99" dy="0">Collect Baselin</tspan><tspan x="25.99" dy="0.82">e Delta Metrics</tspan></text>
<line class="assoc" x1="22.66" y1="12.50" x2="23.66" y2="12.50"/>
<rect class="action" x="23.66" y="11.07" width="4.66" height="2.86"/>
<text class="action-label" x="25.99" y="12.09"><tspan x="25.99" dy="0">Rewrite Runtime</tspan><tspan x="25.99" dy="0.82">Delta Transport</tspan></text>
<line class="assoc" x1="22.66" y1="21.50" x2="23.66" y2="21.50"/>
<rect class="action" x="23.66" y="20.07" width="4.66" height="2.86"/>
<text class="action-label" x="25.99" y="20.68"><tspan x="25.99" dy="0">Migrate Web</tspan><tspan x="25.99" dy="0.82">TUI 與 Bridg</tspan><tspan x="25.99" dy="0.82">e Consumers</tspan></text>
<line class="assoc" x1="22.66" y1="28.50" x2="23.66" y2="28.50"/>
<rect class="action" x="23.66" y="27.07" width="4.66" height="2.86"/>
<text class="action-label" x="25.99" y="27.68"><tspan x="25.99" dy="0">Validate Payload R</tspan><tspan x="25.99" dy="0.82">eduction 與 Rend</tspan><tspan x="25.99" dy="0.82">ering Correctness</tspan></text>
<line class="assoc" x1="12.00" y1="21.50" x2="13.00" y2="21.50"/>
<rect class="action" x="13.00" y="20.07" width="4.66" height="2.86"/>
<text class="action-label" x="15.33" y="20.68"><tspan x="15.33" dy="0">返回 到 Pla</tspan><tspan x="15.33" dy="0.82">nning 供 Scop</tspan><tspan x="15.33" dy="0.82">e Adjustment</tspan></text>
<line class="gate" x1="19.66" y1="9.00" x2="21.66" y2="9.00"/>
<text class="gate-label" x="22.06" y="9.00"><tspan x="22.06" dy="0">baseline instrumentation 是 added</tspan></text>
<line class="gate" x1="8.00" y1="16.00" x2="22.66" y2="16.00"/>
<line class="gate" x1="19.66" y1="25.00" x2="21.66" y2="25.00"/>
<text class="gate-label" x="22.06" y="25.00"><tspan x="22.06" dy="0">delta aware 事件 contract 是 stable</tspan></text>
<line class="gate" x1="19.66" y1="18.00" x2="21.66" y2="18.00"/>
<text class="gate-label" x="22.06" y="17.32"><tspan x="22.06" dy="0">baseline confir</tspan><tspan x="22.06" dy="0.68">ms 輸出 fan</tspan><tspan x="22.06" dy="0.68">out dominates</tspan></text>
<line class="gate" x1="9.00" y1="18.00" x2="11.00" y2="18.00"/>
<text class="gate-label-left" x="8.60" y="17.32"><tspan x="8.60" dy="0">baseline r</tspan><tspan x="8.60" dy="0.68">equires sc</tspan><tspan x="8.60" dy="0.68">ope replan</tspan></text>
</svg>