<svg xmlns="http://www.w3.org/2000/svg" width="633" height="1020" viewBox="0.00 -2.00 31.66 51.00" role="img">
<style>
.step{fill:#fff;stroke:#111;stroke-width:.14}.step-inner{fill:none;stroke:#111;stroke-width:.08}
.action{fill:#fff;stroke:#111;stroke-width:.14}.gate{stroke:#111;stroke-width:.16}
.edge{fill:none;stroke:#111;stroke-width:.05;stroke-linecap:round;stroke-linejoin:round}.edge-arrow{marker-end:url(#arrow)}
.flyover-mask{stroke:#fff;stroke-width:.12;stroke-linecap:round}
.flyover{fill:none;stroke:#111;stroke-width:.05;stroke-linecap:round}
.junction{fill:#111;stroke:#111;stroke-width:0}.branch-junction{fill:#fff;stroke:#111;stroke-width:.08}
.assoc{stroke:#111;stroke-width:.05}.label{font:bold .7px 'Times New Roman', 'BiauKai', 'DFKai-SB', serif;text-anchor:middle;dominant-baseline:middle}
.action-label{font:.55px 'Times New Roman', 'BiauKai', 'DFKai-SB', serif;text-anchor:middle;dominant-baseline:middle}.gate-label{font:italic .55px 'Times New Roman', 'BiauKai', 'DFKai-SB', serif;text-anchor:start;dominant-baseline:middle}.gate-label-left{font:italic .55px 'Times New Roman', 'BiauKai', 'DFKai-SB', serif;text-anchor:end;dominant-baseline:middle}
</style>
<defs><marker id="arrow" markerWidth="0.4" markerHeight="0.4" refX="0.36" refY="0.2" orient="auto" markerUnits="userSpaceOnUse"><path d="M 0 0 L 0.4 0.2 L 0 0.4 z" fill="#111"/></marker></defs>
<rect x="0.00" y="-2.00" width="31.66" height="51.00" fill="white"/>
<path class="edge" d="M 20.33 7.00 L 20.33 9.00"/>
<path class="edge edge-arrow" d="M 20.33 9.00 L 20.33 11.00"/>
<path class="edge edge-arrow" d="M 20.33 14.00 L 20.33 16.00"/>
<path class="edge edge-arrow" d="M 10.00 16.00 L 10.00 20.00"/>
<path class="edge edge-arrow" d="M 20.33 16.00 L 20.33 20.00"/>
<path class="edge edge-arrow" d="M 10.00 23.00 L 10.00 35.00"/>
<path class="edge edge-arrow" d="M 20.33 35.00 L 20.33 31.00"/>
<path class="edge" d="M 20.33 35.00 L 20.33 36.00"/>
<path class="edge edge-arrow" d="M 20.33 36.00 L 20.33 38.00"/>
<path class="edge" d="M 20.33 41.00 L 20.33 43.00"/>
<path class="edge edge-arrow" d="M 20.33 43.00 L 20.33 44.50 Q 20.33 45.00 19.83 45.00 L 4.50 45.00 Q 4.00 45.00 4.00 44.50 L 4.00 2.50 Q 4.00 2.00 4.50 2.00 L 19.83 2.00 Q 20.33 2.00 20.33 2.50 L 20.33 4.00"/>
<path class="edge" d="M 20.33 23.00 L 20.33 31.00"/>
<rect class="step" x="18.33" y="4.00" width="4.00" height="3.00" rx="0.35" ry="0.35"/>
<rect class="step-inner" x="18.58" y="4.25" width="3.50" height="2.50" rx="0.22" ry="0.22"/>
<text class="label" x="20.33" y="5.50">0</text>
<rect class="step" x="18.33" y="11.00" width="4.00" height="3.00" rx="0.35" ry="0.35"/>
<text class="label" x="20.33" y="12.50">1</text>
<rect class="step" x="8.00" y="20.00" width="4.00" height="3.00" rx="0.35" ry="0.35"/>
<text class="label" x="10.00" y="21.50">2</text>
<rect class="step" x="18.33" y="31.00" width="4.00" height="3.00" rx="0.35" ry="0.35"/>
<text class="label" x="20.33" y="32.50">3</text>
<rect class="step" x="18.33" y="38.00" width="4.00" height="3.00" rx="0.35" ry="0.35"/>
<text class="label" x="20.33" y="39.50">4</text>
<rect class="step" x="18.33" y="20.00" width="4.00" height="3.00" rx="0.35" ry="0.35"/>
<text class="label" x="20.33" y="21.50">5</text>
<line class="assoc" x1="22.33" y1="5.50" x2="23.33" y2="5.50"/>
<rect class="action" x="23.33" y="4.07" width="4.33" height="2.86"/>
<text class="action-label" x="25.49" y="5.09"><tspan x="25.49" dy="0">Confirm Lifec</tspan><tspan x="25.49" dy="0.82">ycle Decisions</tspan></text>
<line class="assoc" x1="22.33" y1="12.50" x2="23.33" y2="12.50"/>
<rect class="action" x="23.33" y="11.07" width="4.33" height="2.86"/>
<text class="action-label" x="25.49" y="12.09"><tspan x="25.49" dy="0">Refactor Planne</tspan><tspan x="25.49" dy="0.82">r Runtime 路徑</tspan></text>
<line class="assoc" x1="12.00" y1="21.50" x2="13.00" y2="21.50"/>
<rect class="action" x="13.00" y="20.07" width="4.33" height="2.86"/>
<text class="action-label" x="15.16" y="20.68"><tspan x="15.16" dy="0">Rewrite 提</tspan><tspan x="15.16" dy="0.82">示 與 技能</tspan><tspan x="15.16" dy="0.82">Contracts</tspan></text>
<line class="assoc" x1="22.33" y1="32.50" x2="23.33" y2="32.50"/>
<rect class="action" x="23.33" y="31.07" width="4.33" height="2.86"/>
<text class="action-label" x="25.49" y="31.68"><tspan x="25.49" dy="0">Validate 規劃 C</tspan><tspan x="25.49" dy="0.82">ompleteness 與</tspan><tspan x="25.49" dy="0.82">建置 Readiness</tspan></text>
<line class="assoc" x1="22.33" y1="39.50" x2="23.33" y2="39.50"/>
<rect class="action" x="23.33" y="38.07" width="4.33" height="2.86"/>
<text class="action-label" x="25.49" y="39.09"><tspan x="25.49" dy="0">等待 建置</tspan><tspan x="25.49" dy="0.82">Mode Approval</tspan></text>
<line class="assoc" x1="22.33" y1="21.50" x2="23.33" y2="21.50"/>
<rect class="action" x="23.33" y="20.07" width="4.33" height="2.86"/>
<text class="action-label" x="25.49" y="20.68"><tspan x="25.49" dy="0">Stop 供 Le</tspan><tspan x="25.49" dy="0.82">gacy Eviden</tspan><tspan x="25.49" dy="0.82">ce Decision</tspan></text>
<line class="gate" x1="19.33" y1="9.00" x2="21.33" y2="9.00"/>
<text class="gate-label" x="21.73" y="9.00"><tspan x="21.73" dy="0">規劃started</tspan></text>
<line class="gate" x1="8.00" y1="16.00" x2="22.33" y2="16.00"/>
<line class="gate" x1="8.00" y1="35.00" x2="22.33" y2="35.00"/>
<line class="gate" x1="19.33" y1="36.00" x2="21.33" y2="36.00"/>
<text class="gate-label" x="21.73" y="36.00"><tspan x="21.73" dy="0">contractsaligned</tspan></text>
<line class="gate" x1="19.33" y1="43.00" x2="21.33" y2="43.00"/>
<text class="gate-label" x="21.73" y="43.00"><tspan x="21.73" dy="0">規劃exitconfirmed</tspan></text>
<line class="gate" x1="9.00" y1="18.00" x2="11.00" y2="18.00"/>
<text class="gate-label-left" x="8.60" y="17.32"><tspan x="8.60" dy="0">runtime</tspan><tspan x="8.60" dy="0.68">contrac</tspan><tspan x="8.60" dy="0.68">tdefined</tspan></text>
<line class="gate" x1="19.33" y1="18.00" x2="21.33" y2="18.00"/>
<text class="gate-label" x="21.73" y="18.00"><tspan x="21.73" dy="0">legacyruleambiguous</tspan></text>
<line class="gate" x1="9.00" y1="27.00" x2="11.00" y2="27.00"/>
<text class="gate-label-left" x="8.60" y="26.32"><tspan x="8.60" dy="0">runtime</tspan><tspan x="8.60" dy="0.68">refacto</tspan><tspan x="8.60" dy="0.68">r完成</tspan></text>
<line class="gate" x1="19.33" y1="27.00" x2="21.33" y2="27.00"/>
<text class="gate-label" x="21.73" y="27.00"><tspan x="21.73" dy="0">legacytriage已解析</tspan></text>
</svg>