<svg xmlns="http://www.w3.org/2000/svg" width="979" height="1647" viewBox="-2.00 -1.92 48.95 82.36" role="img">
<style>
.step{fill:#fff;stroke:#111;stroke-width:.14}.step-inner{fill:none;stroke:#111;stroke-width:.08}
.action{fill:#fff;stroke:#111;stroke-width:.14}.gate{stroke:#111;stroke-width:.16}
.edge{fill:none;stroke:#111;stroke-width:.05;stroke-linecap:round;stroke-linejoin:round}.edge-arrow{marker-end:url(#arrow)}
.flyover-mask{stroke:#fff;stroke-width:.12;stroke-linecap:round}
.flyover{fill:none;stroke:#111;stroke-width:.05;stroke-linecap:round}
.junction{fill:#111;stroke:#111;stroke-width:0}
.assoc{stroke:#111;stroke-width:.05}.label{font:bold .7px 'Times New Roman', 'BiauKai', 'DFKai-SB', serif;text-anchor:middle;dominant-baseline:middle}
.action-label{font:.55px 'Times New Roman', 'BiauKai', 'DFKai-SB', serif;text-anchor:middle;dominant-baseline:middle}.gate-label{font:italic .55px 'Times New Roman', 'BiauKai', 'DFKai-SB', serif;text-anchor:start;dominant-baseline:middle}.gate-label-left{font:italic .55px 'Times New Roman', 'BiauKai', 'DFKai-SB', serif;text-anchor:end;dominant-baseline:middle}
</style>
<defs><marker id="arrow" markerWidth="0.4" markerHeight="0.4" refX="0.36" refY="0.2" orient="auto" markerUnits="userSpaceOnUse"><path d="M 0 0 L 0.4 0.2 L 0 0.4 z" fill="#111"/></marker></defs>
<rect x="-2.00" y="-1.92" width="48.95" height="82.36" fill="white"/>
<path class="edge" d="M 20.00 7.08 L 20.00 9.16"/>
<path class="edge edge-arrow" d="M 20.00 9.16 L 20.00 11.24"/>
<path class="edge" d="M 20.00 14.24 L 20.00 16.32"/>
<path class="edge edge-arrow" d="M 20.00 16.32 L 20.00 18.40"/>
<path class="edge" d="M 20.00 21.40 L 20.00 23.48"/>
<path class="edge edge-arrow" d="M 20.00 23.48 L 20.00 25.56"/>
<path class="edge" d="M 20.00 28.56 L 20.00 30.64"/>
<path class="edge edge-arrow" d="M 10.00 30.64 L 10.00 32.14 Q 10.00 32.64 10.00 33.14 L 10.00 34.72"/>
<path class="edge edge-arrow" d="M 20.00 30.64 L 20.00 32.14 Q 20.00 32.64 20.00 33.14 L 20.00 34.72"/>
<path class="edge edge-arrow" d="M 30.00 30.64 L 30.00 32.14 Q 30.00 32.64 30.00 33.14 L 30.00 34.72"/>
<path class="edge" d="M 10.00 37.72 L 10.00 41.80"/>
<path class="edge edge-arrow" d="M 20.00 41.80 L 20.00 43.88"/>
<path class="edge" d="M 20.00 37.72 L 20.00 41.80"/>
<path class="edge" d="M 30.00 37.72 L 30.00 41.80"/>
<path class="edge" d="M 20.00 46.88 L 20.00 48.96"/>
<path class="edge edge-arrow" d="M 10.00 48.96 L 10.00 50.46 Q 10.00 50.96 10.00 51.46 L 10.00 53.04"/>
<path class="edge edge-arrow" d="M 30.00 48.96 L 30.00 50.46 Q 30.00 50.96 30.00 51.46 L 30.00 53.04"/>
<path class="edge" d="M 10.00 56.04 L 10.00 60.12"/>
<path class="edge edge-arrow" d="M 20.00 60.12 L 20.00 62.20"/>
<path class="edge" d="M 30.00 56.04 L 30.00 60.12"/>
<path class="edge" d="M 20.00 65.20 L 20.00 67.28"/>
<path class="edge edge-arrow" d="M 20.00 67.28 L 20.00 69.36"/>
<path class="edge" d="M 20.00 72.36 L 20.00 74.44"/>
<path class="edge edge-arrow" d="M 20.00 74.44 L 20.00 75.94 Q 20.00 76.44 19.50 76.44 L 2.50 76.44 Q 2.00 76.44 2.00 75.94 L 2.00 2.58 Q 2.00 2.08 2.50 2.08 L 19.50 2.08 Q 20.00 2.08 20.00 2.58 L 20.00 4.08"/>
<rect class="step" x="18.00" y="4.08" width="4.00" height="3.00"/>
<rect class="step-inner" x="18.25" y="4.33" width="3.50" height="2.50"/>
<text class="label" x="20.00" y="5.58">0</text>
<rect class="step" x="18.00" y="11.24" width="4.00" height="3.00"/>
<text class="label" x="20.00" y="12.74">1</text>
<rect class="step" x="18.00" y="18.40" width="4.00" height="3.00"/>
<text class="label" x="20.00" y="19.90">2</text>
<rect class="step" x="18.00" y="25.56" width="4.00" height="3.00"/>
<text class="label" x="20.00" y="27.06">3</text>
<rect class="step" x="8.00" y="34.72" width="4.00" height="3.00"/>
<text class="label" x="10.00" y="36.22">4</text>
<rect class="step" x="18.00" y="34.72" width="4.00" height="3.00"/>
<text class="label" x="20.00" y="36.22">5</text>
<rect class="step" x="28.00" y="34.72" width="4.00" height="3.00"/>
<text class="label" x="30.00" y="36.22">6</text>
<rect class="step" x="18.00" y="43.88" width="4.00" height="3.00"/>
<text class="label" x="20.00" y="45.38">7</text>
<rect class="step" x="8.00" y="53.04" width="4.00" height="3.00"/>
<text class="label" x="10.00" y="54.54">8</text>
<rect class="step" x="28.00" y="53.04" width="4.00" height="3.00"/>
<text class="label" x="30.00" y="54.54">9</text>
<rect class="step" x="18.00" y="62.20" width="4.00" height="3.00"/>
<text class="label" x="20.00" y="63.70">10</text>
<rect class="step" x="18.00" y="69.36" width="4.00" height="3.00"/>
<text class="label" x="20.00" y="70.86">11</text>
<line class="assoc" x1="22.00" y1="5.58" x2="23.00" y2="5.58"/>
<rect class="action" x="23.00" y="4.00" width="9.95" height="3.16" rx="0.45" ry="0.45"/>
<text class="action-label" x="27.98" y="4.76"><tspan x="27.98" dy="0">з®ЎзҗҶ</tspan><tspan x="27.98" dy="0.82">йқўжқҝ</tspan><tspan x="27.98" dy="0.82">й–’зҪ®</tspan></text>
<line class="assoc" x1="22.00" y1="12.74" x2="23.00" y2="12.74"/>
<rect class="action" x="23.00" y="11.16" width="9.95" height="3.16" rx="0.45" ry="0.45"/>
<text class="action-label" x="27.98" y="12.74"><tspan x="27.98" dy="0">fetchmarketcatalog</tspan></text>
<line class="assoc" x1="22.00" y1="19.90" x2="23.00" y2="19.90"/>
<rect class="action" x="23.00" y="18.32" width="9.95" height="3.16" rx="0.45" ry="0.45"/>
<text class="action-label" x="27.98" y="19.90"><tspan x="27.98" dy="0">жёІжҹ“unifiedcardgrid</tspan></text>
<line class="assoc" x1="22.00" y1="27.06" x2="23.00" y2="27.06"/>
<rect class="action" x="23.00" y="25.48" width="9.95" height="3.16" rx="0.45" ry="0.45"/>
<text class="action-label" x="27.98" y="27.06"><tspan x="27.98" dy="0">classifykindbranch</tspan></text>
<line class="assoc" x1="12.00" y1="36.22" x2="13.00" y2="36.22"/>
<rect class="action" x="13.00" y="34.64" width="9.95" height="3.16" rx="0.45" ry="0.45"/>
<text class="action-label" x="17.98" y="36.22"><tspan x="17.98" dy="0">connectmcpдјәжңҚеҷЁ</tspan></text>
<line class="assoc" x1="22.00" y1="36.22" x2="23.00" y2="36.22"/>
<rect class="action" x="23.00" y="34.64" width="9.95" height="3.16" rx="0.45" ry="0.45"/>
<text class="action-label" x="27.98" y="36.22"><tspan x="27.98" dy="0">installmanagedapp</tspan></text>
<line class="assoc" x1="32.00" y1="36.22" x2="33.00" y2="36.22"/>
<rect class="action" x="33.00" y="34.64" width="9.95" height="3.16" rx="0.45" ry="0.45"/>
<text class="action-label" x="37.98" y="35.81"><tspan x="37.98" dy="0">previewиҲҮиЁ»</tspan><tspan x="37.98" dy="0.82">еҶҠstoreapp</tspan></text>
<line class="assoc" x1="22.00" y1="45.38" x2="23.00" y2="45.38"/>
<rect class="action" x="23.00" y="43.80" width="9.95" height="3.16" rx="0.45" ry="0.45"/>
<text class="action-label" x="27.98" y="45.38"><tspan x="27.98" dy="0">configureappsettings</tspan></text>
<line class="assoc" x1="12.00" y1="54.54" x2="13.00" y2="54.54"/>
<rect class="action" x="13.00" y="52.96" width="9.95" height="3.16" rx="0.45" ry="0.45"/>
<text class="action-label" x="17.98" y="54.54"><tspan x="17.98" dy="0">authorizeoauthpopup</tspan></text>
<line class="assoc" x1="32.00" y1="54.54" x2="33.00" y2="54.54"/>
<rect class="action" x="33.00" y="52.96" width="9.95" height="3.16" rx="0.45" ry="0.45"/>
<text class="action-label" x="37.98" y="54.54"><tspan x="37.98" dy="0">enableappdirectly</tspan></text>
<line class="assoc" x1="22.00" y1="63.70" x2="23.00" y2="63.70"/>
<rect class="action" x="23.00" y="62.12" width="9.95" height="3.16" rx="0.45" ry="0.45"/>
<text class="action-label" x="27.98" y="62.88"><tspan x="27.98" dy="0">refetchиҲҮ</tspan><tspan x="27.98" dy="0.82">showзӢҖж…Ӣ</tspan><tspan x="27.98" dy="0.82">pill</tspan></text>
<line class="assoc" x1="22.00" y1="70.86" x2="23.00" y2="70.86"/>
<rect class="action" x="23.00" y="69.28" width="9.95" height="3.16" rx="0.45" ry="0.45"/>
<text class="action-label" x="27.98" y="70.45"><tspan x="27.98" dy="0">waitжҲ–</tspan><tspan x="27.98" dy="0.82">uninstall</tspan></text>
<line class="gate" x1="19.00" y1="9.16" x2="21.00" y2="9.16"/>
<text class="gate-label" x="21.40" y="9.16">operatoropensе°Қи©ұжЎҶappmarketдҫҶиҮӘlayoutl1065</text>
<line class="gate" x1="19.00" y1="16.32" x2="21.00" y2="16.32"/>
<text class="gate-label" x="21.40" y="16.32">GET mcpmarketreturnedMarketApparray</text>
<line class="gate" x1="19.00" y1="23.48" x2="21.00" y2="23.48"/>
<text class="gate-label" x="21.40" y="23.48">operatorselectsappжҲ–clicksadd</text>
<line class="gate" x1="6.00" y1="30.64" x2="34.00" y2="30.64"/>
<line class="gate" x1="8.00" y1="41.80" x2="32.00" y2="41.80"/>
<line class="gate" x1="6.00" y1="48.96" x2="34.00" y2="48.96"/>
<line class="gate" x1="8.00" y1="60.12" x2="32.00" y2="60.12"/>
<line class="gate" x1="19.00" y1="67.28" x2="21.00" y2="67.28"/>
<text class="gate-label" x="21.40" y="67.28">зӢҖж…ӢpillеңЁ{connected,е°ұз·’,е·Іе•ҹз”Ё}</text>
<line class="gate" x1="19.00" y1="74.44" x2="21.00" y2="74.44"/>
<text class="gate-label" x="21.40" y="74.44">е°Қи©ұжЎҶclosedжҲ–uninstallе·Іе®ҢжҲҗ</text>
<line class="gate" x1="9.00" y1="32.64" x2="11.00" y2="32.64"/>
<text class="gate-label-left" x="8.60" y="32.64">kind==mcpдјәжңҚеҷЁ</text>
<line class="gate" x1="19.00" y1="32.64" x2="21.00" y2="32.64"/>
<text class="gate-label" x="21.40" y="32.64">kind==managedapp</text>
<line class="gate" x1="29.00" y1="32.64" x2="31.00" y2="32.64"/>
<text class="gate-label" x="31.40" y="32.64">kind==mcpapp</text>
<line class="gate" x1="9.00" y1="39.80" x2="11.00" y2="39.80"/>
<text class="gate-label-left" x="8.60" y="39.80">дјәжңҚеҷЁзӢҖж…Ӣconnected</text>
<line class="gate" x1="19.00" y1="39.80" x2="21.00" y2="39.80"/>
<text class="gate-label" x="21.40" y="39.80">managedappinstallsucceededAND runtimeзӢҖж…Ӣset</text>
<line class="gate" x1="29.00" y1="39.80" x2="31.00" y2="39.80"/>
<text class="gate-label" x="31.40" y="39.80">previewokAND addappжҲ–cloneиҲҮиЁ»еҶҠpersisted</text>
<line class="gate" x1="9.00" y1="50.96" x2="11.00" y2="50.96"/>
<text class="gate-label-left" x="8.60" y="50.96">needsoauth==true</text>
<line class="gate" x1="29.00" y1="50.96" x2="31.00" y2="50.96"/>
<text class="gate-label" x="31.40" y="50.96">needsoauth==false</text>
<line class="gate" x1="9.00" y1="58.12" x2="11.00" y2="58.12"/>
<text class="gate-label-left" x="8.60" y="58.12">oauthcallbackpersistedtokenAND managedappupdatedemitted</text>
<line class="gate" x1="29.00" y1="58.12" x2="31.00" y2="58.12"/>
<text class="gate-label" x="31.40" y="58.12">е·Іе•ҹз”Ёflagsettrue</text>
</svg>