<svg xmlns="http://www.w3.org/2000/svg" width="790" height="1620" viewBox="-2.00 -2.00 39.52 81.00" role="img">
<style>
.step{fill:#fff;stroke:#111;stroke-width:.14}.step-inner{fill:none;stroke:#111;stroke-width:.08}
.action{fill:#fff;stroke:#111;stroke-width:.14}.gate{stroke:#111;stroke-width:.16}
.edge{fill:none;stroke:#111;stroke-width:.05;stroke-linecap:round;stroke-linejoin:round}.edge-arrow{marker-end:url(#arrow)}
.flyover-mask{stroke:#fff;stroke-width:.12;stroke-linecap:round}
.flyover{fill:none;stroke:#111;stroke-width:.05;stroke-linecap:round}
.junction{fill:#111;stroke:#111;stroke-width:0}.branch-junction{fill:#fff;stroke:#111;stroke-width:.08}
.assoc{stroke:#111;stroke-width:.05}.label{font:bold .7px 'Times New Roman', 'BiauKai', 'DFKai-SB', serif;text-anchor:middle;dominant-baseline:middle}
.action-label{font:.55px 'Times New Roman', 'BiauKai', 'DFKai-SB', serif;text-anchor:middle;dominant-baseline:middle}.gate-label{font:italic .55px 'Times New Roman', 'BiauKai', 'DFKai-SB', serif;text-anchor:start;dominant-baseline:middle}.gate-label-left{font:italic .55px 'Times New Roman', 'BiauKai', 'DFKai-SB', serif;text-anchor:end;dominant-baseline:middle}
</style>
<defs><marker id="arrow" markerWidth="0.4" markerHeight="0.4" refX="0.36" refY="0.2" orient="auto" markerUnits="userSpaceOnUse"><path d="M 0 0 L 0.4 0.2 L 0 0.4 z" fill="#111"/></marker></defs>
<rect x="-2.00" y="-2.00" width="39.52" height="81.00" fill="white"/>
<path class="edge" d="M 18.84 7.00 L 18.84 9.00"/>
<path class="edge edge-arrow" d="M 18.84 9.00 L 18.84 11.00"/>
<path class="edge" d="M 18.84 14.00 L 18.84 16.00"/>
<path class="edge edge-arrow" d="M 18.84 16.00 L 18.84 18.00"/>
<path class="edge" d="M 18.84 21.00 L 18.84 23.00"/>
<path class="edge edge-arrow" d="M 18.84 23.00 L 18.84 25.00"/>
<path class="edge edge-arrow" d="M 18.84 28.00 L 18.84 30.00"/>
<path class="edge edge-arrow" d="M 10.00 30.00 L 10.00 34.00"/>
<path class="edge edge-arrow" d="M 18.84 30.00 L 18.84 34.00"/>
<path class="edge edge-arrow" d="M 27.68 30.00 L 27.68 34.00"/>
<path class="edge edge-arrow" d="M 10.00 37.00 L 10.00 41.00"/>
<path class="edge edge-arrow" d="M 18.84 41.00 L 18.84 43.00"/>
<path class="edge edge-arrow" d="M 18.84 37.00 L 18.84 41.00"/>
<path class="edge edge-arrow" d="M 27.68 37.00 L 27.68 41.00"/>
<path class="edge edge-arrow" d="M 18.84 46.00 L 18.84 48.00"/>
<path class="edge edge-arrow" d="M 10.00 48.00 L 10.00 52.00"/>
<path class="edge edge-arrow" d="M 18.84 48.00 L 18.84 52.00"/>
<path class="edge edge-arrow" d="M 10.00 55.00 L 10.00 59.00"/>
<path class="edge edge-arrow" d="M 18.84 59.00 L 18.84 61.00"/>
<path class="edge edge-arrow" d="M 18.84 55.00 L 18.84 59.00"/>
<path class="edge" d="M 18.84 64.00 L 18.84 66.00"/>
<path class="edge edge-arrow" d="M 18.84 66.00 L 18.84 68.00"/>
<path class="edge" d="M 18.84 71.00 L 18.84 73.00"/>
<path class="edge edge-arrow" d="M 18.84 73.00 L 18.84 74.50 Q 18.84 75.00 18.34 75.00 L 2.50 75.00 Q 2.00 75.00 2.00 74.50 L 2.00 2.50 Q 2.00 2.00 2.50 2.00 L 18.34 2.00 Q 18.84 2.00 18.84 2.50 L 18.84 4.00"/>
<rect class="step" x="16.84" y="4.00" width="4.00" height="3.00"/>
<rect class="step-inner" x="17.09" y="4.25" width="3.50" height="2.50"/>
<text class="label" x="18.84" y="5.50">0</text>
<rect class="step" x="16.84" y="11.00" width="4.00" height="3.00"/>
<text class="label" x="18.84" y="12.50">1</text>
<rect class="step" x="16.84" y="18.00" width="4.00" height="3.00"/>
<text class="label" x="18.84" y="19.50">2</text>
<rect class="step" x="16.84" y="25.00" width="4.00" height="3.00"/>
<text class="label" x="18.84" y="26.50">3</text>
<rect class="step" x="8.00" y="34.00" width="4.00" height="3.00"/>
<text class="label" x="10.00" y="35.50">4</text>
<rect class="step" x="16.84" y="34.00" width="4.00" height="3.00"/>
<text class="label" x="18.84" y="35.50">5</text>
<rect class="step" x="25.68" y="34.00" width="4.00" height="3.00"/>
<text class="label" x="27.68" y="35.50">6</text>
<rect class="step" x="16.84" y="43.00" width="4.00" height="3.00"/>
<text class="label" x="18.84" y="44.50">7</text>
<rect class="step" x="8.00" y="52.00" width="4.00" height="3.00"/>
<text class="label" x="10.00" y="53.50">8</text>
<rect class="step" x="16.84" y="52.00" width="4.00" height="3.00"/>
<text class="label" x="18.84" y="53.50">9</text>
<rect class="step" x="16.84" y="61.00" width="4.00" height="3.00"/>
<text class="label" x="18.84" y="62.50">10</text>
<rect class="step" x="16.84" y="68.00" width="4.00" height="3.00"/>
<text class="label" x="18.84" y="69.50">11</text>
<line class="assoc" x1="20.84" y1="5.50" x2="21.84" y2="5.50"/>
<rect class="action" x="21.84" y="4.07" width="2.84" height="2.86" rx="0.45" ry="0.45"/>
<text class="action-label" x="23.26" y="5.09"><tspan x="23.26" dy="0">管理面</tspan><tspan x="23.26" dy="0.82">板閒置</tspan></text>
<line class="assoc" x1="20.84" y1="12.50" x2="21.84" y2="12.50"/>
<rect class="action" x="21.84" y="11.07" width="2.84" height="2.86" rx="0.45" ry="0.45"/>
<text class="action-label" x="23.26" y="12.09"><tspan x="23.26" dy="0">fetchmark</tspan><tspan x="23.26" dy="0.82">etcatalog</tspan></text>
<line class="assoc" x1="20.84" y1="19.50" x2="21.84" y2="19.50"/>
<rect class="action" x="21.84" y="18.07" width="2.84" height="2.86" rx="0.45" ry="0.45"/>
<text class="action-label" x="23.26" y="18.68"><tspan x="23.26" dy="0">渲染</tspan><tspan x="23.26" dy="0.82">unified</tspan><tspan x="23.26" dy="0.82">cardgrid</tspan></text>
<line class="assoc" x1="20.84" y1="26.50" x2="21.84" y2="26.50"/>
<rect class="action" x="21.84" y="25.07" width="2.84" height="2.86" rx="0.45" ry="0.45"/>
<text class="action-label" x="23.26" y="26.09"><tspan x="23.26" dy="0">classifyk</tspan><tspan x="23.26" dy="0.82">indbranch</tspan></text>
<line class="assoc" x1="12.00" y1="35.50" x2="13.00" y2="35.50"/>
<rect class="action" x="13.00" y="34.07" width="2.84" height="2.86" rx="0.45" ry="0.45"/>
<text class="action-label" x="14.42" y="34.68"><tspan x="14.42" dy="0">connec</tspan><tspan x="14.42" dy="0.82">tmcp伺</tspan><tspan x="14.42" dy="0.82">服器</tspan></text>
<line class="assoc" x1="20.84" y1="35.50" x2="21.84" y2="35.50"/>
<rect class="action" x="21.84" y="34.07" width="2.84" height="2.86" rx="0.45" ry="0.45"/>
<text class="action-label" x="23.26" y="35.09"><tspan x="23.26" dy="0">installma</tspan><tspan x="23.26" dy="0.82">nagedapp</tspan></text>
<line class="assoc" x1="29.68" y1="35.50" x2="30.68" y2="35.50"/>
<rect class="action" x="30.68" y="34.07" width="2.84" height="2.86" rx="0.45" ry="0.45"/>
<text class="action-label" x="32.10" y="34.68"><tspan x="32.10" dy="0">preview與</tspan><tspan x="32.10" dy="0.82">註冊</tspan><tspan x="32.10" dy="0.82">storeapp</tspan></text>
<line class="assoc" x1="20.84" y1="44.50" x2="21.84" y2="44.50"/>
<rect class="action" x="21.84" y="43.07" width="2.84" height="2.86" rx="0.45" ry="0.45"/>
<text class="action-label" x="23.26" y="44.09"><tspan x="23.26" dy="0">configurea</tspan><tspan x="23.26" dy="0.82">ppsettings</tspan></text>
<line class="assoc" x1="12.00" y1="53.50" x2="13.00" y2="53.50"/>
<rect class="action" x="13.00" y="52.07" width="2.84" height="2.86" rx="0.45" ry="0.45"/>
<text class="action-label" x="14.42" y="53.09"><tspan x="14.42" dy="0">authorizeo</tspan><tspan x="14.42" dy="0.82">authpopup</tspan></text>
<line class="assoc" x1="20.84" y1="53.50" x2="21.84" y2="53.50"/>
<rect class="action" x="21.84" y="52.07" width="2.84" height="2.86" rx="0.45" ry="0.45"/>
<text class="action-label" x="23.26" y="53.09"><tspan x="23.26" dy="0">enableap</tspan><tspan x="23.26" dy="0.82">pdirectly</tspan></text>
<line class="assoc" x1="20.84" y1="62.50" x2="21.84" y2="62.50"/>
<rect class="action" x="21.84" y="61.07" width="2.84" height="2.86" rx="0.45" ry="0.45"/>
<text class="action-label" x="23.26" y="61.68"><tspan x="23.26" dy="0">refetch與</tspan><tspan x="23.26" dy="0.82">show</tspan><tspan x="23.26" dy="0.82">狀態pill</tspan></text>
<line class="assoc" x1="20.84" y1="69.50" x2="21.84" y2="69.50"/>
<rect class="action" x="21.84" y="68.07" width="2.84" height="2.86" rx="0.45" ry="0.45"/>
<text class="action-label" x="23.26" y="69.09"><tspan x="23.26" dy="0">wait或</tspan><tspan x="23.26" dy="0.82">uninstall</tspan></text>
<line class="gate" x1="17.84" y1="9.00" x2="19.84" y2="9.00"/>
<text class="gate-label" x="20.24" y="9.00"><tspan x="20.24" dy="0">operatoropens對話框appmarket來自layoutl1065</tspan></text>
<line class="gate" x1="17.84" y1="16.00" x2="19.84" y2="16.00"/>
<text class="gate-label" x="20.24" y="16.00"><tspan x="20.24" dy="0">GET mcpmarketreturnedMarketApparray</tspan></text>
<line class="gate" x1="17.84" y1="23.00" x2="19.84" y2="23.00"/>
<text class="gate-label" x="20.24" y="23.00"><tspan x="20.24" dy="0">operatorselectsapp或clicksadd</tspan></text>
<line class="gate" x1="6.00" y1="30.00" x2="31.68" y2="30.00"/>
<line class="gate" x1="8.00" y1="41.00" x2="29.68" y2="41.00"/>
<line class="gate" x1="6.00" y1="48.00" x2="22.84" y2="48.00"/>
<line class="gate" x1="8.00" y1="59.00" x2="20.84" y2="59.00"/>
<line class="gate" x1="17.84" y1="66.00" x2="19.84" y2="66.00"/>
<text class="gate-label" x="20.24" y="66.00"><tspan x="20.24" dy="0">狀態pill在{connected,就緒,已啟用}</tspan></text>
<line class="gate" x1="17.84" y1="73.00" x2="19.84" y2="73.00"/>
<text class="gate-label" x="20.24" y="73.00"><tspan x="20.24" dy="0">對話框closed或uninstall已完成</tspan></text>
<line class="gate" x1="9.00" y1="32.00" x2="11.00" y2="32.00"/>
<text class="gate-label" x="11.40" y="32.00"><tspan x="11.40" dy="0">kind==mcp伺服器</tspan></text>
<line class="gate" x1="17.84" y1="32.00" x2="19.84" y2="32.00"/>
<text class="gate-label" x="20.24" y="32.00"><tspan x="20.24" dy="0">kind==managedapp</tspan></text>
<line class="gate" x1="26.68" y1="32.00" x2="28.68" y2="32.00"/>
<text class="gate-label" x="29.08" y="32.00"><tspan x="29.08" dy="0">kind==mcpapp</tspan></text>
<line class="gate" x1="9.00" y1="39.00" x2="11.00" y2="39.00"/>
<text class="gate-label" x="11.40" y="39.00"><tspan x="11.40" dy="0">伺服器狀態connected</tspan></text>
<line class="gate" x1="17.84" y1="39.00" x2="19.84" y2="39.00"/>
<text class="gate-label" x="20.24" y="38.32"><tspan x="20.24" dy="0">managedappinsta</tspan><tspan x="20.24" dy="0.68">llsucceededAND</tspan><tspan x="20.24" dy="0.68">runtime狀態set</tspan></text>
<line class="gate" x1="26.68" y1="39.00" x2="28.68" y2="39.00"/>
<text class="gate-label" x="29.08" y="38.32"><tspan x="29.08" dy="0">previewokAND</tspan><tspan x="29.08" dy="0.68">addapp或clone與</tspan><tspan x="29.08" dy="0.68">註冊persisted</tspan></text>
<line class="gate" x1="9.00" y1="50.00" x2="11.00" y2="50.00"/>
<text class="gate-label-left" x="8.60" y="50.00"><tspan x="8.60" dy="0">needsoauth==true</tspan></text>
<line class="gate" x1="17.84" y1="50.00" x2="19.84" y2="50.00"/>
<text class="gate-label-left" x="17.44" y="50.00"><tspan x="17.44" dy="0">needsoauth==false</tspan></text>
<line class="gate" x1="9.00" y1="57.00" x2="11.00" y2="57.00"/>
<text class="gate-label-left" x="8.60" y="56.32"><tspan x="8.60" dy="0">oauthcallbackpersist</tspan><tspan x="8.60" dy="0.68">edtokenAND</tspan><tspan x="8.60" dy="0.68">managedappupdatedemitted</tspan></text>
<line class="gate" x1="17.84" y1="57.00" x2="19.84" y2="57.00"/>
<text class="gate-label-left" x="17.44" y="57.00"><tspan x="17.44" dy="0">已啟用flagsettrue</tspan></text>
</svg>