<svg xmlns="http://www.w3.org/2000/svg" width="654" height="1760" viewBox="-2.00 -2.00 32.68 88.00" role="img">
<style>
.step{fill:#fff;stroke:#111;stroke-width:.14}.step-inner{fill:none;stroke:#111;stroke-width:.08}
.action{fill:#fff;stroke:#111;stroke-width:.14}.gate{stroke:#111;stroke-width:.16}
.edge{fill:none;stroke:#111;stroke-width:.05;stroke-linecap:round;stroke-linejoin:round}.edge-arrow{marker-end:url(#arrow)}
.flyover-mask{stroke:#fff;stroke-width:.12;stroke-linecap:round}
.flyover{fill:none;stroke:#111;stroke-width:.05;stroke-linecap:round}
.junction{fill:#111;stroke:#111;stroke-width:0}.branch-junction{fill:#fff;stroke:#111;stroke-width:.08}
.assoc{stroke:#111;stroke-width:.05}.label{font:bold .7px 'Times New Roman', 'BiauKai', 'DFKai-SB', serif;text-anchor:middle;dominant-baseline:middle}
.action-label{font:.55px 'Times New Roman', 'BiauKai', 'DFKai-SB', serif;text-anchor:middle;dominant-baseline:middle}.gate-label{font:italic .55px 'Times New Roman', 'BiauKai', 'DFKai-SB', serif;text-anchor:start;dominant-baseline:middle}.gate-label-left{font:italic .55px 'Times New Roman', 'BiauKai', 'DFKai-SB', serif;text-anchor:end;dominant-baseline:middle}
</style>
<defs><marker id="arrow" markerWidth="0.4" markerHeight="0.4" refX="0.36" refY="0.2" orient="auto" markerUnits="userSpaceOnUse"><path d="M 0 0 L 0.4 0.2 L 0 0.4 z" fill="#111"/></marker></defs>
<rect x="-2.00" y="-2.00" width="32.68" height="88.00" fill="white"/>
<path class="edge" d="M 19.84 7.00 L 19.84 9.00"/>
<path class="edge edge-arrow" d="M 19.84 9.00 L 19.84 11.00"/>
<path class="edge" d="M 19.84 14.00 L 19.84 16.00"/>
<path class="edge edge-arrow" d="M 19.84 16.00 L 19.84 18.00"/>
<path class="edge edge-arrow" d="M 19.84 21.00 L 19.84 23.00"/>
<path class="edge edge-arrow" d="M 19.84 23.00 L 19.84 27.00"/>
<path class="edge edge-arrow" d="M 10.00 23.00 L 10.00 27.00"/>
<path class="edge edge-arrow" d="M 19.84 30.00 L 19.84 41.00"/>
<path class="edge edge-arrow" d="M 19.84 41.00 L 19.84 43.00"/>
<path class="edge" d="M 10.00 30.00 L 10.00 32.00"/>
<path class="edge edge-arrow" d="M 10.00 32.00 L 10.00 34.00"/>
<path class="edge edge-arrow" d="M 10.00 37.00 L 10.00 41.00"/>
<path class="edge edge-arrow" d="M 19.84 46.00 L 19.84 48.00"/>
<path class="edge edge-arrow" d="M 10.00 48.00 L 10.00 52.00"/>
<path class="edge edge-arrow" d="M 19.84 48.00 L 19.84 52.00"/>
<path class="edge edge-arrow" d="M 10.00 55.00 L 10.00 59.00"/>
<path class="edge edge-arrow" d="M 19.84 59.00 L 19.84 61.00"/>
<path class="edge edge-arrow" d="M 19.84 55.00 L 19.84 59.00"/>
<path class="edge" d="M 19.84 64.00 L 19.84 66.00"/>
<path class="edge edge-arrow" d="M 19.84 66.00 L 19.84 68.00"/>
<path class="edge" d="M 19.84 71.00 L 19.84 73.00"/>
<path class="edge edge-arrow" d="M 19.84 73.00 L 19.84 75.00"/>
<path class="edge" d="M 19.84 78.00 L 19.84 80.00"/>
<path class="edge edge-arrow" d="M 19.84 80.00 L 19.84 81.50 Q 19.84 82.00 19.34 82.00 L 2.50 82.00 Q 2.00 82.00 2.00 81.50 L 2.00 2.50 Q 2.00 2.00 2.50 2.00 L 19.34 2.00 Q 19.84 2.00 19.84 2.50 L 19.84 4.00"/>
<rect class="step" x="17.84" y="4.00" width="4.00" height="3.00"/>
<rect class="step-inner" x="18.09" y="4.25" width="3.50" height="2.50"/>
<text class="label" x="19.84" y="5.50">0</text>
<rect class="step" x="17.84" y="11.00" width="4.00" height="3.00"/>
<text class="label" x="19.84" y="12.50">1</text>
<rect class="step" x="17.84" y="18.00" width="4.00" height="3.00"/>
<text class="label" x="19.84" y="19.50">2</text>
<rect class="step" x="17.84" y="27.00" width="4.00" height="3.00"/>
<text class="label" x="19.84" y="28.50">3</text>
<rect class="step" x="8.00" y="27.00" width="4.00" height="3.00"/>
<text class="label" x="10.00" y="28.50">4</text>
<rect class="step" x="8.00" y="34.00" width="4.00" height="3.00"/>
<text class="label" x="10.00" y="35.50">5</text>
<rect class="step" x="17.84" y="43.00" width="4.00" height="3.00"/>
<text class="label" x="19.84" y="44.50">6</text>
<rect class="step" x="8.00" y="52.00" width="4.00" height="3.00"/>
<text class="label" x="10.00" y="53.50">7</text>
<rect class="step" x="17.84" y="52.00" width="4.00" height="3.00"/>
<text class="label" x="19.84" y="53.50">8</text>
<rect class="step" x="17.84" y="61.00" width="4.00" height="3.00"/>
<text class="label" x="19.84" y="62.50">9</text>
<rect class="step" x="17.84" y="68.00" width="4.00" height="3.00"/>
<text class="label" x="19.84" y="69.50">10</text>
<rect class="step" x="17.84" y="75.00" width="4.00" height="3.00"/>
<text class="label" x="19.84" y="76.50">11</text>
<line class="assoc" x1="21.84" y1="5.50" x2="22.84" y2="5.50"/>
<rect class="action" x="22.84" y="4.07" width="3.84" height="2.86" rx="0.45" ry="0.45"/>
<text class="action-label" x="24.76" y="5.09"><tspan x="24.76" dy="0">帳號儲</tspan><tspan x="24.76" dy="0.82">存閒置</tspan></text>
<line class="assoc" x1="21.84" y1="12.50" x2="22.84" y2="12.50"/>
<rect class="action" x="22.84" y="11.07" width="3.84" height="2.86" rx="0.45" ry="0.45"/>
<text class="action-label" x="24.76" y="11.68"><tspan x="24.76" dy="0">解析</tspan><tspan x="24.76" dy="0.82">canonical</tspan><tspan x="24.76" dy="0.82">Providerkey</tspan></text>
<line class="assoc" x1="21.84" y1="19.50" x2="22.84" y2="19.50"/>
<rect class="action" x="22.84" y="18.07" width="3.84" height="2.86" rx="0.45" ry="0.45"/>
<text class="action-label" x="24.76" y="19.09"><tspan x="24.76" dy="0">validatecredenti</tspan><tspan x="24.76" dy="0.82">alshape與branch</tspan></text>
<line class="assoc" x1="21.84" y1="28.50" x2="22.84" y2="28.50"/>
<rect class="action" x="22.84" y="27.07" width="3.84" height="2.86" rx="0.45" ry="0.45"/>
<text class="action-label" x="24.76" y="27.68"><tspan x="24.76" dy="0">掃描</tspan><tspan x="24.76" dy="0.82">existing供</tspan><tspan x="24.76" dy="0.82">apikey比對</tspan></text>
<line class="assoc" x1="12.00" y1="28.50" x2="13.00" y2="28.50"/>
<rect class="action" x="13.00" y="27.07" width="3.84" height="2.86" rx="0.45" ry="0.45"/>
<text class="action-label" x="14.92" y="27.68"><tspan x="14.92" dy="0">執行身分</tspan><tspan x="14.92" dy="0.82">chainemailuser</tspan><tspan x="14.92" dy="0.82">nametokenhash</tspan></text>
<line class="assoc" x1="12.00" y1="35.50" x2="13.00" y2="35.50"/>
<rect class="action" x="13.00" y="34.07" width="3.84" height="2.86" rx="0.45" ry="0.45"/>
<text class="action-label" x="14.92" y="34.68"><tspan x="14.92" dy="0">dedup由</tspan><tspan x="14.92" dy="0.82">basetoken或</tspan><tspan x="14.92" dy="0.82">emailcollision</tspan></text>
<line class="assoc" x1="21.84" y1="44.50" x2="22.84" y2="44.50"/>
<rect class="action" x="22.84" y="43.07" width="3.84" height="2.86" rx="0.45" ry="0.45"/>
<text class="action-label" x="24.76" y="43.68"><tspan x="24.76" dy="0">decide更新</tspan><tspan x="24.76" dy="0.82">existing或</tspan><tspan x="24.76" dy="0.82">generateid</tspan></text>
<line class="assoc" x1="12.00" y1="53.50" x2="13.00" y2="53.50"/>
<rect class="action" x="13.00" y="52.07" width="3.84" height="2.86" rx="0.45" ry="0.45"/>
<text class="action-label" x="14.92" y="52.68"><tspan x="14.92" dy="0">patchexis</tspan><tspan x="14.92" dy="0.82">ting記錄</tspan><tspan x="14.92" dy="0.82">在place</tspan></text>
<line class="assoc" x1="21.84" y1="53.50" x2="22.84" y2="53.50"/>
<rect class="action" x="22.84" y="52.07" width="3.84" height="2.86" rx="0.45" ry="0.45"/>
<text class="action-label" x="24.76" y="53.09"><tspan x="24.76" dy="0">帳號</tspan><tspan x="24.76" dy="0.82">addundermutex</tspan></text>
<line class="assoc" x1="21.84" y1="62.50" x2="22.84" y2="62.50"/>
<rect class="action" x="22.84" y="61.07" width="3.84" height="2.86" rx="0.45" ry="0.45"/>
<text class="action-label" x="24.76" y="61.68"><tspan x="24.76" dy="0">normalize身</tspan><tspan x="24.76" dy="0.82">分與移除</tspan><tspan x="24.76" dy="0.82">managedapps</tspan></text>
<line class="assoc" x1="21.84" y1="69.50" x2="22.84" y2="69.50"/>
<rect class="action" x="22.84" y="68.07" width="3.84" height="2.86" rx="0.45" ry="0.45"/>
<text class="action-label" x="24.76" y="69.09"><tspan x="24.76" dy="0">發布帳號</tspan><tspan x="24.76" dy="0.82">addedbus事件</tspan></text>
<line class="assoc" x1="21.84" y1="76.50" x2="22.84" y2="76.50"/>
<rect class="action" x="22.84" y="75.07" width="3.84" height="2.86" rx="0.45" ry="0.45"/>
<text class="action-label" x="24.76" y="76.09"><tspan x="24.76" dy="0">返回帳號</tspan><tspan x="24.76" dy="0.82">記錄到caller</tspan></text>
<line class="gate" x1="18.84" y1="9.00" x2="20.84" y2="9.00"/>
<text class="gate-label" x="21.24" y="9.00"><tspan x="21.24" dy="0">驗證setinvoked由clitui或路由</tspan></text>
<line class="gate" x1="18.84" y1="16.00" x2="20.84" y2="16.00"/>
<text class="gate-label-left" x="18.44" y="16.00"><tspan x="18.44" dy="0">family是known透過解析Provider或self</tspan></text>
<line class="gate" x1="6.00" y1="23.00" x2="23.84" y2="23.00"/>
<line class="gate" x1="8.00" y1="41.00" x2="21.84" y2="41.00"/>
<line class="gate" x1="9.00" y1="32.00" x2="11.00" y2="32.00"/>
<text class="gate-label" x="11.40" y="32.00"><tspan x="11.40" dy="0">身分slug已解析</tspan></text>
<line class="gate" x1="6.00" y1="48.00" x2="23.84" y2="48.00"/>
<line class="gate" x1="8.00" y1="59.00" x2="21.84" y2="59.00"/>
<line class="gate" x1="18.84" y1="66.00" x2="20.84" y2="66.00"/>
<text class="gate-label" x="21.24" y="66.00"><tspan x="21.24" dy="0">normalizereportemitted或noop</tspan></text>
<line class="gate" x1="18.84" y1="73.00" x2="20.84" y2="73.00"/>
<text class="gate-label" x="21.24" y="73.00"><tspan x="21.24" dy="0">bus帳號addedpublished</tspan></text>
<line class="gate" x1="18.84" y1="80.00" x2="20.84" y2="80.00"/>
<text class="gate-label" x="21.24" y="80.00"><tspan x="21.24" dy="0">caller已收到帳號id閒置again</tspan></text>
<line class="gate" x1="18.84" y1="25.00" x2="20.84" y2="25.00"/>
<text class="gate-label-left" x="18.44" y="25.00"><tspan x="18.44" dy="0">infotypeequalsapi</tspan></text>
<line class="gate" x1="9.00" y1="25.00" x2="11.00" y2="25.00"/>
<text class="gate-label-left" x="8.60" y="25.00"><tspan x="8.60" dy="0">infotypeequalsoauth</tspan></text>
<line class="gate" x1="18.84" y1="39.00" x2="20.84" y2="39.00"/>
<text class="gate-label-left" x="18.44" y="39.00"><tspan x="18.44" dy="0">apikeydedupdone</tspan></text>
<line class="gate" x1="9.00" y1="39.00" x2="11.00" y2="39.00"/>
<text class="gate-label-left" x="8.60" y="39.00"><tspan x="8.60" dy="0">oauthdedupdone</tspan></text>
<line class="gate" x1="9.00" y1="50.00" x2="11.00" y2="50.00"/>
<text class="gate-label-left" x="8.60" y="50.00"><tspan x="8.60" dy="0">existing記錄found</tspan></text>
<line class="gate" x1="18.84" y1="50.00" x2="20.84" y2="50.00"/>
<text class="gate-label-left" x="18.44" y="49.66"><tspan x="18.44" dy="0">無比對generate</tspan><tspan x="18.44" dy="0.68">newid使用suffix</tspan></text>
<line class="gate" x1="9.00" y1="57.00" x2="11.00" y2="57.00"/>
<text class="gate-label-left" x="8.60" y="57.00"><tspan x="8.60" dy="0">帳號更新persisted</tspan></text>
<line class="gate" x1="18.84" y1="57.00" x2="20.84" y2="57.00"/>
<text class="gate-label-left" x="18.44" y="57.00"><tspan x="18.44" dy="0">帳號jsonatomicwriteok</tspan></text>
</svg>