<svg xmlns="http://www.w3.org/2000/svg" width="956" height="1760" viewBox="-2.00 -2.00 47.80 88.00" role="img">
<style>
.step{fill:#fff;stroke:#111;stroke-width:.14}.step-inner{fill:none;stroke:#111;stroke-width:.08}
.action{fill:#fff;stroke:#111;stroke-width:.14}.gate{stroke:#111;stroke-width:.16}
.edge{fill:none;stroke:#111;stroke-width:.05;stroke-linecap:round;stroke-linejoin:round}.edge-arrow{marker-end:url(#arrow)}
.flyover-mask{stroke:#fff;stroke-width:.12;stroke-linecap:round}
.flyover{fill:none;stroke:#111;stroke-width:.05;stroke-linecap:round}
.junction{fill:#111;stroke:#111;stroke-width:0}.branch-junction{fill:#fff;stroke:#111;stroke-width:.08}
.assoc{stroke:#111;stroke-width:.05}.label{font:bold .7px 'Times New Roman', 'BiauKai', 'DFKai-SB', serif;text-anchor:middle;dominant-baseline:middle}
.action-label{font:.55px 'Times New Roman', 'BiauKai', 'DFKai-SB', serif;text-anchor:middle;dominant-baseline:middle}.gate-label{font:italic .55px 'Times New Roman', 'BiauKai', 'DFKai-SB', serif;text-anchor:start;dominant-baseline:middle}.gate-label-left{font:italic .55px 'Times New Roman', 'BiauKai', 'DFKai-SB', serif;text-anchor:end;dominant-baseline:middle}
</style>
<defs><marker id="arrow" markerWidth="0.4" markerHeight="0.4" refX="0.36" refY="0.2" orient="auto" markerUnits="userSpaceOnUse"><path d="M 0 0 L 0.4 0.2 L 0 0.4 z" fill="#111"/></marker></defs>
<rect x="-2.00" y="-2.00" width="47.80" height="88.00" fill="white"/>
<path class="edge" d="M 21.60 7.00 L 21.60 9.00"/>
<path class="edge edge-arrow" d="M 21.60 9.00 L 21.60 11.00"/>
<path class="edge" d="M 21.60 14.00 L 21.60 16.00"/>
<path class="edge edge-arrow" d="M 21.60 16.00 L 21.60 18.00"/>
<path class="edge edge-arrow" d="M 21.60 21.00 L 21.60 23.00"/>
<path class="edge edge-arrow" d="M 10.00 23.00 L 10.00 24.50 Q 10.00 25.00 10.00 25.50 L 10.00 27.00"/>
<path class="edge edge-arrow" d="M 33.20 23.00 L 33.20 24.50 Q 33.20 25.00 33.20 25.50 L 33.20 27.00"/>
<path class="edge edge-arrow" d="M 10.00 30.00 L 10.00 41.00"/>
<path class="edge edge-arrow" d="M 21.60 41.00 L 21.60 43.00"/>
<path class="edge" d="M 33.20 30.00 L 33.20 32.00"/>
<path class="edge edge-arrow" d="M 33.20 32.00 L 33.20 34.00"/>
<path class="edge edge-arrow" d="M 33.20 37.00 L 33.20 41.00"/>
<path class="edge edge-arrow" d="M 21.60 46.00 L 21.60 48.00"/>
<path class="edge edge-arrow" d="M 10.00 48.00 L 10.00 49.50 Q 10.00 50.00 10.00 50.50 L 10.00 52.00"/>
<path class="edge edge-arrow" d="M 33.20 48.00 L 33.20 49.50 Q 33.20 50.00 33.20 50.50 L 33.20 52.00"/>
<path class="edge edge-arrow" d="M 10.00 55.00 L 10.00 59.00"/>
<path class="edge edge-arrow" d="M 21.60 59.00 L 21.60 61.00"/>
<path class="edge edge-arrow" d="M 33.20 55.00 L 33.20 59.00"/>
<path class="edge" d="M 21.60 64.00 L 21.60 66.00"/>
<path class="edge edge-arrow" d="M 21.60 66.00 L 21.60 68.00"/>
<path class="edge" d="M 21.60 71.00 L 21.60 73.00"/>
<path class="edge edge-arrow" d="M 21.60 73.00 L 21.60 75.00"/>
<path class="edge" d="M 21.60 78.00 L 21.60 80.00"/>
<path class="edge edge-arrow" d="M 21.60 80.00 L 21.60 81.50 Q 21.60 82.00 21.10 82.00 L 2.50 82.00 Q 2.00 82.00 2.00 81.50 L 2.00 2.50 Q 2.00 2.00 2.50 2.00 L 21.10 2.00 Q 21.60 2.00 21.60 2.50 L 21.60 4.00"/>
<rect class="step" x="19.60" y="4.00" width="4.00" height="3.00"/>
<rect class="step-inner" x="19.85" y="4.25" width="3.50" height="2.50"/>
<text class="label" x="21.60" y="5.50">0</text>
<rect class="step" x="19.60" y="11.00" width="4.00" height="3.00"/>
<text class="label" x="21.60" y="12.50">1</text>
<rect class="step" x="19.60" y="18.00" width="4.00" height="3.00"/>
<text class="label" x="21.60" y="19.50">2</text>
<rect class="step" x="8.00" y="27.00" width="4.00" height="3.00"/>
<text class="label" x="10.00" y="28.50">3</text>
<rect class="step" x="31.20" y="27.00" width="4.00" height="3.00"/>
<text class="label" x="33.20" y="28.50">4</text>
<rect class="step" x="31.20" y="34.00" width="4.00" height="3.00"/>
<text class="label" x="33.20" y="35.50">5</text>
<rect class="step" x="19.60" y="43.00" width="4.00" height="3.00"/>
<text class="label" x="21.60" y="44.50">6</text>
<rect class="step" x="8.00" y="52.00" width="4.00" height="3.00"/>
<text class="label" x="10.00" y="53.50">7</text>
<rect class="step" x="31.20" y="52.00" width="4.00" height="3.00"/>
<text class="label" x="33.20" y="53.50">8</text>
<rect class="step" x="19.60" y="61.00" width="4.00" height="3.00"/>
<text class="label" x="21.60" y="62.50">9</text>
<rect class="step" x="19.60" y="68.00" width="4.00" height="3.00"/>
<text class="label" x="21.60" y="69.50">10</text>
<rect class="step" x="19.60" y="75.00" width="4.00" height="3.00"/>
<text class="label" x="21.60" y="76.50">11</text>
<line class="assoc" x1="23.60" y1="5.50" x2="24.60" y2="5.50"/>
<rect class="action" x="24.60" y="4.07" width="5.60" height="2.86" rx="0.45" ry="0.45"/>
<text class="action-label" x="27.40" y="5.50"><tspan x="27.40" dy="0">еёіиҷҹе„Іеӯҳй–’зҪ®</tspan></text>
<line class="assoc" x1="23.60" y1="12.50" x2="24.60" y2="12.50"/>
<rect class="action" x="24.60" y="11.07" width="5.60" height="2.86" rx="0.45" ry="0.45"/>
<text class="action-label" x="27.40" y="12.09"><tspan x="27.40" dy="0">и§Јжһҗcanonica</tspan><tspan x="27.40" dy="0.82">lProviderkey</tspan></text>
<line class="assoc" x1="23.60" y1="19.50" x2="24.60" y2="19.50"/>
<rect class="action" x="24.60" y="18.07" width="5.60" height="2.86" rx="0.45" ry="0.45"/>
<text class="action-label" x="27.40" y="18.68"><tspan x="27.40" dy="0">validatecr</tspan><tspan x="27.40" dy="0.82">edentialsh</tspan><tspan x="27.40" dy="0.82">apeиҲҮbranch</tspan></text>
<line class="assoc" x1="12.00" y1="28.50" x2="13.00" y2="28.50"/>
<rect class="action" x="13.00" y="27.07" width="5.60" height="2.86" rx="0.45" ry="0.45"/>
<text class="action-label" x="15.80" y="27.68"><tspan x="15.80" dy="0">жҺғжҸҸ</tspan><tspan x="15.80" dy="0.82">existingдҫӣ</tspan><tspan x="15.80" dy="0.82">apikeyжҜ”е°Қ</tspan></text>
<line class="assoc" x1="35.20" y1="28.50" x2="36.20" y2="28.50"/>
<rect class="action" x="36.20" y="27.07" width="5.60" height="2.86" rx="0.45" ry="0.45"/>
<text class="action-label" x="39.00" y="27.68"><tspan x="39.00" dy="0">еҹ·иЎҢиә«еҲҶchain</tspan><tspan x="39.00" dy="0.82">emailuserna</tspan><tspan x="39.00" dy="0.82">metokenhash</tspan></text>
<line class="assoc" x1="35.20" y1="35.50" x2="36.20" y2="35.50"/>
<rect class="action" x="36.20" y="34.07" width="5.60" height="2.86" rx="0.45" ry="0.45"/>
<text class="action-label" x="39.00" y="34.68"><tspan x="39.00" dy="0">dedupз”ұ</tspan><tspan x="39.00" dy="0.82">basetokenжҲ–</tspan><tspan x="39.00" dy="0.82">emailcollision</tspan></text>
<line class="assoc" x1="23.60" y1="44.50" x2="24.60" y2="44.50"/>
<rect class="action" x="24.60" y="43.07" width="5.60" height="2.86" rx="0.45" ry="0.45"/>
<text class="action-label" x="27.40" y="43.68"><tspan x="27.40" dy="0">decideжӣҙж–°</tspan><tspan x="27.40" dy="0.82">existingжҲ–</tspan><tspan x="27.40" dy="0.82">generateid</tspan></text>
<line class="assoc" x1="12.00" y1="53.50" x2="13.00" y2="53.50"/>
<rect class="action" x="13.00" y="52.07" width="5.60" height="2.86" rx="0.45" ry="0.45"/>
<text class="action-label" x="15.80" y="52.68"><tspan x="15.80" dy="0">patchexi</tspan><tspan x="15.80" dy="0.82">stingиЁҳйҢ„</tspan><tspan x="15.80" dy="0.82">еңЁplace</tspan></text>
<line class="assoc" x1="35.20" y1="53.50" x2="36.20" y2="53.50"/>
<rect class="action" x="36.20" y="52.07" width="5.60" height="2.86" rx="0.45" ry="0.45"/>
<text class="action-label" x="39.00" y="53.09"><tspan x="39.00" dy="0">еёіиҷҹaddun</tspan><tspan x="39.00" dy="0.82">dermutex</tspan></text>
<line class="assoc" x1="23.60" y1="62.50" x2="24.60" y2="62.50"/>
<rect class="action" x="24.60" y="61.07" width="5.60" height="2.86" rx="0.45" ry="0.45"/>
<text class="action-label" x="27.40" y="61.68"><tspan x="27.40" dy="0">normalizeиә«</tspan><tspan x="27.40" dy="0.82">еҲҶиҲҮз§»йҷӨ</tspan><tspan x="27.40" dy="0.82">managedapps</tspan></text>
<line class="assoc" x1="23.60" y1="69.50" x2="24.60" y2="69.50"/>
<rect class="action" x="24.60" y="68.07" width="5.60" height="2.86" rx="0.45" ry="0.45"/>
<text class="action-label" x="27.40" y="69.09"><tspan x="27.40" dy="0">зҷјеёғеёіиҷҹ</tspan><tspan x="27.40" dy="0.82">addedbusдәӢд»¶</tspan></text>
<line class="assoc" x1="23.60" y1="76.50" x2="24.60" y2="76.50"/>
<rect class="action" x="24.60" y="75.07" width="5.60" height="2.86" rx="0.45" ry="0.45"/>
<text class="action-label" x="27.40" y="76.09"><tspan x="27.40" dy="0">иҝ”еӣһеёіиҷҹиЁҳ</tspan><tspan x="27.40" dy="0.82">йҢ„еҲ°caller</tspan></text>
<line class="gate" x1="20.60" y1="9.00" x2="22.60" y2="9.00"/>
<text class="gate-label" x="23.00" y="9.00"><tspan x="23.00" dy="0">й©—иӯүsetinvokedз”ұclituiжҲ–и·Ҝз”ұ</tspan></text>
<line class="gate" x1="20.60" y1="16.00" x2="22.60" y2="16.00"/>
<text class="gate-label" x="23.00" y="16.00"><tspan x="23.00" dy="0">familyжҳҜknownйҖҸйҒҺи§ЈжһҗProviderжҲ–self</tspan></text>
<line class="gate" x1="6.00" y1="23.00" x2="37.20" y2="23.00"/>
<line class="gate" x1="8.00" y1="41.00" x2="35.20" y2="41.00"/>
<line class="gate" x1="32.20" y1="32.00" x2="34.20" y2="32.00"/>
<text class="gate-label" x="34.60" y="32.00"><tspan x="34.60" dy="0">иә«еҲҶslugе·Іи§Јжһҗ</tspan></text>
<line class="gate" x1="6.00" y1="48.00" x2="37.20" y2="48.00"/>
<line class="gate" x1="8.00" y1="59.00" x2="35.20" y2="59.00"/>
<line class="gate" x1="20.60" y1="66.00" x2="22.60" y2="66.00"/>
<text class="gate-label" x="23.00" y="66.00"><tspan x="23.00" dy="0">normalizereportemittedжҲ–noop</tspan></text>
<line class="gate" x1="20.60" y1="73.00" x2="22.60" y2="73.00"/>
<text class="gate-label" x="23.00" y="73.00"><tspan x="23.00" dy="0">busеёіиҷҹaddedpublished</tspan></text>
<line class="gate" x1="20.60" y1="80.00" x2="22.60" y2="80.00"/>
<text class="gate-label" x="23.00" y="80.00"><tspan x="23.00" dy="0">callerе·Іж”¶еҲ°еёіиҷҹidй–’зҪ®again</tspan></text>
<line class="gate" x1="9.00" y1="25.00" x2="11.00" y2="25.00"/>
<text class="gate-label-left" x="8.60" y="24.32"><tspan x="8.60" dy="0">infoty</tspan><tspan x="8.60" dy="0.68">peequa</tspan><tspan x="8.60" dy="0.68">lsapi</tspan></text>
<line class="gate" x1="32.20" y1="25.00" x2="34.20" y2="25.00"/>
<text class="gate-label-left" x="31.80" y="25.00"><tspan x="31.80" dy="0">infotypeequalsoauth</tspan></text>
<line class="gate" x1="9.00" y1="39.00" x2="11.00" y2="39.00"/>
<text class="gate-label-left" x="8.60" y="38.32"><tspan x="8.60" dy="0">apike</tspan><tspan x="8.60" dy="0.68">ydedu</tspan><tspan x="8.60" dy="0.68">pdone</tspan></text>
<line class="gate" x1="32.20" y1="39.00" x2="34.20" y2="39.00"/>
<text class="gate-label-left" x="31.80" y="39.00"><tspan x="31.80" dy="0">oauthdedupdone</tspan></text>
<line class="gate" x1="9.00" y1="50.00" x2="11.00" y2="50.00"/>
<text class="gate-label-left" x="8.60" y="49.66"><tspan x="8.60" dy="0">existingиЁҳ</tspan><tspan x="8.60" dy="0.68">йҢ„found</tspan></text>
<line class="gate" x1="32.20" y1="50.00" x2="34.20" y2="50.00"/>
<text class="gate-label-left" x="31.80" y="50.00"><tspan x="31.80" dy="0">з„ЎжҜ”е°ҚgeneratenewidдҪҝз”Ёsuffix</tspan></text>
<line class="gate" x1="9.00" y1="57.00" x2="11.00" y2="57.00"/>
<text class="gate-label-left" x="8.60" y="56.66"><tspan x="8.60" dy="0">еёіиҷҹжӣҙж–°</tspan><tspan x="8.60" dy="0.68">persisted</tspan></text>
<line class="gate" x1="32.20" y1="57.00" x2="34.20" y2="57.00"/>
<text class="gate-label-left" x="31.80" y="57.00"><tspan x="31.80" dy="0">еёіиҷҹjsonatomicwriteok</tspan></text>
</svg>