<svg xmlns="http://www.w3.org/2000/svg" width="956" height="2013" viewBox="-2.00 -2.00 47.80 100.66" role="img">
<style>
.step{fill:#fff;stroke:#111;stroke-width:.14}.step-inner{fill:none;stroke:#111;stroke-width:.08}
.action{fill:#fff;stroke:#111;stroke-width:.14}.gate{stroke:#111;stroke-width:.16}
.edge{fill:none;stroke:#111;stroke-width:.05;stroke-linecap:round;stroke-linejoin:round}.edge-arrow{marker-end:url(#arrow)}
.flyover-mask{stroke:#fff;stroke-width:.12;stroke-linecap:round}
.flyover{fill:none;stroke:#111;stroke-width:.05;stroke-linecap:round}
.junction{fill:#111;stroke:#111;stroke-width:0}.branch-junction{fill:#fff;stroke:#111;stroke-width:.08}
.assoc{stroke:#111;stroke-width:.05}.label{font:bold .7px 'Times New Roman', 'BiauKai', 'DFKai-SB', serif;text-anchor:middle;dominant-baseline:middle}
.action-label{font:.55px 'Times New Roman', 'BiauKai', 'DFKai-SB', serif;text-anchor:middle;dominant-baseline:middle}.gate-label{font:italic .55px 'Times New Roman', 'BiauKai', 'DFKai-SB', serif;text-anchor:start;dominant-baseline:middle}.gate-label-left{font:italic .55px 'Times New Roman', 'BiauKai', 'DFKai-SB', serif;text-anchor:end;dominant-baseline:middle}
</style>
<defs><marker id="arrow" markerWidth="0.4" markerHeight="0.4" refX="0.36" refY="0.2" orient="auto" markerUnits="userSpaceOnUse"><path d="M 0 0 L 0.4 0.2 L 0 0.4 z" fill="#111"/></marker></defs>
<rect x="-2.00" y="-2.00" width="47.80" height="100.66" fill="white"/>
<path class="edge" d="M 21.60 7.00 L 21.60 9.00"/>
<path class="edge edge-arrow" d="M 21.60 9.00 L 21.60 11.00"/>
<path class="edge" d="M 21.60 14.00 L 21.60 16.00"/>
<path class="edge edge-arrow" d="M 21.60 16.00 L 21.60 18.00"/>
<path class="edge edge-arrow" d="M 21.60 21.00 L 21.60 23.00"/>
<path class="edge edge-arrow" d="M 10.00 23.00 L 10.00 29.46"/>
<path class="edge edge-arrow" d="M 33.20 23.00 L 33.20 29.46"/>
<path class="edge edge-arrow" d="M 10.00 32.46 L 10.00 47.92"/>
<path class="edge edge-arrow" d="M 21.60 47.92 L 21.60 52.38"/>
<path class="edge" d="M 33.20 32.46 L 33.20 34.46"/>
<path class="edge edge-arrow" d="M 33.20 34.46 L 33.20 40.92"/>
<path class="edge edge-arrow" d="M 33.20 43.92 L 33.20 47.92"/>
<path class="edge edge-arrow" d="M 21.60 55.38 L 21.60 57.38"/>
<path class="edge edge-arrow" d="M 10.00 57.38 L 10.00 63.02"/>
<path class="edge edge-arrow" d="M 33.20 57.38 L 33.20 63.02"/>
<path class="edge edge-arrow" d="M 10.00 66.02 L 10.00 70.02"/>
<path class="edge edge-arrow" d="M 21.60 70.02 L 21.60 73.66"/>
<path class="edge edge-arrow" d="M 33.20 66.02 L 33.20 70.02"/>
<path class="edge" d="M 21.60 76.66 L 21.60 78.66"/>
<path class="edge edge-arrow" d="M 21.60 78.66 L 21.60 80.66"/>
<path class="edge" d="M 21.60 83.66 L 21.60 85.66"/>
<path class="edge edge-arrow" d="M 21.60 85.66 L 21.60 87.66"/>
<path class="edge" d="M 21.60 90.66 L 21.60 92.66"/>
<path class="edge edge-arrow" d="M 21.60 92.66 L 21.60 94.16 Q 21.60 94.66 21.10 94.66 L 2.50 94.66 Q 2.00 94.66 2.00 94.16 L 2.00 2.50 Q 2.00 2.00 2.50 2.00 L 21.10 2.00 Q 21.60 2.00 21.60 2.50 L 21.60 4.00"/>
<rect class="step" x="19.60" y="4.00" width="4.00" height="3.00"/>
<rect class="step-inner" x="19.85" y="4.25" width="3.50" height="2.50"/>
<text class="label" x="21.60" y="5.50">0</text>
<rect class="step" x="19.60" y="11.00" width="4.00" height="3.00"/>
<text class="label" x="21.60" y="12.50">1</text>
<rect class="step" x="19.60" y="18.00" width="4.00" height="3.00"/>
<text class="label" x="21.60" y="19.50">2</text>
<rect class="step" x="8.00" y="29.46" width="4.00" height="3.00"/>
<text class="label" x="10.00" y="30.96">3</text>
<rect class="step" x="31.20" y="29.46" width="4.00" height="3.00"/>
<text class="label" x="33.20" y="30.96">4</text>
<rect class="step" x="31.20" y="40.92" width="4.00" height="3.00"/>
<text class="label" x="33.20" y="42.42">5</text>
<rect class="step" x="19.60" y="52.38" width="4.00" height="3.00"/>
<text class="label" x="21.60" y="53.88">6</text>
<rect class="step" x="8.00" y="63.02" width="4.00" height="3.00"/>
<text class="label" x="10.00" y="64.52">7</text>
<rect class="step" x="31.20" y="63.02" width="4.00" height="3.00"/>
<text class="label" x="33.20" y="64.52">8</text>
<rect class="step" x="19.60" y="73.66" width="4.00" height="3.00"/>
<text class="label" x="21.60" y="75.16">9</text>
<rect class="step" x="19.60" y="80.66" width="4.00" height="3.00"/>
<text class="label" x="21.60" y="82.16">10</text>
<rect class="step" x="19.60" y="87.66" width="4.00" height="3.00"/>
<text class="label" x="21.60" y="89.16">11</text>
<line class="assoc" x1="23.60" y1="5.50" x2="24.60" y2="5.50"/>
<rect class="action" x="24.60" y="4.07" width="5.60" height="2.86" rx="0.45" ry="0.45"/>
<text class="action-label" x="27.40" y="5.50"><tspan x="27.40" dy="0">帳號儲存閒置</tspan></text>
<line class="assoc" x1="23.60" y1="12.50" x2="24.60" y2="12.50"/>
<rect class="action" x="24.60" y="11.07" width="5.60" height="2.86" rx="0.45" ry="0.45"/>
<text class="action-label" x="27.40" y="12.09"><tspan x="27.40" dy="0">解析canonica</tspan><tspan x="27.40" dy="0.82">lProviderkey</tspan></text>
<line class="assoc" x1="23.60" y1="19.50" x2="24.60" y2="19.50"/>
<rect class="action" x="24.60" y="18.07" width="5.60" height="2.86" rx="0.45" ry="0.45"/>
<text class="action-label" x="27.40" y="18.68"><tspan x="27.40" dy="0">validatecr</tspan><tspan x="27.40" dy="0.82">edentialsh</tspan><tspan x="27.40" dy="0.82">ape與branch</tspan></text>
<line class="assoc" x1="12.00" y1="30.96" x2="13.00" y2="30.96"/>
<rect class="action" x="13.00" y="29.53" width="5.60" height="2.86" rx="0.45" ry="0.45"/>
<text class="action-label" x="15.80" y="30.14"><tspan x="15.80" dy="0">掃描</tspan><tspan x="15.80" dy="0.82">existing供</tspan><tspan x="15.80" dy="0.82">apikey比對</tspan></text>
<line class="assoc" x1="35.20" y1="30.96" x2="36.20" y2="30.96"/>
<rect class="action" x="36.20" y="29.53" width="5.60" height="2.86" rx="0.45" ry="0.45"/>
<text class="action-label" x="39.00" y="30.14"><tspan x="39.00" dy="0">執行身分chain</tspan><tspan x="39.00" dy="0.82">emailuserna</tspan><tspan x="39.00" dy="0.82">metokenhash</tspan></text>
<line class="assoc" x1="35.20" y1="42.42" x2="36.20" y2="42.42"/>
<rect class="action" x="36.20" y="40.99" width="5.60" height="2.86" rx="0.45" ry="0.45"/>
<text class="action-label" x="39.00" y="41.60"><tspan x="39.00" dy="0">dedup由</tspan><tspan x="39.00" dy="0.82">basetoken或</tspan><tspan x="39.00" dy="0.82">emailcollision</tspan></text>
<line class="assoc" x1="23.60" y1="53.88" x2="24.60" y2="53.88"/>
<rect class="action" x="24.60" y="52.45" width="5.60" height="2.86" rx="0.45" ry="0.45"/>
<text class="action-label" x="27.40" y="53.06"><tspan x="27.40" dy="0">decide更新</tspan><tspan x="27.40" dy="0.82">existing或</tspan><tspan x="27.40" dy="0.82">generateid</tspan></text>
<line class="assoc" x1="12.00" y1="64.52" x2="13.00" y2="64.52"/>
<rect class="action" x="13.00" y="63.09" width="5.60" height="2.86" rx="0.45" ry="0.45"/>
<text class="action-label" x="15.80" y="63.70"><tspan x="15.80" dy="0">patchexi</tspan><tspan x="15.80" dy="0.82">sting記錄</tspan><tspan x="15.80" dy="0.82">在place</tspan></text>
<line class="assoc" x1="35.20" y1="64.52" x2="36.20" y2="64.52"/>
<rect class="action" x="36.20" y="63.09" width="5.60" height="2.86" rx="0.45" ry="0.45"/>
<text class="action-label" x="39.00" y="64.11"><tspan x="39.00" dy="0">帳號addun</tspan><tspan x="39.00" dy="0.82">dermutex</tspan></text>
<line class="assoc" x1="23.60" y1="75.16" x2="24.60" y2="75.16"/>
<rect class="action" x="24.60" y="73.73" width="5.60" height="2.86" rx="0.45" ry="0.45"/>
<text class="action-label" x="27.40" y="74.34"><tspan x="27.40" dy="0">normalize身</tspan><tspan x="27.40" dy="0.82">分與移除</tspan><tspan x="27.40" dy="0.82">managedapps</tspan></text>
<line class="assoc" x1="23.60" y1="82.16" x2="24.60" y2="82.16"/>
<rect class="action" x="24.60" y="80.73" width="5.60" height="2.86" rx="0.45" ry="0.45"/>
<text class="action-label" x="27.40" y="81.75"><tspan x="27.40" dy="0">發布帳號</tspan><tspan x="27.40" dy="0.82">addedbus事件</tspan></text>
<line class="assoc" x1="23.60" y1="89.16" x2="24.60" y2="89.16"/>
<rect class="action" x="24.60" y="87.73" width="5.60" height="2.86" rx="0.45" ry="0.45"/>
<text class="action-label" x="27.40" y="88.75"><tspan x="27.40" dy="0">返回帳號記</tspan><tspan x="27.40" dy="0.82">錄到caller</tspan></text>
<line class="gate" x1="20.60" y1="9.00" x2="22.60" y2="9.00"/>
<text class="gate-label" x="23.00" y="9.00"><tspan x="23.00" dy="0">驗證setinvoked由clitui或路由</tspan></text>
<line class="gate" x1="20.60" y1="16.00" x2="22.60" y2="16.00"/>
<text class="gate-label" x="23.00" y="16.00"><tspan x="23.00" dy="0">family是known透過解析Provider或self</tspan></text>
<line class="gate" x1="6.00" y1="23.00" x2="37.20" y2="23.00"/>
<line class="gate" x1="8.00" y1="47.92" x2="35.20" y2="47.92"/>
<line class="gate" x1="32.20" y1="34.46" x2="34.20" y2="34.46"/>
<text class="gate-label" x="34.60" y="34.46"><tspan x="34.60" dy="0">身分slug已解析</tspan></text>
<line class="gate" x1="6.00" y1="57.38" x2="37.20" y2="57.38"/>
<line class="gate" x1="8.00" y1="70.02" x2="35.20" y2="70.02"/>
<line class="gate" x1="20.60" y1="78.66" x2="22.60" y2="78.66"/>
<text class="gate-label" x="23.00" y="78.66"><tspan x="23.00" dy="0">normalizereportemitted或noop</tspan></text>
<line class="gate" x1="20.60" y1="85.66" x2="22.60" y2="85.66"/>
<text class="gate-label" x="23.00" y="85.66"><tspan x="23.00" dy="0">bus帳號addedpublished</tspan></text>
<line class="gate" x1="20.60" y1="92.66" x2="22.60" y2="92.66"/>
<text class="gate-label" x="23.00" y="92.66"><tspan x="23.00" dy="0">caller已收到帳號id閒置again</tspan></text>
<line class="gate" x1="9.00" y1="25.00" x2="11.00" y2="25.00"/>
<text class="gate-label-left" x="8.60" y="24.32"><tspan x="8.60" dy="0">infoty</tspan><tspan x="8.60" dy="0.68">peequa</tspan><tspan x="8.60" dy="0.68">lsapi</tspan></text>
<line class="gate" x1="32.20" y1="25.00" x2="34.20" y2="25.00"/>
<text class="gate-label-left" x="31.80" y="25.00"><tspan x="31.80" dy="0">infotypeequalsoauth</tspan></text>
<line class="gate" x1="9.00" y1="45.92" x2="11.00" y2="45.92"/>
<text class="gate-label-left" x="8.60" y="45.24"><tspan x="8.60" dy="0">apike</tspan><tspan x="8.60" dy="0.68">ydedu</tspan><tspan x="8.60" dy="0.68">pdone</tspan></text>
<line class="gate" x1="32.20" y1="45.92" x2="34.20" y2="45.92"/>
<text class="gate-label-left" x="31.80" y="45.92"><tspan x="31.80" dy="0">oauthdedupdone</tspan></text>
<line class="gate" x1="9.00" y1="59.38" x2="11.00" y2="59.38"/>
<text class="gate-label-left" x="8.60" y="59.04"><tspan x="8.60" dy="0">existing記</tspan><tspan x="8.60" dy="0.68">錄found</tspan></text>
<line class="gate" x1="32.20" y1="59.38" x2="34.20" y2="59.38"/>
<text class="gate-label-left" x="31.80" y="59.38"><tspan x="31.80" dy="0">無比對generatenewid使用suffix</tspan></text>
<line class="gate" x1="9.00" y1="68.02" x2="11.00" y2="68.02"/>
<text class="gate-label-left" x="8.60" y="67.68"><tspan x="8.60" dy="0">帳號更新</tspan><tspan x="8.60" dy="0.68">persisted</tspan></text>
<line class="gate" x1="32.20" y1="68.02" x2="34.20" y2="68.02"/>
<text class="gate-label-left" x="31.80" y="68.02"><tspan x="31.80" dy="0">帳號jsonatomicwriteok</tspan></text>
</svg>