<svg xmlns="http://www.w3.org/2000/svg" width="1415" height="2320" viewBox="-15.00 -2.00 70.75 116.00" role="img">
<style>
.step{fill:#fff;stroke:#111;stroke-width:.14}.step-inner{fill:none;stroke:#111;stroke-width:.08}
.action{fill:#fff;stroke:#111;stroke-width:.14}.gate{stroke:#111;stroke-width:.16}
.edge{fill:none;stroke:#111;stroke-width:.05;stroke-linecap:round;stroke-linejoin:round}.edge-arrow{marker-end:url(#arrow)}
.flyover-mask{stroke:#fff;stroke-width:.12;stroke-linecap:round}
.flyover{fill:none;stroke:#111;stroke-width:.05;stroke-linecap:round}
.junction{fill:#111;stroke:#111;stroke-width:0}.branch-junction{fill:#fff;stroke:#111;stroke-width:.08}
.assoc{stroke:#111;stroke-width:.05}.label{font:bold .7px 'Times New Roman', 'BiauKai', 'DFKai-SB', serif;text-anchor:middle;dominant-baseline:middle}
.action-label{font:.55px 'Times New Roman', 'BiauKai', 'DFKai-SB', serif;text-anchor:middle;dominant-baseline:middle}.gate-label{font:italic .55px 'Times New Roman', 'BiauKai', 'DFKai-SB', serif;text-anchor:start;dominant-baseline:middle}.gate-label-left{font:italic .55px 'Times New Roman', 'BiauKai', 'DFKai-SB', serif;text-anchor:end;dominant-baseline:middle}
</style>
<defs><marker id="arrow" markerWidth="0.4" markerHeight="0.4" refX="0.36" refY="0.2" orient="auto" markerUnits="userSpaceOnUse"><path d="M 0 0 L 0.4 0.2 L 0 0.4 z" fill="#111"/></marker></defs>
<rect x="-15.00" y="-2.00" width="70.75" height="116.00" fill="white"/>
<path class="edge edge-arrow" d="M 19.90 88.00 L 19.90 92.00"/>
<path class="edge" d="M 19.90 7.00 L 19.90 9.00"/>
<path class="edge edge-arrow" d="M 19.90 9.00 L 19.90 11.00"/>
<path class="edge" d="M 19.90 14.00 L 19.90 16.00"/>
<path class="edge edge-arrow" d="M 19.90 16.00 L 19.90 18.00"/>
<path class="edge" d="M 19.90 21.00 L 19.90 23.00"/>
<path class="edge edge-arrow" d="M 19.90 23.00 L 19.90 25.00"/>
<path class="edge edge-arrow" d="M 19.90 28.00 L 19.90 30.00"/>
<path class="edge edge-arrow" d="M 9.95 30.00 L 9.95 34.00"/>
<path class="edge edge-arrow" d="M 29.85 30.00 L 29.85 34.00"/>
<path class="edge edge-arrow" d="M 9.95 37.00 L 9.95 41.00"/>
<path class="edge edge-arrow" d="M 19.90 41.00 L 19.90 45.00"/>
<path class="edge edge-arrow" d="M 29.85 37.00 L 29.85 41.00"/>
<path class="edge edge-arrow" d="M 19.90 48.00 L 19.90 50.00"/>
<path class="edge edge-arrow" d="M 0.00 50.00 L 0.00 54.00"/>
<path class="edge edge-arrow" d="M 9.95 50.00 L 9.95 54.00"/>
<path class="edge edge-arrow" d="M 39.80 50.00 L 39.80 54.00"/>
<path class="edge edge-arrow" d="M 29.85 50.00 L 29.85 54.00"/>
<path class="edge edge-arrow" d="M 0.00 57.00 L 0.00 63.00"/>
<path class="edge edge-arrow" d="M 9.95 63.00 L 9.95 65.00"/>
<path class="edge" d="M 9.95 57.00 L 9.95 59.00"/>
<path class="edge edge-arrow" d="M 9.95 59.00 L 9.95 63.00"/>
<path class="edge edge-arrow" d="M 9.95 59.00 L 49.25 59.00 Q 49.75 59.00 49.75 59.50 L 49.75 92.00"/>
<path class="edge edge-arrow" d="M 19.90 92.00 L 19.90 94.00"/>
<path class="edge edge-arrow" d="M 39.80 57.00 L 39.80 72.00"/>
<path class="edge edge-arrow" d="M 19.90 72.00 L 19.90 74.00"/>
<path class="edge edge-arrow" d="M 29.85 57.00 L 29.85 63.00"/>
<path class="edge edge-arrow" d="M 9.95 68.00 L 9.95 72.00"/>
<path class="edge" d="M 19.90 77.00 L 19.90 79.00"/>
<path class="edge" d="M 19.90 79.00 L 19.90 81.00"/>
<path class="edge edge-arrow" d="M 19.90 81.00 L 19.90 83.00"/>
<path class="edge edge-arrow" d="M 19.90 79.00 L 29.35 79.00 Q 29.85 79.00 29.85 79.50 L 29.85 92.00"/>
<path class="edge edge-arrow" d="M 19.90 86.00 L 19.90 88.00"/>
<path class="edge" d="M 19.90 88.00 L -7.50 88.00 Q -8.00 88.00 -8.00 87.50 L -8.00 43.50 Q -8.00 43.00 -7.50 43.00 L 19.90 43.00"/>
<path class="edge edge-arrow" d="M 19.90 97.00 L 19.90 99.00"/>
<path class="edge edge-arrow" d="M 19.90 99.00 L -9.50 99.00 Q -10.00 99.00 -10.00 98.50 L -10.00 2.50 Q -10.00 2.00 -9.50 2.00 L 19.40 2.00 Q 19.90 2.00 19.90 2.50 L 19.90 4.00"/>
<path class="edge edge-arrow" d="M 19.90 99.00 L 19.90 103.00"/>
<path class="edge" d="M 19.90 106.00 L 19.90 108.00"/>
<path class="edge" d="M 19.90 108.00 L 19.90 110.00"/>
<path class="edge" d="M 19.90 110.00 L -10.00 110.00"/>
<path class="edge" d="M -10.00 110.00 L -10.00 99.00"/>
<rect class="step" x="17.90" y="4.00" width="4.00" height="3.00"/>
<rect class="step-inner" x="18.15" y="4.25" width="3.50" height="2.50"/>
<text class="label" x="19.90" y="5.50">0</text>
<rect class="step" x="17.90" y="11.00" width="4.00" height="3.00"/>
<text class="label" x="19.90" y="12.50">1</text>
<rect class="step" x="17.90" y="18.00" width="4.00" height="3.00"/>
<text class="label" x="19.90" y="19.50">2</text>
<rect class="step" x="17.90" y="25.00" width="4.00" height="3.00"/>
<text class="label" x="19.90" y="26.50">3</text>
<rect class="step" x="7.95" y="34.00" width="4.00" height="3.00"/>
<text class="label" x="9.95" y="35.50">4</text>
<rect class="step" x="27.85" y="34.00" width="4.00" height="3.00"/>
<text class="label" x="29.85" y="35.50">5</text>
<rect class="step" x="17.90" y="45.00" width="4.00" height="3.00"/>
<text class="label" x="19.90" y="46.50">6</text>
<rect class="step" x="-2.00" y="54.00" width="4.00" height="3.00"/>
<text class="label" x="0.00" y="55.50">7</text>
<rect class="step" x="7.95" y="54.00" width="4.00" height="3.00"/>
<text class="label" x="9.95" y="55.50">8</text>
<rect class="step" x="37.80" y="54.00" width="4.00" height="3.00"/>
<text class="label" x="39.80" y="55.50">9</text>
<rect class="step" x="27.85" y="54.00" width="4.00" height="3.00"/>
<text class="label" x="29.85" y="55.50">10</text>
<rect class="step" x="7.95" y="65.00" width="4.00" height="3.00"/>
<text class="label" x="9.95" y="66.50">11</text>
<rect class="step" x="17.90" y="74.00" width="4.00" height="3.00"/>
<text class="label" x="19.90" y="75.50">12</text>
<rect class="step" x="17.90" y="83.00" width="4.00" height="3.00"/>
<text class="label" x="19.90" y="84.50">13</text>
<rect class="step" x="17.90" y="94.00" width="4.00" height="3.00"/>
<text class="label" x="19.90" y="95.50">14</text>
<rect class="step" x="17.90" y="103.00" width="4.00" height="3.00"/>
<text class="label" x="19.90" y="104.50">15</text>
<line class="assoc" x1="21.90" y1="5.50" x2="22.90" y2="5.50"/>
<rect class="action" x="22.90" y="4.07" width="3.95" height="2.86" rx="0.45" ry="0.45"/>
<text class="action-label" x="24.88" y="5.09"><tspan x="24.88" dy="0">等待使用</tspan><tspan x="24.88" dy="0.82">者輸入閒置</tspan></text>
<line class="assoc" x1="21.90" y1="12.50" x2="22.90" y2="12.50"/>
<rect class="action" x="22.90" y="11.07" width="3.95" height="2.86" rx="0.45" ry="0.45"/>
<text class="action-label" x="24.88" y="11.68"><tspan x="24.88" dy="0">納入使用</tspan><tspan x="24.88" dy="0.82">者文字移</tspan><tspan x="24.88" dy="0.82">除合成</tspan></text>
<line class="assoc" x1="21.90" y1="19.50" x2="22.90" y2="19.50"/>
<rect class="action" x="22.90" y="18.07" width="3.95" height="2.86" rx="0.45" ry="0.45"/>
<text class="action-label" x="24.88" y="19.09"><tspan x="24.88" dy="0">預載與釘</tspan><tspan x="24.88" dy="0.82">選必要技能</tspan></text>
<line class="assoc" x1="21.90" y1="26.50" x2="22.90" y2="26.50"/>
<rect class="action" x="22.90" y="25.07" width="3.95" height="2.86" rx="0.45" ry="0.45"/>
<text class="action-label" x="24.88" y="25.68"><tspan x="24.88" dy="0">比對啟用停</tspan><tspan x="24.88" dy="0.82">用短語與更</tspan><tspan x="24.88" dy="0.82">新工作流程</tspan></text>
<line class="assoc" x1="11.95" y1="35.50" x2="12.95" y2="35.50"/>
<rect class="action" x="12.95" y="34.07" width="3.95" height="2.86" rx="0.45" ry="0.45"/>
<text class="action-label" x="14.92" y="35.09"><tspan x="14.92" dy="0">規劃延續</tspan><tspan x="14.92" dy="0.82">已啟用路徑</tspan></text>
<line class="assoc" x1="31.85" y1="35.50" x2="32.85" y2="35.50"/>
<rect class="action" x="32.85" y="34.07" width="3.95" height="2.86" rx="0.45" ry="0.45"/>
<text class="action-label" x="34.82" y="34.68"><tspan x="34.82" dy="0">視為作為</tspan><tspan x="34.82" dy="0.82">單次回合</tspan><tspan x="34.82" dy="0.82">使用者回合</tspan></text>
<line class="assoc" x1="21.90" y1="46.50" x2="22.90" y2="46.50"/>
<rect class="action" x="22.90" y="45.07" width="3.95" height="2.86" rx="0.45" ry="0.45"/>
<text class="action-label" x="24.88" y="45.68"><tspan x="24.88" dy="0">組裝提示</tspan><tspan x="24.88" dy="0.82">與執行模</tspan><tspan x="24.88" dy="0.82">型步驟</tspan></text>
<line class="assoc" x1="2.00" y1="55.50" x2="3.00" y2="55.50"/>
<rect class="action" x="3.00" y="54.07" width="3.95" height="2.86" rx="0.45" ry="0.45"/>
<text class="action-label" x="4.97" y="54.68"><tspan x="4.97" dy="0">派發子代</tspan><tspan x="4.97" dy="0.82">理非同步</tspan><tspan x="4.97" dy="0.82">與繼續回合</tspan></text>
<line class="assoc" x1="11.95" y1="55.50" x2="12.95" y2="55.50"/>
<rect class="action" x="12.95" y="54.07" width="3.95" height="2.86" rx="0.45" ry="0.45"/>
<text class="action-label" x="14.92" y="54.68"><tspan x="14.92" dy="0">詢問問題</tspan><tspan x="14.92" dy="0.82">區塊並等</tspan><tspan x="14.92" dy="0.82">待回覆</tspan></text>
<line class="assoc" x1="41.80" y1="55.50" x2="42.80" y2="55.50"/>
<rect class="action" x="42.80" y="54.07" width="3.95" height="2.86" rx="0.45" ry="0.45"/>
<text class="action-label" x="44.77" y="55.09"><tspan x="44.77" dy="0">結束無更</tspan><tspan x="44.77" dy="0.82">多工具回合</tspan></text>
<line class="assoc" x1="31.85" y1="55.50" x2="32.85" y2="55.50"/>
<rect class="action" x="32.85" y="54.07" width="3.95" height="2.86" rx="0.45" ry="0.45"/>
<text class="action-label" x="34.82" y="55.09"><tspan x="34.82" dy="0">平行執行</tspan><tspan x="34.82" dy="0.82">其他工具</tspan></text>
<line class="assoc" x1="11.95" y1="66.50" x2="12.95" y2="66.50"/>
<rect class="action" x="12.95" y="65.07" width="3.95" height="2.86" rx="0.45" ry="0.45"/>
<text class="action-label" x="14.92" y="65.68"><tspan x="14.92" dy="0">合併工具</tspan><tspan x="14.92" dy="0.82">結果回到</tspan><tspan x="14.92" dy="0.82">進入回合</tspan></text>
<line class="assoc" x1="21.90" y1="75.50" x2="22.90" y2="75.50"/>
<rect class="action" x="22.90" y="74.07" width="3.95" height="2.86" rx="0.45" ry="0.45"/>
<text class="action-label" x="24.88" y="74.68"><tspan x="24.88" dy="0">檢查子代</tspan><tspan x="24.88" dy="0.82">理配額軟</tspan><tspan x="24.88" dy="0.82">收尾門檻</tspan></text>
<line class="assoc" x1="21.90" y1="84.50" x2="22.90" y2="84.50"/>
<rect class="action" x="22.90" y="83.07" width="3.95" height="2.86" rx="0.45" ry="0.45"/>
<text class="action-label" x="24.88" y="83.68"><tspan x="24.88" dy="0">規劃下一</tspan><tspan x="24.88" dy="0.82">個動作繼</tspan><tspan x="24.88" dy="0.82">續或停止</tspan></text>
<line class="assoc" x1="21.90" y1="95.50" x2="22.90" y2="95.50"/>
<rect class="action" x="22.90" y="94.07" width="3.95" height="2.86" rx="0.45" ry="0.45"/>
<text class="action-label" x="24.88" y="94.68"><tspan x="24.88" dy="0">閒置會話</tspan><tspan x="24.88" dy="0.82">直到使用</tspan><tspan x="24.88" dy="0.82">者或心跳</tspan></text>
<line class="assoc" x1="21.90" y1="104.50" x2="22.90" y2="104.50"/>
<rect class="action" x="22.90" y="103.07" width="3.95" height="2.86" rx="0.45" ry="0.45"/>
<text class="action-label" x="24.88" y="103.68"><tspan x="24.88" dy="0">排程器派發</tspan><tspan x="24.88" dy="0.82">工作並注入</tspan><tspan x="24.88" dy="0.82">合成使用者</tspan></text>
<line class="gate" x1="18.90" y1="9.00" x2="20.90" y2="9.00"/>
<text class="gate-label" x="21.30" y="9.00"><tspan x="21.30" dy="0">使用者訊息已收到</tspan></text>
<line class="gate" x1="18.90" y1="16.00" x2="20.90" y2="16.00"/>
<text class="gate-label" x="21.30" y="16.00"><tspan x="21.30" dy="0">使用者文字已取出</tspan></text>
<line class="gate" x1="18.90" y1="23.00" x2="20.90" y2="23.00"/>
<text class="gate-label" x="21.30" y="23.00"><tspan x="21.30" dy="0">技能已解析 &amp;&amp; 釘選完成</tspan></text>
<line class="gate" x1="5.95" y1="30.00" x2="33.85" y2="30.00"/>
<line class="gate" x1="7.95" y1="41.00" x2="31.85" y2="41.00"/>
<line class="gate" x1="-4.00" y1="50.00" x2="43.80" y2="50.00"/>
<line class="gate" x1="-2.00" y1="63.00" x2="31.85" y2="63.00"/>
<line class="gate" x1="17.90" y1="92.00" x2="51.75" y2="92.00"/>
<line class="gate" x1="7.95" y1="72.00" x2="41.80" y2="72.00"/>
<line class="gate" x1="18.90" y1="81.00" x2="20.90" y2="81.00"/>
<text class="gate-label-left" x="18.50" y="81.00"><tspan x="18.50" dy="0">是子代理會話 &amp;&amp; 配額低於紅線 -&gt; 下一回合收尾</tspan></text>
<circle class="branch-junction" cx="19.90" cy="88.00" r="0.28"/>
<line class="gate" x1="15.90" y1="99.00" x2="23.90" y2="99.00"/>
<line class="gate" x1="18.90" y1="108.00" x2="20.90" y2="108.00"/>
<text class="gate-label" x="21.30" y="108.00"><tspan x="21.30" dy="0">工作已派發 &amp;&amp; 合成訊息已種入</tspan></text>
<line class="gate" x1="8.95" y1="32.00" x2="10.95" y2="32.00"/>
<text class="gate-label-left" x="8.55" y="32.00"><tspan x="8.55" dy="0">工作流程自主已啟用 == 是</tspan></text>
<line class="gate" x1="28.85" y1="32.00" x2="30.85" y2="32.00"/>
<text class="gate-label-left" x="28.45" y="32.00"><tspan x="28.45" dy="0">工作流程自主已啟用 == 否</tspan></text>
<line class="gate" x1="8.95" y1="39.00" x2="10.95" y2="39.00"/>
<text class="gate-label-left" x="8.55" y="39.00"><tspan x="8.55" dy="0">父層ID==空 &amp;&amp; 下一個可執行待辦!=空</tspan></text>
<line class="gate" x1="28.85" y1="39.00" x2="30.85" y2="39.00"/>
<text class="gate-label-left" x="28.45" y="39.00"><tspan x="28.45" dy="0">單次回合就緒</tspan></text>
<line class="gate" x1="-1.00" y1="52.00" x2="1.00" y2="52.00"/>
<text class="gate-label-left" x="-1.40" y="52.00"><tspan x="-1.40" dy="0">工具呼叫任務派發</tspan></text>
<line class="gate" x1="8.95" y1="52.00" x2="10.95" y2="52.00"/>
<text class="gate-label-left" x="8.55" y="52.00"><tspan x="8.55" dy="0">工具呼叫問題</tspan></text>
<line class="gate" x1="38.80" y1="52.00" x2="40.80" y2="52.00"/>
<text class="gate-label-left" x="38.40" y="52.00"><tspan x="38.40" dy="0">助手完成無工具</tspan></text>
<line class="gate" x1="28.85" y1="52.00" x2="30.85" y2="52.00"/>
<text class="gate-label-left" x="28.45" y="52.00"><tspan x="28.45" dy="0">工具呼叫其他平行</tspan></text>
<line class="gate" x1="-1.00" y1="61.00" x2="1.00" y2="61.00"/>
<text class="gate-label-left" x="-1.40" y="60.32"><tspan x="-1.40" dy="0">已派發==是</tspan><tspan x="-1.40" dy="0.68">&amp;&amp; 父層回</tspan><tspan x="-1.40" dy="0.68">合已返回</tspan></text>
<line class="gate" x1="8.95" y1="61.00" x2="10.95" y2="61.00"/>
<text class="gate-label-left" x="8.55" y="61.00"><tspan x="8.55" dy="0">回覆已收到或已解析</tspan></text>
<line class="gate" x1="48.75" y1="90.00" x2="50.75" y2="90.00"/>
<text class="gate-label" x="51.15" y="89.32"><tspan x="51.15" dy="0">中止</tspan><tspan x="51.15" dy="0.68">訊號</tspan><tspan x="51.15" dy="0.68">已觸發</tspan></text>
<line class="gate" x1="38.80" y1="70.00" x2="40.80" y2="70.00"/>
<text class="gate-label-left" x="38.40" y="70.00"><tspan x="38.40" dy="0">助手乾淨完成</tspan></text>
<line class="gate" x1="28.85" y1="61.00" x2="30.85" y2="61.00"/>
<text class="gate-label-left" x="28.45" y="61.00"><tspan x="28.45" dy="0">所有工具結果就緒</tspan></text>
<line class="gate" x1="8.95" y1="70.00" x2="10.95" y2="70.00"/>
<text class="gate-label-left" x="8.55" y="70.00"><tspan x="8.55" dy="0">工具結果已提交</tspan></text>
<line class="gate" x1="28.85" y1="90.00" x2="30.85" y2="90.00"/>
<text class="gate-label" x="31.25" y="90.00"><tspan x="31.25" dy="0">無配額觸發</tspan></text>
<line class="gate" x1="-9.00" y1="81.50" x2="-7.00" y2="81.50"/>
<text class="gate-label" x="-6.60" y="80.82"><tspan x="-6.60" dy="0">已啟用 &amp;&amp; (下一個</tspan><tspan x="-6.60" dy="0.68">可執行待辦!=空</tspan><tspan x="-6.60" dy="0.68">|| 補充啟用規劃)</tspan></text>
<line class="gate" x1="18.90" y1="90.00" x2="20.90" y2="90.00"/>
<text class="gate-label" x="21.30" y="89.32"><tspan x="21.30" dy="0">停止：子代理</tspan><tspan x="21.30" dy="0.68">會話或未啟用</tspan><tspan x="21.30" dy="0.68">或待辦完成</tspan></text>
<line class="gate" x1="-11.00" y1="60.50" x2="-9.00" y2="60.50"/>
<text class="gate-label-left" x="-11.40" y="59.82"><tspan x="-11.40" dy="0">下一個</tspan><tspan x="-11.40" dy="0.68">使用者</tspan><tspan x="-11.40" dy="0.68">訊息</tspan></text>
<line class="gate" x1="18.90" y1="101.00" x2="20.90" y2="101.00"/>
<text class="gate-label" x="21.30" y="101.00"><tspan x="21.30" dy="0">排程心跳派發到期工作</tspan></text>
<circle class="junction" cx="19.90" cy="43.00" r="0.22"/>
<circle class="junction" cx="-10.00" cy="99.00" r="0.22"/>
<circle class="branch-junction" cx="9.95" cy="59.00" r="0.28"/>
<circle class="branch-junction" cx="19.90" cy="79.00" r="0.28"/>
</svg>