<svg xmlns="http://www.w3.org/2000/svg" width="834" height="1817" viewBox="-2.00 -2.00 41.68 90.84" role="img">
<style>
.step{fill:#fff;stroke:#111;stroke-width:.14}.step-inner{fill:none;stroke:#111;stroke-width:.08}
.action{fill:#fff;stroke:#111;stroke-width:.14}.gate{stroke:#111;stroke-width:.16}
.edge{fill:none;stroke:#111;stroke-width:.05;stroke-linecap:round;stroke-linejoin:round}.edge-arrow{marker-end:url(#arrow)}
.flyover-mask{stroke:#fff;stroke-width:.12;stroke-linecap:round}
.flyover{fill:none;stroke:#111;stroke-width:.05;stroke-linecap:round}
.junction{fill:#111;stroke:#111;stroke-width:0}.branch-junction{fill:#fff;stroke:#111;stroke-width:.08}
.assoc{stroke:#111;stroke-width:.05}.label{font:bold .7px 'Times New Roman', 'BiauKai', 'DFKai-SB', serif;text-anchor:middle;dominant-baseline:middle}
.action-label{font:.55px 'Times New Roman', 'BiauKai', 'DFKai-SB', serif;text-anchor:middle;dominant-baseline:middle}.gate-label{font:italic .55px 'Times New Roman', 'BiauKai', 'DFKai-SB', serif;text-anchor:start;dominant-baseline:middle}.gate-label-left{font:italic .55px 'Times New Roman', 'BiauKai', 'DFKai-SB', serif;text-anchor:end;dominant-baseline:middle}
</style>
<defs><marker id="arrow" markerWidth="0.4" markerHeight="0.4" refX="0.36" refY="0.2" orient="auto" markerUnits="userSpaceOnUse"><path d="M 0 0 L 0.4 0.2 L 0 0.4 z" fill="#111"/></marker></defs>
<rect x="-2.00" y="-2.00" width="41.68" height="90.84" fill="white"/>
<path class="edge" d="M 19.56 7.00 L 19.56 9.00"/>
<path class="edge edge-arrow" d="M 19.56 9.00 L 19.56 11.00"/>
<path class="edge" d="M 19.56 14.00 L 19.56 16.00"/>
<path class="edge edge-arrow" d="M 19.56 16.00 L 19.56 18.00"/>
<path class="edge" d="M 19.56 21.00 L 19.56 23.00"/>
<path class="edge edge-arrow" d="M 19.56 23.00 L 19.56 25.00"/>
<path class="edge edge-arrow" d="M 19.56 28.00 L 19.56 30.00"/>
<path class="edge edge-arrow" d="M 10.00 30.00 L 10.00 36.46"/>
<path class="edge edge-arrow" d="M 19.56 30.00 L 19.56 36.46"/>
<path class="edge edge-arrow" d="M 29.12 30.00 L 29.12 36.46"/>
<path class="edge edge-arrow" d="M 10.00 39.46 L 10.00 43.46"/>
<path class="edge edge-arrow" d="M 19.56 43.46 L 19.56 47.92"/>
<path class="edge edge-arrow" d="M 19.56 39.46 L 19.56 43.46"/>
<path class="edge edge-arrow" d="M 29.12 39.46 L 29.12 43.46"/>
<path class="edge edge-arrow" d="M 19.56 50.92 L 19.56 52.92"/>
<path class="edge edge-arrow" d="M 10.00 52.92 L 10.00 59.38"/>
<path class="edge edge-arrow" d="M 29.12 52.92 L 29.12 59.38"/>
<path class="edge edge-arrow" d="M 10.00 62.38 L 10.00 66.38"/>
<path class="edge edge-arrow" d="M 19.56 66.38 L 19.56 70.84"/>
<path class="edge edge-arrow" d="M 29.12 62.38 L 29.12 66.38"/>
<path class="edge" d="M 19.56 73.84 L 19.56 75.84"/>
<path class="edge edge-arrow" d="M 19.56 75.84 L 19.56 77.84"/>
<path class="edge" d="M 19.56 80.84 L 19.56 82.84"/>
<path class="edge edge-arrow" d="M 19.56 82.84 L 19.56 84.34 Q 19.56 84.84 19.06 84.84 L 2.50 84.84 Q 2.00 84.84 2.00 84.34 L 2.00 2.50 Q 2.00 2.00 2.50 2.00 L 19.06 2.00 Q 19.56 2.00 19.56 2.50 L 19.56 4.00"/>
<rect class="step" x="17.56" y="4.00" width="4.00" height="3.00"/>
<rect class="step-inner" x="17.81" y="4.25" width="3.50" height="2.50"/>
<text class="label" x="19.56" y="5.50">0</text>
<rect class="step" x="17.56" y="11.00" width="4.00" height="3.00"/>
<text class="label" x="19.56" y="12.50">1</text>
<rect class="step" x="17.56" y="18.00" width="4.00" height="3.00"/>
<text class="label" x="19.56" y="19.50">2</text>
<rect class="step" x="17.56" y="25.00" width="4.00" height="3.00"/>
<text class="label" x="19.56" y="26.50">3</text>
<rect class="step" x="8.00" y="36.46" width="4.00" height="3.00"/>
<text class="label" x="10.00" y="37.96">4</text>
<rect class="step" x="17.56" y="36.46" width="4.00" height="3.00"/>
<text class="label" x="19.56" y="37.96">5</text>
<rect class="step" x="27.12" y="36.46" width="4.00" height="3.00"/>
<text class="label" x="29.12" y="37.96">6</text>
<rect class="step" x="17.56" y="47.92" width="4.00" height="3.00"/>
<text class="label" x="19.56" y="49.42">7</text>
<rect class="step" x="8.00" y="59.38" width="4.00" height="3.00"/>
<text class="label" x="10.00" y="60.88">8</text>
<rect class="step" x="27.12" y="59.38" width="4.00" height="3.00"/>
<text class="label" x="29.12" y="60.88">9</text>
<rect class="step" x="17.56" y="70.84" width="4.00" height="3.00"/>
<text class="label" x="19.56" y="72.34">10</text>
<rect class="step" x="17.56" y="77.84" width="4.00" height="3.00"/>
<text class="label" x="19.56" y="79.34">11</text>
<line class="assoc" x1="21.56" y1="5.50" x2="22.56" y2="5.50"/>
<rect class="action" x="22.56" y="4.07" width="3.56" height="2.86" rx="0.45" ry="0.45"/>
<text class="action-label" x="24.34" y="5.09"><tspan x="24.34" dy="0">管理面</tspan><tspan x="24.34" dy="0.82">板閒置</tspan></text>
<line class="assoc" x1="21.56" y1="12.50" x2="22.56" y2="12.50"/>
<rect class="action" x="22.56" y="11.07" width="3.56" height="2.86" rx="0.45" ry="0.45"/>
<text class="action-label" x="24.34" y="11.68"><tspan x="24.34" dy="0">fetchm</tspan><tspan x="24.34" dy="0.82">arketc</tspan><tspan x="24.34" dy="0.82">atalog</tspan></text>
<line class="assoc" x1="21.56" y1="19.50" x2="22.56" y2="19.50"/>
<rect class="action" x="22.56" y="18.07" width="3.56" height="2.86" rx="0.45" ry="0.45"/>
<text class="action-label" x="24.34" y="19.09"><tspan x="24.34" dy="0">渲染unifie</tspan><tspan x="24.34" dy="0.82">dcardgrid</tspan></text>
<line class="assoc" x1="21.56" y1="26.50" x2="22.56" y2="26.50"/>
<rect class="action" x="22.56" y="25.07" width="3.56" height="2.86" rx="0.45" ry="0.45"/>
<text class="action-label" x="24.34" y="25.68"><tspan x="24.34" dy="0">classi</tspan><tspan x="24.34" dy="0.82">fykind</tspan><tspan x="24.34" dy="0.82">branch</tspan></text>
<line class="assoc" x1="12.00" y1="37.96" x2="13.00" y2="37.96"/>
<rect class="action" x="13.00" y="36.53" width="3.56" height="2.86" rx="0.45" ry="0.45"/>
<text class="action-label" x="14.78" y="37.14"><tspan x="14.78" dy="0">conne</tspan><tspan x="14.78" dy="0.82">ctmcp伺</tspan><tspan x="14.78" dy="0.82">服器</tspan></text>
<line class="assoc" x1="21.56" y1="37.96" x2="22.56" y2="37.96"/>
<rect class="action" x="22.56" y="36.53" width="3.56" height="2.86" rx="0.45" ry="0.45"/>
<text class="action-label" x="24.34" y="37.14"><tspan x="24.34" dy="0">instal</tspan><tspan x="24.34" dy="0.82">lmanag</tspan><tspan x="24.34" dy="0.82">edapp</tspan></text>
<line class="assoc" x1="31.12" y1="37.96" x2="32.12" y2="37.96"/>
<rect class="action" x="32.12" y="36.53" width="3.56" height="2.86" rx="0.45" ry="0.45"/>
<text class="action-label" x="33.90" y="37.55"><tspan x="33.90" dy="0">preview與註</tspan><tspan x="33.90" dy="0.82">冊storeapp</tspan></text>
<line class="assoc" x1="21.56" y1="49.42" x2="22.56" y2="49.42"/>
<rect class="action" x="22.56" y="47.99" width="3.56" height="2.86" rx="0.45" ry="0.45"/>
<text class="action-label" x="24.34" y="48.60"><tspan x="24.34" dy="0">configu</tspan><tspan x="24.34" dy="0.82">reappse</tspan><tspan x="24.34" dy="0.82">ttings</tspan></text>
<line class="assoc" x1="12.00" y1="60.88" x2="13.00" y2="60.88"/>
<rect class="action" x="13.00" y="59.45" width="3.56" height="2.86" rx="0.45" ry="0.45"/>
<text class="action-label" x="14.78" y="60.06"><tspan x="14.78" dy="0">author</tspan><tspan x="14.78" dy="0.82">izeoau</tspan><tspan x="14.78" dy="0.82">thpopup</tspan></text>
<line class="assoc" x1="31.12" y1="60.88" x2="32.12" y2="60.88"/>
<rect class="action" x="32.12" y="59.45" width="3.56" height="2.86" rx="0.45" ry="0.45"/>
<text class="action-label" x="33.90" y="60.06"><tspan x="33.90" dy="0">enable</tspan><tspan x="33.90" dy="0.82">appdir</tspan><tspan x="33.90" dy="0.82">ectly</tspan></text>
<line class="assoc" x1="21.56" y1="72.34" x2="22.56" y2="72.34"/>
<rect class="action" x="22.56" y="70.91" width="3.56" height="2.86" rx="0.45" ry="0.45"/>
<text class="action-label" x="24.34" y="71.52"><tspan x="24.34" dy="0">refetch與</tspan><tspan x="24.34" dy="0.82">show狀態</tspan><tspan x="24.34" dy="0.82">pill</tspan></text>
<line class="assoc" x1="21.56" y1="79.34" x2="22.56" y2="79.34"/>
<rect class="action" x="22.56" y="77.91" width="3.56" height="2.86" rx="0.45" ry="0.45"/>
<text class="action-label" x="24.34" y="78.52"><tspan x="24.34" dy="0">wait或</tspan><tspan x="24.34" dy="0.82">unins</tspan><tspan x="24.34" dy="0.82">tall</tspan></text>
<line class="gate" x1="18.56" y1="9.00" x2="20.56" y2="9.00"/>
<text class="gate-label" x="20.96" y="8.32"><tspan x="20.96" dy="0">operatoropens對</tspan><tspan x="20.96" dy="0.68">話框appmarket來</tspan><tspan x="20.96" dy="0.68">自layoutl1065</tspan></text>
<line class="gate" x1="18.56" y1="16.00" x2="20.56" y2="16.00"/>
<text class="gate-label" x="20.96" y="16.00"><tspan x="20.96" dy="0">GET mcpmarketreturnedMarketApparray</tspan></text>
<line class="gate" x1="18.56" y1="23.00" x2="20.56" y2="23.00"/>
<text class="gate-label" x="20.96" y="23.00"><tspan x="20.96" dy="0">operatorselectsapp或clicksadd</tspan></text>
<line class="gate" x1="6.00" y1="30.00" x2="33.12" y2="30.00"/>
<line class="gate" x1="8.00" y1="43.46" x2="31.12" y2="43.46"/>
<line class="gate" x1="6.00" y1="52.92" x2="33.12" y2="52.92"/>
<line class="gate" x1="8.00" y1="66.38" x2="31.12" y2="66.38"/>
<line class="gate" x1="18.56" y1="75.84" x2="20.56" y2="75.84"/>
<text class="gate-label" x="20.96" y="75.84"><tspan x="20.96" dy="0">狀態pill在{connected,就緒,已啟用}</tspan></text>
<line class="gate" x1="18.56" y1="82.84" x2="20.56" y2="82.84"/>
<text class="gate-label" x="20.96" y="82.84"><tspan x="20.96" dy="0">對話框closed或uninstall已完成</tspan></text>
<line class="gate" x1="9.00" y1="32.00" x2="11.00" y2="32.00"/>
<text class="gate-label" x="11.40" y="32.00"><tspan x="11.40" dy="0">kind==mcp伺服器</tspan></text>
<line class="gate" x1="18.56" y1="32.00" x2="20.56" y2="32.00"/>
<text class="gate-label" x="20.96" y="32.00"><tspan x="20.96" dy="0">kind==managedapp</tspan></text>
<line class="gate" x1="28.12" y1="32.00" x2="30.12" y2="32.00"/>
<text class="gate-label" x="30.52" y="32.00"><tspan x="30.52" dy="0">kind==mcpapp</tspan></text>
<line class="gate" x1="9.00" y1="41.46" x2="11.00" y2="41.46"/>
<text class="gate-label" x="11.40" y="41.12"><tspan x="11.40" dy="0">伺服器狀態</tspan><tspan x="11.40" dy="0.68">connected</tspan></text>
<line class="gate" x1="18.56" y1="41.46" x2="20.56" y2="41.46"/>
<text class="gate-label" x="20.96" y="40.78"><tspan x="20.96" dy="0">managedappinst</tspan><tspan x="20.96" dy="0.68">allsucceededAND</tspan><tspan x="20.96" dy="0.68">runtime狀態set</tspan></text>
<line class="gate" x1="28.12" y1="41.46" x2="30.12" y2="41.46"/>
<text class="gate-label" x="30.52" y="40.78"><tspan x="30.52" dy="0">previewokAND</tspan><tspan x="30.52" dy="0.68">addapp或clone與</tspan><tspan x="30.52" dy="0.68">註冊persisted</tspan></text>
<line class="gate" x1="9.00" y1="54.92" x2="11.00" y2="54.92"/>
<text class="gate-label-left" x="8.60" y="54.24"><tspan x="8.60" dy="0">needs</tspan><tspan x="8.60" dy="0.68">oauth</tspan><tspan x="8.60" dy="0.68">==true</tspan></text>
<line class="gate" x1="28.12" y1="54.92" x2="30.12" y2="54.92"/>
<text class="gate-label-left" x="27.72" y="54.92"><tspan x="27.72" dy="0">needsoauth==false</tspan></text>
<line class="gate" x1="9.00" y1="64.38" x2="11.00" y2="64.38"/>
<text class="gate-label-left" x="8.60" y="63.70"><tspan x="8.60" dy="0">oauthcallbackpersi</tspan><tspan x="8.60" dy="0.68">stedtokenAND manage</tspan><tspan x="8.60" dy="0.68">dappupdatedemitted</tspan></text>
<line class="gate" x1="28.12" y1="64.38" x2="30.12" y2="64.38"/>
<text class="gate-label-left" x="27.72" y="64.38"><tspan x="27.72" dy="0">已啟用flagsettrue</tspan></text>
</svg>