<svg xmlns="http://www.w3.org/2000/svg" width="1145" height="2183" viewBox="-2.00 -2.00 57.24 109.17" role="img">
<style>
.step{fill:#fff;stroke:#111;stroke-width:.14}.step-inner{fill:none;stroke:#111;stroke-width:.08}
.action{fill:#fff;stroke:#111;stroke-width:.14}.gate{stroke:#111;stroke-width:.16}
.edge{fill:none;stroke:#111;stroke-width:.05;stroke-linecap:round;stroke-linejoin:round}.edge-arrow{marker-end:url(#arrow)}
.flyover-mask{stroke:#fff;stroke-width:.12;stroke-linecap:round}
.flyover{fill:none;stroke:#111;stroke-width:.05;stroke-linecap:round}
.junction{fill:#111;stroke:#111;stroke-width:0}.branch-junction{fill:#fff;stroke:#111;stroke-width:.08}
.assoc{stroke:#111;stroke-width:.05}.label{font:bold .7px 'Times New Roman', 'BiauKai', 'DFKai-SB', serif;text-anchor:middle;dominant-baseline:middle}
.action-label{font:.55px 'Times New Roman', 'BiauKai', 'DFKai-SB', serif;text-anchor:middle;dominant-baseline:middle}.gate-label{font:italic .55px 'Times New Roman', 'BiauKai', 'DFKai-SB', serif;text-anchor:start;dominant-baseline:middle}.gate-label-left{font:italic .55px 'Times New Roman', 'BiauKai', 'DFKai-SB', serif;text-anchor:end;dominant-baseline:middle}
</style>
<defs><marker id="arrow" markerWidth="0.4" markerHeight="0.4" refX="0.36" refY="0.2" orient="auto" markerUnits="userSpaceOnUse"><path d="M 0 0 L 0.4 0.2 L 0 0.4 z" fill="#111"/></marker></defs>
<rect x="-2.00" y="-2.00" width="57.24" height="109.17" fill="white"/>
<path class="edge" d="M 21.06 7.00 L 21.06 9.00"/>
<path class="edge edge-arrow" d="M 21.06 9.00 L 21.06 11.00"/>
<path class="edge edge-arrow" d="M 21.06 14.00 L 21.06 16.00"/>
<path class="edge edge-arrow" d="M 10.00 16.00 L 10.00 20.00"/>
<path class="edge edge-arrow" d="M 32.12 16.00 L 32.12 20.00"/>
<path class="edge edge-arrow" d="M 10.00 23.00 L 10.00 36.00"/>
<path class="edge edge-arrow" d="M 21.06 36.00 L 21.06 38.00"/>
<path class="edge edge-arrow" d="M 32.12 23.00 L 32.12 25.00"/>
<path class="edge edge-arrow" d="M 21.06 25.00 L 21.06 29.00"/>
<path class="edge edge-arrow" d="M 43.18 25.00 L 43.18 29.00"/>
<path class="edge edge-arrow" d="M 21.06 32.00 L 21.06 36.00"/>
<path class="edge edge-arrow" d="M 43.18 32.00 L 43.18 36.00"/>
<path class="edge" d="M 21.06 41.00 L 21.06 43.00"/>
<path class="edge edge-arrow" d="M 21.06 43.00 L 21.06 45.00"/>
<path class="edge" d="M 21.06 48.00 L 21.06 50.00"/>
<path class="edge edge-arrow" d="M 21.06 50.00 L 21.06 52.00"/>
<path class="edge" d="M 21.06 55.00 L 21.06 57.00"/>
<path class="edge edge-arrow" d="M 21.06 57.00 L 21.06 59.00"/>
<path class="edge" d="M 21.06 62.00 L 21.06 64.00"/>
<path class="edge" d="M 21.06 64.00 L 21.06 66.00"/>
<path class="edge edge-arrow" d="M 21.06 66.00 L 21.06 68.00"/>
<path class="edge edge-arrow" d="M 21.06 64.00 L 31.62 64.00 Q 32.12 64.00 32.12 64.50 L 32.12 89.00"/>
<path class="edge edge-arrow" d="M 21.06 89.00 L 21.06 91.00"/>
<path class="edge" d="M 21.06 71.00 L 21.06 73.00"/>
<path class="edge edge-arrow" d="M 21.06 73.00 L 21.06 75.00"/>
<path class="edge" d="M 21.06 78.00 L 21.06 80.00"/>
<path class="edge edge-arrow" d="M 21.06 80.00 L 21.06 82.00"/>
<path class="edge edge-arrow" d="M 21.06 85.00 L 21.06 89.00"/>
<path class="edge" d="M 21.06 94.00 L 21.06 96.00"/>
<path class="edge edge-arrow" d="M 21.06 96.00 L 21.06 98.00"/>
<path class="edge" d="M 21.06 101.00 L 21.06 103.00"/>
<path class="edge edge-arrow" d="M 21.06 103.00 L 2.50 103.00 Q 2.00 103.00 2.00 102.50 L 2.00 2.50 Q 2.00 2.00 2.50 2.00 L 20.56 2.00 Q 21.06 2.00 21.06 2.50 L 21.06 4.00"/>
<rect class="step" x="19.06" y="4.00" width="4.00" height="3.00"/>
<rect class="step-inner" x="19.31" y="4.25" width="3.50" height="2.50"/>
<text class="label" x="21.06" y="5.50">0</text>
<rect class="step" x="19.06" y="11.00" width="4.00" height="3.00"/>
<text class="label" x="21.06" y="12.50">1</text>
<rect class="step" x="8.00" y="20.00" width="4.00" height="3.00"/>
<text class="label" x="10.00" y="21.50">2</text>
<rect class="step" x="30.12" y="20.00" width="4.00" height="3.00"/>
<text class="label" x="32.12" y="21.50">3</text>
<rect class="step" x="19.06" y="29.00" width="4.00" height="3.00"/>
<text class="label" x="21.06" y="30.50">4</text>
<rect class="step" x="41.18" y="29.00" width="4.00" height="3.00"/>
<text class="label" x="43.18" y="30.50">5</text>
<rect class="step" x="19.06" y="38.00" width="4.00" height="3.00"/>
<text class="label" x="21.06" y="39.50">6</text>
<rect class="step" x="19.06" y="45.00" width="4.00" height="3.00"/>
<text class="label" x="21.06" y="46.50">7</text>
<rect class="step" x="19.06" y="52.00" width="4.00" height="3.00"/>
<text class="label" x="21.06" y="53.50">8</text>
<rect class="step" x="19.06" y="59.00" width="4.00" height="3.00"/>
<text class="label" x="21.06" y="60.50">9</text>
<rect class="step" x="19.06" y="68.00" width="4.00" height="3.00"/>
<text class="label" x="21.06" y="69.50">10</text>
<rect class="step" x="19.06" y="75.00" width="4.00" height="3.00"/>
<text class="label" x="21.06" y="76.50">11</text>
<rect class="step" x="19.06" y="82.00" width="4.00" height="3.00"/>
<text class="label" x="21.06" y="83.50">12</text>
<rect class="step" x="19.06" y="91.00" width="4.00" height="3.00"/>
<text class="label" x="21.06" y="92.50">13</text>
<rect class="step" x="19.06" y="98.00" width="4.00" height="3.00"/>
<text class="label" x="21.06" y="99.50">14</text>
<line class="assoc" x1="23.06" y1="5.50" x2="24.06" y2="5.50"/>
<rect class="action" x="24.06" y="4.07" width="5.06" height="2.86" rx="0.45" ry="0.45"/>
<text class="action-label" x="26.59" y="4.68"><tspan x="26.59" dy="0">閒置</tspan><tspan x="26.59" dy="0.82">await</tspan><tspan x="26.59" dy="0.82">ing上傳</tspan></text>
<line class="assoc" x1="23.06" y1="12.50" x2="24.06" y2="12.50"/>
<rect class="action" x="24.06" y="11.07" width="5.06" height="2.86" rx="0.45" ry="0.45"/>
<text class="action-label" x="26.59" y="11.68"><tspan x="26.59" dy="0">解析multi</tspan><tspan x="26.59" dy="0.82">part與</tspan><tspan x="26.59" dy="0.82">detectmime</tspan></text>
<line class="assoc" x1="12.00" y1="21.50" x2="13.00" y2="21.50"/>
<rect class="action" x="13.00" y="20.07" width="5.06" height="2.86" rx="0.45" ry="0.45"/>
<text class="action-label" x="15.53" y="21.09"><tspan x="15.53" dy="0">writeimage到</tspan><tspan x="15.53" dy="0.82">Sessionxdg</tspan></text>
<line class="assoc" x1="34.12" y1="21.50" x2="35.12" y2="21.50"/>
<rect class="action" x="35.12" y="20.07" width="5.06" height="2.86" rx="0.45" ry="0.45"/>
<text class="action-label" x="37.65" y="20.68"><tspan x="37.65" dy="0">sanitize與</tspan><tspan x="37.65" dy="0.82">land在</tspan><tspan x="37.65" dy="0.82">incoming</tspan></text>
<line class="assoc" x1="23.06" y1="30.50" x2="24.06" y2="30.50"/>
<rect class="action" x="24.06" y="29.07" width="5.06" height="2.86" rx="0.45" ry="0.45"/>
<text class="action-label" x="26.59" y="30.09"><tspan x="26.59" dy="0">執行docxaut</tspan><tspan x="26.59" dy="0.82">odecompose</tspan></text>
<line class="assoc" x1="45.18" y1="30.50" x2="46.18" y2="30.50"/>
<rect class="action" x="46.18" y="29.07" width="5.06" height="2.86" rx="0.45" ry="0.45"/>
<text class="action-label" x="48.71" y="29.68"><tspan x="48.71" dy="0">writeinco</tspan><tspan x="48.71" dy="0.82">ming檔案與</tspan><tspan x="48.71" dy="0.82">追加history</tspan></text>
<line class="assoc" x1="23.06" y1="39.50" x2="24.06" y2="39.50"/>
<rect class="action" x="24.06" y="38.07" width="5.06" height="2.86" rx="0.45" ry="0.45"/>
<text class="action-label" x="26.59" y="39.09"><tspan x="26.59" dy="0">發出附件</tspan><tspan x="26.59" dy="0.82">refpart</tspan></text>
<line class="assoc" x1="23.06" y1="46.50" x2="24.06" y2="46.50"/>
<rect class="action" x="24.06" y="45.07" width="5.06" height="2.86" rx="0.45" ry="0.45"/>
<text class="action-label" x="26.59" y="45.68"><tspan x="26.59" dy="0">建置attache</tspan><tspan x="26.59" dy="0.82">dimagesinv</tspan><tspan x="26.59" dy="0.82">entory區塊</tspan></text>
<line class="assoc" x1="23.06" y1="53.50" x2="24.06" y2="53.50"/>
<rect class="action" x="24.06" y="52.07" width="5.06" height="2.86" rx="0.45" ry="0.45"/>
<text class="action-label" x="26.59" y="52.68"><tspan x="26.59" dy="0">組裝prefa</tspan><tspan x="26.59" dy="0.82">cetraili</tspan><tspan x="26.59" dy="0.82">ngextras</tspan></text>
<line class="assoc" x1="23.06" y1="60.50" x2="24.06" y2="60.50"/>
<rect class="action" x="24.06" y="59.07" width="5.06" height="2.86" rx="0.45" ry="0.45"/>
<text class="action-label" x="26.59" y="59.68"><tspan x="26.59" dy="0">等待</tspan><tspan x="26.59" dy="0.82">aide</tspan><tspan x="26.59" dy="0.82">cision</tspan></text>
<line class="assoc" x1="23.06" y1="69.50" x2="24.06" y2="69.50"/>
<rect class="action" x="24.06" y="68.07" width="5.06" height="2.86" rx="0.45" ry="0.45"/>
<text class="action-label" x="26.59" y="68.68"><tspan x="26.59" dy="0">voucherfi</tspan><tspan x="26.59" dy="0.82">lename透過</tspan><tspan x="26.59" dy="0.82">reread工具</tspan></text>
<line class="assoc" x1="23.06" y1="76.50" x2="24.06" y2="76.50"/>
<rect class="action" x="24.06" y="75.07" width="5.06" height="2.86" rx="0.45" ry="0.45"/>
<text class="action-label" x="26.59" y="75.68"><tspan x="26.59" dy="0">追加active</tspan><tspan x="26.59" dy="0.82">imagerefs使</tspan><tspan x="26.59" dy="0.82">用fifocap</tspan></text>
<line class="assoc" x1="23.06" y1="83.50" x2="24.06" y2="83.50"/>
<rect class="action" x="24.06" y="82.07" width="5.06" height="2.86" rx="0.45" ry="0.45"/>
<text class="action-label" x="26.59" y="82.68"><tspan x="26.59" dy="0">load位元組與</tspan><tspan x="26.59" dy="0.82">inline在</tspan><tspan x="26.59" dy="0.82">bp4trailing</tspan></text>
<line class="assoc" x1="23.06" y1="92.50" x2="24.06" y2="92.50"/>
<rect class="action" x="24.06" y="91.07" width="5.06" height="2.86" rx="0.45" ry="0.45"/>
<text class="action-label" x="26.59" y="92.50"><tspan x="26.59" dy="0">串流助手回合</tspan></text>
<line class="assoc" x1="23.06" y1="99.50" x2="24.06" y2="99.50"/>
<rect class="action" x="24.06" y="98.07" width="5.06" height="2.86" rx="0.45" ry="0.45"/>
<text class="action-label" x="26.59" y="99.09"><tspan x="26.59" dy="0">drainActiv</tspan><tspan x="26.59" dy="0.82">eImageRefs</tspan></text>
<line class="gate" x1="20.06" y1="9.00" x2="22.06" y2="9.00"/>
<text class="gate-label" x="22.46" y="9.00"><tspan x="22.46" dy="0">上傳請求已收到</tspan></text>
<line class="gate" x1="6.00" y1="16.00" x2="36.12" y2="16.00"/>
<line class="gate" x1="8.00" y1="36.00" x2="45.18" y2="36.00"/>
<line class="gate" x1="17.06" y1="25.00" x2="47.18" y2="25.00"/>
<line class="gate" x1="20.06" y1="43.00" x2="22.06" y2="43.00"/>
<text class="gate-label" x="22.46" y="43.00"><tspan x="22.46" dy="0">附件refpersisted</tspan></text>
<line class="gate" x1="20.06" y1="50.00" x2="22.06" y2="50.00"/>
<text class="gate-label" x="22.46" y="50.00"><tspan x="22.46" dy="0">Sessionhasimage附件</tspan></text>
<line class="gate" x1="20.06" y1="57.00" x2="22.06" y2="57.00"/>
<text class="gate-label" x="22.46" y="57.00"><tspan x="22.46" dy="0">preface就緒供LLM</tspan></text>
<line class="gate" x1="20.06" y1="66.00" x2="22.06" y2="66.00"/>
<text class="gate-label" x="22.46" y="66.00"><tspan x="22.46" dy="0">aicallsreread附件</tspan></text>
<line class="gate" x1="19.06" y1="89.00" x2="34.12" y2="89.00"/>
<line class="gate" x1="20.06" y1="73.00" x2="22.06" y2="73.00"/>
<text class="gate-label-left" x="19.66" y="73.00"><tspan x="19.66" dy="0">filenamematches附件ref</tspan></text>
<line class="gate" x1="20.06" y1="80.00" x2="22.06" y2="80.00"/>
<text class="gate-label-left" x="19.66" y="80.00"><tspan x="19.66" dy="0">setActiveImageRefsCommitted</tspan></text>
<line class="gate" x1="20.06" y1="96.00" x2="22.06" y2="96.00"/>
<text class="gate-label" x="22.46" y="96.00"><tspan x="22.46" dy="0">步驟完成emitted</tspan></text>
<line class="gate" x1="20.06" y1="103.00" x2="22.06" y2="103.00"/>
<text class="gate-label" x="22.46" y="103.00"><tspan x="22.46" dy="0">activeImageRefsCleared</tspan></text>
<line class="gate" x1="9.00" y1="18.00" x2="11.00" y2="18.00"/>
<text class="gate-label-left" x="8.60" y="17.66"><tspan x="8.60" dy="0">mime.starts使</tspan><tspan x="8.60" dy="0.68">用(&#x27;image/&#x27;)</tspan></text>
<line class="gate" x1="31.12" y1="18.00" x2="33.12" y2="18.00"/>
<text class="gate-label-left" x="30.72" y="18.00"><tspan x="30.72" dy="0">!mime.starts使用(&#x27;image/&#x27;)</tspan></text>
<line class="gate" x1="9.00" y1="34.00" x2="11.00" y2="34.00"/>
<text class="gate-label-left" x="8.60" y="33.66"><tspan x="8.60" dy="0">Session路</tspan><tspan x="8.60" dy="0.68">徑writeok</tspan></text>
<line class="gate" x1="20.06" y1="27.00" x2="22.06" y2="27.00"/>
<text class="gate-label-left" x="19.66" y="26.32"><tspan x="19.66" dy="0">是officemi</tspan><tspan x="19.66" dy="0.68">me(classi</tspan><tspan x="19.66" dy="0.68">fyOffice)</tspan></text>
<line class="gate" x1="42.18" y1="27.00" x2="44.18" y2="27.00"/>
<text class="gate-label-left" x="41.78" y="27.00"><tspan x="41.78" dy="0">!是officemime</tspan></text>
<line class="gate" x1="20.06" y1="34.00" x2="22.06" y2="34.00"/>
<text class="gate-label-left" x="19.66" y="34.00"><tspan x="19.66" dy="0">routingHintRendered</tspan></text>
<line class="gate" x1="42.18" y1="34.00" x2="44.18" y2="34.00"/>
<text class="gate-label-left" x="41.78" y="34.00"><tspan x="41.78" dy="0">jsonlappended來源上傳</tspan></text>
<line class="gate" x1="31.12" y1="87.00" x2="33.12" y2="87.00"/>
<text class="gate-label-left" x="30.72" y="87.00"><tspan x="30.72" dy="0">aiSkipsReread</tspan></text>
<line class="gate" x1="20.06" y1="87.00" x2="22.06" y2="87.00"/>
<text class="gate-label-left" x="19.66" y="87.00"><tspan x="19.66" dy="0">image位元組inlined在trailingextras</tspan></text>
<circle class="branch-junction" cx="21.06" cy="64.00" r="0.28"/>
</svg>