<svg xmlns="http://www.w3.org/2000/svg" width="1145" height="2466" viewBox="-2.00 -2.00 57.24 123.30" role="img">
<style>
.step{fill:#fff;stroke:#111;stroke-width:.14}.step-inner{fill:none;stroke:#111;stroke-width:.08}
.action{fill:#fff;stroke:#111;stroke-width:.14}.gate{stroke:#111;stroke-width:.16}
.edge{fill:none;stroke:#111;stroke-width:.05;stroke-linecap:round;stroke-linejoin:round}.edge-arrow{marker-end:url(#arrow)}
.flyover-mask{stroke:#fff;stroke-width:.12;stroke-linecap:round}
.flyover{fill:none;stroke:#111;stroke-width:.05;stroke-linecap:round}
.junction{fill:#111;stroke:#111;stroke-width:0}.branch-junction{fill:#fff;stroke:#111;stroke-width:.08}
.assoc{stroke:#111;stroke-width:.05}.label{font:bold .7px 'Times New Roman', 'BiauKai', 'DFKai-SB', serif;text-anchor:middle;dominant-baseline:middle}
.action-label{font:.55px 'Times New Roman', 'BiauKai', 'DFKai-SB', serif;text-anchor:middle;dominant-baseline:middle}.gate-label{font:italic .55px 'Times New Roman', 'BiauKai', 'DFKai-SB', serif;text-anchor:start;dominant-baseline:middle}.gate-label-left{font:italic .55px 'Times New Roman', 'BiauKai', 'DFKai-SB', serif;text-anchor:end;dominant-baseline:middle}
</style>
<defs><marker id="arrow" markerWidth="0.4" markerHeight="0.4" refX="0.36" refY="0.2" orient="auto" markerUnits="userSpaceOnUse"><path d="M 0 0 L 0.4 0.2 L 0 0.4 z" fill="#111"/></marker></defs>
<rect x="-2.00" y="-2.00" width="57.24" height="123.30" fill="white"/>
<path class="edge" d="M 21.06 7.00 L 21.06 9.00"/>
<path class="edge edge-arrow" d="M 21.06 9.00 L 21.06 11.00"/>
<path class="edge edge-arrow" d="M 21.06 14.00 L 21.06 16.00"/>
<path class="edge edge-arrow" d="M 10.00 16.00 L 10.00 22.46"/>
<path class="edge edge-arrow" d="M 32.12 16.00 L 32.12 22.46"/>
<path class="edge edge-arrow" d="M 10.00 25.46 L 10.00 40.92"/>
<path class="edge edge-arrow" d="M 21.06 40.92 L 21.06 45.38"/>
<path class="edge edge-arrow" d="M 32.12 25.46 L 32.12 27.46"/>
<path class="edge edge-arrow" d="M 21.06 27.46 L 21.06 33.92"/>
<path class="edge edge-arrow" d="M 43.18 27.46 L 43.18 33.92"/>
<path class="edge edge-arrow" d="M 21.06 36.92 L 21.06 40.92"/>
<path class="edge edge-arrow" d="M 43.18 36.92 L 43.18 40.92"/>
<path class="edge" d="M 21.06 48.38 L 21.06 50.38"/>
<path class="edge edge-arrow" d="M 21.06 50.38 L 21.06 52.38"/>
<path class="edge" d="M 21.06 55.38 L 21.06 57.38"/>
<path class="edge edge-arrow" d="M 21.06 57.38 L 21.06 59.38"/>
<path class="edge" d="M 21.06 62.38 L 21.06 64.38"/>
<path class="edge edge-arrow" d="M 21.06 64.38 L 21.06 66.38"/>
<path class="edge" d="M 21.06 69.38 L 21.06 71.38"/>
<path class="edge" d="M 21.06 71.38 L 21.06 73.38"/>
<path class="edge edge-arrow" d="M 21.06 73.38 L 21.06 77.84"/>
<path class="edge edge-arrow" d="M 21.06 71.38 L 31.62 71.38 Q 32.12 71.38 32.12 71.88 L 32.12 98.84"/>
<path class="edge edge-arrow" d="M 21.06 98.84 L 21.06 103.30"/>
<path class="edge" d="M 21.06 80.84 L 21.06 82.84"/>
<path class="edge edge-arrow" d="M 21.06 82.84 L 21.06 84.84"/>
<path class="edge" d="M 21.06 87.84 L 21.06 89.84"/>
<path class="edge edge-arrow" d="M 21.06 89.84 L 21.06 91.84"/>
<path class="edge edge-arrow" d="M 21.06 94.84 L 21.06 98.84"/>
<path class="edge" d="M 21.06 106.30 L 21.06 108.30"/>
<path class="edge edge-arrow" d="M 21.06 108.30 L 21.06 110.30"/>
<path class="edge" d="M 21.06 113.30 L 21.06 115.30"/>
<path class="edge edge-arrow" d="M 21.06 115.30 L 21.06 116.80 Q 21.06 117.30 20.56 117.30 L 2.50 117.30 Q 2.00 117.30 2.00 116.80 L 2.00 2.50 Q 2.00 2.00 2.50 2.00 L 20.56 2.00 Q 21.06 2.00 21.06 2.50 L 21.06 4.00"/>
<rect class="step" x="19.06" y="4.00" width="4.00" height="3.00"/>
<rect class="step-inner" x="19.31" y="4.25" width="3.50" height="2.50"/>
<text class="label" x="21.06" y="5.50">0</text>
<rect class="step" x="19.06" y="11.00" width="4.00" height="3.00"/>
<text class="label" x="21.06" y="12.50">1</text>
<rect class="step" x="8.00" y="22.46" width="4.00" height="3.00"/>
<text class="label" x="10.00" y="23.96">2</text>
<rect class="step" x="30.12" y="22.46" width="4.00" height="3.00"/>
<text class="label" x="32.12" y="23.96">3</text>
<rect class="step" x="19.06" y="33.92" width="4.00" height="3.00"/>
<text class="label" x="21.06" y="35.42">4</text>
<rect class="step" x="41.18" y="33.92" width="4.00" height="3.00"/>
<text class="label" x="43.18" y="35.42">5</text>
<rect class="step" x="19.06" y="45.38" width="4.00" height="3.00"/>
<text class="label" x="21.06" y="46.88">6</text>
<rect class="step" x="19.06" y="52.38" width="4.00" height="3.00"/>
<text class="label" x="21.06" y="53.88">7</text>
<rect class="step" x="19.06" y="59.38" width="4.00" height="3.00"/>
<text class="label" x="21.06" y="60.88">8</text>
<rect class="step" x="19.06" y="66.38" width="4.00" height="3.00"/>
<text class="label" x="21.06" y="67.88">9</text>
<rect class="step" x="19.06" y="77.84" width="4.00" height="3.00"/>
<text class="label" x="21.06" y="79.34">10</text>
<rect class="step" x="19.06" y="84.84" width="4.00" height="3.00"/>
<text class="label" x="21.06" y="86.34">11</text>
<rect class="step" x="19.06" y="91.84" width="4.00" height="3.00"/>
<text class="label" x="21.06" y="93.34">12</text>
<rect class="step" x="19.06" y="103.30" width="4.00" height="3.00"/>
<text class="label" x="21.06" y="104.80">13</text>
<rect class="step" x="19.06" y="110.30" width="4.00" height="3.00"/>
<text class="label" x="21.06" y="111.80">14</text>
<line class="assoc" x1="23.06" y1="5.50" x2="24.06" y2="5.50"/>
<rect class="action" x="24.06" y="4.07" width="5.06" height="2.86" rx="0.45" ry="0.45"/>
<text class="action-label" x="26.59" y="4.68"><tspan x="26.59" dy="0">閒置</tspan><tspan x="26.59" dy="0.82">await</tspan><tspan x="26.59" dy="0.82">ing上傳</tspan></text>
<line class="assoc" x1="23.06" y1="12.50" x2="24.06" y2="12.50"/>
<rect class="action" x="24.06" y="11.07" width="5.06" height="2.86" rx="0.45" ry="0.45"/>
<text class="action-label" x="26.59" y="11.68"><tspan x="26.59" dy="0">解析multi</tspan><tspan x="26.59" dy="0.82">part與</tspan><tspan x="26.59" dy="0.82">detectmime</tspan></text>
<line class="assoc" x1="12.00" y1="23.96" x2="13.00" y2="23.96"/>
<rect class="action" x="13.00" y="22.53" width="5.06" height="2.86" rx="0.45" ry="0.45"/>
<text class="action-label" x="15.53" y="23.55"><tspan x="15.53" dy="0">writeimage到</tspan><tspan x="15.53" dy="0.82">Sessionxdg</tspan></text>
<line class="assoc" x1="34.12" y1="23.96" x2="35.12" y2="23.96"/>
<rect class="action" x="35.12" y="22.53" width="5.06" height="2.86" rx="0.45" ry="0.45"/>
<text class="action-label" x="37.65" y="23.14"><tspan x="37.65" dy="0">sanitize與</tspan><tspan x="37.65" dy="0.82">land在</tspan><tspan x="37.65" dy="0.82">incoming</tspan></text>
<line class="assoc" x1="23.06" y1="35.42" x2="24.06" y2="35.42"/>
<rect class="action" x="24.06" y="33.99" width="5.06" height="2.86" rx="0.45" ry="0.45"/>
<text class="action-label" x="26.59" y="35.01"><tspan x="26.59" dy="0">執行docxaut</tspan><tspan x="26.59" dy="0.82">odecompose</tspan></text>
<line class="assoc" x1="45.18" y1="35.42" x2="46.18" y2="35.42"/>
<rect class="action" x="46.18" y="33.99" width="5.06" height="2.86" rx="0.45" ry="0.45"/>
<text class="action-label" x="48.71" y="34.60"><tspan x="48.71" dy="0">writeinco</tspan><tspan x="48.71" dy="0.82">ming檔案與</tspan><tspan x="48.71" dy="0.82">追加history</tspan></text>
<line class="assoc" x1="23.06" y1="46.88" x2="24.06" y2="46.88"/>
<rect class="action" x="24.06" y="45.45" width="5.06" height="2.86" rx="0.45" ry="0.45"/>
<text class="action-label" x="26.59" y="46.47"><tspan x="26.59" dy="0">發出附件</tspan><tspan x="26.59" dy="0.82">refpart</tspan></text>
<line class="assoc" x1="23.06" y1="53.88" x2="24.06" y2="53.88"/>
<rect class="action" x="24.06" y="52.45" width="5.06" height="2.86" rx="0.45" ry="0.45"/>
<text class="action-label" x="26.59" y="53.06"><tspan x="26.59" dy="0">建置attache</tspan><tspan x="26.59" dy="0.82">dimagesinv</tspan><tspan x="26.59" dy="0.82">entory區塊</tspan></text>
<line class="assoc" x1="23.06" y1="60.88" x2="24.06" y2="60.88"/>
<rect class="action" x="24.06" y="59.45" width="5.06" height="2.86" rx="0.45" ry="0.45"/>
<text class="action-label" x="26.59" y="60.06"><tspan x="26.59" dy="0">組裝prefa</tspan><tspan x="26.59" dy="0.82">cetraili</tspan><tspan x="26.59" dy="0.82">ngextras</tspan></text>
<line class="assoc" x1="23.06" y1="67.88" x2="24.06" y2="67.88"/>
<rect class="action" x="24.06" y="66.45" width="5.06" height="2.86" rx="0.45" ry="0.45"/>
<text class="action-label" x="26.59" y="67.06"><tspan x="26.59" dy="0">等待</tspan><tspan x="26.59" dy="0.82">aide</tspan><tspan x="26.59" dy="0.82">cision</tspan></text>
<line class="assoc" x1="23.06" y1="79.34" x2="24.06" y2="79.34"/>
<rect class="action" x="24.06" y="77.91" width="5.06" height="2.86" rx="0.45" ry="0.45"/>
<text class="action-label" x="26.59" y="78.52"><tspan x="26.59" dy="0">voucherfi</tspan><tspan x="26.59" dy="0.82">lename透過</tspan><tspan x="26.59" dy="0.82">reread工具</tspan></text>
<line class="assoc" x1="23.06" y1="86.34" x2="24.06" y2="86.34"/>
<rect class="action" x="24.06" y="84.91" width="5.06" height="2.86" rx="0.45" ry="0.45"/>
<text class="action-label" x="26.59" y="85.52"><tspan x="26.59" dy="0">追加active</tspan><tspan x="26.59" dy="0.82">imagerefs使</tspan><tspan x="26.59" dy="0.82">用fifocap</tspan></text>
<line class="assoc" x1="23.06" y1="93.34" x2="24.06" y2="93.34"/>
<rect class="action" x="24.06" y="91.91" width="5.06" height="2.86" rx="0.45" ry="0.45"/>
<text class="action-label" x="26.59" y="92.52"><tspan x="26.59" dy="0">load位元組與</tspan><tspan x="26.59" dy="0.82">inline在</tspan><tspan x="26.59" dy="0.82">bp4trailing</tspan></text>
<line class="assoc" x1="23.06" y1="104.80" x2="24.06" y2="104.80"/>
<rect class="action" x="24.06" y="103.37" width="5.06" height="2.86" rx="0.45" ry="0.45"/>
<text class="action-label" x="26.59" y="104.80"><tspan x="26.59" dy="0">串流助手回合</tspan></text>
<line class="assoc" x1="23.06" y1="111.80" x2="24.06" y2="111.80"/>
<rect class="action" x="24.06" y="110.37" width="5.06" height="2.86" rx="0.45" ry="0.45"/>
<text class="action-label" x="26.59" y="111.39"><tspan x="26.59" dy="0">drainActiv</tspan><tspan x="26.59" dy="0.82">eImageRefs</tspan></text>
<line class="gate" x1="20.06" y1="9.00" x2="22.06" y2="9.00"/>
<text class="gate-label" x="22.46" y="9.00"><tspan x="22.46" dy="0">上傳請求已收到</tspan></text>
<line class="gate" x1="6.00" y1="16.00" x2="36.12" y2="16.00"/>
<line class="gate" x1="8.00" y1="40.92" x2="45.18" y2="40.92"/>
<line class="gate" x1="17.06" y1="27.46" x2="47.18" y2="27.46"/>
<line class="gate" x1="20.06" y1="50.38" x2="22.06" y2="50.38"/>
<text class="gate-label" x="22.46" y="50.38"><tspan x="22.46" dy="0">附件refpersisted</tspan></text>
<line class="gate" x1="20.06" y1="57.38" x2="22.06" y2="57.38"/>
<text class="gate-label" x="22.46" y="57.38"><tspan x="22.46" dy="0">Sessionhasimage附件</tspan></text>
<line class="gate" x1="20.06" y1="64.38" x2="22.06" y2="64.38"/>
<text class="gate-label" x="22.46" y="64.38"><tspan x="22.46" dy="0">preface就緒供LLM</tspan></text>
<line class="gate" x1="20.06" y1="73.38" x2="22.06" y2="73.38"/>
<text class="gate-label" x="22.46" y="73.38"><tspan x="22.46" dy="0">aicallsreread附件</tspan></text>
<line class="gate" x1="19.06" y1="98.84" x2="34.12" y2="98.84"/>
<line class="gate" x1="20.06" y1="82.84" x2="22.06" y2="82.84"/>
<text class="gate-label-left" x="19.66" y="82.84"><tspan x="19.66" dy="0">filenamematches附件ref</tspan></text>
<line class="gate" x1="20.06" y1="89.84" x2="22.06" y2="89.84"/>
<text class="gate-label-left" x="19.66" y="89.84"><tspan x="19.66" dy="0">setActiveImageRefsCommitted</tspan></text>
<line class="gate" x1="20.06" y1="108.30" x2="22.06" y2="108.30"/>
<text class="gate-label" x="22.46" y="108.30"><tspan x="22.46" dy="0">步驟完成emitted</tspan></text>
<line class="gate" x1="20.06" y1="115.30" x2="22.06" y2="115.30"/>
<text class="gate-label" x="22.46" y="115.30"><tspan x="22.46" dy="0">activeImageRefsCleared</tspan></text>
<line class="gate" x1="9.00" y1="18.00" x2="11.00" y2="18.00"/>
<text class="gate-label-left" x="8.60" y="17.66"><tspan x="8.60" dy="0">mime.starts使</tspan><tspan x="8.60" dy="0.68">用(&#x27;image/&#x27;)</tspan></text>
<line class="gate" x1="31.12" y1="18.00" x2="33.12" y2="18.00"/>
<text class="gate-label-left" x="30.72" y="18.00"><tspan x="30.72" dy="0">!mime.starts使用(&#x27;image/&#x27;)</tspan></text>
<line class="gate" x1="9.00" y1="38.92" x2="11.00" y2="38.92"/>
<text class="gate-label-left" x="8.60" y="38.58"><tspan x="8.60" dy="0">Session路</tspan><tspan x="8.60" dy="0.68">徑writeok</tspan></text>
<line class="gate" x1="20.06" y1="29.46" x2="22.06" y2="29.46"/>
<text class="gate-label-left" x="19.66" y="28.78"><tspan x="19.66" dy="0">是officemi</tspan><tspan x="19.66" dy="0.68">me(classi</tspan><tspan x="19.66" dy="0.68">fyOffice)</tspan></text>
<line class="gate" x1="42.18" y1="29.46" x2="44.18" y2="29.46"/>
<text class="gate-label-left" x="41.78" y="29.46"><tspan x="41.78" dy="0">!是officemime</tspan></text>
<line class="gate" x1="20.06" y1="38.92" x2="22.06" y2="38.92"/>
<text class="gate-label-left" x="19.66" y="38.92"><tspan x="19.66" dy="0">routingHintRendered</tspan></text>
<line class="gate" x1="42.18" y1="38.92" x2="44.18" y2="38.92"/>
<text class="gate-label-left" x="41.78" y="38.92"><tspan x="41.78" dy="0">jsonlappended來源上傳</tspan></text>
<line class="gate" x1="31.12" y1="96.84" x2="33.12" y2="96.84"/>
<text class="gate-label-left" x="30.72" y="96.84"><tspan x="30.72" dy="0">aiSkipsReread</tspan></text>
<line class="gate" x1="20.06" y1="96.84" x2="22.06" y2="96.84"/>
<text class="gate-label-left" x="19.66" y="96.84"><tspan x="19.66" dy="0">image位元組inlined在trailingextras</tspan></text>
<circle class="branch-junction" cx="21.06" cy="71.38" r="0.28"/>
</svg>