<svg xmlns="http://www.w3.org/2000/svg" width="1424" height="3060" viewBox="-32.00 -2.00 71.18 153.00" role="img">
<style>
.step{fill:#fff;stroke:#111;stroke-width:.14}.step-inner{fill:none;stroke:#111;stroke-width:.08}
.action{fill:#fff;stroke:#111;stroke-width:.14}.gate{stroke:#111;stroke-width:.16}
.edge{fill:none;stroke:#111;stroke-width:.05;stroke-linecap:round;stroke-linejoin:round}.edge-arrow{marker-end:url(#arrow)}
.flyover-mask{stroke:#fff;stroke-width:.12;stroke-linecap:round}
.flyover{fill:none;stroke:#111;stroke-width:.05;stroke-linecap:round}
.junction{fill:#111;stroke:#111;stroke-width:0}.branch-junction{fill:#fff;stroke:#111;stroke-width:.08}
.assoc{stroke:#111;stroke-width:.05}.label{font:bold .7px 'Times New Roman', 'BiauKai', 'DFKai-SB', serif;text-anchor:middle;dominant-baseline:middle}
.action-label{font:.55px 'Times New Roman', 'BiauKai', 'DFKai-SB', serif;text-anchor:middle;dominant-baseline:middle}.gate-label{font:italic .55px 'Times New Roman', 'BiauKai', 'DFKai-SB', serif;text-anchor:start;dominant-baseline:middle}.gate-label-left{font:italic .55px 'Times New Roman', 'BiauKai', 'DFKai-SB', serif;text-anchor:end;dominant-baseline:middle}
</style>
<defs><marker id="arrow" markerWidth="0.4" markerHeight="0.4" refX="0.36" refY="0.2" orient="auto" markerUnits="userSpaceOnUse"><path d="M 0 0 L 0.4 0.2 L 0 0.4 z" fill="#111"/></marker></defs>
<rect x="-32.00" y="-2.00" width="71.18" height="153.00" fill="white"/>
<path class="edge" d="M 22.12 7.00 L 22.12 11.00"/>
<path class="edge edge-arrow" d="M 22.12 11.00 L 22.12 15.00"/>
<path class="edge edge-arrow" d="M 22.12 18.00 L 22.12 20.00"/>
<path class="edge edge-arrow" d="M 22.12 20.00 L 22.12 24.00"/>
<path class="edge edge-arrow" d="M 11.06 20.00 L 11.06 24.00"/>
<path class="edge edge-arrow" d="M 22.12 27.00 L 22.12 46.00"/>
<path class="edge edge-arrow" d="M 11.06 46.00 L 11.06 48.00"/>
<path class="edge edge-arrow" d="M 11.06 27.00 L 11.06 29.00"/>
<path class="edge edge-arrow" d="M 0.00 29.00 L 0.00 33.00"/>
<path class="edge edge-arrow" d="M 11.06 29.00 L 11.06 33.00"/>
<path class="edge edge-arrow" d="M 0.00 36.00 L 0.00 46.00"/>
<path class="edge edge-arrow" d="M 11.06 36.00 L 11.06 46.00"/>
<path class="edge" d="M 11.06 51.00 L 21.62 51.00 Q 22.12 51.00 22.12 51.50 L 22.12 55.00"/>
<path class="edge edge-arrow" d="M 22.12 55.00 L 22.12 59.00"/>
<path class="edge" d="M 22.12 62.00 L 22.12 66.00"/>
<path class="edge edge-arrow" d="M 22.12 66.00 L 22.12 70.00"/>
<path class="edge" d="M 22.12 73.00 L 22.12 77.00"/>
<path class="edge edge-arrow" d="M 22.12 77.00 L 22.12 81.00"/>
<path class="edge" d="M 22.12 84.00 L 22.12 86.00"/>
<path class="edge" d="M 22.12 86.00 L 22.12 88.00"/>
<path class="edge edge-arrow" d="M 22.12 88.00 L 22.12 92.00"/>
<path class="edge" d="M 22.12 87.00 L 32.18 87.00"/>
<path class="edge" d="M 32.18 87.00 L 32.18 127.61"/>
<path class="edge" d="M 32.18 127.61 L 22.12 127.61"/>
<path class="edge" d="M 22.12 127.61 L 22.12 127.00"/>
<path class="edge edge-arrow" d="M 22.12 127.00 L 24.12 127.00"/>
<path class="edge" d="M 22.12 127.61 L 22.12 129.00"/>
<path class="edge" d="M 22.12 95.00 L 22.12 99.00"/>
<path class="edge edge-arrow" d="M 22.12 99.00 L 22.12 103.00"/>
<path class="edge" d="M 22.12 106.00 L 22.12 110.00"/>
<path class="edge edge-arrow" d="M 22.12 110.00 L 22.12 114.00"/>
<path class="edge" d="M 22.12 117.00 L 22.12 118.00"/>
<path class="edge" d="M 22.12 118.00 L 34.18 118.00"/>
<path class="edge" d="M 34.18 118.00 L 34.18 129.61"/>
<path class="edge" d="M 34.18 129.61 L 22.12 129.61"/>
<path class="edge" d="M 22.12 129.61 L 22.12 129.00"/>
<path class="edge" d="M 22.12 132.00 L 22.12 136.00"/>
<path class="edge edge-arrow" d="M 22.12 136.00 L 22.12 140.00"/>
<path class="edge" d="M 22.12 143.00 L 22.12 145.00"/>
<path class="edge edge-arrow" d="M 22.12 145.00 L 22.12 146.50 Q 22.12 147.00 21.62 147.00 L -27.50 147.00 Q -28.00 147.00 -28.00 146.50 L -28.00 2.50 Q -28.00 2.00 -27.50 2.00 L 21.62 2.00 Q 22.12 2.00 22.12 2.50 L 22.12 4.00"/>
<rect class="step" x="20.12" y="4.00" width="4.00" height="3.00"/>
<rect class="step-inner" x="20.37" y="4.25" width="3.50" height="2.50"/>
<text class="label" x="22.12" y="5.50">0</text>
<rect class="step" x="20.12" y="15.00" width="4.00" height="3.00"/>
<text class="label" x="22.12" y="16.50">1</text>
<rect class="step" x="20.12" y="24.00" width="4.00" height="3.00"/>
<text class="label" x="22.12" y="25.50">2</text>
<rect class="step" x="9.06" y="24.00" width="4.00" height="3.00"/>
<text class="label" x="11.06" y="25.50">3</text>
<rect class="step" x="-2.00" y="33.00" width="4.00" height="3.00"/>
<text class="label" x="0.00" y="34.50">4</text>
<rect class="step" x="9.06" y="33.00" width="4.00" height="3.00"/>
<text class="label" x="11.06" y="34.50">5</text>
<rect class="step" x="9.06" y="48.00" width="4.00" height="3.00"/>
<text class="label" x="11.06" y="49.50">6</text>
<rect class="step" x="20.12" y="59.00" width="4.00" height="3.00"/>
<text class="label" x="22.12" y="60.50">7</text>
<rect class="step" x="20.12" y="70.00" width="4.00" height="3.00"/>
<text class="label" x="22.12" y="71.50">8</text>
<rect class="step" x="20.12" y="81.00" width="4.00" height="3.00"/>
<text class="label" x="22.12" y="82.50">9</text>
<rect class="step" x="20.12" y="92.00" width="4.00" height="3.00"/>
<text class="label" x="22.12" y="93.50">10</text>
<rect class="step" x="20.12" y="103.00" width="4.00" height="3.00"/>
<text class="label" x="22.12" y="104.50">11</text>
<rect class="step" x="20.12" y="114.00" width="4.00" height="3.00"/>
<text class="label" x="22.12" y="115.50">12</text>
<rect class="step" x="20.12" y="129.00" width="4.00" height="3.00"/>
<text class="label" x="22.12" y="130.50">13</text>
<rect class="step" x="20.12" y="140.00" width="4.00" height="3.00"/>
<text class="label" x="22.12" y="141.50">14</text>
<line class="assoc" x1="24.12" y1="5.50" x2="25.12" y2="5.50"/>
<rect class="action" x="25.12" y="4.07" width="5.06" height="2.86" rx="0.45" ry="0.45"/>
<text class="action-label" x="27.65" y="4.68"><tspan x="27.65" dy="0">閒置</tspan><tspan x="27.65" dy="0.82">await</tspan><tspan x="27.65" dy="0.82">ing上傳</tspan></text>
<line class="assoc" x1="24.12" y1="16.50" x2="25.12" y2="16.50"/>
<rect class="action" x="25.12" y="15.07" width="5.06" height="2.86" rx="0.45" ry="0.45"/>
<text class="action-label" x="27.65" y="15.68"><tspan x="27.65" dy="0">解析multi</tspan><tspan x="27.65" dy="0.82">part與</tspan><tspan x="27.65" dy="0.82">detectmime</tspan></text>
<line class="assoc" x1="24.12" y1="25.50" x2="25.12" y2="25.50"/>
<rect class="action" x="25.12" y="24.07" width="5.06" height="2.86" rx="0.45" ry="0.45"/>
<text class="action-label" x="27.65" y="25.09"><tspan x="27.65" dy="0">writeimage到</tspan><tspan x="27.65" dy="0.82">Sessionxdg</tspan></text>
<line class="assoc" x1="13.06" y1="25.50" x2="14.06" y2="25.50"/>
<rect class="action" x="14.06" y="24.07" width="5.06" height="2.86" rx="0.45" ry="0.45"/>
<text class="action-label" x="16.59" y="24.68"><tspan x="16.59" dy="0">sanitize與</tspan><tspan x="16.59" dy="0.82">land在</tspan><tspan x="16.59" dy="0.82">incoming</tspan></text>
<line class="assoc" x1="2.00" y1="34.50" x2="3.00" y2="34.50"/>
<rect class="action" x="3.00" y="33.07" width="5.06" height="2.86" rx="0.45" ry="0.45"/>
<text class="action-label" x="5.53" y="34.09"><tspan x="5.53" dy="0">執行docxaut</tspan><tspan x="5.53" dy="0.82">odecompose</tspan></text>
<line class="assoc" x1="13.06" y1="34.50" x2="14.06" y2="34.50"/>
<rect class="action" x="14.06" y="33.07" width="5.06" height="2.86" rx="0.45" ry="0.45"/>
<text class="action-label" x="16.59" y="33.68"><tspan x="16.59" dy="0">writeinco</tspan><tspan x="16.59" dy="0.82">ming檔案與</tspan><tspan x="16.59" dy="0.82">追加history</tspan></text>
<line class="assoc" x1="13.06" y1="49.50" x2="14.06" y2="49.50"/>
<rect class="action" x="14.06" y="48.07" width="5.06" height="2.86" rx="0.45" ry="0.45"/>
<text class="action-label" x="16.59" y="49.09"><tspan x="16.59" dy="0">發出附件</tspan><tspan x="16.59" dy="0.82">refpart</tspan></text>
<line class="assoc" x1="24.12" y1="60.50" x2="25.12" y2="60.50"/>
<rect class="action" x="25.12" y="59.07" width="5.06" height="2.86" rx="0.45" ry="0.45"/>
<text class="action-label" x="27.65" y="59.68"><tspan x="27.65" dy="0">建置attache</tspan><tspan x="27.65" dy="0.82">dimagesinv</tspan><tspan x="27.65" dy="0.82">entory區塊</tspan></text>
<line class="assoc" x1="24.12" y1="71.50" x2="25.12" y2="71.50"/>
<rect class="action" x="25.12" y="70.07" width="5.06" height="2.86" rx="0.45" ry="0.45"/>
<text class="action-label" x="27.65" y="70.68"><tspan x="27.65" dy="0">組裝prefa</tspan><tspan x="27.65" dy="0.82">cetraili</tspan><tspan x="27.65" dy="0.82">ngextras</tspan></text>
<line class="assoc" x1="24.12" y1="82.50" x2="25.12" y2="82.50"/>
<rect class="action" x="25.12" y="81.07" width="5.06" height="2.86" rx="0.45" ry="0.45"/>
<text class="action-label" x="27.65" y="81.68"><tspan x="27.65" dy="0">等待</tspan><tspan x="27.65" dy="0.82">aide</tspan><tspan x="27.65" dy="0.82">cision</tspan></text>
<line class="assoc" x1="24.12" y1="93.50" x2="25.12" y2="93.50"/>
<rect class="action" x="25.12" y="92.07" width="5.06" height="2.86" rx="0.45" ry="0.45"/>
<text class="action-label" x="27.65" y="92.68"><tspan x="27.65" dy="0">voucherfi</tspan><tspan x="27.65" dy="0.82">lename透過</tspan><tspan x="27.65" dy="0.82">reread工具</tspan></text>
<line class="assoc" x1="24.12" y1="104.50" x2="25.12" y2="104.50"/>
<rect class="action" x="25.12" y="103.07" width="5.06" height="2.86" rx="0.45" ry="0.45"/>
<text class="action-label" x="27.65" y="103.68"><tspan x="27.65" dy="0">追加active</tspan><tspan x="27.65" dy="0.82">imagerefs使</tspan><tspan x="27.65" dy="0.82">用fifocap</tspan></text>
<line class="assoc" x1="24.12" y1="115.50" x2="25.12" y2="115.50"/>
<rect class="action" x="25.12" y="114.07" width="5.06" height="2.86" rx="0.45" ry="0.45"/>
<text class="action-label" x="27.65" y="114.68"><tspan x="27.65" dy="0">load位元組與</tspan><tspan x="27.65" dy="0.82">inline在</tspan><tspan x="27.65" dy="0.82">bp4trailing</tspan></text>
<line class="assoc" x1="24.12" y1="130.50" x2="25.12" y2="130.50"/>
<rect class="action" x="25.12" y="129.07" width="5.06" height="2.86" rx="0.45" ry="0.45"/>
<text class="action-label" x="27.65" y="130.50"><tspan x="27.65" dy="0">串流助手回合</tspan></text>
<line class="assoc" x1="24.12" y1="141.50" x2="25.12" y2="141.50"/>
<rect class="action" x="25.12" y="140.07" width="5.06" height="2.86" rx="0.45" ry="0.45"/>
<text class="action-label" x="27.65" y="141.09"><tspan x="27.65" dy="0">drainActiv</tspan><tspan x="27.65" dy="0.82">eImageRefs</tspan></text>
<line class="gate" x1="21.12" y1="11.00" x2="23.12" y2="11.00"/>
<text class="gate-label" x="23.52" y="11.00"><tspan x="23.52" dy="0">上傳請求已收到</tspan></text>
<line class="gate" x1="7.06" y1="20.00" x2="26.12" y2="20.00"/>
<line class="gate" x1="-2.00" y1="46.00" x2="24.12" y2="46.00"/>
<line class="gate" x1="-4.00" y1="29.00" x2="15.06" y2="29.00"/>
<line class="gate" x1="21.12" y1="55.00" x2="23.12" y2="55.00"/>
<text class="gate-label" x="23.52" y="55.00"><tspan x="23.52" dy="0">附件refpersisted</tspan></text>
<line class="gate" x1="21.12" y1="66.00" x2="23.12" y2="66.00"/>
<text class="gate-label" x="23.52" y="66.00"><tspan x="23.52" dy="0">Sessionhasimage附件</tspan></text>
<line class="gate" x1="21.12" y1="77.00" x2="23.12" y2="77.00"/>
<text class="gate-label" x="23.52" y="77.00"><tspan x="23.52" dy="0">preface就緒供LLM</tspan></text>
<line class="gate" x1="21.12" y1="88.00" x2="23.12" y2="88.00"/>
<text class="gate-label" x="23.52" y="88.00"><tspan x="23.52" dy="0">aicallsreread附件</tspan></text>
<line class="gate" x1="20.12" y1="127.00" x2="35.18" y2="127.00"/>
<line class="gate" x1="21.12" y1="99.00" x2="23.12" y2="99.00"/>
<text class="gate-label-left" x="20.72" y="99.00"><tspan x="20.72" dy="0">filenamematches附件ref</tspan></text>
<line class="gate" x1="21.12" y1="110.00" x2="23.12" y2="110.00"/>
<text class="gate-label-left" x="20.72" y="110.00"><tspan x="20.72" dy="0">setActiveImageRefsCommitted</tspan></text>
<line class="gate" x1="21.12" y1="136.00" x2="23.12" y2="136.00"/>
<text class="gate-label" x="23.52" y="136.00"><tspan x="23.52" dy="0">步驟完成emitted</tspan></text>
<line class="gate" x1="21.12" y1="145.00" x2="23.12" y2="145.00"/>
<text class="gate-label" x="23.52" y="145.00"><tspan x="23.52" dy="0">activeImageRefsCleared</tspan></text>
<line class="gate" x1="21.12" y1="22.00" x2="23.12" y2="22.00"/>
<text class="gate-label-left" x="20.72" y="21.66"><tspan x="20.72" dy="0">mime.starts使</tspan><tspan x="20.72" dy="0.68">用(&#x27;image/&#x27;)</tspan></text>
<line class="gate" x1="10.06" y1="22.00" x2="12.06" y2="22.00"/>
<text class="gate-label-left" x="9.66" y="22.00"><tspan x="9.66" dy="0">!mime.starts使用(&#x27;image/&#x27;)</tspan></text>
<line class="gate" x1="21.12" y1="44.00" x2="23.12" y2="44.00"/>
<text class="gate-label" x="23.52" y="44.00"><tspan x="23.52" dy="0">Session路徑writeok</tspan></text>
<line class="gate" x1="-1.00" y1="31.00" x2="1.00" y2="31.00"/>
<text class="gate-label-left" x="-1.40" y="31.00"><tspan x="-1.40" dy="0">是officemime(classifyOffice)</tspan></text>
<line class="gate" x1="10.06" y1="31.00" x2="12.06" y2="31.00"/>
<text class="gate-label-left" x="9.66" y="31.00"><tspan x="9.66" dy="0">!是officemime</tspan></text>
<line class="gate" x1="-1.00" y1="44.00" x2="1.00" y2="44.00"/>
<text class="gate-label" x="1.40" y="44.00"><tspan x="1.40" dy="0">routingHintRendered</tspan></text>
<line class="gate" x1="10.06" y1="44.00" x2="12.06" y2="44.00"/>
<text class="gate-label" x="12.46" y="44.00"><tspan x="12.46" dy="0">jsonlappended來源上傳</tspan></text>
<line class="gate" x1="21.12" y1="125.00" x2="23.12" y2="125.00"/>
<text class="gate-label-left" x="20.72" y="125.00"><tspan x="20.72" dy="0">aiSkipsReread</tspan></text>
<line class="gate" x1="21.12" y1="125.00" x2="23.12" y2="125.00"/>
<text class="gate-label-left" x="16.52" y="125.00"><tspan x="16.52" dy="0">image位元組inlined在trailingextras</tspan></text>
<circle class="branch-junction" cx="22.12" cy="87.00" r="0.22"/>
<circle class="junction" cx="22.12" cy="127.61" r="0.22"/>
</svg>