<svg xmlns="http://www.w3.org/2000/svg" width="2302" height="2080" viewBox="-40.00 -2.00 115.10 104.00" role="img">
<style>
.step{fill:#fff;stroke:#111;stroke-width:.14}.step-inner{fill:none;stroke:#111;stroke-width:.08}
.action{fill:#fff;stroke:#111;stroke-width:.14}.gate{stroke:#111;stroke-width:.16}
.edge{fill:none;stroke:#111;stroke-width:.05;stroke-linecap:round;stroke-linejoin:round}.edge-arrow{marker-end:url(#arrow)}
.flyover-mask{stroke:#fff;stroke-width:.12;stroke-linecap:round}
.flyover{fill:none;stroke:#111;stroke-width:.05;stroke-linecap:round}
.junction{fill:#111;stroke:#111;stroke-width:0}.branch-junction{fill:#fff;stroke:#111;stroke-width:.08}
.assoc{stroke:#111;stroke-width:.05}.label{font:bold .7px 'Times New Roman', 'BiauKai', 'DFKai-SB', serif;text-anchor:middle;dominant-baseline:middle}
.action-label{font:.55px 'Times New Roman', 'BiauKai', 'DFKai-SB', serif;text-anchor:middle;dominant-baseline:middle}.gate-label{font:italic .55px 'Times New Roman', 'BiauKai', 'DFKai-SB', serif;text-anchor:start;dominant-baseline:middle}.gate-label-left{font:italic .55px 'Times New Roman', 'BiauKai', 'DFKai-SB', serif;text-anchor:end;dominant-baseline:middle}
</style>
<defs><marker id="arrow" markerWidth="0.4" markerHeight="0.4" refX="0.36" refY="0.2" orient="auto" markerUnits="userSpaceOnUse"><path d="M 0 0 L 0.4 0.2 L 0 0.4 z" fill="#111"/></marker></defs>
<rect x="-40.00" y="-2.00" width="115.10" height="104.00" fill="white"/>
<path class="edge edge-arrow" d="M 49.40 11.00 L 49.40 17.00"/>
<path class="edge" d="M 49.40 7.00 L 49.40 11.00"/>
<path class="edge edge-arrow" d="M 49.40 20.00 L 49.40 22.00"/>
<path class="edge edge-arrow" d="M 24.70 22.00 L 24.70 26.00"/>
<path class="edge edge-arrow" d="M 49.40 22.00 L 49.40 26.00"/>
<path class="edge" d="M 24.70 29.00 L 24.70 33.00"/>
<path class="edge edge-arrow" d="M 24.70 33.00 L 24.70 37.00"/>
<path class="edge" d="M 24.70 40.00 L 24.70 44.00"/>
<path class="edge edge-arrow" d="M 24.70 44.00 L 24.70 48.00"/>
<path class="edge" d="M 24.70 51.00 L 24.70 53.00"/>
<path class="edge" d="M 24.70 53.00 L 0.50 53.00 Q 0.00 53.00 0.00 53.50 L 0.00 55.00"/>
<path class="edge edge-arrow" d="M 0.00 55.00 L 0.00 59.00"/>
<path class="edge" d="M 24.70 53.00 L 24.70 57.00"/>
<path class="edge edge-arrow" d="M 24.70 57.00 L 24.70 59.00"/>
<path class="edge edge-arrow" d="M 24.70 53.00 L 47.90 53.00 Q 48.40 53.00 48.40 53.50 L 48.40 74.00"/>
<path class="edge edge-arrow" d="M 24.70 74.00 L 24.70 76.00"/>
<path class="edge" d="M 0.00 62.00 L 0.00 64.00"/>
<path class="edge" d="M 0.00 64.00 L 0.00 66.00"/>
<path class="edge" d="M 0.00 66.00 L -24.00 66.00"/>
<path class="edge" d="M -24.00 66.00 L -24.00 15.00"/>
<path class="edge" d="M -24.00 15.00 L 49.40 15.00"/>
<path class="edge edge-arrow" d="M 24.70 62.00 L 24.70 74.00"/>
<path class="edge edge-arrow" d="M 24.70 79.00 L 24.70 89.00"/>
<path class="edge edge-arrow" d="M 49.40 89.00 L 49.40 91.00"/>
<path class="edge edge-arrow" d="M 49.40 29.00 L 49.40 29.50 Q 49.40 30.00 49.90 30.00 L 53.35 30.00 Q 53.85 30.00 53.85 30.50 L 53.85 76.12 Q 53.85 76.62 53.35 76.62 L 49.90 76.62 Q 49.40 76.62 49.40 77.12 L 49.40 89.00"/>
<path class="edge" d="M 49.40 94.00 L 49.40 96.00"/>
<path class="edge edge-arrow" d="M 49.40 96.00 L 49.40 97.50 Q 49.40 98.00 48.90 98.00 L -35.50 98.00 Q -36.00 98.00 -36.00 97.50 L -36.00 2.50 Q -36.00 2.00 -35.50 2.00 L 48.90 2.00 Q 49.40 2.00 49.40 2.50 L 49.40 4.00"/>
<rect class="step" x="47.40" y="4.00" width="4.00" height="3.00"/>
<rect class="step-inner" x="47.65" y="4.25" width="3.50" height="2.50"/>
<text class="label" x="49.40" y="5.50">0</text>
<rect class="step" x="47.40" y="17.00" width="4.00" height="3.00"/>
<text class="label" x="49.40" y="18.50">1</text>
<rect class="step" x="22.70" y="26.00" width="4.00" height="3.00"/>
<text class="label" x="24.70" y="27.50">2</text>
<rect class="step" x="22.70" y="37.00" width="4.00" height="3.00"/>
<text class="label" x="24.70" y="38.50">3</text>
<rect class="step" x="22.70" y="48.00" width="4.00" height="3.00"/>
<text class="label" x="24.70" y="49.50">4</text>
<rect class="step" x="-2.00" y="59.00" width="4.00" height="3.00"/>
<text class="label" x="0.00" y="60.50">5</text>
<rect class="step" x="22.70" y="59.00" width="4.00" height="3.00"/>
<text class="label" x="24.70" y="60.50">6</text>
<rect class="step" x="22.70" y="76.00" width="4.00" height="3.00"/>
<text class="label" x="24.70" y="77.50">7</text>
<rect class="step" x="47.40" y="26.00" width="4.00" height="3.00"/>
<text class="label" x="49.40" y="27.50">8</text>
<rect class="step" x="47.40" y="91.00" width="4.00" height="3.00"/>
<text class="label" x="49.40" y="92.50">9</text>
<line class="assoc" x1="51.40" y1="5.50" x2="52.40" y2="5.50"/>
<rect class="action" x="52.40" y="4.07" width="18.70" height="2.86" rx="0.45" ry="0.45"/>
<text class="action-label" x="61.75" y="5.50"><tspan x="61.75" dy="0">Idle; provider awaiting next assistant turn request</tspan></text>
<line class="assoc" x1="51.40" y1="18.50" x2="52.40" y2="18.50"/>
<rect class="action" x="52.40" y="17.07" width="18.70" height="2.86" rx="0.45" ry="0.45"/>
<text class="action-label" x="61.75" y="17.68"><tspan x="61.75" dy="0">WS streaming; A2 receives codex frames, A3 emits</tspan><tspan x="61.75" dy="0.82">text-delta and tool-call parts as deltas arrive; counters</tspan><tspan x="61.75" dy="0.82">emittedTextDeltas and emittedToolCalls accumulate</tspan></text>
<line class="assoc" x1="26.70" y1="27.50" x2="27.70" y2="27.50"/>
<rect class="action" x="27.70" y="26.07" width="18.70" height="2.86" rx="0.45" ry="0.45"/>
<text class="action-label" x="37.05" y="27.09"><tspan x="37.05" dy="0">Run classifier on streamStateSnapshot + requestOptionsShape;</tspan><tspan x="37.05" dy="0.82">derive {causeFamily, recoveryAction, suspectParams, logSequence}</tspan></text>
<line class="assoc" x1="26.70" y1="38.50" x2="27.70" y2="38.50"/>
<rect class="action" x="27.70" y="37.07" width="18.70" height="2.86" rx="0.45" ry="0.45"/>
<text class="action-label" x="37.05" y="37.68"><tspan x="37.05" dy="0">Persist log entry: append JSONL line to &lt;state&gt;/codex/</tspan><tspan x="37.05" dy="0.82">empty-turns.jsonl AND publish bus event on codex.emptyTurn;</tspan><tspan x="37.05" dy="0.82">on write failure swallow and emit console.error breadcrumb</tspan></text>
<line class="assoc" x1="26.70" y1="49.50" x2="27.70" y2="49.50"/>
<rect class="action" x="27.70" y="48.07" width="18.70" height="2.86" rx="0.45" ry="0.45"/>
<text class="action-label" x="37.05" y="49.50"><tspan x="37.05" dy="0">Apply recovery action selected by classifier</tspan></text>
<line class="assoc" x1="2.00" y1="60.50" x2="3.00" y2="60.50"/>
<rect class="action" x="3.00" y="59.07" width="18.70" height="2.86" rx="0.45" ry="0.45"/>
<text class="action-label" x="12.35" y="60.09"><tspan x="12.35" dy="0">Retry: WS reopens with same body; flip retryAttempted=true; cap at</tspan><tspan x="12.35" dy="0.82">one attempt (DD-7); state.usage and counters reset for new attempt</tspan></text>
<line class="assoc" x1="26.70" y1="60.50" x2="27.70" y2="60.50"/>
<rect class="action" x="27.70" y="59.07" width="18.70" height="2.86" rx="0.45" ry="0.45"/>
<text class="action-label" x="37.05" y="59.68"><tspan x="37.05" dy="0">Synthesize text part from accumulated deltas</tspan><tspan x="37.05" dy="0.82">(DORMANT: no current cause family selects this;</tspan><tspan x="37.05" dy="0.82">reserved for future codex shape changes per DD-8)</tspan></text>
<line class="assoc" x1="26.70" y1="77.50" x2="27.70" y2="77.50"/>
<rect class="action" x="27.70" y="76.07" width="18.70" height="2.86" rx="0.45" ry="0.45"/>
<text class="action-label" x="37.05" y="76.68"><tspan x="37.05" dy="0">A3 emits finish part with providerMetadata.openai.emptyTurnClassification;</tspan><tspan x="37.05" dy="0.82">A6 (runloop empty-response guard) fires broad question-mark nudge per</tspan><tspan x="37.05" dy="0.82">D-4 and attaches classification metadata to the synthetic message</tspan></text>
<line class="assoc" x1="51.40" y1="27.50" x2="52.40" y2="27.50"/>
<rect class="action" x="52.40" y="26.07" width="18.70" height="2.86" rx="0.45" ry="0.45"/>
<text class="action-label" x="61.75" y="27.09"><tspan x="61.75" dy="0">Normal completion: emit finish part with finishReason in {stop, tool-calls,</tspan><tspan x="61.75" dy="0.82">length}; classifier was NOT invoked; no empty-turn metadata attached</tspan></text>
<line class="assoc" x1="51.40" y1="92.50" x2="52.40" y2="92.50"/>
<rect class="action" x="52.40" y="91.07" width="18.70" height="2.86" rx="0.45" ry="0.45"/>
<text class="action-label" x="61.75" y="92.09"><tspan x="61.75" dy="0">Turn complete; runloop processes any nudge</tspan><tspan x="61.75" dy="0.82">or normal finish; provider returns to idle</tspan></text>
<line class="gate" x1="48.40" y1="11.00" x2="50.40" y2="11.00"/>
<text class="gate-label" x="50.80" y="11.00"><tspan x="50.80" dy="0">request_body_built AND ws_connection_opened</tspan></text>
<line class="gate" x1="20.70" y1="22.00" x2="53.40" y2="22.00"/>
<line class="gate" x1="23.70" y1="33.00" x2="25.70" y2="33.00"/>
<text class="gate-label" x="26.10" y="33.00"><tspan x="26.10" dy="0">classification_complete</tspan></text>
<line class="gate" x1="23.70" y1="44.00" x2="25.70" y2="44.00"/>
<text class="gate-label" x="26.10" y="44.00"><tspan x="26.10" dy="0">log_dispatch_attempted</tspan></text>
<line class="gate" x1="-1.00" y1="55.00" x2="1.00" y2="55.00"/>
<text class="gate-label" x="1.40" y="55.00"><tspan x="1.40" dy="0">recoveryAction == retry-once-then-soft-fail AND retryAttempted == false</tspan></text>
<line class="gate" x1="23.70" y1="57.00" x2="25.70" y2="57.00"/>
<text class="gate-label" x="26.10" y="57.00"><tspan x="26.10" dy="0">recoveryAction == synthesize-from-deltas</tspan></text>
<line class="gate" x1="22.70" y1="74.00" x2="51.40" y2="74.00"/>
<line class="gate" x1="-1.00" y1="64.00" x2="1.00" y2="64.00"/>
<text class="gate-label" x="1.40" y="64.00"><tspan x="1.40" dy="0">ws_reopened AND body_resent</tspan></text>
<line class="gate" x1="22.70" y1="89.00" x2="51.40" y2="89.00"/>
<line class="gate" x1="48.40" y1="96.00" x2="50.40" y2="96.00"/>
<text class="gate-label" x="50.80" y="96.00"><tspan x="50.80" dy="0">session_ready_for_next_turn</tspan></text>
<line class="gate" x1="23.70" y1="24.00" x2="25.70" y2="24.00"/>
<text class="gate-label-left" x="23.30" y="24.00"><tspan x="23.30" dy="0">stream_ended AND emittedTextDeltas == 0 AND emittedToolCalls == 0</tspan></text>
<line class="gate" x1="48.40" y1="24.00" x2="50.40" y2="24.00"/>
<text class="gate-label-left" x="48.00" y="24.00"><tspan x="48.00" dy="0">stream_ended AND (emittedTextDeltas &gt; 0 OR emittedToolCalls &gt; 0)</tspan></text>
<line class="gate" x1="47.40" y1="72.00" x2="49.40" y2="72.00"/>
<text class="gate-label-left" x="47.00" y="71.32"><tspan x="47.00" dy="0">recoveryAction IN {pass-through-</tspan><tspan x="47.00" dy="0.68">to-runloop-nudge, log-and-continue}</tspan><tspan x="47.00" dy="0.68">OR retryAttempted == true</tspan></text>
<line class="gate" x1="23.70" y1="72.00" x2="25.70" y2="72.00"/>
<text class="gate-label-left" x="23.30" y="72.00"><tspan x="23.30" dy="0">synthesized_text_emitted</tspan></text>
<line class="gate" x1="23.70" y1="87.00" x2="25.70" y2="87.00"/>
<text class="gate-label-left" x="23.30" y="87.00"><tspan x="23.30" dy="0">finish_with_classification_emitted AND nudge_dispatched</tspan></text>
<line class="gate" x1="48.40" y1="87.00" x2="50.40" y2="87.00"/>
<text class="gate-label-left" x="48.00" y="87.00"><tspan x="48.00" dy="0">normal_finish_emitted</tspan></text>
<circle class="junction" cx="49.40" cy="15.00" r="0.22"/>
<circle class="branch-junction" cx="24.70" cy="53.00" r="0.28"/>
</svg>