<svg xmlns="http://www.w3.org/2000/svg" width="1023" height="1880" viewBox="-6.00 -2.00 51.16 94.00" role="img">
<style>
.step{fill:#fff;stroke:#111;stroke-width:.14}.step-inner{fill:none;stroke:#111;stroke-width:.08}
.action{fill:#fff;stroke:#111;stroke-width:.14}.gate{stroke:#111;stroke-width:.16}
.edge{fill:none;stroke:#111;stroke-width:.05;stroke-linecap:round;stroke-linejoin:round}.edge-arrow{marker-end:url(#arrow)}
.flyover-mask{stroke:#fff;stroke-width:.12;stroke-linecap:round}
.flyover{fill:none;stroke:#111;stroke-width:.05;stroke-linecap:round}
.junction{fill:#111;stroke:#111;stroke-width:0}.branch-junction{fill:#fff;stroke:#111;stroke-width:.08}
.assoc{stroke:#111;stroke-width:.05}.label{font:bold .7px 'Times New Roman', 'BiauKai', 'DFKai-SB', serif;text-anchor:middle;dominant-baseline:middle}
.action-label{font:.55px 'Times New Roman', 'BiauKai', 'DFKai-SB', serif;text-anchor:middle;dominant-baseline:middle}.gate-label{font:italic .55px 'Times New Roman', 'BiauKai', 'DFKai-SB', serif;text-anchor:start;dominant-baseline:middle}.gate-label-left{font:italic .55px 'Times New Roman', 'BiauKai', 'DFKai-SB', serif;text-anchor:end;dominant-baseline:middle}
</style>
<defs><marker id="arrow" markerWidth="0.4" markerHeight="0.4" refX="0.36" refY="0.2" orient="auto" markerUnits="userSpaceOnUse"><path d="M 0 0 L 0.4 0.2 L 0 0.4 z" fill="#111"/></marker></defs>
<rect x="-6.00" y="-2.00" width="51.16" height="94.00" fill="white"/>
<path class="edge edge-arrow" d="M 19.58 32.00 L 19.58 36.00"/>
<path class="edge" d="M 19.58 7.00 L 19.58 9.00"/>
<path class="edge edge-arrow" d="M 19.58 9.00 L 19.58 11.00"/>
<path class="edge" d="M 19.58 14.00 L 19.58 16.00"/>
<path class="edge edge-arrow" d="M 19.58 16.00 L 19.58 18.00"/>
<path class="edge" d="M 19.58 21.00 L 19.58 23.00"/>
<path class="edge" d="M 19.58 23.00 L 19.58 25.00"/>
<path class="edge edge-arrow" d="M 19.58 25.00 L 19.58 27.00"/>
<path class="edge edge-arrow" d="M 19.58 23.00 L 38.66 23.00 Q 39.16 23.00 39.16 23.50 L 39.16 77.00"/>
<path class="edge edge-arrow" d="M 19.58 77.00 L 19.58 81.00"/>
<path class="edge" d="M 19.58 30.00 L 19.58 32.00"/>
<path class="edge edge-arrow" d="M 19.58 39.00 L 19.58 41.00"/>
<path class="edge edge-arrow" d="M 10.00 41.00 L 10.00 45.00"/>
<path class="edge edge-arrow" d="M 19.58 41.00 L 19.58 45.00"/>
<path class="edge edge-arrow" d="M 29.16 41.00 L 29.16 45.00"/>
<path class="edge" d="M 10.00 48.00 L 10.00 50.00"/>
<path class="edge" d="M 10.00 50.00 L 10.00 52.00"/>
<path class="edge" d="M 10.00 52.00 L 2.00 52.00"/>
<path class="edge" d="M 2.00 52.00 L 2.00 34.00"/>
<path class="edge" d="M 2.00 34.00 L 19.58 34.00"/>
<path class="edge edge-arrow" d="M 19.58 48.00 L 19.58 54.00"/>
<path class="edge edge-arrow" d="M 10.00 54.00 L 10.00 56.00"/>
<path class="edge edge-arrow" d="M 19.58 54.00 L 19.58 56.00"/>
<path class="edge edge-arrow" d="M 10.00 59.00 L 10.00 61.00"/>
<path class="edge edge-arrow" d="M 19.58 61.00 L 19.58 65.00"/>
<path class="edge edge-arrow" d="M 19.58 59.00 L 19.58 61.00"/>
<path class="edge" d="M 19.58 68.00 L 19.58 70.00"/>
<path class="edge edge-arrow" d="M 19.58 70.00 L 19.58 72.00"/>
<path class="edge edge-arrow" d="M 19.58 75.00 L 19.58 77.00"/>
<path class="edge edge-arrow" d="M 29.16 48.00 L 29.16 77.00"/>
<path class="edge" d="M 19.58 84.00 L 19.58 86.00"/>
<path class="edge edge-arrow" d="M 19.58 86.00 L 19.58 87.50 Q 19.58 88.00 19.08 88.00 L -1.50 88.00 Q -2.00 88.00 -2.00 87.50 L -2.00 2.50 Q -2.00 2.00 -1.50 2.00 L 19.08 2.00 Q 19.58 2.00 19.58 2.50 L 19.58 4.00"/>
<rect class="step" x="17.58" y="4.00" width="4.00" height="3.00"/>
<rect class="step-inner" x="17.83" y="4.25" width="3.50" height="2.50"/>
<text class="label" x="19.58" y="5.50">0</text>
<rect class="step" x="17.58" y="11.00" width="4.00" height="3.00"/>
<text class="label" x="19.58" y="12.50">1</text>
<rect class="step" x="17.58" y="18.00" width="4.00" height="3.00"/>
<text class="label" x="19.58" y="19.50">2</text>
<rect class="step" x="17.58" y="27.00" width="4.00" height="3.00"/>
<text class="label" x="19.58" y="28.50">3</text>
<rect class="step" x="17.58" y="36.00" width="4.00" height="3.00"/>
<text class="label" x="19.58" y="37.50">4</text>
<rect class="step" x="8.00" y="45.00" width="4.00" height="3.00"/>
<text class="label" x="10.00" y="46.50">5</text>
<rect class="step" x="17.58" y="45.00" width="4.00" height="3.00"/>
<text class="label" x="19.58" y="46.50">6</text>
<rect class="step" x="8.00" y="56.00" width="4.00" height="3.00"/>
<text class="label" x="10.00" y="57.50">7</text>
<rect class="step" x="17.58" y="56.00" width="4.00" height="3.00"/>
<text class="label" x="19.58" y="57.50">8</text>
<rect class="step" x="17.58" y="65.00" width="4.00" height="3.00"/>
<text class="label" x="19.58" y="66.50">9</text>
<rect class="step" x="17.58" y="72.00" width="4.00" height="3.00"/>
<text class="label" x="19.58" y="73.50">10</text>
<rect class="step" x="27.16" y="45.00" width="4.00" height="3.00"/>
<text class="label" x="29.16" y="46.50">11</text>
<rect class="step" x="17.58" y="81.00" width="4.00" height="3.00"/>
<text class="label" x="19.58" y="82.50">12</text>
<line class="assoc" x1="21.58" y1="5.50" x2="22.58" y2="5.50"/>
<rect class="action" x="22.58" y="4.07" width="3.58" height="2.86" rx="0.45" ry="0.45"/>
<text class="action-label" x="24.37" y="5.09"><tspan x="24.37" dy="0">等待下一個</tspan><tspan x="24.37" dy="0.82">runloopiteration</tspan></text>
<line class="assoc" x1="21.58" y1="12.50" x2="22.58" y2="12.50"/>
<rect class="action" x="22.58" y="11.07" width="3.58" height="2.86" rx="0.45" ry="0.45"/>
<text class="action-label" x="24.37" y="12.09"><tspan x="24.37" dy="0">DeriveObser</tspan><tspan x="24.37" dy="0.82">vedCondition</tspan></text>
<line class="assoc" x1="21.58" y1="19.50" x2="22.58" y2="19.50"/>
<rect class="action" x="22.58" y="18.07" width="3.58" height="2.86" rx="0.45" ry="0.45"/>
<text class="action-label" x="24.37" y="18.68"><tspan x="24.37" dy="0">checkcoo</tspan><tspan x="24.37" dy="0.82">ldown與</tspan><tspan x="24.37" dy="0.82">閒置tail</tspan></text>
<line class="assoc" x1="21.58" y1="28.50" x2="22.58" y2="28.50"/>
<rect class="action" x="22.58" y="27.07" width="3.58" height="2.86" rx="0.45" ry="0.45"/>
<text class="action-label" x="24.37" y="28.09"><tspan x="24.37" dy="0">解析</tspan><tspan x="24.37" dy="0.82">kindchain</tspan></text>
<line class="assoc" x1="21.58" y1="37.50" x2="22.58" y2="37.50"/>
<rect class="action" x="22.58" y="36.07" width="3.58" height="2.86" rx="0.45" ry="0.45"/>
<text class="action-label" x="24.37" y="37.09"><tspan x="24.37" dy="0">try下一個</tspan><tspan x="24.37" dy="0.82">kind在chain</tspan></text>
<line class="assoc" x1="12.00" y1="46.50" x2="13.00" y2="46.50"/>
<rect class="action" x="13.00" y="45.07" width="3.58" height="2.86" rx="0.45" ry="0.45"/>
<text class="action-label" x="14.79" y="45.68"><tspan x="14.79" dy="0">advance到</tspan><tspan x="14.79" dy="0.82">下一個</tspan><tspan x="14.79" dy="0.82">chainindex</tspan></text>
<line class="assoc" x1="21.58" y1="46.50" x2="22.58" y2="46.50"/>
<rect class="action" x="22.58" y="45.07" width="3.58" height="2.86" rx="0.45" ry="0.45"/>
<text class="action-label" x="24.37" y="46.09"><tspan x="24.37" dy="0">branch在</tspan><tspan x="24.37" dy="0.82">anchorwriter</tspan></text>
<line class="assoc" x1="12.00" y1="57.50" x2="13.00" y2="57.50"/>
<rect class="action" x="13.00" y="56.07" width="3.58" height="2.86" rx="0.45" ry="0.45"/>
<text class="action-label" x="14.79" y="56.68"><tspan x="14.79" dy="0">writesan</tspan><tspan x="14.79" dy="0.82">itizedanc</tspan><tspan x="14.79" dy="0.82">hor訊息</tspan></text>
<line class="assoc" x1="21.58" y1="57.50" x2="22.58" y2="57.50"/>
<rect class="action" x="22.58" y="56.07" width="3.58" height="2.86" rx="0.45" ry="0.45"/>
<text class="action-label" x="24.37" y="56.68"><tspan x="24.37" dy="0">發出壓縮</tspan><tspan x="24.37" dy="0.82">started與</tspan><tspan x="24.37" dy="0.82">kindtelemetry</tspan></text>
<line class="assoc" x1="21.58" y1="66.50" x2="22.58" y2="66.50"/>
<rect class="action" x="22.58" y="65.07" width="3.58" height="2.86" rx="0.45" ry="0.45"/>
<text class="action-label" x="24.37" y="65.68"><tspan x="24.37" dy="0">inject合</tspan><tspan x="24.37" dy="0.82">成繼續</tspan><tspan x="24.37" dy="0.82">ifallowed</tspan></text>
<line class="assoc" x1="21.58" y1="73.50" x2="22.58" y2="73.50"/>
<rect class="action" x="22.58" y="72.07" width="3.58" height="2.86" rx="0.45" ry="0.45"/>
<text class="action-label" x="24.37" y="72.68"><tspan x="24.37" dy="0">apply快取</tspan><tspan x="24.37" dy="0.82">layout與</tspan><tspan x="24.37" dy="0.82">staticsystem</tspan></text>
<line class="assoc" x1="31.16" y1="46.50" x2="32.16" y2="46.50"/>
<rect class="action" x="32.16" y="45.07" width="3.58" height="2.86" rx="0.45" ry="0.45"/>
<text class="action-label" x="33.95" y="46.09"><tspan x="33.95" dy="0">abort使用</tspan><tspan x="33.95" dy="0.82">stopverdict</tspan></text>
<line class="assoc" x1="21.58" y1="82.50" x2="22.58" y2="82.50"/>
<rect class="action" x="22.58" y="81.07" width="3.58" height="2.86" rx="0.45" ry="0.45"/>
<text class="action-label" x="24.37" y="81.68"><tspan x="24.37" dy="0">返回</tspan><tspan x="24.37" dy="0.82">verdict到</tspan><tspan x="24.37" dy="0.82">runloop</tspan></text>
<line class="gate" x1="18.58" y1="9.00" x2="20.58" y2="9.00"/>
<text class="gate-label" x="20.98" y="9.00"><tspan x="20.98" dy="0">runloopiterationstarted</tspan></text>
<line class="gate" x1="18.58" y1="16.00" x2="20.58" y2="16.00"/>
<text class="gate-label" x="20.98" y="16.00"><tspan x="20.98" dy="0">deriveobserveddone</tspan></text>
<line class="gate" x1="18.58" y1="25.00" x2="20.58" y2="25.00"/>
<text class="gate-label" x="20.98" y="25.00"><tspan x="20.98" dy="0">observed != null &amp;&amp; cooldownclear &amp;&amp; tailclean</tspan></text>
<line class="gate" x1="17.58" y1="76.85" x2="41.16" y2="76.85"/>
<line class="gate" x1="17.58" y1="77.15" x2="41.16" y2="77.15"/>
<line class="gate" x1="18.58" y1="32.00" x2="20.58" y2="32.00"/>
<text class="gate-label" x="20.98" y="32.00"><tspan x="20.98" dy="0">chain已解析</tspan></text>
<line class="gate" x1="6.00" y1="41.00" x2="33.16" y2="41.00"/>
<line class="gate" x1="9.00" y1="50.00" x2="11.00" y2="50.00"/>
<text class="gate-label" x="11.40" y="50.00"><tspan x="11.40" dy="0">indexincremented</tspan></text>
<line class="gate" x1="8.00" y1="53.85" x2="21.58" y2="53.85"/>
<line class="gate" x1="8.00" y1="54.15" x2="21.58" y2="54.15"/>
<line class="gate" x1="8.00" y1="60.85" x2="21.58" y2="60.85"/>
<line class="gate" x1="8.00" y1="61.15" x2="21.58" y2="61.15"/>
<line class="gate" x1="18.58" y1="70.00" x2="20.58" y2="70.00"/>
<text class="gate-label-left" x="18.18" y="70.00"><tspan x="18.18" dy="0">INJECT CONTINUE[observed] applied 或 skipped</tspan></text>
<line class="gate" x1="18.58" y1="86.00" x2="20.58" y2="86.00"/>
<text class="gate-label" x="20.98" y="86.00"><tspan x="20.98" dy="0">runloopresumed</tspan></text>
<line class="gate" x1="18.58" y1="79.00" x2="20.58" y2="79.00"/>
<text class="gate-label-left" x="18.18" y="79.00"><tspan x="18.18" dy="0">observed == null || cooldownactive || (observed == 閒置 &amp;&amp; tailunclean)</tspan></text>
<line class="gate" x1="9.00" y1="43.00" x2="11.00" y2="43.00"/>
<text class="gate-label" x="11.40" y="42.32"><tspan x="11.40" dy="0">attempt.ok &amp;&amp;</tspan><tspan x="11.40" dy="0.68">!(local &amp;&amp; truncated</tspan><tspan x="11.40" dy="0.68">&amp;&amp; paidremaining)</tspan></text>
<line class="gate" x1="18.58" y1="43.00" x2="20.58" y2="43.00"/>
<text class="gate-label" x="20.98" y="42.32"><tspan x="20.98" dy="0">attempt.failed</tspan><tspan x="20.98" dy="0.68">|| localtrunca</tspan><tspan x="20.98" dy="0.68">tedescalate</tspan></text>
<line class="gate" x1="28.16" y1="43.00" x2="30.16" y2="43.00"/>
<text class="gate-label" x="30.56" y="43.00"><tspan x="30.56" dy="0">chainexhausted</tspan></text>
<line class="gate" x1="18.58" y1="52.00" x2="20.58" y2="52.00"/>
<text class="gate-label-left" x="18.18" y="52.68"><tspan x="18.18" dy="0">anchorwritteninline || anchor待處理</tspan></text>
<line class="gate" x1="18.58" y1="63.00" x2="20.58" y2="63.00"/>
<text class="gate-label-left" x="18.18" y="63.00"><tspan x="18.18" dy="0">anchorpersisted &amp;&amp; telemetryemitted</tspan></text>
<circle class="junction" cx="19.58" cy="34.00" r="0.22"/>
<circle class="branch-junction" cx="19.58" cy="23.00" r="0.28"/>
</svg>