<svg xmlns="http://www.w3.org/2000/svg" width="1340" height="2100" viewBox="-6.00 -2.00 67.00 105.00" role="img">
<style>
.step{fill:#fff;stroke:#111;stroke-width:.14}.step-inner{fill:none;stroke:#111;stroke-width:.08}
.action{fill:#fff;stroke:#111;stroke-width:.14}.gate{stroke:#111;stroke-width:.16}
.edge{fill:none;stroke:#111;stroke-width:.05;stroke-linecap:round;stroke-linejoin:round}.edge-arrow{marker-end:url(#arrow)}
.flyover-mask{stroke:#fff;stroke-width:.12;stroke-linecap:round}
.flyover{fill:none;stroke:#111;stroke-width:.05;stroke-linecap:round}
.junction{fill:#111;stroke:#111;stroke-width:0}.branch-junction{fill:#fff;stroke:#111;stroke-width:.08}
.assoc{stroke:#111;stroke-width:.05}.label{font:bold .7px 'Times New Roman', 'BiauKai', 'DFKai-SB', serif;text-anchor:middle;dominant-baseline:middle}
.action-label{font:.55px 'Times New Roman', 'BiauKai', 'DFKai-SB', serif;text-anchor:middle;dominant-baseline:middle}.gate-label{font:italic .55px 'Times New Roman', 'BiauKai', 'DFKai-SB', serif;text-anchor:start;dominant-baseline:middle}.gate-label-left{font:italic .55px 'Times New Roman', 'BiauKai', 'DFKai-SB', serif;text-anchor:end;dominant-baseline:middle}
</style>
<defs><marker id="arrow" markerWidth="0.4" markerHeight="0.4" refX="0.36" refY="0.2" orient="auto" markerUnits="userSpaceOnUse"><path d="M 0 0 L 0.4 0.2 L 0 0.4 z" fill="#111"/></marker></defs>
<rect x="-6.00" y="-2.00" width="67.00" height="105.00" fill="white"/>
<path class="edge edge-arrow" d="M 20.00 48.00 L 20.00 52.00"/>
<path class="edge edge-arrow" d="M 30.00 64.00 L 30.00 70.00"/>
<path class="edge" d="M 20.00 7.00 L 20.00 9.00"/>
<path class="edge edge-arrow" d="M 20.00 9.00 L 20.00 11.00"/>
<path class="edge" d="M 20.00 14.00 L 20.00 16.00"/>
<path class="edge edge-arrow" d="M 20.00 16.00 L 20.00 18.00"/>
<path class="edge" d="M 20.00 21.00 L 20.00 23.00"/>
<path class="edge edge-arrow" d="M 20.00 23.00 L 20.00 25.00"/>
<path class="edge edge-arrow" d="M 20.00 28.00 L 20.00 30.00"/>
<path class="edge edge-arrow" d="M 10.00 30.00 L 10.00 34.00"/>
<path class="edge edge-arrow" d="M 20.00 30.00 L 20.00 34.00"/>
<path class="edge edge-arrow" d="M 10.00 37.00 L 10.00 41.00"/>
<path class="edge edge-arrow" d="M 20.00 41.00 L 20.00 43.00"/>
<path class="edge edge-arrow" d="M 20.00 37.00 L 20.00 41.00"/>
<path class="edge" d="M 20.00 46.00 L 20.00 48.00"/>
<path class="edge" d="M 20.00 55.00 L 20.00 57.00"/>
<path class="edge edge-arrow" d="M 20.00 57.00 L 20.00 59.00"/>
<path class="edge edge-arrow" d="M 20.00 62.00 L 20.00 64.00"/>
<path class="edge" d="M 10.00 64.00 L 10.00 67.50 Q 10.00 68.00 9.50 68.00 L 2.50 68.00 Q 2.00 68.00 2.00 67.50 L 2.00 50.50 Q 2.00 50.00 2.50 50.00 L 20.00 50.00"/>
<path class="edge edge-arrow" d="M 30.00 73.00 L 30.00 75.00"/>
<path class="edge" d="M 20.00 75.00 L 20.00 79.00"/>
<path class="edge" d="M 20.00 79.00 L 2.00 79.00"/>
<path class="edge" d="M 2.00 79.00 L 2.00 68.00"/>
<path class="edge edge-arrow" d="M 40.00 75.00 L 40.00 81.00"/>
<path class="edge edge-arrow" d="M 40.00 84.00 L 40.00 86.00"/>
<path class="edge" d="M 30.00 86.00 L 30.00 90.00"/>
<path class="edge" d="M 30.00 90.00 L 14.00 90.00"/>
<path class="edge" d="M 14.00 90.00 L 14.00 68.00"/>
<path class="edge" d="M 14.00 68.00 L 30.00 68.00"/>
<path class="edge edge-arrow" d="M 50.00 86.00 L 50.00 92.00"/>
<path class="edge" d="M 50.00 95.00 L 50.00 97.00"/>
<path class="edge edge-arrow" d="M 50.00 97.00 L 50.00 98.50 Q 50.00 99.00 49.50 99.00 L -1.50 99.00 Q -2.00 99.00 -2.00 98.50 L -2.00 2.50 Q -2.00 2.00 -1.50 2.00 L 19.50 2.00 Q 20.00 2.00 20.00 2.50 L 20.00 4.00"/>
<rect class="step" x="18.00" y="4.00" width="4.00" height="3.00"/>
<rect class="step-inner" x="18.25" y="4.25" width="3.50" height="2.50"/>
<text class="label" x="20.00" y="5.50">0</text>
<rect class="step" x="18.00" y="11.00" width="4.00" height="3.00"/>
<text class="label" x="20.00" y="12.50">1</text>
<rect class="step" x="18.00" y="18.00" width="4.00" height="3.00"/>
<text class="label" x="20.00" y="19.50">2</text>
<rect class="step" x="18.00" y="25.00" width="4.00" height="3.00"/>
<text class="label" x="20.00" y="26.50">3</text>
<rect class="step" x="8.00" y="34.00" width="4.00" height="3.00"/>
<text class="label" x="10.00" y="35.50">4</text>
<rect class="step" x="18.00" y="34.00" width="4.00" height="3.00"/>
<text class="label" x="20.00" y="35.50">5</text>
<rect class="step" x="18.00" y="43.00" width="4.00" height="3.00"/>
<text class="label" x="20.00" y="44.50">6</text>
<rect class="step" x="18.00" y="52.00" width="4.00" height="3.00"/>
<text class="label" x="20.00" y="53.50">7</text>
<rect class="step" x="18.00" y="59.00" width="4.00" height="3.00"/>
<text class="label" x="20.00" y="60.50">8</text>
<rect class="step" x="28.00" y="70.00" width="4.00" height="3.00"/>
<text class="label" x="30.00" y="71.50">9</text>
<rect class="step" x="38.00" y="81.00" width="4.00" height="3.00"/>
<text class="label" x="40.00" y="82.50">10</text>
<rect class="step" x="48.00" y="92.00" width="4.00" height="3.00"/>
<text class="label" x="50.00" y="93.50">11</text>
<line class="assoc" x1="22.00" y1="5.50" x2="23.00" y2="5.50"/>
<rect class="action" x="23.00" y="4.07" width="4.00" height="2.86" rx="0.45" ry="0.45"/>
<text class="action-label" x="25.00" y="5.09"><tspan x="25.00" dy="0">AppUni</tspan><tspan x="25.00" dy="0.82">nstalled</tspan></text>
<line class="assoc" x1="22.00" y1="12.50" x2="23.00" y2="12.50"/>
<rect class="action" x="23.00" y="11.07" width="4.00" height="2.86" rx="0.45" ry="0.45"/>
<text class="action-label" x="25.00" y="12.50"><tspan x="25.00" dy="0">InstallApp</tspan></text>
<line class="assoc" x1="22.00" y1="19.50" x2="23.00" y2="19.50"/>
<rect class="action" x="23.00" y="18.07" width="4.00" height="2.86" rx="0.45" ry="0.45"/>
<text class="action-label" x="25.00" y="19.09"><tspan x="25.00" dy="0">註冊M</tspan><tspan x="25.00" dy="0.82">anifest</tspan></text>
<line class="assoc" x1="22.00" y1="26.50" x2="23.00" y2="26.50"/>
<rect class="action" x="23.00" y="25.07" width="4.00" height="2.86" rx="0.45" ry="0.45"/>
<text class="action-label" x="25.00" y="25.68"><tspan x="25.00" dy="0">firsttools</tspan><tspan x="25.00" dy="0.82">呼叫trigg</tspan><tspan x="25.00" dy="0.82">ersconnect</tspan></text>
<line class="assoc" x1="12.00" y1="35.50" x2="13.00" y2="35.50"/>
<rect class="action" x="13.00" y="34.07" width="4.00" height="2.86" rx="0.45" ry="0.45"/>
<text class="action-label" x="15.00" y="34.68"><tspan x="15.00" dy="0">Connect</tspan><tspan x="15.00" dy="0.82">StdioTr</tspan><tspan x="15.00" dy="0.82">ansport</tspan></text>
<line class="assoc" x1="22.00" y1="35.50" x2="23.00" y2="35.50"/>
<rect class="action" x="23.00" y="34.07" width="4.00" height="2.86" rx="0.45" ry="0.45"/>
<text class="action-label" x="25.00" y="34.68"><tspan x="25.00" dy="0">ConnectH</tspan><tspan x="25.00" dy="0.82">ttpOverU</tspan><tspan x="25.00" dy="0.82">nixSocket</tspan></text>
<line class="assoc" x1="22.00" y1="44.50" x2="23.00" y2="44.50"/>
<rect class="action" x="23.00" y="43.07" width="4.00" height="2.86" rx="0.45" ry="0.45"/>
<text class="action-label" x="25.00" y="44.09"><tspan x="25.00" dy="0">client</tspan><tspan x="25.00" dy="0.82">就緒</tspan></text>
<line class="assoc" x1="22.00" y1="53.50" x2="23.00" y2="53.50"/>
<rect class="action" x="23.00" y="52.07" width="4.00" height="2.86" rx="0.45" ry="0.45"/>
<text class="action-label" x="25.00" y="53.09"><tspan x="25.00" dy="0">派發工</tspan><tspan x="25.00" dy="0.82">具呼叫</tspan></text>
<line class="assoc" x1="22.00" y1="60.50" x2="23.00" y2="60.50"/>
<rect class="action" x="23.00" y="59.07" width="4.00" height="2.86" rx="0.45" ry="0.45"/>
<text class="action-label" x="25.00" y="59.68"><tspan x="25.00" dy="0">串流回</tspan><tspan x="25.00" dy="0.82">應與af</tspan><tspan x="25.00" dy="0.82">terhook</tspan></text>
<line class="assoc" x1="32.00" y1="71.50" x2="33.00" y2="71.50"/>
<rect class="action" x="33.00" y="70.07" width="4.00" height="2.86" rx="0.45" ry="0.45"/>
<text class="action-label" x="35.00" y="71.09"><tspan x="35.00" dy="0">閒置</tspan><tspan x="35.00" dy="0.82">waiting</tspan></text>
<line class="assoc" x1="42.00" y1="82.50" x2="43.00" y2="82.50"/>
<rect class="action" x="43.00" y="81.07" width="4.00" height="2.86" rx="0.45" ry="0.45"/>
<text class="action-label" x="45.00" y="81.68"><tspan x="45.00" dy="0">閒置s</tspan><tspan x="45.00" dy="0.82">weep無</tspan><tspan x="45.00" dy="0.82">optoday</tspan></text>
<line class="assoc" x1="52.00" y1="93.50" x2="53.00" y2="93.50"/>
<rect class="action" x="53.00" y="92.07" width="4.00" height="2.86" rx="0.45" ry="0.45"/>
<text class="action-label" x="55.00" y="92.68"><tspan x="55.00" dy="0">unload與</tspan><tspan x="55.00" dy="0.82">發出bu</tspan><tspan x="55.00" dy="0.82">s事件</tspan></text>
<line class="gate" x1="19.00" y1="9.00" x2="21.00" y2="9.00"/>
<text class="gate-label" x="21.40" y="9.00"><tspan x="21.40" dy="0">使用者installsapp || /api/v2/mcp/store/apps POST</tspan></text>
<line class="gate" x1="19.00" y1="16.00" x2="21.00" y2="16.00"/>
<text class="gate-label" x="21.40" y="16.00"><tspan x="21.40" dy="0">Manifest路徑已解析</tspan></text>
<line class="gate" x1="19.00" y1="23.00" x2="21.00" y2="23.00"/>
<text class="gate-label" x="21.40" y="23.00"><tspan x="21.40" dy="0">zodValidatePass &amp;&amp; bindMountLintPass</tspan></text>
<line class="gate" x1="6.00" y1="30.00" x2="24.00" y2="30.00"/>
<line class="gate" x1="8.00" y1="41.00" x2="22.00" y2="41.00"/>
<line class="gate" x1="19.00" y1="48.00" x2="21.00" y2="48.00"/>
<text class="gate-label" x="21.40" y="48.00"><tspan x="21.40" dy="0">清單toolsok &amp;&amp; enablementSnapshotInjected</tspan></text>
<line class="gate" x1="19.00" y1="57.00" x2="21.00" y2="57.00"/>
<text class="gate-label" x="21.40" y="57.00"><tspan x="21.40" dy="0">模型invokes工具 &amp;&amp; argsValidate (relaxed token pattern)</tspan></text>
<line class="gate" x1="6.00" y1="64.00" x2="34.00" y2="64.00"/>
<line class="gate" x1="16.00" y1="75.00" x2="44.00" y2="75.00"/>
<line class="gate" x1="26.00" y1="86.00" x2="54.00" y2="86.00"/>
<line class="gate" x1="49.00" y1="97.00" x2="51.00" y2="97.00"/>
<text class="gate-label-left" x="48.60" y="97.00"><tspan x="48.60" dy="0">clientClosed &amp;&amp; 狀態[clientName] cleared</tspan></text>
<line class="gate" x1="9.00" y1="32.00" x2="11.00" y2="32.00"/>
<text class="gate-label-left" x="8.60" y="32.00"><tspan x="8.60" dy="0">項目.transport == &#x27;stdio&#x27;</tspan></text>
<line class="gate" x1="19.00" y1="32.00" x2="21.00" y2="32.00"/>
<text class="gate-label-left" x="18.60" y="31.32"><tspan x="18.60" dy="0">項目.transpo</tspan><tspan x="18.60" dy="0.68">rt == &#x27;streama</tspan><tspan x="18.60" dy="0.68">ble-http&#x27; || &#x27;sse&#x27;</tspan></text>
<line class="gate" x1="9.00" y1="39.00" x2="11.00" y2="39.00"/>
<text class="gate-label-left" x="8.60" y="39.00"><tspan x="8.60" dy="0">啟動ok &amp;&amp; initializeHandshakeOk</tspan></text>
<line class="gate" x1="19.00" y1="39.00" x2="21.00" y2="39.00"/>
<text class="gate-label-left" x="18.60" y="39.00"><tspan x="18.60" dy="0">streamableHttpOk || ssefallbackok</tspan></text>
<line class="gate" x1="9.00" y1="66.00" x2="11.00" y2="66.00"/>
<text class="gate-label-left" x="8.60" y="65.32"><tspan x="8.60" dy="0">下一個</tspan><tspan x="8.60" dy="0.68">工具呼</tspan><tspan x="8.60" dy="0.68">叫arrives</tspan></text>
<line class="gate" x1="29.00" y1="66.00" x2="31.00" y2="66.00"/>
<text class="gate-label-left" x="28.60" y="66.00"><tspan x="28.60" dy="0">無待處理呼叫</tspan></text>
<line class="gate" x1="19.00" y1="77.00" x2="21.00" y2="77.00"/>
<text class="gate-label-left" x="18.60" y="76.32"><tspan x="18.60" dy="0">模型re</tspan><tspan x="18.60" dy="0.68">sumes工</tspan><tspan x="18.60" dy="0.68">具use</tspan></text>
<line class="gate" x1="39.00" y1="77.00" x2="41.00" y2="77.00"/>
<text class="gate-label-left" x="38.60" y="77.00"><tspan x="38.60" dy="0">now - lastused於 &gt; tweaks.mcp.閒置unloadms (proposed)</tspan></text>
<line class="gate" x1="29.00" y1="88.00" x2="31.00" y2="88.00"/>
<text class="gate-label-left" x="28.60" y="88.00"><tspan x="28.60" dy="0">proposal不已交付 (stay 已釘選)</tspan></text>
<line class="gate" x1="49.00" y1="88.00" x2="51.00" y2="88.00"/>
<text class="gate-label-left" x="48.60" y="88.00"><tspan x="48.60" dy="0">proposal已交付 &amp;&amp; inflight==0 (unload)</tspan></text>
<circle class="junction" cx="20.00" cy="50.00" r="0.22"/>
<circle class="junction" cx="30.00" cy="68.00" r="0.22"/>
<circle class="junction" cx="2.00" cy="68.00" r="0.22"/>
</svg>