<svg xmlns="http://www.w3.org/2000/svg" width="1280" height="2140" viewBox="-6.00 -2.00 64.00 107.00" role="img">
<style>
.step{fill:#fff;stroke:#111;stroke-width:.14}.step-inner{fill:none;stroke:#111;stroke-width:.08}
.action{fill:#fff;stroke:#111;stroke-width:.14}.gate{stroke:#111;stroke-width:.16}
.edge{fill:none;stroke:#111;stroke-width:.05;stroke-linecap:round;stroke-linejoin:round}.edge-arrow{marker-end:url(#arrow)}
.flyover-mask{stroke:#fff;stroke-width:.12;stroke-linecap:round}
.flyover{fill:none;stroke:#111;stroke-width:.05;stroke-linecap:round}
.junction{fill:#111;stroke:#111;stroke-width:0}.branch-junction{fill:#fff;stroke:#111;stroke-width:.08}
.assoc{stroke:#111;stroke-width:.05}.label{font:bold .7px 'Times New Roman', 'BiauKai', 'DFKai-SB', serif;text-anchor:middle;dominant-baseline:middle}
.action-label{font:.55px 'Times New Roman', 'BiauKai', 'DFKai-SB', serif;text-anchor:middle;dominant-baseline:middle}.gate-label{font:italic .55px 'Times New Roman', 'BiauKai', 'DFKai-SB', serif;text-anchor:start;dominant-baseline:middle}.gate-label-left{font:italic .55px 'Times New Roman', 'BiauKai', 'DFKai-SB', serif;text-anchor:end;dominant-baseline:middle}
</style>
<defs><marker id="arrow" markerWidth="0.4" markerHeight="0.4" refX="0.36" refY="0.2" orient="auto" markerUnits="userSpaceOnUse"><path d="M 0 0 L 0.4 0.2 L 0 0.4 z" fill="#111"/></marker></defs>
<rect x="-6.00" y="-2.00" width="64.00" height="107.00" fill="white"/>
<path class="edge edge-arrow" d="M 21.75 48.00 L 21.75 52.00"/>
<path class="edge edge-arrow" d="M 21.75 64.00 L 21.75 65.50 Q 21.75 66.00 21.75 66.50 L 21.75 72.00"/>
<path class="edge" d="M 21.75 7.00 L 21.75 9.00"/>
<path class="edge edge-arrow" d="M 21.75 9.00 L 21.75 11.00"/>
<path class="edge" d="M 21.75 14.00 L 21.75 16.00"/>
<path class="edge edge-arrow" d="M 21.75 16.00 L 21.75 18.00"/>
<path class="edge" d="M 21.75 21.00 L 21.75 23.00"/>
<path class="edge edge-arrow" d="M 21.75 23.00 L 21.75 25.00"/>
<path class="edge edge-arrow" d="M 21.75 28.00 L 21.75 30.00"/>
<path class="edge edge-arrow" d="M 10.00 30.00 L 10.00 31.50 Q 10.00 32.00 10.00 32.50 L 10.00 34.00"/>
<path class="edge edge-arrow" d="M 33.50 30.00 L 33.50 31.50 Q 33.50 32.00 33.50 32.50 L 33.50 34.00"/>
<path class="edge edge-arrow" d="M 10.00 37.00 L 10.00 41.00"/>
<path class="edge edge-arrow" d="M 21.75 41.00 L 21.75 43.00"/>
<path class="edge edge-arrow" d="M 33.50 37.00 L 33.50 41.00"/>
<path class="edge" d="M 21.75 46.00 L 21.75 48.00"/>
<path class="edge" d="M 21.75 55.00 L 21.75 57.00"/>
<path class="edge edge-arrow" d="M 21.75 57.00 L 21.75 59.00"/>
<path class="edge edge-arrow" d="M 21.75 62.00 L 21.75 64.00"/>
<path class="edge" d="M 10.00 64.00 L 10.00 68.00"/>
<path class="edge" d="M 10.00 68.00 L 2.00 68.00"/>
<path class="edge" d="M 2.00 68.00 L 2.00 50.00"/>
<path class="edge" d="M 2.00 50.00 L 21.75 50.00"/>
<path class="edge edge-arrow" d="M 21.75 75.00 L 21.75 77.00"/>
<path class="edge" d="M 10.00 77.00 L 10.00 81.00"/>
<path class="edge" d="M 10.00 81.00 L 2.00 81.00"/>
<path class="edge" d="M 2.00 81.00 L 2.00 68.00"/>
<path class="edge edge-arrow" d="M 33.50 77.00 L 33.50 78.50 Q 33.50 79.00 33.50 79.50 L 33.50 83.00"/>
<path class="edge edge-arrow" d="M 33.50 86.00 L 33.50 88.00"/>
<path class="edge" d="M 21.75 88.00 L 21.75 92.00"/>
<path class="edge" d="M 21.75 92.00 L 0.00 92.00"/>
<path class="edge" d="M 0.00 92.00 L 0.00 70.00"/>
<path class="edge" d="M 0.00 70.00 L 21.75 70.00"/>
<path class="edge edge-arrow" d="M 45.25 88.00 L 45.25 89.50 Q 45.25 90.00 45.25 90.50 L 45.25 94.00"/>
<path class="edge" d="M 45.25 97.00 L 45.25 99.00"/>
<path class="edge edge-arrow" d="M 45.25 99.00 L 45.25 100.50 Q 45.25 101.00 44.75 101.00 L -1.50 101.00 Q -2.00 101.00 -2.00 100.50 L -2.00 2.50 Q -2.00 2.00 -1.50 2.00 L 21.25 2.00 Q 21.75 2.00 21.75 2.50 L 21.75 4.00"/>
<rect class="step" x="19.75" y="4.00" width="4.00" height="3.00"/>
<rect class="step-inner" x="20.00" y="4.25" width="3.50" height="2.50"/>
<text class="label" x="21.75" y="5.50">0</text>
<rect class="step" x="19.75" y="11.00" width="4.00" height="3.00"/>
<text class="label" x="21.75" y="12.50">1</text>
<rect class="step" x="19.75" y="18.00" width="4.00" height="3.00"/>
<text class="label" x="21.75" y="19.50">2</text>
<rect class="step" x="19.75" y="25.00" width="4.00" height="3.00"/>
<text class="label" x="21.75" y="26.50">3</text>
<rect class="step" x="8.00" y="34.00" width="4.00" height="3.00"/>
<text class="label" x="10.00" y="35.50">4</text>
<rect class="step" x="31.50" y="34.00" width="4.00" height="3.00"/>
<text class="label" x="33.50" y="35.50">5</text>
<rect class="step" x="19.75" y="43.00" width="4.00" height="3.00"/>
<text class="label" x="21.75" y="44.50">6</text>
<rect class="step" x="19.75" y="52.00" width="4.00" height="3.00"/>
<text class="label" x="21.75" y="53.50">7</text>
<rect class="step" x="19.75" y="59.00" width="4.00" height="3.00"/>
<text class="label" x="21.75" y="60.50">8</text>
<rect class="step" x="19.75" y="72.00" width="4.00" height="3.00"/>
<text class="label" x="21.75" y="73.50">9</text>
<rect class="step" x="31.50" y="83.00" width="4.00" height="3.00"/>
<text class="label" x="33.50" y="84.50">10</text>
<rect class="step" x="43.25" y="94.00" width="4.00" height="3.00"/>
<text class="label" x="45.25" y="95.50">11</text>
<line class="assoc" x1="23.75" y1="5.50" x2="24.75" y2="5.50"/>
<rect class="action" x="24.75" y="4.07" width="5.75" height="2.86" rx="0.45" ry="0.45"/>
<text class="action-label" x="27.62" y="5.09"><tspan x="27.62" dy="0">AppUnin</tspan><tspan x="27.62" dy="0.82">stalled</tspan></text>
<line class="assoc" x1="23.75" y1="12.50" x2="24.75" y2="12.50"/>
<rect class="action" x="24.75" y="11.07" width="5.75" height="2.86" rx="0.45" ry="0.45"/>
<text class="action-label" x="27.62" y="12.50"><tspan x="27.62" dy="0">InstallApp</tspan></text>
<line class="assoc" x1="23.75" y1="19.50" x2="24.75" y2="19.50"/>
<rect class="action" x="24.75" y="18.07" width="5.75" height="2.86" rx="0.45" ry="0.45"/>
<text class="action-label" x="27.62" y="19.50"><tspan x="27.62" dy="0">註冊Manifest</tspan></text>
<line class="assoc" x1="23.75" y1="26.50" x2="24.75" y2="26.50"/>
<rect class="action" x="24.75" y="25.07" width="5.75" height="2.86" rx="0.45" ry="0.45"/>
<text class="action-label" x="27.62" y="25.68"><tspan x="27.62" dy="0">firsttools呼</tspan><tspan x="27.62" dy="0.82">叫triggers</tspan><tspan x="27.62" dy="0.82">connect</tspan></text>
<line class="assoc" x1="12.00" y1="35.50" x2="13.00" y2="35.50"/>
<rect class="action" x="13.00" y="34.07" width="5.75" height="2.86" rx="0.45" ry="0.45"/>
<text class="action-label" x="15.88" y="35.09"><tspan x="15.88" dy="0">ConnectStd</tspan><tspan x="15.88" dy="0.82">ioTransport</tspan></text>
<line class="assoc" x1="35.50" y1="35.50" x2="36.50" y2="35.50"/>
<rect class="action" x="36.50" y="34.07" width="5.75" height="2.86" rx="0.45" ry="0.45"/>
<text class="action-label" x="39.38" y="34.68"><tspan x="39.38" dy="0">ConnectH</tspan><tspan x="39.38" dy="0.82">ttpOverU</tspan><tspan x="39.38" dy="0.82">nixSocket</tspan></text>
<line class="assoc" x1="23.75" y1="44.50" x2="24.75" y2="44.50"/>
<rect class="action" x="24.75" y="43.07" width="5.75" height="2.86" rx="0.45" ry="0.45"/>
<text class="action-label" x="27.62" y="44.50"><tspan x="27.62" dy="0">client就緒</tspan></text>
<line class="assoc" x1="23.75" y1="53.50" x2="24.75" y2="53.50"/>
<rect class="action" x="24.75" y="52.07" width="5.75" height="2.86" rx="0.45" ry="0.45"/>
<text class="action-label" x="27.62" y="53.50"><tspan x="27.62" dy="0">派發工具呼叫</tspan></text>
<line class="assoc" x1="23.75" y1="60.50" x2="24.75" y2="60.50"/>
<rect class="action" x="24.75" y="59.07" width="5.75" height="2.86" rx="0.45" ry="0.45"/>
<text class="action-label" x="27.62" y="60.09"><tspan x="27.62" dy="0">串流回應與</tspan><tspan x="27.62" dy="0.82">afterhook</tspan></text>
<line class="assoc" x1="23.75" y1="73.50" x2="24.75" y2="73.50"/>
<rect class="action" x="24.75" y="72.07" width="5.75" height="2.86" rx="0.45" ry="0.45"/>
<text class="action-label" x="27.62" y="73.50"><tspan x="27.62" dy="0">閒置waiting</tspan></text>
<line class="assoc" x1="35.50" y1="84.50" x2="36.50" y2="84.50"/>
<rect class="action" x="36.50" y="83.07" width="5.75" height="2.86" rx="0.45" ry="0.45"/>
<text class="action-label" x="39.38" y="84.09"><tspan x="39.38" dy="0">閒置sweep無</tspan><tspan x="39.38" dy="0.82">optoday</tspan></text>
<line class="assoc" x1="47.25" y1="95.50" x2="48.25" y2="95.50"/>
<rect class="action" x="48.25" y="94.07" width="5.75" height="2.86" rx="0.45" ry="0.45"/>
<text class="action-label" x="51.12" y="95.09"><tspan x="51.12" dy="0">unload與發</tspan><tspan x="51.12" dy="0.82">出bus事件</tspan></text>
<line class="gate" x1="20.75" y1="9.00" x2="22.75" y2="9.00"/>
<text class="gate-label" x="23.15" y="9.00"><tspan x="23.15" dy="0">使用者installsapp || /api/v2/mcp/store/apps POST</tspan></text>
<line class="gate" x1="20.75" y1="16.00" x2="22.75" y2="16.00"/>
<text class="gate-label" x="23.15" y="16.00"><tspan x="23.15" dy="0">Manifest路徑已解析</tspan></text>
<line class="gate" x1="20.75" y1="23.00" x2="22.75" y2="23.00"/>
<text class="gate-label" x="23.15" y="23.00"><tspan x="23.15" dy="0">zodValidatePass &amp;&amp; bindMountLintPass</tspan></text>
<line class="gate" x1="6.00" y1="30.00" x2="37.50" y2="30.00"/>
<line class="gate" x1="8.00" y1="41.00" x2="35.50" y2="41.00"/>
<line class="gate" x1="20.75" y1="48.00" x2="22.75" y2="48.00"/>
<text class="gate-label" x="23.15" y="48.00"><tspan x="23.15" dy="0">清單toolsok &amp;&amp; enablementSnapshotInjected</tspan></text>
<line class="gate" x1="20.75" y1="57.00" x2="22.75" y2="57.00"/>
<text class="gate-label" x="23.15" y="57.00"><tspan x="23.15" dy="0">模型invokes工具 &amp;&amp; argsValidate (relaxed token pattern)</tspan></text>
<line class="gate" x1="6.00" y1="64.00" x2="25.75" y2="64.00"/>
<line class="gate" x1="6.00" y1="77.00" x2="37.50" y2="77.00"/>
<line class="gate" x1="17.75" y1="88.00" x2="49.25" y2="88.00"/>
<line class="gate" x1="44.25" y1="99.00" x2="46.25" y2="99.00"/>
<text class="gate-label-left" x="43.85" y="99.00"><tspan x="43.85" dy="0">clientClosed &amp;&amp; 狀態[clientName] cleared</tspan></text>
<line class="gate" x1="9.00" y1="32.00" x2="11.00" y2="32.00"/>
<text class="gate-label-left" x="8.60" y="31.66"><tspan x="8.60" dy="0">項目.transport</tspan><tspan x="8.60" dy="0.68">== &#x27;stdio&#x27;</tspan></text>
<line class="gate" x1="32.50" y1="32.00" x2="34.50" y2="32.00"/>
<text class="gate-label-left" x="32.10" y="32.00"><tspan x="32.10" dy="0">項目.transport == &#x27;streamable-http&#x27; || &#x27;sse&#x27;</tspan></text>
<line class="gate" x1="9.00" y1="39.00" x2="11.00" y2="39.00"/>
<text class="gate-label-left" x="8.60" y="38.66"><tspan x="8.60" dy="0">啟動ok &amp;&amp; initia</tspan><tspan x="8.60" dy="0.68">lizeHandshakeOk</tspan></text>
<line class="gate" x1="32.50" y1="39.00" x2="34.50" y2="39.00"/>
<text class="gate-label-left" x="32.10" y="39.00"><tspan x="32.10" dy="0">streamableHttpOk || ssefallbackok</tspan></text>
<line class="gate" x1="9.00" y1="66.00" x2="11.00" y2="66.00"/>
<text class="gate-label-left" x="8.60" y="65.66"><tspan x="8.60" dy="0">下一個工具呼</tspan><tspan x="8.60" dy="0.68">叫arrives</tspan></text>
<line class="gate" x1="20.75" y1="66.00" x2="22.75" y2="66.00"/>
<text class="gate-label-left" x="20.35" y="66.00"><tspan x="20.35" dy="0">無待處理呼叫</tspan></text>
<line class="gate" x1="9.00" y1="79.00" x2="11.00" y2="79.00"/>
<text class="gate-label-left" x="8.60" y="78.66"><tspan x="8.60" dy="0">模型resumes工</tspan><tspan x="8.60" dy="0.68">具use</tspan></text>
<line class="gate" x1="32.50" y1="79.00" x2="34.50" y2="79.00"/>
<text class="gate-label-left" x="32.10" y="78.66"><tspan x="32.10" dy="0">now - lastused於 &gt; tweaks.</tspan><tspan x="32.10" dy="0.68">mcp.閒置unloadms (proposed)</tspan></text>
<line class="gate" x1="20.75" y1="90.00" x2="22.75" y2="90.00"/>
<text class="gate-label-left" x="20.35" y="90.00"><tspan x="20.35" dy="0">proposal不已交付 (stay 已釘選)</tspan></text>
<line class="gate" x1="44.25" y1="90.00" x2="46.25" y2="90.00"/>
<text class="gate-label-left" x="43.85" y="90.00"><tspan x="43.85" dy="0">proposal已交付 &amp;&amp; inflight==0 (unload)</tspan></text>
<line class="flyover-mask" x1="1.00" y1="70.00" x2="3.00" y2="70.00"/>
<path class="flyover" d="M 1.00 70.00 Q 2.00 69.00 3.00 70.00"/>
<circle class="junction" cx="21.75" cy="50.00" r="0.22"/>
<circle class="junction" cx="21.75" cy="70.00" r="0.22"/>
<circle class="junction" cx="2.00" cy="68.00" r="0.22"/>
</svg>