<svg xmlns="http://www.w3.org/2000/svg" width="1280" height="2275" viewBox="-6.00 -2.00 64.00 113.76" role="img">
<style>
.step{fill:#fff;stroke:#111;stroke-width:.14}.step-inner{fill:none;stroke:#111;stroke-width:.08}
.action{fill:#fff;stroke:#111;stroke-width:.14}.gate{stroke:#111;stroke-width:.16}
.edge{fill:none;stroke:#111;stroke-width:.05;stroke-linecap:round;stroke-linejoin:round}.edge-arrow{marker-end:url(#arrow)}
.flyover-mask{stroke:#fff;stroke-width:.12;stroke-linecap:round}
.flyover{fill:none;stroke:#111;stroke-width:.05;stroke-linecap:round}
.junction{fill:#111;stroke:#111;stroke-width:0}.branch-junction{fill:#fff;stroke:#111;stroke-width:.08}
.assoc{stroke:#111;stroke-width:.05}.label{font:bold .7px 'Times New Roman', 'BiauKai', 'DFKai-SB', serif;text-anchor:middle;dominant-baseline:middle}
.action-label{font:.55px 'Times New Roman', 'BiauKai', 'DFKai-SB', serif;text-anchor:middle;dominant-baseline:middle}.gate-label{font:italic .55px 'Times New Roman', 'BiauKai', 'DFKai-SB', serif;text-anchor:start;dominant-baseline:middle}.gate-label-left{font:italic .55px 'Times New Roman', 'BiauKai', 'DFKai-SB', serif;text-anchor:end;dominant-baseline:middle}
</style>
<defs><marker id="arrow" markerWidth="0.4" markerHeight="0.4" refX="0.36" refY="0.2" orient="auto" markerUnits="userSpaceOnUse"><path d="M 0 0 L 0.4 0.2 L 0 0.4 z" fill="#111"/></marker></defs>
<rect x="-6.00" y="-2.00" width="64.00" height="113.76" fill="white"/>
<path class="edge edge-arrow" d="M 21.75 52.92 L 21.75 59.38"/>
<path class="edge edge-arrow" d="M 31.75 71.38 L 31.75 72.88 Q 31.75 73.38 31.25 73.38 L 22.25 73.38 Q 21.75 73.38 21.75 73.88 L 21.75 77.84"/>
<path class="edge" d="M 21.75 7.00 L 21.75 9.00"/>
<path class="edge edge-arrow" d="M 21.75 9.00 L 21.75 11.00"/>
<path class="edge" d="M 21.75 14.00 L 21.75 16.00"/>
<path class="edge edge-arrow" d="M 21.75 16.00 L 21.75 18.00"/>
<path class="edge" d="M 21.75 21.00 L 21.75 23.00"/>
<path class="edge edge-arrow" d="M 21.75 23.00 L 21.75 25.00"/>
<path class="edge edge-arrow" d="M 21.75 28.00 L 21.75 30.00"/>
<path class="edge edge-arrow" d="M 10.00 30.00 L 10.00 36.46"/>
<path class="edge edge-arrow" d="M 33.50 30.00 L 33.50 36.46"/>
<path class="edge edge-arrow" d="M 10.00 39.46 L 10.00 43.46"/>
<path class="edge edge-arrow" d="M 21.75 43.46 L 21.75 47.92"/>
<path class="edge edge-arrow" d="M 33.50 39.46 L 33.50 43.46"/>
<path class="edge" d="M 21.75 50.92 L 21.75 52.92"/>
<path class="edge" d="M 21.75 62.38 L 21.75 64.38"/>
<path class="edge edge-arrow" d="M 21.75 64.38 L 21.75 66.38"/>
<path class="edge edge-arrow" d="M 21.75 69.38 L 21.75 71.38"/>
<path class="edge" d="M 11.75 71.38 L 11.75 75.38"/>
<path class="edge" d="M 11.75 75.38 L 2.00 75.38"/>
<path class="edge" d="M 2.00 75.38 L 2.00 54.92"/>
<path class="edge" d="M 2.00 54.92 L 21.75 54.92"/>
<path class="edge edge-arrow" d="M 21.75 80.84 L 21.75 82.84"/>
<path class="edge" d="M 10.00 82.84 L 10.00 86.84"/>
<path class="edge" d="M 10.00 86.84 L 2.00 86.84"/>
<path class="edge" d="M 2.00 86.84 L 2.00 75.38"/>
<path class="edge edge-arrow" d="M 33.50 82.84 L 33.50 89.30"/>
<path class="edge edge-arrow" d="M 33.50 92.30 L 33.50 94.30"/>
<path class="edge" d="M 21.75 94.30 L 21.75 98.30"/>
<path class="edge" d="M 21.75 98.30 L 0.00 98.30"/>
<path class="edge" d="M 0.00 98.30 L 0.00 75.38"/>
<path class="edge" d="M 0.00 75.38 L 2.00 75.38"/>
<path class="edge" d="M 11.75 75.38 L 21.75 75.38"/>
<path class="edge edge-arrow" d="M 45.25 94.30 L 45.25 100.76"/>
<path class="edge" d="M 45.25 103.76 L 45.25 105.76"/>
<path class="edge edge-arrow" d="M 45.25 105.76 L 45.25 107.26 Q 45.25 107.76 44.75 107.76 L -1.50 107.76 Q -2.00 107.76 -2.00 107.26 L -2.00 2.50 Q -2.00 2.00 -1.50 2.00 L 21.25 2.00 Q 21.75 2.00 21.75 2.50 L 21.75 4.00"/>
<rect class="step" x="19.75" y="4.00" width="4.00" height="3.00"/>
<rect class="step-inner" x="20.00" y="4.25" width="3.50" height="2.50"/>
<text class="label" x="21.75" y="5.50">0</text>
<rect class="step" x="19.75" y="11.00" width="4.00" height="3.00"/>
<text class="label" x="21.75" y="12.50">1</text>
<rect class="step" x="19.75" y="18.00" width="4.00" height="3.00"/>
<text class="label" x="21.75" y="19.50">2</text>
<rect class="step" x="19.75" y="25.00" width="4.00" height="3.00"/>
<text class="label" x="21.75" y="26.50">3</text>
<rect class="step" x="8.00" y="36.46" width="4.00" height="3.00"/>
<text class="label" x="10.00" y="37.96">4</text>
<rect class="step" x="31.50" y="36.46" width="4.00" height="3.00"/>
<text class="label" x="33.50" y="37.96">5</text>
<rect class="step" x="19.75" y="47.92" width="4.00" height="3.00"/>
<text class="label" x="21.75" y="49.42">6</text>
<rect class="step" x="19.75" y="59.38" width="4.00" height="3.00"/>
<text class="label" x="21.75" y="60.88">7</text>
<rect class="step" x="19.75" y="66.38" width="4.00" height="3.00"/>
<text class="label" x="21.75" y="67.88">8</text>
<rect class="step" x="19.75" y="77.84" width="4.00" height="3.00"/>
<text class="label" x="21.75" y="79.34">9</text>
<rect class="step" x="31.50" y="89.30" width="4.00" height="3.00"/>
<text class="label" x="33.50" y="90.80">10</text>
<rect class="step" x="43.25" y="100.76" width="4.00" height="3.00"/>
<text class="label" x="45.25" y="102.26">11</text>
<line class="assoc" x1="23.75" y1="5.50" x2="24.75" y2="5.50"/>
<rect class="action" x="24.75" y="4.07" width="5.75" height="2.86" rx="0.45" ry="0.45"/>
<text class="action-label" x="27.62" y="5.09"><tspan x="27.62" dy="0">AppUnin</tspan><tspan x="27.62" dy="0.82">stalled</tspan></text>
<line class="assoc" x1="23.75" y1="12.50" x2="24.75" y2="12.50"/>
<rect class="action" x="24.75" y="11.07" width="5.75" height="2.86" rx="0.45" ry="0.45"/>
<text class="action-label" x="27.62" y="12.50"><tspan x="27.62" dy="0">InstallApp</tspan></text>
<line class="assoc" x1="23.75" y1="19.50" x2="24.75" y2="19.50"/>
<rect class="action" x="24.75" y="18.07" width="5.75" height="2.86" rx="0.45" ry="0.45"/>
<text class="action-label" x="27.62" y="19.50"><tspan x="27.62" dy="0">註冊Manifest</tspan></text>
<line class="assoc" x1="23.75" y1="26.50" x2="24.75" y2="26.50"/>
<rect class="action" x="24.75" y="25.07" width="5.75" height="2.86" rx="0.45" ry="0.45"/>
<text class="action-label" x="27.62" y="25.68"><tspan x="27.62" dy="0">firsttools呼</tspan><tspan x="27.62" dy="0.82">叫triggers</tspan><tspan x="27.62" dy="0.82">connect</tspan></text>
<line class="assoc" x1="12.00" y1="37.96" x2="13.00" y2="37.96"/>
<rect class="action" x="13.00" y="36.53" width="5.75" height="2.86" rx="0.45" ry="0.45"/>
<text class="action-label" x="15.88" y="37.55"><tspan x="15.88" dy="0">ConnectStd</tspan><tspan x="15.88" dy="0.82">ioTransport</tspan></text>
<line class="assoc" x1="35.50" y1="37.96" x2="36.50" y2="37.96"/>
<rect class="action" x="36.50" y="36.53" width="5.75" height="2.86" rx="0.45" ry="0.45"/>
<text class="action-label" x="39.38" y="37.14"><tspan x="39.38" dy="0">ConnectH</tspan><tspan x="39.38" dy="0.82">ttpOverU</tspan><tspan x="39.38" dy="0.82">nixSocket</tspan></text>
<line class="assoc" x1="23.75" y1="49.42" x2="24.75" y2="49.42"/>
<rect class="action" x="24.75" y="47.99" width="5.75" height="2.86" rx="0.45" ry="0.45"/>
<text class="action-label" x="27.62" y="49.42"><tspan x="27.62" dy="0">client就緒</tspan></text>
<line class="assoc" x1="23.75" y1="60.88" x2="24.75" y2="60.88"/>
<rect class="action" x="24.75" y="59.45" width="5.75" height="2.86" rx="0.45" ry="0.45"/>
<text class="action-label" x="27.62" y="60.88"><tspan x="27.62" dy="0">派發工具呼叫</tspan></text>
<line class="assoc" x1="23.75" y1="67.88" x2="24.75" y2="67.88"/>
<rect class="action" x="24.75" y="66.45" width="5.75" height="2.86" rx="0.45" ry="0.45"/>
<text class="action-label" x="27.62" y="67.47"><tspan x="27.62" dy="0">串流回應與</tspan><tspan x="27.62" dy="0.82">afterhook</tspan></text>
<line class="assoc" x1="23.75" y1="79.34" x2="24.75" y2="79.34"/>
<rect class="action" x="24.75" y="77.91" width="5.75" height="2.86" rx="0.45" ry="0.45"/>
<text class="action-label" x="27.62" y="79.34"><tspan x="27.62" dy="0">閒置waiting</tspan></text>
<line class="assoc" x1="35.50" y1="90.80" x2="36.50" y2="90.80"/>
<rect class="action" x="36.50" y="89.37" width="5.75" height="2.86" rx="0.45" ry="0.45"/>
<text class="action-label" x="39.38" y="90.39"><tspan x="39.38" dy="0">閒置sweep無</tspan><tspan x="39.38" dy="0.82">optoday</tspan></text>
<line class="assoc" x1="47.25" y1="102.26" x2="48.25" y2="102.26"/>
<rect class="action" x="48.25" y="100.83" width="5.75" height="2.86" rx="0.45" ry="0.45"/>
<text class="action-label" x="51.12" y="101.85"><tspan x="51.12" dy="0">unload與發</tspan><tspan x="51.12" dy="0.82">出bus事件</tspan></text>
<line class="gate" x1="20.75" y1="9.00" x2="22.75" y2="9.00"/>
<text class="gate-label" x="23.15" y="9.00"><tspan x="23.15" dy="0">使用者installsapp || /api/v2/mcp/store/apps POST</tspan></text>
<line class="gate" x1="20.75" y1="16.00" x2="22.75" y2="16.00"/>
<text class="gate-label" x="23.15" y="16.00"><tspan x="23.15" dy="0">Manifest路徑已解析</tspan></text>
<line class="gate" x1="20.75" y1="23.00" x2="22.75" y2="23.00"/>
<text class="gate-label" x="23.15" y="23.00"><tspan x="23.15" dy="0">zodValidatePass &amp;&amp; bindMountLintPass</tspan></text>
<line class="gate" x1="6.00" y1="30.00" x2="37.50" y2="30.00"/>
<line class="gate" x1="8.00" y1="43.46" x2="35.50" y2="43.46"/>
<line class="gate" x1="20.75" y1="52.92" x2="22.75" y2="52.92"/>
<text class="gate-label" x="23.15" y="52.92"><tspan x="23.15" dy="0">清單toolsok &amp;&amp; enablementSnapshotInjected</tspan></text>
<line class="gate" x1="20.75" y1="64.38" x2="22.75" y2="64.38"/>
<text class="gate-label" x="23.15" y="64.38"><tspan x="23.15" dy="0">模型invokes工具 &amp;&amp; argsValidate (relaxed token pattern)</tspan></text>
<line class="gate" x1="7.75" y1="71.38" x2="35.75" y2="71.38"/>
<line class="gate" x1="6.00" y1="82.84" x2="37.50" y2="82.84"/>
<line class="gate" x1="17.75" y1="94.30" x2="49.25" y2="94.30"/>
<line class="gate" x1="44.25" y1="105.76" x2="46.25" y2="105.76"/>
<text class="gate-label-left" x="43.85" y="105.76"><tspan x="43.85" dy="0">clientClosed &amp;&amp; 狀態[clientName] cleared</tspan></text>
<line class="gate" x1="9.00" y1="32.00" x2="11.00" y2="32.00"/>
<text class="gate-label-left" x="8.60" y="31.32"><tspan x="8.60" dy="0">項目.</tspan><tspan x="8.60" dy="0.68">transport</tspan><tspan x="8.60" dy="0.68">== &#x27;stdio&#x27;</tspan></text>
<line class="gate" x1="32.50" y1="32.00" x2="34.50" y2="32.00"/>
<text class="gate-label-left" x="32.10" y="32.00"><tspan x="32.10" dy="0">項目.transport == &#x27;streamable-http&#x27; || &#x27;sse&#x27;</tspan></text>
<line class="gate" x1="9.00" y1="41.46" x2="11.00" y2="41.46"/>
<text class="gate-label-left" x="8.60" y="40.78"><tspan x="8.60" dy="0">啟動ok &amp;&amp;</tspan><tspan x="8.60" dy="0.68">initialize</tspan><tspan x="8.60" dy="0.68">HandshakeOk</tspan></text>
<line class="gate" x1="32.50" y1="41.46" x2="34.50" y2="41.46"/>
<text class="gate-label-left" x="32.10" y="41.46"><tspan x="32.10" dy="0">streamableHttpOk || ssefallbackok</tspan></text>
<line class="gate" x1="10.75" y1="73.38" x2="12.75" y2="73.38"/>
<text class="gate-label-left" x="10.35" y="72.70"><tspan x="10.35" dy="0">下一個工</tspan><tspan x="10.35" dy="0.68">具呼叫</tspan><tspan x="10.35" dy="0.68">arrives</tspan></text>
<line class="gate" x1="30.75" y1="73.38" x2="32.75" y2="73.38"/>
<text class="gate-label-left" x="30.35" y="72.70"><tspan x="30.35" dy="0">無待處理呼叫</tspan></text>
<line class="gate" x1="9.00" y1="84.84" x2="11.00" y2="84.84"/>
<text class="gate-label-left" x="8.60" y="84.16"><tspan x="8.60" dy="0">模型</tspan><tspan x="8.60" dy="0.68">resumes工</tspan><tspan x="8.60" dy="0.68">具use</tspan></text>
<line class="gate" x1="32.50" y1="84.84" x2="34.50" y2="84.84"/>
<text class="gate-label-left" x="32.10" y="84.16"><tspan x="32.10" dy="0">now - lastused於 &gt;</tspan><tspan x="32.10" dy="0.68">tweaks.mcp.閒置</tspan><tspan x="32.10" dy="0.68">unloadms (proposed)</tspan></text>
<line class="gate" x1="20.75" y1="96.30" x2="22.75" y2="96.30"/>
<text class="gate-label-left" x="20.35" y="96.30"><tspan x="20.35" dy="0">proposal不已交付 (stay 已釘選)</tspan></text>
<line class="gate" x1="44.25" y1="96.30" x2="46.25" y2="96.30"/>
<text class="gate-label-left" x="43.85" y="96.30"><tspan x="43.85" dy="0">proposal已交付 &amp;&amp; inflight==0 (unload)</tspan></text>
<line class="flyover-mask" x1="1.00" y1="75.38" x2="3.00" y2="75.38"/>
<path class="flyover" d="M 1.00 75.38 Q 2.00 74.38 3.00 75.38"/>
<circle class="junction" cx="21.75" cy="54.92" r="0.22"/>
<circle class="junction" cx="21.75" cy="75.38" r="0.22"/>
<circle class="junction" cx="11.75" cy="75.38" r="0.22"/>
<circle class="junction" cx="2.00" cy="75.38" r="0.22"/>
</svg>