<svg xmlns="http://www.w3.org/2000/svg" width="1340" height="2660" viewBox="-6.00 -2.00 67.00 133.00" role="img">
<style>
.step{fill:#fff;stroke:#111;stroke-width:.14}.step-inner{fill:none;stroke:#111;stroke-width:.08}
.action{fill:#fff;stroke:#111;stroke-width:.14}.gate{stroke:#111;stroke-width:.16}
.edge{fill:none;stroke:#111;stroke-width:.05;stroke-linecap:round;stroke-linejoin:round}.edge-arrow{marker-end:url(#arrow)}
.flyover-mask{stroke:#fff;stroke-width:.12;stroke-linecap:round}
.flyover{fill:none;stroke:#111;stroke-width:.05;stroke-linecap:round}
.junction{fill:#111;stroke:#111;stroke-width:0}.branch-junction{fill:#fff;stroke:#111;stroke-width:.08}
.assoc{stroke:#111;stroke-width:.05}.label{font:bold .7px 'Times New Roman', 'BiauKai', 'DFKai-SB', serif;text-anchor:middle;dominant-baseline:middle}
.action-label{font:.55px 'Times New Roman', 'BiauKai', 'DFKai-SB', serif;text-anchor:middle;dominant-baseline:middle}.gate-label{font:italic .55px 'Times New Roman', 'BiauKai', 'DFKai-SB', serif;text-anchor:start;dominant-baseline:middle}.gate-label-left{font:italic .55px 'Times New Roman', 'BiauKai', 'DFKai-SB', serif;text-anchor:end;dominant-baseline:middle}
</style>
<defs><marker id="arrow" markerWidth="0.4" markerHeight="0.4" refX="0.36" refY="0.2" orient="auto" markerUnits="userSpaceOnUse"><path d="M 0 0 L 0.4 0.2 L 0 0.4 z" fill="#111"/></marker></defs>
<rect x="-6.00" y="-2.00" width="67.00" height="133.00" fill="white"/>
<path class="edge edge-arrow" d="M 20.00 70.00 L 20.00 76.00"/>
<path class="edge edge-arrow" d="M 30.00 92.00 L 30.00 98.00"/>
<path class="edge" d="M 20.00 7.00 L 20.00 11.00"/>
<path class="edge edge-arrow" d="M 20.00 11.00 L 20.00 15.00"/>
<path class="edge" d="M 20.00 18.00 L 20.00 22.00"/>
<path class="edge edge-arrow" d="M 20.00 22.00 L 20.00 26.00"/>
<path class="edge" d="M 20.00 29.00 L 20.00 33.00"/>
<path class="edge edge-arrow" d="M 20.00 33.00 L 20.00 37.00"/>
<path class="edge edge-arrow" d="M 20.00 40.00 L 20.00 42.00"/>
<path class="edge edge-arrow" d="M 10.00 42.00 L 10.00 46.00"/>
<path class="edge edge-arrow" d="M 20.00 42.00 L 20.00 46.00"/>
<path class="edge edge-arrow" d="M 10.00 49.00 L 10.00 59.00"/>
<path class="edge edge-arrow" d="M 20.00 59.00 L 20.00 61.00"/>
<path class="edge edge-arrow" d="M 20.00 49.00 L 20.00 59.00"/>
<path class="edge" d="M 20.00 64.00 L 20.00 70.00"/>
<path class="edge" d="M 20.00 79.00 L 20.00 83.00"/>
<path class="edge edge-arrow" d="M 20.00 83.00 L 20.00 87.00"/>
<path class="edge edge-arrow" d="M 20.00 90.00 L 20.00 92.00"/>
<path class="edge" d="M 10.00 92.00 L 10.00 95.50 Q 10.00 96.00 9.50 96.00 L 2.50 96.00 Q 2.00 96.00 2.00 95.50 L 2.00 72.50 Q 2.00 72.00 2.50 72.00 L 20.00 72.00"/>
<path class="edge edge-arrow" d="M 30.00 101.00 L 30.00 103.00"/>
<path class="edge" d="M 20.00 103.00 L 20.00 107.00"/>
<path class="edge" d="M 20.00 107.00 L 2.00 107.00"/>
<path class="edge" d="M 2.00 107.00 L 2.00 96.00"/>
<path class="edge edge-arrow" d="M 40.00 103.00 L 40.00 109.00"/>
<path class="edge edge-arrow" d="M 40.00 112.00 L 40.00 114.00"/>
<path class="edge" d="M 30.00 114.00 L 30.00 118.00"/>
<path class="edge" d="M 30.00 118.00 L 14.00 118.00"/>
<path class="edge" d="M 14.00 118.00 L 14.00 96.00"/>
<path class="edge" d="M 14.00 96.00 L 30.00 96.00"/>
<path class="edge edge-arrow" d="M 50.00 114.00 L 50.00 120.00"/>
<path class="edge" d="M 50.00 123.00 L 50.00 125.00"/>
<path class="edge edge-arrow" d="M 50.00 125.00 L 50.00 126.50 Q 50.00 127.00 49.50 127.00 L -1.50 127.00 Q -2.00 127.00 -2.00 126.50 L -2.00 2.50 Q -2.00 2.00 -1.50 2.00 L 19.50 2.00 Q 20.00 2.00 20.00 2.50 L 20.00 4.00"/>
<rect class="step" x="18.00" y="4.00" width="4.00" height="3.00"/>
<rect class="step-inner" x="18.25" y="4.25" width="3.50" height="2.50"/>
<text class="label" x="20.00" y="5.50">0</text>
<rect class="step" x="18.00" y="15.00" width="4.00" height="3.00"/>
<text class="label" x="20.00" y="16.50">1</text>
<rect class="step" x="18.00" y="26.00" width="4.00" height="3.00"/>
<text class="label" x="20.00" y="27.50">2</text>
<rect class="step" x="18.00" y="37.00" width="4.00" height="3.00"/>
<text class="label" x="20.00" y="38.50">3</text>
<rect class="step" x="8.00" y="46.00" width="4.00" height="3.00"/>
<text class="label" x="10.00" y="47.50">4</text>
<rect class="step" x="18.00" y="46.00" width="4.00" height="3.00"/>
<text class="label" x="20.00" y="47.50">5</text>
<rect class="step" x="18.00" y="61.00" width="4.00" height="3.00"/>
<text class="label" x="20.00" y="62.50">6</text>
<rect class="step" x="18.00" y="76.00" width="4.00" height="3.00"/>
<text class="label" x="20.00" y="77.50">7</text>
<rect class="step" x="18.00" y="87.00" width="4.00" height="3.00"/>
<text class="label" x="20.00" y="88.50">8</text>
<rect class="step" x="28.00" y="98.00" width="4.00" height="3.00"/>
<text class="label" x="30.00" y="99.50">9</text>
<rect class="step" x="38.00" y="109.00" width="4.00" height="3.00"/>
<text class="label" x="40.00" y="110.50">10</text>
<rect class="step" x="48.00" y="120.00" width="4.00" height="3.00"/>
<text class="label" x="50.00" y="121.50">11</text>
<line class="assoc" x1="22.00" y1="5.50" x2="23.00" y2="5.50"/>
<rect class="action" x="23.00" y="4.07" width="4.00" height="2.86" rx="0.45" ry="0.45"/>
<text class="action-label" x="25.00" y="5.09"><tspan x="25.00" dy="0">AppUni</tspan><tspan x="25.00" dy="0.82">nstalled</tspan></text>
<line class="assoc" x1="22.00" y1="16.50" x2="23.00" y2="16.50"/>
<rect class="action" x="23.00" y="15.07" width="4.00" height="2.86" rx="0.45" ry="0.45"/>
<text class="action-label" x="25.00" y="16.50"><tspan x="25.00" dy="0">InstallApp</tspan></text>
<line class="assoc" x1="22.00" y1="27.50" x2="23.00" y2="27.50"/>
<rect class="action" x="23.00" y="26.07" width="4.00" height="2.86" rx="0.45" ry="0.45"/>
<text class="action-label" x="25.00" y="27.09"><tspan x="25.00" dy="0">註冊M</tspan><tspan x="25.00" dy="0.82">anifest</tspan></text>
<line class="assoc" x1="22.00" y1="38.50" x2="23.00" y2="38.50"/>
<rect class="action" x="23.00" y="37.07" width="4.00" height="2.86" rx="0.45" ry="0.45"/>
<text class="action-label" x="25.00" y="37.68"><tspan x="25.00" dy="0">firsttools</tspan><tspan x="25.00" dy="0.82">呼叫trigg</tspan><tspan x="25.00" dy="0.82">ersconnect</tspan></text>
<line class="assoc" x1="12.00" y1="47.50" x2="13.00" y2="47.50"/>
<rect class="action" x="13.00" y="46.07" width="4.00" height="2.86" rx="0.45" ry="0.45"/>
<text class="action-label" x="15.00" y="46.68"><tspan x="15.00" dy="0">Connect</tspan><tspan x="15.00" dy="0.82">StdioTr</tspan><tspan x="15.00" dy="0.82">ansport</tspan></text>
<line class="assoc" x1="22.00" y1="47.50" x2="23.00" y2="47.50"/>
<rect class="action" x="23.00" y="46.07" width="4.00" height="2.86" rx="0.45" ry="0.45"/>
<text class="action-label" x="25.00" y="46.68"><tspan x="25.00" dy="0">ConnectH</tspan><tspan x="25.00" dy="0.82">ttpOverU</tspan><tspan x="25.00" dy="0.82">nixSocket</tspan></text>
<line class="assoc" x1="22.00" y1="62.50" x2="23.00" y2="62.50"/>
<rect class="action" x="23.00" y="61.07" width="4.00" height="2.86" rx="0.45" ry="0.45"/>
<text class="action-label" x="25.00" y="62.09"><tspan x="25.00" dy="0">client</tspan><tspan x="25.00" dy="0.82">就緒</tspan></text>
<line class="assoc" x1="22.00" y1="77.50" x2="23.00" y2="77.50"/>
<rect class="action" x="23.00" y="76.07" width="4.00" height="2.86" rx="0.45" ry="0.45"/>
<text class="action-label" x="25.00" y="77.09"><tspan x="25.00" dy="0">派發工</tspan><tspan x="25.00" dy="0.82">具呼叫</tspan></text>
<line class="assoc" x1="22.00" y1="88.50" x2="23.00" y2="88.50"/>
<rect class="action" x="23.00" y="87.07" width="4.00" height="2.86" rx="0.45" ry="0.45"/>
<text class="action-label" x="25.00" y="87.68"><tspan x="25.00" dy="0">串流回</tspan><tspan x="25.00" dy="0.82">應與af</tspan><tspan x="25.00" dy="0.82">terhook</tspan></text>
<line class="assoc" x1="32.00" y1="99.50" x2="33.00" y2="99.50"/>
<rect class="action" x="33.00" y="98.07" width="4.00" height="2.86" rx="0.45" ry="0.45"/>
<text class="action-label" x="35.00" y="99.09"><tspan x="35.00" dy="0">閒置</tspan><tspan x="35.00" dy="0.82">waiting</tspan></text>
<line class="assoc" x1="42.00" y1="110.50" x2="43.00" y2="110.50"/>
<rect class="action" x="43.00" y="109.07" width="4.00" height="2.86" rx="0.45" ry="0.45"/>
<text class="action-label" x="45.00" y="109.68"><tspan x="45.00" dy="0">閒置s</tspan><tspan x="45.00" dy="0.82">weep無</tspan><tspan x="45.00" dy="0.82">optoday</tspan></text>
<line class="assoc" x1="52.00" y1="121.50" x2="53.00" y2="121.50"/>
<rect class="action" x="53.00" y="120.07" width="4.00" height="2.86" rx="0.45" ry="0.45"/>
<text class="action-label" x="55.00" y="120.68"><tspan x="55.00" dy="0">unload與</tspan><tspan x="55.00" dy="0.82">發出bu</tspan><tspan x="55.00" dy="0.82">s事件</tspan></text>
<line class="gate" x1="19.00" y1="11.00" x2="21.00" y2="11.00"/>
<text class="gate-label" x="21.40" y="11.00"><tspan x="21.40" dy="0">使用者installsapp || /api/v2/mcp/store/apps POST</tspan></text>
<line class="gate" x1="19.00" y1="22.00" x2="21.00" y2="22.00"/>
<text class="gate-label" x="21.40" y="22.00"><tspan x="21.40" dy="0">Manifest路徑已解析</tspan></text>
<line class="gate" x1="19.00" y1="33.00" x2="21.00" y2="33.00"/>
<text class="gate-label" x="21.40" y="33.00"><tspan x="21.40" dy="0">zodValidatePass &amp;&amp; bindMountLintPass</tspan></text>
<line class="gate" x1="6.00" y1="42.00" x2="24.00" y2="42.00"/>
<line class="gate" x1="8.00" y1="59.00" x2="22.00" y2="59.00"/>
<line class="gate" x1="19.00" y1="70.00" x2="21.00" y2="70.00"/>
<text class="gate-label" x="21.40" y="70.00"><tspan x="21.40" dy="0">清單toolsok &amp;&amp; enablementSnapshotInjected</tspan></text>
<line class="gate" x1="19.00" y1="83.00" x2="21.00" y2="83.00"/>
<text class="gate-label" x="21.40" y="83.00"><tspan x="21.40" dy="0">模型invokes工具 &amp;&amp; argsValidate (relaxed token pattern)</tspan></text>
<line class="gate" x1="6.00" y1="92.00" x2="34.00" y2="92.00"/>
<line class="gate" x1="16.00" y1="103.00" x2="44.00" y2="103.00"/>
<line class="gate" x1="26.00" y1="114.00" x2="54.00" y2="114.00"/>
<line class="gate" x1="49.00" y1="125.00" x2="51.00" y2="125.00"/>
<text class="gate-label-left" x="48.60" y="125.00"><tspan x="48.60" dy="0">clientClosed &amp;&amp; 狀態[clientName] cleared</tspan></text>
<line class="gate" x1="9.00" y1="44.00" x2="11.00" y2="44.00"/>
<text class="gate-label-left" x="8.60" y="44.00"><tspan x="8.60" dy="0">項目.transport == &#x27;stdio&#x27;</tspan></text>
<line class="gate" x1="19.00" y1="44.00" x2="21.00" y2="44.00"/>
<text class="gate-label-left" x="18.60" y="43.32"><tspan x="18.60" dy="0">項目.transpo</tspan><tspan x="18.60" dy="0.68">rt == &#x27;streama</tspan><tspan x="18.60" dy="0.68">ble-http&#x27; || &#x27;sse&#x27;</tspan></text>
<line class="gate" x1="9.00" y1="57.00" x2="11.00" y2="57.00"/>
<text class="gate-label-left" x="8.60" y="57.00"><tspan x="8.60" dy="0">啟動ok &amp;&amp; initializeHandshakeOk</tspan></text>
<line class="gate" x1="19.00" y1="57.00" x2="21.00" y2="57.00"/>
<text class="gate-label-left" x="18.60" y="57.00"><tspan x="18.60" dy="0">streamableHttpOk || ssefallbackok</tspan></text>
<line class="gate" x1="9.00" y1="94.00" x2="11.00" y2="94.00"/>
<text class="gate-label-left" x="8.60" y="93.32"><tspan x="8.60" dy="0">下一個</tspan><tspan x="8.60" dy="0.68">工具呼</tspan><tspan x="8.60" dy="0.68">叫arrives</tspan></text>
<line class="gate" x1="29.00" y1="94.00" x2="31.00" y2="94.00"/>
<text class="gate-label-left" x="28.60" y="94.00"><tspan x="28.60" dy="0">無待處理呼叫</tspan></text>
<line class="gate" x1="19.00" y1="105.00" x2="21.00" y2="105.00"/>
<text class="gate-label-left" x="18.60" y="104.32"><tspan x="18.60" dy="0">模型re</tspan><tspan x="18.60" dy="0.68">sumes工</tspan><tspan x="18.60" dy="0.68">具use</tspan></text>
<line class="gate" x1="39.00" y1="105.00" x2="41.00" y2="105.00"/>
<text class="gate-label-left" x="38.60" y="105.00"><tspan x="38.60" dy="0">now - lastused於 &gt; tweaks.mcp.閒置unloadms (proposed)</tspan></text>
<line class="gate" x1="29.00" y1="116.00" x2="31.00" y2="116.00"/>
<text class="gate-label-left" x="28.60" y="116.00"><tspan x="28.60" dy="0">proposal不已交付 (stay 已釘選)</tspan></text>
<line class="gate" x1="49.00" y1="116.00" x2="51.00" y2="116.00"/>
<text class="gate-label-left" x="48.60" y="116.00"><tspan x="48.60" dy="0">proposal已交付 &amp;&amp; inflight==0 (unload)</tspan></text>
<circle class="junction" cx="20.00" cy="72.00" r="0.22"/>
<circle class="junction" cx="30.00" cy="96.00" r="0.22"/>
<circle class="junction" cx="2.00" cy="96.00" r="0.22"/>
</svg>