<svg xmlns="http://www.w3.org/2000/svg" width="1459" height="1860" viewBox="-28.00 -2.00 72.95 93.00" role="img">
<style>
.step{fill:#fff;stroke:#111;stroke-width:.14}.step-inner{fill:none;stroke:#111;stroke-width:.08}
.action{fill:#fff;stroke:#111;stroke-width:.14}.gate{stroke:#111;stroke-width:.16}
.edge{fill:none;stroke:#111;stroke-width:.05;stroke-linecap:round;stroke-linejoin:round}.edge-arrow{marker-end:url(#arrow)}
.flyover-mask{stroke:#fff;stroke-width:.12;stroke-linecap:round}
.flyover{fill:none;stroke:#111;stroke-width:.05;stroke-linecap:round}
.junction{fill:#111;stroke:#111;stroke-width:0}.branch-junction{fill:#fff;stroke:#111;stroke-width:.08}
.assoc{stroke:#111;stroke-width:.05}.label{font:bold .7px 'Times New Roman', 'BiauKai', 'DFKai-SB', serif;text-anchor:middle;dominant-baseline:middle}
.action-label{font:.55px 'Times New Roman', 'BiauKai', 'DFKai-SB', serif;text-anchor:middle;dominant-baseline:middle}.gate-label{font:italic .55px 'Times New Roman', 'BiauKai', 'DFKai-SB', serif;text-anchor:start;dominant-baseline:middle}.gate-label-left{font:italic .55px 'Times New Roman', 'BiauKai', 'DFKai-SB', serif;text-anchor:end;dominant-baseline:middle}
</style>
<defs><marker id="arrow" markerWidth="0.4" markerHeight="0.4" refX="0.36" refY="0.2" orient="auto" markerUnits="userSpaceOnUse"><path d="M 0 0 L 0.4 0.2 L 0 0.4 z" fill="#111"/></marker></defs>
<rect x="-28.00" y="-2.00" width="72.95" height="93.00" fill="white"/>
<path class="edge edge-arrow" d="M 22.37 9.00 L 22.37 13.00"/>
<path class="edge edge-arrow" d="M 22.37 18.00 L 22.37 22.00"/>
<path class="edge edge-arrow" d="M 0.79 52.00 L -17.50 52.00 Q -18.00 52.00 -18.00 52.50 L -18.00 77.50 Q -18.00 78.00 -17.50 78.00 L 0.29 78.00 Q 0.79 78.00 0.79 78.50 L 0.79 80.00"/>
<path class="edge" d="M 22.37 7.00 L 22.37 9.00"/>
<path class="edge" d="M 22.37 16.00 L 22.37 18.00"/>
<path class="edge" d="M 22.37 25.00 L 22.37 27.00"/>
<path class="edge edge-arrow" d="M 22.37 27.00 L 22.37 29.00"/>
<path class="edge" d="M 22.37 32.00 L 22.37 34.00"/>
<path class="edge edge-arrow" d="M 22.37 34.00 L 22.37 36.00"/>
<path class="edge edge-arrow" d="M 22.37 39.00 L 22.37 41.00"/>
<path class="edge edge-arrow" d="M 11.58 41.00 L 11.58 45.00"/>
<path class="edge edge-arrow" d="M 33.16 41.00 L 33.16 45.00"/>
<path class="edge" d="M 11.58 48.00 L 11.58 50.00"/>
<path class="edge edge-arrow" d="M 11.58 50.00 L 11.58 56.00"/>
<path class="edge edge-arrow" d="M 11.58 59.00 L 11.58 61.00"/>
<path class="edge edge-arrow" d="M -10.00 61.00 L -10.00 65.00"/>
<path class="edge edge-arrow" d="M 22.37 61.00 L 22.37 65.00"/>
<path class="edge edge-arrow" d="M 33.16 61.00 L 33.16 65.00"/>
<path class="edge edge-arrow" d="M 0.79 61.00 L 0.79 65.00"/>
<path class="edge edge-arrow" d="M -10.00 68.00 L -10.00 78.00"/>
<path class="edge" d="M 22.37 68.00 L 22.37 70.00"/>
<path class="edge" d="M 22.37 70.00 L 22.37 72.00"/>
<path class="edge" d="M 22.37 72.00 L -20.00 72.00"/>
<path class="edge" d="M -20.00 72.00 L -20.00 20.00"/>
<path class="edge" d="M -20.00 20.00 L 22.37 20.00"/>
<path class="edge" d="M 33.16 68.00 L 33.16 74.00"/>
<path class="edge" d="M 33.16 74.00 L 33.16 78.00"/>
<path class="edge" d="M -18.00 78.00 L -22.00 78.00"/>
<path class="edge" d="M 33.16 78.00 L 0.79 78.00"/>
<path class="edge" d="M -22.00 78.00 L -22.00 11.00"/>
<path class="edge" d="M -22.00 11.00 L 22.37 11.00"/>
<path class="edge edge-arrow" d="M 0.79 68.00 L 0.79 78.00"/>
<path class="edge" d="M 0.79 83.00 L 0.79 85.00"/>
<path class="edge edge-arrow" d="M 0.79 85.00 L 0.79 86.50 Q 0.79 87.00 0.29 87.00 L -23.50 87.00 Q -24.00 87.00 -24.00 86.50 L -24.00 2.50 Q -24.00 2.00 -23.50 2.00 L 21.87 2.00 Q 22.37 2.00 22.37 2.50 L 22.37 4.00"/>
<path class="edge" d="M 33.16 48.00 L 33.16 51.50 Q 33.16 52.00 32.66 52.00 L 0.79 52.00"/>
<rect class="step" x="20.37" y="4.00" width="4.00" height="3.00"/>
<rect class="step-inner" x="20.62" y="4.25" width="3.50" height="2.50"/>
<text class="label" x="22.37" y="5.50">0</text>
<rect class="step" x="20.37" y="13.00" width="4.00" height="3.00"/>
<text class="label" x="22.37" y="14.50">1</text>
<rect class="step" x="20.37" y="22.00" width="4.00" height="3.00"/>
<text class="label" x="22.37" y="23.50">2</text>
<rect class="step" x="20.37" y="29.00" width="4.00" height="3.00"/>
<text class="label" x="22.37" y="30.50">3</text>
<rect class="step" x="20.37" y="36.00" width="4.00" height="3.00"/>
<text class="label" x="22.37" y="37.50">4</text>
<rect class="step" x="9.58" y="45.00" width="4.00" height="3.00"/>
<text class="label" x="11.58" y="46.50">5</text>
<rect class="step" x="9.58" y="56.00" width="4.00" height="3.00"/>
<text class="label" x="11.58" y="57.50">6</text>
<rect class="step" x="-12.00" y="65.00" width="4.00" height="3.00"/>
<text class="label" x="-10.00" y="66.50">7</text>
<rect class="step" x="20.37" y="65.00" width="4.00" height="3.00"/>
<text class="label" x="22.37" y="66.50">8</text>
<rect class="step" x="31.16" y="65.00" width="4.00" height="3.00"/>
<text class="label" x="33.16" y="66.50">9</text>
<rect class="step" x="-1.21" y="65.00" width="4.00" height="3.00"/>
<text class="label" x="0.79" y="66.50">10</text>
<rect class="step" x="-1.21" y="80.00" width="4.00" height="3.00"/>
<text class="label" x="0.79" y="81.50">11</text>
<rect class="step" x="31.16" y="45.00" width="4.00" height="3.00"/>
<text class="label" x="33.16" y="46.50">12</text>
<line class="assoc" x1="24.37" y1="5.50" x2="25.37" y2="5.50"/>
<rect class="action" x="25.37" y="4.07" width="4.79" height="2.86" rx="0.45" ry="0.45"/>
<text class="action-label" x="27.76" y="5.09"><tspan x="27.76" dy="0">無spec在</tspan><tspan x="27.76" dy="0.82">flight</tspan></text>
<line class="assoc" x1="24.37" y1="14.50" x2="25.37" y2="14.50"/>
<rect class="action" x="25.37" y="13.07" width="4.79" height="2.86" rx="0.45" ry="0.45"/>
<text class="action-label" x="27.76" y="14.09"><tspan x="27.76" dy="0">propo</tspan><tspan x="27.76" dy="0.82">se狀態</tspan></text>
<line class="assoc" x1="24.37" y1="23.50" x2="25.37" y2="23.50"/>
<rect class="action" x="25.37" y="22.07" width="4.79" height="2.86" rx="0.45" ry="0.45"/>
<text class="action-label" x="27.76" y="23.50"><tspan x="27.76" dy="0">design狀態</tspan></text>
<line class="assoc" x1="24.37" y1="30.50" x2="25.37" y2="30.50"/>
<rect class="action" x="25.37" y="29.07" width="4.79" height="2.86" rx="0.45" ry="0.45"/>
<text class="action-label" x="27.76" y="30.50"><tspan x="27.76" dy="0">規劃狀態</tspan></text>
<line class="assoc" x1="24.37" y1="37.50" x2="25.37" y2="37.50"/>
<rect class="action" x="25.37" y="36.07" width="4.79" height="2.86" rx="0.45" ry="0.45"/>
<text class="action-label" x="27.76" y="37.09"><tspan x="27.76" dy="0">implem</tspan><tspan x="27.76" dy="0.82">ent狀態</tspan></text>
<line class="assoc" x1="13.58" y1="46.50" x2="14.58" y2="46.50"/>
<rect class="action" x="14.58" y="45.07" width="4.79" height="2.86" rx="0.45" ry="0.45"/>
<text class="action-label" x="16.97" y="46.50"><tspan x="16.97" dy="0">verify狀態</tspan></text>
<line class="assoc" x1="13.58" y1="57.50" x2="14.58" y2="57.50"/>
<rect class="action" x="14.58" y="56.07" width="4.79" height="2.86" rx="0.45" ry="0.45"/>
<text class="action-label" x="16.97" y="56.68"><tspan x="16.97" dy="0">live狀態</tspan><tspan x="16.97" dy="0.82">syncche</tspan><tspan x="16.97" dy="0.82">ckpoint</tspan></text>
<line class="assoc" x1="-8.00" y1="66.50" x2="-7.00" y2="66.50"/>
<rect class="action" x="-7.00" y="65.07" width="4.79" height="2.86" rx="0.45" ry="0.45"/>
<text class="action-label" x="-4.61" y="66.09"><tspan x="-4.61" dy="0">amendinl</tspan><tspan x="-4.61" dy="0.82">inedelta</tspan></text>
<line class="assoc" x1="24.37" y1="66.50" x2="25.37" y2="66.50"/>
<rect class="action" x="25.37" y="65.07" width="4.79" height="2.86" rx="0.45" ry="0.45"/>
<text class="action-label" x="27.76" y="65.68"><tspan x="27.76" dy="0">revise或</tspan><tspan x="27.76" dy="0.82">extend回到</tspan><tspan x="27.76" dy="0.82">到designed</tspan></text>
<line class="assoc" x1="35.16" y1="66.50" x2="36.16" y2="66.50"/>
<rect class="action" x="36.16" y="65.07" width="4.79" height="2.86" rx="0.45" ry="0.45"/>
<text class="action-label" x="38.55" y="66.09"><tspan x="38.55" dy="0">refactorsna</tspan><tspan x="38.55" dy="0.82">pshot與reset</tspan></text>
<line class="assoc" x1="2.79" y1="66.50" x2="3.79" y2="66.50"/>
<rect class="action" x="3.79" y="65.07" width="4.79" height="2.86" rx="0.45" ry="0.45"/>
<text class="action-label" x="6.18" y="66.09"><tspan x="6.18" dy="0">archi</tspan><tspan x="6.18" dy="0.82">ve狀態</tspan></text>
<line class="assoc" x1="2.79" y1="81.50" x2="3.79" y2="81.50"/>
<rect class="action" x="3.79" y="80.07" width="4.79" height="2.86" rx="0.45" ry="0.45"/>
<text class="action-label" x="6.18" y="81.50"><tspan x="6.18" dy="0">spec於rest</tspan></text>
<line class="assoc" x1="35.16" y1="46.50" x2="36.16" y2="46.50"/>
<rect class="action" x="36.16" y="45.07" width="4.79" height="2.86" rx="0.45" ry="0.45"/>
<text class="action-label" x="38.55" y="46.09"><tspan x="38.55" dy="0">abandon或</tspan><tspan x="38.55" dy="0.82">rollback</tspan></text>
<circle class="junction" cx="22.37" cy="9.00" r="0.18"/>
<text class="gate-label" x="23.77" y="9.00"><tspan x="23.77" dy="0">規劃initinvoked供newslugOR legacyplanstouched</tspan></text>
<circle class="junction" cx="22.37" cy="18.00" r="0.18"/>
<text class="gate-label" x="23.77" y="18.00"><tspan x="23.77" dy="0">proposalmdAND 狀態jsonwritten狀態==proposed</tspan></text>
<circle class="junction" cx="22.37" cy="27.00" r="0.18"/>
<text class="gate-label-left" x="20.97" y="27.00"><tspan x="20.97" dy="0">specmddesignmdidef0grafcetc4sequencedataschemapresentAND validatepasses</tspan></text>
<circle class="junction" cx="22.37" cy="34.00" r="0.18"/>
<text class="gate-label-left" x="20.97" y="34.00"><tspan x="20.97" dy="0">tasksmdhandoffmdtestvectors錯誤observabilitypresent</tspan></text>
<line class="gate" x1="7.58" y1="41.00" x2="37.16" y2="41.00"/>
<circle class="junction" cx="11.58" cy="50.00" r="0.18"/>
<text class="gate-label" x="12.98" y="50.00"><tspan x="12.98" dy="0">validationevidenceattachedAND testspass</tspan></text>
<line class="gate" x1="-14.00" y1="61.00" x2="37.16" y2="61.00"/>
<line class="gate" x1="-12.00" y1="78.00" x2="2.79" y2="78.00"/>
<circle class="junction" cx="22.37" cy="70.00" r="0.18"/>
<text class="gate-label" x="23.77" y="69.32"><tspan x="23.77" dy="0">狀態setdesignedAND</tspan><tspan x="23.77" dy="0.68">revise或extendhis</tspan><tspan x="23.77" dy="0.68">tory項目appended</tspan></text>
<circle class="junction" cx="33.16" cy="74.00" r="0.18"/>
<text class="gate-label-left" x="31.76" y="73.32"><tspan x="31.76" dy="0">historyrefactorYYYY MM</tspan><tspan x="31.76" dy="0.68">DD createdAND artifacts</tspan><tspan x="31.76" dy="0.68">reset到proposedskeleton</tspan></text>
<circle class="junction" cx="0.79" cy="85.00" r="0.18"/>
<text class="gate-label" x="2.19" y="85.00"><tspan x="2.19" dy="0">1</tspan></text>
<circle class="junction" cx="33.16" cy="52.00" r="0.18"/>
<text class="gate-label" x="34.56" y="51.32"><tspan x="34.56" dy="0">規劃rollbackrefactor或</tspan><tspan x="34.56" dy="0.68">explicitabandonre</tspan><tspan x="34.56" dy="0.68">corded在history</tspan></text>
<line class="gate" x1="10.58" y1="43.00" x2="12.58" y2="43.00"/>
<text class="gate-label-left" x="10.18" y="43.00"><tspan x="10.18" dy="0">alltaskscheckedAND syncclean</tspan></text>
<line class="gate" x1="32.16" y1="43.00" x2="34.16" y2="43.00"/>
<text class="gate-label-left" x="31.76" y="43.00"><tspan x="31.76" dy="0">規劃abandoned或refactorrequested</tspan></text>
<line class="gate" x1="-11.00" y1="63.00" x2="-9.00" y2="63.00"/>
<text class="gate-label-left" x="-11.40" y="63.00"><tspan x="-11.40" dy="0">mode==amend</tspan></text>
<line class="gate" x1="21.37" y1="63.00" x2="23.37" y2="63.00"/>
<text class="gate-label-left" x="20.97" y="63.00"><tspan x="20.97" dy="0">mode==revise或extend</tspan></text>
<line class="gate" x1="32.16" y1="63.00" x2="34.16" y2="63.00"/>
<text class="gate-label-left" x="31.76" y="63.00"><tspan x="31.76" dy="0">mode==refactor</tspan></text>
<line class="gate" x1="-0.21" y1="63.00" x2="1.79" y2="63.00"/>
<text class="gate-label-left" x="-0.61" y="63.00"><tspan x="-0.61" dy="0">mode==archive</tspan></text>
<line class="gate" x1="-11.00" y1="76.00" x2="-9.00" y2="76.00"/>
<text class="gate-label-left" x="-11.40" y="75.32"><tspan x="-11.40" dy="0">inlinedeltamar</tspan><tspan x="-11.40" dy="0.68">keraddedAND 狀態</tspan><tspan x="-11.40" dy="0.68">remainsliving</tspan></text>
<line class="gate" x1="-0.21" y1="76.00" x2="1.79" y2="76.00"/>
<text class="gate-label-left" x="-0.61" y="75.32"><tspan x="-0.61" dy="0">狀態setarchivedAND</tspan><tspan x="-0.61" dy="0.68">optionalmove到</tspan><tspan x="-0.61" dy="0.68">archivefolderdone</tspan></text>
<line class="flyover-mask" x1="-19.00" y1="72.00" x2="-17.00" y2="72.00"/>
<path class="flyover" d="M -19.00 72.00 Q -18.00 71.00 -17.00 72.00"/>
<circle class="junction" cx="22.37" cy="11.00" r="0.22"/>
<circle class="junction" cx="22.37" cy="20.00" r="0.22"/>
<circle class="junction" cx="-18.00" cy="78.00" r="0.22"/>
</svg>