<svg xmlns="http://www.w3.org/2000/svg" width="1864" height="2300" viewBox="-58.00 -2.00 93.19 115.00" role="img">
<style>
.step{fill:#fff;stroke:#111;stroke-width:.14}.step-inner{fill:none;stroke:#111;stroke-width:.08}
.action{fill:#fff;stroke:#111;stroke-width:.14}.gate{stroke:#111;stroke-width:.16}
.edge{fill:none;stroke:#111;stroke-width:.05;stroke-linecap:round;stroke-linejoin:round}.edge-arrow{marker-end:url(#arrow)}
.flyover-mask{stroke:#fff;stroke-width:.12;stroke-linecap:round}
.flyover{fill:none;stroke:#111;stroke-width:.05;stroke-linecap:round}
.junction{fill:#111;stroke:#111;stroke-width:0}.branch-junction{fill:#fff;stroke:#111;stroke-width:.08}
.assoc{stroke:#111;stroke-width:.05}.label{font:bold .7px 'Times New Roman', 'BiauKai', 'DFKai-SB', serif;text-anchor:middle;dominant-baseline:middle}
.action-label{font:.55px 'Times New Roman', 'BiauKai', 'DFKai-SB', serif;text-anchor:middle;dominant-baseline:middle}.gate-label{font:italic .55px 'Times New Roman', 'BiauKai', 'DFKai-SB', serif;text-anchor:start;dominant-baseline:middle}.gate-label-left{font:italic .55px 'Times New Roman', 'BiauKai', 'DFKai-SB', serif;text-anchor:end;dominant-baseline:middle}
</style>
<defs><marker id="arrow" markerWidth="0.4" markerHeight="0.4" refX="0.36" refY="0.2" orient="auto" markerUnits="userSpaceOnUse"><path d="M 0 0 L 0.4 0.2 L 0 0.4 z" fill="#111"/></marker></defs>
<rect x="-58.00" y="-2.00" width="93.19" height="115.00" fill="white"/>
<path class="edge edge-arrow" d="M 19.19 11.00 L 19.19 17.00"/>
<path class="edge edge-arrow" d="M 19.19 24.00 L 19.19 30.00"/>
<path class="edge" d="M 19.19 7.00 L 19.19 11.00"/>
<path class="edge" d="M 19.19 20.00 L 19.19 24.00"/>
<path class="edge" d="M 19.19 33.00 L 19.19 37.00"/>
<path class="edge edge-arrow" d="M 19.19 37.00 L 19.19 41.00"/>
<path class="edge" d="M 19.19 44.00 L 19.19 48.00"/>
<path class="edge edge-arrow" d="M 19.19 48.00 L 19.19 52.00"/>
<path class="edge edge-arrow" d="M 19.19 55.00 L 19.19 57.00"/>
<path class="edge edge-arrow" d="M 9.46 57.00 L 9.46 61.00"/>
<path class="edge edge-arrow" d="M 19.19 57.00 L 19.19 61.00"/>
<path class="edge" d="M 9.46 64.00 L 9.46 68.00"/>
<path class="edge edge-arrow" d="M 9.46 68.00 L 9.46 72.00"/>
<path class="edge edge-arrow" d="M 9.46 75.00 L 9.46 77.00"/>
<path class="edge edge-arrow" d="M 9.46 77.00 L 9.46 81.00"/>
<path class="edge edge-arrow" d="M -10.00 77.00 L -10.00 81.00"/>
<path class="edge edge-arrow" d="M -0.27 77.00 L -0.27 81.00"/>
<path class="edge edge-arrow" d="M 19.19 77.00 L 19.19 81.00"/>
<path class="edge edge-arrow" d="M 9.46 84.00 L 9.46 100.00"/>
<path class="edge edge-arrow" d="M 19.19 100.00 L 19.19 102.00"/>
<path class="edge" d="M -10.00 84.00 L -10.00 86.00"/>
<path class="edge" d="M -10.00 86.00 L -10.00 88.00"/>
<path class="edge" d="M -10.00 88.00 L -46.00 88.00"/>
<path class="edge" d="M -46.00 88.00 L -46.00 28.00"/>
<path class="edge" d="M -46.00 28.00 L 19.19 28.00"/>
<path class="edge" d="M -0.27 84.00 L -0.27 90.00"/>
<path class="edge" d="M -0.27 90.00 L -0.27 92.00"/>
<path class="edge" d="M -0.27 92.00 L -50.00 92.00"/>
<path class="edge" d="M -50.00 92.00 L -50.00 15.00"/>
<path class="edge" d="M -50.00 15.00 L 19.19 15.00"/>
<path class="edge edge-arrow" d="M 19.19 84.00 L 19.19 100.00"/>
<path class="edge" d="M 19.19 105.00 L 19.19 107.00"/>
<path class="edge edge-arrow" d="M 19.19 107.00 L 19.19 108.50 Q 19.19 109.00 18.69 109.00 L -53.50 109.00 Q -54.00 109.00 -54.00 108.50 L -54.00 2.50 Q -54.00 2.00 -53.50 2.00 L 18.69 2.00 Q 19.19 2.00 19.19 2.50 L 19.19 4.00"/>
<path class="edge edge-arrow" d="M 19.19 64.00 L 19.19 64.50 Q 19.19 65.00 19.69 65.00 L 28.69 65.00 Q 29.19 65.00 29.19 65.50 L 29.19 100.00"/>
<rect class="step" x="17.19" y="4.00" width="4.00" height="3.00"/>
<rect class="step-inner" x="17.44" y="4.25" width="3.50" height="2.50"/>
<text class="label" x="19.19" y="5.50">0</text>
<rect class="step" x="17.19" y="17.00" width="4.00" height="3.00"/>
<text class="label" x="19.19" y="18.50">1</text>
<rect class="step" x="17.19" y="30.00" width="4.00" height="3.00"/>
<text class="label" x="19.19" y="31.50">2</text>
<rect class="step" x="17.19" y="41.00" width="4.00" height="3.00"/>
<text class="label" x="19.19" y="42.50">3</text>
<rect class="step" x="17.19" y="52.00" width="4.00" height="3.00"/>
<text class="label" x="19.19" y="53.50">4</text>
<rect class="step" x="7.46" y="61.00" width="4.00" height="3.00"/>
<text class="label" x="9.46" y="62.50">5</text>
<rect class="step" x="7.46" y="72.00" width="4.00" height="3.00"/>
<text class="label" x="9.46" y="73.50">6</text>
<rect class="step" x="7.46" y="81.00" width="4.00" height="3.00"/>
<text class="label" x="9.46" y="82.50">7</text>
<rect class="step" x="-12.00" y="81.00" width="4.00" height="3.00"/>
<text class="label" x="-10.00" y="82.50">8</text>
<rect class="step" x="-2.27" y="81.00" width="4.00" height="3.00"/>
<text class="label" x="-0.27" y="82.50">9</text>
<rect class="step" x="17.19" y="81.00" width="4.00" height="3.00"/>
<text class="label" x="19.19" y="82.50">10</text>
<rect class="step" x="17.19" y="102.00" width="4.00" height="3.00"/>
<text class="label" x="19.19" y="103.50">11</text>
<rect class="step" x="17.19" y="61.00" width="4.00" height="3.00"/>
<text class="label" x="19.19" y="62.50">12</text>
<line class="assoc" x1="21.19" y1="5.50" x2="22.19" y2="5.50"/>
<rect class="action" x="22.19" y="4.07" width="3.73" height="2.86" rx="0.45" ry="0.45"/>
<text class="action-label" x="24.05" y="4.68"><tspan x="24.05" dy="0">無</tspan><tspan x="24.05" dy="0.82">spec</tspan><tspan x="24.05" dy="0.82">在flight</tspan></text>
<line class="assoc" x1="21.19" y1="18.50" x2="22.19" y2="18.50"/>
<rect class="action" x="22.19" y="17.07" width="3.73" height="2.86" rx="0.45" ry="0.45"/>
<text class="action-label" x="24.05" y="18.50"><tspan x="24.05" dy="0">propose狀態</tspan></text>
<line class="assoc" x1="21.19" y1="31.50" x2="22.19" y2="31.50"/>
<rect class="action" x="22.19" y="30.07" width="3.73" height="2.86" rx="0.45" ry="0.45"/>
<text class="action-label" x="24.05" y="31.50"><tspan x="24.05" dy="0">design狀態</tspan></text>
<line class="assoc" x1="21.19" y1="42.50" x2="22.19" y2="42.50"/>
<rect class="action" x="22.19" y="41.07" width="3.73" height="2.86" rx="0.45" ry="0.45"/>
<text class="action-label" x="24.05" y="42.50"><tspan x="24.05" dy="0">規劃狀態</tspan></text>
<line class="assoc" x1="21.19" y1="53.50" x2="22.19" y2="53.50"/>
<rect class="action" x="22.19" y="52.07" width="3.73" height="2.86" rx="0.45" ry="0.45"/>
<text class="action-label" x="24.05" y="53.50"><tspan x="24.05" dy="0">implement狀態</tspan></text>
<line class="assoc" x1="11.46" y1="62.50" x2="12.46" y2="62.50"/>
<rect class="action" x="12.46" y="61.07" width="3.73" height="2.86" rx="0.45" ry="0.45"/>
<text class="action-label" x="14.33" y="62.50"><tspan x="14.33" dy="0">verify狀態</tspan></text>
<line class="assoc" x1="11.46" y1="73.50" x2="12.46" y2="73.50"/>
<rect class="action" x="12.46" y="72.07" width="3.73" height="2.86" rx="0.45" ry="0.45"/>
<text class="action-label" x="14.33" y="72.68"><tspan x="14.33" dy="0">live狀態</tspan><tspan x="14.33" dy="0.82">syncche</tspan><tspan x="14.33" dy="0.82">ckpoint</tspan></text>
<line class="assoc" x1="11.46" y1="82.50" x2="12.46" y2="82.50"/>
<rect class="action" x="12.46" y="81.07" width="3.73" height="2.86" rx="0.45" ry="0.45"/>
<text class="action-label" x="14.33" y="82.09"><tspan x="14.33" dy="0">amendinl</tspan><tspan x="14.33" dy="0.82">inedelta</tspan></text>
<line class="assoc" x1="-8.00" y1="82.50" x2="-7.00" y2="82.50"/>
<rect class="action" x="-7.00" y="81.07" width="3.73" height="2.86" rx="0.45" ry="0.45"/>
<text class="action-label" x="-5.13" y="81.68"><tspan x="-5.13" dy="0">revise或</tspan><tspan x="-5.13" dy="0.82">extend回</tspan><tspan x="-5.13" dy="0.82">到到designed</tspan></text>
<line class="assoc" x1="1.73" y1="82.50" x2="2.73" y2="82.50"/>
<rect class="action" x="2.73" y="81.07" width="3.73" height="2.86" rx="0.45" ry="0.45"/>
<text class="action-label" x="4.60" y="82.09"><tspan x="4.60" dy="0">refactorsnap</tspan><tspan x="4.60" dy="0.82">shot與reset</tspan></text>
<line class="assoc" x1="21.19" y1="82.50" x2="22.19" y2="82.50"/>
<rect class="action" x="22.19" y="81.07" width="3.73" height="2.86" rx="0.45" ry="0.45"/>
<text class="action-label" x="24.05" y="82.50"><tspan x="24.05" dy="0">archive狀態</tspan></text>
<line class="assoc" x1="21.19" y1="103.50" x2="22.19" y2="103.50"/>
<rect class="action" x="22.19" y="102.07" width="3.73" height="2.86" rx="0.45" ry="0.45"/>
<text class="action-label" x="24.05" y="103.50"><tspan x="24.05" dy="0">spec於rest</tspan></text>
<line class="assoc" x1="21.19" y1="62.50" x2="22.19" y2="62.50"/>
<rect class="action" x="22.19" y="61.07" width="3.73" height="2.86" rx="0.45" ry="0.45"/>
<text class="action-label" x="24.05" y="62.09"><tspan x="24.05" dy="0">abandon或</tspan><tspan x="24.05" dy="0.82">rollback</tspan></text>
<line class="gate" x1="18.19" y1="11.00" x2="20.19" y2="11.00"/>
<text class="gate-label" x="20.59" y="11.00"><tspan x="20.59" dy="0">規劃initinvoked供newslugOR legacyplanstouched</tspan></text>
<line class="gate" x1="18.19" y1="24.00" x2="20.19" y2="24.00"/>
<text class="gate-label" x="20.59" y="24.00"><tspan x="20.59" dy="0">proposalmdAND 狀態jsonwritten狀態==proposed</tspan></text>
<line class="gate" x1="18.19" y1="37.00" x2="20.19" y2="37.00"/>
<text class="gate-label-left" x="17.79" y="37.00"><tspan x="17.79" dy="0">specmddesignmdidef0grafcetc4sequencedataschemapresentAND validatepasses</tspan></text>
<line class="gate" x1="18.19" y1="48.00" x2="20.19" y2="48.00"/>
<text class="gate-label" x="20.59" y="48.00"><tspan x="20.59" dy="0">tasksmdhandoffmdtestvectors錯誤observabilitypresent</tspan></text>
<line class="gate" x1="5.46" y1="57.00" x2="23.19" y2="57.00"/>
<line class="gate" x1="8.46" y1="68.00" x2="10.46" y2="68.00"/>
<text class="gate-label" x="10.86" y="68.00"><tspan x="10.86" dy="0">validationevidenceattachedAND testspass</tspan></text>
<line class="gate" x1="-14.00" y1="77.00" x2="23.19" y2="77.00"/>
<line class="gate" x1="7.46" y1="100.00" x2="31.19" y2="100.00"/>
<line class="gate" x1="-11.00" y1="86.00" x2="-9.00" y2="86.00"/>
<text class="gate-label-left" x="-11.40" y="86.00"><tspan x="-11.40" dy="0">狀態setdesignedAND revise或extendhistory項目appended</tspan></text>
<line class="gate" x1="-1.27" y1="90.00" x2="0.73" y2="90.00"/>
<text class="gate-label-left" x="-1.67" y="90.00"><tspan x="-1.67" dy="0">historyrefactorYYYY MM DD createdAND artifactsreset到proposedskeleton</tspan></text>
<line class="gate" x1="18.19" y1="107.00" x2="20.19" y2="107.00"/>
<text class="gate-label" x="20.59" y="107.00"><tspan x="20.59" dy="0">1</tspan></text>
<line class="gate" x1="8.46" y1="59.00" x2="10.46" y2="59.00"/>
<text class="gate-label-left" x="8.06" y="59.00"><tspan x="8.06" dy="0">alltaskscheckedAND syncclean</tspan></text>
<line class="gate" x1="18.19" y1="59.00" x2="20.19" y2="59.00"/>
<text class="gate-label-left" x="17.79" y="58.66"><tspan x="17.79" dy="0">規劃abandoned或</tspan><tspan x="17.79" dy="0.68">refactorrequested</tspan></text>
<line class="gate" x1="8.46" y1="79.00" x2="10.46" y2="79.00"/>
<text class="gate-label-left" x="8.06" y="79.00"><tspan x="8.06" dy="0">mode==amend</tspan></text>
<line class="gate" x1="-11.00" y1="79.00" x2="-9.00" y2="79.00"/>
<text class="gate-label-left" x="-11.40" y="79.00"><tspan x="-11.40" dy="0">mode==revise或extend</tspan></text>
<line class="gate" x1="-1.27" y1="79.00" x2="0.73" y2="79.00"/>
<text class="gate-label-left" x="-1.67" y="79.00"><tspan x="-1.67" dy="0">mode==refactor</tspan></text>
<line class="gate" x1="18.19" y1="79.00" x2="20.19" y2="79.00"/>
<text class="gate-label-left" x="17.79" y="79.00"><tspan x="17.79" dy="0">mode==archive</tspan></text>
<line class="gate" x1="8.46" y1="98.00" x2="10.46" y2="98.00"/>
<text class="gate-label-left" x="8.06" y="98.00"><tspan x="8.06" dy="0">inlinedeltamarkeraddedAND 狀態remainsliving</tspan></text>
<line class="gate" x1="18.19" y1="98.00" x2="20.19" y2="98.00"/>
<text class="gate-label-left" x="17.79" y="97.32"><tspan x="17.79" dy="0">狀態setarchivedAND</tspan><tspan x="17.79" dy="0.68">optionalmove到</tspan><tspan x="17.79" dy="0.68">archivefolderdone</tspan></text>
<line class="gate" x1="28.19" y1="98.00" x2="30.19" y2="98.00"/>
<text class="gate-label-left" x="27.79" y="97.32"><tspan x="27.79" dy="0">規劃rollbackrefactor或</tspan><tspan x="27.79" dy="0.68">explicitabandonrecorded在</tspan><tspan x="27.79" dy="0.68">history</tspan></text>
<circle class="junction" cx="19.19" cy="15.00" r="0.22"/>
<circle class="junction" cx="19.19" cy="28.00" r="0.22"/>
</svg>