<svg xmlns="http://www.w3.org/2000/svg" width="1659" height="2220" viewBox="-38.00 -2.00 82.95 111.00" role="img">
<style>
.step{fill:#fff;stroke:#111;stroke-width:.14}.step-inner{fill:none;stroke:#111;stroke-width:.08}
.action{fill:#fff;stroke:#111;stroke-width:.14}.gate{stroke:#111;stroke-width:.16}
.edge{fill:none;stroke:#111;stroke-width:.05;stroke-linecap:round;stroke-linejoin:round}.edge-arrow{marker-end:url(#arrow)}
.flyover-mask{stroke:#fff;stroke-width:.12;stroke-linecap:round}
.flyover{fill:none;stroke:#111;stroke-width:.05;stroke-linecap:round}
.junction{fill:#111;stroke:#111;stroke-width:0}.branch-junction{fill:#fff;stroke:#111;stroke-width:.08}
.assoc{stroke:#111;stroke-width:.05}.label{font:bold .7px 'Times New Roman', 'BiauKai', 'DFKai-SB', serif;text-anchor:middle;dominant-baseline:middle}
.action-label{font:.55px 'Times New Roman', 'BiauKai', 'DFKai-SB', serif;text-anchor:middle;dominant-baseline:middle}.gate-label{font:italic .55px 'Times New Roman', 'BiauKai', 'DFKai-SB', serif;text-anchor:start;dominant-baseline:middle}.gate-label-left{font:italic .55px 'Times New Roman', 'BiauKai', 'DFKai-SB', serif;text-anchor:end;dominant-baseline:middle}
</style>
<defs><marker id="arrow" markerWidth="0.4" markerHeight="0.4" refX="0.36" refY="0.2" orient="auto" markerUnits="userSpaceOnUse"><path d="M 0 0 L 0.4 0.2 L 0 0.4 z" fill="#111"/></marker></defs>
<rect x="-38.00" y="-2.00" width="82.95" height="111.00" fill="white"/>
<path class="edge edge-arrow" d="M 22.37 11.00 L 22.37 15.00"/>
<path class="edge edge-arrow" d="M 22.37 22.00 L 22.37 26.00"/>
<path class="edge edge-arrow" d="M 0.79 66.00 L -27.50 66.00 Q -28.00 66.00 -28.00 66.50 L -28.00 95.50 Q -28.00 96.00 -27.50 96.00 L 0.29 96.00 Q 0.79 96.00 0.79 95.50 L 0.79 93.88 Q 0.79 93.38 1.29 93.38 L 4.74 93.38 Q 5.24 93.38 5.24 93.88 L 5.24 98.12 Q 5.24 98.62 4.74 98.62 L 1.10 98.62 Q 0.79 98.62 0.79 98.31 L 0.79 98.00"/>
<path class="edge" d="M 22.37 7.00 L 22.37 11.00"/>
<path class="edge" d="M 22.37 18.00 L 22.37 22.00"/>
<path class="edge" d="M 22.37 29.00 L 22.37 33.00"/>
<path class="edge edge-arrow" d="M 22.37 33.00 L 22.37 37.00"/>
<path class="edge" d="M 22.37 40.00 L 22.37 44.00"/>
<path class="edge edge-arrow" d="M 22.37 44.00 L 22.37 48.00"/>
<path class="edge edge-arrow" d="M 22.37 51.00 L 22.37 53.00"/>
<path class="edge edge-arrow" d="M 11.58 53.00 L 11.58 57.00"/>
<path class="edge edge-arrow" d="M 33.16 53.00 L 33.16 57.00"/>
<path class="edge" d="M 11.58 60.00 L 11.58 64.00"/>
<path class="edge edge-arrow" d="M 11.58 64.00 L 11.58 70.00"/>
<path class="edge edge-arrow" d="M 11.58 73.00 L 11.58 75.00"/>
<path class="edge edge-arrow" d="M -10.00 75.00 L -10.00 79.00"/>
<path class="edge edge-arrow" d="M 22.37 75.00 L 22.37 79.00"/>
<path class="edge edge-arrow" d="M 33.16 75.00 L 33.16 79.00"/>
<path class="edge edge-arrow" d="M 0.79 75.00 L 0.79 79.00"/>
<path class="edge edge-arrow" d="M -10.00 82.00 L -10.00 96.00"/>
<path class="edge edge-arrow" d="M 0.79 96.00 L 0.79 98.00"/>
<path class="edge" d="M 22.37 82.00 L 22.37 84.00"/>
<path class="edge" d="M 22.37 84.00 L 22.37 86.00"/>
<path class="edge" d="M 22.37 86.00 L -30.00 86.00"/>
<path class="edge" d="M -30.00 86.00 L -30.00 24.00"/>
<path class="edge" d="M -30.00 24.00 L 22.37 24.00"/>
<path class="edge" d="M 33.16 82.00 L 33.16 92.00"/>
<path class="edge" d="M 33.16 92.00 L 33.16 94.00"/>
<path class="edge" d="M 33.16 94.00 L -32.00 94.00"/>
<path class="edge" d="M -32.00 94.00 L -32.00 13.00"/>
<path class="edge" d="M -32.00 13.00 L 22.37 13.00"/>
<path class="edge" d="M 0.79 82.00 L 0.79 93.38"/>
<path class="edge" d="M 0.79 101.00 L 0.79 103.00"/>
<path class="edge edge-arrow" d="M 0.79 103.00 L 0.79 104.50 Q 0.79 105.00 0.29 105.00 L -33.50 105.00 Q -34.00 105.00 -34.00 104.50 L -34.00 2.50 Q -34.00 2.00 -33.50 2.00 L 21.87 2.00 Q 22.37 2.00 22.37 2.50 L 22.37 4.00"/>
<path class="edge" d="M 33.16 60.00 L 33.16 65.50 Q 33.16 66.00 32.66 66.00 L 0.79 66.00"/>
<rect class="step" x="20.37" y="4.00" width="4.00" height="3.00"/>
<rect class="step-inner" x="20.62" y="4.25" width="3.50" height="2.50"/>
<text class="label" x="22.37" y="5.50">0</text>
<rect class="step" x="20.37" y="15.00" width="4.00" height="3.00"/>
<text class="label" x="22.37" y="16.50">1</text>
<rect class="step" x="20.37" y="26.00" width="4.00" height="3.00"/>
<text class="label" x="22.37" y="27.50">2</text>
<rect class="step" x="20.37" y="37.00" width="4.00" height="3.00"/>
<text class="label" x="22.37" y="38.50">3</text>
<rect class="step" x="20.37" y="48.00" width="4.00" height="3.00"/>
<text class="label" x="22.37" y="49.50">4</text>
<rect class="step" x="9.58" y="57.00" width="4.00" height="3.00"/>
<text class="label" x="11.58" y="58.50">5</text>
<rect class="step" x="9.58" y="70.00" width="4.00" height="3.00"/>
<text class="label" x="11.58" y="71.50">6</text>
<rect class="step" x="-12.00" y="79.00" width="4.00" height="3.00"/>
<text class="label" x="-10.00" y="80.50">7</text>
<rect class="step" x="20.37" y="79.00" width="4.00" height="3.00"/>
<text class="label" x="22.37" y="80.50">8</text>
<rect class="step" x="31.16" y="79.00" width="4.00" height="3.00"/>
<text class="label" x="33.16" y="80.50">9</text>
<rect class="step" x="-1.21" y="79.00" width="4.00" height="3.00"/>
<text class="label" x="0.79" y="80.50">10</text>
<rect class="step" x="-1.21" y="98.00" width="4.00" height="3.00"/>
<text class="label" x="0.79" y="99.50">11</text>
<rect class="step" x="31.16" y="57.00" width="4.00" height="3.00"/>
<text class="label" x="33.16" y="58.50">12</text>
<line class="assoc" x1="24.37" y1="5.50" x2="25.37" y2="5.50"/>
<rect class="action" x="25.37" y="4.07" width="4.79" height="2.86" rx="0.45" ry="0.45"/>
<text class="action-label" x="27.76" y="5.09"><tspan x="27.76" dy="0">無spec在</tspan><tspan x="27.76" dy="0.82">flight</tspan></text>
<line class="assoc" x1="24.37" y1="16.50" x2="25.37" y2="16.50"/>
<rect class="action" x="25.37" y="15.07" width="4.79" height="2.86" rx="0.45" ry="0.45"/>
<text class="action-label" x="27.76" y="16.09"><tspan x="27.76" dy="0">propo</tspan><tspan x="27.76" dy="0.82">se狀態</tspan></text>
<line class="assoc" x1="24.37" y1="27.50" x2="25.37" y2="27.50"/>
<rect class="action" x="25.37" y="26.07" width="4.79" height="2.86" rx="0.45" ry="0.45"/>
<text class="action-label" x="27.76" y="27.50"><tspan x="27.76" dy="0">design狀態</tspan></text>
<line class="assoc" x1="24.37" y1="38.50" x2="25.37" y2="38.50"/>
<rect class="action" x="25.37" y="37.07" width="4.79" height="2.86" rx="0.45" ry="0.45"/>
<text class="action-label" x="27.76" y="38.50"><tspan x="27.76" dy="0">規劃狀態</tspan></text>
<line class="assoc" x1="24.37" y1="49.50" x2="25.37" y2="49.50"/>
<rect class="action" x="25.37" y="48.07" width="4.79" height="2.86" rx="0.45" ry="0.45"/>
<text class="action-label" x="27.76" y="49.09"><tspan x="27.76" dy="0">implem</tspan><tspan x="27.76" dy="0.82">ent狀態</tspan></text>
<line class="assoc" x1="13.58" y1="58.50" x2="14.58" y2="58.50"/>
<rect class="action" x="14.58" y="57.07" width="4.79" height="2.86" rx="0.45" ry="0.45"/>
<text class="action-label" x="16.97" y="58.50"><tspan x="16.97" dy="0">verify狀態</tspan></text>
<line class="assoc" x1="13.58" y1="71.50" x2="14.58" y2="71.50"/>
<rect class="action" x="14.58" y="70.07" width="4.79" height="2.86" rx="0.45" ry="0.45"/>
<text class="action-label" x="16.97" y="70.68"><tspan x="16.97" dy="0">live狀態</tspan><tspan x="16.97" dy="0.82">syncche</tspan><tspan x="16.97" dy="0.82">ckpoint</tspan></text>
<line class="assoc" x1="-8.00" y1="80.50" x2="-7.00" y2="80.50"/>
<rect class="action" x="-7.00" y="79.07" width="4.79" height="2.86" rx="0.45" ry="0.45"/>
<text class="action-label" x="-4.61" y="80.09"><tspan x="-4.61" dy="0">amendinl</tspan><tspan x="-4.61" dy="0.82">inedelta</tspan></text>
<line class="assoc" x1="24.37" y1="80.50" x2="25.37" y2="80.50"/>
<rect class="action" x="25.37" y="79.07" width="4.79" height="2.86" rx="0.45" ry="0.45"/>
<text class="action-label" x="27.76" y="79.68"><tspan x="27.76" dy="0">revise或</tspan><tspan x="27.76" dy="0.82">extend回到</tspan><tspan x="27.76" dy="0.82">到designed</tspan></text>
<line class="assoc" x1="35.16" y1="80.50" x2="36.16" y2="80.50"/>
<rect class="action" x="36.16" y="79.07" width="4.79" height="2.86" rx="0.45" ry="0.45"/>
<text class="action-label" x="38.55" y="80.09"><tspan x="38.55" dy="0">refactorsna</tspan><tspan x="38.55" dy="0.82">pshot與reset</tspan></text>
<line class="assoc" x1="2.79" y1="80.50" x2="3.79" y2="80.50"/>
<rect class="action" x="3.79" y="79.07" width="4.79" height="2.86" rx="0.45" ry="0.45"/>
<text class="action-label" x="6.18" y="80.09"><tspan x="6.18" dy="0">archi</tspan><tspan x="6.18" dy="0.82">ve狀態</tspan></text>
<line class="assoc" x1="2.79" y1="99.50" x2="3.79" y2="99.50"/>
<rect class="action" x="3.79" y="98.07" width="4.79" height="2.86" rx="0.45" ry="0.45"/>
<text class="action-label" x="6.18" y="99.50"><tspan x="6.18" dy="0">spec於rest</tspan></text>
<line class="assoc" x1="35.16" y1="58.50" x2="36.16" y2="58.50"/>
<rect class="action" x="36.16" y="57.07" width="4.79" height="2.86" rx="0.45" ry="0.45"/>
<text class="action-label" x="38.55" y="58.09"><tspan x="38.55" dy="0">abandon或</tspan><tspan x="38.55" dy="0.82">rollback</tspan></text>
<line class="gate" x1="21.37" y1="11.00" x2="23.37" y2="11.00"/>
<text class="gate-label" x="23.77" y="11.00"><tspan x="23.77" dy="0">規劃initinvoked供newslugOR legacyplanstouched</tspan></text>
<line class="gate" x1="21.37" y1="22.00" x2="23.37" y2="22.00"/>
<text class="gate-label" x="23.77" y="22.00"><tspan x="23.77" dy="0">proposalmdAND 狀態jsonwritten狀態==proposed</tspan></text>
<line class="gate" x1="21.37" y1="33.00" x2="23.37" y2="33.00"/>
<text class="gate-label-left" x="20.97" y="33.00"><tspan x="20.97" dy="0">specmddesignmdidef0grafcetc4sequencedataschemapresentAND validatepasses</tspan></text>
<line class="gate" x1="21.37" y1="44.00" x2="23.37" y2="44.00"/>
<text class="gate-label-left" x="20.97" y="44.00"><tspan x="20.97" dy="0">tasksmdhandoffmdtestvectors錯誤observabilitypresent</tspan></text>
<line class="gate" x1="7.58" y1="53.00" x2="37.16" y2="53.00"/>
<line class="gate" x1="10.58" y1="64.00" x2="12.58" y2="64.00"/>
<text class="gate-label" x="12.98" y="64.00"><tspan x="12.98" dy="0">validationevidenceattachedAND testspass</tspan></text>
<line class="gate" x1="-14.00" y1="75.00" x2="37.16" y2="75.00"/>
<line class="gate" x1="-12.00" y1="96.00" x2="2.79" y2="96.00"/>
<line class="gate" x1="21.37" y1="84.00" x2="23.37" y2="84.00"/>
<text class="gate-label" x="23.77" y="83.32"><tspan x="23.77" dy="0">狀態setdesignedAND</tspan><tspan x="23.77" dy="0.68">revise或extendhis</tspan><tspan x="23.77" dy="0.68">tory項目appended</tspan></text>
<line class="gate" x1="32.16" y1="92.00" x2="34.16" y2="92.00"/>
<text class="gate-label-left" x="31.76" y="91.32"><tspan x="31.76" dy="0">historyrefactorYYYY MM</tspan><tspan x="31.76" dy="0.68">DD createdAND artifacts</tspan><tspan x="31.76" dy="0.68">reset到proposedskeleton</tspan></text>
<line class="gate" x1="-0.21" y1="103.00" x2="1.79" y2="103.00"/>
<text class="gate-label" x="2.19" y="103.00"><tspan x="2.19" dy="0">1</tspan></text>
<line class="gate" x1="-0.21" y1="66.00" x2="1.79" y2="66.00"/>
<text class="gate-label-left" x="-0.61" y="65.32"><tspan x="-0.61" dy="0">規劃rollbackrefactor或explicitabandonrecorded在history</tspan></text>
<line class="gate" x1="10.58" y1="55.00" x2="12.58" y2="55.00"/>
<text class="gate-label-left" x="10.18" y="55.00"><tspan x="10.18" dy="0">alltaskscheckedAND syncclean</tspan></text>
<line class="gate" x1="32.16" y1="55.00" x2="34.16" y2="55.00"/>
<text class="gate-label-left" x="31.76" y="55.00"><tspan x="31.76" dy="0">規劃abandoned或refactorrequested</tspan></text>
<line class="gate" x1="-11.00" y1="77.00" x2="-9.00" y2="77.00"/>
<text class="gate-label-left" x="-11.40" y="77.00"><tspan x="-11.40" dy="0">mode==amend</tspan></text>
<line class="gate" x1="21.37" y1="77.00" x2="23.37" y2="77.00"/>
<text class="gate-label-left" x="20.97" y="77.00"><tspan x="20.97" dy="0">mode==revise或extend</tspan></text>
<line class="gate" x1="32.16" y1="77.00" x2="34.16" y2="77.00"/>
<text class="gate-label-left" x="31.76" y="77.00"><tspan x="31.76" dy="0">mode==refactor</tspan></text>
<line class="gate" x1="-0.21" y1="77.00" x2="1.79" y2="77.00"/>
<text class="gate-label-left" x="-0.61" y="77.00"><tspan x="-0.61" dy="0">mode==archive</tspan></text>
<line class="gate" x1="-11.00" y1="94.00" x2="-9.00" y2="94.00"/>
<text class="gate-label-left" x="-11.40" y="93.32"><tspan x="-11.40" dy="0">inlinedeltamarkeraddedAND 狀態remainsliving</tspan></text>
<line class="gate" x1="-0.21" y1="94.00" x2="1.79" y2="94.00"/>
<text class="gate-label-left" x="-0.61" y="93.32"><tspan x="-0.61" dy="0">狀態setarchivedAND</tspan><tspan x="-0.61" dy="0.68">optionalmove到</tspan><tspan x="-0.61" dy="0.68">archivefolderdone</tspan></text>
<line class="flyover-mask" x1="-29.00" y1="86.00" x2="-27.00" y2="86.00"/>
<line class="flyover-mask" x1="-29.00" y1="94.00" x2="-27.00" y2="94.00"/>
<line class="flyover-mask" x1="4.24" y1="94.00" x2="6.24" y2="94.00"/>
<path class="flyover" d="M -29.00 86.00 Q -28.00 85.00 -27.00 86.00"/>
<path class="flyover" d="M -29.00 94.00 Q -28.00 93.00 -27.00 94.00"/>
<path class="flyover" d="M 4.24 94.00 Q 5.24 93.00 6.24 94.00"/>
<circle class="junction" cx="22.37" cy="13.00" r="0.22"/>
<circle class="junction" cx="22.37" cy="24.00" r="0.22"/>
<circle class="junction" cx="0.79" cy="93.38" r="0.22"/>
</svg>