<svg xmlns="http://www.w3.org/2000/svg" width="1243" height="1820" viewBox="-26.00 -2.00 62.16 91.00" role="img">
<style>
.step{fill:#fff;stroke:#111;stroke-width:.14}.step-inner{fill:none;stroke:#111;stroke-width:.08}
.action{fill:#fff;stroke:#111;stroke-width:.14}.gate{stroke:#111;stroke-width:.16}
.edge{fill:none;stroke:#111;stroke-width:.05;stroke-linecap:round;stroke-linejoin:round}.edge-arrow{marker-end:url(#arrow)}
.flyover-mask{stroke:#fff;stroke-width:.12;stroke-linecap:round}
.flyover{fill:none;stroke:#111;stroke-width:.05;stroke-linecap:round}
.junction{fill:#111;stroke:#111;stroke-width:0}.branch-junction{fill:#fff;stroke:#111;stroke-width:.08}
.assoc{stroke:#111;stroke-width:.05}.label{font:bold .7px 'Times New Roman', 'BiauKai', 'DFKai-SB', serif;text-anchor:middle;dominant-baseline:middle}
.action-label{font:.55px 'Times New Roman', 'BiauKai', 'DFKai-SB', serif;text-anchor:middle;dominant-baseline:middle}.gate-label{font:italic .55px 'Times New Roman', 'BiauKai', 'DFKai-SB', serif;text-anchor:start;dominant-baseline:middle}.gate-label-left{font:italic .55px 'Times New Roman', 'BiauKai', 'DFKai-SB', serif;text-anchor:end;dominant-baseline:middle}
</style>
<defs><marker id="arrow" markerWidth="0.4" markerHeight="0.4" refX="0.36" refY="0.2" orient="auto" markerUnits="userSpaceOnUse"><path d="M 0 0 L 0.4 0.2 L 0 0.4 z" fill="#111"/></marker></defs>
<rect x="-26.00" y="-2.00" width="62.16" height="91.00" fill="white"/>
<path class="edge edge-arrow" d="M 22.37 9.00 L 22.37 13.00"/>
<path class="edge edge-arrow" d="M 22.37 18.00 L 22.37 22.00"/>
<path class="edge" d="M 22.37 7.00 L 22.37 9.00"/>
<path class="edge" d="M 22.37 16.00 L 22.37 18.00"/>
<path class="edge" d="M 22.37 25.00 L 22.37 27.00"/>
<path class="edge edge-arrow" d="M 22.37 27.00 L 22.37 29.00"/>
<path class="edge" d="M 22.37 32.00 L 22.37 34.00"/>
<path class="edge edge-arrow" d="M 22.37 34.00 L 22.37 36.00"/>
<path class="edge edge-arrow" d="M 22.37 39.00 L 22.37 41.00"/>
<path class="edge edge-arrow" d="M 11.58 41.00 L 11.58 45.00"/>
<path class="edge edge-arrow" d="M 22.37 41.00 L 22.37 45.00"/>
<path class="edge" d="M 11.58 48.00 L 11.58 50.00"/>
<path class="edge edge-arrow" d="M 11.58 50.00 L 11.58 52.00"/>
<path class="edge edge-arrow" d="M 11.58 55.00 L 11.58 57.00"/>
<path class="edge edge-arrow" d="M 11.58 57.00 L 11.58 61.00"/>
<path class="edge edge-arrow" d="M -10.00 57.00 L -10.00 61.00"/>
<path class="edge edge-arrow" d="M 0.79 57.00 L 0.79 61.00"/>
<path class="edge edge-arrow" d="M 22.37 57.00 L 22.37 61.00"/>
<path class="edge edge-arrow" d="M 11.58 64.00 L 11.58 76.00"/>
<path class="edge edge-arrow" d="M 22.37 76.00 L 22.37 78.00"/>
<path class="edge" d="M -10.00 64.00 L -10.00 66.00"/>
<path class="edge" d="M -10.00 66.00 L -10.00 68.00"/>
<path class="edge" d="M -10.00 68.00 L -18.00 68.00"/>
<path class="edge" d="M -18.00 68.00 L -18.00 20.00"/>
<path class="edge" d="M -18.00 20.00 L 22.37 20.00"/>
<path class="edge" d="M 0.79 64.00 L 0.79 70.00"/>
<path class="edge" d="M 0.79 70.00 L 0.79 72.00"/>
<path class="edge" d="M 0.79 72.00 L -20.00 72.00"/>
<path class="edge" d="M -20.00 72.00 L -20.00 11.00"/>
<path class="edge" d="M -20.00 11.00 L 22.37 11.00"/>
<path class="edge" d="M 22.37 64.00 L 22.37 65.00"/>
<path class="edge" d="M 22.37 65.00 L 25.82 65.00"/>
<path class="edge" d="M 25.82 65.00 L 25.82 76.61"/>
<path class="edge" d="M 25.82 76.61 L 22.37 76.61"/>
<path class="edge" d="M 22.37 81.00 L 22.37 83.00"/>
<path class="edge edge-arrow" d="M 22.37 83.00 L 22.37 84.50 Q 22.37 85.00 21.87 85.00 L -21.50 85.00 Q -22.00 85.00 -22.00 84.50 L -22.00 2.50 Q -22.00 2.00 -21.50 2.00 L 21.87 2.00 Q 22.37 2.00 22.37 2.50 L 22.37 4.00"/>
<path class="edge" d="M 22.37 48.00 L 22.37 49.00"/>
<path class="edge" d="M 22.37 49.00 L 32.16 49.00"/>
<path class="edge" d="M 32.16 49.00 L 32.16 76.61"/>
<path class="edge" d="M 32.16 76.61 L 25.82 76.61"/>
<rect class="step" x="20.37" y="4.00" width="4.00" height="3.00"/>
<rect class="step-inner" x="20.62" y="4.25" width="3.50" height="2.50"/>
<text class="label" x="22.37" y="5.50">0</text>
<rect class="step" x="20.37" y="13.00" width="4.00" height="3.00"/>
<text class="label" x="22.37" y="14.50">1</text>
<rect class="step" x="20.37" y="22.00" width="4.00" height="3.00"/>
<text class="label" x="22.37" y="23.50">2</text>
<rect class="step" x="20.37" y="29.00" width="4.00" height="3.00"/>
<text class="label" x="22.37" y="30.50">3</text>
<rect class="step" x="20.37" y="36.00" width="4.00" height="3.00"/>
<text class="label" x="22.37" y="37.50">4</text>
<rect class="step" x="9.58" y="45.00" width="4.00" height="3.00"/>
<text class="label" x="11.58" y="46.50">5</text>
<rect class="step" x="9.58" y="52.00" width="4.00" height="3.00"/>
<text class="label" x="11.58" y="53.50">6</text>
<rect class="step" x="9.58" y="61.00" width="4.00" height="3.00"/>
<text class="label" x="11.58" y="62.50">7</text>
<rect class="step" x="-12.00" y="61.00" width="4.00" height="3.00"/>
<text class="label" x="-10.00" y="62.50">8</text>
<rect class="step" x="-1.21" y="61.00" width="4.00" height="3.00"/>
<text class="label" x="0.79" y="62.50">9</text>
<rect class="step" x="20.37" y="61.00" width="4.00" height="3.00"/>
<text class="label" x="22.37" y="62.50">10</text>
<rect class="step" x="20.37" y="78.00" width="4.00" height="3.00"/>
<text class="label" x="22.37" y="79.50">11</text>
<rect class="step" x="20.37" y="45.00" width="4.00" height="3.00"/>
<text class="label" x="22.37" y="46.50">12</text>
<line class="assoc" x1="24.37" y1="5.50" x2="25.37" y2="5.50"/>
<rect class="action" x="25.37" y="4.07" width="4.79" height="2.86" rx="0.45" ry="0.45"/>
<text class="action-label" x="27.76" y="5.09"><tspan x="27.76" dy="0">無spec在</tspan><tspan x="27.76" dy="0.82">flight</tspan></text>
<line class="assoc" x1="24.37" y1="14.50" x2="25.37" y2="14.50"/>
<rect class="action" x="25.37" y="13.07" width="4.79" height="2.86" rx="0.45" ry="0.45"/>
<text class="action-label" x="27.76" y="14.09"><tspan x="27.76" dy="0">propo</tspan><tspan x="27.76" dy="0.82">se狀態</tspan></text>
<line class="assoc" x1="24.37" y1="23.50" x2="25.37" y2="23.50"/>
<rect class="action" x="25.37" y="22.07" width="4.79" height="2.86" rx="0.45" ry="0.45"/>
<text class="action-label" x="27.76" y="23.50"><tspan x="27.76" dy="0">design狀態</tspan></text>
<line class="assoc" x1="24.37" y1="30.50" x2="25.37" y2="30.50"/>
<rect class="action" x="25.37" y="29.07" width="4.79" height="2.86" rx="0.45" ry="0.45"/>
<text class="action-label" x="27.76" y="30.50"><tspan x="27.76" dy="0">規劃狀態</tspan></text>
<line class="assoc" x1="24.37" y1="37.50" x2="25.37" y2="37.50"/>
<rect class="action" x="25.37" y="36.07" width="4.79" height="2.86" rx="0.45" ry="0.45"/>
<text class="action-label" x="27.76" y="37.09"><tspan x="27.76" dy="0">implem</tspan><tspan x="27.76" dy="0.82">ent狀態</tspan></text>
<line class="assoc" x1="13.58" y1="46.50" x2="14.58" y2="46.50"/>
<rect class="action" x="14.58" y="45.07" width="4.79" height="2.86" rx="0.45" ry="0.45"/>
<text class="action-label" x="16.97" y="46.50"><tspan x="16.97" dy="0">verify狀態</tspan></text>
<line class="assoc" x1="13.58" y1="53.50" x2="14.58" y2="53.50"/>
<rect class="action" x="14.58" y="52.07" width="4.79" height="2.86" rx="0.45" ry="0.45"/>
<text class="action-label" x="16.97" y="52.68"><tspan x="16.97" dy="0">live狀態</tspan><tspan x="16.97" dy="0.82">syncche</tspan><tspan x="16.97" dy="0.82">ckpoint</tspan></text>
<line class="assoc" x1="13.58" y1="62.50" x2="14.58" y2="62.50"/>
<rect class="action" x="14.58" y="61.07" width="4.79" height="2.86" rx="0.45" ry="0.45"/>
<text class="action-label" x="16.97" y="62.09"><tspan x="16.97" dy="0">amendinl</tspan><tspan x="16.97" dy="0.82">inedelta</tspan></text>
<line class="assoc" x1="-8.00" y1="62.50" x2="-7.00" y2="62.50"/>
<rect class="action" x="-7.00" y="61.07" width="4.79" height="2.86" rx="0.45" ry="0.45"/>
<text class="action-label" x="-4.61" y="61.68"><tspan x="-4.61" dy="0">revise或</tspan><tspan x="-4.61" dy="0.82">extend回到</tspan><tspan x="-4.61" dy="0.82">到designed</tspan></text>
<line class="assoc" x1="2.79" y1="62.50" x2="3.79" y2="62.50"/>
<rect class="action" x="3.79" y="61.07" width="4.79" height="2.86" rx="0.45" ry="0.45"/>
<text class="action-label" x="6.18" y="62.09"><tspan x="6.18" dy="0">refactorsna</tspan><tspan x="6.18" dy="0.82">pshot與reset</tspan></text>
<line class="assoc" x1="24.37" y1="62.50" x2="25.37" y2="62.50"/>
<rect class="action" x="25.37" y="61.07" width="4.79" height="2.86" rx="0.45" ry="0.45"/>
<text class="action-label" x="27.76" y="62.09"><tspan x="27.76" dy="0">archi</tspan><tspan x="27.76" dy="0.82">ve狀態</tspan></text>
<line class="assoc" x1="24.37" y1="79.50" x2="25.37" y2="79.50"/>
<rect class="action" x="25.37" y="78.07" width="4.79" height="2.86" rx="0.45" ry="0.45"/>
<text class="action-label" x="27.76" y="79.50"><tspan x="27.76" dy="0">spec於rest</tspan></text>
<line class="assoc" x1="24.37" y1="46.50" x2="25.37" y2="46.50"/>
<rect class="action" x="25.37" y="45.07" width="4.79" height="2.86" rx="0.45" ry="0.45"/>
<text class="action-label" x="27.76" y="46.09"><tspan x="27.76" dy="0">abandon或</tspan><tspan x="27.76" dy="0.82">rollback</tspan></text>
<line class="gate" x1="21.37" y1="9.00" x2="23.37" y2="9.00"/>
<text class="gate-label-left" x="20.97" y="9.00"><tspan x="20.97" dy="0">規劃initinvoked供newslugOR legacyplanstouched</tspan></text>
<line class="gate" x1="21.37" y1="18.00" x2="23.37" y2="18.00"/>
<text class="gate-label-left" x="20.97" y="18.00"><tspan x="20.97" dy="0">proposalmdAND 狀態jsonwritten狀態==proposed</tspan></text>
<line class="gate" x1="21.37" y1="27.00" x2="23.37" y2="27.00"/>
<text class="gate-label-left" x="20.97" y="27.00"><tspan x="20.97" dy="0">specmddesignmdidef0grafcetc4sequencedataschemapresentAND validatepasses</tspan></text>
<line class="gate" x1="21.37" y1="34.00" x2="23.37" y2="34.00"/>
<text class="gate-label-left" x="20.97" y="34.00"><tspan x="20.97" dy="0">tasksmdhandoffmdtestvectors錯誤observabilitypresent</tspan></text>
<line class="gate" x1="7.58" y1="41.00" x2="26.37" y2="41.00"/>
<line class="gate" x1="10.58" y1="50.00" x2="12.58" y2="50.00"/>
<text class="gate-label" x="12.98" y="50.00"><tspan x="12.98" dy="0">validationevidenceattachedAND testspass</tspan></text>
<line class="gate" x1="-14.00" y1="57.00" x2="26.37" y2="57.00"/>
<line class="gate" x1="9.58" y1="76.00" x2="24.37" y2="76.00"/>
<line class="gate" x1="-11.00" y1="66.00" x2="-9.00" y2="66.00"/>
<text class="gate-label" x="-8.60" y="65.32"><tspan x="-8.60" dy="0">狀態setdesignedAND</tspan><tspan x="-8.60" dy="0.68">revise或extendhis</tspan><tspan x="-8.60" dy="0.68">tory項目appended</tspan></text>
<line class="gate" x1="-0.21" y1="70.00" x2="1.79" y2="70.00"/>
<text class="gate-label-left" x="-0.61" y="69.32"><tspan x="-0.61" dy="0">historyrefactorYYYY MM</tspan><tspan x="-0.61" dy="0.68">DD createdAND artifacts</tspan><tspan x="-0.61" dy="0.68">reset到proposedskeleton</tspan></text>
<line class="gate" x1="21.37" y1="83.00" x2="23.37" y2="83.00"/>
<text class="gate-label" x="23.77" y="83.00"><tspan x="23.77" dy="0">1</tspan></text>
<line class="gate" x1="10.58" y1="43.00" x2="12.58" y2="43.00"/>
<text class="gate-label-left" x="10.18" y="43.00"><tspan x="10.18" dy="0">alltaskscheckedAND syncclean</tspan></text>
<line class="gate" x1="21.37" y1="43.00" x2="23.37" y2="43.00"/>
<text class="gate-label-left" x="20.97" y="42.32"><tspan x="20.97" dy="0">規劃abandoned或</tspan><tspan x="20.97" dy="0.68">refactorre</tspan><tspan x="20.97" dy="0.68">quested</tspan></text>
<line class="gate" x1="10.58" y1="59.00" x2="12.58" y2="59.00"/>
<text class="gate-label-left" x="10.18" y="59.00"><tspan x="10.18" dy="0">mode==amend</tspan></text>
<line class="gate" x1="-11.00" y1="59.00" x2="-9.00" y2="59.00"/>
<text class="gate-label-left" x="-11.40" y="58.32"><tspan x="-11.40" dy="0">mode==r</tspan><tspan x="-11.40" dy="0.68">evise或</tspan><tspan x="-11.40" dy="0.68">extend</tspan></text>
<line class="gate" x1="-0.21" y1="59.00" x2="1.79" y2="59.00"/>
<text class="gate-label-left" x="-0.61" y="59.00"><tspan x="-0.61" dy="0">mode==refactor</tspan></text>
<line class="gate" x1="21.37" y1="59.00" x2="23.37" y2="59.00"/>
<text class="gate-label-left" x="20.97" y="59.00"><tspan x="20.97" dy="0">mode==archive</tspan></text>
<line class="gate" x1="10.58" y1="74.00" x2="12.58" y2="74.00"/>
<text class="gate-label" x="12.98" y="73.32"><tspan x="12.98" dy="0">inlinedeltamar</tspan><tspan x="12.98" dy="0.68">keraddedAND 狀態</tspan><tspan x="12.98" dy="0.68">remainsliving</tspan></text>
<line class="gate" x1="21.37" y1="74.00" x2="23.37" y2="74.00"/>
<text class="gate-label" x="26.57" y="73.32"><tspan x="26.57" dy="0">狀態setarchivedAND</tspan><tspan x="26.57" dy="0.68">optionalmove到</tspan><tspan x="26.57" dy="0.68">archivefolderdone</tspan></text>
<line class="gate" x1="21.37" y1="74.00" x2="23.37" y2="74.00"/>
<text class="gate-label" x="23.77" y="72.64"><tspan x="23.77" dy="0">規劃rollbackrefactor或</tspan><tspan x="23.77" dy="0.68">explicitabandonre</tspan><tspan x="23.77" dy="0.68">corded在history</tspan></text>
<circle class="junction" cx="22.37" cy="11.00" r="0.22"/>
<circle class="junction" cx="22.37" cy="20.00" r="0.22"/>
<circle class="junction" cx="22.37" cy="76.61" r="0.22"/>
<circle class="junction" cx="25.82" cy="76.61" r="0.22"/>
</svg>