<svg xmlns="http://www.w3.org/2000/svg" width="1459" height="2092" viewBox="-28.00 -2.00 72.95 104.62" role="img">
<style>
.step{fill:#fff;stroke:#111;stroke-width:.14}.step-inner{fill:none;stroke:#111;stroke-width:.08}
.action{fill:#fff;stroke:#111;stroke-width:.14}.gate{stroke:#111;stroke-width:.16}
.edge{fill:none;stroke:#111;stroke-width:.05;stroke-linecap:round;stroke-linejoin:round}.edge-arrow{marker-end:url(#arrow)}
.flyover-mask{stroke:#fff;stroke-width:.12;stroke-linecap:round}
.flyover{fill:none;stroke:#111;stroke-width:.05;stroke-linecap:round}
.junction{fill:#111;stroke:#111;stroke-width:0}.branch-junction{fill:#fff;stroke:#111;stroke-width:.08}
.assoc{stroke:#111;stroke-width:.05}.label{font:bold .7px 'Times New Roman', 'BiauKai', 'DFKai-SB', serif;text-anchor:middle;dominant-baseline:middle}
.action-label{font:.55px 'Times New Roman', 'BiauKai', 'DFKai-SB', serif;text-anchor:middle;dominant-baseline:middle}.gate-label{font:italic .55px 'Times New Roman', 'BiauKai', 'DFKai-SB', serif;text-anchor:start;dominant-baseline:middle}.gate-label-left{font:italic .55px 'Times New Roman', 'BiauKai', 'DFKai-SB', serif;text-anchor:end;dominant-baseline:middle}
</style>
<defs><marker id="arrow" markerWidth="0.4" markerHeight="0.4" refX="0.36" refY="0.2" orient="auto" markerUnits="userSpaceOnUse"><path d="M 0 0 L 0.4 0.2 L 0 0.4 z" fill="#111"/></marker></defs>
<rect x="-28.00" y="-2.00" width="72.95" height="104.62" fill="white"/>
<path class="edge edge-arrow" d="M 22.37 9.00 L 22.37 13.00"/>
<path class="edge edge-arrow" d="M 22.37 18.00 L 22.37 22.00"/>
<path class="edge edge-arrow" d="M 0.79 54.46 L -17.50 54.46 Q -18.00 54.46 -18.00 54.96 L -18.00 82.42 Q -18.00 82.92 -17.50 82.92 L 0.29 82.92 Q 0.79 82.92 0.79 82.42 L 0.79 81.42 Q 0.79 80.92 1.29 80.92 L 4.74 80.92 Q 5.24 80.92 5.24 81.42 L 5.24 98.12 Q 5.24 98.62 4.74 98.62 L 1.29 98.62 Q 0.79 98.62 0.79 98.12 L 0.79 84.92"/>
<path class="edge" d="M 22.37 7.00 L 22.37 9.00"/>
<path class="edge" d="M 22.37 16.00 L 22.37 18.00"/>
<path class="edge" d="M 22.37 25.00 L 22.37 27.00"/>
<path class="edge edge-arrow" d="M 22.37 27.00 L 22.37 29.00"/>
<path class="edge" d="M 22.37 32.00 L 22.37 34.00"/>
<path class="edge edge-arrow" d="M 22.37 34.00 L 22.37 36.00"/>
<path class="edge edge-arrow" d="M 22.37 39.00 L 22.37 41.00"/>
<path class="edge edge-arrow" d="M 11.58 41.00 L 11.58 47.46"/>
<path class="edge edge-arrow" d="M 33.16 41.00 L 33.16 47.46"/>
<path class="edge" d="M 11.58 50.46 L 11.58 52.46"/>
<path class="edge edge-arrow" d="M 11.58 52.46 L 11.58 58.46"/>
<path class="edge edge-arrow" d="M 11.58 61.46 L 11.58 63.46"/>
<path class="edge edge-arrow" d="M -10.00 63.46 L -10.00 69.92"/>
<path class="edge edge-arrow" d="M 22.37 63.46 L 22.37 69.92"/>
<path class="edge edge-arrow" d="M 33.16 63.46 L 33.16 69.92"/>
<path class="edge edge-arrow" d="M 0.79 63.46 L 0.79 69.92"/>
<path class="edge edge-arrow" d="M -10.00 72.92 L -10.00 82.92"/>
<path class="edge edge-arrow" d="M 0.79 82.92 L 0.79 84.92"/>
<path class="edge" d="M 22.37 72.92 L 22.37 74.92"/>
<path class="edge" d="M 22.37 74.92 L 22.37 76.92"/>
<path class="edge" d="M 22.37 76.92 L -20.00 76.92"/>
<path class="edge" d="M -20.00 76.92 L -20.00 20.00"/>
<path class="edge" d="M -20.00 20.00 L 22.37 20.00"/>
<path class="edge" d="M 33.16 72.92 L 33.16 78.92"/>
<path class="edge" d="M 33.16 78.92 L 33.16 80.92"/>
<path class="edge" d="M 0.79 80.92 L -22.00 80.92"/>
<path class="edge" d="M 33.16 80.92 L 5.24 80.92"/>
<path class="edge" d="M -22.00 80.92 L -22.00 11.00"/>
<path class="edge" d="M -22.00 11.00 L 22.37 11.00"/>
<path class="edge" d="M 0.79 72.92 L 0.79 80.92"/>
<path class="edge" d="M 0.79 91.92 L -24.00 91.92"/>
<path class="edge" d="M -24.00 91.92 L -24.00 2.00"/>
<path class="edge" d="M -24.00 2.00 L 22.37 2.00"/>
<path class="edge edge-arrow" d="M 22.37 2.00 L 22.37 4.00"/>
<path class="edge" d="M 33.16 50.46 L 33.16 53.96 Q 33.16 54.46 32.66 54.46 L 0.79 54.46"/>
<rect class="step" x="20.37" y="4.00" width="4.00" height="3.00"/>
<rect class="step-inner" x="20.62" y="4.25" width="3.50" height="2.50"/>
<text class="label" x="22.37" y="5.50">0</text>
<rect class="step" x="20.37" y="13.00" width="4.00" height="3.00"/>
<text class="label" x="22.37" y="14.50">1</text>
<rect class="step" x="20.37" y="22.00" width="4.00" height="3.00"/>
<text class="label" x="22.37" y="23.50">2</text>
<rect class="step" x="20.37" y="29.00" width="4.00" height="3.00"/>
<text class="label" x="22.37" y="30.50">3</text>
<rect class="step" x="20.37" y="36.00" width="4.00" height="3.00"/>
<text class="label" x="22.37" y="37.50">4</text>
<rect class="step" x="9.58" y="47.46" width="4.00" height="3.00"/>
<text class="label" x="11.58" y="48.96">5</text>
<rect class="step" x="9.58" y="58.46" width="4.00" height="3.00"/>
<text class="label" x="11.58" y="59.96">6</text>
<rect class="step" x="-12.00" y="69.92" width="4.00" height="3.00"/>
<text class="label" x="-10.00" y="71.42">7</text>
<rect class="step" x="20.37" y="69.92" width="4.00" height="3.00"/>
<text class="label" x="22.37" y="71.42">8</text>
<rect class="step" x="31.16" y="69.92" width="4.00" height="3.00"/>
<text class="label" x="33.16" y="71.42">9</text>
<rect class="step" x="-1.21" y="69.92" width="4.00" height="3.00"/>
<text class="label" x="0.79" y="71.42">10</text>
<rect class="step" x="-1.21" y="84.92" width="4.00" height="3.00"/>
<text class="label" x="0.79" y="86.42">11</text>
<rect class="step" x="31.16" y="47.46" width="4.00" height="3.00"/>
<text class="label" x="33.16" y="48.96">12</text>
<line class="assoc" x1="24.37" y1="5.50" x2="25.37" y2="5.50"/>
<rect class="action" x="25.37" y="4.07" width="4.79" height="2.86" rx="0.45" ry="0.45"/>
<text class="action-label" x="27.76" y="5.09"><tspan x="27.76" dy="0">無spec在</tspan><tspan x="27.76" dy="0.82">flight</tspan></text>
<line class="assoc" x1="24.37" y1="14.50" x2="25.37" y2="14.50"/>
<rect class="action" x="25.37" y="13.07" width="4.79" height="2.86" rx="0.45" ry="0.45"/>
<text class="action-label" x="27.76" y="14.09"><tspan x="27.76" dy="0">propo</tspan><tspan x="27.76" dy="0.82">se狀態</tspan></text>
<line class="assoc" x1="24.37" y1="23.50" x2="25.37" y2="23.50"/>
<rect class="action" x="25.37" y="22.07" width="4.79" height="2.86" rx="0.45" ry="0.45"/>
<text class="action-label" x="27.76" y="23.50"><tspan x="27.76" dy="0">design狀態</tspan></text>
<line class="assoc" x1="24.37" y1="30.50" x2="25.37" y2="30.50"/>
<rect class="action" x="25.37" y="29.07" width="4.79" height="2.86" rx="0.45" ry="0.45"/>
<text class="action-label" x="27.76" y="30.50"><tspan x="27.76" dy="0">規劃狀態</tspan></text>
<line class="assoc" x1="24.37" y1="37.50" x2="25.37" y2="37.50"/>
<rect class="action" x="25.37" y="36.07" width="4.79" height="2.86" rx="0.45" ry="0.45"/>
<text class="action-label" x="27.76" y="37.09"><tspan x="27.76" dy="0">implem</tspan><tspan x="27.76" dy="0.82">ent狀態</tspan></text>
<line class="assoc" x1="13.58" y1="48.96" x2="14.58" y2="48.96"/>
<rect class="action" x="14.58" y="47.53" width="4.79" height="2.86" rx="0.45" ry="0.45"/>
<text class="action-label" x="16.97" y="48.96"><tspan x="16.97" dy="0">verify狀態</tspan></text>
<line class="assoc" x1="13.58" y1="59.96" x2="14.58" y2="59.96"/>
<rect class="action" x="14.58" y="58.53" width="4.79" height="2.86" rx="0.45" ry="0.45"/>
<text class="action-label" x="16.97" y="59.14"><tspan x="16.97" dy="0">live狀態</tspan><tspan x="16.97" dy="0.82">syncche</tspan><tspan x="16.97" dy="0.82">ckpoint</tspan></text>
<line class="assoc" x1="-8.00" y1="71.42" x2="-7.00" y2="71.42"/>
<rect class="action" x="-7.00" y="69.99" width="4.79" height="2.86" rx="0.45" ry="0.45"/>
<text class="action-label" x="-4.61" y="71.01"><tspan x="-4.61" dy="0">amendinl</tspan><tspan x="-4.61" dy="0.82">inedelta</tspan></text>
<line class="assoc" x1="24.37" y1="71.42" x2="25.37" y2="71.42"/>
<rect class="action" x="25.37" y="69.99" width="4.79" height="2.86" rx="0.45" ry="0.45"/>
<text class="action-label" x="27.76" y="70.60"><tspan x="27.76" dy="0">revise或</tspan><tspan x="27.76" dy="0.82">extend回到</tspan><tspan x="27.76" dy="0.82">到designed</tspan></text>
<line class="assoc" x1="35.16" y1="71.42" x2="36.16" y2="71.42"/>
<rect class="action" x="36.16" y="69.99" width="4.79" height="2.86" rx="0.45" ry="0.45"/>
<text class="action-label" x="38.55" y="71.01"><tspan x="38.55" dy="0">refactorsna</tspan><tspan x="38.55" dy="0.82">pshot與reset</tspan></text>
<line class="assoc" x1="2.79" y1="71.42" x2="3.79" y2="71.42"/>
<rect class="action" x="3.79" y="69.99" width="4.79" height="2.86" rx="0.45" ry="0.45"/>
<text class="action-label" x="6.18" y="71.01"><tspan x="6.18" dy="0">archi</tspan><tspan x="6.18" dy="0.82">ve狀態</tspan></text>
<line class="assoc" x1="2.79" y1="86.42" x2="3.79" y2="86.42"/>
<rect class="action" x="3.79" y="84.99" width="4.79" height="2.86" rx="0.45" ry="0.45"/>
<text class="action-label" x="6.18" y="86.42"><tspan x="6.18" dy="0">spec於rest</tspan></text>
<line class="assoc" x1="35.16" y1="48.96" x2="36.16" y2="48.96"/>
<rect class="action" x="36.16" y="47.53" width="4.79" height="2.86" rx="0.45" ry="0.45"/>
<text class="action-label" x="38.55" y="48.55"><tspan x="38.55" dy="0">abandon或</tspan><tspan x="38.55" dy="0.82">rollback</tspan></text>
<line class="gate" x1="21.37" y1="9.00" x2="23.37" y2="9.00"/>
<text class="gate-label" x="23.77" y="9.00"><tspan x="23.77" dy="0">規劃initinvoked供newslugOR legacyplanstouched</tspan></text>
<line class="gate" x1="21.37" y1="18.00" x2="23.37" y2="18.00"/>
<text class="gate-label" x="23.77" y="18.00"><tspan x="23.77" dy="0">proposalmdAND 狀態jsonwritten狀態==proposed</tspan></text>
<line class="gate" x1="21.37" y1="27.00" x2="23.37" y2="27.00"/>
<text class="gate-label-left" x="20.97" y="27.00"><tspan x="20.97" dy="0">specmddesignmdidef0grafcetc4sequencedataschemapresentAND validatepasses</tspan></text>
<line class="gate" x1="21.37" y1="34.00" x2="23.37" y2="34.00"/>
<text class="gate-label-left" x="20.97" y="34.00"><tspan x="20.97" dy="0">tasksmdhandoffmdtestvectors錯誤observabilitypresent</tspan></text>
<line class="gate" x1="7.58" y1="41.00" x2="37.16" y2="41.00"/>
<line class="gate" x1="10.58" y1="52.46" x2="12.58" y2="52.46"/>
<text class="gate-label" x="12.98" y="52.46"><tspan x="12.98" dy="0">validationevidenceattachedAND testspass</tspan></text>
<line class="gate" x1="-14.00" y1="63.46" x2="37.16" y2="63.46"/>
<line class="gate" x1="-12.00" y1="82.92" x2="2.79" y2="82.92"/>
<line class="gate" x1="21.37" y1="74.92" x2="23.37" y2="74.92"/>
<text class="gate-label" x="23.77" y="74.24"><tspan x="23.77" dy="0">狀態setdesignedAND</tspan><tspan x="23.77" dy="0.68">revise或extendhis</tspan><tspan x="23.77" dy="0.68">tory項目appended</tspan></text>
<line class="gate" x1="32.16" y1="78.92" x2="34.16" y2="78.92"/>
<text class="gate-label-left" x="31.76" y="78.24"><tspan x="31.76" dy="0">historyrefactorYYYY MM</tspan><tspan x="31.76" dy="0.68">DD createdAND artifacts</tspan><tspan x="31.76" dy="0.68">reset到proposedskeleton</tspan></text>
<line class="gate" x1="-0.21" y1="89.92" x2="1.79" y2="89.92"/>
<text class="gate-label" x="2.19" y="89.92"><tspan x="2.19" dy="0">1</tspan></text>
<line class="gate" x1="-0.21" y1="54.46" x2="1.79" y2="54.46"/>
<text class="gate-label" x="2.19" y="55.14"><tspan x="2.19" dy="0">規劃rollbackrefactor或explicitabandonrecorded在history</tspan></text>
<line class="gate" x1="10.58" y1="43.00" x2="12.58" y2="43.00"/>
<text class="gate-label-left" x="10.18" y="43.00"><tspan x="10.18" dy="0">alltaskscheckedAND syncclean</tspan></text>
<line class="gate" x1="32.16" y1="43.00" x2="34.16" y2="43.00"/>
<text class="gate-label-left" x="31.76" y="43.00"><tspan x="31.76" dy="0">規劃abandoned或refactorrequested</tspan></text>
<line class="gate" x1="-11.00" y1="65.46" x2="-9.00" y2="65.46"/>
<text class="gate-label-left" x="-11.40" y="65.46"><tspan x="-11.40" dy="0">mode==amend</tspan></text>
<line class="gate" x1="21.37" y1="65.46" x2="23.37" y2="65.46"/>
<text class="gate-label-left" x="20.97" y="65.46"><tspan x="20.97" dy="0">mode==revise或extend</tspan></text>
<line class="gate" x1="32.16" y1="65.46" x2="34.16" y2="65.46"/>
<text class="gate-label-left" x="31.76" y="65.46"><tspan x="31.76" dy="0">mode==refactor</tspan></text>
<line class="gate" x1="-0.21" y1="65.46" x2="1.79" y2="65.46"/>
<text class="gate-label-left" x="-0.61" y="65.46"><tspan x="-0.61" dy="0">mode==archive</tspan></text>
<line class="gate" x1="-11.00" y1="80.92" x2="-9.00" y2="80.92"/>
<text class="gate-label-left" x="-11.40" y="80.24"><tspan x="-11.40" dy="0">inlinedeltamar</tspan><tspan x="-11.40" dy="0.68">keraddedAND 狀態</tspan><tspan x="-11.40" dy="0.68">remainsliving</tspan></text>
<line class="gate" x1="-0.21" y1="80.92" x2="1.79" y2="80.92"/>
<text class="gate-label-left" x="-0.61" y="80.24"><tspan x="-0.61" dy="0">狀態setarchivedAND</tspan><tspan x="-0.61" dy="0.68">optionalmove到</tspan><tspan x="-0.61" dy="0.68">archivefolderdone</tspan></text>
<line class="flyover-mask" x1="-19.00" y1="76.92" x2="-17.00" y2="76.92"/>
<line class="flyover-mask" x1="-19.00" y1="80.92" x2="-17.00" y2="80.92"/>
<path class="flyover" d="M -19.00 76.92 Q -18.00 75.92 -17.00 76.92"/>
<path class="flyover" d="M -19.00 80.92 Q -18.00 79.92 -17.00 80.92"/>
<circle class="junction" cx="22.37" cy="11.00" r="0.22"/>
<circle class="junction" cx="22.37" cy="20.00" r="0.22"/>
<circle class="junction" cx="0.79" cy="80.92" r="0.22"/>
<circle class="junction" cx="5.24" cy="80.92" r="0.22"/>
<circle class="junction" cx="0.79" cy="91.92" r="0.22"/>
</svg>