<svg xmlns="http://www.w3.org/2000/svg" width="853" height="1800" viewBox="-4.00 0.00 42.66 90.00" role="img">
<style>
.step{fill:#fff;stroke:#111;stroke-width:.14}.step-inner{fill:none;stroke:#111;stroke-width:.08}
.action{fill:#fff;stroke:#111;stroke-width:.14}.gate{stroke:#111;stroke-width:.16}
.edge{fill:none;stroke:#111;stroke-width:.05;stroke-linecap:round;stroke-linejoin:round}.edge-arrow{marker-end:url(#arrow)}
.flyover-mask{stroke:#fff;stroke-width:.12;stroke-linecap:round}
.flyover{fill:none;stroke:#111;stroke-width:.05;stroke-linecap:round}
.junction{fill:#111;stroke:#111;stroke-width:0}.branch-junction{fill:#fff;stroke:#111;stroke-width:.08}
.assoc{stroke:#111;stroke-width:.05}.label{font:bold .7px 'Times New Roman', 'BiauKai', 'DFKai-SB', serif;text-anchor:middle;dominant-baseline:middle}
.action-label{font:.55px 'Times New Roman', 'BiauKai', 'DFKai-SB', serif;text-anchor:middle;dominant-baseline:middle}.gate-label{font:italic .55px 'Times New Roman', 'BiauKai', 'DFKai-SB', serif;text-anchor:start;dominant-baseline:middle}.gate-label-left{font:italic .55px 'Times New Roman', 'BiauKai', 'DFKai-SB', serif;text-anchor:end;dominant-baseline:middle}
</style>
<defs><marker id="arrow" markerWidth="0.4" markerHeight="0.4" refX="0.36" refY="0.2" orient="auto" markerUnits="userSpaceOnUse"><path d="M 0 0 L 0.4 0.2 L 0 0.4 z" fill="#111"/></marker></defs>
<rect x="-4.00" y="0.00" width="42.66" height="90.00" fill="white"/>
<path class="edge edge-arrow" d="M 21.33 23.00 L 21.33 27.00"/>
<path class="edge edge-arrow" d="M 21.33 39.00 L 21.33 43.00"/>
<path class="edge" d="M 21.33 7.00 L 21.33 9.00"/>
<path class="edge edge-arrow" d="M 21.33 9.00 L 21.33 11.00"/>
<path class="edge" d="M 21.33 14.00 L 21.33 16.00"/>
<path class="edge edge-arrow" d="M 21.33 16.00 L 21.33 18.00"/>
<path class="edge" d="M 21.33 21.00 L 21.33 23.00"/>
<path class="edge" d="M 21.33 30.00 L 21.33 32.00"/>
<path class="edge edge-arrow" d="M 21.33 32.00 L 21.33 34.00"/>
<path class="edge" d="M 21.33 37.00 L 21.33 39.00"/>
<path class="edge" d="M 21.33 46.00 L 21.33 48.00"/>
<path class="edge edge-arrow" d="M 21.33 48.00 L 21.33 50.00"/>
<path class="edge edge-arrow" d="M 21.33 53.00 L 21.33 55.00"/>
<path class="edge edge-arrow" d="M 10.00 55.00 L 10.00 59.00"/>
<path class="edge edge-arrow" d="M 21.33 55.00 L 21.33 59.00"/>
<path class="edge" d="M 10.00 62.00 L 10.00 64.00"/>
<path class="edge" d="M 10.00 64.00 L 10.00 68.00"/>
<path class="edge" d="M 10.00 68.00 L 4.00 68.00"/>
<path class="edge" d="M 4.00 68.00 L 4.00 41.00"/>
<path class="edge" d="M 4.00 41.00 L 21.33 41.00"/>
<path class="edge" d="M 21.33 62.00 L 21.33 66.00"/>
<path class="edge" d="M 21.33 66.00 L 21.33 68.00"/>
<path class="edge edge-arrow" d="M 21.33 68.00 L 21.33 70.00"/>
<path class="edge edge-arrow" d="M 21.33 66.00 L 30.83 66.00 Q 31.33 66.00 31.33 66.50 L 31.33 77.00"/>
<path class="edge edge-arrow" d="M 21.33 77.00 L 21.33 79.00"/>
<path class="edge edge-arrow" d="M 21.33 73.00 L 21.33 77.00"/>
<path class="edge" d="M 21.33 82.00 L 21.33 84.00"/>
<path class="edge" d="M 21.33 84.00 L 21.33 86.00"/>
<path class="edge" d="M 21.33 86.00 L 0.00 86.00"/>
<path class="edge" d="M 0.00 86.00 L 0.00 25.00"/>
<path class="edge" d="M 0.00 25.00 L 21.33 25.00"/>
<rect class="step" x="19.33" y="4.00" width="4.00" height="3.00" rx="0.35" ry="0.35"/>
<rect class="step-inner" x="19.58" y="4.25" width="3.50" height="2.50" rx="0.22" ry="0.22"/>
<text class="label" x="21.33" y="5.50">0</text>
<rect class="step" x="19.33" y="11.00" width="4.00" height="3.00" rx="0.35" ry="0.35"/>
<text class="label" x="21.33" y="12.50">1</text>
<rect class="step" x="19.33" y="18.00" width="4.00" height="3.00" rx="0.35" ry="0.35"/>
<text class="label" x="21.33" y="19.50">2</text>
<rect class="step" x="19.33" y="27.00" width="4.00" height="3.00" rx="0.35" ry="0.35"/>
<text class="label" x="21.33" y="28.50">3</text>
<rect class="step" x="19.33" y="34.00" width="4.00" height="3.00" rx="0.35" ry="0.35"/>
<text class="label" x="21.33" y="35.50">4</text>
<rect class="step" x="19.33" y="43.00" width="4.00" height="3.00" rx="0.35" ry="0.35"/>
<text class="label" x="21.33" y="44.50">5</text>
<rect class="step" x="19.33" y="50.00" width="4.00" height="3.00" rx="0.35" ry="0.35"/>
<text class="label" x="21.33" y="51.50">6</text>
<rect class="step" x="8.00" y="59.00" width="4.00" height="3.00" rx="0.35" ry="0.35"/>
<text class="label" x="10.00" y="60.50">7</text>
<rect class="step" x="19.33" y="59.00" width="4.00" height="3.00" rx="0.35" ry="0.35"/>
<text class="label" x="21.33" y="60.50">8</text>
<rect class="step" x="19.33" y="70.00" width="4.00" height="3.00" rx="0.35" ry="0.35"/>
<text class="label" x="21.33" y="71.50">9</text>
<rect class="step" x="19.33" y="79.00" width="4.00" height="3.00" rx="0.35" ry="0.35"/>
<text class="label" x="21.33" y="80.50">10</text>
<line class="assoc" x1="23.33" y1="5.50" x2="24.33" y2="5.50"/>
<rect class="action" x="24.33" y="4.07" width="5.33" height="2.86"/>
<text class="action-label" x="26.99" y="5.09"><tspan x="26.99" dy="0">Listen on /run/openc</tspan><tspan x="26.99" dy="0.82">ode-gateway socket</tspan></text>
<line class="assoc" x1="23.33" y1="12.50" x2="24.33" y2="12.50"/>
<rect class="action" x="24.33" y="11.07" width="5.33" height="2.86"/>
<text class="action-label" x="26.99" y="11.68"><tspan x="26.99" dy="0">Authenticate via</tspan><tspan x="26.99" dy="0.82">PAM or JWT, appl</tspan><tspan x="26.99" dy="0.82">y per-IP rate limit</tspan></text>
<line class="assoc" x1="23.33" y1="19.50" x2="24.33" y2="19.50"/>
<rect class="action" x="24.33" y="18.07" width="5.33" height="2.86"/>
<text class="action-label" x="26.99" y="18.68"><tspan x="26.99" dy="0">Locate or spawn</tspan><tspan x="26.99" dy="0.82">per-user daemon,</tspan><tspan x="26.99" dy="0.82">splice Unix socket</tspan></text>
<line class="assoc" x1="23.33" y1="28.50" x2="24.33" y2="28.50"/>
<rect class="action" x="24.33" y="27.07" width="5.33" height="2.86"/>
<text class="action-label" x="26.99" y="27.68"><tspan x="26.99" dy="0">Forward user messa</tspan><tspan x="26.99" dy="0.82">ge via HTTP / SSE /</tspan><tspan x="26.99" dy="0.82">WS to daemon server</tspan></text>
<line class="assoc" x1="23.33" y1="35.50" x2="24.33" y2="35.50"/>
<rect class="action" x="24.33" y="34.07" width="5.33" height="2.86"/>
<text class="action-label" x="26.99" y="34.68"><tspan x="26.99" dy="0">Assemble preface: p</tspan><tspan x="26.99" dy="0.82">rompt, skills, tool su</tspan><tspan x="26.99" dy="0.82">rface, active images</tspan></text>
<line class="assoc" x1="23.33" y1="44.50" x2="24.33" y2="44.50"/>
<rect class="action" x="24.33" y="43.07" width="5.33" height="2.86"/>
<text class="action-label" x="26.99" y="43.68"><tspan x="26.99" dy="0">Route via Rotation3</tspan><tspan x="26.99" dy="0.82">D, stream LLM thr</tspan><tspan x="26.99" dy="0.82">ough Vercel AI SDK</tspan></text>
<line class="assoc" x1="23.33" y1="51.50" x2="24.33" y2="51.50"/>
<rect class="action" x="24.33" y="50.07" width="5.33" height="2.86"/>
<text class="action-label" x="26.99" y="51.09"><tspan x="26.99" dy="0">Classify step</tspan><tspan x="26.99" dy="0.82">-finish reason</tspan></text>
<line class="assoc" x1="12.00" y1="60.50" x2="13.00" y2="60.50"/>
<rect class="action" x="13.00" y="59.07" width="5.33" height="2.86"/>
<text class="action-label" x="15.66" y="59.68"><tspan x="15.66" dy="0">Execute tool ca</tspan><tspan x="15.66" dy="0.82">lls (built-in, MC</tspan><tspan x="15.66" dy="0.82">P, managed app)</tspan></text>
<line class="assoc" x1="23.33" y1="60.50" x2="24.33" y2="60.50"/>
<rect class="action" x="24.33" y="59.07" width="5.33" height="2.86"/>
<text class="action-label" x="26.99" y="60.09"><tspan x="26.99" dy="0">Evaluate compa</tspan><tspan x="26.99" dy="0.82">ction threshold</tspan></text>
<line class="assoc" x1="23.33" y1="71.50" x2="24.33" y2="71.50"/>
<rect class="action" x="24.33" y="70.07" width="5.33" height="2.86"/>
<text class="action-label" x="26.99" y="70.68"><tspan x="26.99" dy="0">Compact conte</tspan><tspan x="26.99" dy="0.82">xt (server-sid</tspan><tspan x="26.99" dy="0.82">e or narrative)</tspan></text>
<line class="assoc" x1="23.33" y1="80.50" x2="24.33" y2="80.50"/>
<rect class="action" x="24.33" y="79.07" width="5.33" height="2.86"/>
<text class="action-label" x="26.99" y="79.68"><tspan x="26.99" dy="0">Persist sessio</tspan><tspan x="26.99" dy="0.82">n, emit turn-d</tspan><tspan x="26.99" dy="0.82">one bus event</tspan></text>
<line class="gate" x1="20.33" y1="9.00" x2="22.33" y2="9.00"/>
<text class="gate-label" x="22.73" y="9.00"><tspan x="22.73" dy="0">tcp_connection_accepted</tspan></text>
<line class="gate" x1="20.33" y1="16.00" x2="22.33" y2="16.00"/>
<text class="gate-label" x="22.73" y="16.00"><tspan x="22.73" dy="0">auth_success</tspan></text>
<line class="gate" x1="20.33" y1="23.00" x2="22.33" y2="23.00"/>
<text class="gate-label" x="22.73" y="23.00"><tspan x="22.73" dy="0">daemon_ready</tspan></text>
<line class="gate" x1="20.33" y1="32.00" x2="22.33" y2="32.00"/>
<text class="gate-label" x="22.73" y="32.00"><tspan x="22.73" dy="0">message_received</tspan></text>
<line class="gate" x1="20.33" y1="39.00" x2="22.33" y2="39.00"/>
<text class="gate-label" x="22.73" y="39.00"><tspan x="22.73" dy="0">preface_ready</tspan></text>
<line class="gate" x1="20.33" y1="48.00" x2="22.33" y2="48.00"/>
<text class="gate-label" x="22.73" y="48.00"><tspan x="22.73" dy="0">stream_complete</tspan></text>
<line class="gate" x1="8.00" y1="55.00" x2="23.33" y2="55.00"/>
<line class="gate" x1="9.00" y1="64.00" x2="11.00" y2="64.00"/>
<text class="gate-label" x="11.40" y="64.00"><tspan x="11.40" dy="0">tools_complete</tspan></text>
<line class="gate" x1="20.33" y1="68.00" x2="22.33" y2="68.00"/>
<text class="gate-label" x="22.73" y="68.00"><tspan x="22.73" dy="0">over_threshold</tspan></text>
<line class="gate" x1="19.33" y1="77.00" x2="34.66" y2="77.00"/>
<line class="gate" x1="20.33" y1="84.00" x2="22.33" y2="84.00"/>
<text class="gate-label" x="22.73" y="84.00"><tspan x="22.73" dy="0">await_next_user_message</tspan></text>
<line class="gate" x1="9.00" y1="57.00" x2="11.00" y2="57.00"/>
<text class="gate-label-left" x="8.60" y="56.32"><tspan x="8.60" dy="0">finish_r</tspan><tspan x="8.60" dy="0.68">eason==t</tspan><tspan x="8.60" dy="0.68">ool_calls</tspan></text>
<line class="gate" x1="20.33" y1="57.00" x2="22.33" y2="57.00"/>
<text class="gate-label-left" x="19.93" y="57.00"><tspan x="19.93" dy="0">finish_reason==stop</tspan></text>
<line class="gate" x1="30.33" y1="75.00" x2="32.33" y2="75.00"/>
<text class="gate-label-left" x="29.93" y="75.00"><tspan x="29.93" dy="0">under_threshold</tspan></text>
<line class="gate" x1="20.33" y1="75.00" x2="22.33" y2="75.00"/>
<text class="gate-label-left" x="19.93" y="75.00"><tspan x="19.93" dy="0">compact_done</tspan></text>
<circle class="junction" cx="21.33" cy="25.00" r="0.22"/>
<circle class="junction" cx="21.33" cy="41.00" r="0.22"/>
<circle class="branch-junction" cx="21.33" cy="66.00" r="0.28"/>
</svg>