<svg xmlns="http://www.w3.org/2000/svg" width="1680" height="1626" viewBox="-16.00 0.00 84.00 81.28" role="img">
<style>
.step{fill:#fff;stroke:#111;stroke-width:.14}.step-inner{fill:none;stroke:#111;stroke-width:.08}
.action{fill:#fff;stroke:#111;stroke-width:.14}.gate{stroke:#111;stroke-width:.16}
.edge{fill:none;stroke:#111;stroke-width:.05;stroke-linecap:round;stroke-linejoin:round}.edge-arrow{marker-end:url(#arrow)}
.flyover-mask{stroke:#fff;stroke-width:.12;stroke-linecap:round}
.flyover{fill:none;stroke:#111;stroke-width:.05;stroke-linecap:round}
.junction{fill:#111;stroke:#111;stroke-width:0}
.assoc{stroke:#111;stroke-width:.05}.label{font:bold .7px 'Times New Roman', 'BiauKai', 'DFKai-SB', serif;text-anchor:middle;dominant-baseline:middle}
.action-label{font:.55px 'Times New Roman', 'BiauKai', 'DFKai-SB', serif;text-anchor:middle;dominant-baseline:middle}.gate-label{font:italic .55px 'Times New Roman', 'BiauKai', 'DFKai-SB', serif;text-anchor:start;dominant-baseline:middle}.gate-label-left{font:italic .55px 'Times New Roman', 'BiauKai', 'DFKai-SB', serif;text-anchor:end;dominant-baseline:middle}
</style>
<defs><marker id="arrow" markerWidth="0.4" markerHeight="0.4" refX="0.36" refY="0.2" orient="auto" markerUnits="userSpaceOnUse"><path d="M 0 0 L 0.4 0.2 L 0 0.4 z" fill="#111"/></marker></defs>
<rect x="-16.00" y="0.00" width="84.00" height="81.28" fill="white"/>
<path class="edge edge-arrow" d="M 10.00 18.32 L 10.00 19.82 Q 10.00 20.32 10.50 20.32 L 19.50 20.32 Q 20.00 20.32 20.00 20.82 L 20.00 24.40"/>
<path class="edge" d="M 20.00 18.32 L 20.00 20.32"/>
<path class="edge" d="M 20.00 24.40 L 20.00 31.56"/>
<path class="edge" d="M 20.00 31.56 L 20.00 33.56"/>
<path class="edge edge-arrow" d="M 40.00 18.32 L 40.00 21.82 Q 40.00 22.32 40.00 22.82 L 40.00 40.22 Q 40.00 40.72 39.50 40.72 L 20.50 40.72 Q 20.00 40.72 20.00 41.22 L 20.00 42.72"/>
<path class="edge edge-arrow" d="M 50.00 18.32 L 50.00 21.82 Q 50.00 22.32 50.00 22.82 L 50.00 49.38 Q 50.00 49.88 49.50 49.88 L 20.50 49.88 Q 20.00 49.88 20.00 50.38 L 20.00 51.88"/>
<path class="edge edge-arrow" d="M 60.00 18.32 L 60.00 21.82 Q 60.00 22.32 60.00 22.82 L 60.00 58.54 Q 60.00 59.04 59.50 59.04 L 20.50 59.04 Q 20.00 59.04 20.00 59.54 L 20.00 61.04"/>
<path class="edge" d="M 20.00 7.08 L 20.00 9.16"/>
<path class="edge edge-arrow" d="M 10.00 9.16 L 10.00 10.66 Q 10.00 11.16 10.00 11.66 L 10.00 13.24"/>
<path class="edge edge-arrow" d="M 30.00 9.16 L 30.00 10.66 Q 30.00 11.16 30.00 11.66 L 30.00 13.24"/>
<path class="edge" d="M 10.00 16.24 L 10.00 18.32"/>
<path class="edge" d="M 10.00 20.32 L 10.00 22.32"/>
<path class="edge" d="M 15.00 22.32 L 20.00 22.32"/>
<path class="edge" d="M 20.00 36.56 L 20.00 40.64"/>
<path class="edge" d="M 20.00 40.64 L 20.00 40.72"/>
<path class="edge" d="M 20.00 45.72 L 20.00 49.80"/>
<path class="edge" d="M 20.00 49.80 L 20.00 49.88"/>
<path class="edge" d="M 20.00 54.88 L 20.00 58.96"/>
<path class="edge" d="M 20.00 58.96 L 20.00 59.04"/>
<path class="edge" d="M 20.00 64.04 L 20.00 66.12"/>
<path class="edge" d="M 20.00 66.12 L 20.00 70.12"/>
<path class="edge" d="M 20.00 70.12 L -6.00 70.12"/>
<path class="edge" d="M -6.00 70.12 L -6.00 59.04"/>
<path class="edge" d="M -6.00 59.04 L 20.00 59.04"/>
<path class="edge" d="M 10.00 66.12 L 10.00 72.12"/>
<path class="edge" d="M 10.00 72.12 L -8.00 72.12"/>
<path class="edge" d="M -8.00 72.12 L -8.00 22.40"/>
<path class="edge" d="M -8.00 22.40 L 20.00 22.40"/>
<path class="edge edge-arrow" d="M 30.00 66.12 L 30.00 67.62 Q 30.00 68.12 30.00 68.62 L 30.00 74.20"/>
<path class="edge" d="M 30.00 16.24 L 30.00 18.32"/>
<path class="edge" d="M 0.00 18.32 L 0.00 24.32"/>
<path class="edge" d="M 0.00 24.32 L -12.00 24.32"/>
<path class="edge" d="M -12.00 24.32 L -12.00 11.24"/>
<path class="edge" d="M -12.00 11.24 L 10.00 11.24"/>
<rect class="step" x="18.00" y="4.08" width="4.00" height="3.00"/>
<rect class="step-inner" x="18.25" y="4.33" width="3.50" height="2.50"/>
<text class="label" x="20.00" y="5.58">0</text>
<rect class="step" x="8.00" y="13.24" width="4.00" height="3.00"/>
<text class="label" x="10.00" y="14.74">1</text>
<rect class="step" x="18.00" y="24.40" width="4.00" height="3.00"/>
<text class="label" x="20.00" y="25.90">2</text>
<rect class="step" x="18.00" y="33.56" width="4.00" height="3.00"/>
<text class="label" x="20.00" y="35.06">3</text>
<rect class="step" x="18.00" y="42.72" width="4.00" height="3.00"/>
<text class="label" x="20.00" y="44.22">4</text>
<rect class="step" x="18.00" y="51.88" width="4.00" height="3.00"/>
<text class="label" x="20.00" y="53.38">5</text>
<rect class="step" x="18.00" y="61.04" width="4.00" height="3.00"/>
<text class="label" x="20.00" y="62.54">6</text>
<rect class="step" x="28.00" y="74.20" width="4.00" height="3.00"/>
<text class="label" x="30.00" y="75.70">7</text>
<rect class="step" x="28.00" y="13.24" width="4.00" height="3.00"/>
<text class="label" x="30.00" y="14.74">8</text>
<line class="assoc" x1="22.00" y1="5.58" x2="23.00" y2="5.58"/>
<rect class="action" x="23.00" y="4.00" width="13.47" height="3.16" rx="0.45" ry="0.45"/>
<text class="action-label" x="29.73" y="4.76"><tspan x="29.73" dy="0">閒置 — awaiting</tspan><tspan x="29.73" dy="0.82">spec 路徑 來自 使用</tspan><tspan x="29.73" dy="0.82">者 或 script 項目</tspan></text>
<line class="assoc" x1="12.00" y1="14.74" x2="13.00" y2="14.74"/>
<rect class="action" x="13.00" y="13.16" width="13.47" height="3.16" rx="0.45" ry="0.45"/>
<text class="action-label" x="19.73" y="13.92"><tspan x="19.73" dy="0">Proposed —</tspan><tspan x="19.73" dy="0.82">proposal.md</tspan><tspan x="19.73" dy="0.82">+ .state.js在 僅</tspan></text>
<line class="assoc" x1="22.00" y1="25.90" x2="23.00" y2="25.90"/>
<rect class="action" x="23.00" y="24.32" width="13.47" height="3.16" rx="0.45" ry="0.45"/>
<text class="action-label" x="29.73" y="25.08"><tspan x="29.73" dy="0">Designed — spec/design/</tspan><tspan x="29.73" dy="0.82">IDEF0/C4/Sequence/</tspan><tspan x="29.73" dy="0.82">data-schema present</tspan></text>
<line class="assoc" x1="22.00" y1="35.06" x2="23.00" y2="35.06"/>
<rect class="action" x="23.00" y="33.48" width="13.47" height="3.16" rx="0.45" ry="0.45"/>
<text class="action-label" x="29.73" y="34.24"><tspan x="29.73" dy="0">Planned — tasks.md +</tspan><tspan x="29.73" dy="0.82">handoff.md + test-vectors/</tspan><tspan x="29.73" dy="0.82">錯誤/observability 完成</tspan></text>
<line class="assoc" x1="22.00" y1="44.22" x2="23.00" y2="44.22"/>
<rect class="action" x="23.00" y="42.64" width="13.47" height="3.16" rx="0.45" ry="0.45"/>
<text class="action-label" x="29.73" y="43.40"><tspan x="29.73" dy="0">Implementing —</tspan><tspan x="29.73" dy="0.82">tasks being checked</tspan><tspan x="29.73" dy="0.82">off, 建置 在 progress</tspan></text>
<line class="assoc" x1="22.00" y1="53.38" x2="23.00" y2="53.38"/>
<rect class="action" x="23.00" y="51.80" width="13.47" height="3.16" rx="0.45" ry="0.45"/>
<text class="action-label" x="29.73" y="52.56"><tspan x="29.73" dy="0">Verified — acceptance</tspan><tspan x="29.73" dy="0.82">checks pass, validation</tspan><tspan x="29.73" dy="0.82">evidence captured</tspan></text>
<line class="assoc" x1="22.00" y1="62.54" x2="23.00" y2="62.54"/>
<rect class="action" x="23.00" y="60.96" width="13.47" height="3.16" rx="0.45" ry="0.45"/>
<text class="action-label" x="29.73" y="61.72"><tspan x="29.73" dy="0">Living — spec equals current</tspan><tspan x="29.73" dy="0.82">code 狀態, iterates 透過 amend/</tspan><tspan x="29.73" dy="0.82">revise/extend/refactor/sync</tspan></text>
<line class="assoc" x1="32.00" y1="75.70" x2="33.00" y2="75.70"/>
<rect class="action" x="33.00" y="74.12" width="13.47" height="3.16" rx="0.45" ry="0.45"/>
<text class="action-label" x="39.73" y="74.88"><tspan x="39.73" dy="0">Archived — spec</tspan><tspan x="39.73" dy="0.82">frozen, read-</tspan><tspan x="39.73" dy="0.82">僅 reference</tspan></text>
<line class="assoc" x1="32.00" y1="14.74" x2="33.00" y2="14.74"/>
<rect class="action" x="33.00" y="13.16" width="13.47" height="3.16" rx="0.45" ry="0.45"/>
<text class="action-label" x="39.73" y="13.92"><tspan x="39.73" dy="0">Migrating — inferring</tspan><tspan x="39.73" dy="0.82">狀態, snapshotting, git</tspan><tspan x="39.73" dy="0.82">mv 到 specs/&lt;slug&gt;/</tspan></text>
<line class="gate" x1="6.00" y1="9.16" x2="34.00" y2="9.16"/>
<line class="gate" x1="8.00" y1="22.32" x2="22.00" y2="22.32"/>
<line class="gate" x1="18.00" y1="31.48" x2="22.00" y2="31.48"/>
<line class="gate" x1="18.00" y1="40.64" x2="22.00" y2="40.64"/>
<line class="gate" x1="18.00" y1="49.80" x2="22.00" y2="49.80"/>
<line class="gate" x1="18.00" y1="58.96" x2="22.00" y2="58.96"/>
<line class="gate" x1="6.00" y1="66.12" x2="34.00" y2="66.12"/>
<line class="gate" x1="-4.00" y1="18.32" x2="64.00" y2="18.32"/>
<line class="gate" x1="9.00" y1="11.16" x2="11.00" y2="11.16"/>
<text class="gate-label-left" x="8.60" y="11.16">newspecrequested</text>
<line class="gate" x1="29.00" y1="11.16" x2="31.00" y2="11.16"/>
<text class="gate-label" x="31.40" y="11.16">legacyplans路徑detected</text>
<line class="gate" x1="9.00" y1="20.32" x2="11.00" y2="20.32"/>
<text class="gate-label-left" x="8.60" y="20.32">designartifactsdrafted AND promoterequested</text>
<line class="gate" x1="19.00" y1="29.48" x2="21.00" y2="29.48"/>
<text class="gate-label" x="21.40" y="29.48">tasks與handoffdrafted AND promoterequested</text>
<line class="gate" x1="19.00" y1="38.64" x2="21.00" y2="38.64"/>
<text class="gate-label" x="21.40" y="38.64">first任務checked</text>
<line class="gate" x1="19.00" y1="47.80" x2="21.00" y2="47.80"/>
<text class="gate-label" x="21.40" y="47.80">alltaskschecked AND validationevidenceattached</text>
<line class="gate" x1="19.00" y1="56.96" x2="21.00" y2="56.96"/>
<text class="gate-label" x="21.40" y="56.96">merged到main</text>
<line class="gate" x1="19.00" y1="68.12" x2="21.00" y2="68.12"/>
<text class="gate-label" x="21.40" y="68.12">amendmode</text>
<line class="gate" x1="9.00" y1="68.12" x2="11.00" y2="68.12"/>
<text class="gate-label-left" x="8.60" y="68.12">revise或extend或refactormode</text>
<line class="gate" x1="29.00" y1="68.12" x2="31.00" y2="68.12"/>
<text class="gate-label" x="31.40" y="68.12">archivemode</text>
<line class="gate" x1="-1.00" y1="20.32" x2="1.00" y2="20.32"/>
<text class="gate-label-left" x="-1.40" y="20.32">inferredproposed</text>
<line class="gate" x1="9.00" y1="20.32" x2="11.00" y2="20.32"/>
<text class="gate-label-left" x="8.60" y="20.32">inferreddesigned</text>
<line class="gate" x1="19.00" y1="20.32" x2="21.00" y2="20.32"/>
<text class="gate-label-left" x="18.60" y="20.32">inferredplanned</text>
<line class="gate" x1="39.00" y1="20.32" x2="41.00" y2="20.32"/>
<text class="gate-label" x="41.40" y="20.32">inferredimplementing</text>
<line class="gate" x1="49.00" y1="20.32" x2="51.00" y2="20.32"/>
<text class="gate-label" x="51.40" y="20.32">inferredverified</text>
<line class="gate" x1="59.00" y1="20.32" x2="61.00" y2="20.32"/>
<text class="gate-label" x="61.40" y="20.32">inferredliving</text>
<line class="flyover-mask" x1="-9.00" y1="24.32" x2="-7.00" y2="24.32"/>
<line class="flyover-mask" x1="-1.00" y1="22.40" x2="1.00" y2="22.40"/>
<path class="flyover" d="M -9.00 24.32 Q -8.00 23.32 -7.00 24.32"/>
<path class="flyover" d="M -1.00 22.40 Q 0.00 21.40 1.00 22.40"/>
<circle class="junction" cx="10.00" cy="20.32" r="0.22"/>
<circle class="junction" cx="20.00" cy="20.32" r="0.22"/>
<circle class="junction" cx="20.00" cy="22.32" r="0.22"/>
<circle class="junction" cx="20.00" cy="22.40" r="0.22"/>
<circle class="junction" cx="20.00" cy="31.56" r="0.22"/>
<circle class="junction" cx="20.00" cy="40.72" r="0.22"/>
<circle class="junction" cx="20.00" cy="49.88" r="0.22"/>
<circle class="junction" cx="20.00" cy="59.04" r="0.22"/>
<circle class="junction" cx="10.00" cy="11.24" r="0.22"/>
</svg>