<svg xmlns="http://www.w3.org/2000/svg" width="1573" height="1840" viewBox="-16.00 0.00 78.64 92.00" role="img">
<style>
.step{fill:#fff;stroke:#111;stroke-width:.14}.step-inner{fill:none;stroke:#111;stroke-width:.08}
.action{fill:#fff;stroke:#111;stroke-width:.14}.gate{stroke:#111;stroke-width:.16}
.edge{fill:none;stroke:#111;stroke-width:.05;stroke-linecap:round;stroke-linejoin:round}.edge-arrow{marker-end:url(#arrow)}
.flyover-mask{stroke:#fff;stroke-width:.12;stroke-linecap:round}
.flyover{fill:none;stroke:#111;stroke-width:.05;stroke-linecap:round}
.junction{fill:#111;stroke:#111;stroke-width:0}.branch-junction{fill:#fff;stroke:#111;stroke-width:.08}
.assoc{stroke:#111;stroke-width:.05}.label{font:bold .7px 'Times New Roman', 'BiauKai', 'DFKai-SB', serif;text-anchor:middle;dominant-baseline:middle}
.action-label{font:.55px 'Times New Roman', 'BiauKai', 'DFKai-SB', serif;text-anchor:middle;dominant-baseline:middle}.gate-label{font:italic .55px 'Times New Roman', 'BiauKai', 'DFKai-SB', serif;text-anchor:start;dominant-baseline:middle}.gate-label-left{font:italic .55px 'Times New Roman', 'BiauKai', 'DFKai-SB', serif;text-anchor:end;dominant-baseline:middle}
</style>
<defs><marker id="arrow" markerWidth="0.4" markerHeight="0.4" refX="0.36" refY="0.2" orient="auto" markerUnits="userSpaceOnUse"><path d="M 0 0 L 0.4 0.2 L 0 0.4 z" fill="#111"/></marker></defs>
<rect x="-16.00" y="0.00" width="78.64" height="92.00" fill="white"/>
<path class="edge edge-arrow" d="M 10.00 11.00 L 10.00 15.00"/>
<path class="edge edge-arrow" d="M 5.00 20.00 L 5.00 21.50 Q 5.00 22.00 5.50 22.00 L 9.50 22.00 Q 10.00 22.00 10.00 22.50 L 10.00 28.00"/>
<path class="edge edge-arrow" d="M 29.32 20.00 L 29.32 23.50 Q 29.32 24.00 28.82 24.00 L 5.50 24.00 Q 5.00 24.00 5.00 24.50 L 5.00 36.50 Q 5.00 37.00 5.50 37.00 L 9.50 37.00 Q 10.00 37.00 10.00 37.50 L 10.00 39.00"/>
<path class="edge" d="M 29.32 24.00 L 48.64 24.00"/>
<path class="edge" d="M 48.64 24.00 L 48.64 48.00"/>
<path class="edge" d="M 48.64 48.00 L 10.00 48.00"/>
<path class="edge" d="M 10.00 48.00 L 10.00 50.00"/>
<path class="edge" d="M 48.64 24.00 L 53.64 24.00"/>
<path class="edge" d="M 53.64 24.00 L 53.64 59.00"/>
<path class="edge" d="M 53.64 59.00 L 10.00 59.00"/>
<path class="edge" d="M 10.00 59.00 L 10.00 61.00"/>
<path class="edge" d="M 53.64 24.00 L 58.64 24.00"/>
<path class="edge" d="M 58.64 24.00 L 58.64 70.00"/>
<path class="edge" d="M 58.64 70.00 L 10.00 70.00"/>
<path class="edge" d="M 10.00 70.00 L 10.00 72.00"/>
<path class="edge" d="M 10.00 7.00 L 10.00 9.00"/>
<path class="edge" d="M 10.00 9.00 L 10.00 11.00"/>
<path class="edge" d="M 10.00 9.00 L 28.82 9.00 Q 29.32 9.00 29.32 9.50 L 29.32 11.00"/>
<path class="edge edge-arrow" d="M 29.32 11.00 L 29.32 15.00"/>
<path class="edge" d="M 10.00 18.00 L 4.00 18.00"/>
<path class="edge" d="M 4.00 18.00 L 4.00 22.00"/>
<path class="edge" d="M 4.00 22.00 L 5.00 22.00"/>
<path class="edge" d="M 10.00 31.00 L 10.00 33.00"/>
<path class="edge" d="M 10.00 33.00 L 10.00 37.00"/>
<path class="edge" d="M 10.00 42.00 L 10.00 44.00"/>
<path class="edge" d="M 10.00 44.00 L 10.00 48.00"/>
<path class="edge" d="M 10.00 53.00 L 10.00 55.00"/>
<path class="edge" d="M 10.00 55.00 L 10.00 59.00"/>
<path class="edge" d="M 10.00 64.00 L 10.00 66.00"/>
<path class="edge" d="M 10.00 66.00 L 10.00 70.00"/>
<path class="edge edge-arrow" d="M 10.00 75.00 L 10.00 77.00"/>
<path class="edge" d="M 10.00 77.00 L 10.00 81.00"/>
<path class="edge" d="M 10.00 81.00 L -8.00 81.00"/>
<path class="edge" d="M -8.00 81.00 L -8.00 70.00"/>
<path class="edge" d="M -8.00 70.00 L 10.00 70.00"/>
<path class="edge" d="M 5.00 77.00 L 5.00 83.00"/>
<path class="edge" d="M 5.00 83.00 L -10.00 83.00"/>
<path class="edge" d="M -10.00 83.00 L -10.00 26.00"/>
<path class="edge" d="M -10.00 26.00 L 10.00 26.00"/>
<path class="edge edge-arrow" d="M 29.32 77.00 L 29.32 78.50 Q 29.32 79.00 29.32 79.50 L 29.32 85.00"/>
<path class="edge edge-arrow" d="M 29.32 18.00 L 29.32 20.00"/>
<path class="edge" d="M 0.00 20.00 L 0.00 24.00"/>
<path class="edge" d="M 0.00 24.00 L -12.00 24.00"/>
<path class="edge" d="M -12.00 24.00 L -12.00 13.00"/>
<path class="edge" d="M -12.00 13.00 L 10.00 13.00"/>
<rect class="step" x="8.00" y="4.00" width="4.00" height="3.00"/>
<rect class="step-inner" x="8.25" y="4.25" width="3.50" height="2.50"/>
<text class="label" x="10.00" y="5.50">0</text>
<rect class="step" x="8.00" y="15.00" width="4.00" height="3.00"/>
<text class="label" x="10.00" y="16.50">1</text>
<rect class="step" x="8.00" y="28.00" width="4.00" height="3.00"/>
<text class="label" x="10.00" y="29.50">2</text>
<rect class="step" x="8.00" y="39.00" width="4.00" height="3.00"/>
<text class="label" x="10.00" y="40.50">3</text>
<rect class="step" x="8.00" y="50.00" width="4.00" height="3.00"/>
<text class="label" x="10.00" y="51.50">4</text>
<rect class="step" x="8.00" y="61.00" width="4.00" height="3.00"/>
<text class="label" x="10.00" y="62.50">5</text>
<rect class="step" x="8.00" y="72.00" width="4.00" height="3.00"/>
<text class="label" x="10.00" y="73.50">6</text>
<rect class="step" x="27.32" y="85.00" width="4.00" height="3.00"/>
<text class="label" x="29.32" y="86.50">7</text>
<rect class="step" x="27.32" y="15.00" width="4.00" height="3.00"/>
<text class="label" x="29.32" y="16.50">8</text>
<line class="assoc" x1="12.00" y1="5.50" x2="13.00" y2="5.50"/>
<rect class="action" x="13.00" y="4.07" width="13.32" height="2.86" rx="0.45" ry="0.45"/>
<text class="action-label" x="19.66" y="5.09"><tspan x="19.66" dy="0">閒置 — awaiting spec 路徑</tspan><tspan x="19.66" dy="0.82">來自 使用者 或 script 項目</tspan></text>
<line class="assoc" x1="12.00" y1="16.50" x2="13.00" y2="16.50"/>
<rect class="action" x="13.00" y="15.07" width="13.32" height="2.86" rx="0.45" ry="0.45"/>
<text class="action-label" x="19.66" y="16.09"><tspan x="19.66" dy="0">Proposed — proposal.</tspan><tspan x="19.66" dy="0.82">md + .state.js在 僅</tspan></text>
<line class="assoc" x1="12.00" y1="29.50" x2="13.00" y2="29.50"/>
<rect class="action" x="13.00" y="28.07" width="13.32" height="2.86" rx="0.45" ry="0.45"/>
<text class="action-label" x="19.66" y="28.68"><tspan x="19.66" dy="0">Designed — spec/design/</tspan><tspan x="19.66" dy="0.82">IDEF0/C4/Sequence/</tspan><tspan x="19.66" dy="0.82">data-schema present</tspan></text>
<line class="assoc" x1="12.00" y1="40.50" x2="13.00" y2="40.50"/>
<rect class="action" x="13.00" y="39.07" width="13.32" height="2.86" rx="0.45" ry="0.45"/>
<text class="action-label" x="19.66" y="39.68"><tspan x="19.66" dy="0">Planned — tasks.md +</tspan><tspan x="19.66" dy="0.82">handoff.md + test-vectors/</tspan><tspan x="19.66" dy="0.82">錯誤/observability 完成</tspan></text>
<line class="assoc" x1="12.00" y1="51.50" x2="13.00" y2="51.50"/>
<rect class="action" x="13.00" y="50.07" width="13.32" height="2.86" rx="0.45" ry="0.45"/>
<text class="action-label" x="19.66" y="51.09"><tspan x="19.66" dy="0">Implementing — tasks being</tspan><tspan x="19.66" dy="0.82">checked off, 建置 在 progress</tspan></text>
<line class="assoc" x1="12.00" y1="62.50" x2="13.00" y2="62.50"/>
<rect class="action" x="13.00" y="61.07" width="13.32" height="2.86" rx="0.45" ry="0.45"/>
<text class="action-label" x="19.66" y="61.68"><tspan x="19.66" dy="0">Verified — acceptance</tspan><tspan x="19.66" dy="0.82">checks pass, validation</tspan><tspan x="19.66" dy="0.82">evidence captured</tspan></text>
<line class="assoc" x1="12.00" y1="73.50" x2="13.00" y2="73.50"/>
<rect class="action" x="13.00" y="72.07" width="13.32" height="2.86" rx="0.45" ry="0.45"/>
<text class="action-label" x="19.66" y="72.68"><tspan x="19.66" dy="0">Living — spec equals current</tspan><tspan x="19.66" dy="0.82">code 狀態, iterates 透過 amend/</tspan><tspan x="19.66" dy="0.82">revise/extend/refactor/sync</tspan></text>
<line class="assoc" x1="31.32" y1="86.50" x2="32.32" y2="86.50"/>
<rect class="action" x="32.32" y="85.07" width="13.32" height="2.86" rx="0.45" ry="0.45"/>
<text class="action-label" x="38.98" y="86.09"><tspan x="38.98" dy="0">Archived — spec frozen,</tspan><tspan x="38.98" dy="0.82">read-僅 reference</tspan></text>
<line class="assoc" x1="31.32" y1="16.50" x2="32.32" y2="16.50"/>
<rect class="action" x="32.32" y="15.07" width="13.32" height="2.86" rx="0.45" ry="0.45"/>
<text class="action-label" x="38.98" y="15.68"><tspan x="38.98" dy="0">Migrating — inferring</tspan><tspan x="38.98" dy="0.82">狀態, snapshotting, git</tspan><tspan x="38.98" dy="0.82">mv 到 specs/&lt;slug&gt;/</tspan></text>
<line class="gate" x1="9.00" y1="11.00" x2="11.00" y2="11.00"/>
<text class="gate-label" x="11.40" y="11.00"><tspan x="11.40" dy="0">newspecrequested</tspan></text>
<line class="gate" x1="28.32" y1="11.00" x2="30.32" y2="11.00"/>
<text class="gate-label" x="30.72" y="11.00"><tspan x="30.72" dy="0">legacyplans路徑detected</tspan></text>
<line class="gate" x1="9.00" y1="22.00" x2="11.00" y2="22.00"/>
<text class="gate-label" x="11.40" y="21.66"><tspan x="11.40" dy="0">designartifactsdrafted</tspan><tspan x="11.40" dy="0.68">AND promoterequested</tspan></text>
<line class="gate" x1="9.00" y1="33.00" x2="11.00" y2="33.00"/>
<text class="gate-label" x="11.40" y="33.00"><tspan x="11.40" dy="0">tasks與handoffdrafted AND promoterequested</tspan></text>
<line class="gate" x1="9.00" y1="44.00" x2="11.00" y2="44.00"/>
<text class="gate-label" x="11.40" y="44.00"><tspan x="11.40" dy="0">first任務checked</tspan></text>
<line class="gate" x1="9.00" y1="55.00" x2="11.00" y2="55.00"/>
<text class="gate-label" x="11.40" y="55.00"><tspan x="11.40" dy="0">alltaskschecked AND validationevidenceattached</tspan></text>
<line class="gate" x1="9.00" y1="66.00" x2="11.00" y2="66.00"/>
<text class="gate-label" x="11.40" y="66.00"><tspan x="11.40" dy="0">merged到main</tspan></text>
<line class="gate" x1="1.00" y1="77.00" x2="33.32" y2="77.00"/>
<line class="gate" x1="-4.00" y1="20.00" x2="33.32" y2="20.00"/>
<line class="gate" x1="9.00" y1="79.00" x2="11.00" y2="79.00"/>
<text class="gate-label-left" x="4.40" y="79.00"><tspan x="4.40" dy="0">amendmode</tspan></text>
<line class="gate" x1="4.00" y1="79.00" x2="6.00" y2="79.00"/>
<text class="gate-label-left" x="-0.60" y="78.66"><tspan x="-0.60" dy="0">revise或extend或</tspan><tspan x="-0.60" dy="0.68">refactormode</tspan></text>
<line class="gate" x1="28.32" y1="79.00" x2="30.32" y2="79.00"/>
<text class="gate-label-left" x="27.92" y="79.00"><tspan x="27.92" dy="0">archivemode</tspan></text>
<line class="gate" x1="-1.00" y1="22.00" x2="1.00" y2="22.00"/>
<text class="gate-label-left" x="-1.40" y="22.00"><tspan x="-1.40" dy="0">inferredproposed</tspan></text>
<line class="gate" x1="4.00" y1="22.00" x2="6.00" y2="22.00"/>
<text class="gate-label-left" x="3.60" y="21.66"><tspan x="3.60" dy="0">inferred</tspan><tspan x="3.60" dy="0.68">designed</tspan></text>
<line class="gate" x1="28.32" y1="35.00" x2="30.32" y2="35.00"/>
<text class="gate-label" x="30.72" y="35.00"><tspan x="30.72" dy="0">inferredplanned</tspan></text>
<line class="gate" x1="28.32" y1="46.00" x2="30.32" y2="46.00"/>
<text class="gate-label" x="30.72" y="46.00"><tspan x="30.72" dy="0">inferredimplementing</tspan></text>
<line class="gate" x1="28.32" y1="57.00" x2="30.32" y2="57.00"/>
<text class="gate-label" x="30.72" y="57.00"><tspan x="30.72" dy="0">inferredverified</tspan></text>
<line class="gate" x1="28.32" y1="68.00" x2="30.32" y2="68.00"/>
<text class="gate-label" x="30.72" y="68.00"><tspan x="30.72" dy="0">inferredliving</tspan></text>
<line class="flyover-mask" x1="4.00" y1="26.00" x2="6.00" y2="26.00"/>
<line class="flyover-mask" x1="4.00" y1="81.00" x2="6.00" y2="81.00"/>
<path class="flyover" d="M 4.00 26.00 Q 5.00 25.00 6.00 26.00"/>
<path class="flyover" d="M 4.00 81.00 Q 5.00 80.00 6.00 81.00"/>
<circle class="junction" cx="10.00" cy="13.00" r="0.22"/>
<circle class="junction" cx="5.00" cy="22.00" r="0.22"/>
<circle class="junction" cx="10.00" cy="26.00" r="0.22"/>
<circle class="junction" cx="10.00" cy="37.00" r="0.22"/>
<circle class="junction" cx="48.64" cy="24.00" r="0.22"/>
<circle class="junction" cx="10.00" cy="48.00" r="0.22"/>
<circle class="junction" cx="53.64" cy="24.00" r="0.22"/>
<circle class="junction" cx="10.00" cy="59.00" r="0.22"/>
<circle class="junction" cx="10.00" cy="70.00" r="0.22"/>
<circle class="branch-junction" cx="10.00" cy="9.00" r="0.28"/>
</svg>