<svg xmlns="http://www.w3.org/2000/svg" width="1122" height="1940" viewBox="-2.00 -2.00 56.08 97.00" role="img">
<style>
.step{fill:#fff;stroke:#111;stroke-width:.14}.step-inner{fill:none;stroke:#111;stroke-width:.08}
.action{fill:#fff;stroke:#111;stroke-width:.14}.gate{stroke:#111;stroke-width:.16}
.edge{fill:none;stroke:#111;stroke-width:.05;stroke-linecap:round;stroke-linejoin:round}.edge-arrow{marker-end:url(#arrow)}
.flyover-mask{stroke:#fff;stroke-width:.12;stroke-linecap:round}
.flyover{fill:none;stroke:#111;stroke-width:.05;stroke-linecap:round}
.junction{fill:#111;stroke:#111;stroke-width:0}.branch-junction{fill:#fff;stroke:#111;stroke-width:.08}
.assoc{stroke:#111;stroke-width:.05}.label{font:bold .7px 'Times New Roman', 'BiauKai', 'DFKai-SB', serif;text-anchor:middle;dominant-baseline:middle}
.action-label{font:.55px 'Times New Roman', 'BiauKai', 'DFKai-SB', serif;text-anchor:middle;dominant-baseline:middle}.gate-label{font:italic .55px 'Times New Roman', 'BiauKai', 'DFKai-SB', serif;text-anchor:start;dominant-baseline:middle}.gate-label-left{font:italic .55px 'Times New Roman', 'BiauKai', 'DFKai-SB', serif;text-anchor:end;dominant-baseline:middle}
</style>
<defs><marker id="arrow" markerWidth="0.4" markerHeight="0.4" refX="0.36" refY="0.2" orient="auto" markerUnits="userSpaceOnUse"><path d="M 0 0 L 0.4 0.2 L 0 0.4 z" fill="#111"/></marker></defs>
<rect x="-2.00" y="-2.00" width="56.08" height="97.00" fill="white"/>
<path class="edge edge-arrow" d="M 38.72 78.00 L 24.86 78.00 Q 24.36 78.00 24.36 78.50 L 24.36 84.00"/>
<path class="edge" d="M 24.36 7.00 L 24.36 9.00"/>
<path class="edge edge-arrow" d="M 24.36 9.00 L 24.36 11.00"/>
<path class="edge" d="M 24.36 14.00 L 24.36 16.00"/>
<path class="edge edge-arrow" d="M 24.36 16.00 L 24.36 18.00"/>
<path class="edge" d="M 24.36 21.00 L 24.36 23.00"/>
<path class="edge edge-arrow" d="M 24.36 23.00 L 24.36 25.00"/>
<path class="edge" d="M 24.36 28.00 L 24.36 30.00"/>
<path class="edge edge-arrow" d="M 24.36 30.00 L 24.36 32.00"/>
<path class="edge" d="M 24.36 35.00 L 24.36 37.00"/>
<path class="edge edge-arrow" d="M 24.36 37.00 L 24.36 39.00"/>
<path class="edge" d="M 24.36 42.00 L 24.36 44.00"/>
<path class="edge edge-arrow" d="M 24.36 44.00 L 24.36 46.00"/>
<path class="edge edge-arrow" d="M 24.36 49.00 L 24.36 51.00"/>
<path class="edge edge-arrow" d="M 24.36 51.00 L 24.36 52.50 Q 24.36 53.00 23.86 53.00 L 10.50 53.00 Q 10.00 53.00 10.00 53.50 L 10.00 55.00"/>
<path class="edge" d="M 24.36 53.00 L 38.72 53.00"/>
<path class="edge edge-arrow" d="M 38.72 53.00 L 38.72 55.00"/>
<path class="edge edge-arrow" d="M 10.00 58.00 L 10.00 62.00"/>
<path class="edge edge-arrow" d="M 24.36 62.00 L 24.36 64.00"/>
<path class="edge edge-arrow" d="M 38.72 58.00 L 38.72 62.00"/>
<path class="edge edge-arrow" d="M 24.36 67.00 L 24.36 69.00"/>
<path class="edge edge-arrow" d="M 24.36 69.00 L 24.36 70.50 Q 24.36 71.00 23.86 71.00 L 10.50 71.00 Q 10.00 71.00 10.00 71.50 L 10.00 73.00"/>
<path class="edge" d="M 24.36 71.00 L 24.36 73.00"/>
<path class="edge" d="M 24.36 71.00 L 38.72 71.00"/>
<path class="edge edge-arrow" d="M 38.72 71.00 L 38.72 73.00"/>
<path class="edge edge-arrow" d="M 10.00 76.00 L 10.00 82.00"/>
<path class="edge" d="M 24.36 76.00 L 24.36 78.00"/>
<path class="edge" d="M 24.36 87.00 L 24.36 89.00"/>
<path class="edge edge-arrow" d="M 24.36 89.00 L 24.36 90.50 Q 24.36 91.00 23.86 91.00 L 2.50 91.00 Q 2.00 91.00 2.00 90.50 L 2.00 2.50 Q 2.00 2.00 2.50 2.00 L 23.86 2.00 Q 24.36 2.00 24.36 2.50 L 24.36 4.00"/>
<path class="edge" d="M 38.72 76.00 L 38.72 78.00"/>
<rect class="step" x="22.36" y="4.00" width="4.00" height="3.00"/>
<rect class="step-inner" x="22.61" y="4.25" width="3.50" height="2.50"/>
<text class="label" x="24.36" y="5.50">0</text>
<rect class="step" x="22.36" y="11.00" width="4.00" height="3.00"/>
<text class="label" x="24.36" y="12.50">1</text>
<rect class="step" x="22.36" y="18.00" width="4.00" height="3.00"/>
<text class="label" x="24.36" y="19.50">2</text>
<rect class="step" x="22.36" y="25.00" width="4.00" height="3.00"/>
<text class="label" x="24.36" y="26.50">3</text>
<rect class="step" x="22.36" y="32.00" width="4.00" height="3.00"/>
<text class="label" x="24.36" y="33.50">4</text>
<rect class="step" x="22.36" y="39.00" width="4.00" height="3.00"/>
<text class="label" x="24.36" y="40.50">5</text>
<rect class="step" x="22.36" y="46.00" width="4.00" height="3.00"/>
<text class="label" x="24.36" y="47.50">6</text>
<rect class="step" x="8.00" y="55.00" width="4.00" height="3.00"/>
<text class="label" x="10.00" y="56.50">7</text>
<rect class="step" x="36.72" y="55.00" width="4.00" height="3.00"/>
<text class="label" x="38.72" y="56.50">8</text>
<rect class="step" x="22.36" y="64.00" width="4.00" height="3.00"/>
<text class="label" x="24.36" y="65.50">9</text>
<rect class="step" x="8.00" y="73.00" width="4.00" height="3.00"/>
<text class="label" x="10.00" y="74.50">10</text>
<rect class="step" x="22.36" y="73.00" width="4.00" height="3.00"/>
<text class="label" x="24.36" y="74.50">11</text>
<rect class="step" x="22.36" y="84.00" width="4.00" height="3.00"/>
<text class="label" x="24.36" y="85.50">12</text>
<rect class="step" x="36.72" y="73.00" width="4.00" height="3.00"/>
<text class="label" x="38.72" y="74.50">13</text>
<line class="assoc" x1="26.36" y1="5.50" x2="27.36" y2="5.50"/>
<rect class="action" x="27.36" y="4.07" width="8.36" height="2.86" rx="0.45" ry="0.45"/>
<text class="action-label" x="31.54" y="5.50"><tspan x="31.54" dy="0">閒置無inflight</tspan></text>
<line class="assoc" x1="26.36" y1="12.50" x2="27.36" y2="12.50"/>
<rect class="action" x="27.36" y="11.07" width="8.36" height="2.86" rx="0.45" ry="0.45"/>
<text class="action-label" x="31.54" y="12.09"><tspan x="31.54" dy="0">解析family透過</tspan><tspan x="31.54" dy="0.82">assertfamilykey</tspan></text>
<line class="assoc" x1="26.36" y1="19.50" x2="27.36" y2="19.50"/>
<rect class="action" x="27.36" y="18.07" width="8.36" height="2.86" rx="0.45" ry="0.45"/>
<text class="action-label" x="31.54" y="19.09"><tspan x="31.54" dy="0">select帳號透過</tspan><tspan x="31.54" dy="0.82">驗證gettwoarg</tspan></text>
<line class="assoc" x1="26.36" y1="26.50" x2="27.36" y2="26.50"/>
<rect class="action" x="27.36" y="25.07" width="8.36" height="2.86" rx="0.45" ry="0.45"/>
<text class="action-label" x="31.54" y="25.68"><tspan x="31.54" dy="0">instantiatesdk透</tspan><tspan x="31.54" dy="0.82">過getSDK family帳</tspan><tspan x="31.54" dy="0.82">號id模型</tspan></text>
<line class="assoc" x1="26.36" y1="33.50" x2="27.36" y2="33.50"/>
<rect class="action" x="27.36" y="32.07" width="8.36" height="2.86" rx="0.45" ry="0.45"/>
<text class="action-label" x="31.54" y="33.09"><tspan x="31.54" dy="0">建置headers建置</tspan><tspan x="31.54" dy="0.82">headers或組裝betas</tspan></text>
<line class="assoc" x1="26.36" y1="40.50" x2="27.36" y2="40.50"/>
<rect class="action" x="27.36" y="39.07" width="8.36" height="2.86" rx="0.45" ry="0.45"/>
<text class="action-label" x="31.54" y="39.68"><tspan x="31.54" dy="0">transformpayl</tspan><tspan x="31.54" dy="0.82">oadapplycaching或</tspan><tspan x="31.54" dy="0.82">skipnative</tspan></text>
<line class="assoc" x1="26.36" y1="47.50" x2="27.36" y2="47.50"/>
<rect class="action" x="27.36" y="46.07" width="8.36" height="2.86" rx="0.45" ry="0.45"/>
<text class="action-label" x="31.54" y="47.09"><tspan x="31.54" dy="0">choosetrans</tspan><tspan x="31.54" dy="0.82">portws或http</tspan></text>
<line class="assoc" x1="12.00" y1="56.50" x2="13.00" y2="56.50"/>
<rect class="action" x="13.00" y="55.07" width="8.36" height="2.86" rx="0.45" ry="0.45"/>
<text class="action-label" x="17.18" y="55.68"><tspan x="17.18" dy="0">派發透過websocketu</tspan><tspan x="17.18" dy="0.82">pgraderesponsesw</tspan><tspan x="17.18" dy="0.82">ebsockets20260206</tspan></text>
<line class="assoc" x1="40.72" y1="56.50" x2="41.72" y2="56.50"/>
<rect class="action" x="41.72" y="55.07" width="8.36" height="2.86" rx="0.45" ry="0.45"/>
<text class="action-label" x="45.90" y="56.09"><tspan x="45.90" dy="0">派發透過httppost文</tspan><tspan x="45.90" dy="0.82">字事件串流</tspan></text>
<line class="assoc" x1="26.36" y1="65.50" x2="27.36" y2="65.50"/>
<rect class="action" x="27.36" y="64.07" width="8.36" height="2.86" rx="0.45" ry="0.45"/>
<text class="action-label" x="31.54" y="65.09"><tspan x="31.54" dy="0">串流分塊</tspan><tspan x="31.54" dy="0.82">classify錯誤</tspan></text>
<line class="assoc" x1="12.00" y1="74.50" x2="13.00" y2="74.50"/>
<rect class="action" x="13.00" y="73.07" width="8.36" height="2.86" rx="0.45" ry="0.45"/>
<text class="action-label" x="17.18" y="73.68"><tspan x="17.18" dy="0">更新tokenusage與</tspan><tspan x="17.18" dy="0.82">ratelimitte</tspan><tspan x="17.18" dy="0.82">lemetry</tspan></text>
<line class="assoc" x1="26.36" y1="74.50" x2="27.36" y2="74.50"/>
<rect class="action" x="27.36" y="73.07" width="8.36" height="2.86" rx="0.45" ry="0.45"/>
<text class="action-label" x="31.54" y="74.09"><tspan x="31.54" dy="0">rotate帳號或</tspan><tspan x="31.54" dy="0.82">backoff透過輪替3d</tspan></text>
<line class="assoc" x1="26.36" y1="85.50" x2="27.36" y2="85.50"/>
<rect class="action" x="27.36" y="84.07" width="8.36" height="2.86" rx="0.45" ry="0.45"/>
<text class="action-label" x="31.54" y="85.09"><tspan x="31.54" dy="0">返回到閒置</tspan><tspan x="31.54" dy="0.82">releaseinflight</tspan></text>
<line class="assoc" x1="40.72" y1="74.50" x2="41.72" y2="74.50"/>
<rect class="action" x="41.72" y="73.07" width="8.36" height="2.86" rx="0.45" ry="0.45"/>
<text class="action-label" x="45.90" y="74.09"><tspan x="45.90" dy="0">發出延續invalidate</tspan><tspan x="45.90" dy="0.82">dbus事件與evict快取</tspan></text>
<circle class="junction" cx="24.36" cy="9.00" r="0.18"/>
<text class="gate-label" x="25.76" y="9.00"><tspan x="25.76" dy="0">請求已收到</tspan></text>
<circle class="junction" cx="24.36" cy="16.00" r="0.18"/>
<text class="gate-label" x="25.76" y="16.00"><tspan x="25.76" dy="0">family在knownfamilies</tspan></text>
<circle class="junction" cx="24.36" cy="23.00" r="0.18"/>
<text class="gate-label" x="25.76" y="23.00"><tspan x="25.76" dy="0">帳號idpresent與active</tspan></text>
<circle class="junction" cx="24.36" cy="30.00" r="0.18"/>
<text class="gate-label" x="25.76" y="30.00"><tspan x="25.76" dy="0">sdkclient就緒</tspan></text>
<circle class="junction" cx="24.36" cy="37.00" r="0.18"/>
<text class="gate-label" x="25.76" y="37.00"><tspan x="25.76" dy="0">headersfinalized</tspan></text>
<circle class="junction" cx="24.36" cy="44.00" r="0.18"/>
<text class="gate-label" x="25.76" y="44.00"><tspan x="25.76" dy="0">payloadtransform完成</tspan></text>
<line class="gate" x1="6.00" y1="51.00" x2="42.72" y2="51.00"/>
<line class="gate" x1="8.00" y1="62.00" x2="40.72" y2="62.00"/>
<line class="gate" x1="6.00" y1="69.00" x2="42.72" y2="69.00"/>
<line class="gate" x1="8.00" y1="82.00" x2="26.36" y2="82.00"/>
<circle class="junction" cx="24.36" cy="89.00" r="0.18"/>
<text class="gate-label" x="25.76" y="89.00"><tspan x="25.76" dy="0">1</tspan></text>
<circle class="junction" cx="38.72" cy="78.00" r="0.18"/>
<text class="gate-label" x="40.12" y="78.00"><tspan x="40.12" dy="0">bus事件emitted與快取evicted</tspan></text>
<line class="gate" x1="23.36" y1="53.00" x2="25.36" y2="53.00"/>
<text class="gate-label" x="25.76" y="52.32"><tspan x="25.76" dy="0">ws已啟用與不stickyfallback</tspan></text>
<line class="gate" x1="23.36" y1="53.00" x2="25.36" y2="53.00"/>
<text class="gate-label" x="25.76" y="53.68"><tspan x="25.76" dy="0">http或wsstickyfallback</tspan></text>
<line class="gate" x1="9.00" y1="60.00" x2="11.00" y2="60.00"/>
<text class="gate-label-left" x="8.60" y="60.00"><tspan x="8.60" dy="0">wshandshakeok</tspan></text>
<line class="gate" x1="37.72" y1="60.00" x2="39.72" y2="60.00"/>
<text class="gate-label-left" x="37.32" y="60.00"><tspan x="37.32" dy="0">http回應opened</tspan></text>
<line class="gate" x1="23.36" y1="71.00" x2="25.36" y2="71.00"/>
<text class="gate-label" x="25.76" y="70.32"><tspan x="25.76" dy="0">分塊completionframe</tspan></text>
<line class="gate" x1="23.36" y1="71.00" x2="25.36" y2="71.00"/>
<text class="gate-label" x="25.76" y="71.68"><tspan x="25.76" dy="0">ratelimit或配額hit</tspan></text>
<line class="gate" x1="23.36" y1="71.00" x2="25.36" y2="71.00"/>
<text class="gate-label" x="28.56" y="70.32"><tspan x="28.56" dy="0">延續invalidated或4xx5xx</tspan></text>
<line class="gate" x1="9.00" y1="80.00" x2="11.00" y2="80.00"/>
<text class="gate-label-left" x="8.60" y="79.32"><tspan x="8.60" dy="0">teleme</tspan><tspan x="8.60" dy="0.68">trycom</tspan><tspan x="8.60" dy="0.68">mitted</tspan></text>
<line class="gate" x1="23.36" y1="80.00" x2="25.36" y2="80.00"/>
<text class="gate-label-left" x="22.96" y="79.32"><tspan x="22.96" dy="0">candidatepoo</tspan><tspan x="22.96" dy="0.68">lexhausted或</tspan><tspan x="22.96" dy="0.68">backoffdone</tspan></text>
<circle class="junction" cx="24.36" cy="78.00" r="0.22"/>
<circle class="junction" cx="24.36" cy="71.00" r="0.22"/>
</svg>