<svg xmlns="http://www.w3.org/2000/svg" width="1945" height="1680" viewBox="-24.00 -2.00 97.25 84.00" role="img">
<style>
.step{fill:#fff;stroke:#111;stroke-width:.14}.step-inner{fill:none;stroke:#111;stroke-width:.08}
.action{fill:#fff;stroke:#111;stroke-width:.14}.gate{stroke:#111;stroke-width:.16}
.edge{fill:none;stroke:#111;stroke-width:.05;stroke-linecap:round;stroke-linejoin:round}.edge-arrow{marker-end:url(#arrow)}
.flyover-mask{stroke:#fff;stroke-width:.12;stroke-linecap:round}
.flyover{fill:none;stroke:#111;stroke-width:.05;stroke-linecap:round}
.junction{fill:#111;stroke:#111;stroke-width:0}.branch-junction{fill:#fff;stroke:#111;stroke-width:.08}
.assoc{stroke:#111;stroke-width:.05}.label{font:bold .7px 'Times New Roman', 'BiauKai', 'DFKai-SB', serif;text-anchor:middle;dominant-baseline:middle}
.action-label{font:.55px 'Times New Roman', 'BiauKai', 'DFKai-SB', serif;text-anchor:middle;dominant-baseline:middle}.gate-label{font:italic .55px 'Times New Roman', 'BiauKai', 'DFKai-SB', serif;text-anchor:start;dominant-baseline:middle}.gate-label-left{font:italic .55px 'Times New Roman', 'BiauKai', 'DFKai-SB', serif;text-anchor:end;dominant-baseline:middle}
</style>
<defs><marker id="arrow" markerWidth="0.4" markerHeight="0.4" refX="0.36" refY="0.2" orient="auto" markerUnits="userSpaceOnUse"><path d="M 0 0 L 0.4 0.2 L 0 0.4 z" fill="#111"/></marker></defs>
<rect x="-24.00" y="-2.00" width="97.25" height="84.00" fill="white"/>
<path class="edge edge-arrow" d="M 25.25 23.00 L 25.25 27.00"/>
<path class="edge" d="M 25.25 7.00 L 25.25 9.00"/>
<path class="edge edge-arrow" d="M 25.25 9.00 L 25.25 11.00"/>
<path class="edge" d="M 25.25 14.00 L 25.25 16.00"/>
<path class="edge edge-arrow" d="M 25.25 16.00 L 25.25 18.00"/>
<path class="edge" d="M 25.25 21.00 L 25.25 23.00"/>
<path class="edge edge-arrow" d="M 25.25 30.00 L 25.25 32.00"/>
<path class="edge edge-arrow" d="M 1.75 32.00 L 1.75 33.50 Q 1.75 34.00 1.75 34.50 L 1.75 36.00"/>
<path class="edge edge-arrow" d="M 13.50 32.00 L 13.50 33.50 Q 13.50 34.00 13.50 34.50 L 13.50 36.00"/>
<path class="edge edge-arrow" d="M 37.00 32.00 L 37.00 33.50 Q 37.00 34.00 37.00 34.50 L 37.00 36.00"/>
<path class="edge edge-arrow" d="M 48.75 32.00 L 48.75 33.50 Q 48.75 34.00 48.75 34.50 L 48.75 36.00"/>
<path class="edge" d="M 1.75 39.00 L 1.75 43.00"/>
<path class="edge edge-arrow" d="M 1.75 43.00 L 1.75 47.00"/>
<path class="edge" d="M 1.75 50.00 L 1.75 54.00"/>
<path class="edge edge-arrow" d="M 1.75 54.00 L 1.75 62.00"/>
<path class="edge edge-arrow" d="M 1.75 65.00 L 1.75 69.00"/>
<path class="edge edge-arrow" d="M 13.50 69.00 L 13.50 71.00"/>
<path class="edge" d="M 13.50 39.00 L 13.50 41.00"/>
<path class="edge" d="M 13.50 41.00 L -9.50 41.00 Q -10.00 41.00 -10.00 41.50 L -10.00 43.00"/>
<path class="edge edge-arrow" d="M -10.00 43.00 L -10.00 47.00"/>
<path class="edge edge-arrow" d="M 13.50 41.00 L 13.50 69.00"/>
<path class="edge edge-arrow" d="M -10.00 50.00 L -10.00 69.00"/>
<path class="edge" d="M 37.00 39.00 L -15.50 39.00 Q -16.00 39.00 -16.00 39.50 L -16.00 42.50 Q -16.00 43.00 -15.50 43.00 L 37.00 43.00"/>
<path class="edge edge-arrow" d="M 37.00 43.00 L 37.00 47.00"/>
<path class="edge edge-arrow" d="M 37.00 50.00 L 37.00 69.00"/>
<path class="edge" d="M 13.50 74.00 L 13.50 76.00"/>
<path class="edge" d="M 13.50 76.00 L 13.50 78.00"/>
<path class="edge" d="M 13.50 78.00 L -18.00 78.00"/>
<path class="edge" d="M -18.00 78.00 L -18.00 25.00"/>
<path class="edge" d="M -18.00 25.00 L 25.25 25.00"/>
<path class="edge edge-arrow" d="M 48.75 39.00 L 48.75 41.00"/>
<path class="edge edge-arrow" d="M 48.75 41.00 L 48.75 42.50 Q 48.75 43.00 48.75 43.50 L 48.75 47.00"/>
<path class="edge edge-arrow" d="M 60.50 41.00 L 60.50 42.50 Q 60.50 43.00 60.50 43.50 L 60.50 47.00"/>
<path class="edge" d="M 37.00 41.00 L 37.00 43.00"/>
<path class="edge" d="M 37.00 45.00 L -20.00 45.00"/>
<path class="edge" d="M -20.00 45.00 L -20.00 2.00"/>
<path class="edge" d="M -20.00 2.00 L 25.25 2.00"/>
<path class="edge edge-arrow" d="M 25.25 2.00 L 25.25 4.00"/>
<path class="edge" d="M 48.75 50.00 L 48.75 52.00"/>
<path class="edge" d="M 48.75 52.00 L 48.75 56.00"/>
<path class="edge" d="M 48.75 56.00 L -18.00 56.00"/>
<path class="edge" d="M 60.50 50.00 L 60.50 58.00"/>
<path class="edge" d="M 60.50 58.00 L 60.50 60.00"/>
<path class="edge" d="M 60.50 60.00 L -18.00 60.00"/>
<rect class="step" x="23.25" y="4.00" width="4.00" height="3.00"/>
<rect class="step-inner" x="23.50" y="4.25" width="3.50" height="2.50"/>
<text class="label" x="25.25" y="5.50">0</text>
<rect class="step" x="23.25" y="11.00" width="4.00" height="3.00"/>
<text class="label" x="25.25" y="12.50">1</text>
<rect class="step" x="23.25" y="18.00" width="4.00" height="3.00"/>
<text class="label" x="25.25" y="19.50">2</text>
<rect class="step" x="23.25" y="27.00" width="4.00" height="3.00"/>
<text class="label" x="25.25" y="28.50">3</text>
<rect class="step" x="-0.25" y="36.00" width="4.00" height="3.00"/>
<text class="label" x="1.75" y="37.50">4</text>
<rect class="step" x="-0.25" y="47.00" width="4.00" height="3.00"/>
<text class="label" x="1.75" y="48.50">5</text>
<rect class="step" x="-0.25" y="62.00" width="4.00" height="3.00"/>
<text class="label" x="1.75" y="63.50">6</text>
<rect class="step" x="11.50" y="36.00" width="4.00" height="3.00"/>
<text class="label" x="13.50" y="37.50">7</text>
<rect class="step" x="-12.00" y="47.00" width="4.00" height="3.00"/>
<text class="label" x="-10.00" y="48.50">8</text>
<rect class="step" x="35.00" y="36.00" width="4.00" height="3.00"/>
<text class="label" x="37.00" y="37.50">9</text>
<rect class="step" x="35.00" y="47.00" width="4.00" height="3.00"/>
<text class="label" x="37.00" y="48.50">10</text>
<rect class="step" x="11.50" y="71.00" width="4.00" height="3.00"/>
<text class="label" x="13.50" y="72.50">11</text>
<rect class="step" x="46.75" y="36.00" width="4.00" height="3.00"/>
<text class="label" x="48.75" y="37.50">12</text>
<rect class="step" x="46.75" y="47.00" width="4.00" height="3.00"/>
<text class="label" x="48.75" y="48.50">13</text>
<rect class="step" x="58.50" y="47.00" width="4.00" height="3.00"/>
<text class="label" x="60.50" y="48.50">14</text>
<line class="assoc" x1="27.25" y1="5.50" x2="28.25" y2="5.50"/>
<rect class="action" x="28.25" y="4.07" width="5.75" height="2.86" rx="0.45" ry="0.45"/>
<text class="action-label" x="31.12" y="5.09"><tspan x="31.12" dy="0">Sessionun</tspan><tspan x="31.12" dy="0.82">bound閒置</tspan></text>
<line class="assoc" x1="27.25" y1="12.50" x2="28.25" y2="12.50"/>
<rect class="action" x="28.25" y="11.07" width="5.75" height="2.86" rx="0.45" ry="0.45"/>
<text class="action-label" x="31.12" y="11.68"><tspan x="31.12" dy="0">bindSes</tspan><tspan x="31.12" dy="0.82">sion與</tspan><tspan x="31.12" dy="0.82">bumpepoch</tspan></text>
<line class="assoc" x1="27.25" y1="19.50" x2="28.25" y2="19.50"/>
<rect class="action" x="28.25" y="18.07" width="5.75" height="2.86" rx="0.45" ry="0.45"/>
<text class="action-label" x="31.12" y="18.68"><tspan x="31.12" dy="0">hydratetail透</tspan><tspan x="31.12" dy="0.82">過messages</tspan><tspan x="31.12" dy="0.82">endpoint</tspan></text>
<line class="assoc" x1="27.25" y1="28.50" x2="28.25" y2="28.50"/>
<rect class="action" x="28.25" y="27.07" width="5.75" height="2.86" rx="0.45" ry="0.45"/>
<text class="action-label" x="31.12" y="27.68"><tspan x="31.12" dy="0">subscri</tspan><tspan x="31.12" dy="0.82">besse與</tspan><tspan x="31.12" dy="0.82">等待輸入</tspan></text>
<line class="assoc" x1="3.75" y1="37.50" x2="4.75" y2="37.50"/>
<rect class="action" x="4.75" y="36.07" width="5.75" height="2.86" rx="0.45" ry="0.45"/>
<text class="action-label" x="7.62" y="37.09"><tspan x="7.62" dy="0">submit訊</tspan><tspan x="7.62" dy="0.82">息與持久化</tspan></text>
<line class="assoc" x1="3.75" y1="48.50" x2="4.75" y2="48.50"/>
<rect class="action" x="4.75" y="47.07" width="5.75" height="2.86" rx="0.45" ry="0.45"/>
<text class="action-label" x="7.62" y="48.09"><tspan x="7.62" dy="0">派發到</tspan><tspan x="7.62" dy="0.82">runloop</tspan></text>
<line class="assoc" x1="3.75" y1="63.50" x2="4.75" y2="63.50"/>
<rect class="action" x="4.75" y="62.07" width="5.75" height="2.86" rx="0.45" ry="0.45"/>
<text class="action-label" x="7.62" y="62.68"><tspan x="7.62" dy="0">串流partsi</tspan><tspan x="7.62" dy="0.82">nvalidate快</tspan><tspan x="7.62" dy="0.82">取pushsse</tspan></text>
<line class="assoc" x1="15.50" y1="37.50" x2="16.50" y2="37.50"/>
<rect class="action" x="16.50" y="36.07" width="5.75" height="2.86" rx="0.45" ry="0.45"/>
<text class="action-label" x="19.38" y="37.09"><tspan x="19.38" dy="0">applyrebin</tspan><tspan x="19.38" dy="0.82">dratelimit</tspan></text>
<line class="assoc" x1="-8.00" y1="48.50" x2="-7.00" y2="48.50"/>
<rect class="action" x="-7.00" y="47.07" width="5.75" height="2.86" rx="0.45" ry="0.45"/>
<text class="action-label" x="-4.12" y="47.68"><tspan x="-4.12" dy="0">reinjectc</tspan><tspan x="-4.12" dy="0.82">apability</tspan><tspan x="-4.12" dy="0.82">snapshot</tspan></text>
<line class="assoc" x1="39.00" y1="37.50" x2="40.00" y2="37.50"/>
<rect class="action" x="40.00" y="36.07" width="5.75" height="2.86" rx="0.45" ry="0.45"/>
<text class="action-label" x="42.88" y="36.68"><tspan x="42.88" dy="0">loadolders</tspan><tspan x="42.88" dy="0.82">lice使用</tspan><tspan x="42.88" dy="0.82">beforecursor</tspan></text>
<line class="assoc" x1="39.00" y1="48.50" x2="40.00" y2="48.50"/>
<rect class="action" x="40.00" y="47.07" width="5.75" height="2.86" rx="0.45" ry="0.45"/>
<text class="action-label" x="42.88" y="48.09"><tspan x="42.88" dy="0">reduce與</tspan><tspan x="42.88" dy="0.82">foldparts</tspan></text>
<line class="assoc" x1="15.50" y1="72.50" x2="16.50" y2="72.50"/>
<rect class="action" x="16.50" y="71.07" width="5.75" height="2.86" rx="0.45" ry="0.45"/>
<text class="action-label" x="19.38" y="71.68"><tspan x="19.38" dy="0">stamp已收到</tspan><tspan x="19.38" dy="0.82">於與classif</tspan><tspan x="19.38" dy="0.82">yfreshness</tspan></text>
<line class="assoc" x1="50.75" y1="37.50" x2="51.75" y2="37.50"/>
<rect class="action" x="51.75" y="36.07" width="5.75" height="2.86" rx="0.45" ry="0.45"/>
<text class="action-label" x="54.62" y="37.09"><tspan x="54.62" dy="0">freshness</tspan><tspan x="54.62" dy="0.82">clocktick</tspan></text>
<line class="assoc" x1="50.75" y1="48.50" x2="51.75" y2="48.50"/>
<rect class="action" x="51.75" y="47.07" width="5.75" height="2.86" rx="0.45" ry="0.45"/>
<text class="action-label" x="54.62" y="48.09"><tspan x="54.62" dy="0">forcetailre</tspan><tspan x="54.62" dy="0.82">fetch在stale</tspan></text>
<line class="assoc" x1="62.50" y1="48.50" x2="63.50" y2="48.50"/>
<rect class="action" x="63.50" y="47.07" width="5.75" height="2.86" rx="0.45" ry="0.45"/>
<text class="action-label" x="66.38" y="47.68"><tspan x="66.38" dy="0">schedulere</tspan><tspan x="66.38" dy="0.82">sumerebind在</tspan><tspan x="66.38" dy="0.82">hardstale</tspan></text>
<line class="gate" x1="24.25" y1="9.00" x2="26.25" y2="9.00"/>
<text class="gate-label" x="26.65" y="9.00"><tspan x="26.65" dy="0">clientopensSession路由</tspan></text>
<line class="gate" x1="24.25" y1="16.00" x2="26.25" y2="16.00"/>
<text class="gate-label" x="26.65" y="16.00"><tspan x="26.65" dy="0">epochbumpok &amp;&amp; reinject完成</tspan></text>
<line class="gate" x1="24.25" y1="23.00" x2="26.25" y2="23.00"/>
<text class="gate-label" x="26.65" y="23.00"><tspan x="26.65" dy="0">tail已載入或304</tspan></text>
<line class="gate" x1="-2.25" y1="32.00" x2="52.75" y2="32.00"/>
<line class="gate" x1="0.75" y1="43.00" x2="2.75" y2="43.00"/>
<text class="gate-label" x="3.15" y="42.32"><tspan x="3.15" dy="0">httppost2xx &amp;&amp; 訊息appended</tspan></text>
<line class="gate" x1="0.75" y1="54.00" x2="2.75" y2="54.00"/>
<text class="gate-label" x="3.15" y="53.66"><tspan x="3.15" dy="0">runloopstarted</tspan><tspan x="3.15" dy="0.68">&amp;&amp; 串流open</tspan></text>
<line class="gate" x1="-12.00" y1="69.00" x2="39.00" y2="69.00"/>
<line class="gate" x1="-11.00" y1="43.00" x2="-9.00" y2="43.00"/>
<text class="gate-label" x="-8.60" y="42.32"><tspan x="-8.60" dy="0">underratelimit</tspan></text>
<line class="gate" x1="36.00" y1="43.00" x2="38.00" y2="43.00"/>
<text class="gate-label-left" x="35.60" y="42.32"><tspan x="35.60" dy="0">olderslicereturned或empty</tspan></text>
<line class="gate" x1="12.50" y1="76.00" x2="14.50" y2="76.00"/>
<text class="gate-label" x="14.90" y="76.00"><tspan x="14.90" dy="0">fidelityclassified</tspan></text>
<line class="gate" x1="33.00" y1="41.00" x2="64.50" y2="41.00"/>
<line class="gate" x1="47.75" y1="52.00" x2="49.75" y2="52.00"/>
<text class="gate-label" x="50.15" y="52.00"><tspan x="50.15" dy="0">tailrefreshed</tspan></text>
<line class="gate" x1="59.50" y1="58.00" x2="61.50" y2="58.00"/>
<text class="gate-label" x="61.90" y="58.00"><tspan x="61.90" dy="0">resumepostreturned</tspan></text>
<line class="gate" x1="0.75" y1="34.00" x2="2.75" y2="34.00"/>
<text class="gate-label-left" x="0.35" y="34.00"><tspan x="0.35" dy="0">使用者submits提示</tspan></text>
<line class="gate" x1="12.50" y1="34.00" x2="14.50" y2="34.00"/>
<text class="gate-label-left" x="12.10" y="34.00"><tspan x="12.10" dy="0">rebindtriggerobserved</tspan></text>
<line class="gate" x1="36.00" y1="34.00" x2="38.00" y2="34.00"/>
<text class="gate-label-left" x="35.60" y="34.00"><tspan x="35.60" dy="0">scrollupSentinelhit</tspan></text>
<line class="gate" x1="47.75" y1="34.00" x2="49.75" y2="34.00"/>
<text class="gate-label-left" x="47.35" y="34.00"><tspan x="47.35" dy="0">閒置freshnesstick</tspan></text>
<line class="gate" x1="0.75" y1="67.00" x2="2.75" y2="67.00"/>
<text class="gate-label-left" x="0.35" y="67.00"><tspan x="0.35" dy="0">訊息已完成或aborted</tspan></text>
<line class="gate" x1="12.50" y1="67.00" x2="14.50" y2="67.00"/>
<text class="gate-label-left" x="12.10" y="67.00"><tspan x="12.10" dy="0">ratelimitedstorm</tspan></text>
<line class="gate" x1="-11.00" y1="67.00" x2="-9.00" y2="67.00"/>
<text class="gate-label-left" x="-11.40" y="66.66"><tspan x="-11.40" dy="0">reinject返回</tspan><tspan x="-11.40" dy="0.68">或Sessionbusy</tspan></text>
<line class="gate" x1="36.00" y1="67.00" x2="38.00" y2="67.00"/>
<text class="gate-label-left" x="35.60" y="67.00"><tspan x="35.60" dy="0">timelinerendered</tspan></text>
<line class="gate" x1="47.75" y1="43.00" x2="49.75" y2="43.00"/>
<text class="gate-label" x="50.15" y="43.00"><tspan x="50.15" dy="0">stalethresholdcrossed</tspan></text>
<line class="gate" x1="59.50" y1="43.00" x2="61.50" y2="43.00"/>
<text class="gate-label" x="61.90" y="42.66"><tspan x="61.90" dy="0">hardstalethr</tspan><tspan x="61.90" dy="0.68">esholdcrossed</tspan></text>
<line class="gate" x1="36.00" y1="43.00" x2="38.00" y2="43.00"/>
<text class="gate-label" x="38.40" y="43.00"><tspan x="38.40" dy="0">Session路由left</tspan></text>
<line class="flyover-mask" x1="-19.00" y1="45.00" x2="-17.00" y2="45.00"/>
<path class="flyover" d="M -19.00 45.00 Q -18.00 44.00 -17.00 45.00"/>
<circle class="junction" cx="25.25" cy="25.00" r="0.22"/>
<circle class="junction" cx="37.00" cy="45.00" r="0.22"/>
<circle class="junction" cx="-18.00" cy="56.00" r="0.22"/>
<circle class="junction" cx="-18.00" cy="60.00" r="0.22"/>
<circle class="branch-junction" cx="13.50" cy="41.00" r="0.28"/>
</svg>