<svg xmlns="http://www.w3.org/2000/svg" width="1870" height="1720" viewBox="-17.00 -2.00 93.50 86.00" role="img">
<style>
.step{fill:#fff;stroke:#111;stroke-width:.14}.step-inner{fill:none;stroke:#111;stroke-width:.08}
.action{fill:#fff;stroke:#111;stroke-width:.14}.gate{stroke:#111;stroke-width:.16}
.edge{fill:none;stroke:#111;stroke-width:.05;stroke-linecap:round;stroke-linejoin:round}.edge-arrow{marker-end:url(#arrow)}
.flyover-mask{stroke:#fff;stroke-width:.12;stroke-linecap:round}
.flyover{fill:none;stroke:#111;stroke-width:.05;stroke-linecap:round}
.junction{fill:#111;stroke:#111;stroke-width:0}.branch-junction{fill:#fff;stroke:#111;stroke-width:.08}
.assoc{stroke:#111;stroke-width:.05}.label{font:bold .7px 'Times New Roman', 'BiauKai', 'DFKai-SB', serif;text-anchor:middle;dominant-baseline:middle}
.action-label{font:.55px 'Times New Roman', 'BiauKai', 'DFKai-SB', serif;text-anchor:middle;dominant-baseline:middle}.gate-label{font:italic .55px 'Times New Roman', 'BiauKai', 'DFKai-SB', serif;text-anchor:start;dominant-baseline:middle}.gate-label-left{font:italic .55px 'Times New Roman', 'BiauKai', 'DFKai-SB', serif;text-anchor:end;dominant-baseline:middle}
</style>
<defs><marker id="arrow" markerWidth="0.4" markerHeight="0.4" refX="0.36" refY="0.2" orient="auto" markerUnits="userSpaceOnUse"><path d="M 0 0 L 0.4 0.2 L 0 0.4 z" fill="#111"/></marker></defs>
<rect x="-17.00" y="-2.00" width="93.50" height="86.00" fill="white"/>
<path class="edge edge-arrow" d="M 23.50 23.00 L 23.50 27.00"/>
<path class="edge" d="M 23.50 7.00 L 23.50 9.00"/>
<path class="edge edge-arrow" d="M 23.50 9.00 L 23.50 11.00"/>
<path class="edge" d="M 23.50 14.00 L 23.50 16.00"/>
<path class="edge edge-arrow" d="M 23.50 16.00 L 23.50 18.00"/>
<path class="edge" d="M 23.50 21.00 L 23.50 23.00"/>
<path class="edge edge-arrow" d="M 23.50 30.00 L 23.50 32.00"/>
<path class="edge edge-arrow" d="M 0.00 32.00 L 0.00 36.00"/>
<path class="edge edge-arrow" d="M 11.75 32.00 L 11.75 36.00"/>
<path class="edge edge-arrow" d="M 35.25 32.00 L 35.25 36.00"/>
<path class="edge edge-arrow" d="M 47.00 32.00 L 47.00 36.00"/>
<path class="edge" d="M 0.00 39.00 L 0.00 43.00"/>
<path class="edge edge-arrow" d="M 0.00 43.00 L 0.00 49.00"/>
<path class="edge" d="M 0.00 52.00 L 0.00 56.00"/>
<path class="edge edge-arrow" d="M 0.00 56.00 L 0.00 64.00"/>
<path class="edge edge-arrow" d="M 0.00 67.00 L 0.00 71.00"/>
<path class="edge edge-arrow" d="M 11.75 71.00 L 11.75 73.00"/>
<path class="edge" d="M 11.75 39.00 L 11.75 41.00"/>
<path class="edge" d="M 11.75 41.00 L 11.75 45.00"/>
<path class="edge edge-arrow" d="M 11.75 45.00 L 11.75 49.00"/>
<path class="edge edge-arrow" d="M 11.75 41.00 L 70.00 41.00 Q 70.50 41.00 70.50 41.50 L 70.50 71.00"/>
<path class="edge edge-arrow" d="M 11.75 52.00 L 11.75 71.00"/>
<path class="edge" d="M 35.25 39.00 L 35.25 47.00"/>
<path class="edge edge-arrow" d="M 35.25 47.00 L 35.25 49.00"/>
<path class="edge edge-arrow" d="M 35.25 52.00 L 35.25 71.00"/>
<path class="edge" d="M 11.75 76.00 L 11.75 78.00"/>
<path class="edge" d="M 11.75 78.00 L 11.75 80.00"/>
<path class="edge" d="M 11.75 80.00 L -10.00 80.00"/>
<path class="edge" d="M -10.00 80.00 L -10.00 25.00"/>
<path class="edge" d="M -10.00 25.00 L 23.50 25.00"/>
<path class="edge edge-arrow" d="M 47.00 39.00 L 47.00 41.00"/>
<path class="edge edge-arrow" d="M 23.50 41.00 L 23.50 49.00"/>
<path class="edge edge-arrow" d="M 58.75 41.00 L 58.75 49.00"/>
<path class="edge edge-arrow" d="M -6.00 41.00 L -11.50 41.00 Q -12.00 41.00 -12.00 40.50 L -12.00 2.50 Q -12.00 2.00 -11.50 2.00 L 23.00 2.00 Q 23.50 2.00 23.50 2.50 L 23.50 4.00"/>
<path class="edge" d="M 23.50 52.00 L 23.50 54.00"/>
<path class="edge" d="M 23.50 54.00 L 23.50 58.00"/>
<path class="edge" d="M 23.50 58.00 L -10.00 58.00"/>
<path class="edge" d="M 58.75 52.00 L 58.75 60.00"/>
<path class="edge" d="M 58.75 60.00 L 58.75 62.00"/>
<path class="edge" d="M 58.75 62.00 L -10.00 62.00"/>
<rect class="step" x="21.50" y="4.00" width="4.00" height="3.00"/>
<rect class="step-inner" x="21.75" y="4.25" width="3.50" height="2.50"/>
<text class="label" x="23.50" y="5.50">0</text>
<rect class="step" x="21.50" y="11.00" width="4.00" height="3.00"/>
<text class="label" x="23.50" y="12.50">1</text>
<rect class="step" x="21.50" y="18.00" width="4.00" height="3.00"/>
<text class="label" x="23.50" y="19.50">2</text>
<rect class="step" x="21.50" y="27.00" width="4.00" height="3.00"/>
<text class="label" x="23.50" y="28.50">3</text>
<rect class="step" x="-2.00" y="36.00" width="4.00" height="3.00"/>
<text class="label" x="0.00" y="37.50">4</text>
<rect class="step" x="-2.00" y="49.00" width="4.00" height="3.00"/>
<text class="label" x="0.00" y="50.50">5</text>
<rect class="step" x="-2.00" y="64.00" width="4.00" height="3.00"/>
<text class="label" x="0.00" y="65.50">6</text>
<rect class="step" x="9.75" y="36.00" width="4.00" height="3.00"/>
<text class="label" x="11.75" y="37.50">7</text>
<rect class="step" x="9.75" y="49.00" width="4.00" height="3.00"/>
<text class="label" x="11.75" y="50.50">8</text>
<rect class="step" x="33.25" y="36.00" width="4.00" height="3.00"/>
<text class="label" x="35.25" y="37.50">9</text>
<rect class="step" x="33.25" y="49.00" width="4.00" height="3.00"/>
<text class="label" x="35.25" y="50.50">10</text>
<rect class="step" x="9.75" y="73.00" width="4.00" height="3.00"/>
<text class="label" x="11.75" y="74.50">11</text>
<rect class="step" x="45.00" y="36.00" width="4.00" height="3.00"/>
<text class="label" x="47.00" y="37.50">12</text>
<rect class="step" x="21.50" y="49.00" width="4.00" height="3.00"/>
<text class="label" x="23.50" y="50.50">13</text>
<rect class="step" x="56.75" y="49.00" width="4.00" height="3.00"/>
<text class="label" x="58.75" y="50.50">14</text>
<line class="assoc" x1="25.50" y1="5.50" x2="26.50" y2="5.50"/>
<rect class="action" x="26.50" y="4.07" width="5.75" height="2.86" rx="0.45" ry="0.45"/>
<text class="action-label" x="29.38" y="5.09"><tspan x="29.38" dy="0">Sessionun</tspan><tspan x="29.38" dy="0.82">boundÚľĺšŻ«</tspan></text>
<line class="assoc" x1="25.50" y1="12.50" x2="26.50" y2="12.50"/>
<rect class="action" x="26.50" y="11.07" width="5.75" height="2.86" rx="0.45" ry="0.45"/>
<text class="action-label" x="29.38" y="11.68"><tspan x="29.38" dy="0">bindSes</tspan><tspan x="29.38" dy="0.82">sionŔłç</tspan><tspan x="29.38" dy="0.82">bumpepoch</tspan></text>
<line class="assoc" x1="25.50" y1="19.50" x2="26.50" y2="19.50"/>
<rect class="action" x="26.50" y="18.07" width="5.75" height="2.86" rx="0.45" ry="0.45"/>
<text class="action-label" x="29.38" y="18.68"><tspan x="29.38" dy="0">hydratetailÚÇĆ</tspan><tspan x="29.38" dy="0.82">ÚüÄmessages</tspan><tspan x="29.38" dy="0.82">endpoint</tspan></text>
<line class="assoc" x1="25.50" y1="28.50" x2="26.50" y2="28.50"/>
<rect class="action" x="26.50" y="27.07" width="5.75" height="2.86" rx="0.45" ry="0.45"/>
<text class="action-label" x="29.38" y="27.68"><tspan x="29.38" dy="0">subscri</tspan><tspan x="29.38" dy="0.82">besseŔłç</tspan><tspan x="29.38" dy="0.82">šşëňżůŔ╝Şňůą</tspan></text>
<line class="assoc" x1="2.00" y1="37.50" x2="3.00" y2="37.50"/>
<rect class="action" x="3.00" y="36.07" width="5.75" height="2.86" rx="0.45" ry="0.45"/>
<text class="action-label" x="5.88" y="37.09"><tspan x="5.88" dy="0">submitŔĘŐ</tspan><tspan x="5.88" dy="0.82">Šü»ŔłçŠîüń╣ůňîľ</tspan></text>
<line class="assoc" x1="2.00" y1="50.50" x2="3.00" y2="50.50"/>
<rect class="action" x="3.00" y="49.07" width="5.75" height="2.86" rx="0.45" ry="0.45"/>
<text class="action-label" x="5.88" y="50.09"><tspan x="5.88" dy="0">Š┤żšÖ╝ňł░</tspan><tspan x="5.88" dy="0.82">runloop</tspan></text>
<line class="assoc" x1="2.00" y1="65.50" x2="3.00" y2="65.50"/>
<rect class="action" x="3.00" y="64.07" width="5.75" height="2.86" rx="0.45" ry="0.45"/>
<text class="action-label" x="5.88" y="64.68"><tspan x="5.88" dy="0">ńŞ▓ŠÁüpartsi</tspan><tspan x="5.88" dy="0.82">nvalidateň┐ź</tspan><tspan x="5.88" dy="0.82">ňĆľpushsse</tspan></text>
<line class="assoc" x1="13.75" y1="37.50" x2="14.75" y2="37.50"/>
<rect class="action" x="14.75" y="36.07" width="5.75" height="2.86" rx="0.45" ry="0.45"/>
<text class="action-label" x="17.62" y="37.09"><tspan x="17.62" dy="0">applyrebin</tspan><tspan x="17.62" dy="0.82">dratelimit</tspan></text>
<line class="assoc" x1="13.75" y1="50.50" x2="14.75" y2="50.50"/>
<rect class="action" x="14.75" y="49.07" width="5.75" height="2.86" rx="0.45" ry="0.45"/>
<text class="action-label" x="17.62" y="49.68"><tspan x="17.62" dy="0">reinjectc</tspan><tspan x="17.62" dy="0.82">apability</tspan><tspan x="17.62" dy="0.82">snapshot</tspan></text>
<line class="assoc" x1="37.25" y1="37.50" x2="38.25" y2="37.50"/>
<rect class="action" x="38.25" y="36.07" width="5.75" height="2.86" rx="0.45" ry="0.45"/>
<text class="action-label" x="41.12" y="36.68"><tspan x="41.12" dy="0">loadolders</tspan><tspan x="41.12" dy="0.82">liceńŻ┐šöĘ</tspan><tspan x="41.12" dy="0.82">beforecursor</tspan></text>
<line class="assoc" x1="37.25" y1="50.50" x2="38.25" y2="50.50"/>
<rect class="action" x="38.25" y="49.07" width="5.75" height="2.86" rx="0.45" ry="0.45"/>
<text class="action-label" x="41.12" y="50.09"><tspan x="41.12" dy="0">reduceŔłç</tspan><tspan x="41.12" dy="0.82">foldparts</tspan></text>
<line class="assoc" x1="13.75" y1="74.50" x2="14.75" y2="74.50"/>
<rect class="action" x="14.75" y="73.07" width="5.75" height="2.86" rx="0.45" ry="0.45"/>
<text class="action-label" x="17.62" y="73.68"><tspan x="17.62" dy="0">stampňĚ▓ŠöÂňł░</tspan><tspan x="17.62" dy="0.82">Šľ╝Ŕłçclassif</tspan><tspan x="17.62" dy="0.82">yfreshness</tspan></text>
<line class="assoc" x1="49.00" y1="37.50" x2="50.00" y2="37.50"/>
<rect class="action" x="50.00" y="36.07" width="5.75" height="2.86" rx="0.45" ry="0.45"/>
<text class="action-label" x="52.88" y="37.09"><tspan x="52.88" dy="0">freshness</tspan><tspan x="52.88" dy="0.82">clocktick</tspan></text>
<line class="assoc" x1="25.50" y1="50.50" x2="26.50" y2="50.50"/>
<rect class="action" x="26.50" y="49.07" width="5.75" height="2.86" rx="0.45" ry="0.45"/>
<text class="action-label" x="29.38" y="50.09"><tspan x="29.38" dy="0">forcetailre</tspan><tspan x="29.38" dy="0.82">fetchňťĘstale</tspan></text>
<line class="assoc" x1="60.75" y1="50.50" x2="61.75" y2="50.50"/>
<rect class="action" x="61.75" y="49.07" width="5.75" height="2.86" rx="0.45" ry="0.45"/>
<text class="action-label" x="64.62" y="49.68"><tspan x="64.62" dy="0">schedulere</tspan><tspan x="64.62" dy="0.82">sumerebindňťĘ</tspan><tspan x="64.62" dy="0.82">hardstale</tspan></text>
<line class="gate" x1="22.50" y1="9.00" x2="24.50" y2="9.00"/>
<text class="gate-label" x="24.90" y="9.00"><tspan x="24.90" dy="0">clientopensSessionŔĚ»šö▒</tspan></text>
<line class="gate" x1="22.50" y1="16.00" x2="24.50" y2="16.00"/>
<text class="gate-label" x="24.90" y="16.00"><tspan x="24.90" dy="0">epochbumpok &amp;&amp; reinjectň«îŠłÉ</tspan></text>
<line class="gate" x1="22.50" y1="23.00" x2="24.50" y2="23.00"/>
<text class="gate-label" x="24.90" y="23.00"><tspan x="24.90" dy="0">tailňĚ▓Ŕ╝ëňůąŠłľ304</tspan></text>
<line class="gate" x1="-4.00" y1="32.00" x2="51.00" y2="32.00"/>
<line class="gate" x1="-1.00" y1="43.00" x2="1.00" y2="43.00"/>
<text class="gate-label" x="1.40" y="42.32"><tspan x="1.40" dy="0">httppost2xx</tspan><tspan x="1.40" dy="0.68">&amp;&amp; ŔĘŐŠü»</tspan><tspan x="1.40" dy="0.68">appended</tspan></text>
<line class="gate" x1="-1.00" y1="56.00" x2="1.00" y2="56.00"/>
<text class="gate-label" x="1.40" y="55.32"><tspan x="1.40" dy="0">runloops</tspan><tspan x="1.40" dy="0.68">tarted &amp;&amp;</tspan><tspan x="1.40" dy="0.68">ńŞ▓ŠÁüopen</tspan></text>
<line class="gate" x1="-2.00" y1="71.00" x2="72.50" y2="71.00"/>
<line class="gate" x1="10.75" y1="45.00" x2="12.75" y2="45.00"/>
<text class="gate-label" x="13.15" y="45.00"><tspan x="13.15" dy="0">underratelimit</tspan></text>
<line class="gate" x1="34.25" y1="47.00" x2="36.25" y2="47.00"/>
<text class="gate-label" x="36.65" y="47.00"><tspan x="36.65" dy="0">olderslicereturnedŠłľempty</tspan></text>
<line class="gate" x1="10.75" y1="78.00" x2="12.75" y2="78.00"/>
<text class="gate-label" x="13.15" y="78.00"><tspan x="13.15" dy="0">fidelityclassified</tspan></text>
<line class="gate" x1="-6.00" y1="41.00" x2="62.75" y2="41.00"/>
<line class="gate" x1="22.50" y1="54.00" x2="24.50" y2="54.00"/>
<text class="gate-label" x="24.90" y="54.00"><tspan x="24.90" dy="0">tailrefreshed</tspan></text>
<line class="gate" x1="57.75" y1="60.00" x2="59.75" y2="60.00"/>
<text class="gate-label" x="60.15" y="60.00"><tspan x="60.15" dy="0">resumepostreturned</tspan></text>
<line class="gate" x1="-1.00" y1="34.00" x2="1.00" y2="34.00"/>
<text class="gate-label-left" x="-1.40" y="34.00"><tspan x="-1.40" dy="0">ńŻ┐šöĘŔÇůsubmitsŠĆÉšĄ║</tspan></text>
<line class="gate" x1="10.75" y1="34.00" x2="12.75" y2="34.00"/>
<text class="gate-label-left" x="10.35" y="34.00"><tspan x="10.35" dy="0">rebindtriggerobserved</tspan></text>
<line class="gate" x1="34.25" y1="34.00" x2="36.25" y2="34.00"/>
<text class="gate-label-left" x="33.85" y="34.00"><tspan x="33.85" dy="0">scrollupSentinelhit</tspan></text>
<line class="gate" x1="46.00" y1="34.00" x2="48.00" y2="34.00"/>
<text class="gate-label-left" x="45.60" y="34.00"><tspan x="45.60" dy="0">ÚľĺšŻ«freshnesstick</tspan></text>
<line class="gate" x1="-1.00" y1="69.00" x2="1.00" y2="69.00"/>
<text class="gate-label-left" x="-1.40" y="69.00"><tspan x="-1.40" dy="0">ŔĘŐŠü»ňĚ▓ň«îŠłÉŠłľaborted</tspan></text>
<line class="gate" x1="69.50" y1="69.00" x2="71.50" y2="69.00"/>
<text class="gate-label-left" x="69.10" y="69.00"><tspan x="69.10" dy="0">ratelimitedstorm</tspan></text>
<line class="gate" x1="10.75" y1="69.00" x2="12.75" y2="69.00"/>
<text class="gate-label-left" x="10.35" y="68.32"><tspan x="10.35" dy="0">reinjectŔ┐ö</tspan><tspan x="10.35" dy="0.68">ňŤ×ŠłľSessi</tspan><tspan x="10.35" dy="0.68">onbusy</tspan></text>
<line class="gate" x1="34.25" y1="69.00" x2="36.25" y2="69.00"/>
<text class="gate-label-left" x="33.85" y="69.00"><tspan x="33.85" dy="0">timelinerendered</tspan></text>
<line class="gate" x1="22.50" y1="43.00" x2="24.50" y2="43.00"/>
<text class="gate-label-left" x="22.10" y="43.00"><tspan x="22.10" dy="0">stalethresholdcrossed</tspan></text>
<line class="gate" x1="57.75" y1="43.00" x2="59.75" y2="43.00"/>
<text class="gate-label-left" x="57.35" y="43.00"><tspan x="57.35" dy="0">hardstalethresholdcrossed</tspan></text>
<line class="gate" x1="-13.00" y1="26.50" x2="-11.00" y2="26.50"/>
<text class="gate-label" x="-9.20" y="26.50"><tspan x="-9.20" dy="0">SessionŔĚ»šö▒left</tspan></text>
<line class="flyover-mask" x1="-11.00" y1="41.00" x2="-9.00" y2="41.00"/>
<path class="flyover" d="M -11.00 41.00 Q -10.00 40.00 -9.00 41.00"/>
<circle class="junction" cx="23.50" cy="25.00" r="0.22"/>
<circle class="junction" cx="-10.00" cy="58.00" r="0.22"/>
<circle class="junction" cx="-10.00" cy="62.00" r="0.22"/>
<circle class="branch-junction" cx="11.75" cy="41.00" r="0.28"/>
</svg>