<svg xmlns="http://www.w3.org/2000/svg" width="1568" height="1600" viewBox="-36.00 -2.00 78.40 80.00" role="img">
<style>
.step{fill:#fff;stroke:#111;stroke-width:.14}.step-inner{fill:none;stroke:#111;stroke-width:.08}
.action{fill:#fff;stroke:#111;stroke-width:.14}.gate{stroke:#111;stroke-width:.16}
.edge{fill:none;stroke:#111;stroke-width:.05;stroke-linecap:round;stroke-linejoin:round}.edge-arrow{marker-end:url(#arrow)}
.flyover-mask{stroke:#fff;stroke-width:.12;stroke-linecap:round}
.flyover{fill:none;stroke:#111;stroke-width:.05;stroke-linecap:round}
.junction{fill:#111;stroke:#111;stroke-width:0}.branch-junction{fill:#fff;stroke:#111;stroke-width:.08}
.assoc{stroke:#111;stroke-width:.05}.label{font:bold .7px 'Times New Roman', 'BiauKai', 'DFKai-SB', serif;text-anchor:middle;dominant-baseline:middle}
.action-label{font:.55px 'Times New Roman', 'BiauKai', 'DFKai-SB', serif;text-anchor:middle;dominant-baseline:middle}.gate-label{font:italic .55px 'Times New Roman', 'BiauKai', 'DFKai-SB', serif;text-anchor:start;dominant-baseline:middle}.gate-label-left{font:italic .55px 'Times New Roman', 'BiauKai', 'DFKai-SB', serif;text-anchor:end;dominant-baseline:middle}
</style>
<defs><marker id="arrow" markerWidth="0.4" markerHeight="0.4" refX="0.36" refY="0.2" orient="auto" markerUnits="userSpaceOnUse"><path d="M 0 0 L 0.4 0.2 L 0 0.4 z" fill="#111"/></marker></defs>
<rect x="-36.00" y="-2.00" width="78.40" height="80.00" fill="white"/>
<path class="edge edge-arrow" d="M 2.56 23.00 L 2.56 27.00"/>
<path class="edge" d="M 2.56 7.00 L 2.56 9.00"/>
<path class="edge edge-arrow" d="M 2.56 9.00 L 2.56 11.00"/>
<path class="edge" d="M 2.56 14.00 L 2.56 16.00"/>
<path class="edge edge-arrow" d="M 2.56 16.00 L 2.56 18.00"/>
<path class="edge" d="M 2.56 21.00 L 2.56 23.00"/>
<path class="edge edge-arrow" d="M 2.56 30.00 L 2.56 32.00"/>
<path class="edge edge-arrow" d="M -20.00 32.00 L -20.00 36.00"/>
<path class="edge edge-arrow" d="M 25.12 32.00 L 25.12 36.00"/>
<path class="edge edge-arrow" d="M -8.72 32.00 L -8.72 36.00"/>
<path class="edge edge-arrow" d="M 13.84 32.00 L 13.84 36.00"/>
<path class="edge" d="M -20.00 39.00 L -20.00 41.00"/>
<path class="edge edge-arrow" d="M -20.00 41.00 L -20.00 49.00"/>
<path class="edge" d="M -20.00 52.00 L -20.00 54.00"/>
<path class="edge edge-arrow" d="M -20.00 54.00 L -20.00 58.00"/>
<path class="edge edge-arrow" d="M -20.00 61.00 L -20.00 65.00"/>
<path class="edge edge-arrow" d="M 2.56 65.00 L 2.56 67.00"/>
<path class="edge" d="M 25.12 39.00 L 25.12 41.00"/>
<path class="edge" d="M 25.12 41.00 L 25.12 45.00"/>
<path class="edge edge-arrow" d="M 25.12 45.00 L 25.12 49.00"/>
<path class="edge edge-arrow" d="M 25.12 41.00 L 34.62 41.00 Q 35.12 41.00 35.12 41.50 L 35.12 65.00"/>
<path class="edge edge-arrow" d="M 25.12 52.00 L 25.12 65.00"/>
<path class="edge" d="M -8.72 39.00 L -8.72 41.00"/>
<path class="edge edge-arrow" d="M -8.72 41.00 L -8.72 49.00"/>
<path class="edge edge-arrow" d="M -8.72 52.00 L -8.72 65.00"/>
<path class="edge" d="M 2.56 70.00 L 2.56 72.00"/>
<path class="edge" d="M 2.56 72.00 L 2.56 73.50 Q 2.56 74.00 2.06 74.00 L -27.50 74.00 Q -28.00 74.00 -28.00 73.50 L -28.00 25.50 Q -28.00 25.00 -27.50 25.00 L 2.56 25.00"/>
<path class="edge edge-arrow" d="M 13.84 39.00 L 13.84 41.00"/>
<path class="edge edge-arrow" d="M 2.56 41.00 L 2.56 49.00"/>
<path class="edge edge-arrow" d="M 13.84 41.00 L 13.84 49.00"/>
<path class="edge edge-arrow" d="M -0.44 41.00 L -0.44 46.50 Q -0.44 47.00 -0.94 47.00 L -31.50 47.00 Q -32.00 47.00 -32.00 46.50 L -32.00 2.50 Q -32.00 2.00 -31.50 2.00 L 2.06 2.00 Q 2.56 2.00 2.56 2.50 L 2.56 4.00"/>
<path class="edge" d="M 2.56 52.00 L 2.56 54.00"/>
<path class="edge" d="M 2.56 54.00 L 2.56 56.00"/>
<path class="edge" d="M 2.56 56.00 L -28.00 56.00"/>
<path class="edge" d="M 13.84 52.00 L 13.84 54.00"/>
<path class="edge" d="M 13.84 54.00 L 13.84 56.00"/>
<path class="edge" d="M 13.84 56.00 L 2.56 56.00"/>
<rect class="step" x="0.56" y="4.00" width="4.00" height="3.00"/>
<rect class="step-inner" x="0.81" y="4.25" width="3.50" height="2.50"/>
<text class="label" x="2.56" y="5.50">0</text>
<rect class="step" x="0.56" y="11.00" width="4.00" height="3.00"/>
<text class="label" x="2.56" y="12.50">1</text>
<rect class="step" x="0.56" y="18.00" width="4.00" height="3.00"/>
<text class="label" x="2.56" y="19.50">2</text>
<rect class="step" x="0.56" y="27.00" width="4.00" height="3.00"/>
<text class="label" x="2.56" y="28.50">3</text>
<rect class="step" x="-22.00" y="36.00" width="4.00" height="3.00"/>
<text class="label" x="-20.00" y="37.50">4</text>
<rect class="step" x="-22.00" y="49.00" width="4.00" height="3.00"/>
<text class="label" x="-20.00" y="50.50">5</text>
<rect class="step" x="-22.00" y="58.00" width="4.00" height="3.00"/>
<text class="label" x="-20.00" y="59.50">6</text>
<rect class="step" x="23.12" y="36.00" width="4.00" height="3.00"/>
<text class="label" x="25.12" y="37.50">7</text>
<rect class="step" x="23.12" y="49.00" width="4.00" height="3.00"/>
<text class="label" x="25.12" y="50.50">8</text>
<rect class="step" x="-10.72" y="36.00" width="4.00" height="3.00"/>
<text class="label" x="-8.72" y="37.50">9</text>
<rect class="step" x="-10.72" y="49.00" width="4.00" height="3.00"/>
<text class="label" x="-8.72" y="50.50">10</text>
<rect class="step" x="0.56" y="67.00" width="4.00" height="3.00"/>
<text class="label" x="2.56" y="68.50">11</text>
<rect class="step" x="11.84" y="36.00" width="4.00" height="3.00"/>
<text class="label" x="13.84" y="37.50">12</text>
<rect class="step" x="0.56" y="49.00" width="4.00" height="3.00"/>
<text class="label" x="2.56" y="50.50">13</text>
<rect class="step" x="11.84" y="49.00" width="4.00" height="3.00"/>
<text class="label" x="13.84" y="50.50">14</text>
<line class="assoc" x1="4.56" y1="5.50" x2="5.56" y2="5.50"/>
<rect class="action" x="5.56" y="4.07" width="5.28" height="2.86" rx="0.45" ry="0.45"/>
<text class="action-label" x="8.20" y="5.09"><tspan x="8.20" dy="0">Sessionunb</tspan><tspan x="8.20" dy="0.82">oundй–’зҪ®</tspan></text>
<line class="assoc" x1="4.56" y1="12.50" x2="5.56" y2="12.50"/>
<rect class="action" x="5.56" y="11.07" width="5.28" height="2.86" rx="0.45" ry="0.45"/>
<text class="action-label" x="8.20" y="12.09"><tspan x="8.20" dy="0">bindSessionиҲҮ</tspan><tspan x="8.20" dy="0.82">bumpepoch</tspan></text>
<line class="assoc" x1="4.56" y1="19.50" x2="5.56" y2="19.50"/>
<rect class="action" x="5.56" y="18.07" width="5.28" height="2.86" rx="0.45" ry="0.45"/>
<text class="action-label" x="8.20" y="19.09"><tspan x="8.20" dy="0">hydratetailйҖҸйҒҺ</tspan><tspan x="8.20" dy="0.82">messagesendpoint</tspan></text>
<line class="assoc" x1="4.56" y1="28.50" x2="5.56" y2="28.50"/>
<rect class="action" x="5.56" y="27.07" width="5.28" height="2.86" rx="0.45" ry="0.45"/>
<text class="action-label" x="8.20" y="28.09"><tspan x="8.20" dy="0">subscribesseиҲҮ</tspan><tspan x="8.20" dy="0.82">зӯүеҫ…ијёе…Ҙ</tspan></text>
<line class="assoc" x1="-18.00" y1="37.50" x2="-17.00" y2="37.50"/>
<rect class="action" x="-17.00" y="36.07" width="5.28" height="2.86" rx="0.45" ry="0.45"/>
<text class="action-label" x="-14.36" y="37.09"><tspan x="-14.36" dy="0">submitиЁҠжҒҜ</tspan><tspan x="-14.36" dy="0.82">иҲҮжҢҒд№…еҢ–</tspan></text>
<line class="assoc" x1="-18.00" y1="50.50" x2="-17.00" y2="50.50"/>
<rect class="action" x="-17.00" y="49.07" width="5.28" height="2.86" rx="0.45" ry="0.45"/>
<text class="action-label" x="-14.36" y="50.50"><tspan x="-14.36" dy="0">жҙҫзҷјеҲ°runloop</tspan></text>
<line class="assoc" x1="-18.00" y1="59.50" x2="-17.00" y2="59.50"/>
<rect class="action" x="-17.00" y="58.07" width="5.28" height="2.86" rx="0.45" ry="0.45"/>
<text class="action-label" x="-14.36" y="58.68"><tspan x="-14.36" dy="0">дёІжөҒ</tspan><tspan x="-14.36" dy="0.82">partsinvalidateеҝ«</tspan><tspan x="-14.36" dy="0.82">еҸ–pushsse</tspan></text>
<line class="assoc" x1="27.12" y1="37.50" x2="28.12" y2="37.50"/>
<rect class="action" x="28.12" y="36.07" width="5.28" height="2.86" rx="0.45" ry="0.45"/>
<text class="action-label" x="30.76" y="37.50"><tspan x="30.76" dy="0">applyrebindratelimit</tspan></text>
<line class="assoc" x1="27.12" y1="50.50" x2="28.12" y2="50.50"/>
<rect class="action" x="28.12" y="49.07" width="5.28" height="2.86" rx="0.45" ry="0.45"/>
<text class="action-label" x="30.76" y="50.09"><tspan x="30.76" dy="0">reinjectcapab</tspan><tspan x="30.76" dy="0.82">ilitysnapshot</tspan></text>
<line class="assoc" x1="-6.72" y1="37.50" x2="-5.72" y2="37.50"/>
<rect class="action" x="-5.72" y="36.07" width="5.28" height="2.86" rx="0.45" ry="0.45"/>
<text class="action-label" x="-3.08" y="37.09"><tspan x="-3.08" dy="0">loadoldersliceдҪҝ</tspan><tspan x="-3.08" dy="0.82">з”Ёbeforecursor</tspan></text>
<line class="assoc" x1="-6.72" y1="50.50" x2="-5.72" y2="50.50"/>
<rect class="action" x="-5.72" y="49.07" width="5.28" height="2.86" rx="0.45" ry="0.45"/>
<text class="action-label" x="-3.08" y="50.50"><tspan x="-3.08" dy="0">reduceиҲҮfoldparts</tspan></text>
<line class="assoc" x1="4.56" y1="68.50" x2="5.56" y2="68.50"/>
<rect class="action" x="5.56" y="67.07" width="5.28" height="2.86" rx="0.45" ry="0.45"/>
<text class="action-label" x="8.20" y="68.09"><tspan x="8.20" dy="0">stampе·Іж”¶еҲ°ж–ј</tspan><tspan x="8.20" dy="0.82">иҲҮclassifyfreshness</tspan></text>
<line class="assoc" x1="15.84" y1="37.50" x2="16.84" y2="37.50"/>
<rect class="action" x="16.84" y="36.07" width="5.28" height="2.86" rx="0.45" ry="0.45"/>
<text class="action-label" x="19.48" y="37.50"><tspan x="19.48" dy="0">freshnessclocktick</tspan></text>
<line class="assoc" x1="4.56" y1="50.50" x2="5.56" y2="50.50"/>
<rect class="action" x="5.56" y="49.07" width="5.28" height="2.86" rx="0.45" ry="0.45"/>
<text class="action-label" x="8.20" y="50.09"><tspan x="8.20" dy="0">forcetailref</tspan><tspan x="8.20" dy="0.82">etchеңЁstale</tspan></text>
<line class="assoc" x1="15.84" y1="50.50" x2="16.84" y2="50.50"/>
<rect class="action" x="16.84" y="49.07" width="5.28" height="2.86" rx="0.45" ry="0.45"/>
<text class="action-label" x="19.48" y="49.68"><tspan x="19.48" dy="0">scheduleres</tspan><tspan x="19.48" dy="0.82">umerebindеңЁ</tspan><tspan x="19.48" dy="0.82">hardstale</tspan></text>
<line class="gate" x1="1.56" y1="9.00" x2="3.56" y2="9.00"/>
<text class="gate-label" x="3.96" y="9.00"><tspan x="3.96" dy="0">clientopensSessionи·Ҝз”ұ</tspan></text>
<line class="gate" x1="1.56" y1="16.00" x2="3.56" y2="16.00"/>
<text class="gate-label" x="3.96" y="16.00"><tspan x="3.96" dy="0">epochbumpok &amp;&amp; reinjectе®ҢжҲҗ</tspan></text>
<line class="gate" x1="1.56" y1="23.00" x2="3.56" y2="23.00"/>
<text class="gate-label" x="3.96" y="23.00"><tspan x="3.96" dy="0">tailе·Іијүе…ҘжҲ–304</tspan></text>
<line class="gate" x1="-24.00" y1="32.00" x2="29.12" y2="32.00"/>
<line class="gate" x1="-21.00" y1="41.00" x2="-19.00" y2="41.00"/>
<text class="gate-label" x="-18.60" y="41.00"><tspan x="-18.60" dy="0">httppost2xx &amp;&amp; иЁҠжҒҜappended</tspan></text>
<line class="gate" x1="-21.00" y1="54.00" x2="-19.00" y2="54.00"/>
<text class="gate-label" x="-18.60" y="54.00"><tspan x="-18.60" dy="0">runloopstarted &amp;&amp; дёІжөҒopen</tspan></text>
<line class="gate" x1="-22.00" y1="65.00" x2="38.40" y2="65.00"/>
<line class="gate" x1="24.12" y1="45.00" x2="26.12" y2="45.00"/>
<text class="gate-label" x="26.52" y="45.00"><tspan x="26.52" dy="0">underratelimit</tspan></text>
<line class="gate" x1="-9.72" y1="41.00" x2="-7.72" y2="41.00"/>
<text class="gate-label" x="-7.32" y="40.32"><tspan x="-7.32" dy="0">olderslicereturnedжҲ–empty</tspan></text>
<line class="gate" x1="1.56" y1="72.00" x2="3.56" y2="72.00"/>
<text class="gate-label" x="3.96" y="72.00"><tspan x="3.96" dy="0">fidelityclassified</tspan></text>
<line class="gate" x1="-1.44" y1="41.00" x2="17.84" y2="41.00"/>
<line class="gate" x1="1.56" y1="54.00" x2="3.56" y2="54.00"/>
<text class="gate-label" x="3.96" y="54.00"><tspan x="3.96" dy="0">tailrefreshed</tspan></text>
<line class="gate" x1="12.84" y1="54.00" x2="14.84" y2="54.00"/>
<text class="gate-label" x="15.24" y="54.00"><tspan x="15.24" dy="0">resumepostreturned</tspan></text>
<line class="gate" x1="-21.00" y1="34.00" x2="-19.00" y2="34.00"/>
<text class="gate-label-left" x="-21.40" y="34.00"><tspan x="-21.40" dy="0">дҪҝз”ЁиҖ…submitsжҸҗзӨә</tspan></text>
<line class="gate" x1="24.12" y1="34.00" x2="26.12" y2="34.00"/>
<text class="gate-label-left" x="23.72" y="34.00"><tspan x="23.72" dy="0">rebindtriggerobserved</tspan></text>
<line class="gate" x1="-9.72" y1="34.00" x2="-7.72" y2="34.00"/>
<text class="gate-label-left" x="-10.12" y="34.00"><tspan x="-10.12" dy="0">scrollupSentinelhit</tspan></text>
<line class="gate" x1="12.84" y1="34.00" x2="14.84" y2="34.00"/>
<text class="gate-label-left" x="12.44" y="34.00"><tspan x="12.44" dy="0">й–’зҪ®freshnesstick</tspan></text>
<line class="gate" x1="-21.00" y1="63.00" x2="-19.00" y2="63.00"/>
<text class="gate-label-left" x="-21.40" y="63.00"><tspan x="-21.40" dy="0">иЁҠжҒҜе·Іе®ҢжҲҗжҲ–aborted</tspan></text>
<line class="gate" x1="34.12" y1="63.00" x2="36.12" y2="63.00"/>
<text class="gate-label-left" x="33.72" y="63.00"><tspan x="33.72" dy="0">ratelimitedstorm</tspan></text>
<line class="gate" x1="24.12" y1="63.00" x2="26.12" y2="63.00"/>
<text class="gate-label-left" x="23.72" y="63.00"><tspan x="23.72" dy="0">reinjectиҝ”еӣһжҲ–Sessionbusy</tspan></text>
<line class="gate" x1="-9.72" y1="63.00" x2="-7.72" y2="63.00"/>
<text class="gate-label-left" x="-10.12" y="63.00"><tspan x="-10.12" dy="0">timelinerendered</tspan></text>
<line class="gate" x1="1.56" y1="43.00" x2="3.56" y2="43.00"/>
<text class="gate-label-left" x="-1.64" y="43.00"><tspan x="-1.64" dy="0">stalethresholdcrossed</tspan></text>
<line class="gate" x1="12.84" y1="43.00" x2="14.84" y2="43.00"/>
<text class="gate-label-left" x="12.44" y="43.00"><tspan x="12.44" dy="0">hardstalethresholdcrossed</tspan></text>
<line class="gate" x1="-1.44" y1="43.00" x2="0.56" y2="43.00"/>
<text class="gate-label-left" x="-6.04" y="42.32"><tspan x="-6.04" dy="0">Sess</tspan><tspan x="-6.04" dy="0.68">ionи·Ҝ</tspan><tspan x="-6.04" dy="0.68">з”ұleft</tspan></text>
<circle class="junction" cx="2.56" cy="25.00" r="0.22"/>
<circle class="junction" cx="-28.00" cy="56.00" r="0.22"/>
<circle class="junction" cx="2.56" cy="56.00" r="0.22"/>
<circle class="branch-junction" cx="25.12" cy="41.00" r="0.28"/>
</svg>