<svg xmlns="http://www.w3.org/2000/svg" width="866" height="1578" viewBox="-2.00 -2.00 43.30 78.92" role="img">
<style>
.step{fill:#fff;stroke:#111;stroke-width:.14}.step-inner{fill:none;stroke:#111;stroke-width:.08}
.action{fill:#fff;stroke:#111;stroke-width:.14}.gate{stroke:#111;stroke-width:.16}
.edge{fill:none;stroke:#111;stroke-width:.05;stroke-linecap:round;stroke-linejoin:round}.edge-arrow{marker-end:url(#arrow)}
.flyover-mask{stroke:#fff;stroke-width:.12;stroke-linecap:round}
.flyover{fill:none;stroke:#111;stroke-width:.05;stroke-linecap:round}
.junction{fill:#111;stroke:#111;stroke-width:0}.branch-junction{fill:#fff;stroke:#111;stroke-width:.08}
.assoc{stroke:#111;stroke-width:.05}.label{font:bold .7px 'Times New Roman', 'BiauKai', 'DFKai-SB', serif;text-anchor:middle;dominant-baseline:middle}
.action-label{font:.55px 'Times New Roman', 'BiauKai', 'DFKai-SB', serif;text-anchor:middle;dominant-baseline:middle}.gate-label{font:italic .55px 'Times New Roman', 'BiauKai', 'DFKai-SB', serif;text-anchor:start;dominant-baseline:middle}.gate-label-left{font:italic .55px 'Times New Roman', 'BiauKai', 'DFKai-SB', serif;text-anchor:end;dominant-baseline:middle}
</style>
<defs><marker id="arrow" markerWidth="0.4" markerHeight="0.4" refX="0.36" refY="0.2" orient="auto" markerUnits="userSpaceOnUse"><path d="M 0 0 L 0.4 0.2 L 0 0.4 z" fill="#111"/></marker></defs>
<rect x="-2.00" y="-2.00" width="43.30" height="78.92" fill="white"/>
<path class="edge" d="M 20.10 7.00 L 20.10 9.00"/>
<path class="edge edge-arrow" d="M 20.10 9.00 L 20.10 11.00"/>
<path class="edge" d="M 20.10 14.00 L 20.10 16.00"/>
<path class="edge edge-arrow" d="M 20.10 16.00 L 20.10 18.00"/>
<path class="edge" d="M 20.10 21.00 L 20.10 23.00"/>
<path class="edge edge-arrow" d="M 20.10 23.00 L 20.10 25.00"/>
<path class="edge" d="M 20.10 28.00 L 20.10 30.00"/>
<path class="edge edge-arrow" d="M 20.10 30.00 L 20.10 32.00"/>
<path class="edge edge-arrow" d="M 20.10 35.00 L 20.10 37.00"/>
<path class="edge edge-arrow" d="M 10.00 37.00 L 10.00 43.46"/>
<path class="edge edge-arrow" d="M 20.10 37.00 L 20.10 43.46"/>
<path class="edge edge-arrow" d="M 30.20 37.00 L 30.20 43.46"/>
<path class="edge edge-arrow" d="M 10.00 46.46 L 10.00 52.46"/>
<path class="edge edge-arrow" d="M 20.10 52.46 L 20.10 54.46"/>
<path class="edge edge-arrow" d="M 20.10 46.46 L 20.10 52.46"/>
<path class="edge" d="M 30.20 46.46 L 30.20 48.46"/>
<path class="edge edge-arrow" d="M 30.20 48.46 L 30.20 54.46"/>
<path class="edge edge-arrow" d="M 20.10 57.46 L 20.10 61.46"/>
<path class="edge edge-arrow" d="M 20.10 61.46 L 20.10 65.92"/>
<path class="edge edge-arrow" d="M 30.20 57.46 L 30.20 61.46"/>
<path class="edge" d="M 20.10 68.92 L 20.10 70.92"/>
<path class="edge edge-arrow" d="M 20.10 70.92 L 20.10 72.42 Q 20.10 72.92 19.60 72.92 L 2.50 72.92 Q 2.00 72.92 2.00 72.42 L 2.00 2.50 Q 2.00 2.00 2.50 2.00 L 19.60 2.00 Q 20.10 2.00 20.10 2.50 L 20.10 4.00"/>
<rect class="step" x="18.10" y="4.00" width="4.00" height="3.00"/>
<rect class="step-inner" x="18.35" y="4.25" width="3.50" height="2.50"/>
<text class="label" x="20.10" y="5.50">0</text>
<rect class="step" x="18.10" y="11.00" width="4.00" height="3.00"/>
<text class="label" x="20.10" y="12.50">1</text>
<rect class="step" x="18.10" y="18.00" width="4.00" height="3.00"/>
<text class="label" x="20.10" y="19.50">2</text>
<rect class="step" x="18.10" y="25.00" width="4.00" height="3.00"/>
<text class="label" x="20.10" y="26.50">3</text>
<rect class="step" x="18.10" y="32.00" width="4.00" height="3.00"/>
<text class="label" x="20.10" y="33.50">4</text>
<rect class="step" x="8.00" y="43.46" width="4.00" height="3.00"/>
<text class="label" x="10.00" y="44.96">5</text>
<rect class="step" x="18.10" y="43.46" width="4.00" height="3.00"/>
<text class="label" x="20.10" y="44.96">6</text>
<rect class="step" x="28.20" y="43.46" width="4.00" height="3.00"/>
<text class="label" x="30.20" y="44.96">7</text>
<rect class="step" x="18.10" y="54.46" width="4.00" height="3.00"/>
<text class="label" x="20.10" y="55.96">8</text>
<rect class="step" x="28.20" y="54.46" width="4.00" height="3.00"/>
<text class="label" x="30.20" y="55.96">9</text>
<rect class="step" x="18.10" y="65.92" width="4.00" height="3.00"/>
<text class="label" x="20.10" y="67.42">10</text>
<line class="assoc" x1="22.10" y1="5.50" x2="23.10" y2="5.50"/>
<rect class="action" x="23.10" y="4.07" width="4.10" height="2.86" rx="0.45" ry="0.45"/>
<text class="action-label" x="25.15" y="5.50"><tspan x="25.15" dy="0">閒置無前端</tspan></text>
<line class="assoc" x1="22.10" y1="12.50" x2="23.10" y2="12.50"/>
<rect class="action" x="23.10" y="11.07" width="4.10" height="2.86" rx="0.45" ry="0.45"/>
<text class="action-label" x="25.15" y="12.09"><tspan x="25.15" dy="0">建置前端</tspan><tspan x="25.15" dy="0.82">Bundle</tspan></text>
<line class="assoc" x1="22.10" y1="19.50" x2="23.10" y2="19.50"/>
<rect class="action" x="23.10" y="18.07" width="4.10" height="2.86" rx="0.45" ry="0.45"/>
<text class="action-label" x="25.15" y="18.68"><tspan x="25.15" dy="0">發布</tspan><tspan x="25.15" dy="0.82">Gate</tspan><tspan x="25.15" dy="0.82">way路由</tspan></text>
<line class="assoc" x1="22.10" y1="26.50" x2="23.10" y2="26.50"/>
<rect class="action" x="23.10" y="25.07" width="4.10" height="2.86" rx="0.45" ry="0.45"/>
<text class="action-label" x="25.15" y="25.68"><tspan x="25.15" dy="0">serveaut</tspan><tspan x="25.15" dy="0.82">henticat</tspan><tspan x="25.15" dy="0.82">edSPA外殼</tspan></text>
<line class="assoc" x1="22.10" y1="33.50" x2="23.10" y2="33.50"/>
<rect class="action" x="23.10" y="32.07" width="4.10" height="2.86" rx="0.45" ry="0.45"/>
<text class="action-label" x="25.15" y="32.68"><tspan x="25.15" dy="0">mountPr</tspan><tspan x="25.15" dy="0.82">ovider與</tspan><tspan x="25.15" dy="0.82">渲染路由</tspan></text>
<line class="assoc" x1="12.00" y1="44.96" x2="13.00" y2="44.96"/>
<rect class="action" x="13.00" y="43.53" width="4.10" height="2.86" rx="0.45" ry="0.45"/>
<text class="action-label" x="15.05" y="44.14"><tspan x="15.05" dy="0">drive管</tspan><tspan x="15.05" dy="0.82">理面板</tspan><tspan x="15.05" dy="0.82">action</tspan></text>
<line class="assoc" x1="22.10" y1="44.96" x2="23.10" y2="44.96"/>
<rect class="action" x="23.10" y="43.53" width="4.10" height="2.86" rx="0.45" ry="0.45"/>
<text class="action-label" x="25.15" y="44.14"><tspan x="25.15" dy="0">渲染豐富</tspan><tspan x="25.15" dy="0.82">markdo</tspan><tspan x="25.15" dy="0.82">wnlink</tspan></text>
<line class="assoc" x1="32.20" y1="44.96" x2="33.20" y2="44.96"/>
<rect class="action" x="33.20" y="43.53" width="4.10" height="2.86" rx="0.45" ry="0.45"/>
<text class="action-label" x="35.25" y="44.14"><tspan x="35.25" dy="0">capture語</tspan><tspan x="35.25" dy="0.82">音透過</tspan><tspan x="35.25" dy="0.82">chosen路徑</tspan></text>
<line class="assoc" x1="22.10" y1="55.96" x2="23.10" y2="55.96"/>
<rect class="action" x="23.10" y="54.53" width="4.10" height="2.86" rx="0.45" ry="0.45"/>
<text class="action-label" x="25.15" y="55.14"><tspan x="25.15" dy="0">wait供</tspan><tspan x="25.15" dy="0.82">下一個使</tspan><tspan x="25.15" dy="0.82">用者事件</tspan></text>
<line class="assoc" x1="32.20" y1="55.96" x2="33.20" y2="55.96"/>
<rect class="action" x="33.20" y="54.53" width="4.10" height="2.86" rx="0.45" ry="0.45"/>
<text class="action-label" x="35.25" y="55.55"><tspan x="35.25" dy="0">delivertran</tspan><tspan x="35.25" dy="0.82">script到提示</tspan></text>
<line class="assoc" x1="22.10" y1="67.42" x2="23.10" y2="67.42"/>
<rect class="action" x="23.10" y="65.99" width="4.10" height="2.86" rx="0.45" ry="0.45"/>
<text class="action-label" x="25.15" y="67.01"><tspan x="25.15" dy="0">返回到閒</tspan><tspan x="25.15" dy="0.82">置loop</tspan></text>
<line class="gate" x1="19.10" y1="9.00" x2="21.10" y2="9.00"/>
<text class="gate-label" x="21.50" y="9.00"><tspan x="21.50" dy="0">operatorrunswebctl開發start</tspan></text>
<line class="gate" x1="19.10" y1="16.00" x2="21.10" y2="16.00"/>
<text class="gate-label" x="21.50" y="16.00"><tspan x="21.50" dy="0">distemitted或開發伺服器listening</tspan></text>
<line class="gate" x1="19.10" y1="23.00" x2="21.10" y2="23.00"/>
<text class="gate-label" x="21.50" y="23.00"><tspan x="21.50" dy="0">web路由confreloaded透過SIGHUP</tspan></text>
<line class="gate" x1="19.10" y1="30.00" x2="21.10" y2="30.00"/>
<text class="gate-label" x="21.50" y="30.00"><tspan x="21.50" dy="0">oc jwtvalidAND AuthGatepassed</tspan></text>
<line class="gate" x1="6.00" y1="37.00" x2="34.20" y2="37.00"/>
<line class="gate" x1="8.00" y1="52.46" x2="22.10" y2="52.46"/>
<line class="gate" x1="29.20" y1="48.46" x2="31.20" y2="48.46"/>
<text class="gate-label" x="31.60" y="47.78"><tspan x="31.60" dy="0">語音buffer就</tspan><tspan x="31.60" dy="0.68">緒或分塊</tspan><tspan x="31.60" dy="0.68">available</tspan></text>
<line class="gate" x1="18.10" y1="61.46" x2="32.20" y2="61.46"/>
<line class="gate" x1="19.10" y1="70.92" x2="21.10" y2="70.92"/>
<text class="gate-label" x="21.50" y="70.92"><tspan x="21.50" dy="0">1</tspan></text>
<line class="gate" x1="9.00" y1="39.00" x2="11.00" y2="39.00"/>
<text class="gate-label" x="11.40" y="39.00"><tspan x="11.40" dy="0">使用者opens管理</tspan></text>
<line class="gate" x1="19.10" y1="39.00" x2="21.10" y2="39.00"/>
<text class="gate-label" x="21.50" y="38.32"><tspan x="21.50" dy="0">使用者</tspan><tspan x="21.50" dy="0.68">clicks路</tspan><tspan x="21.50" dy="0.68">徑link</tspan></text>
<line class="gate" x1="29.20" y1="39.00" x2="31.20" y2="39.00"/>
<text class="gate-label" x="31.60" y="39.00"><tspan x="31.60" dy="0">使用者starts語音輸入</tspan></text>
<line class="gate" x1="9.00" y1="50.46" x2="11.00" y2="50.46"/>
<text class="gate-label-left" x="8.60" y="50.12"><tspan x="8.60" dy="0">對話框actioncom</tspan><tspan x="8.60" dy="0.68">mitted或closed</tspan></text>
<line class="gate" x1="19.10" y1="50.46" x2="21.10" y2="50.46"/>
<text class="gate-label-left" x="18.70" y="50.46"><tspan x="18.70" dy="0">檔案tabopened於line</tspan></text>
<line class="gate" x1="19.10" y1="59.46" x2="21.10" y2="59.46"/>
<text class="gate-label-left" x="18.70" y="59.46"><tspan x="18.70" dy="0">Session閒置或路由change</tspan></text>
<line class="gate" x1="29.20" y1="59.46" x2="31.20" y2="59.46"/>
<text class="gate-label-left" x="28.80" y="58.78"><tspan x="28.80" dy="0">apply語音transcri</tspan><tspan x="28.80" dy="0.68">ptsucceeded或</tspan><tspan x="28.80" dy="0.68">explicit錯誤surfaced</tspan></text>
</svg>