<svg xmlns="http://www.w3.org/2000/svg" width="1019" height="1464" viewBox="-2.00 -1.92 50.93 73.20" role="img">
<style>
.step{fill:#fff;stroke:#111;stroke-width:.14}.step-inner{fill:none;stroke:#111;stroke-width:.08}
.action{fill:#fff;stroke:#111;stroke-width:.14}.gate{stroke:#111;stroke-width:.16}
.edge{fill:none;stroke:#111;stroke-width:.05;stroke-linecap:round;stroke-linejoin:round}.edge-arrow{marker-end:url(#arrow)}
.flyover-mask{stroke:#fff;stroke-width:.12;stroke-linecap:round}
.flyover{fill:none;stroke:#111;stroke-width:.05;stroke-linecap:round}
.junction{fill:#111;stroke:#111;stroke-width:0}
.assoc{stroke:#111;stroke-width:.05}.label{font:bold .7px 'Times New Roman', 'BiauKai', 'DFKai-SB', serif;text-anchor:middle;dominant-baseline:middle}
.action-label{font:.55px 'Times New Roman', 'BiauKai', 'DFKai-SB', serif;text-anchor:middle;dominant-baseline:middle}.gate-label{font:italic .55px 'Times New Roman', 'BiauKai', 'DFKai-SB', serif;text-anchor:start;dominant-baseline:middle}.gate-label-left{font:italic .55px 'Times New Roman', 'BiauKai', 'DFKai-SB', serif;text-anchor:end;dominant-baseline:middle}
</style>
<defs><marker id="arrow" markerWidth="0.4" markerHeight="0.4" refX="0.36" refY="0.2" orient="auto" markerUnits="userSpaceOnUse"><path d="M 0 0 L 0.4 0.2 L 0 0.4 z" fill="#111"/></marker></defs>
<rect x="-2.00" y="-1.92" width="50.93" height="73.20" fill="white"/>
<path class="edge" d="M 20.00 7.08 L 20.00 9.16"/>
<path class="edge edge-arrow" d="M 20.00 9.16 L 20.00 11.24"/>
<path class="edge" d="M 20.00 14.24 L 20.00 16.32"/>
<path class="edge edge-arrow" d="M 20.00 16.32 L 20.00 18.40"/>
<path class="edge" d="M 20.00 21.40 L 20.00 23.48"/>
<path class="edge edge-arrow" d="M 20.00 23.48 L 20.00 25.56"/>
<path class="edge" d="M 20.00 28.56 L 20.00 30.64"/>
<path class="edge edge-arrow" d="M 20.00 30.64 L 20.00 32.72"/>
<path class="edge" d="M 20.00 35.72 L 20.00 37.80"/>
<path class="edge edge-arrow" d="M 10.00 37.80 L 10.00 39.30 Q 10.00 39.80 10.00 40.30 L 10.00 41.88"/>
<path class="edge edge-arrow" d="M 20.00 37.80 L 20.00 39.30 Q 20.00 39.80 20.00 40.30 L 20.00 41.88"/>
<path class="edge edge-arrow" d="M 30.00 37.80 L 30.00 39.30 Q 30.00 39.80 30.00 40.30 L 30.00 41.88"/>
<path class="edge" d="M 10.00 44.88 L 10.00 48.96"/>
<path class="edge edge-arrow" d="M 15.00 48.96 L 19.50 48.96 Q 20.00 48.96 20.00 49.46 L 20.00 51.04"/>
<path class="edge" d="M 20.00 44.88 L 20.00 48.96"/>
<path class="edge" d="M 30.00 44.88 L 30.00 48.96"/>
<path class="edge edge-arrow" d="M 30.00 48.96 L 30.00 51.04"/>
<path class="edge" d="M 20.00 54.04 L 20.00 58.12"/>
<path class="edge edge-arrow" d="M 25.00 58.12 L 20.50 58.12 Q 20.00 58.12 20.00 58.62 L 20.00 60.20"/>
<path class="edge" d="M 30.00 54.04 L 30.00 58.12"/>
<path class="edge" d="M 20.00 63.20 L 20.00 65.28"/>
<path class="edge edge-arrow" d="M 20.00 65.28 L 20.00 66.78 Q 20.00 67.28 19.50 67.28 L 2.50 67.28 Q 2.00 67.28 2.00 66.78 L 2.00 2.58 Q 2.00 2.08 2.50 2.08 L 19.50 2.08 Q 20.00 2.08 20.00 2.58 L 20.00 4.08"/>
<rect class="step" x="18.00" y="4.08" width="4.00" height="3.00"/>
<rect class="step-inner" x="18.25" y="4.33" width="3.50" height="2.50"/>
<text class="label" x="20.00" y="5.58">0</text>
<rect class="step" x="18.00" y="11.24" width="4.00" height="3.00"/>
<text class="label" x="20.00" y="12.74">1</text>
<rect class="step" x="18.00" y="18.40" width="4.00" height="3.00"/>
<text class="label" x="20.00" y="19.90">2</text>
<rect class="step" x="18.00" y="25.56" width="4.00" height="3.00"/>
<text class="label" x="20.00" y="27.06">3</text>
<rect class="step" x="18.00" y="32.72" width="4.00" height="3.00"/>
<text class="label" x="20.00" y="34.22">4</text>
<rect class="step" x="8.00" y="41.88" width="4.00" height="3.00"/>
<text class="label" x="10.00" y="43.38">5</text>
<rect class="step" x="18.00" y="41.88" width="4.00" height="3.00"/>
<text class="label" x="20.00" y="43.38">6</text>
<rect class="step" x="28.00" y="41.88" width="4.00" height="3.00"/>
<text class="label" x="30.00" y="43.38">7</text>
<rect class="step" x="18.00" y="51.04" width="4.00" height="3.00"/>
<text class="label" x="20.00" y="52.54">8</text>
<rect class="step" x="28.00" y="51.04" width="4.00" height="3.00"/>
<text class="label" x="30.00" y="52.54">9</text>
<rect class="step" x="18.00" y="60.20" width="4.00" height="3.00"/>
<text class="label" x="20.00" y="61.70">10</text>
<line class="assoc" x1="22.00" y1="5.58" x2="23.00" y2="5.58"/>
<rect class="action" x="23.00" y="4.00" width="11.93" height="3.16" rx="0.45" ry="0.45"/>
<text class="action-label" x="28.96" y="4.76"><tspan x="28.96" dy="0">閒</tspan><tspan x="28.96" dy="0.82">置無</tspan><tspan x="28.96" dy="0.82">前端</tspan></text>
<line class="assoc" x1="22.00" y1="12.74" x2="23.00" y2="12.74"/>
<rect class="action" x="23.00" y="11.16" width="11.93" height="3.16" rx="0.45" ry="0.45"/>
<text class="action-label" x="28.96" y="12.33"><tspan x="28.96" dy="0">建置前端</tspan><tspan x="28.96" dy="0.82">Bundle</tspan></text>
<line class="assoc" x1="22.00" y1="19.90" x2="23.00" y2="19.90"/>
<rect class="action" x="23.00" y="18.32" width="11.93" height="3.16" rx="0.45" ry="0.45"/>
<text class="action-label" x="28.96" y="19.90"><tspan x="28.96" dy="0">發布Gateway路由</tspan></text>
<line class="assoc" x1="22.00" y1="27.06" x2="23.00" y2="27.06"/>
<rect class="action" x="23.00" y="25.48" width="11.93" height="3.16" rx="0.45" ry="0.45"/>
<text class="action-label" x="28.96" y="27.06"><tspan x="28.96" dy="0">serveauthenticatedSPA外殼</tspan></text>
<line class="assoc" x1="22.00" y1="34.22" x2="23.00" y2="34.22"/>
<rect class="action" x="23.00" y="32.64" width="11.93" height="3.16" rx="0.45" ry="0.45"/>
<text class="action-label" x="28.96" y="33.81"><tspan x="28.96" dy="0">mountProvider與</tspan><tspan x="28.96" dy="0.82">渲染路由</tspan></text>
<line class="assoc" x1="12.00" y1="43.38" x2="13.00" y2="43.38"/>
<rect class="action" x="13.00" y="41.80" width="11.93" height="3.16" rx="0.45" ry="0.45"/>
<text class="action-label" x="18.96" y="42.56"><tspan x="18.96" dy="0">drive管</tspan><tspan x="18.96" dy="0.82">理面板</tspan><tspan x="18.96" dy="0.82">action</tspan></text>
<line class="assoc" x1="22.00" y1="43.38" x2="23.00" y2="43.38"/>
<rect class="action" x="23.00" y="41.80" width="11.93" height="3.16" rx="0.45" ry="0.45"/>
<text class="action-label" x="28.96" y="42.97"><tspan x="28.96" dy="0">渲染豐富</tspan><tspan x="28.96" dy="0.82">markdownlink</tspan></text>
<line class="assoc" x1="32.00" y1="43.38" x2="33.00" y2="43.38"/>
<rect class="action" x="33.00" y="41.80" width="11.93" height="3.16" rx="0.45" ry="0.45"/>
<text class="action-label" x="38.97" y="42.56"><tspan x="38.97" dy="0">capture語</tspan><tspan x="38.97" dy="0.82">音透過</tspan><tspan x="38.97" dy="0.82">chosen路徑</tspan></text>
<line class="assoc" x1="22.00" y1="52.54" x2="23.00" y2="52.54"/>
<rect class="action" x="23.00" y="50.96" width="11.93" height="3.16" rx="0.45" ry="0.45"/>
<text class="action-label" x="28.96" y="51.72"><tspan x="28.96" dy="0">wait供</tspan><tspan x="28.96" dy="0.82">下一個使</tspan><tspan x="28.96" dy="0.82">用者事件</tspan></text>
<line class="assoc" x1="32.00" y1="52.54" x2="33.00" y2="52.54"/>
<rect class="action" x="33.00" y="50.96" width="11.93" height="3.16" rx="0.45" ry="0.45"/>
<text class="action-label" x="38.97" y="52.54"><tspan x="38.97" dy="0">delivertranscript到提示</tspan></text>
<line class="assoc" x1="22.00" y1="61.70" x2="23.00" y2="61.70"/>
<rect class="action" x="23.00" y="60.12" width="11.93" height="3.16" rx="0.45" ry="0.45"/>
<text class="action-label" x="28.96" y="60.88"><tspan x="28.96" dy="0">返回到</tspan><tspan x="28.96" dy="0.82">閒置</tspan><tspan x="28.96" dy="0.82">loop</tspan></text>
<line class="gate" x1="19.00" y1="9.16" x2="21.00" y2="9.16"/>
<text class="gate-label" x="21.40" y="9.16">operatorrunswebctl開發start</text>
<line class="gate" x1="19.00" y1="16.32" x2="21.00" y2="16.32"/>
<text class="gate-label" x="21.40" y="16.32">distemitted或開發伺服器listening</text>
<line class="gate" x1="19.00" y1="23.48" x2="21.00" y2="23.48"/>
<text class="gate-label" x="21.40" y="23.48">web路由confreloaded透過SIGHUP</text>
<line class="gate" x1="19.00" y1="30.64" x2="21.00" y2="30.64"/>
<text class="gate-label" x="21.40" y="30.64">oc jwtvalidAND AuthGatepassed</text>
<line class="gate" x1="6.00" y1="37.80" x2="34.00" y2="37.80"/>
<line class="gate" x1="8.00" y1="48.96" x2="22.00" y2="48.96"/>
<line class="gate" x1="29.00" y1="48.96" x2="31.00" y2="48.96"/>
<text class="gate-label" x="31.40" y="48.96">語音buffer就緒或分塊available</text>
<line class="gate" x1="18.00" y1="58.12" x2="32.00" y2="58.12"/>
<line class="gate" x1="19.00" y1="65.28" x2="21.00" y2="65.28"/>
<text class="gate-label" x="21.40" y="65.28">1</text>
<line class="gate" x1="9.00" y1="39.80" x2="11.00" y2="39.80"/>
<text class="gate-label-left" x="8.60" y="39.80">使用者opens管理</text>
<line class="gate" x1="19.00" y1="39.80" x2="21.00" y2="39.80"/>
<text class="gate-label" x="21.40" y="39.80">使用者clicks路徑link</text>
<line class="gate" x1="29.00" y1="39.80" x2="31.00" y2="39.80"/>
<text class="gate-label" x="31.40" y="39.80">使用者starts語音輸入</text>
<line class="gate" x1="9.00" y1="46.96" x2="11.00" y2="46.96"/>
<text class="gate-label-left" x="8.60" y="46.96">對話框actioncommitted或closed</text>
<line class="gate" x1="19.00" y1="46.96" x2="21.00" y2="46.96"/>
<text class="gate-label" x="21.40" y="46.96">檔案tabopened於line</text>
<line class="gate" x1="19.00" y1="56.12" x2="21.00" y2="56.12"/>
<text class="gate-label-left" x="18.60" y="56.12">Session閒置或路由change</text>
<line class="gate" x1="29.00" y1="56.12" x2="31.00" y2="56.12"/>
<text class="gate-label" x="31.40" y="56.12">apply語音transcriptsucceeded或explicit錯誤surfaced</text>
</svg>