<svg xmlns="http://www.w3.org/2000/svg" width="819" height="1600" viewBox="-2.00 -2.00 40.96 80.00" role="img">
<style>
.step{fill:#fff;stroke:#111;stroke-width:.14}.step-inner{fill:none;stroke:#111;stroke-width:.08}
.action{fill:#fff;stroke:#111;stroke-width:.14}.gate{stroke:#111;stroke-width:.16}
.edge{fill:none;stroke:#111;stroke-width:.05;stroke-linecap:round;stroke-linejoin:round}.edge-arrow{marker-end:url(#arrow)}
.flyover-mask{stroke:#fff;stroke-width:.12;stroke-linecap:round}
.flyover{fill:none;stroke:#111;stroke-width:.05;stroke-linecap:round}
.junction{fill:#111;stroke:#111;stroke-width:0}.branch-junction{fill:#fff;stroke:#111;stroke-width:.08}
.assoc{stroke:#111;stroke-width:.05}.label{font:bold .7px 'Times New Roman', 'BiauKai', 'DFKai-SB', serif;text-anchor:middle;dominant-baseline:middle}
.action-label{font:.55px 'Times New Roman', 'BiauKai', 'DFKai-SB', serif;text-anchor:middle;dominant-baseline:middle}.gate-label{font:italic .55px 'Times New Roman', 'BiauKai', 'DFKai-SB', serif;text-anchor:start;dominant-baseline:middle}.gate-label-left{font:italic .55px 'Times New Roman', 'BiauKai', 'DFKai-SB', serif;text-anchor:end;dominant-baseline:middle}
</style>
<defs><marker id="arrow" markerWidth="0.4" markerHeight="0.4" refX="0.36" refY="0.2" orient="auto" markerUnits="userSpaceOnUse"><path d="M 0 0 L 0.4 0.2 L 0 0.4 z" fill="#111"/></marker></defs>
<rect x="-2.00" y="-2.00" width="40.96" height="80.00" fill="white"/>
<path class="edge" d="M 19.32 7.00 L 19.32 9.00"/>
<path class="edge edge-arrow" d="M 19.32 9.00 L 19.32 11.00"/>
<path class="edge" d="M 19.32 14.00 L 19.32 16.00"/>
<path class="edge edge-arrow" d="M 19.32 16.00 L 19.32 18.00"/>
<path class="edge" d="M 19.32 21.00 L 19.32 23.00"/>
<path class="edge edge-arrow" d="M 19.32 23.00 L 19.32 25.00"/>
<path class="edge" d="M 19.32 28.00 L 19.32 30.00"/>
<path class="edge edge-arrow" d="M 19.32 30.00 L 19.32 32.00"/>
<path class="edge edge-arrow" d="M 19.32 35.00 L 19.32 37.00"/>
<path class="edge edge-arrow" d="M 10.00 37.00 L 10.00 41.00"/>
<path class="edge edge-arrow" d="M 19.32 37.00 L 19.32 41.00"/>
<path class="edge edge-arrow" d="M 28.64 37.00 L 28.64 41.00"/>
<path class="edge edge-arrow" d="M 10.00 44.00 L 10.00 56.00"/>
<path class="edge edge-arrow" d="M 19.32 56.00 L 19.32 58.00"/>
<path class="edge edge-arrow" d="M 19.32 44.00 L 19.32 56.00"/>
<path class="edge" d="M 28.64 44.00 L 28.64 48.00"/>
<path class="edge edge-arrow" d="M 28.64 48.00 L 28.64 58.00"/>
<path class="edge edge-arrow" d="M 19.32 61.00 L 19.32 65.00"/>
<path class="edge edge-arrow" d="M 19.32 65.00 L 19.32 67.00"/>
<path class="edge edge-arrow" d="M 28.64 61.00 L 28.64 65.00"/>
<path class="edge" d="M 19.32 70.00 L 19.32 72.00"/>
<path class="edge edge-arrow" d="M 19.32 72.00 L 19.32 73.50 Q 19.32 74.00 18.82 74.00 L 2.50 74.00 Q 2.00 74.00 2.00 73.50 L 2.00 2.50 Q 2.00 2.00 2.50 2.00 L 18.82 2.00 Q 19.32 2.00 19.32 2.50 L 19.32 4.00"/>
<rect class="step" x="17.32" y="4.00" width="4.00" height="3.00"/>
<rect class="step-inner" x="17.57" y="4.25" width="3.50" height="2.50"/>
<text class="label" x="19.32" y="5.50">0</text>
<rect class="step" x="17.32" y="11.00" width="4.00" height="3.00"/>
<text class="label" x="19.32" y="12.50">1</text>
<rect class="step" x="17.32" y="18.00" width="4.00" height="3.00"/>
<text class="label" x="19.32" y="19.50">2</text>
<rect class="step" x="17.32" y="25.00" width="4.00" height="3.00"/>
<text class="label" x="19.32" y="26.50">3</text>
<rect class="step" x="17.32" y="32.00" width="4.00" height="3.00"/>
<text class="label" x="19.32" y="33.50">4</text>
<rect class="step" x="8.00" y="41.00" width="4.00" height="3.00"/>
<text class="label" x="10.00" y="42.50">5</text>
<rect class="step" x="17.32" y="41.00" width="4.00" height="3.00"/>
<text class="label" x="19.32" y="42.50">6</text>
<rect class="step" x="26.64" y="41.00" width="4.00" height="3.00"/>
<text class="label" x="28.64" y="42.50">7</text>
<rect class="step" x="17.32" y="58.00" width="4.00" height="3.00"/>
<text class="label" x="19.32" y="59.50">8</text>
<rect class="step" x="26.64" y="58.00" width="4.00" height="3.00"/>
<text class="label" x="28.64" y="59.50">9</text>
<rect class="step" x="17.32" y="67.00" width="4.00" height="3.00"/>
<text class="label" x="19.32" y="68.50">10</text>
<line class="assoc" x1="21.32" y1="5.50" x2="22.32" y2="5.50"/>
<rect class="action" x="22.32" y="4.07" width="3.32" height="2.86" rx="0.45" ry="0.45"/>
<text class="action-label" x="23.98" y="5.09"><tspan x="23.98" dy="0">閒置</tspan><tspan x="23.98" dy="0.82">無前端</tspan></text>
<line class="assoc" x1="21.32" y1="12.50" x2="22.32" y2="12.50"/>
<rect class="action" x="22.32" y="11.07" width="3.32" height="2.86" rx="0.45" ry="0.45"/>
<text class="action-label" x="23.98" y="12.09"><tspan x="23.98" dy="0">建置前</tspan><tspan x="23.98" dy="0.82">端Bundle</tspan></text>
<line class="assoc" x1="21.32" y1="19.50" x2="22.32" y2="19.50"/>
<rect class="action" x="22.32" y="18.07" width="3.32" height="2.86" rx="0.45" ry="0.45"/>
<text class="action-label" x="23.98" y="19.09"><tspan x="23.98" dy="0">發布</tspan><tspan x="23.98" dy="0.82">Gateway路由</tspan></text>
<line class="assoc" x1="21.32" y1="26.50" x2="22.32" y2="26.50"/>
<rect class="action" x="22.32" y="25.07" width="3.32" height="2.86" rx="0.45" ry="0.45"/>
<text class="action-label" x="23.98" y="25.68"><tspan x="23.98" dy="0">serveauth</tspan><tspan x="23.98" dy="0.82">enticated</tspan><tspan x="23.98" dy="0.82">SPA外殼</tspan></text>
<line class="assoc" x1="21.32" y1="33.50" x2="22.32" y2="33.50"/>
<rect class="action" x="22.32" y="32.07" width="3.32" height="2.86" rx="0.45" ry="0.45"/>
<text class="action-label" x="23.98" y="33.09"><tspan x="23.98" dy="0">mountProvider與</tspan><tspan x="23.98" dy="0.82">渲染路由</tspan></text>
<line class="assoc" x1="12.00" y1="42.50" x2="13.00" y2="42.50"/>
<rect class="action" x="13.00" y="41.07" width="3.32" height="2.86" rx="0.45" ry="0.45"/>
<text class="action-label" x="14.66" y="42.09"><tspan x="14.66" dy="0">drive管理</tspan><tspan x="14.66" dy="0.82">面板action</tspan></text>
<line class="assoc" x1="21.32" y1="42.50" x2="22.32" y2="42.50"/>
<rect class="action" x="22.32" y="41.07" width="3.32" height="2.86" rx="0.45" ry="0.45"/>
<text class="action-label" x="23.98" y="42.09"><tspan x="23.98" dy="0">渲染豐富</tspan><tspan x="23.98" dy="0.82">markdownlink</tspan></text>
<line class="assoc" x1="30.64" y1="42.50" x2="31.64" y2="42.50"/>
<rect class="action" x="31.64" y="41.07" width="3.32" height="2.86" rx="0.45" ry="0.45"/>
<text class="action-label" x="33.30" y="41.68"><tspan x="33.30" dy="0">capture語</tspan><tspan x="33.30" dy="0.82">音透過</tspan><tspan x="33.30" dy="0.82">chosen路徑</tspan></text>
<line class="assoc" x1="21.32" y1="59.50" x2="22.32" y2="59.50"/>
<rect class="action" x="22.32" y="58.07" width="3.32" height="2.86" rx="0.45" ry="0.45"/>
<text class="action-label" x="23.98" y="58.68"><tspan x="23.98" dy="0">wait供下</tspan><tspan x="23.98" dy="0.82">一個使</tspan><tspan x="23.98" dy="0.82">用者事件</tspan></text>
<line class="assoc" x1="30.64" y1="59.50" x2="31.64" y2="59.50"/>
<rect class="action" x="31.64" y="58.07" width="3.32" height="2.86" rx="0.45" ry="0.45"/>
<text class="action-label" x="33.30" y="58.68"><tspan x="33.30" dy="0">delivertr</tspan><tspan x="33.30" dy="0.82">anscript到</tspan><tspan x="33.30" dy="0.82">提示</tspan></text>
<line class="assoc" x1="21.32" y1="68.50" x2="22.32" y2="68.50"/>
<rect class="action" x="22.32" y="67.07" width="3.32" height="2.86" rx="0.45" ry="0.45"/>
<text class="action-label" x="23.98" y="68.09"><tspan x="23.98" dy="0">返回到</tspan><tspan x="23.98" dy="0.82">閒置loop</tspan></text>
<line class="gate" x1="18.32" y1="9.00" x2="20.32" y2="9.00"/>
<text class="gate-label" x="20.72" y="9.00"><tspan x="20.72" dy="0">operatorrunswebctl開發start</tspan></text>
<line class="gate" x1="18.32" y1="16.00" x2="20.32" y2="16.00"/>
<text class="gate-label" x="20.72" y="16.00"><tspan x="20.72" dy="0">distemitted或開發伺服器listening</tspan></text>
<line class="gate" x1="18.32" y1="23.00" x2="20.32" y2="23.00"/>
<text class="gate-label" x="20.72" y="23.00"><tspan x="20.72" dy="0">web路由confreloaded透過SIGHUP</tspan></text>
<line class="gate" x1="18.32" y1="30.00" x2="20.32" y2="30.00"/>
<text class="gate-label" x="20.72" y="30.00"><tspan x="20.72" dy="0">oc jwtvalidAND AuthGatepassed</tspan></text>
<line class="gate" x1="6.00" y1="37.00" x2="32.64" y2="37.00"/>
<line class="gate" x1="8.00" y1="56.00" x2="21.32" y2="56.00"/>
<line class="gate" x1="27.64" y1="48.00" x2="29.64" y2="48.00"/>
<text class="gate-label" x="30.04" y="47.66"><tspan x="30.04" dy="0">語音buffer就緒</tspan><tspan x="30.04" dy="0.68">或分塊available</tspan></text>
<line class="gate" x1="17.32" y1="65.00" x2="30.64" y2="65.00"/>
<line class="gate" x1="18.32" y1="72.00" x2="20.32" y2="72.00"/>
<text class="gate-label" x="20.72" y="72.00"><tspan x="20.72" dy="0">1</tspan></text>
<line class="gate" x1="9.00" y1="39.00" x2="11.00" y2="39.00"/>
<text class="gate-label" x="11.40" y="39.00"><tspan x="11.40" dy="0">使用者opens管理</tspan></text>
<line class="gate" x1="18.32" y1="39.00" x2="20.32" y2="39.00"/>
<text class="gate-label" x="20.72" y="39.00"><tspan x="20.72" dy="0">使用者clicks路徑link</tspan></text>
<line class="gate" x1="27.64" y1="39.00" x2="29.64" y2="39.00"/>
<text class="gate-label" x="30.04" y="39.00"><tspan x="30.04" dy="0">使用者starts語音輸入</tspan></text>
<line class="gate" x1="9.00" y1="54.00" x2="11.00" y2="54.00"/>
<text class="gate-label-left" x="8.60" y="53.32"><tspan x="8.60" dy="0">對話框</tspan><tspan x="8.60" dy="0.68">actioncomm</tspan><tspan x="8.60" dy="0.68">itted或closed</tspan></text>
<line class="gate" x1="18.32" y1="54.00" x2="20.32" y2="54.00"/>
<text class="gate-label-left" x="17.92" y="54.00"><tspan x="17.92" dy="0">檔案tabopened於line</tspan></text>
<line class="gate" x1="18.32" y1="63.00" x2="20.32" y2="63.00"/>
<text class="gate-label-left" x="17.92" y="63.00"><tspan x="17.92" dy="0">Session閒置或路由change</tspan></text>
<line class="gate" x1="27.64" y1="63.00" x2="29.64" y2="63.00"/>
<text class="gate-label-left" x="27.24" y="62.32"><tspan x="27.24" dy="0">apply語音</tspan><tspan x="27.24" dy="0.68">transcriptsucceeded或</tspan><tspan x="27.24" dy="0.68">explicit錯誤surfaced</tspan></text>
</svg>