<svg width="1420" height="930" viewBox="-380.0 -50.0 1420.0 930.0" xmlns="http://www.w3.org/2000/svg">
<defs><marker id="arrow" viewBox="0 0 10 10" refX="10" refY="5" markerWidth="6" markerHeight="6" orient="auto-start-reverse"><path d="M 0 0 L 10 5 L 0 10 z" fill="black" /></marker></defs>
<rect x="-380.0" y="-50.0" width="1420.0" height="930.0" fill="white" />
<rect x="380.0" y="80.0" width="40.0" height="40.0" stroke="black" stroke-width="1.5" fill="white" />
<rect x="385.0" y="85.0" width="30.0" height="30.0" stroke="black" stroke-width="1" fill="none" />
<text x="400" y="105.0" text-anchor="middle" font-family="'Times New Roman', 'BiauKai', 'DFKai-SB', '標楷體', 'KaiTi', serif" font-weight="bold" font-size="14">0</text>
<line x1="420.0" y1="100.0" x2="460.0" y2="100.0" stroke="black" />
<rect x="460.0" y="54.0" width="160.0" height="92.0" stroke="black" stroke-width="1.2" fill="white" />
<text x="540.0" y="80.0" text-anchor="middle" font-family="'Times New Roman', 'BiauKai', 'DFKai-SB', '標楷體', 'KaiTi', serif" font-size="11">等待 事</text>
<text x="540.0" y="104.0" text-anchor="middle" font-family="'Times New Roman', 'BiauKai', 'DFKai-SB', '標楷體', 'KaiTi', serif" font-size="11">件 發布</text>
<text x="540.0" y="127.99999999999999" text-anchor="middle" font-family="'Times New Roman', 'BiauKai', 'DFKai-SB', '標楷體', 'KaiTi', serif" font-size="11">呼叫</text>
<line x1="400" y1="120.0" x2="400" y2="200.0" stroke="black" />
<line x1="380" y1="160.0" x2="420" y2="160.0" stroke="black" stroke-width="2" />
<text x="424.0" y="164.0" font-style="italic" font-size="11" text-anchor="start" font-family="'Times New Roman', 'BiauKai', 'DFKai-SB', '標楷體', 'KaiTi', serif">Bus.發布invoked</text>
<rect x="380.0" y="200.0" width="40.0" height="40.0" stroke="black" stroke-width="1.5" fill="white" />
<text x="400" y="225.0" text-anchor="middle" font-family="'Times New Roman', 'BiauKai', 'DFKai-SB', '標楷體', 'KaiTi', serif" font-weight="bold" font-size="14">1</text>
<line x1="420.0" y1="220.0" x2="460.0" y2="220.0" stroke="black" />
<rect x="460.0" y="174.0" width="160.0" height="92.0" stroke="black" stroke-width="1.2" fill="white" />
<text x="540.0" y="200.0" text-anchor="middle" font-family="'Times New Roman', 'BiauKai', 'DFKai-SB', '標楷體', 'KaiTi', serif" font-size="11">Validate 事</text>
<text x="540.0" y="224.0" text-anchor="middle" font-family="'Times New Roman', 'BiauKai', 'DFKai-SB', '標楷體', 'KaiTi', serif" font-size="11">件 Against</text>
<text x="540.0" y="248.00000000000003" text-anchor="middle" font-family="'Times New Roman', 'BiauKai', 'DFKai-SB', '標楷體', 'KaiTi', serif" font-size="11">Zod schema</text>
<line x1="400" y1="240.0" x2="400" y2="280.0" stroke="black" />
<line x1="20.0" y1="280.0" x2="780.0" y2="280.0" stroke="black" stroke-width="1.5" />
<line x1="60.0" y1="280.0" x2="60.0" y2="320.0" stroke="black" />
<line x1="40.0" y1="320.0" x2="80.0" y2="320.0" stroke="black" stroke-width="2" />
<text x="36.0" y="324.0" font-style="italic" font-size="11" text-anchor="end" font-family="'Times New Roman', 'BiauKai', 'DFKai-SB', '標楷體', 'KaiTi', serif">schemavalid</text>
<line x1="60.0" y1="320.0" x2="60.0" y2="360.0" stroke="black" marker-end="url(#arrow)" />
<line x1="740.0" y1="280.0" x2="740.0" y2="320.0" stroke="black" />
<line x1="720.0" y1="320.0" x2="760.0" y2="320.0" stroke="black" stroke-width="2" />
<text x="764.0" y="324.0" font-style="italic" font-size="11" text-anchor="start" font-family="'Times New Roman', 'BiauKai', 'DFKai-SB', '標楷體', 'KaiTi', serif">schemainvalid</text>
<line x1="740.0" y1="320.0" x2="740.0" y2="360.0" stroke="black" marker-end="url(#arrow)" />
<rect x="40.0" y="360.0" width="40.0" height="40.0" stroke="black" stroke-width="1.5" fill="white" />
<text x="60.0" y="385.0" text-anchor="middle" font-family="'Times New Roman', 'BiauKai', 'DFKai-SB', '標楷體', 'KaiTi', serif" font-weight="bold" font-size="14">2</text>
<line x1="80.0" y1="380.0" x2="120.0" y2="380.0" stroke="black" />
<rect x="120.0" y="334.0" width="160.0" height="92.0" stroke="black" stroke-width="1.2" fill="white" />
<text x="200.0" y="360.0" text-anchor="middle" font-family="'Times New Roman', 'BiauKai', 'DFKai-SB', '標楷體', 'KaiTi', serif" font-size="11">Fork</text>
<text x="200.0" y="384.0" text-anchor="middle" font-family="'Times New Roman', 'BiauKai', 'DFKai-SB', '標楷體', 'KaiTi', serif" font-size="11">Subscriber</text>
<text x="200.0" y="408.0" text-anchor="middle" font-family="'Times New Roman', 'BiauKai', 'DFKai-SB', '標楷體', 'KaiTi', serif" font-size="11">派發</text>
<line x1="60.0" y1="400.0" x2="60.0" y2="440.0" stroke="black" />
<line x1="40.0" y1="440.0" x2="80.0" y2="440.0" stroke="black" stroke-width="2" />
<text x="84.0" y="444.0" font-style="italic" font-size="11" text-anchor="start" font-family="'Times New Roman', 'BiauKai', 'DFKai-SB', '標楷體', 'KaiTi', serif">派發</text>
<line x1="60.0" y1="440.0" x2="60.0" y2="476.0" stroke="black" marker-end="url(#arrow)" />
<line x1="-160.0" y1="477.0" x2="280.0" y2="477.0" stroke="black" stroke-width="1.5" />
<line x1="-160.0" y1="483.0" x2="280.0" y2="483.0" stroke="black" stroke-width="1.5" />
<line x1="-120.0" y1="484.0" x2="-120.0" y2="520.0" stroke="black" marker-end="url(#arrow)" />
<line x1="240.0" y1="484.0" x2="240.0" y2="520.0" stroke="black" marker-end="url(#arrow)" />
<rect x="-140.0" y="520.0" width="40.0" height="40.0" stroke="black" stroke-width="1.5" fill="white" />
<text x="-120.0" y="545.0" text-anchor="middle" font-family="'Times New Roman', 'BiauKai', 'DFKai-SB', '標楷體', 'KaiTi', serif" font-weight="bold" font-size="14">3</text>
<line x1="-100.0" y1="540.0" x2="-60.0" y2="540.0" stroke="black" />
<rect x="-60.0" y="494.0" width="160.0" height="92.0" stroke="black" stroke-width="1.2" fill="white" />
<text x="20.0" y="520.0" text-anchor="middle" font-family="'Times New Roman', 'BiauKai', 'DFKai-SB', '標楷體', 'KaiTi', serif" font-size="11">Execute 後端</text>
<text x="20.0" y="544.0" text-anchor="middle" font-family="'Times New Roman', 'BiauKai', 'DFKai-SB', '標楷體', 'KaiTi', serif" font-size="11">Subscriber</text>
<text x="20.0" y="568.0" text-anchor="middle" font-family="'Times New Roman', 'BiauKai', 'DFKai-SB', '標楷體', 'KaiTi', serif" font-size="11">Callbacks</text>
<rect x="220.0" y="520.0" width="40.0" height="40.0" stroke="black" stroke-width="1.5" fill="white" />
<text x="240.0" y="545.0" text-anchor="middle" font-family="'Times New Roman', 'BiauKai', 'DFKai-SB', '標楷體', 'KaiTi', serif" font-weight="bold" font-size="14">4</text>
<line x1="260.0" y1="540.0" x2="300.0" y2="540.0" stroke="black" />
<rect x="300.0" y="494.0" width="160.0" height="92.0" stroke="black" stroke-width="1.2" fill="white" />
<text x="380.0" y="520.0" text-anchor="middle" font-family="'Times New Roman', 'BiauKai', 'DFKai-SB', '標楷體', 'KaiTi', serif" font-size="11">發出 SSE</text>
<text x="380.0" y="544.0" text-anchor="middle" font-family="'Times New Roman', 'BiauKai', 'DFKai-SB', '標楷體', 'KaiTi', serif" font-size="11">Transport</text>
<text x="380.0" y="568.0" text-anchor="middle" font-family="'Times New Roman', 'BiauKai', 'DFKai-SB', '標楷體', 'KaiTi', serif" font-size="11">事件</text>
<line x1="-160.0" y1="597.0" x2="280.0" y2="597.0" stroke="black" stroke-width="1.5" />
<line x1="-160.0" y1="603.0" x2="280.0" y2="603.0" stroke="black" stroke-width="1.5" />
<line x1="-120.0" y1="560.0" x2="-120.0" y2="596.0" stroke="black" />
<line x1="240.0" y1="560.0" x2="240.0" y2="596.0" stroke="black" />
<line x1="60.0" y1="604.0" x2="60.0" y2="640.0" stroke="black" />
<line x1="40.0" y1="640.0" x2="80.0" y2="640.0" stroke="black" stroke-width="2" />
<text x="84.0" y="644.0" font-style="italic" font-size="11" text-anchor="start" font-family="'Times New Roman', 'BiauKai', 'DFKai-SB', '標楷體', 'KaiTi', serif">callbacks完成</text>
<line x1="60.0" y1="640.0" x2="60.0" y2="680.0" stroke="black" marker-end="url(#arrow)" />
<rect x="40.0" y="680.0" width="40.0" height="40.0" stroke="black" stroke-width="1.5" fill="white" />
<text x="60.0" y="705.0" text-anchor="middle" font-family="'Times New Roman', 'BiauKai', 'DFKai-SB', '標楷體', 'KaiTi', serif" font-weight="bold" font-size="14">6</text>
<line x1="80.0" y1="700.0" x2="120.0" y2="700.0" stroke="black" />
<rect x="120.0" y="654.0" width="160.0" height="92.0" stroke="black" stroke-width="1.2" fill="white" />
<text x="200.0" y="680.0" text-anchor="middle" font-family="'Times New Roman', 'BiauKai', 'DFKai-SB', '標楷體', 'KaiTi', serif" font-size="11">路由 前端</text>
<text x="200.0" y="704.0" text-anchor="middle" font-family="'Times New Roman', 'BiauKai', 'DFKai-SB', '標楷體', 'KaiTi', serif" font-size="11">事件 到</text>
<text x="200.0" y="727.9999999999999" text-anchor="middle" font-family="'Times New Roman', 'BiauKai', 'DFKai-SB', '標楷體', 'KaiTi', serif" font-size="11">Components</text>
<line x1="60.0" y1="720.0" x2="60.0" y2="800.0" stroke="black" />
<line x1="40.0" y1="760.0" x2="80.0" y2="760.0" stroke="black" stroke-width="2" />
<text x="84.0" y="764.0" font-style="italic" font-size="11" text-anchor="start" font-family="'Times New Roman', 'BiauKai', 'DFKai-SB', '標楷體', 'KaiTi', serif">delivery完成</text>
<rect x="720.0" y="360.0" width="40.0" height="40.0" stroke="black" stroke-width="1.5" fill="white" />
<text x="740.0" y="385.0" text-anchor="middle" font-family="'Times New Roman', 'BiauKai', 'DFKai-SB', '標楷體', 'KaiTi', serif" font-weight="bold" font-size="14">5</text>
<line x1="760.0" y1="380.0" x2="800.0" y2="380.0" stroke="black" />
<rect x="800.0" y="334.0" width="160.0" height="92.0" stroke="black" stroke-width="1.2" fill="white" />
<text x="880.0" y="360.0" text-anchor="middle" font-family="'Times New Roman', 'BiauKai', 'DFKai-SB', '標楷體', 'KaiTi', serif" font-size="11">Report</text>
<text x="880.0" y="384.0" text-anchor="middle" font-family="'Times New Roman', 'BiauKai', 'DFKai-SB', '標楷體', 'KaiTi', serif" font-size="11">Validation</text>
<text x="880.0" y="408.0" text-anchor="middle" font-family="'Times New Roman', 'BiauKai', 'DFKai-SB', '標楷體', 'KaiTi', serif" font-size="11">Failure</text>
<line x1="740.0" y1="400.0" x2="740.0" y2="480.0" stroke="black" />
<line x1="720.0" y1="440.0" x2="760.0" y2="440.0" stroke="black" stroke-width="2" />
<text x="764.0" y="444.0" font-style="italic" font-size="11" text-anchor="start" font-family="'Times New Roman', 'BiauKai', 'DFKai-SB', '標楷體', 'KaiTi', serif">reset</text>
<line x1="60.0" y1="800.0" x2="60.0" y2="800.0" stroke="black" />
<line x1="60.0" y1="800.0" x2="-220.0" y2="800.0" stroke="black" />
<line x1="-220.0" y1="800.0" x2="-220.0" y2="30.0" stroke="black" />
<line x1="-220.0" y1="30.0" x2="400" y2="30.0" stroke="black" />
<line x1="400" y1="30.0" x2="400" y2="70.0" stroke="black" marker-end="url(#arrow)" />
<line x1="740.0" y1="480.0" x2="740.0" y2="500.0" stroke="black" />
<line x1="740.0" y1="500.0" x2="-300.0" y2="500.0" stroke="black" />
<line x1="-300.0" y1="500.0" x2="-300.0" y2="30.0" stroke="black" />
<line x1="-300.0" y1="30.0" x2="400" y2="30.0" stroke="black" />
<line x1="400" y1="30.0" x2="400" y2="70.0" stroke="black" marker-end="url(#arrow)" />
</svg>