<svg xmlns="http://www.w3.org/2000/svg" width="620" height="1060" viewBox="0.00 -2.00 31.00 53.00" role="img">
<style>
.step{fill:#fff;stroke:#111;stroke-width:.14}.step-inner{fill:none;stroke:#111;stroke-width:.08}
.action{fill:#fff;stroke:#111;stroke-width:.14}.gate{stroke:#111;stroke-width:.16}
.edge{fill:none;stroke:#111;stroke-width:.05;stroke-linecap:round;stroke-linejoin:round}.edge-arrow{marker-end:url(#arrow)}
.flyover-mask{stroke:#fff;stroke-width:.12;stroke-linecap:round}
.flyover{fill:none;stroke:#111;stroke-width:.05;stroke-linecap:round}
.junction{fill:#111;stroke:#111;stroke-width:0}.branch-junction{fill:#fff;stroke:#111;stroke-width:.08}
.assoc{stroke:#111;stroke-width:.05}.label{font:bold .7px 'Times New Roman', 'BiauKai', 'DFKai-SB', serif;text-anchor:middle;dominant-baseline:middle}
.action-label{font:.55px 'Times New Roman', 'BiauKai', 'DFKai-SB', serif;text-anchor:middle;dominant-baseline:middle}.gate-label{font:italic .55px 'Times New Roman', 'BiauKai', 'DFKai-SB', serif;text-anchor:start;dominant-baseline:middle}.gate-label-left{font:italic .55px 'Times New Roman', 'BiauKai', 'DFKai-SB', serif;text-anchor:end;dominant-baseline:middle}
</style>
<defs><marker id="arrow" markerWidth="0.4" markerHeight="0.4" refX="0.36" refY="0.2" orient="auto" markerUnits="userSpaceOnUse"><path d="M 0 0 L 0.4 0.2 L 0 0.4 z" fill="#111"/></marker></defs>
<rect x="0.00" y="-2.00" width="31.00" height="53.00" fill="white"/>
<path class="edge" d="M 20.00 7.00 L 20.00 9.00"/>
<path class="edge edge-arrow" d="M 20.00 9.00 L 20.00 11.00"/>
<path class="edge edge-arrow" d="M 20.00 14.00 L 20.00 16.00"/>
<path class="edge edge-arrow" d="M 20.00 16.00 L 20.00 20.00"/>
<path class="edge edge-arrow" d="M 10.00 16.00 L 10.00 20.00"/>
<path class="edge edge-arrow" d="M 20.00 23.00 L 20.00 29.00"/>
<path class="edge edge-arrow" d="M 10.00 29.00 L 10.00 31.00"/>
<path class="edge edge-arrow" d="M 20.00 29.00 L 20.00 31.00"/>
<path class="edge edge-arrow" d="M 10.00 34.00 L 10.00 36.00"/>
<path class="edge edge-arrow" d="M 20.00 36.00 L 20.00 40.00"/>
<path class="edge edge-arrow" d="M 20.00 34.00 L 20.00 36.00"/>
<path class="edge" d="M 10.00 23.00 L 10.00 25.00"/>
<path class="edge edge-arrow" d="M 10.00 25.00 L 10.00 26.50 Q 10.00 27.00 9.50 27.00 L 4.50 27.00 Q 4.00 27.00 4.00 26.50 L 4.00 2.50 Q 4.00 2.00 4.50 2.00 L 19.50 2.00 Q 20.00 2.00 20.00 2.50 L 20.00 4.00"/>
<path class="edge" d="M 20.00 43.00 L 20.00 45.00"/>
<path class="edge" d="M 20.00 45.00 L 20.00 47.00"/>
<path class="edge" d="M 20.00 47.00 L 4.00 47.00"/>
<path class="edge" d="M 4.00 47.00 L 4.00 27.00"/>
<rect class="step" x="18.00" y="4.00" width="4.00" height="3.00" rx="0.35" ry="0.35"/>
<rect class="step-inner" x="18.25" y="4.25" width="3.50" height="2.50" rx="0.22" ry="0.22"/>
<text class="label" x="20.00" y="5.50">0</text>
<rect class="step" x="18.00" y="11.00" width="4.00" height="3.00" rx="0.35" ry="0.35"/>
<text class="label" x="20.00" y="12.50">1</text>
<rect class="step" x="18.00" y="20.00" width="4.00" height="3.00" rx="0.35" ry="0.35"/>
<text class="label" x="20.00" y="21.50">2</text>
<rect class="step" x="8.00" y="31.00" width="4.00" height="3.00" rx="0.35" ry="0.35"/>
<text class="label" x="10.00" y="32.50">3</text>
<rect class="step" x="18.00" y="31.00" width="4.00" height="3.00" rx="0.35" ry="0.35"/>
<text class="label" x="20.00" y="32.50">4</text>
<rect class="step" x="8.00" y="20.00" width="4.00" height="3.00" rx="0.35" ry="0.35"/>
<text class="label" x="10.00" y="21.50">5</text>
<rect class="step" x="18.00" y="40.00" width="4.00" height="3.00" rx="0.35" ry="0.35"/>
<text class="label" x="20.00" y="41.50">6</text>
<line class="assoc" x1="22.00" y1="5.50" x2="23.00" y2="5.50"/>
<rect class="action" x="23.00" y="4.07" width="4.00" height="2.86"/>
<text class="action-label" x="25.00" y="4.68"><tspan x="25.00" dy="0">等待 事</tspan><tspan x="25.00" dy="0.82">件 發布</tspan><tspan x="25.00" dy="0.82">呼叫</tspan></text>
<line class="assoc" x1="22.00" y1="12.50" x2="23.00" y2="12.50"/>
<rect class="action" x="23.00" y="11.07" width="4.00" height="2.86"/>
<text class="action-label" x="25.00" y="11.68"><tspan x="25.00" dy="0">Validate 事</tspan><tspan x="25.00" dy="0.82">件 Against</tspan><tspan x="25.00" dy="0.82">Zod schema</tspan></text>
<line class="assoc" x1="22.00" y1="21.50" x2="23.00" y2="21.50"/>
<rect class="action" x="23.00" y="20.07" width="4.00" height="2.86"/>
<text class="action-label" x="25.00" y="21.09"><tspan x="25.00" dy="0">Fork Subsc</tspan><tspan x="25.00" dy="0.82">riber 派發</tspan></text>
<line class="assoc" x1="12.00" y1="32.50" x2="13.00" y2="32.50"/>
<rect class="action" x="13.00" y="31.07" width="4.00" height="2.86"/>
<text class="action-label" x="15.00" y="31.68"><tspan x="15.00" dy="0">Execute 後</tspan><tspan x="15.00" dy="0.82">端 Subscrib</tspan><tspan x="15.00" dy="0.82">er Callbacks</tspan></text>
<line class="assoc" x1="22.00" y1="32.50" x2="23.00" y2="32.50"/>
<rect class="action" x="23.00" y="31.07" width="4.00" height="2.86"/>
<text class="action-label" x="25.00" y="31.68"><tspan x="25.00" dy="0">發出 SS</tspan><tspan x="25.00" dy="0.82">E Transpo</tspan><tspan x="25.00" dy="0.82">rt 事件</tspan></text>
<line class="assoc" x1="12.00" y1="21.50" x2="13.00" y2="21.50"/>
<rect class="action" x="13.00" y="20.07" width="4.00" height="2.86"/>
<text class="action-label" x="15.00" y="20.68"><tspan x="15.00" dy="0">Report V</tspan><tspan x="15.00" dy="0.82">alidation</tspan><tspan x="15.00" dy="0.82">Failure</tspan></text>
<line class="assoc" x1="22.00" y1="41.50" x2="23.00" y2="41.50"/>
<rect class="action" x="23.00" y="40.07" width="4.00" height="2.86"/>
<text class="action-label" x="25.00" y="40.68"><tspan x="25.00" dy="0">路由 前端</tspan><tspan x="25.00" dy="0.82">事件 到 C</tspan><tspan x="25.00" dy="0.82">omponents</tspan></text>
<line class="gate" x1="19.00" y1="9.00" x2="21.00" y2="9.00"/>
<text class="gate-label" x="21.40" y="9.00"><tspan x="21.40" dy="0">Bus.發布invoked</tspan></text>
<line class="gate" x1="8.00" y1="16.00" x2="22.00" y2="16.00"/>
<line class="gate" x1="8.00" y1="28.85" x2="22.00" y2="28.85"/>
<line class="gate" x1="8.00" y1="29.15" x2="22.00" y2="29.15"/>
<line class="gate" x1="8.00" y1="35.85" x2="22.00" y2="35.85"/>
<line class="gate" x1="8.00" y1="36.15" x2="22.00" y2="36.15"/>
<line class="gate" x1="9.00" y1="25.00" x2="11.00" y2="25.00"/>
<text class="gate-label" x="11.40" y="25.00"><tspan x="11.40" dy="0">reset</tspan></text>
<line class="gate" x1="19.00" y1="45.00" x2="21.00" y2="45.00"/>
<text class="gate-label" x="21.40" y="45.00"><tspan x="21.40" dy="0">delivery完成</tspan></text>
<line class="gate" x1="19.00" y1="18.00" x2="21.00" y2="18.00"/>
<text class="gate-label" x="21.40" y="18.00"><tspan x="21.40" dy="0">schemavalid</tspan></text>
<line class="gate" x1="9.00" y1="18.00" x2="11.00" y2="18.00"/>
<text class="gate-label-left" x="8.60" y="18.00"><tspan x="8.60" dy="0">schemainvalid</tspan></text>
<line class="gate" x1="19.00" y1="25.00" x2="21.00" y2="25.00"/>
<text class="gate-label" x="21.40" y="25.00"><tspan x="21.40" dy="0">派發</tspan></text>
<line class="gate" x1="19.00" y1="38.00" x2="21.00" y2="38.00"/>
<text class="gate-label" x="21.40" y="38.00"><tspan x="21.40" dy="0">callbacks完成</tspan></text>
<circle class="junction" cx="4.00" cy="27.00" r="0.22"/>
</svg>