<svg xmlns="http://www.w3.org/2000/svg" width="1304" height="1700" viewBox="-30.00 -2.00 65.19 85.00" role="img">
<style>
.step{fill:#fff;stroke:#111;stroke-width:.14}.step-inner{fill:none;stroke:#111;stroke-width:.08}
.action{fill:#fff;stroke:#111;stroke-width:.14}.gate{stroke:#111;stroke-width:.16}
.edge{fill:none;stroke:#111;stroke-width:.05;stroke-linecap:round;stroke-linejoin:round}.edge-arrow{marker-end:url(#arrow)}
.flyover-mask{stroke:#fff;stroke-width:.12;stroke-linecap:round}
.flyover{fill:none;stroke:#111;stroke-width:.05;stroke-linecap:round}
.junction{fill:#111;stroke:#111;stroke-width:0}.branch-junction{fill:#fff;stroke:#111;stroke-width:.08}
.assoc{stroke:#111;stroke-width:.05}.label{font:bold .7px 'Times New Roman', 'BiauKai', 'DFKai-SB', serif;text-anchor:middle;dominant-baseline:middle}
.action-label{font:.55px 'Times New Roman', 'BiauKai', 'DFKai-SB', serif;text-anchor:middle;dominant-baseline:middle}.gate-label{font:italic .55px 'Times New Roman', 'BiauKai', 'DFKai-SB', serif;text-anchor:start;dominant-baseline:middle}.gate-label-left{font:italic .55px 'Times New Roman', 'BiauKai', 'DFKai-SB', serif;text-anchor:end;dominant-baseline:middle}
</style>
<defs><marker id="arrow" markerWidth="0.4" markerHeight="0.4" refX="0.36" refY="0.2" orient="auto" markerUnits="userSpaceOnUse"><path d="M 0 0 L 0.4 0.2 L 0 0.4 z" fill="#111"/></marker></defs>
<rect x="-30.00" y="-2.00" width="65.19" height="85.00" fill="white"/>
<path class="edge edge-arrow" d="M 19.19 9.00 L 19.19 13.00"/>
<path class="edge edge-arrow" d="M 19.19 18.00 L 19.19 22.00"/>
<path class="edge" d="M 19.19 7.00 L 19.19 9.00"/>
<path class="edge" d="M 19.19 16.00 L 19.19 18.00"/>
<path class="edge" d="M 19.19 25.00 L 19.19 27.00"/>
<path class="edge edge-arrow" d="M 19.19 27.00 L 19.19 29.00"/>
<path class="edge" d="M 19.19 32.00 L 19.19 34.00"/>
<path class="edge edge-arrow" d="M 19.19 34.00 L 19.19 36.00"/>
<path class="edge edge-arrow" d="M 19.19 39.00 L 19.19 41.00"/>
<path class="edge edge-arrow" d="M 9.46 41.00 L 9.46 45.00"/>
<path class="edge edge-arrow" d="M 19.19 41.00 L 19.19 45.00"/>
<path class="edge" d="M 9.46 48.00 L 9.46 50.00"/>
<path class="edge edge-arrow" d="M 9.46 50.00 L 9.46 52.00"/>
<path class="edge edge-arrow" d="M 9.46 55.00 L 9.46 57.00"/>
<path class="edge edge-arrow" d="M 9.46 57.00 L 9.46 61.00"/>
<path class="edge edge-arrow" d="M -10.00 57.00 L -10.00 61.00"/>
<path class="edge edge-arrow" d="M -0.27 57.00 L -0.27 61.00"/>
<path class="edge edge-arrow" d="M 19.19 57.00 L 19.19 61.00"/>
<path class="edge edge-arrow" d="M 9.46 64.00 L 9.46 68.00"/>
<path class="edge edge-arrow" d="M 19.19 68.00 L 19.19 72.00"/>
<path class="edge" d="M -10.00 64.00 L -10.00 66.00"/>
<path class="edge" d="M -10.00 66.00 L -10.00 68.00"/>
<path class="edge" d="M -10.00 68.00 L -18.00 68.00"/>
<path class="edge" d="M -18.00 68.00 L -18.00 20.00"/>
<path class="edge" d="M -18.00 20.00 L 19.19 20.00"/>
<path class="edge" d="M -0.27 64.00 L -0.27 66.00"/>
<path class="edge" d="M -0.27 66.00 L -0.27 70.00"/>
<path class="edge" d="M -0.27 70.00 L -22.00 70.00"/>
<path class="edge" d="M -22.00 70.00 L -22.00 11.00"/>
<path class="edge" d="M -22.00 11.00 L 19.19 11.00"/>
<path class="edge edge-arrow" d="M 19.19 64.00 L 19.19 68.00"/>
<path class="edge" d="M 19.19 75.00 L 19.19 77.00"/>
<path class="edge edge-arrow" d="M 19.19 77.00 L 19.19 78.50 Q 19.19 79.00 18.69 79.00 L -25.50 79.00 Q -26.00 79.00 -26.00 78.50 L -26.00 2.50 Q -26.00 2.00 -25.50 2.00 L 18.69 2.00 Q 19.19 2.00 19.19 2.50 L 19.19 4.00"/>
<path class="edge edge-arrow" d="M 19.19 48.00 L 19.19 49.50 Q 19.19 50.00 19.69 50.00 L 28.69 50.00 Q 29.19 50.00 29.19 50.50 L 29.19 68.00"/>
<rect class="step" x="17.19" y="4.00" width="4.00" height="3.00"/>
<rect class="step-inner" x="17.44" y="4.25" width="3.50" height="2.50"/>
<text class="label" x="19.19" y="5.50">0</text>
<rect class="step" x="17.19" y="13.00" width="4.00" height="3.00"/>
<text class="label" x="19.19" y="14.50">1</text>
<rect class="step" x="17.19" y="22.00" width="4.00" height="3.00"/>
<text class="label" x="19.19" y="23.50">2</text>
<rect class="step" x="17.19" y="29.00" width="4.00" height="3.00"/>
<text class="label" x="19.19" y="30.50">3</text>
<rect class="step" x="17.19" y="36.00" width="4.00" height="3.00"/>
<text class="label" x="19.19" y="37.50">4</text>
<rect class="step" x="7.46" y="45.00" width="4.00" height="3.00"/>
<text class="label" x="9.46" y="46.50">5</text>
<rect class="step" x="7.46" y="52.00" width="4.00" height="3.00"/>
<text class="label" x="9.46" y="53.50">6</text>
<rect class="step" x="7.46" y="61.00" width="4.00" height="3.00"/>
<text class="label" x="9.46" y="62.50">7</text>
<rect class="step" x="-12.00" y="61.00" width="4.00" height="3.00"/>
<text class="label" x="-10.00" y="62.50">8</text>
<rect class="step" x="-2.27" y="61.00" width="4.00" height="3.00"/>
<text class="label" x="-0.27" y="62.50">9</text>
<rect class="step" x="17.19" y="61.00" width="4.00" height="3.00"/>
<text class="label" x="19.19" y="62.50">10</text>
<rect class="step" x="17.19" y="72.00" width="4.00" height="3.00"/>
<text class="label" x="19.19" y="73.50">11</text>
<rect class="step" x="17.19" y="45.00" width="4.00" height="3.00"/>
<text class="label" x="19.19" y="46.50">12</text>
<line class="assoc" x1="21.19" y1="5.50" x2="22.19" y2="5.50"/>
<rect class="action" x="22.19" y="4.07" width="3.73" height="2.86" rx="0.45" ry="0.45"/>
<text class="action-label" x="24.05" y="4.68"><tspan x="24.05" dy="0">無</tspan><tspan x="24.05" dy="0.82">spec</tspan><tspan x="24.05" dy="0.82">在flight</tspan></text>
<line class="assoc" x1="21.19" y1="14.50" x2="22.19" y2="14.50"/>
<rect class="action" x="22.19" y="13.07" width="3.73" height="2.86" rx="0.45" ry="0.45"/>
<text class="action-label" x="24.05" y="14.50"><tspan x="24.05" dy="0">propose狀態</tspan></text>
<line class="assoc" x1="21.19" y1="23.50" x2="22.19" y2="23.50"/>
<rect class="action" x="22.19" y="22.07" width="3.73" height="2.86" rx="0.45" ry="0.45"/>
<text class="action-label" x="24.05" y="23.50"><tspan x="24.05" dy="0">design狀態</tspan></text>
<line class="assoc" x1="21.19" y1="30.50" x2="22.19" y2="30.50"/>
<rect class="action" x="22.19" y="29.07" width="3.73" height="2.86" rx="0.45" ry="0.45"/>
<text class="action-label" x="24.05" y="30.50"><tspan x="24.05" dy="0">規劃狀態</tspan></text>
<line class="assoc" x1="21.19" y1="37.50" x2="22.19" y2="37.50"/>
<rect class="action" x="22.19" y="36.07" width="3.73" height="2.86" rx="0.45" ry="0.45"/>
<text class="action-label" x="24.05" y="37.50"><tspan x="24.05" dy="0">implement狀態</tspan></text>
<line class="assoc" x1="11.46" y1="46.50" x2="12.46" y2="46.50"/>
<rect class="action" x="12.46" y="45.07" width="3.73" height="2.86" rx="0.45" ry="0.45"/>
<text class="action-label" x="14.33" y="46.50"><tspan x="14.33" dy="0">verify狀態</tspan></text>
<line class="assoc" x1="11.46" y1="53.50" x2="12.46" y2="53.50"/>
<rect class="action" x="12.46" y="52.07" width="3.73" height="2.86" rx="0.45" ry="0.45"/>
<text class="action-label" x="14.33" y="52.68"><tspan x="14.33" dy="0">live狀態</tspan><tspan x="14.33" dy="0.82">syncche</tspan><tspan x="14.33" dy="0.82">ckpoint</tspan></text>
<line class="assoc" x1="11.46" y1="62.50" x2="12.46" y2="62.50"/>
<rect class="action" x="12.46" y="61.07" width="3.73" height="2.86" rx="0.45" ry="0.45"/>
<text class="action-label" x="14.33" y="62.09"><tspan x="14.33" dy="0">amendinl</tspan><tspan x="14.33" dy="0.82">inedelta</tspan></text>
<line class="assoc" x1="-8.00" y1="62.50" x2="-7.00" y2="62.50"/>
<rect class="action" x="-7.00" y="61.07" width="3.73" height="2.86" rx="0.45" ry="0.45"/>
<text class="action-label" x="-5.13" y="61.68"><tspan x="-5.13" dy="0">revise或</tspan><tspan x="-5.13" dy="0.82">extend回</tspan><tspan x="-5.13" dy="0.82">到到designed</tspan></text>
<line class="assoc" x1="1.73" y1="62.50" x2="2.73" y2="62.50"/>
<rect class="action" x="2.73" y="61.07" width="3.73" height="2.86" rx="0.45" ry="0.45"/>
<text class="action-label" x="4.60" y="62.09"><tspan x="4.60" dy="0">refactorsnap</tspan><tspan x="4.60" dy="0.82">shot與reset</tspan></text>
<line class="assoc" x1="21.19" y1="62.50" x2="22.19" y2="62.50"/>
<rect class="action" x="22.19" y="61.07" width="3.73" height="2.86" rx="0.45" ry="0.45"/>
<text class="action-label" x="24.05" y="62.50"><tspan x="24.05" dy="0">archive狀態</tspan></text>
<line class="assoc" x1="21.19" y1="73.50" x2="22.19" y2="73.50"/>
<rect class="action" x="22.19" y="72.07" width="3.73" height="2.86" rx="0.45" ry="0.45"/>
<text class="action-label" x="24.05" y="73.50"><tspan x="24.05" dy="0">spec於rest</tspan></text>
<line class="assoc" x1="21.19" y1="46.50" x2="22.19" y2="46.50"/>
<rect class="action" x="22.19" y="45.07" width="3.73" height="2.86" rx="0.45" ry="0.45"/>
<text class="action-label" x="24.05" y="46.09"><tspan x="24.05" dy="0">abandon或</tspan><tspan x="24.05" dy="0.82">rollback</tspan></text>
<line class="gate" x1="18.19" y1="9.00" x2="20.19" y2="9.00"/>
<text class="gate-label" x="20.59" y="9.00"><tspan x="20.59" dy="0">規劃initinvoked供newslugOR legacyplanstouched</tspan></text>
<line class="gate" x1="18.19" y1="18.00" x2="20.19" y2="18.00"/>
<text class="gate-label" x="20.59" y="18.00"><tspan x="20.59" dy="0">proposalmdAND 狀態jsonwritten狀態==proposed</tspan></text>
<line class="gate" x1="18.19" y1="27.00" x2="20.19" y2="27.00"/>
<text class="gate-label-left" x="17.79" y="27.00"><tspan x="17.79" dy="0">specmddesignmdidef0grafcetc4sequencedataschemapresentAND validatepasses</tspan></text>
<line class="gate" x1="18.19" y1="34.00" x2="20.19" y2="34.00"/>
<text class="gate-label" x="20.59" y="34.00"><tspan x="20.59" dy="0">tasksmdhandoffmdtestvectors錯誤observabilitypresent</tspan></text>
<line class="gate" x1="5.46" y1="41.00" x2="23.19" y2="41.00"/>
<line class="gate" x1="8.46" y1="50.00" x2="10.46" y2="50.00"/>
<text class="gate-label-left" x="8.06" y="50.00"><tspan x="8.06" dy="0">validationevidenceattachedAND testspass</tspan></text>
<line class="gate" x1="-14.00" y1="57.00" x2="23.19" y2="57.00"/>
<line class="gate" x1="7.46" y1="68.00" x2="31.19" y2="68.00"/>
<line class="gate" x1="-11.00" y1="66.00" x2="-9.00" y2="66.00"/>
<text class="gate-label" x="-8.60" y="65.32"><tspan x="-8.60" dy="0">狀態setdesignedAND</tspan><tspan x="-8.60" dy="0.68">revise或extendhistory項</tspan><tspan x="-8.60" dy="0.68">目appended</tspan></text>
<line class="gate" x1="-1.27" y1="66.00" x2="0.73" y2="66.00"/>
<text class="gate-label" x="1.13" y="65.32"><tspan x="1.13" dy="0">historyrefactorYYYY MM</tspan><tspan x="1.13" dy="0.68">DD createdAND artifactsreset到</tspan><tspan x="1.13" dy="0.68">proposedskeleton</tspan></text>
<line class="gate" x1="18.19" y1="77.00" x2="20.19" y2="77.00"/>
<text class="gate-label" x="20.59" y="77.00"><tspan x="20.59" dy="0">1</tspan></text>
<line class="gate" x1="8.46" y1="43.00" x2="10.46" y2="43.00"/>
<text class="gate-label-left" x="8.06" y="43.00"><tspan x="8.06" dy="0">alltaskscheckedAND syncclean</tspan></text>
<line class="gate" x1="18.19" y1="43.00" x2="20.19" y2="43.00"/>
<text class="gate-label-left" x="17.79" y="42.66"><tspan x="17.79" dy="0">規劃abandoned或</tspan><tspan x="17.79" dy="0.68">refactorrequested</tspan></text>
<line class="gate" x1="8.46" y1="59.00" x2="10.46" y2="59.00"/>
<text class="gate-label-left" x="8.06" y="59.00"><tspan x="8.06" dy="0">mode==amend</tspan></text>
<line class="gate" x1="-11.00" y1="59.00" x2="-9.00" y2="59.00"/>
<text class="gate-label-left" x="-11.40" y="59.00"><tspan x="-11.40" dy="0">mode==revise或extend</tspan></text>
<line class="gate" x1="-1.27" y1="59.00" x2="0.73" y2="59.00"/>
<text class="gate-label-left" x="-1.67" y="59.00"><tspan x="-1.67" dy="0">mode==refactor</tspan></text>
<line class="gate" x1="18.19" y1="59.00" x2="20.19" y2="59.00"/>
<text class="gate-label-left" x="17.79" y="59.00"><tspan x="17.79" dy="0">mode==archive</tspan></text>
<line class="gate" x1="8.46" y1="66.00" x2="10.46" y2="66.00"/>
<text class="gate-label-left" x="3.86" y="65.32"><tspan x="3.86" dy="0">inlinedeltamark</tspan><tspan x="3.86" dy="0.68">eraddedAND 狀</tspan><tspan x="3.86" dy="0.68">態remainsliving</tspan></text>
<line class="gate" x1="18.19" y1="66.00" x2="20.19" y2="66.00"/>
<text class="gate-label-left" x="17.79" y="65.32"><tspan x="17.79" dy="0">狀態setarchivedAND</tspan><tspan x="17.79" dy="0.68">optionalmove到</tspan><tspan x="17.79" dy="0.68">archivefolderdone</tspan></text>
<line class="gate" x1="28.19" y1="66.00" x2="30.19" y2="66.00"/>
<text class="gate-label-left" x="27.79" y="65.32"><tspan x="27.79" dy="0">規劃rollbackrefactor或</tspan><tspan x="27.79" dy="0.68">explicitabandonrecorded在</tspan><tspan x="27.79" dy="0.68">history</tspan></text>
<circle class="junction" cx="19.19" cy="11.00" r="0.22"/>
<circle class="junction" cx="19.19" cy="20.00" r="0.22"/>
</svg>