<svg xmlns="http://www.w3.org/2000/svg" width="1483" height="2220" viewBox="-38.00 -2.00 74.16 111.00" role="img">
<style>
.step{fill:#fff;stroke:#111;stroke-width:.14}.step-inner{fill:none;stroke:#111;stroke-width:.08}
.action{fill:#fff;stroke:#111;stroke-width:.14}.gate{stroke:#111;stroke-width:.16}
.edge{fill:none;stroke:#111;stroke-width:.05;stroke-linecap:round;stroke-linejoin:round}.edge-arrow{marker-end:url(#arrow)}
.flyover-mask{stroke:#fff;stroke-width:.12;stroke-linecap:round}
.flyover{fill:none;stroke:#111;stroke-width:.05;stroke-linecap:round}
.junction{fill:#111;stroke:#111;stroke-width:0}.branch-junction{fill:#fff;stroke:#111;stroke-width:.08}
.assoc{stroke:#111;stroke-width:.05}.label{font:bold .7px 'Times New Roman', 'BiauKai', 'DFKai-SB', serif;text-anchor:middle;dominant-baseline:middle}
.action-label{font:.55px 'Times New Roman', 'BiauKai', 'DFKai-SB', serif;text-anchor:middle;dominant-baseline:middle}.gate-label{font:italic .55px 'Times New Roman', 'BiauKai', 'DFKai-SB', serif;text-anchor:start;dominant-baseline:middle}.gate-label-left{font:italic .55px 'Times New Roman', 'BiauKai', 'DFKai-SB', serif;text-anchor:end;dominant-baseline:middle}
</style>
<defs><marker id="arrow" markerWidth="0.4" markerHeight="0.4" refX="0.36" refY="0.2" orient="auto" markerUnits="userSpaceOnUse"><path d="M 0 0 L 0.4 0.2 L 0 0.4 z" fill="#111"/></marker></defs>
<rect x="-38.00" y="-2.00" width="74.16" height="111.00" fill="white"/>
<path class="edge edge-arrow" d="M 22.37 11.00 L 22.37 15.00"/>
<path class="edge edge-arrow" d="M 22.37 22.00 L 22.37 26.00"/>
<path class="edge" d="M 22.37 7.00 L 22.37 11.00"/>
<path class="edge" d="M 22.37 18.00 L 22.37 22.00"/>
<path class="edge" d="M 22.37 29.00 L 22.37 33.00"/>
<path class="edge edge-arrow" d="M 22.37 33.00 L 22.37 37.00"/>
<path class="edge" d="M 22.37 40.00 L 22.37 44.00"/>
<path class="edge edge-arrow" d="M 22.37 44.00 L 22.37 48.00"/>
<path class="edge edge-arrow" d="M 22.37 51.00 L 22.37 53.00"/>
<path class="edge edge-arrow" d="M 11.58 53.00 L 11.58 57.00"/>
<path class="edge edge-arrow" d="M 22.37 53.00 L 22.37 57.00"/>
<path class="edge" d="M 11.58 60.00 L 11.58 64.00"/>
<path class="edge edge-arrow" d="M 11.58 64.00 L 11.58 68.00"/>
<path class="edge edge-arrow" d="M 11.58 71.00 L 11.58 73.00"/>
<path class="edge edge-arrow" d="M 11.58 73.00 L 11.58 77.00"/>
<path class="edge edge-arrow" d="M -10.00 73.00 L -10.00 77.00"/>
<path class="edge edge-arrow" d="M 0.79 73.00 L 0.79 77.00"/>
<path class="edge edge-arrow" d="M 22.37 73.00 L 22.37 77.00"/>
<path class="edge edge-arrow" d="M 11.58 80.00 L 11.58 96.00"/>
<path class="edge edge-arrow" d="M 22.37 96.00 L 22.37 98.00"/>
<path class="edge" d="M -10.00 80.00 L -10.00 82.00"/>
<path class="edge" d="M -10.00 82.00 L -10.00 84.00"/>
<path class="edge" d="M -10.00 84.00 L -30.00 84.00"/>
<path class="edge" d="M -30.00 84.00 L -30.00 24.00"/>
<path class="edge" d="M -30.00 24.00 L 22.37 24.00"/>
<path class="edge" d="M 0.79 80.00 L 0.79 86.00"/>
<path class="edge" d="M 0.79 86.00 L 0.79 88.00"/>
<path class="edge" d="M 0.79 88.00 L -32.00 88.00"/>
<path class="edge" d="M -32.00 88.00 L -32.00 13.00"/>
<path class="edge" d="M -32.00 13.00 L 22.37 13.00"/>
<path class="edge" d="M 22.37 80.00 L 22.37 81.00"/>
<path class="edge" d="M 22.37 81.00 L 25.82 81.00"/>
<path class="edge" d="M 25.82 81.00 L 25.82 96.61"/>
<path class="edge" d="M 25.82 96.61 L 22.37 96.61"/>
<path class="edge" d="M 22.37 101.00 L 22.37 103.00"/>
<path class="edge edge-arrow" d="M 22.37 103.00 L 22.37 104.50 Q 22.37 105.00 21.87 105.00 L -33.50 105.00 Q -34.00 105.00 -34.00 104.50 L -34.00 2.50 Q -34.00 2.00 -33.50 2.00 L 21.87 2.00 Q 22.37 2.00 22.37 2.50 L 22.37 4.00"/>
<path class="edge" d="M 22.37 60.00 L 22.37 61.00"/>
<path class="edge" d="M 22.37 61.00 L 32.16 61.00"/>
<path class="edge" d="M 32.16 61.00 L 32.16 98.61"/>
<path class="edge" d="M 32.16 98.61 L 22.37 98.61"/>
<path class="edge" d="M 22.37 98.61 L 22.37 98.00"/>
<path class="edge edge-arrow" d="M 22.37 96.00 L 24.37 96.00"/>
<rect class="step" x="20.37" y="4.00" width="4.00" height="3.00"/>
<rect class="step-inner" x="20.62" y="4.25" width="3.50" height="2.50"/>
<text class="label" x="22.37" y="5.50">0</text>
<rect class="step" x="20.37" y="15.00" width="4.00" height="3.00"/>
<text class="label" x="22.37" y="16.50">1</text>
<rect class="step" x="20.37" y="26.00" width="4.00" height="3.00"/>
<text class="label" x="22.37" y="27.50">2</text>
<rect class="step" x="20.37" y="37.00" width="4.00" height="3.00"/>
<text class="label" x="22.37" y="38.50">3</text>
<rect class="step" x="20.37" y="48.00" width="4.00" height="3.00"/>
<text class="label" x="22.37" y="49.50">4</text>
<rect class="step" x="9.58" y="57.00" width="4.00" height="3.00"/>
<text class="label" x="11.58" y="58.50">5</text>
<rect class="step" x="9.58" y="68.00" width="4.00" height="3.00"/>
<text class="label" x="11.58" y="69.50">6</text>
<rect class="step" x="9.58" y="77.00" width="4.00" height="3.00"/>
<text class="label" x="11.58" y="78.50">7</text>
<rect class="step" x="-12.00" y="77.00" width="4.00" height="3.00"/>
<text class="label" x="-10.00" y="78.50">8</text>
<rect class="step" x="-1.21" y="77.00" width="4.00" height="3.00"/>
<text class="label" x="0.79" y="78.50">9</text>
<rect class="step" x="20.37" y="77.00" width="4.00" height="3.00"/>
<text class="label" x="22.37" y="78.50">10</text>
<rect class="step" x="20.37" y="98.00" width="4.00" height="3.00"/>
<text class="label" x="22.37" y="99.50">11</text>
<rect class="step" x="20.37" y="57.00" width="4.00" height="3.00"/>
<text class="label" x="22.37" y="58.50">12</text>
<line class="assoc" x1="24.37" y1="5.50" x2="25.37" y2="5.50"/>
<rect class="action" x="25.37" y="4.07" width="4.79" height="2.86" rx="0.45" ry="0.45"/>
<text class="action-label" x="27.76" y="5.09"><tspan x="27.76" dy="0">ÁĄ°specŚú®</tspan><tspan x="27.76" dy="0.82">flight</tspan></text>
<line class="assoc" x1="24.37" y1="16.50" x2="25.37" y2="16.50"/>
<rect class="action" x="25.37" y="15.07" width="4.79" height="2.86" rx="0.45" ry="0.45"/>
<text class="action-label" x="27.76" y="16.09"><tspan x="27.76" dy="0">propo</tspan><tspan x="27.76" dy="0.82">seÁčÄśÖč</tspan></text>
<line class="assoc" x1="24.37" y1="27.50" x2="25.37" y2="27.50"/>
<rect class="action" x="25.37" y="26.07" width="4.79" height="2.86" rx="0.45" ry="0.45"/>
<text class="action-label" x="27.76" y="27.50"><tspan x="27.76" dy="0">designÁčÄśÖč</tspan></text>
<line class="assoc" x1="24.37" y1="38.50" x2="25.37" y2="38.50"/>
<rect class="action" x="25.37" y="37.07" width="4.79" height="2.86" rx="0.45" ry="0.45"/>
<text class="action-label" x="27.76" y="38.50"><tspan x="27.76" dy="0">Ť¶ŹŚäÉÁčÄśÖč</tspan></text>
<line class="assoc" x1="24.37" y1="49.50" x2="25.37" y2="49.50"/>
<rect class="action" x="25.37" y="48.07" width="4.79" height="2.86" rx="0.45" ry="0.45"/>
<text class="action-label" x="27.76" y="49.09"><tspan x="27.76" dy="0">implem</tspan><tspan x="27.76" dy="0.82">entÁčÄśÖč</tspan></text>
<line class="assoc" x1="13.58" y1="58.50" x2="14.58" y2="58.50"/>
<rect class="action" x="14.58" y="57.07" width="4.79" height="2.86" rx="0.45" ry="0.45"/>
<text class="action-label" x="16.97" y="58.50"><tspan x="16.97" dy="0">verifyÁčÄśÖč</tspan></text>
<line class="assoc" x1="13.58" y1="69.50" x2="14.58" y2="69.50"/>
<rect class="action" x="14.58" y="68.07" width="4.79" height="2.86" rx="0.45" ry="0.45"/>
<text class="action-label" x="16.97" y="68.68"><tspan x="16.97" dy="0">liveÁčÄśÖč</tspan><tspan x="16.97" dy="0.82">syncche</tspan><tspan x="16.97" dy="0.82">ckpoint</tspan></text>
<line class="assoc" x1="13.58" y1="78.50" x2="14.58" y2="78.50"/>
<rect class="action" x="14.58" y="77.07" width="4.79" height="2.86" rx="0.45" ry="0.45"/>
<text class="action-label" x="16.97" y="78.09"><tspan x="16.97" dy="0">amendinl</tspan><tspan x="16.97" dy="0.82">inedelta</tspan></text>
<line class="assoc" x1="-8.00" y1="78.50" x2="-7.00" y2="78.50"/>
<rect class="action" x="-7.00" y="77.07" width="4.79" height="2.86" rx="0.45" ry="0.45"/>
<text class="action-label" x="-4.61" y="77.68"><tspan x="-4.61" dy="0">reviseśąĖ</tspan><tspan x="-4.61" dy="0.82">extendŚõěŚąį</tspan><tspan x="-4.61" dy="0.82">Śąįdesigned</tspan></text>
<line class="assoc" x1="2.79" y1="78.50" x2="3.79" y2="78.50"/>
<rect class="action" x="3.79" y="77.07" width="4.79" height="2.86" rx="0.45" ry="0.45"/>
<text class="action-label" x="6.18" y="78.09"><tspan x="6.18" dy="0">refactorsna</tspan><tspan x="6.18" dy="0.82">pshotŤąáreset</tspan></text>
<line class="assoc" x1="24.37" y1="78.50" x2="25.37" y2="78.50"/>
<rect class="action" x="25.37" y="77.07" width="4.79" height="2.86" rx="0.45" ry="0.45"/>
<text class="action-label" x="27.76" y="78.09"><tspan x="27.76" dy="0">archi</tspan><tspan x="27.76" dy="0.82">veÁčÄśÖč</tspan></text>
<line class="assoc" x1="24.37" y1="99.50" x2="25.37" y2="99.50"/>
<rect class="action" x="25.37" y="98.07" width="4.79" height="2.86" rx="0.45" ry="0.45"/>
<text class="action-label" x="27.76" y="99.50"><tspan x="27.76" dy="0">specśĖľrest</tspan></text>
<line class="assoc" x1="24.37" y1="58.50" x2="25.37" y2="58.50"/>
<rect class="action" x="25.37" y="57.07" width="4.79" height="2.86" rx="0.45" ry="0.45"/>
<text class="action-label" x="27.76" y="58.09"><tspan x="27.76" dy="0">abandonśąĖ</tspan><tspan x="27.76" dy="0.82">rollback</tspan></text>
<line class="gate" x1="21.37" y1="11.00" x2="23.37" y2="11.00"/>
<text class="gate-label-left" x="20.97" y="11.00"><tspan x="20.97" dy="0">Ť¶ŹŚäÉinitinvokedšĺõnewslugOR legacyplanstouched</tspan></text>
<line class="gate" x1="21.37" y1="22.00" x2="23.37" y2="22.00"/>
<text class="gate-label-left" x="20.97" y="22.00"><tspan x="20.97" dy="0">proposalmdAND ÁčÄśÖčjsonwrittenÁčÄśÖč==proposed</tspan></text>
<line class="gate" x1="21.37" y1="33.00" x2="23.37" y2="33.00"/>
<text class="gate-label-left" x="20.97" y="33.00"><tspan x="20.97" dy="0">specmddesignmdidef0grafcetc4sequencedataschemapresentAND validatepasses</tspan></text>
<line class="gate" x1="21.37" y1="44.00" x2="23.37" y2="44.00"/>
<text class="gate-label-left" x="20.97" y="44.00"><tspan x="20.97" dy="0">tasksmdhandoffmdtestvectorsťĆĮŤ™§observabilitypresent</tspan></text>
<line class="gate" x1="7.58" y1="53.00" x2="26.37" y2="53.00"/>
<line class="gate" x1="10.58" y1="64.00" x2="12.58" y2="64.00"/>
<text class="gate-label" x="12.98" y="64.00"><tspan x="12.98" dy="0">validationevidenceattachedAND testspass</tspan></text>
<line class="gate" x1="-14.00" y1="73.00" x2="26.37" y2="73.00"/>
<line class="gate" x1="9.58" y1="96.00" x2="24.37" y2="96.00"/>
<line class="gate" x1="-11.00" y1="82.00" x2="-9.00" y2="82.00"/>
<text class="gate-label" x="-8.60" y="81.32"><tspan x="-8.60" dy="0">ÁčÄśÖčsetdesignedAND</tspan><tspan x="-8.60" dy="0.68">reviseśąĖextendhis</tspan><tspan x="-8.60" dy="0.68">toryť†ÖÁõģappended</tspan></text>
<line class="gate" x1="-0.21" y1="86.00" x2="1.79" y2="86.00"/>
<text class="gate-label-left" x="-0.61" y="85.32"><tspan x="-0.61" dy="0">historyrefactorYYYY MM</tspan><tspan x="-0.61" dy="0.68">DD createdAND artifacts</tspan><tspan x="-0.61" dy="0.68">resetŚąįproposedskeleton</tspan></text>
<line class="gate" x1="21.37" y1="103.00" x2="23.37" y2="103.00"/>
<text class="gate-label" x="23.77" y="103.00"><tspan x="23.77" dy="0">1</tspan></text>
<line class="gate" x1="10.58" y1="55.00" x2="12.58" y2="55.00"/>
<text class="gate-label-left" x="10.18" y="55.00"><tspan x="10.18" dy="0">alltaskscheckedAND syncclean</tspan></text>
<line class="gate" x1="21.37" y1="55.00" x2="23.37" y2="55.00"/>
<text class="gate-label-left" x="20.97" y="54.32"><tspan x="20.97" dy="0">Ť¶ŹŚäÉabandonedśąĖ</tspan><tspan x="20.97" dy="0.68">refactorre</tspan><tspan x="20.97" dy="0.68">quested</tspan></text>
<line class="gate" x1="10.58" y1="75.00" x2="12.58" y2="75.00"/>
<text class="gate-label-left" x="10.18" y="75.00"><tspan x="10.18" dy="0">mode==amend</tspan></text>
<line class="gate" x1="-11.00" y1="75.00" x2="-9.00" y2="75.00"/>
<text class="gate-label-left" x="-11.40" y="75.00"><tspan x="-11.40" dy="0">mode==reviseśąĖextend</tspan></text>
<line class="gate" x1="-0.21" y1="75.00" x2="1.79" y2="75.00"/>
<text class="gate-label-left" x="-0.61" y="75.00"><tspan x="-0.61" dy="0">mode==refactor</tspan></text>
<line class="gate" x1="21.37" y1="75.00" x2="23.37" y2="75.00"/>
<text class="gate-label-left" x="20.97" y="75.00"><tspan x="20.97" dy="0">mode==archive</tspan></text>
<line class="gate" x1="10.58" y1="94.00" x2="12.58" y2="94.00"/>
<text class="gate-label" x="12.98" y="93.32"><tspan x="12.98" dy="0">inlinedeltamar</tspan><tspan x="12.98" dy="0.68">keraddedAND ÁčÄśÖč</tspan><tspan x="12.98" dy="0.68">remainsliving</tspan></text>
<line class="gate" x1="21.37" y1="94.00" x2="23.37" y2="94.00"/>
<text class="gate-label" x="26.57" y="93.32"><tspan x="26.57" dy="0">ÁčÄśÖčsetarchivedAND</tspan><tspan x="26.57" dy="0.68">optionalmoveŚąį</tspan><tspan x="26.57" dy="0.68">archivefolderdone</tspan></text>
<line class="gate" x1="21.37" y1="94.00" x2="23.37" y2="94.00"/>
<text class="gate-label" x="23.77" y="92.64"><tspan x="23.77" dy="0">Ť¶ŹŚäÉrollbackrefactorśąĖ</tspan><tspan x="23.77" dy="0.68">explicitabandonre</tspan><tspan x="23.77" dy="0.68">cordedŚú®history</tspan></text>
<circle class="junction" cx="22.37" cy="13.00" r="0.22"/>
<circle class="junction" cx="22.37" cy="24.00" r="0.22"/>
<circle class="junction" cx="22.37" cy="96.61" r="0.22"/>
</svg>