<svg xmlns="http://www.w3.org/2000/svg" width="1507" height="2014" viewBox="-6.00 -1.92 75.35 100.68" role="img">
<style>
.step{fill:#fff;stroke:#111;stroke-width:.14}.step-inner{fill:none;stroke:#111;stroke-width:.08}
.action{fill:#fff;stroke:#111;stroke-width:.14}.gate{stroke:#111;stroke-width:.16}
.edge{fill:none;stroke:#111;stroke-width:.05;stroke-linecap:round;stroke-linejoin:round}.edge-arrow{marker-end:url(#arrow)}
.flyover-mask{stroke:#fff;stroke-width:.12;stroke-linecap:round}
.flyover{fill:none;stroke:#111;stroke-width:.05;stroke-linecap:round}
.junction{fill:#111;stroke:#111;stroke-width:0}
.assoc{stroke:#111;stroke-width:.05}.label{font:bold .7px 'Times New Roman', 'BiauKai', 'DFKai-SB', serif;text-anchor:middle;dominant-baseline:middle}
.action-label{font:.55px 'Times New Roman', 'BiauKai', 'DFKai-SB', serif;text-anchor:middle;dominant-baseline:middle}.gate-label{font:italic .55px 'Times New Roman', 'BiauKai', 'DFKai-SB', serif;text-anchor:start;dominant-baseline:middle}.gate-label-left{font:italic .55px 'Times New Roman', 'BiauKai', 'DFKai-SB', serif;text-anchor:end;dominant-baseline:middle}
</style>
<defs><marker id="arrow" markerWidth="0.4" markerHeight="0.4" refX="0.36" refY="0.2" orient="auto" markerUnits="userSpaceOnUse"><path d="M 0 0 L 0.4 0.2 L 0 0.4 z" fill="#111"/></marker></defs>
<rect x="-6.00" y="-1.92" width="75.35" height="100.68" fill="white"/>
<path class="edge" d="M 20.00 7.08 L 20.00 9.16"/>
<path class="edge edge-arrow" d="M 20.00 9.16 L 20.00 11.24"/>
<path class="edge" d="M 20.00 14.24 L 20.00 16.32"/>
<path class="edge edge-arrow" d="M 20.00 16.32 L 20.00 18.40"/>
<path class="edge" d="M 20.00 21.40 L 20.00 23.48"/>
<path class="edge edge-arrow" d="M 20.00 23.48 L 20.00 25.56"/>
<path class="edge" d="M 20.00 28.56 L 20.00 30.64"/>
<path class="edge edge-arrow" d="M 10.00 30.64 L 10.00 32.14 Q 10.00 32.64 10.00 33.14 L 10.00 34.72"/>
<path class="edge edge-arrow" d="M 30.00 30.64 L 30.00 32.14 Q 30.00 32.64 30.00 33.14 L 30.00 34.72"/>
<path class="edge" d="M 10.00 37.72 L 10.00 41.80"/>
<path class="edge edge-arrow" d="M 20.00 41.80 L 20.00 43.88"/>
<path class="edge" d="M 30.00 37.72 L 30.00 41.80"/>
<path class="edge" d="M 20.00 46.88 L 20.00 50.96"/>
<path class="edge edge-arrow" d="M 20.00 50.96 L 20.00 53.04"/>
<path class="edge" d="M 20.00 56.04 L 20.00 58.12"/>
<path class="edge edge-arrow" d="M 20.00 58.12 L 20.00 60.20"/>
<path class="edge" d="M 20.00 63.20 L 20.00 65.28"/>
<path class="edge" d="M 10.00 65.28 L 10.00 69.28"/>
<path class="edge" d="M 10.00 69.28 L 2.00 69.28"/>
<path class="edge" d="M 2.00 69.28 L 2.00 51.04"/>
<path class="edge" d="M 2.00 51.04 L 20.00 51.04"/>
<path class="edge edge-arrow" d="M 30.00 65.28 L 30.00 66.78 Q 30.00 67.28 30.00 67.78 L 30.00 69.36"/>
<path class="edge" d="M 30.00 72.36 L 30.00 74.44"/>
<path class="edge" d="M 20.00 74.44 L 20.00 78.44"/>
<path class="edge" d="M 20.00 78.44 L 2.00 78.44"/>
<path class="edge" d="M 2.00 78.44 L 2.00 69.28"/>
<path class="edge edge-arrow" d="M 40.00 74.44 L 40.00 75.94 Q 40.00 76.44 40.00 76.94 L 40.00 78.52"/>
<path class="edge" d="M 40.00 81.52 L 40.00 83.60"/>
<path class="edge edge-arrow" d="M 30.00 83.60 L 30.00 87.10 Q 30.00 87.60 29.50 87.60 L 0.50 87.60 Q 0.00 87.60 0.00 87.10 L 0.00 69.86 Q 0.00 69.36 0.50 69.36 L 30.00 69.36"/>
<path class="edge edge-arrow" d="M 50.00 83.60 L 50.00 85.10 Q 50.00 85.60 50.00 86.10 L 50.00 87.68"/>
<path class="edge" d="M 50.00 90.68 L 50.00 92.76"/>
<path class="edge edge-arrow" d="M 50.00 92.76 L 50.00 94.26 Q 50.00 94.76 49.50 94.76 L -1.50 94.76 Q -2.00 94.76 -2.00 94.26 L -2.00 2.58 Q -2.00 2.08 -1.50 2.08 L 19.50 2.08 Q 20.00 2.08 20.00 2.58 L 20.00 4.08"/>
<rect class="step" x="18.00" y="4.08" width="4.00" height="3.00"/>
<rect class="step-inner" x="18.25" y="4.33" width="3.50" height="2.50"/>
<text class="label" x="20.00" y="5.58">0</text>
<rect class="step" x="18.00" y="11.24" width="4.00" height="3.00"/>
<text class="label" x="20.00" y="12.74">1</text>
<rect class="step" x="18.00" y="18.40" width="4.00" height="3.00"/>
<text class="label" x="20.00" y="19.90">2</text>
<rect class="step" x="18.00" y="25.56" width="4.00" height="3.00"/>
<text class="label" x="20.00" y="27.06">3</text>
<rect class="step" x="8.00" y="34.72" width="4.00" height="3.00"/>
<text class="label" x="10.00" y="36.22">4</text>
<rect class="step" x="28.00" y="34.72" width="4.00" height="3.00"/>
<text class="label" x="30.00" y="36.22">5</text>
<rect class="step" x="18.00" y="43.88" width="4.00" height="3.00"/>
<text class="label" x="20.00" y="45.38">6</text>
<rect class="step" x="18.00" y="53.04" width="4.00" height="3.00"/>
<text class="label" x="20.00" y="54.54">7</text>
<rect class="step" x="18.00" y="60.20" width="4.00" height="3.00"/>
<text class="label" x="20.00" y="61.70">8</text>
<rect class="step" x="28.00" y="69.36" width="4.00" height="3.00"/>
<text class="label" x="30.00" y="70.86">9</text>
<rect class="step" x="38.00" y="78.52" width="4.00" height="3.00"/>
<text class="label" x="40.00" y="80.02">10</text>
<rect class="step" x="48.00" y="87.68" width="4.00" height="3.00"/>
<text class="label" x="50.00" y="89.18">11</text>
<line class="assoc" x1="22.00" y1="5.58" x2="23.00" y2="5.58"/>
<rect class="action" x="23.00" y="4.00" width="12.35" height="3.16" rx="0.45" ry="0.45"/>
<text class="action-label" x="29.18" y="5.58"><tspan x="29.18" dy="0">AppUninstalled</tspan></text>
<line class="assoc" x1="22.00" y1="12.74" x2="23.00" y2="12.74"/>
<rect class="action" x="23.00" y="11.16" width="12.35" height="3.16" rx="0.45" ry="0.45"/>
<text class="action-label" x="29.18" y="12.74"><tspan x="29.18" dy="0">InstallApp</tspan></text>
<line class="assoc" x1="22.00" y1="19.90" x2="23.00" y2="19.90"/>
<rect class="action" x="23.00" y="18.32" width="12.35" height="3.16" rx="0.45" ry="0.45"/>
<text class="action-label" x="29.18" y="19.49"><tspan x="29.18" dy="0">註冊</tspan><tspan x="29.18" dy="0.82">Manifest</tspan></text>
<line class="assoc" x1="22.00" y1="27.06" x2="23.00" y2="27.06"/>
<rect class="action" x="23.00" y="25.48" width="12.35" height="3.16" rx="0.45" ry="0.45"/>
<text class="action-label" x="29.18" y="26.65"><tspan x="29.18" dy="0">firsttools呼叫</tspan><tspan x="29.18" dy="0.82">triggersconnect</tspan></text>
<line class="assoc" x1="12.00" y1="36.22" x2="13.00" y2="36.22"/>
<rect class="action" x="13.00" y="34.64" width="12.35" height="3.16" rx="0.45" ry="0.45"/>
<text class="action-label" x="19.18" y="36.22"><tspan x="19.18" dy="0">ConnectStdioTransport</tspan></text>
<line class="assoc" x1="32.00" y1="36.22" x2="33.00" y2="36.22"/>
<rect class="action" x="33.00" y="34.64" width="12.35" height="3.16" rx="0.45" ry="0.45"/>
<text class="action-label" x="39.17" y="36.22"><tspan x="39.17" dy="0">ConnectHttpOverUnixSocket</tspan></text>
<line class="assoc" x1="22.00" y1="45.38" x2="23.00" y2="45.38"/>
<rect class="action" x="23.00" y="43.80" width="12.35" height="3.16" rx="0.45" ry="0.45"/>
<text class="action-label" x="29.18" y="45.38"><tspan x="29.18" dy="0">client就緒</tspan></text>
<line class="assoc" x1="22.00" y1="54.54" x2="23.00" y2="54.54"/>
<rect class="action" x="23.00" y="52.96" width="12.35" height="3.16" rx="0.45" ry="0.45"/>
<text class="action-label" x="29.18" y="53.72"><tspan x="29.18" dy="0">派發</tspan><tspan x="29.18" dy="0.82">工具</tspan><tspan x="29.18" dy="0.82">呼叫</tspan></text>
<line class="assoc" x1="22.00" y1="61.70" x2="23.00" y2="61.70"/>
<rect class="action" x="23.00" y="60.12" width="12.35" height="3.16" rx="0.45" ry="0.45"/>
<text class="action-label" x="29.18" y="61.29"><tspan x="29.18" dy="0">串流回應與</tspan><tspan x="29.18" dy="0.82">afterhook</tspan></text>
<line class="assoc" x1="32.00" y1="70.86" x2="33.00" y2="70.86"/>
<rect class="action" x="33.00" y="69.28" width="12.35" height="3.16" rx="0.45" ry="0.45"/>
<text class="action-label" x="39.17" y="70.45"><tspan x="39.17" dy="0">閒置</tspan><tspan x="39.17" dy="0.82">waiting</tspan></text>
<line class="assoc" x1="42.00" y1="80.02" x2="43.00" y2="80.02"/>
<rect class="action" x="43.00" y="78.44" width="12.35" height="3.16" rx="0.45" ry="0.45"/>
<text class="action-label" x="49.17" y="79.20"><tspan x="49.17" dy="0">閒置</tspan><tspan x="49.17" dy="0.82">sweep無</tspan><tspan x="49.17" dy="0.82">optoday</tspan></text>
<line class="assoc" x1="52.00" y1="89.18" x2="53.00" y2="89.18"/>
<rect class="action" x="53.00" y="87.60" width="12.35" height="3.16" rx="0.45" ry="0.45"/>
<text class="action-label" x="59.17" y="88.77"><tspan x="59.17" dy="0">unload與發</tspan><tspan x="59.17" dy="0.82">出bus事件</tspan></text>
<line class="gate" x1="19.00" y1="9.16" x2="21.00" y2="9.16"/>
<text class="gate-label" x="21.40" y="9.16">使用者installsapp || /api/v2/mcp/store/apps POST</text>
<line class="gate" x1="19.00" y1="16.32" x2="21.00" y2="16.32"/>
<text class="gate-label" x="21.40" y="16.32">Manifest路徑已解析</text>
<line class="gate" x1="19.00" y1="23.48" x2="21.00" y2="23.48"/>
<text class="gate-label" x="21.40" y="23.48">zodValidatePass &amp;&amp; bindMountLintPass</text>
<line class="gate" x1="6.00" y1="30.64" x2="34.00" y2="30.64"/>
<line class="gate" x1="8.00" y1="41.80" x2="32.00" y2="41.80"/>
<line class="gate" x1="18.00" y1="50.96" x2="22.00" y2="50.96"/>
<line class="gate" x1="19.00" y1="58.12" x2="21.00" y2="58.12"/>
<text class="gate-label" x="21.40" y="58.12">模型invokes工具 &amp;&amp; argsValidate (relaxed token pattern)</text>
<line class="gate" x1="6.00" y1="65.28" x2="34.00" y2="65.28"/>
<line class="gate" x1="16.00" y1="74.44" x2="44.00" y2="74.44"/>
<line class="gate" x1="26.00" y1="83.60" x2="54.00" y2="83.60"/>
<line class="gate" x1="49.00" y1="92.76" x2="51.00" y2="92.76"/>
<text class="gate-label" x="51.40" y="92.76">clientClosed &amp;&amp; 狀態[clientName] cleared</text>
<line class="gate" x1="9.00" y1="32.64" x2="11.00" y2="32.64"/>
<text class="gate-label-left" x="8.60" y="32.64">項目.transport == &#x27;stdio&#x27;</text>
<line class="gate" x1="29.00" y1="32.64" x2="31.00" y2="32.64"/>
<text class="gate-label" x="31.40" y="32.64">項目.transport == &#x27;streamable-http&#x27; || &#x27;sse&#x27;</text>
<line class="gate" x1="9.00" y1="39.80" x2="11.00" y2="39.80"/>
<text class="gate-label-left" x="8.60" y="39.80">啟動ok &amp;&amp; initializeHandshakeOk</text>
<line class="gate" x1="29.00" y1="39.80" x2="31.00" y2="39.80"/>
<text class="gate-label" x="31.40" y="39.80">streamableHttpOk || ssefallbackok</text>
<line class="gate" x1="19.00" y1="48.96" x2="21.00" y2="48.96"/>
<text class="gate-label" x="21.40" y="48.96">清單toolsok &amp;&amp; enablementSnapshotInjected</text>
<line class="gate" x1="9.00" y1="67.28" x2="11.00" y2="67.28"/>
<text class="gate-label-left" x="8.60" y="67.28">下一個工具呼叫arrives</text>
<line class="gate" x1="29.00" y1="67.28" x2="31.00" y2="67.28"/>
<text class="gate-label" x="31.40" y="67.28">無待處理呼叫</text>
<line class="gate" x1="19.00" y1="76.44" x2="21.00" y2="76.44"/>
<text class="gate-label-left" x="18.60" y="76.44">模型resumes工具use</text>
<line class="gate" x1="39.00" y1="76.44" x2="41.00" y2="76.44"/>
<text class="gate-label" x="41.40" y="76.44">now - lastused於 &gt; tweaks.mcp.閒置unloadms (proposed)</text>
<line class="gate" x1="29.00" y1="85.60" x2="31.00" y2="85.60"/>
<text class="gate-label-left" x="28.60" y="85.60">proposal不已交付 (stay 已釘選)</text>
<line class="gate" x1="49.00" y1="85.60" x2="51.00" y2="85.60"/>
<text class="gate-label" x="51.40" y="85.60">proposal已交付 &amp;&amp; inflight==0 (unload)</text>
<line class="flyover-mask" x1="1.00" y1="69.36" x2="3.00" y2="69.36"/>
<path class="flyover" d="M 1.00 69.36 Q 2.00 68.36 3.00 69.36"/>
<circle class="junction" cx="20.00" cy="51.04" r="0.22"/>
<circle class="junction" cx="2.00" cy="69.28" r="0.22"/>
</svg>