<svg width="1933.7" height="825.8" viewBox="-486.9 -165.8 1933.7 825.8" xmlns="http://www.w3.org/2000/svg">
<defs>
<marker id="arrow" viewBox="0 0 10 10" refX="10" refY="5" markerWidth="6" markerHeight="6" orient="auto-start-reverse"><path d="M 0 0 L 10 5 L 0 10 z" fill="black" /></marker>
<marker id="call_arrow" viewBox="0 0 10 10" refX="10" refY="5" markerWidth="8" markerHeight="8" orient="auto-start-reverse"><path d="M 0 0 L 10 5 L 0 10 M 0 2 L 6 5 L 0 8" fill="none" stroke="black" stroke-width="1" /></marker>
</defs>
<rect x="-486.9" y="-165.8" width="1933.7" height="825.8" fill="white" />
<rect x="130.0" y="120.0" width="250.0" height="160.0" stroke="black" fill="white" stroke-width="1.5" data-id="A11" />
<text x="255.0" y="158.0" text-anchor="middle" font-size="23" font-weight="bold" font-family="'Times New Roman', 'BiauKai', 'DFKai-SB', '標楷體', 'KaiTi', serif" data-id="A11" >A11</text>
<text x="255.0" y="200.8" text-anchor="middle" font-size="25" font-weight="bold" font-family="'Times New Roman', 'BiauKai', 'DFKai-SB', '標楷體', 'KaiTi', serif" data-id="A11" >READ MCP</text>
<text x="255.0" y="247.7" text-anchor="middle" font-size="25" font-weight="bold" font-family="'Times New Roman', 'BiauKai', 'DFKai-SB', '標楷體', 'KaiTi', serif" data-id="A11" >JSON 檔案</text>
<rect x="580.0" y="120.0" width="250.0" height="160.0" stroke="black" fill="white" stroke-width="1.5" data-id="A12" />
<text x="705.0" y="160.9" text-anchor="middle" font-size="21" font-weight="bold" font-family="'Times New Roman', 'BiauKai', 'DFKai-SB', '標楷體', 'KaiTi', serif" data-id="A12" >A12</text>
<text x="705.0" y="200.9" text-anchor="middle" font-size="23" font-weight="bold" font-family="'Times New Roman', 'BiauKai', 'DFKai-SB', '標楷體', 'KaiTi', serif" data-id="A12" >VALIDATE AGAINST</text>
<text x="705.0" y="244.0" text-anchor="middle" font-size="23" font-weight="bold" font-family="'Times New Roman', 'BiauKai', 'DFKai-SB', '標楷體', 'KaiTi', serif" data-id="A12" >MANIFEST SCHEMA</text>
<rect x="130.0" y="450.0" width="250.0" height="160.0" stroke="black" fill="white" stroke-width="1.5" data-id="A13" />
<text x="255.0" y="488.0" text-anchor="middle" font-size="23" font-weight="bold" font-family="'Times New Roman', 'BiauKai', 'DFKai-SB', '標楷體', 'KaiTi', serif" data-id="A13" >A13</text>
<text x="255.0" y="530.8" text-anchor="middle" font-size="25" font-weight="bold" font-family="'Times New Roman', 'BiauKai', 'DFKai-SB', '標楷體', 'KaiTi', serif" data-id="A13" >INFER MANIFEST</text>
<text x="255.0" y="577.7" text-anchor="middle" font-size="25" font-weight="bold" font-family="'Times New Roman', 'BiauKai', 'DFKai-SB', '標楷體', 'KaiTi', serif" data-id="A13" >來自 來源 TREE</text>
<rect x="580.0" y="450.0" width="250.0" height="160.0" stroke="black" fill="white" stroke-width="1.5" data-id="A14" />
<text x="705.0" y="488.0" text-anchor="middle" font-size="23" font-weight="bold" font-family="'Times New Roman', 'BiauKai', 'DFKai-SB', '標楷體', 'KaiTi', serif" data-id="A14" >A14</text>
<text x="705.0" y="530.8" text-anchor="middle" font-size="25" font-weight="bold" font-family="'Times New Roman', 'BiauKai', 'DFKai-SB', '標楷體', 'KaiTi', serif" data-id="A14" >合併 SYSTEM 與</text>
<text x="705.0" y="577.7" text-anchor="middle" font-size="25" font-weight="bold" font-family="'Times New Roman', 'BiauKai', 'DFKai-SB', '標楷體', 'KaiTi', serif" data-id="A14" >使用者 TIERS</text>
<rect x="40.0" y="44.2" width="880.0" height="605.8" stroke="black" fill="none" stroke-width="2" />
<rect x="360.0" y="-155.8" width="240.0" height="110.0" stroke="black" fill="white" stroke-width="1.5" data-id="A1" />
<text x="480.0" y="-116.8" text-anchor="middle" font-size="18" font-weight="bold" font-family="'Times New Roman', 'BiauKai', 'DFKai-SB', '標楷體', 'KaiTi', serif" data-id="A1" >A1</text>
<text x="480.0" y="-81.1" text-anchor="middle" font-size="20" font-weight="bold" font-family="'Times New Roman', 'BiauKai', 'DFKai-SB', '標楷體', 'KaiTi', serif" data-id="A1" >LOAD APP MANIFEST</text>
<line x1="360.0" y1="-155.8" x2="40.0" y2="44.2" stroke="red" stroke-dasharray="5,5" stroke-width="1.0" opacity="0.6" />
<line x1="600.0" y1="-155.8" x2="920.0" y2="44.2" stroke="red" stroke-dasharray="5,5" stroke-width="1.0" opacity="0.6" />
<line x1="360.0" y1="-45.8" x2="40.0" y2="650.0" stroke="red" stroke-dasharray="5,5" stroke-width="1.0" opacity="0.6" />
<line x1="600.0" y1="-45.8" x2="920.0" y2="650.0" stroke="red" stroke-dasharray="5,5" stroke-width="1.0" opacity="0.6" />
<path d="M 380.0 173.3 L 580.0 173.3" stroke="black" stroke-width="1.2" data-arrow-id="a1f1" data-waypoints="380.0,173.3 580.0,173.3" marker-end="url(#arrow)" fill="none" />
<path d="M 380.0 530.0 L 530.0 530.0 Q 540.0 530.0 540.0 520.0 L 540.0 236.7 Q 540.0 226.7 550.0 226.7 L 580.0 226.7" stroke="black" stroke-width="1.2" data-arrow-id="a1f3" data-waypoints="380.0,530.0 540.0,530.0 540.0,226.7 580.0,226.7" marker-end="url(#arrow)" fill="none" />
<path d="M 380.0 226.7 L 410.0 226.7 Q 420.0 226.7 420.0 236.7 L 420.0 310.0 Q 420.0 320.0 410.0 320.0 L 100.0 320.0 Q 90.0 320.0 90.0 330.0 L 90.0 520.0 Q 90.0 530.0 100.0 530.0 L 130.0 530.0" stroke="black" stroke-width="1.2" data-arrow-id="a1f2" data-waypoints="380.0,226.7 420.0,226.7 420.0,320.0 90.0,320.0 90.0,530.0 130.0,530.0" marker-end="url(#arrow)" fill="none" />
<path d="M 830.0 226.7 L 860.0 226.7 Q 870.0 226.7 870.0 236.7 L 870.0 310.0 Q 870.0 320.0 860.0 320.0 L 510.0 320.0 Q 500.0 320.0 500.0 330.0 L 500.0 520.0 Q 500.0 530.0 510.0 530.0 L 580.0 530.0" stroke="black" stroke-width="1.2" data-arrow-id="a1f4" data-waypoints="830.0,226.7 870.0,226.7 870.0,320.0 500.0,320.0 500.0,530.0 580.0,530.0" marker-end="url(#arrow)" fill="none" />
<path d="M -10.0 200.0 L 130.0 200.0" stroke="black" stroke-width="1.2" data-arrow-id="a1in1" data-waypoints="-10.0,200.0 130.0,200.0" marker-end="url(#arrow)" fill="none" />
<path d="M -10.0 360.0 L 450.0 360.0 Q 460.0 360.0 460.0 370.0 L 460.0 480.0 Q 460.0 490.0 470.0 490.0 L 580.0 490.0" stroke="black" stroke-width="1.2" data-arrow-id="a1in2" data-waypoints="-10.0,360.0 460.0,360.0 460.0,490.0 580.0,490.0" marker-end="url(#arrow)" fill="none" />
<path d="M -10.0 400.0 L 410.0 400.0 Q 420.0 400.0 420.0 410.0 L 420.0 560.0 Q 420.0 570.0 430.0 570.0 L 580.0 570.0" stroke="black" stroke-width="1.2" data-arrow-id="a1in3" data-waypoints="-10.0,400.0 420.0,400.0 420.0,570.0 580.0,570.0" marker-end="url(#arrow)" fill="none" />
<path d="M 705.0 84.2 L 705.0 120.0" stroke="black" stroke-width="1.2" data-arrow-id="a1c1" data-waypoints="705.0,84.2 705.0,120.0" marker-end="url(#arrow)" fill="none" />
<path d="M 705.0 414.2 L 705.0 450.0" stroke="black" stroke-width="1.2" data-arrow-id="a1c2" data-waypoints="705.0,414.2 705.0,450.0" marker-end="url(#arrow)" fill="none" />
<path d="M 830.0 173.3 L 970.0 173.3" stroke="black" stroke-width="1.2" data-arrow-id="a1err" data-waypoints="830.0,173.3 970.0,173.3" marker-end="url(#arrow)" fill="none" />
<path d="M 830.0 530.0 L 970.0 530.0" stroke="black" stroke-width="1.2" data-arrow-id="a1out" data-waypoints="830.0,530.0 970.0,530.0" marker-end="url(#arrow)" fill="none" />
<text x="705.0" y="78.2" font-size="14" text-anchor="middle" font-weight="bold" fill="black" font-family="'Times New Roman', 'BiauKai', 'DFKai-SB', '標楷體', 'KaiTi', serif" data-arrow-id="a1c1">Zod mcpappManifest.schema</text>
<text x="705.0" y="408.2" font-size="14" text-anchor="middle" font-weight="bold" fill="black" font-family="'Times New Roman', 'BiauKai', 'DFKai-SB', '標楷體', 'KaiTi', serif" data-arrow-id="a1c2">System-Tier Wins 在 Id Collision</text>
<text x="480.0" y="168.3" font-size="14" font-weight="bold" fill="black" text-anchor="middle" font-family="'Times New Roman', 'BiauKai', 'DFKai-SB', '標楷體', 'KaiTi', serif" data-arrow-id="a1f1">Raw</text>
<text x="480.0" y="185.3" font-size="14" font-weight="bold" fill="black" text-anchor="middle" font-family="'Times New Roman', 'BiauKai', 'DFKai-SB', '標楷體', 'KaiTi', serif" data-arrow-id="a1f1">mcp.js在 位元組</text>
<text x="570.0" y="350.7" font-size="14" font-weight="bold" fill="black" text-anchor="start" font-family="'Times New Roman', 'BiauKai', 'DFKai-SB', '標楷體', 'KaiTi', serif" data-arrow-id="a1f3" >Generated Manifest Draft</text>
<text x="255.0" y="338.0" font-size="14" font-weight="bold" fill="black" text-anchor="middle" font-family="'Times New Roman', 'BiauKai', 'DFKai-SB', '標楷體', 'KaiTi', serif" data-arrow-id="a1f2" >ENOENT Signal</text>
<text x="705.0" y="312.0" font-size="14" font-weight="bold" fill="black" text-anchor="middle" font-family="'Times New Roman', 'BiauKai', 'DFKai-SB', '標楷體', 'KaiTi', serif" data-arrow-id="a1f4" >Validated mcpappManifest</text>
<text x="-14.0" y="204.0" font-size="20" text-anchor="end" font-weight="bold" fill="black" font-family="'Times New Roman', 'BiauKai', 'DFKai-SB', '標楷體', 'KaiTi', serif" data-arrow-id="a1in1">App Directory 路徑</text>
<text x="-14.0" y="351.0" font-size="20" text-anchor="end" font-weight="bold" fill="black" font-family="'Times New Roman', 'BiauKai', 'DFKai-SB', '標楷體', 'KaiTi', serif" data-arrow-id="a1in2">/etc/opencode/</text>
<text x="-14.0" y="377.0" font-size="20" text-anchor="end" font-weight="bold" fill="black" font-family="'Times New Roman', 'BiauKai', 'DFKai-SB', '標楷體', 'KaiTi', serif" data-arrow-id="a1in2">mcp-apps.js在 (system)</text>
<text x="-14.0" y="404.0" font-size="20" text-anchor="end" font-weight="bold" fill="black" font-family="'Times New Roman', 'BiauKai', 'DFKai-SB', '標楷體', 'KaiTi', serif" data-arrow-id="a1in3">~/.config/opencode/mcp-apps.js在 (使用者)</text>
<text x="974.0" y="164.3" font-size="20" text-anchor="start" font-weight="bold" fill="black" font-family="'Times New Roman', 'BiauKai', 'DFKai-SB', '標楷體', 'KaiTi', serif" data-arrow-id="a1err">mcpManifest不found錯</text>
<text x="974.0" y="190.3" font-size="20" text-anchor="start" font-weight="bold" fill="black" font-family="'Times New Roman', 'BiauKai', 'DFKai-SB', '標楷體', 'KaiTi', serif" data-arrow-id="a1err">誤 (無 靜默 fallback)</text>
<text x="974.0" y="534.0" font-size="20" text-anchor="start" font-weight="bold" fill="black" font-family="'Times New Roman', 'BiauKai', 'DFKai-SB', '標楷體', 'KaiTi', serif" data-arrow-id="a1out">Merged App Catalog</text>
<path d="M 570.0,346.5 L 569.4,346.9 L 568.8,347.4 L 568.1,347.8 L 567.5,348.2 L 566.9,348.6 L 566.2,348.9 L 565.6,349.2 L 565.0,349.5 L 564.4,349.7 L 563.8,349.8 L 563.1,349.9 L 562.5,350.0 L 561.9,349.9 L 561.2,349.8 L 560.6,349.7 L 560.0,349.5 L 559.4,349.2 L 558.8,348.9 L 558.1,348.6 L 557.5,348.2 L 556.9,347.8 L 556.2,347.4 L 555.6,346.9 L 555.0,346.5 L 554.4,346.0 L 553.8,345.6 L 553.1,345.1 L 552.5,344.7 L 551.9,344.3 L 551.2,344.0 L 550.6,343.7 L 550.0,343.4 L 549.4,343.2 L 548.8,343.1 L 548.1,343.0 L 547.5,343.0 L 546.9,343.0 L 546.2,343.1 L 545.6,343.2 L 545.0,343.4 L 544.4,343.7 L 543.8,344.0 L 543.1,344.3 L 542.5,344.7 L 541.9,345.1 L 541.2,345.6 L 540.6,346.0 L 540.0,346.5" stroke="red" stroke-width="0.8" fill="none" opacity="0.5" />
</svg>