<svg xmlns="http://www.w3.org/2000/svg" width="900" height="1400" viewBox="-4.00 -2.00 45.00 70.00" role="img">
<style>
.step{fill:#fff;stroke:#111;stroke-width:.14}.step-inner{fill:none;stroke:#111;stroke-width:.08}
.action{fill:#fff;stroke:#111;stroke-width:.14}.gate{stroke:#111;stroke-width:.16}
.edge{fill:none;stroke:#111;stroke-width:.05;stroke-linecap:round;stroke-linejoin:round}.edge-arrow{marker-end:url(#arrow)}
.flyover-mask{stroke:#fff;stroke-width:.12;stroke-linecap:round}
.flyover{fill:none;stroke:#111;stroke-width:.05;stroke-linecap:round}
.junction{fill:#111;stroke:#111;stroke-width:0}.branch-junction{fill:#fff;stroke:#111;stroke-width:.08}
.assoc{stroke:#111;stroke-width:.05}.label{font:bold .7px 'Times New Roman', 'BiauKai', 'DFKai-SB', serif;text-anchor:middle;dominant-baseline:middle}
.action-label{font:.55px 'Times New Roman', 'BiauKai', 'DFKai-SB', serif;text-anchor:middle;dominant-baseline:middle}.gate-label{font:italic .55px 'Times New Roman', 'BiauKai', 'DFKai-SB', serif;text-anchor:start;dominant-baseline:middle}.gate-label-left{font:italic .55px 'Times New Roman', 'BiauKai', 'DFKai-SB', serif;text-anchor:end;dominant-baseline:middle}
</style>
<defs><marker id="arrow" markerWidth="0.4" markerHeight="0.4" refX="0.36" refY="0.2" orient="auto" markerUnits="userSpaceOnUse"><path d="M 0 0 L 0.4 0.2 L 0 0.4 z" fill="#111"/></marker></defs>
<rect x="-4.00" y="-2.00" width="45.00" height="70.00" fill="white"/>
<path class="edge edge-arrow" d="M 20.00 18.00 L 20.00 24.00"/>
<path class="edge" d="M 20.00 7.00 L 20.00 9.00"/>
<path class="edge edge-arrow" d="M 20.00 9.00 L 20.00 11.00"/>
<path class="edge" d="M 20.00 14.00 L 20.00 16.00"/>
<path class="edge" d="M 20.00 16.00 L 20.00 18.00"/>
<path class="edge" d="M 20.00 16.00 L 29.50 16.00 Q 30.00 16.00 30.00 16.50 L 30.00 18.00"/>
<path class="edge edge-arrow" d="M 30.00 18.00 L 30.00 24.00"/>
<path class="edge edge-arrow" d="M 20.00 27.00 L 20.00 29.00"/>
<path class="edge edge-arrow" d="M 20.00 29.00 L 20.00 35.00"/>
<path class="edge edge-arrow" d="M 10.00 29.00 L 10.00 35.00"/>
<path class="edge" d="M 30.00 27.00 L 30.00 29.00"/>
<path class="edge edge-arrow" d="M 30.00 29.00 L 30.00 30.50 Q 30.00 31.00 29.50 31.00 L 4.50 31.00 Q 4.00 31.00 4.00 30.50 L 4.00 2.50 Q 4.00 2.00 4.50 2.00 L 19.50 2.00 Q 20.00 2.00 20.00 2.50 L 20.00 4.00"/>
<path class="edge edge-arrow" d="M 20.00 38.00 L 20.00 42.00"/>
<path class="edge edge-arrow" d="M 20.00 42.00 L 20.00 48.00"/>
<path class="edge edge-arrow" d="M 10.00 42.00 L 10.00 48.00"/>
<path class="edge" d="M 10.00 38.00 L 10.00 42.00"/>
<path class="edge" d="M 10.00 48.00 L 10.00 52.00"/>
<path class="edge" d="M 10.00 52.00 L 0.00 52.00"/>
<path class="edge" d="M 0.00 52.00 L 0.00 22.00"/>
<path class="edge" d="M 0.00 22.00 L 20.00 22.00"/>
<path class="edge" d="M 20.00 51.00 L 20.00 53.00"/>
<path class="edge edge-arrow" d="M 20.00 53.00 L 20.00 57.00"/>
<path class="edge" d="M 10.00 52.00 L 10.00 53.00"/>
<path class="edge" d="M 10.00 53.00 L 10.00 55.00"/>
<path class="edge" d="M 10.00 55.00 L 0.00 55.00"/>
<path class="edge" d="M 0.00 55.00 L 0.00 52.00"/>
<path class="edge" d="M 20.00 60.00 L 20.00 62.00"/>
<path class="edge" d="M 20.00 62.00 L 20.00 64.00"/>
<path class="edge" d="M 20.00 64.00 L 4.00 64.00"/>
<path class="edge" d="M 4.00 64.00 L 4.00 31.00"/>
<rect class="step" x="18.00" y="4.00" width="4.00" height="3.00" rx="0.35" ry="0.35"/>
<rect class="step-inner" x="18.25" y="4.25" width="3.50" height="2.50" rx="0.22" ry="0.22"/>
<text class="label" x="20.00" y="5.50">0</text>
<rect class="step" x="18.00" y="11.00" width="4.00" height="3.00" rx="0.35" ry="0.35"/>
<text class="label" x="20.00" y="12.50">1</text>
<rect class="step" x="18.00" y="24.00" width="4.00" height="3.00" rx="0.35" ry="0.35"/>
<text class="label" x="20.00" y="25.50">2</text>
<rect class="step" x="28.00" y="24.00" width="4.00" height="3.00" rx="0.35" ry="0.35"/>
<text class="label" x="30.00" y="25.50">3</text>
<rect class="step" x="18.00" y="35.00" width="4.00" height="3.00" rx="0.35" ry="0.35"/>
<text class="label" x="20.00" y="36.50">4</text>
<rect class="step" x="8.00" y="35.00" width="4.00" height="3.00" rx="0.35" ry="0.35"/>
<text class="label" x="10.00" y="36.50">5</text>
<rect class="step" x="18.00" y="48.00" width="4.00" height="3.00" rx="0.35" ry="0.35"/>
<text class="label" x="20.00" y="49.50">6</text>
<rect class="step" x="8.00" y="48.00" width="4.00" height="3.00" rx="0.35" ry="0.35"/>
<text class="label" x="10.00" y="49.50">7</text>
<rect class="step" x="18.00" y="57.00" width="4.00" height="3.00" rx="0.35" ry="0.35"/>
<text class="label" x="20.00" y="58.50">8</text>
<line class="assoc" x1="22.00" y1="5.50" x2="23.00" y2="5.50"/>
<rect class="action" x="23.00" y="4.07" width="4.00" height="2.86"/>
<text class="action-label" x="25.00" y="4.68"><tspan x="25.00" dy="0">等待 Ap</tspan><tspan x="25.00" dy="0.82">proved 規</tspan><tspan x="25.00" dy="0.82">劃 Exit</tspan></text>
<line class="assoc" x1="22.00" y1="12.50" x2="23.00" y2="12.50"/>
<rect class="action" x="23.00" y="11.07" width="4.00" height="2.86"/>
<text class="action-label" x="25.00" y="11.68"><tspan x="25.00" dy="0">Bootstra</tspan><tspan x="25.00" dy="0.82">p Beta Br</tspan><tspan x="25.00" dy="0.82">anch Work</tspan></text>
<line class="assoc" x1="22.00" y1="25.50" x2="23.00" y2="25.50"/>
<rect class="action" x="23.00" y="24.07" width="4.00" height="2.86"/>
<text class="action-label" x="25.00" y="24.68"><tspan x="25.00" dy="0">執行 Rou</tspan><tspan x="25.00" dy="0.82">tine 建置</tspan><tspan x="25.00" dy="0.82">Git Flow</tspan></text>
<line class="assoc" x1="32.00" y1="25.50" x2="33.00" y2="25.50"/>
<rect class="action" x="33.00" y="24.07" width="4.00" height="2.86"/>
<text class="action-label" x="35.00" y="24.68"><tspan x="35.00" dy="0">Pause</tspan><tspan x="35.00" dy="0.82">供 Clar</tspan><tspan x="35.00" dy="0.82">ification</tspan></text>
<line class="assoc" x1="22.00" y1="36.50" x2="23.00" y2="36.50"/>
<rect class="action" x="23.00" y="35.07" width="4.00" height="2.86"/>
<text class="action-label" x="25.00" y="35.68"><tspan x="25.00" dy="0">Validate</tspan><tspan x="25.00" dy="0.82">Main Repo</tspan><tspan x="25.00" dy="0.82">Syncback</tspan></text>
<line class="assoc" x1="12.00" y1="36.50" x2="13.00" y2="36.50"/>
<rect class="action" x="13.00" y="35.07" width="4.00" height="2.86"/>
<text class="action-label" x="15.00" y="36.09"><tspan x="15.00" dy="0">繼續 Bet</tspan><tspan x="15.00" dy="0.82">a Iteration</tspan></text>
<line class="assoc" x1="22.00" y1="49.50" x2="23.00" y2="49.50"/>
<rect class="action" x="23.00" y="48.07" width="4.00" height="2.86"/>
<text class="action-label" x="25.00" y="48.68"><tspan x="25.00" dy="0">Prepare</tspan><tspan x="25.00" dy="0.82">合併 P</tspan><tspan x="25.00" dy="0.82">reflight</tspan></text>
<line class="assoc" x1="12.00" y1="49.50" x2="13.00" y2="49.50"/>
<rect class="action" x="13.00" y="48.07" width="4.00" height="2.86"/>
<text class="action-label" x="15.00" y="48.68"><tspan x="15.00" dy="0">返回 到</tspan><tspan x="15.00" dy="0.82">Beta Bra</tspan><tspan x="15.00" dy="0.82">nch Work</tspan></text>
<line class="assoc" x1="22.00" y1="58.50" x2="23.00" y2="58.50"/>
<rect class="action" x="23.00" y="57.07" width="4.00" height="2.86"/>
<text class="action-label" x="25.00" y="57.68"><tspan x="25.00" dy="0">Pause 供</tspan><tspan x="25.00" dy="0.82">合併 A</tspan><tspan x="25.00" dy="0.82">pproval</tspan></text>
<line class="gate" x1="19.00" y1="9.00" x2="21.00" y2="9.00"/>
<text class="gate-label" x="21.40" y="9.00"><tspan x="21.40" dy="0">approved規劃就緒</tspan></text>
<line class="gate" x1="19.00" y1="18.00" x2="21.00" y2="18.00"/>
<text class="gate-label" x="21.40" y="18.00"><tspan x="21.40" dy="0">beta上下文已解析</tspan></text>
<line class="gate" x1="29.00" y1="18.00" x2="31.00" y2="18.00"/>
<text class="gate-label" x="31.40" y="18.00"><tspan x="31.40" dy="0">clarification或blocker</tspan></text>
<line class="gate" x1="8.00" y1="29.00" x2="22.00" y2="29.00"/>
<line class="gate" x1="29.00" y1="29.00" x2="31.00" y2="29.00"/>
<text class="gate-label" x="31.40" y="29.00"><tspan x="31.40" dy="0">clarificationanswered</tspan></text>
<line class="gate" x1="8.00" y1="42.00" x2="22.00" y2="42.00"/>
<line class="gate" x1="9.00" y1="46.00" x2="11.00" y2="46.00"/>
<text class="gate-label" x="11.40" y="46.00"><tspan x="11.40" dy="0">more建置work</tspan></text>
<line class="gate" x1="19.00" y1="53.00" x2="21.00" y2="53.00"/>
<text class="gate-label" x="21.40" y="53.00"><tspan x="21.40" dy="0">合併preflight就緒</tspan></text>
<line class="gate" x1="9.00" y1="53.00" x2="11.00" y2="53.00"/>
<text class="gate-label" x="11.40" y="53.00"><tspan x="11.40" dy="0">reworkrequired</tspan></text>
<line class="gate" x1="19.00" y1="62.00" x2="21.00" y2="62.00"/>
<text class="gate-label" x="21.40" y="62.00"><tspan x="21.40" dy="0">approvaldeferred或完成</tspan></text>
<line class="gate" x1="19.00" y1="33.00" x2="21.00" y2="33.00"/>
<text class="gate-label" x="21.40" y="33.00"><tspan x="21.40" dy="0">validationneeded</tspan></text>
<line class="gate" x1="9.00" y1="33.00" x2="11.00" y2="33.00"/>
<text class="gate-label-left" x="8.60" y="32.32"><tspan x="8.60" dy="0">建置fai</tspan><tspan x="8.60" dy="0.68">led或nee</tspan><tspan x="8.60" dy="0.68">dsrework</tspan></text>
<line class="gate" x1="19.00" y1="46.00" x2="21.00" y2="46.00"/>
<text class="gate-label" x="21.40" y="46.00"><tspan x="21.40" dy="0">validationpassed</tspan></text>
<line class="gate" x1="9.00" y1="44.00" x2="11.00" y2="44.00"/>
<text class="gate-label-left" x="8.60" y="44.00"><tspan x="8.60" dy="0">validationfailed</tspan></text>
<circle class="junction" cx="20.00" cy="22.00" r="0.22"/>
<circle class="junction" cx="4.00" cy="31.00" r="0.22"/>
<circle class="branch-junction" cx="10.00" cy="52.00" r="0.22"/>
<circle class="junction" cx="0.00" cy="52.00" r="0.22"/>
<circle class="branch-junction" cx="20.00" cy="16.00" r="0.28"/>
</svg>