<svg width="1552.9" height="787.6" viewBox="-215.4 -171.8 1552.9 787.6" xmlns="http://www.w3.org/2000/svg">
<defs>
<marker id="arrow" viewBox="0 0 10 10" refX="10" refY="5" markerWidth="6" markerHeight="6" orient="auto-start-reverse"><path d="M 0 0 L 10 5 L 0 10 z" fill="black" /></marker>
<marker id="call_arrow" viewBox="0 0 10 10" refX="10" refY="5" markerWidth="8" markerHeight="8" orient="auto-start-reverse"><path d="M 0 0 L 10 5 L 0 10 M 0 2 L 6 5 L 0 8" fill="none" stroke="black" stroke-width="1" /></marker>
</defs>
<rect x="-215.4" y="-171.8" width="1552.9" height="787.6" fill="white" />
<rect x="130.0" y="120.0" width="219.0" height="160.0" stroke="black" fill="white" stroke-width="1.5" data-id="A41" />
<text x="239.5" y="179.9" text-anchor="middle" font-size="26" font-weight="bold" font-family="'Times New Roman', 'BiauKai', 'DFKai-SB', '標楷體', 'KaiTi', serif" data-id="A41" >A41</text>
<text x="239.5" y="227.0" text-anchor="middle" font-size="28" font-weight="bold" font-family="'Times New Roman', 'BiauKai', 'DFKai-SB', '標楷體', 'KaiTi', serif" data-id="A41" >註冊內建工具</text>
<rect x="474.0" y="120.0" width="219.0" height="160.0" stroke="black" fill="white" stroke-width="1.5" data-id="A42" />
<text x="583.5" y="180.9" text-anchor="middle" font-size="24" font-weight="bold" font-family="'Times New Roman', 'BiauKai', 'DFKai-SB', '標楷體', 'KaiTi', serif" data-id="A42" >A42</text>
<text x="583.5" y="225.2" text-anchor="middle" font-size="26" font-weight="bold" font-family="'Times New Roman', 'BiauKai', 'DFKai-SB', '標楷體', 'KaiTi', serif" data-id="A42" >解析每輪工具表面</text>
<rect x="773.0" y="120.0" width="219.0" height="160.0" stroke="black" fill="white" stroke-width="1.5" data-id="A43" />
<text x="882.5" y="179.9" text-anchor="middle" font-size="26" font-weight="bold" font-family="'Times New Roman', 'BiauKai', 'DFKai-SB', '標楷體', 'KaiTi', serif" data-id="A43" >A43</text>
<text x="882.5" y="227.0" text-anchor="middle" font-size="28" font-weight="bold" font-family="'Times New Roman', 'BiauKai', 'DFKai-SB', '標楷體', 'KaiTi', serif" data-id="A43" >分派工具執行</text>
<rect x="130.0" y="370.0" width="219.0" height="160.0" stroke="black" fill="white" stroke-width="1.5" data-id="A44" />
<text x="239.5" y="408.0" text-anchor="middle" font-size="23" font-weight="bold" font-family="'Times New Roman', 'BiauKai', 'DFKai-SB', '標楷體', 'KaiTi', serif" data-id="A44" >A44</text>
<text x="239.5" y="450.8" text-anchor="middle" font-size="25" font-weight="bold" font-family="'Times New Roman', 'BiauKai', 'DFKai-SB', '標楷體', 'KaiTi', serif" data-id="A44" >管理 MCP</text>
<text x="239.5" y="497.7" text-anchor="middle" font-size="25" font-weight="bold" font-family="'Times New Roman', 'BiauKai', 'DFKai-SB', '標楷體', 'KaiTi', serif" data-id="A44" >APP 生命週期</text>
<rect x="474.0" y="370.0" width="219.0" height="160.0" stroke="black" fill="white" stroke-width="1.5" data-id="A45" />
<text x="583.5" y="408.0" text-anchor="middle" font-size="23" font-weight="bold" font-family="'Times New Roman', 'BiauKai', 'DFKai-SB', '標楷體', 'KaiTi', serif" data-id="A45" >A45</text>
<text x="583.5" y="450.8" text-anchor="middle" font-size="25" font-weight="bold" font-family="'Times New Roman', 'BiauKai', 'DFKai-SB', '標楷體', 'KaiTi', serif" data-id="A45" >轉換 MCP 為</text>
<text x="583.5" y="497.7" text-anchor="middle" font-size="25" font-weight="bold" font-family="'Times New Roman', 'BiauKai', 'DFKai-SB', '標楷體', 'KaiTi', serif" data-id="A45" >AI SDK 格式</text>
<rect x="80.0" y="38.2" width="962.0" height="567.6" stroke="black" fill="none" stroke-width="2" />
<rect x="441.0" y="-161.8" width="240.0" height="110.0" stroke="black" fill="white" stroke-width="1.5" data-id="A4" />
<text x="561.0" y="-122.8" text-anchor="middle" font-size="18" font-weight="bold" font-family="'Times New Roman', 'BiauKai', 'DFKai-SB', '標楷體', 'KaiTi', serif" data-id="A4" >A4</text>
<text x="561.0" y="-87.1" text-anchor="middle" font-size="20" font-weight="bold" font-family="'Times New Roman', 'BiauKai', 'DFKai-SB', '標楷體', 'KaiTi', serif" data-id="A4" >A4 — 執行工具與 MCP</text>
<line x1="441.0" y1="-161.8" x2="80.0" y2="38.2" stroke="red" stroke-dasharray="5,5" stroke-width="1.0" opacity="0.6" />
<line x1="681.0" y1="-161.8" x2="1042.0" y2="38.2" stroke="red" stroke-dasharray="5,5" stroke-width="1.0" opacity="0.6" />
<line x1="441.0" y1="-51.8" x2="80.0" y2="605.8" stroke="red" stroke-dasharray="5,5" stroke-width="1.0" opacity="0.6" />
<line x1="681.0" y1="-51.8" x2="1042.0" y2="605.8" stroke="red" stroke-dasharray="5,5" stroke-width="1.0" opacity="0.6" />
<path d="M 349.0 160.0 L 474.0 160.0" stroke="black" stroke-width="1.2" data-arrow-id="F1" data-waypoints="349.0,160.0 474.0,160.0" marker-end="url(#arrow)" fill="none" />
<path d="M 349.0 423.3 L 474.0 423.3" stroke="black" stroke-width="1.2" data-arrow-id="F4" data-waypoints="349.0,423.3 474.0,423.3" marker-end="url(#arrow)" fill="none" />
<path d="M 349.0 476.7 L 380.7 476.7 Q 390.7 476.7 390.7 466.7 L 390.7 210.0 Q 390.7 200.0 400.7 200.0 L 474.0 200.0" stroke="black" stroke-width="1.2" data-arrow-id="F2" data-waypoints="349.0,476.7 390.7,476.7 390.7,200.0 474.0,200.0" marker-end="url(#arrow)" fill="none" />
<path d="M 693.0 450.0 L 723.0 450.0 Q 733.0 450.0 733.0 440.0 L 733.0 340.0 Q 733.0 330.0 723.0 330.0 L 442.3 330.0 Q 432.3 330.0 432.3 320.0 L 432.3 250.0 Q 432.3 240.0 442.3 240.0 L 474.0 240.0" stroke="black" stroke-width="1.2" data-arrow-id="F5" data-waypoints="693.0,450.0 733.0,450.0 733.0,330.0 432.3,330.0 432.3,240.0 474.0,240.0" marker-end="url(#arrow)" fill="none" />
<path d="M 30.0 200.0 L 130.0 200.0" stroke="black" stroke-width="1.2" data-arrow-id="I1" data-waypoints="30.0,200.0 130.0,200.0" marker-end="url(#arrow)" fill="none" />
<path d="M 30.0 78.2 L 723.0 78.2 Q 733.0 78.2 733.0 88.2 L 733.0 190.0 Q 733.0 200.0 743.0 200.0 L 773.0 200.0" stroke="black" stroke-width="1.2" data-arrow-id="I2" data-waypoints="30.0,78.2 733.0,78.2 733.0,200.0 773.0,200.0" marker-end="url(#arrow)" fill="none" />
<path d="M 30.0 450.0 L 130.0 450.0" stroke="black" stroke-width="1.2" data-arrow-id="I3" data-waypoints="30.0,450.0 130.0,450.0" marker-end="url(#arrow)" fill="none" />
<path d="M 882.5 315.8 L 882.5 280.0" stroke="black" stroke-width="1.2" data-arrow-id="M1" data-waypoints="882.5,315.8 882.5,280.0" marker-end="url(#arrow)" fill="none" />
<path d="M 882.5 84.2 L 882.5 120.0" stroke="black" stroke-width="1.2" data-arrow-id="F3" data-waypoints="882.5,84.2 882.5,120.0" marker-end="url(#arrow)" fill="none" />
<path d="M 992.0 200.0 L 1092.0 200.0" stroke="black" stroke-width="1.2" data-arrow-id="O1" data-waypoints="992.0,200.0 1092.0,200.0" marker-end="url(#arrow)" fill="none" />
<path d="M 583.5 84.2 L 583.5 120.0" stroke="black" stroke-width="1.2" data-arrow-id="_merged_A42_control" data-waypoints="583.5,84.2 583.5,120.0" marker-end="url(#arrow)" fill="none" />
<path d="M 239.5 565.8 L 239.5 530.0" stroke="black" stroke-width="1.2" data-arrow-id="_merged_A44_mechanism" data-waypoints="239.5,565.8 239.5,530.0" marker-end="url(#arrow)" fill="none" />
<text x="882.5" y="331.8" font-size="14" text-anchor="middle" font-weight="bold" fill="black" font-family="'Times New Roman', 'BiauKai', 'DFKai-SB', '標楷體', 'KaiTi', serif" data-arrow-id="M1">Shell 與檔案系統</text>
<text x="882.5" y="78.2" font-size="14" text-anchor="middle" font-weight="bold" fill="black" font-family="'Times New Roman', 'BiauKai', 'DFKai-SB', '標楷體', 'KaiTi', serif" data-arrow-id="F3">已解析的工具表面</text>
<text x="577.5" y="114.0" font-size="14" text-anchor="end" font-weight="bold" fill="black" font-family="'Times New Roman', 'BiauKai', 'DFKai-SB', '標楷體', 'KaiTi', serif" data-arrow-id="C1">Session 權限等級、Dirty</text>
<text x="589.5" y="114.0" font-size="14" text-anchor="start" font-weight="bold" fill="black" font-family="'Times New Roman', 'BiauKai', 'DFKai-SB', '標楷體', 'KaiTi', serif" data-arrow-id="C1">Flag (mcp.tools.changed)</text>
<text x="239.5" y="581.8" font-size="14" text-anchor="middle" font-weight="bold" fill="black" font-family="'Times New Roman', 'BiauKai', 'DFKai-SB', '標楷體', 'KaiTi', serif" data-arrow-id="M2">managed-apps.json 與 gauth.json、MCP 伺服器程序</text>
<text x="411.5" y="178.0" font-size="14" font-weight="bold" fill="black" text-anchor="middle" font-family="'Times New Roman', 'BiauKai', 'DFKai-SB', '標楷體', 'KaiTi', serif" data-arrow-id="F1" >內建工具註冊表</text>
<text x="411.5" y="418.3" font-size="14" font-weight="bold" fill="black" text-anchor="middle" font-family="'Times New Roman', 'BiauKai', 'DFKai-SB', '標楷體', 'KaiTi', serif" data-arrow-id="F4">原始 MCP 工具</text>
<text x="411.5" y="435.3" font-size="14" font-weight="bold" fill="black" text-anchor="middle" font-family="'Times New Roman', 'BiauKai', 'DFKai-SB', '標楷體', 'KaiTi', serif" data-arrow-id="F4">Schema</text>
<text x="360.7" y="329.5" font-size="14" font-weight="bold" fill="black" text-anchor="end" font-family="'Times New Roman', 'BiauKai', 'DFKai-SB', '標楷體', 'KaiTi', serif" data-arrow-id="F2" >MCP 工具定義</text>
<text x="583.5" y="322.0" font-size="14" font-weight="bold" fill="black" text-anchor="middle" font-family="'Times New Roman', 'BiauKai', 'DFKai-SB', '標楷體', 'KaiTi', serif" data-arrow-id="F5" >AI SDK 相容工具</text>
<text x="26.0" y="204.0" font-size="20" text-anchor="end" font-weight="bold" fill="black" font-family="'Times New Roman', 'BiauKai', 'DFKai-SB', '標楷體', 'KaiTi', serif" data-arrow-id="I1">工具定義（內建）</text>
<text x="26.0" y="82.2" font-size="20" text-anchor="end" font-weight="bold" fill="black" font-family="'Times New Roman', 'BiauKai', 'DFKai-SB', '標楷體', 'KaiTi', serif" data-arrow-id="I2">AI 回應中的工具呼叫</text>
<text x="26.0" y="454.0" font-size="20" text-anchor="end" font-weight="bold" fill="black" font-family="'Times New Roman', 'BiauKai', 'DFKai-SB', '標楷體', 'KaiTi', serif" data-arrow-id="I3">MCP App 安裝/設定請求</text>
<text x="1096.0" y="191.0" font-size="20" text-anchor="start" font-weight="bold" fill="black" font-family="'Times New Roman', 'BiauKai', 'DFKai-SB', '標楷體', 'KaiTi', serif" data-arrow-id="O1">工具執行結果 / 檔案</text>
<text x="1096.0" y="217.0" font-size="20" text-anchor="start" font-weight="bold" fill="black" font-family="'Times New Roman', 'BiauKai', 'DFKai-SB', '標楷體', 'KaiTi', serif" data-arrow-id="O1">異動與 Shell 輸出</text>
<path d="M 360.7,325.3 L 361.3,325.8 L 361.9,326.2 L 362.5,326.7 L 363.2,327.1 L 363.8,327.5 L 364.4,327.8 L 365.0,328.1 L 365.7,328.4 L 366.3,328.6 L 366.9,328.7 L 367.5,328.8 L 368.2,328.8 L 368.8,328.8 L 369.4,328.7 L 370.0,328.6 L 370.7,328.4 L 371.3,328.1 L 371.9,327.8 L 372.5,327.5 L 373.2,327.1 L 373.8,326.7 L 374.4,326.2 L 375.0,325.8 L 375.7,325.3 L 376.3,324.9 L 376.9,324.4 L 377.5,324.0 L 378.2,323.6 L 378.8,323.2 L 379.4,322.8 L 380.0,322.5 L 380.7,322.3 L 381.3,322.1 L 381.9,321.9 L 382.5,321.9 L 383.2,321.8 L 383.8,321.9 L 384.4,321.9 L 385.0,322.1 L 385.7,322.3 L 386.3,322.5 L 386.9,322.8 L 387.5,323.2 L 388.2,323.6 L 388.8,324.0 L 389.4,324.4 L 390.0,324.9 L 390.7,325.3" stroke="red" stroke-width="0.8" fill="none" opacity="0.5" />
</svg>